<?xml version="1.0" encoding="utf-8"?>
<!-- Generator: Adobe Illustrator 24.1.2, SVG Export Plug-In . SVG Version: 6.00 Build 0)  -->
<svg version="1.1" id="Layer_1" xmlns="http://www.w3.org/2000/svg" xmlns:xlink="http://www.w3.org/1999/xlink" x="0px" y="0px"
	 viewBox="0 0 1831.5 581.2" style="enable-background:new 0 0 1831.5 581.2;" xml:space="preserve">
<style type="text/css">
	.st0{fill-rule:evenodd;clip-rule:evenodd;fill:url(#SVGID_1_);}
	.st1{fill-rule:evenodd;clip-rule:evenodd;fill:url(#SVGID_2_);}
	.st2{fill-rule:evenodd;clip-rule:evenodd;fill:url(#SVGID_3_);}
	.st3{fill-rule:evenodd;clip-rule:evenodd;fill:url(#SVGID_4_);}
	.st4{fill-rule:evenodd;clip-rule:evenodd;fill:url(#SVGID_5_);}
	.st5{fill-rule:evenodd;clip-rule:evenodd;fill:url(#SVGID_6_);}
	.st6{fill-rule:evenodd;clip-rule:evenodd;fill:url(#SVGID_7_);}
	.st7{fill-rule:evenodd;clip-rule:evenodd;fill:url(#SVGID_8_);}
	.st8{fill-rule:evenodd;clip-rule:evenodd;fill:url(#SVGID_9_);}
	.st9{fill-rule:evenodd;clip-rule:evenodd;fill:url(#SVGID_10_);}
	.st10{fill-rule:evenodd;clip-rule:evenodd;fill:url(#SVGID_11_);}
	.st11{fill-rule:evenodd;clip-rule:evenodd;fill:url(#SVGID_12_);}
	.st12{fill-rule:evenodd;clip-rule:evenodd;fill:url(#SVGID_13_);}
	.st13{fill-rule:evenodd;clip-rule:evenodd;fill:url(#SVGID_14_);}
	.st14{fill-rule:evenodd;clip-rule:evenodd;fill:url(#SVGID_15_);}
	.st15{fill-rule:evenodd;clip-rule:evenodd;fill:url(#SVGID_16_);}
	.st16{fill-rule:evenodd;clip-rule:evenodd;fill:url(#SVGID_17_);}
	.st17{fill-rule:evenodd;clip-rule:evenodd;fill:url(#SVGID_18_);}
	.st18{fill-rule:evenodd;clip-rule:evenodd;fill:url(#SVGID_19_);}
	.st19{fill-rule:evenodd;clip-rule:evenodd;fill:url(#SVGID_20_);}
	.st20{fill-rule:evenodd;clip-rule:evenodd;fill:url(#SVGID_21_);}
	.st21{fill-rule:evenodd;clip-rule:evenodd;fill:url(#SVGID_22_);}
</style>
<linearGradient id="SVGID_1_" gradientUnits="userSpaceOnUse" x1="766.4" y1="811.9" x2="766.4" y2="352.1" gradientTransform="matrix(1 0 0 1 0 -334)">
	<stop  offset="0" style="stop-color:#FFABD0"/>
	<stop  offset="1" style="stop-color:#7B95D4"/>
</linearGradient>
<polygon class="st0" points="725.9,467.2 729.9,174.7 746.6,103.4 758.8,103.4 766.4,18.1 766.4,18.1 776.8,102.9 786.5,102.9 
	806.9,173.9 806.9,477.9 "/>
<linearGradient id="SVGID_2_" gradientUnits="userSpaceOnUse" x1="563.5" y1="606.5" x2="563.5" y2="381.8" gradientTransform="matrix(1 0 0 1 0 -334)">
	<stop  offset="0" style="stop-color:#FFABD0"/>
	<stop  offset="1" style="stop-color:#7B95D4"/>
</linearGradient>
<polygon class="st1" points="537.4,259.4 537.4,151.2 546.5,140.5 560.2,47.8 577.6,140.5 587.3,151.2 589.6,272.5 "/>
<linearGradient id="SVGID_3_" gradientUnits="userSpaceOnUse" x1="387.75" y1="552.3" x2="387.75" y2="407.1" gradientTransform="matrix(1 0 0 1 0 -334)">
	<stop  offset="0" style="stop-color:#FFABD0"/>
	<stop  offset="1" style="stop-color:#7B95D4"/>
</linearGradient>
<polygon class="st2" points="370.9,209.8 370.9,139.9 376.8,133 385.6,73.1 396.9,133 403.1,139.9 404.6,218.3 "/>
<linearGradient id="SVGID_4_" gradientUnits="userSpaceOnUse" x1="1109.75" y1="898.8" x2="1109.75" y2="455.9" gradientTransform="matrix(1 0 0 1 0 -334)">
	<stop  offset="0" style="stop-color:#FFABD0"/>
	<stop  offset="1" style="stop-color:#7B95D4"/>
</linearGradient>
<polygon class="st3" points="974.1,367.2 1043,294.3 1107.8,292.2 1107.8,275.8 1112.3,272.5 1112.3,136.1 1115.4,121.9 
	1117.5,271.4 1123.9,278.4 1123.9,294.3 1173.4,294.3 1245.4,356.9 1245.4,564.8 999.7,564.8 "/>
<linearGradient id="SVGID_5_" gradientUnits="userSpaceOnUse" x1="901.25" y1="912.7" x2="901.25" y2="334" gradientTransform="matrix(1 0 0 1 0 -334)">
	<stop  offset="0" style="stop-color:#F0E0FF"/>
	<stop  offset="1" style="stop-color:#577AC9"/>
</linearGradient>
<polygon class="st4" points="1623.9,576.8 1616.9,397.8 1624.1,397.8 1589.4,333.6 1493.8,328.6 1493.8,137.8 1459.7,112.4 
	1456.7,12.7 1455.7,12.7 1457.6,112.2 1371.4,117.3 1369.9,149.3 1364,156.6 1362.3,229.1 1284.7,366 1215.2,366 1215.2,347.7 
	1212.3,343.5 1211.2,301 1208.2,288.1 1203.4,299.4 1203.4,343.4 1200.7,345.5 1200.7,365.1 1173.4,427 1179.6,427 1173.4,505.5 
	1159.9,520.8 1126.7,513.7 1040.8,498.1 1005.8,480.7 1007.2,285.5 963.3,193.7 943.5,193.7 940.5,143.5 935.9,137 935.9,4.1 
	933.3,4.1 933.3,135.3 838.1,209.3 828.3,208.1 752,286.3 761.1,285.5 757,448.2 749.7,452.4 705.3,498.4 696.1,475.2 690,168.4 
	644.8,140 489.5,155.3 489.1,181.5 480.3,193.7 458.4,193.7 458.4,137 452.9,121.9 433.1,0 415.5,123.6 409.9,139.4 410.9,180.4 
	393.5,193.7 361.7,193.7 361.7,147.6 355.9,135.3 335.5,55 320.5,132 310.8,149.3 309.1,208.9 312.4,262.9 251.7,315.9 178.4,422.1 
	192.1,422.1 180.6,578.7 "/>
<linearGradient id="SVGID_6_" gradientUnits="userSpaceOnUse" x1="670.45" y1="868.5" x2="670.45" y2="474" gradientTransform="matrix(1 0 0 1 0 -334)">
	<stop  offset="0" style="stop-color:#96B7FF"/>
	<stop  offset="1" style="stop-color:#5375C2"/>
</linearGradient>
<polygon class="st5" points="648.3,534.5 644.8,140 690,168.4 696.1,482.9 "/>
<linearGradient id="SVGID_7_" gradientUnits="userSpaceOnUse" x1="473" y1="812.3" x2="473" y2="527.7" gradientTransform="matrix(1 0 0 1 0 -334)">
	<stop  offset="0" style="stop-color:#96B7FF"/>
	<stop  offset="1" style="stop-color:#5375C2"/>
</linearGradient>
<polygon class="st6" points="458.4,193.7 458.4,451.8 487.6,478.3 480.3,193.7 "/>
<linearGradient id="SVGID_8_" gradientUnits="userSpaceOnUse" x1="401.9" y1="734.3" x2="401.9" y2="514.4" gradientTransform="matrix(1 0 0 1 0 -334)">
	<stop  offset="0" style="stop-color:#96B7FF"/>
	<stop  offset="1" style="stop-color:#5375C2"/>
</linearGradient>
<polygon class="st7" points="410.9,180.4 410.9,353.3 392.9,400.3 393.5,193.7 "/>
<linearGradient id="SVGID_9_" gradientUnits="userSpaceOnUse" x1="985.25" y1="898.8" x2="985.25" y2="527.7" gradientTransform="matrix(1 0 0 1 0 -334)">
	<stop  offset="0" style="stop-color:#96B7FF"/>
	<stop  offset="1" style="stop-color:#5375C2"/>
</linearGradient>
<polygon class="st8" points="963.3,193.7 963.3,564.8 1005.8,480.7 1007.2,285.5 "/>
<linearGradient id="SVGID_10_" gradientUnits="userSpaceOnUse" x1="938.4" y1="726" x2="938.4" y2="469.3" gradientTransform="matrix(1 0 0 1 0 -334)">
	<stop  offset="0" style="stop-color:#96B7FF"/>
	<stop  offset="1" style="stop-color:#5375C2"/>
</linearGradient>
<polygon class="st9" points="933.3,135.3 933.3,392 943.5,372.8 943.5,193.7 940.5,143.5 "/>
<linearGradient id="SVGID_11_" gradientUnits="userSpaceOnUse" x1="833.2" y1="911.8" x2="833.2" y2="542.1" gradientTransform="matrix(1 0 0 1 0 -334)">
	<stop  offset="0" style="stop-color:#96B7FF"/>
	<stop  offset="1" style="stop-color:#5375C2"/>
</linearGradient>
<polygon class="st10" points="828.3,208.1 828.3,576.5 836,577.8 838.1,209.3 "/>
<linearGradient id="SVGID_12_" gradientUnits="userSpaceOnUse" x1="1483.6499" y1="915.2" x2="1483.6499" y2="446.4" gradientTransform="matrix(1 0 0 1 0 -334)">
	<stop  offset="0" style="stop-color:#96B7FF"/>
	<stop  offset="1" style="stop-color:#5375C2"/>
</linearGradient>
<polygon class="st11" points="1459.7,112.4 1459.7,578.7 1507.6,581.2 1493.8,137.8 "/>
<linearGradient id="SVGID_13_" gradientUnits="userSpaceOnUse" x1="1606.75" y1="914.3" x2="1606.75" y2="680.8" gradientTransform="matrix(1 0 0 1 0 -334)">
	<stop  offset="0" style="stop-color:#96B7FF"/>
	<stop  offset="1" style="stop-color:#5375C2"/>
</linearGradient>
<polygon class="st12" points="1589.6,346.8 1593.6,580.3 1623.9,576.8 1616.9,397.8 "/>
<linearGradient id="SVGID_14_" gradientUnits="userSpaceOnUse" x1="857.65" y1="901.1" x2="857.65" y2="536.2" gradientTransform="matrix(1 0 0 1 0 -334)">
	<stop  offset="0" style="stop-color:#96B7FF"/>
	<stop  offset="1" style="stop-color:#5375C2"/>
</linearGradient>
<polygon class="st13" points="856.3,206.8 860.5,202.2 860.5,567.1 854.8,565.1 "/>
<linearGradient id="SVGID_15_" gradientUnits="userSpaceOnUse" x1="875.65" y1="888.1" x2="875.65" y2="523.2" gradientTransform="matrix(1 0 0 1 0 -334)">
	<stop  offset="0" style="stop-color:#96B7FF"/>
	<stop  offset="1" style="stop-color:#5375C2"/>
</linearGradient>
<polygon class="st14" points="874.3,193.8 878.5,189.2 878.5,554.1 872.8,552 "/>
<linearGradient id="SVGID_16_" gradientUnits="userSpaceOnUse" x1="894.65" y1="874.7" x2="894.65" y2="509.8" gradientTransform="matrix(1 0 0 1 0 -334)">
	<stop  offset="0" style="stop-color:#96B7FF"/>
	<stop  offset="1" style="stop-color:#5375C2"/>
</linearGradient>
<polygon class="st15" points="893.3,180.4 897.5,175.8 897.5,540.7 891.8,538.7 "/>
<linearGradient id="SVGID_17_" gradientUnits="userSpaceOnUse" x1="913.8" y1="861.1" x2="913.8" y2="496.2" gradientTransform="matrix(1 0 0 1 0 -334)">
	<stop  offset="0" style="stop-color:#96B7FF"/>
	<stop  offset="1" style="stop-color:#5375C2"/>
</linearGradient>
<polygon class="st16" points="912.4,166.8 916.7,162.2 916.7,527.1 910.9,525 "/>
<linearGradient id="SVGID_18_" gradientUnits="userSpaceOnUse" x1="27.2" y1="914.3" x2="27.2" y2="787.7" gradientTransform="matrix(1 0 0 1 0 -334)">
	<stop  offset="0" style="stop-color:#FFABD0"/>
	<stop  offset="1" style="stop-color:#7B95D4"/>
</linearGradient>
<polygon class="st17" points="54.4,580.3 49.1,455.6 1.7,453.7 0,579.7 "/>
<linearGradient id="SVGID_19_" gradientUnits="userSpaceOnUse" x1="122.75" y1="901.1" x2="122.75" y2="766.5" gradientTransform="matrix(1 0 0 1 0 -334)">
	<stop  offset="0" style="stop-color:#FFABD0"/>
	<stop  offset="1" style="stop-color:#7B95D4"/>
</linearGradient>
<polygon class="st18" points="164.7,554 161.1,454.7 125.4,454.7 125.4,480.7 117.5,480.7 117.5,435.1 80.8,432.5 80.8,567.1 "/>
<linearGradient id="SVGID_20_" gradientUnits="userSpaceOnUse" x1="1789.55" y1="901.1" x2="1789.55" y2="766.5" gradientTransform="matrix(1 0 0 1 0 -334)">
	<stop  offset="0" style="stop-color:#FFABD0"/>
	<stop  offset="1" style="stop-color:#7B95D4"/>
</linearGradient>
<polygon class="st19" points="1831.5,554 1831.5,454.7 1792.2,454.7 1792.2,480.7 1784.3,480.7 1784.3,435.1 1747.6,432.5 
	1747.6,567.1 "/>
<linearGradient id="SVGID_21_" gradientUnits="userSpaceOnUse" x1="1718.7" y1="898.8" x2="1718.7" y2="751.2" gradientTransform="matrix(1 0 0 1 0 -334)">
	<stop  offset="0" style="stop-color:#FFABD0"/>
	<stop  offset="1" style="stop-color:#7B95D4"/>
</linearGradient>
<polygon class="st20" points="1733.2,564.8 1731,417.2 1708.2,417.2 1704.2,561.4 "/>
<linearGradient id="SVGID_22_" gradientUnits="userSpaceOnUse" x1="1673.05" y1="893.1" x2="1673.05" y2="766.5" gradientTransform="matrix(1 0 0 1 0 -334)">
	<stop  offset="0" style="stop-color:#FFABD0"/>
	<stop  offset="1" style="stop-color:#7B95D4"/>
</linearGradient>
<polygon class="st21" points="1699.7,559.1 1702.3,434.7 1647,432.5 1643.8,555.7 "/>
</svg>
