<svg xmlns="http://www.w3.org/2000/svg" xmlns:xlink="http://www.w3.org/1999/xlink" width="706.82" height="373.76" viewBox="0 0 706.82 373.76"><defs><style>.cls-1{fill:url(#linear-gradient);}.cls-2{fill:url(#linear-gradient-2);}.cls-3{fill:url(#linear-gradient-3);}.cls-4{fill:url(#linear-gradient-4);}.cls-5{fill:url(#linear-gradient-5);}.cls-6{fill:url(#linear-gradient-6);}.cls-7{fill:url(#linear-gradient-7);}.cls-8{fill:url(#linear-gradient-8);}</style><linearGradient id="linear-gradient" x1="353.41" y1="239.35" x2="353.41" y2="506.04" gradientTransform="matrix(1, 0, 0, -1, 0, 506.04)" gradientUnits="userSpaceOnUse"><stop offset="0" stop-color="#82a5f1"/><stop offset="0.07" stop-color="#92aff3"/><stop offset="0.26" stop-color="#b6c6f7"/><stop offset="0.44" stop-color="#d2d9fb"/><stop offset="0.63" stop-color="#e6e6fd"/><stop offset="0.81" stop-color="#f2edff"/><stop offset="1" stop-color="#f6f0ff"/></linearGradient><linearGradient id="linear-gradient-2" x1="558.61" y1="416.15" x2="558.61" y2="505.49" gradientTransform="matrix(1, 0, 0, -1, 0, 506.04)" gradientUnits="userSpaceOnUse"><stop offset="0" stop-color="#82a5f1"/><stop offset="0.09" stop-color="#96b2f3"/><stop offset="0.27" stop-color="#bacbf7"/><stop offset="0.45" stop-color="#d6defb"/><stop offset="0.63" stop-color="#eaecfd"/><stop offset="0.82" stop-color="#f6f4ff"/><stop offset="1" stop-color="#faf7ff"/></linearGradient><linearGradient id="linear-gradient-3" x1="290.39" y1="287.45" x2="290.39" y2="309.61" gradientTransform="matrix(1, 0, 0, -1, 0, 506.04)" gradientUnits="userSpaceOnUse"><stop offset="0" stop-color="#b0c6f6"/><stop offset="0.07" stop-color="#bacdf7"/><stop offset="0.3" stop-color="#d6dffb"/><stop offset="0.53" stop-color="#eaecfd"/><stop offset="0.77" stop-color="#f6f4ff"/><stop offset="1" stop-color="#faf7ff"/></linearGradient><linearGradient id="linear-gradient-4" x1="544.87" y1="276.92" x2="681.66" y2="276.92" xlink:href="#linear-gradient-3"/><linearGradient id="linear-gradient-5" x1="422.76" y1="337.67" x2="422.76" y2="400.14" xlink:href="#linear-gradient-3"/><linearGradient id="linear-gradient-6" x1="561.49" y1="151.76" x2="561.49" y2="219.69" gradientTransform="matrix(1, 0.08, 0.08, -1, -21.95, 491.27)" xlink:href="#linear-gradient-2"/><linearGradient id="linear-gradient-7" x1="572.82" y1="171.42" x2="572.82" y2="220.98" gradientTransform="matrix(1, 0.08, 0.08, -1, -21.95, 491.27)" gradientUnits="userSpaceOnUse"><stop offset="0" stop-color="#cfddfa"/><stop offset="1" stop-color="#faf7ff"/></linearGradient><linearGradient id="linear-gradient-8" x1="464.39" y1="156.15" x2="464.39" y2="171.14" xlink:href="#linear-gradient-7"/></defs><g id="Layer_2" data-name="Layer 2"><g id="Layer_1-2" data-name="Layer 1"><path class="cls-1" d="M706.82,50.85S615.45-16,541.24,3.59s-72,105.94-72,105.94-41.47-6.52-58.93,0-35.2,52.84-34,57.79c0,0-68.72,30.88-86.54,30.88s-61.34-2.94-80.64,7.57-48.06,21.44-77.34,23.31S43.72,252.93,0,254.17c0,0,150.06-11.49,166.54-12.33s40.6,18.94,83.36,21.55,88.07,2.23,126.41,3.24,119.1-9.45,204.22-12.46,126.29-23.41,126.29-23.41Z"/><path class="cls-2" d="M470.82,89.9s12-12.56,19.74-27.43,42.68-29,54.32-33.35,29-8,43.66-16.7,57.85,5.1,57.85,5.1S586.88-11.31,532.9,6.19,470.82,89.9,470.82,89.9Z"/><path class="cls-3" d="M180.39,218.55s53.33-.73,61.93,0,18.88-7.8,52.06-12.78,106,0,106,0-67.81-6.37-79-7.57-27.11-.43-27.11-.43-34.08-3.26-62.69.43S180.39,218.55,180.39,218.55Z"/><path class="cls-4" d="M544.87,240.76s38.36-5.48,70.58-5.48h66.21s-60.54-15.68-82-17.67S544.87,240.76,544.87,240.76Z"/><path class="cls-5" d="M376.3,167.32s34.21,2.38,88,0l-30.48-5.63s4.85-35.32,9.21-41.84,26.19-10.32,26.19-10.32-45.1-8.15-62.57,0S376.3,167.32,376.3,167.32Z"/><path class="cls-6" d="M434.6,365.93s13.14-10.08,42.06-6.26c0,0,5-24.56,52.41-36.58s123.39,8,123.39,8l-1,13.37,45.72-.61s-42.69,12.48-107.37,18.61S407,373.76,407,373.76Z"/><path class="cls-7" d="M476.66,359.67s37.42.78,68-4.62c0,0,11.23-27.37,19.6-28.77s28.81,5.31,38.19,3.46,50,1.31,50,1.31S598.52,312,540.37,320.88,476.66,359.67,476.66,359.67Z"/><path class="cls-8" d="M419.25,370.3s20-1.34,35.17-2.57l34.37-4.12a89.9,89.9,0,0,0-26.9-4.77s-23.35.37-27.29,7.09Z"/></g></g></svg>