<svg xmlns="http://www.w3.org/2000/svg" xmlns:xlink="http://www.w3.org/1999/xlink" width="744.82" height="267.44" viewBox="0 0 744.82 267.44"><defs><style>.cls-1{fill:url(#linear-gradient);}.cls-2{fill:url(#linear-gradient-2);}.cls-3{fill:url(#linear-gradient-3);}.cls-4{fill:url(#linear-gradient-4);}.cls-5{fill:url(#linear-gradient-5);}.cls-6{fill:url(#linear-gradient-6);}</style><linearGradient id="linear-gradient" x1="372.41" y1="216.89" x2="372.41" y2="482.77" gradientTransform="matrix(1, 0, 0, -1, 0, 484.33)" gradientUnits="userSpaceOnUse"><stop offset="0" stop-color="#82a5f1"/><stop offset="0.07" stop-color="#92aff3"/><stop offset="0.26" stop-color="#b6c6f7"/><stop offset="0.44" stop-color="#d2d9fb"/><stop offset="0.63" stop-color="#e6e6fd"/><stop offset="0.81" stop-color="#f2edff"/><stop offset="1" stop-color="#f6f0ff"/></linearGradient><linearGradient id="linear-gradient-2" x1="94.9" y1="374.05" x2="94.9" y2="484.33" gradientTransform="matrix(1, 0, 0, -1, 0, 484.33)" gradientUnits="userSpaceOnUse"><stop offset="0" stop-color="#b0c6f6"/><stop offset="0.07" stop-color="#bacdf7"/><stop offset="0.3" stop-color="#d6dffb"/><stop offset="0.53" stop-color="#eaecfd"/><stop offset="0.77" stop-color="#f6f4ff"/><stop offset="1" stop-color="#faf7ff"/></linearGradient><linearGradient id="linear-gradient-3" x1="236.09" y1="324.4" x2="236.09" y2="378.8" xlink:href="#linear-gradient-2"/><linearGradient id="linear-gradient-4" x1="355.95" y1="275.79" x2="355.95" y2="327.87" xlink:href="#linear-gradient-2"/><linearGradient id="linear-gradient-5" x1="140.03" y1="251.96" x2="140.03" y2="293.05" xlink:href="#linear-gradient-2"/><linearGradient id="linear-gradient-6" x1="330.14" y1="237.12" x2="330.14" y2="259.05" xlink:href="#linear-gradient-2"/></defs><g id="Layer_2" data-name="Layer 2"><g id="Layer_1-2" data-name="Layer 1"><path class="cls-1" d="M0,23.69S84.62-12.16,145.74,7.4s64,127.1,64,127.1,43.74-39.08,81.49-29.31c25.21,6.52,20.38,33.68,16,51.27,8.73,9.85,95.26,40,112.87,46.52s19.38,18,27.71,28,55.37,22.2,86.91,21.55,74.15,8.63,114.68,9.69,95.42,2.94,95.42,2.94-125.26,5.13-173.74,0-90.21-3.88-153-9.39S233.24,254.3,200.4,243.31c0,0-60.48,16.34-121.6,12.46S0,248,0,248Z"/><path class="cls-2" d="M0,110.28s44.85-7.21,91.41-35.49S151.56,27,151.56,27s6.62,5.42,21.34,12,16.9,10.74,16.9,10.74S177.75,12.06,130.7,1.6c0,0-55.25-10.46-130.7,22.13Z"/><path class="cls-3" d="M209.76,134.5l-14.55,14.15-27.16,7.81s42.69,7.81,69.85,0,42.68-37.91,42.68-37.91,10.72-14.51,23.55-6.06C304.13,112.49,265.06,86.66,209.76,134.5Z"/><path class="cls-4" d="M307.26,156.46l-15,8.49L282,170.38s31.53,1.09,57.72,9.78,27.65,16.3,47.53,23.37,42.64,4.58,42.64,4.58-25.76-13.33-68-26.53S307.26,156.46,307.26,156.46Z"/><path class="cls-5" d="M79.77,218.22S99.9,197.28,121,192.39s61.12,6.84,72,25.83l7.28,14.1a280.48,280.48,0,0,1-48-3.26c-26.2-4.07-30-13.35-40.75-20.53S79.77,218.22,79.77,218.22Z"/><path class="cls-6" d="M304.13,243.31s20-9.73,41-10.92c24.68-1.41,43.56,14.82,43.56,14.82s-9.86-17.31-55.11-21.41-62,17.51-62,17.51A43,43,0,0,0,304.13,243.31Z"/></g></g></svg>