<svg xmlns="http://www.w3.org/2000/svg" xmlns:xlink="http://www.w3.org/1999/xlink" width="321.89" height="66.91" viewBox="0 0 321.89 66.91"><defs><style>.cls-1{fill:url(#linear-gradient);}.cls-2{fill:url(#linear-gradient-2);}.cls-3{fill:url(#linear-gradient-3);}.cls-4{fill:url(#linear-gradient-4);}</style><linearGradient id="linear-gradient" x1="149.79" y1="633.11" x2="149.79" y2="711.11" gradientTransform="matrix(1, 0.07, 0.07, -1, -37.71, 698.13)" gradientUnits="userSpaceOnUse"><stop offset="0" stop-color="#336"/><stop offset="0.27" stop-color="#252e5f"/><stop offset="0.63" stop-color="#192a59"/><stop offset="1" stop-color="#152957"/></linearGradient><linearGradient id="linear-gradient-2" x1="144" y1="682.63" x2="144" y2="729.47" gradientTransform="matrix(1, 0, 0, -1, 0, 729.47)" gradientUnits="userSpaceOnUse"><stop offset="0" stop-color="#7e7e9f"/><stop offset="0.07" stop-color="#8d81a3"/><stop offset="0.25" stop-color="#b18aad"/><stop offset="0.44" stop-color="#cd91b5"/><stop offset="0.63" stop-color="#e195bb"/><stop offset="0.81" stop-color="#ed98be"/><stop offset="1" stop-color="#f199bf"/></linearGradient><linearGradient id="linear-gradient-3" x1="71.11" y1="678.86" x2="71.11" y2="691.56" xlink:href="#linear-gradient-2"/><linearGradient id="linear-gradient-4" x1="234.9" y1="682.64" x2="234.9" y2="706.66" xlink:href="#linear-gradient-2"/></defs><g id="Layer_2" data-name="Layer 2"><g id="Layer_1_copy" data-name="Layer 1 copy"><path class="cls-1" d="M54.57,65.82S148.27,60.4,193.25,53s128.64-20.7,128.64-20.7l-39.53.92s-21.67-10.33-41-9.44-28,12.41-28,12.41-20.5-31.13-38.5-35.09-53.51,14.33-57.73,23-9.48,21.78-9.48,21.78S93.49,39,81.83,38.19,48.91,45,48.36,47.78a37.18,37.18,0,0,0-.15,7.75L0,66.07S33.59,68.11,54.57,65.82Z"/><path class="cls-2" d="M107.62,45.88s28,2.15,39.66,0c0,0,.36-25,5.09-30.27s19.9-13.59,28-12.5c0,0-5-4.72-20.87-2.53s-38.19,15-41.65,20.12S107.62,45.88,107.62,45.88Z"/><path class="cls-3" d="M48.4,47.78a48,48,0,0,0,12.11,2.76c7.83.92,31.65-7.63,31.65-7.63l1.67-2.31a33.58,33.58,0,0,0-19.3-2.08C64.2,40.67,48.67,44.7,48.4,47.78Z"/><path class="cls-4" d="M213.33,36.22,200.15,46.83s31.28-6.78,33-7.59,12.11-9.77,14.78-10.87,21.73,0,21.73,0-18.43-7.74-34.76-4.9S213.33,36.22,213.33,36.22Z"/></g></g></svg>