<svg xmlns="http://www.w3.org/2000/svg" xmlns:xlink="http://www.w3.org/1999/xlink" width="935.98" height="174.13" viewBox="0 0 935.98 174.13"><defs><style>.cls-1{fill:url(#linear-gradient);}.cls-2{fill:url(#linear-gradient-2);}.cls-3{fill:url(#linear-gradient-3);}.cls-4{fill:url(#linear-gradient-4);}.cls-5{fill:url(#linear-gradient-5);}.cls-6{fill:url(#linear-gradient-6);}.cls-7{fill:url(#linear-gradient-7);}.cls-8{fill:url(#linear-gradient-8);}.cls-9{fill:url(#linear-gradient-9);}</style><linearGradient id="linear-gradient" x1="345.21" y1="277.82" x2="345.21" y2="476.5" gradientTransform="matrix(1, 0.1, 0.1, -1.05, -34.05, 463.89)" gradientUnits="userSpaceOnUse"><stop offset="0" stop-color="#82a5f1"/><stop offset="0.07" stop-color="#92aff3"/><stop offset="0.26" stop-color="#b6c6f7"/><stop offset="0.44" stop-color="#d2d9fb"/><stop offset="0.63" stop-color="#e6e6fd"/><stop offset="0.81" stop-color="#f2edff"/><stop offset="1" stop-color="#f6f0ff"/></linearGradient><linearGradient id="linear-gradient-2" x1="494.54" y1="405.87" x2="494.54" y2="443.89" gradientTransform="matrix(1, 0.1, 0.1, -1.05, -34.05, 463.89)" gradientUnits="userSpaceOnUse"><stop offset="0" stop-color="#b0c6f6"/><stop offset="0.07" stop-color="#bacdf7"/><stop offset="0.3" stop-color="#d6dffb"/><stop offset="0.53" stop-color="#eaecfd"/><stop offset="0.77" stop-color="#f6f4ff"/><stop offset="1" stop-color="#faf7ff"/></linearGradient><linearGradient id="linear-gradient-3" x1="275.62" y1="361.76" x2="275.62" y2="457.7" xlink:href="#linear-gradient-2"/><linearGradient id="linear-gradient-4" x1="118.65" y1="310.33" x2="118.65" y2="327.95" xlink:href="#linear-gradient-2"/><linearGradient id="linear-gradient-5" x1="149.43" y1="333.84" x2="149.43" y2="398.08" xlink:href="#linear-gradient-2"/><linearGradient id="linear-gradient-6" x1="354.81" y1="327.87" x2="354.81" y2="370.37" xlink:href="#linear-gradient-2"/><linearGradient id="linear-gradient-7" x1="824.32" y1="374.17" x2="824.32" y2="417.87" gradientTransform="matrix(1, 0, 0, -1, 0, 483.05)" xlink:href="#linear-gradient"/><linearGradient id="linear-gradient-8" x1="785.07" y1="388.08" x2="785.07" y2="417.71" gradientTransform="matrix(1, 0, 0, -1, 0, 483.05)" xlink:href="#linear-gradient-2"/><linearGradient id="linear-gradient-9" x1="851.44" y1="396.3" x2="851.44" y2="413.83" gradientTransform="matrix(1, 0, 0, -1, 0, 483.05)" xlink:href="#linear-gradient-2"/></defs><g id="Layer_2" data-name="Layer 2"><g id="Layer_1-2" data-name="Layer 1"><path class="cls-1" d="M110,130.26s12.51-68.19,49.37-69,58.83,43.71,58.83,43.71S250,92.06,260.75,84s41.91-66.57,55.09-72.14c20-8.47,97.35-26.6,144.33,10.9l-4.31,32.94s69.45-6.49,126.9-3.25c0,0,45.31,7.35,44.87,61.72l62.42-1.38s-76,7.42-124.18,17.68c0,0-70.52,23-226.68,39-118.27,12.12-175.65-7.7-232.91.43C40,177.21,0,172.8,0,172.8s55-3,64.87-7.43c0,0,10.8-19.12,16.76-21.74S110,130.26,110,130.26Z"/><path class="cls-2" d="M455.86,55.72s-8,18.38-17.08,23.93c0,0,56.74-8.51,68.54-11.31s10.83-8.31,17-12.46,43.13-4,43.13-4S493.39,48.79,455.86,55.72Z"/><path class="cls-3" d="M218.18,104.91S267.89,94,275,89.91c0,0,39.35-.46,43-3.2s25.46-52.55,28.41-64.52-34.7-7.42-34.7-7.42-23.42,28.8-47.62,66C264.07,80.76,227.71,102,218.18,104.91Z"/><path class="cls-4" d="M78.55,145.9A366,366,0,0,0,154,140.47s-29.68-5.44-44-10.22C110,130.26,82.44,141.36,78.55,145.9Z"/><path class="cls-5" d="M111.34,124.11s26.77-3.81,41.85-16.28c0,0,9.89-31.87,17.78-37.31s20.91,2.3,20.91,2.3-20.68-20.11-46.22-7.89S111.34,124.11,111.34,124.11Z"/><path class="cls-6" d="M301.25,145s13.7-23.68,37.11-30.4c7.86-2.26,72.3,0,72.3,0s-35,3.36-39.7,3.54-20,27.37-20,27.37S322.85,158.44,301.25,145Z"/><path class="cls-7" d="M712.65,108.88,752,95s12.61-15.78,24-22.11,33.44-8.5,42.28-7.41,24.59,13.72,24.59,13.72,18.29-9.13,25.73-10,29.11,11.22,29.11,11.22L936,79.36S836.62,94.26,712.65,108.88Z"/><path class="cls-8" d="M752,95s25.86-1.57,33.13-3.75c0,0,1.94-12,5.1-16s18.15-9.88,18.15-9.88l9.86.13s-26.41-1.66-41,6.76S752,95,752,95Z"/><path class="cls-9" d="M842.78,79.17l-8.46,7.58S858,86.38,863.42,83s5.13-13.7,5.13-13.7S854.55,70.66,842.78,79.17Z"/></g></g></svg>