<?xml version="1.0" encoding="utf-8"?>
<!-- Generator: Adobe Illustrator 24.1.2, SVG Export Plug-In . SVG Version: 6.00 Build 0)  -->
<svg version="1.1" xmlns="http://www.w3.org/2000/svg" xmlns:xlink="http://www.w3.org/1999/xlink" x="0px" y="0px"
	 viewBox="0 0 491.8 491.8" style="enable-background:new 0 0 491.8 491.8;" xml:space="preserve">
<style type="text/css">
	.st0{fill:#462435;}
	.st1{fill:#160C2D;}
	.st2{fill:#170C2D;}
	.st3{fill:#1A1030;}
	.st4{fill:#180D2E;}
	.st5{fill:#1C1234;}
	.st6{fill:#CFD0F3;}
	.st7{fill:#DD8DC5;}
	.st8{fill:#A094ED;}
	.st9{fill:#CECEF1;}
	.st10{fill:#A094EC;}
	.st11{fill:#CBCCEF;}
	.st12{fill:#CECFF2;}
	.st13{fill:#A195EE;}
	.st14{fill:#9B90E7;}
	.st15{fill:#9F93EB;}
	.st16{fill:#371A34;}
	.st17{fill:#D4E3FA;}
	.st18{fill:#D0E4FB;}
	.st19{fill:#D3E4FC;}
	.st20{fill:#DD8CC5;}
	.st21{fill:#B79194;}
	.st22{fill:#B8A8D9;}
	.st23{fill:#DA8BC3;}
	.st24{fill:#D8E8FF;}
</style>
<g id="Layer_1">
	<g>
		<path class="st0" d="M397.4,398.7c-2.9-5.9-7.6-10.8-13.4-13.9c-8-4.2-16.3-7.7-24.8-10.4c-11.2-3.7-22.7-6.6-34.2-9.3
			c-0.4-0.1-0.9-0.3-1.3-0.5c1.4-1.6,2.8-2.9,4-4.4c7-8.4,13-17.7,17.7-27.5c5.7-11.6,10.1-23.8,13.2-36.3c2.7-10.9,4-21.9,5-33
			c0.3-3.3,0.4-6.7,0.6-10c0.3-5.7,0.8-11.3,0.9-16.9c0.1-4.1-0.4-8.3-0.4-12.4c0-7.1-0.7-14.2-2-21.1c-0.7-3.6-1.5-7.2-3.7-10.2
			c-2.9-3.9-6.9-6.8-11.5-8.3c-10.7-3.9-21.6-7-32.6-9.3c-1.5-0.3-2.9-0.8-4.4-1.1c-0.1-0.5-0.1-0.9-0.1-1.4c0.5-4.5-0.4-8.7-1.5-13
			c-1.8-8-7.6-14.6-15.3-17.4c-6.8-2.7-14.1-3.6-21.4-2.7c-4.8,0.6-9.5,1.8-14.3,2.7c-5.7,1.1-11.2,3.2-17,3.8
			c-4.6,0.5-7-0.5-9.3-4.6c-0.8-1.5-1.4-3-1.9-4.6c-0.9-2.6-0.6-5.5,1-7.8c1.6-2.4,3.2-4.8,4.8-7.1c1.2-1.7,2.7-3.1,4-4.8
			c1.4-1.7,2.2-3.7,2.4-5.9c0.4-4.2-1.5-7.4-4.5-10.1c-4.2-3.6-9-6.4-14.1-8.4c-8.4-3.5-17.6-4.9-26.7-4.1
			c-8.1,0.8-15.8,3.7-22.4,8.3c-10.1,6.9-15,16.8-15.3,28.8c0,4.1,0.4,8.1,1.3,12.1c2,10,7.4,19.1,15.3,25.6c4.5,3.9,10,6,15.6,7.7
			c2.5,0.7,5,1.3,8,2.1c-6.2,0.8-11.9,1.5-17.5,2.4c-9.6,1.4-18.9,4.2-28,7.3c-7,2.3-13.6,5.5-19.8,9.5c-2.9,1.8-4.9,4.6-5.8,7.8
			c-3.2,10.7-2.9,21.6-3.1,32.7c-0.5,0.2-1.2,0.4-2,0.6c-2.9,0.7-5.6,1.9-8,3.6c-3.5,2.6,14.1,9.7,11.6,13.3
			c-8.1,11.6,3,17.1,4,31.1c0.5,5.9,3.2,15,4.7,20.7c1.4,5.8,0.9,7.4,3.3,12.9c2.5,5.2-0.3,15.3,2.9,20c5.6,8.4-15.2,12.9-5.9,16.3
			c6.7,2.5,13.8,3.2,20.9,3.3c1.4,0,2.4,0.3,3.1,1.6c1.3,2.4,3,4.6,5,6.4c0.4,0.4,0.7,0.9,1,1.3c-3.6,0.3-7,0.5-10.3,0.7
			c-7.2,0.4-14.4,1.6-21.4,3.6c-12.5,3.6-24.3,8.8-34.5,17.1c-4.4,3.5-7.9,8-10.2,13.1c-0.9,2-1.2,4.3-0.8,6.5
			c1.1,6.1,3.5,11.8,6.8,17c0.8,1.3,1.9,2.5,3.2,3.5c4.1,3,8.5,5.4,13.3,7.1c6.5,2.5,13.1,4.7,19.7,6.7c13.3,4,26.8,7.1,40.5,9.2
			c7.7,1.2,15.5,2,23.2,2.9c5.8,0.7,11.5,1.3,17.3,1.7c6,0.5,12.1,0.7,18.1,1c5.4,0.3,10.8,0.6,16.3,0.6c10.2,0.1,20.4,0,30.7,0
			c6.1,0,12.3-0.3,18.4-1c7.3-0.7,14.6-1,21.9-2c8-1.1,15.9-2.5,23.8-4.2c11.2-2.5,22.1-6.2,32.9-10c4.9-1.7,9.6-3.9,14-6.7
			c3.6-2.2,6.4-5.6,8-9.5c1.7-3.8,2.7-7.9,3-12C399.7,405.8,399,402.1,397.4,398.7z"/>
		<path class="st0" d="M271.9,101.2c1.1,0.2,2.1,0.4,3.1,0.5c5.6,0.4,11,2,16,4.5c2.5,1.3,5,2.4,7.6,3.4c4.8,1.9,9.7,3.1,14.9,2.6
			c4.3-0.2,8.3-2.3,10.9-5.7c3.5-4.5,5.4-9.7,5.3-17.2c-0.3-2.9-0.7-5.8-1.4-8.7c-1.1-4.4-4-7.8-7.4-10.6
			c-8.6-7.2-18.2-10.3-29.3-7.7c-9.7,2.3-17.7,7.1-23.3,15.5c-2.7,4.1-4.7,8.6-4.4,13.6C264.2,96,266.6,100.3,271.9,101.2z"/>
		<path class="st0" d="M356.2,324.4c-0.4,0.3-0.8,0.6-1.2,0.9c0.3,1.4,1.5,1.5,2.3,2.1c1.6,0.9,3,2,4.4,3.2c2.4,2.4,4.2,5.2,5.4,8.4
			c2.9,7.7,4.1,15.9,3.7,24.2c-0.1,1.3,0.4,2.6,1.5,3.4c0.4-0.9,0.8-1.9,1-2.9c0.3-1.9,0.4-3.9,0.5-5.9c0.4-5.2,1.4-10.4,3-15.4
			c1.6-5.4,4.5-9.9,9.2-13c1.8-1.2,3.6-2.3,6-1.9c0.9,0.2,1.6-0.6,1.9-1.5c0.2-1-0.4-1.5-1.2-1.8c-0.4-0.2-0.9-0.4-1.4-0.5
			c-4.2-0.9-6.8-3.7-8.5-7.4c-4.1-8.6-6-18.1-5.5-27.6c0.2-2.9,0.4-5.8,0.6-8.9h-2.1c-0.9,7.6-2.4,15-4.4,22.3
			c-1.6,5.8-4.3,11.2-7.8,16C361.6,320.8,359.1,322.9,356.2,324.4z"/>
		<path class="st0" d="M89,137c7.1,3.5,11.5,9.3,14.2,16.7c1.6,4.6,2.6,9.3,3.3,14.1c0.1,1.6,0.8,3.1,1.9,4.3
			c0.9-1.1,1.4-2.5,1.3-3.9c0.1-7.3,2-14,6.9-19.6c4.4-5.1,9.4-9.1,16.7-9.4l0.5-2.5c-1.6-0.4-2.9-0.7-4.2-1c-2.6-0.5-5-1.7-7-3.4
			c-5.6-4.7-9.3-11.3-10.4-18.6c-0.5-3.6-0.8-7.2-1.3-10.9c-0.2-0.1-0.4-0.1-0.6-0.1c-0.3,0-0.7,0.1-1,0.2c-0.1,1.2-0.4,2.4-0.4,3.6
			c-0.1,6.5-1.9,12.8-5.2,18.4c-1,1.8-2.3,3.4-3.8,4.9c-2.8,2.8-6.1,4.6-10.3,4.3c-0.8,0-1.7,0.1-1.9,1.1
			C87.6,136.2,88.3,136.6,89,137z"/>
		<path class="st0" d="M173,75.8c0.4-0.2,0.7-0.3,1.1-0.5c2.6-0.8,5.1-1.6,7.7-2.5c2.1-0.7,4.1-1.3,6.1-2.1c3.2-1.3,4.9-4,5.8-7.2
			c0.1-0.2,0.1-0.4,0.2-0.6c0.7-3.4-1.5-6.8-4.9-7.5c-2-0.5-4-1-6-1.4c-1.2-0.3-2.5-0.4-3.8-0.6c-5,0.1-10.8,2.9-13.7,7
			c-3.5,5.1-3.6,8.2-1.1,12.4C166.3,76.1,169,77.8,173,75.8z"/>
		<path class="st0" d="M129.9,160.2c-0.5-1.1-0.9-2.2-1.2-3.4c-0.5-1.8-0.8-3.6-1.2-5.4c0-0.2,0-0.5-0.1-0.7
			c-0.1-0.7-0.8-1.3-1.6-1.2c-1,0.1-1.1,0.8-1.1,1.5c-0.1,6.8-1.7,13-8.1,16.7c-0.4,0.3-0.5,0.7-0.5,1.1c0.1,0.3,0.7,0.6,1.1,0.6
			c3.2,0.4,5.8,2.5,6.9,5.5c1.3,2.6,2.1,5.3,2.5,8.2c0,1.1,0.7,2.1,1.7,2.4c0.3-0.9,0.5-1.9,0.6-2.8c0.1-3.1,0.8-6.2,2-9
			c0.7-1.8,2.1-3.3,3.9-4c1.6-0.5,2.2-1.4,2.1-3.2C133.3,166,131.3,163.5,129.9,160.2z"/>
		<path class="st0" d="M353.2,333.9c-0.7,2.2-1.1,4.5-1.9,6.6c-1.4,3.5-3.8,6.1-7.6,7c-0.7,0.3-1.3,0.6-1.9,1
			c0.8,0.9,1.5,1.6,2.2,2.2c2,1.7,3.5,3.9,4.1,6.5c0.5,2.4,0.6,4.9,0.9,7.3c0.2,1-0.1,2.2,1.2,3c0.7-0.9,1.1-2,1.1-3.2
			c0.2-1.7,0.5-3.4,0.9-5.1c0.7-2.2,2.2-4.1,4.3-5.2c1.4-0.9,2.7-1.7,4.4-0.9c0.4,0.1,0.9-0.1,1.2-0.4c0.1-0.5,0-1-0.2-1.5
			c-0.2-0.3-0.6-0.5-0.9-0.8c-2.1-1.5-3.7-3.6-4.3-6.1c-0.6-2.3-0.9-4.6-1.1-7c-0.1-1.8,0-3.6,0-5.6
			C353.4,331.3,353.5,333,353.2,333.9z"/>
	</g>
</g>
<g id="Layer_1_copy">
	<g id="Coffee3_1_">
		<path class="st1" d="M199.2,173.4c-3-0.8-5.5-1.4-8-2.1c-5.6-1.7-11.1-3.8-15.6-7.6c-7.9-6.5-13.3-15.6-15.3-25.6
			c-0.9-4-1.3-8-1.3-12.1c0.3-12.1,5.2-21.9,15.3-28.8c6.6-4.7,14.3-7.6,22.4-8.3c9.1-0.8,18.2,0.7,26.7,4.1
			c5.2,1.9,9.9,4.8,14.1,8.4c3,2.7,4.8,5.8,4.5,10.1c-0.2,2.2-1,4.2-2.4,5.9c-1.3,1.6-2.8,3.1-4,4.8c-1.7,2.3-3.3,4.7-4.9,7.1
			c-1.6,2.3-1.9,5.2-1,7.8c0.5,1.6,1.1,3.1,1.9,4.6c2.3,4.1,4.7,5.1,9.3,4.6c5.8-0.6,11.3-2.7,17-3.8c4.8-0.9,9.5-2.1,14.3-2.7
			c7.2-0.9,14.6,0,21.4,2.7c7.8,2.8,13.6,9.3,15.3,17.4c1.1,4.3,2,8.6,1.5,13c0,0.5,0,0.9,0.1,1.4c1.5,0.4,2.9,0.8,4.4,1.1
			c11.1,2.3,22,5.4,32.6,9.3c4.6,1.5,8.6,4.4,11.5,8.3c2.3,3.1,3,6.6,3.7,10.2c1.3,7,2,14,2,21.1c0,4.1,0.5,8.3,0.4,12.4
			c-0.1,5.6-0.6,11.3-0.9,16.9c-0.2,3.3-0.3,6.7-0.6,10c-1,11.1-2.3,22.1-5,33c-3.1,12.5-7.6,24.7-13.2,36.3
			c-4.8,9.9-10.7,19.1-17.7,27.5c-1.2,1.5-2.6,2.8-4,4.4c0.4,0.2,0.8,0.4,1.3,0.5c11.5,2.6,22.9,5.6,34.2,9.3
			c8.6,2.7,16.9,6.2,24.8,10.4c5.8,3.1,10.5,8,13.4,13.9c1.6,3.4,2.3,7.1,1.9,10.9c-0.3,4.1-1.3,8.2-3,12c-1.6,4-4.4,7.3-8,9.5
			c-4.4,2.7-9.1,5-14,6.7c-10.8,3.8-21.7,7.5-32.9,10c-7.9,1.7-15.8,3.1-23.8,4.2c-7.3,1-14.6,1.3-21.9,2c-6.1,0.7-12.2,1-18.4,1
			c-10.2-0.1-20.4,0-30.6,0c-5.4-0.1-10.8-0.4-16.3-0.6c-6.1-0.3-12.1-0.5-18.1-1c-5.8-0.4-11.6-1.1-17.3-1.7
			c-7.8-0.9-15.5-1.6-23.2-2.9c-13.7-2.1-27.3-5.2-40.5-9.2c-6.6-2.1-13.2-4.2-19.7-6.7c-4.7-1.7-9.2-4.1-13.3-7.1
			c-1.3-1-2.4-2.1-3.2-3.5c-3.3-5.2-5.6-10.9-6.8-17c-0.4-2.2-0.1-4.5,0.8-6.5c2.3-5.1,5.8-9.6,10.2-13.1
			c10.2-8.3,21.9-13.5,34.5-17.1c7-2,14.2-3.2,21.4-3.6c3.3-0.2,6.7-0.5,10.3-0.7c-0.3-0.5-0.6-0.9-1-1.3c-2-1.8-3.7-4-5-6.4
			c-0.7-1.4-1.7-1.6-3.1-1.6c-7.1-0.1-14.2-0.8-20.9-3.3c-9.3-3.5-17-8.9-22.6-17.3c-3.2-4.7-6.1-9.7-8.6-14.9
			c-2.5-5.4-4.4-11.1-5.8-16.9c-1.5-5.7-2.6-11.5-3-17.4c-1-14,2.3-26.9,10.4-38.5c2.5-3.5,5.5-6.7,9-9.2c2.4-1.7,5.1-2.9,8-3.6
			c0.8-0.2,1.5-0.5,2-0.6c0.2-11.1-0.1-22,3.1-32.7c0.9-3.2,3-6,5.8-7.8c6.2-4,12.8-7.1,19.8-9.5c9.1-3.1,18.4-5.9,28-7.3
			C187.3,174.9,193,174.3,199.2,173.4z M351.3,411.8L351.3,411.8c2.3-0.5,4.1-2,5.9-3.4c2-1.6,2-2.5,0.4-4.6
			c-2.6-3.5-6.4-5.2-10.3-6.5c-11.1-3.8-22.6-6.1-34.3-6.8c-1.9-0.1-3.9-0.2-5.9-0.3c0,2.7-0.1,5.1-1.5,7.2l-5.3,3.9l-0.5,0.4l0,0
			c-3.9,1.3-7.8,2.7-11.8,3.8c-10.9,3.1-22,4.3-33.3,4.6c-6.9,0.2-13.9,0-20.8-0.6c-8.2-0.6-16.2-2.6-24.2-4.3
			c-6.5-1.4-12.5-4.3-18.6-6.9c-1.5-0.8-2.9-1.7-4.3-2.6c-1.6-1-1.9-2.5-1.8-4.1c0.1-1.2,0.4-2.3,0.6-3.6l-1.5-0.1
			c-4.6-0.3-9.2,0.5-13.8,0.9c-10.6,1.1-21,3.3-31,6.8c-4.2,1.3-8.1,3.5-11.5,6.3c-1.6,1.4-1.8,2.5-0.6,4.1c0.5,0.6,1,1.2,1.6,1.7
			c2.9,2.4,6.2,4.3,9.7,5.6c13.1,4.8,26.7,7.6,40.4,9.5c10.2,1.4,20.4,2.4,30.6,3.5c5.8,0.6,11.6,1.4,17.4,1.9
			c4.5,0.4,9.1,0.4,13.6,0.5c6,0.1,12,0.2,18,0.4c0.7,0,1.4,0.1,2.1,0.1c5.3-0.3,10.5-0.6,15.7-1c11.1-0.8,22.1-2.5,33.1-4.3
			c9.2-1.5,18.3-3.8,27.1-6.6c4.5-1.5,9-3.2,13.5-4.9L351.3,411.8z M270.6,214.9c-4.7,3.2-5.8,4.2-6.4,6.1c3.5,0.5,6.8-0.2,10.2-0.6
			c3.1-0.3,6.1-0.8,9.2-1.2c3.2-0.4,6.5-0.7,9.7-1.1s6.3-0.9,9.4-1.3c3-0.4,6-0.8,8.9-1.3c2.4-0.4,4.8-1,7.2-1.6c4.1-1,8.2-2,12.2-3
			c0.5-0.2,1-0.5,1.5-0.8c-0.9-1.6-2.5-2.7-4.3-3c-1.3-0.6-2.6-1-4-1.4c-4.9-0.9-9.8-1.7-14.8-2.5c-4.6-0.8-9.3-1.2-14-1.4
			c-2.5-0.2-5,0.5-7,2.1c-4.4,3.5-9.6,5.7-14.4,8.4C272.9,213.2,271.8,214.1,270.6,214.9z M224.5,212.5c1.7-3.8,1.3-7.7,0.8-11.8
			c-1-0.3-2-0.5-3-0.6c-4.9,0.1-9.9,0.2-14.8,0.5c-3.2,0.2-6.3,0.6-9.5,0.9c-3.8,0.4-7.6,0.7-11.4,1.1c-1.3,0.2-2.6,0.5-3.9,0.8
			c-4.2,0-8.1,1.3-12.1,2.2c-2.8,0.7-5.6,1.8-8.1,3.3c3,1.1,6,2,9.1,2.7c4.2,0.9,8.4,1.7,12.6,2.5s8.6,1.7,12.9,2.4
			c7.2,1.2,14.4,2.2,21.6,3.3c1.1,0.3,2.3-0.2,2.8-1.3C222.4,216.4,223.5,214.5,224.5,212.5L224.5,212.5z M232.7,404.5
			c2.8,0.4,5.7,0.7,8.5,0.9c7.5,0,15-0.1,22.4-0.5c3.6-0.2,7.2-0.9,10.8-1.4c0.7-0.1,1.4-0.1,2.1-0.2c6.4-0.9,12.5-2.9,18.7-4.7
			c2-0.6,3.9-1.4,5.7-2.5c1.3-0.6,2.2-1.9,2.4-3.3c0.4-4.7-1.5-8.6-3.6-12.7l-2.3,1.1c-1.9,0.5-3.8,1-5.7,1.6
			c-3.6,1.1-7.3,2.4-11,3.3c-9,2.2-18.1,3.5-27.3,3.9c-5.4,0.2-10.8,0.5-16.2-0.2c-2.6-0.3-5.2-0.5-7.8-0.8
			c-0.7-0.2-1.4-0.3-2.1-0.5c-5.7-1.1-11.4-2.1-17.1-3.5c-5.3-1.3-10.6-2.9-16.2-4.5c-1.3,2.2-2.8,4.5-3.9,7c-1.4,3-0.9,4.1,1.9,5.8
			c0.7,0.4,1.4,0.8,2.1,1.2c4.7,1.9,9.4,4,14.3,5.4c5.1,1.5,10.4,2.3,15.6,3.5C226.8,404.3,229.7,404.6,232.7,404.5L232.7,404.5z
			 M129.3,315.1c-0.2-0.4-0.5-0.8-0.8-1.2c-4.4-4.5-6.7-10-7.9-16.1c-0.4-1.9-0.5-3.8-0.5-5.7c0.1-2.1,0.4-4.1,0.9-6.1
			c1.4-6.7,3.6-13,8.2-18.4c2.9-3.4,6.8-5.7,11.1-6.6c6.4-1.4,12.8-1.5,19.1,0.7c0.7,0.3,1.6,0.2,2.2-0.3c1.9-1.1,3.5-2.8,4.4-4.8
			c1.5-3.7,2.9-7.4,2.8-11.5l-0.1-3.9l-0.2-0.6l-0.2-1.8c-0.2-0.6-0.5-1.1-0.8-1.7c-1.9-2.8-4-3.6-7.2-2.6c-1.4,0.5-2.7,1.3-3.9,2.2
			c-1.2,1.2-2.9,1.7-4.6,1.5c-2-0.3-4-0.4-5.9-0.7c-6-1.1-12.1-1.2-18.1-0.5c-7.3,0.8-13.9,4.9-17.8,11.2c-1.3,2-2.6,4.1-3.7,6.2
			c-5.3,9.5-7.4,20.4-6.3,31.2c1.1,10.1,3.6,20,7.4,29.4c1.4,3.6,2.7,7.3,5.1,10.5c1.9,2.4,3.6,4.9,5.3,7.4
			c4.3,6.3,10.5,11.1,17.7,13.8c9.4,3.6,19.1,4.4,29,3.2c5.1-0.6,10.1-2.1,15.2-3.2c2.6-0.6,5.1-1.3,7.5-2c0.3-1,0.4-1.7,0.7-2.5
			c2.2-5.5,1.6-11,0.1-16.4c-1-3.3-3.3-6-6.4-7.4c-3.9,4.5-9,6.6-14.3,8.6c-4.3,1.7-9,2.2-13.7,1.5c-6.6-1.1-12.8-3.7-18.1-7.8
			c-2.1-1.6-4-3.4-6-5.1L129.3,315.1z M347.8,216.3c2.7-2.5,5.5-4.9,8.1-7.5c3.5-3.5,3.1-8,0.7-11.8c-2.4-4-6.2-7-10.7-8.4
			c-8.5-2.8-17.1-5.5-25.8-8.1c-3.4-1-7-1.5-10.6-2.3c-0.3,1-0.4,1.8-0.6,2.5c-0.5,1.1-0.9,2.1-1.4,3.4c1,0.2,1.9,0.4,2.7,0.5
			c8.6,1,17.1,3.2,25.1,6.6c3.9,1.6,7.5,3.5,10.3,6.7c2.6,3,2.6,5.9,0,8.8c-0.5,0.6-1.1,1.1-1.8,1.6c-1.4,1-2.8,1.8-4.3,2.6
			c-9.4,4.9-19.5,7.3-29.8,9.2c-6.3,1.2-12.8,1.9-19.2,2.6c-8.2,0.9-16.5,1.8-24.7,2.5c-4.2,0.4-8.4,0.6-12.7,0.6
			c-8.3-0.1-16.6-0.1-24.9-0.7c-8-0.6-16-1.9-23.9-3c-13.3-1.7-26.4-4.3-39.4-7.9c-5.9-1.6-11.9-3.3-16.9-7.1
			c-4.7-3.5-5.1-6.6-0.7-10.5c4.2-3.8,9.3-6.6,14.8-8.1c6.4-1.7,12.9-3.1,19.4-4.3c5.3-1,10.7-1.8,16.1-2.5
			c4.1-0.5,8.3-0.7,12.4-1.1c0.9-0.1,1.7-0.3,2.6-0.5l-0.4-0.4c-1-1.1-1.9-2.3-3.5-2.3c-3.6-0.1-7.3-0.4-10.8,0.1
			c-8.4,1.2-16.7,2.5-24.9,4.3c-8.6,1.9-17,4.6-25,8.1c-3.3,1.5-6.4,3.4-9.6,5.1l-1.3,0.8c-2.8,1.2-5,3.1-5.6,6.1
			c-0.9,4.5-1.5,9.1-1.9,13.7c-0.4,4.9-0.2,9.9-0.2,14.9c0,0.5,0.1,1.1,0.2,1.6c0.3,0.1,0.6,0.1,0.8,0.1c4.2,0.1,8.4,0.1,12.7,0.3
			c2.6,0.2,5.2,0.8,7.8,1.1c1,0.3,2.1,0,2.9-0.7c1.8-1.6,4.1-2.6,6.5-2.8c5.4-0.8,8.3,1.6,9.9,5.2c1.9,4.1,2.6,8.6,2.1,13
			c-0.4,4.9-2.3,9.1-4.7,13.2c-0.3,0.5-0.7,0.9-1.1,1.2c-1.5,1-3.1,2-4.7,2.8c-0.4,0.3-1,0.4-1.5,0.4c-4.9-1.8-10-1.6-15.1-1.2
			s-9.6,2-13,6.2c-1,1-1.5,2.5-1.3,3.9c0.4,1.9,0.5,3.8,0.8,5.7c1.6,9,4.4,17.8,7,26.6c1.2,4,2.5,8.1,4.8,11.7
			c0.4,0.8,0.9,1.5,1.6,2c3.2,1.7,6.7,2.7,10.3,2.9c3.6,0.1,7.2-0.4,10.6-1.7c4.3-1.7,8.7-3.2,11.9-6.8c1.2-1.3,2.8-1.1,4.3-0.5
			c4.6,1.8,8.2,4.7,9.8,9.5c2.3,6.2,2.3,13,0.2,19.2c-0.6,2.3-2.3,4.1-4.5,4.9c-3.1,1.2-6.3,2.3-9.5,3.2c-4.6,1.2-9.3,2.1-14.1,3.3
			c0.7,0.9,1.3,1.9,2,2.6c4.4,4.9,9.6,8.9,15.4,12c6.1,3.4,12.6,6.2,19.2,8.5c8.1,2.5,16.3,4.4,24.7,5.8c3,0.5,6,0.8,9,1.1h0.1
			l1.5,0.2c0.8,0.1,1.6,0.3,2.4,0.3c7,0.5,14,0.4,21-0.4c11.5-0.9,22.9-3.5,33.7-7.6c6.2-2.4,12.3-4.9,17.7-8.9
			c2.4-1.8,4.8-3.5,7-5.4c2.6-2.1,5-4.5,7.2-7c8.6-10.3,15.5-22,20.4-34.5c3.2-8.1,6.4-16.3,8.5-24.9c2.1-8.5,3.6-17.1,4.4-25.9
			c0.5-6.6,1.1-13.2,1.6-19.8c0.4-5.3,0.8-10.7,0.8-16c0-7.3-0.5-14.5-0.8-21.8c-0.1-2-0.4-3.9-0.6-6.2l-3.8,4.5
			c-2.2,1.5-4.3,3.1-6.5,4.5C348.7,216.6,348.2,216.4,347.8,216.3L347.8,216.3z M249,432.4c-3-0.2-6-0.5-9.1-0.5
			c-8.9-0.1-17.8-0.5-26.7-1.4c-8.6-0.9-17.3-1.6-25.9-2.4c-13.9-1.4-27.6-4-41.1-7.8c-6.3-1.6-12.3-4.2-17.8-7.6
			c-2.5-1.5-4.5-3.7-5.8-6.3c-1.1-2.3-0.9-4.2,0.9-6c2.5-2.5,5.4-4.5,8.6-6c10.5-4.9,21.7-7.5,33.1-9c6.8-0.9,13.7-1.4,20.5-1.3
			c0.8,0.1,1.5-0.2,2.1-0.7c1-1.3,1.9-2.7,2.7-4.2c-2-1-3.7-1.9-5.5-2.7c-4.3-1.9-8.5-4.2-12.3-6.9c-1.5-1.2-3.4-1.7-5.4-1.6
			c-3.3,0.2-6.5,0.6-9.8,0.9c-7.5,0.6-15,1.9-22.3,3.8c-11.7,3.4-22.7,8-32.2,15.8c-3.9,3.2-7.3,6.9-9.2,11.7
			c-0.9,2.2-1.1,4.4,0,6.4c1.1,2,2.3,4,3.8,5.8c2.5,2.8,5.7,5,9.1,6.4c7,3.3,14.2,6.1,21.6,8.5c10.4,3.4,21,5.9,31.8,7.7
			c5.6,0.9,11.1,2.1,16.8,2.9c7.8,1.1,15.7,1.9,23.5,2.8c9.2,1,18.5,1.5,27.7,1.4c0.5,0.1,0.9,0.2,1.4,0.2c7,0.2,14,0.4,21.1,0.5
			c5.3,0,10.5-0.1,15.8-0.2c4.9,0,9.7,0,14.6,0c2.6,0,5.3-0.2,7.9-0.4c4.7-0.4,9.4-0.9,14-1.3c7.5-0.7,15.1-1.1,22.6-2
			c8.3-0.8,16.6-2.5,24.5-5.1c7-2.4,14-5,20.9-7.5c6.3-2.1,12.3-4.9,18-8.4c1.6-1.2,3.1-2.4,4.6-3.8c0.5-1,1.4-1.9,1.5-2.9
			c0.4-3.6-0.3-7.2-2-10.4c-2.9-5.4-7.3-9.9-12.7-12.9c-2.4-1.3-4.8-2.5-7.3-3.5c-10.8-4.6-22-8.2-33.4-11
			c-6.2-1.6-12.4-3.1-18.5-4.7c-1.4-0.5-2.9-0.1-3.8,1c-0.3,0.3-0.6,0.7-0.9,1.1l-13.4,8.4c1.1,2.3,2.2,4.8,3.4,7.2
			c0.4,0,0.8,0.1,1.2,0.1c8.8,0.2,17.5,1.2,26.1,3.1c5.8,1.2,11.4,2.9,16.9,5c3.8,1.3,7.2,3.5,10,6.4c2.6,2.9,1.8,9.2-1.5,11.3
			c-3.7,2.3-7.7,4.2-11.9,5.6c-15.9,6-32.4,9.5-49.2,11.5c-6.2,0.7-12.3,1.4-18.5,2c-5.6,0.5-11.3,1-16.9,1.2
			C258.1,432.7,253.6,432.5,249,432.4z M225.9,220.3c0.7,0.2,1.3,0.3,2,0.4c5.4,0.3,10.8,0.6,16.3,0.8c3.7,0.1,7.4,0,11,0
			c1.1,0,2.2-0.1,2.9-1.3c3.2-5.4,8.1-8.9,13.4-12.1c2.5-1.5,5.2-2.7,7.8-4.2c6.6-3.7,12.6-8.3,17.8-13.8c3.2-3.3,6.1-6.9,7.4-11.6
			c0.9-3.2,1.8-6.3,1.6-9.6c-0.3-4.1-1.2-8.1-2.7-11.9c-1.4-3.9-4.3-7-8-8.8c-1.1-0.5-2.1-1-3.3-1.5c-7.4-3.1-15.1-3-22.8-1.7
			c-6.3,1.1-12.4,2.9-18.6,4.3c-2.9,0.7-5.9,1.2-8.9,1.6c-1.7,0.2-3.5,0.1-5.2-0.2c-3-0.5-5.1-2.4-7-4.7c-4.5-5.5-7.1-15.1-0.9-23
			c1.8-2.3,3.7-4.4,5.5-6.6c1.1-1.3,2.2-2.5,3.2-3.9c1.5-2,1.6-4.7,0.1-6.7c-1-1.7-2.5-3.1-4.2-4.2c-12.4-7.5-25.7-10.3-39.9-7.6
			c-8.5,1.6-16.3,5.9-22,12.4c-4.9,5.2-7.7,12.1-7.7,19.3c0,8.2,1.6,16,5.7,23.2s9.8,12.8,17.8,15.6c4,1.4,8,2.6,12.1,3.6
			c9.2,2.1,17.3,7.4,22.9,15.1c4.7,6.3,7.8,13.2,8.2,21.1c0.2,4.7-0.9,9.4-3.1,13.6L225.9,220.3z M97.3,418.3l-0.5,0.5
			c0.8,1.2,1.5,2.7,2.6,3.6c2.6,2.3,5.6,4,8.8,5.2c5.5,1.9,11,3.8,16.5,5.8c14.3,5,29.1,8.1,43.9,10.9c13.1,2.3,26.2,3.9,39.5,4.7
			c8.1,0.6,16.2,1,24.4,1.4c2.5,0.1,4.9,0.2,7.4,0.3c5.8,0.1,11.6,0.2,17.5,0.3c5.1,0.1,10.2,0.1,15.3,0.2c4.3,0,8.6,0.4,12.9,0.1
			c7.8-0.5,15.5-1.5,23.3-2.1c8.4-0.8,16.8-2,25.1-3.7c10.3-2,20.2-5.3,30.1-8.6c8-2.6,15.9-5.4,23.3-9.4c2.7-1.5,4.3-3.8,5.6-6.4
			c-3.4,2.3-7,4.3-10.8,5.8c-7,2.6-14,5.4-21.1,7.9c-5.4,1.9-10.9,3.8-16.4,5.2c-10.4,2.4-21,4-31.7,4.6c-3.7,0.3-7.5,0.5-11.2,0.7
			c-6.7,0.5-13.4,1-20,1.3c-4.5,0.2-8.9,0-13.4,0.1c-5.8,0.1-11.5,0.5-17.2,0.4c-7.4,0-14.7-0.4-22-0.4c-7.7-0.1-15.3-0.1-22.9-1
			c-8.6-1-17.3-1.8-25.9-2.9c-14.2-1.8-28.4-4.5-42.3-8.2c-8.8-2.3-17.4-5.3-25.8-8.8C107,423.8,101.8,421.8,97.3,418.3L97.3,418.3z
			 M224,195.8c-1.1-3.2-2.8-6.1-4.8-8.7c-3.3-4.2-2.2-4-7.8-3.3c-12.2,1.7-24.4,3.6-36.4,6.1c-5.9,1.2-11.8,2.3-17.2,5.1
			c-2.8,1.4-5.6,2.8-7.7,5.1c-1.4,1.6-1.2,2.6,0.6,3.7c1.3,0.8,2.6,1.5,3.9,2.3c0.9,0.6,2.2,0.6,3.1-0.1c2.1-1.3,4.3-2.4,6.6-3.3
			c6.9-2.7,14.1-3.8,21.4-4.7c10.1-1.2,20.2-1.6,30.3-1.9C218.6,196.1,221.1,196,224,195.8z M296.7,197.7c0.6,0.2,1.2,0.3,1.8,0.4
			c8.6,0.7,17.1,1.8,25.5,3.4c5.1,1,10.1,2.4,13.5,7.3c1.8-0.9,3.5-1.9,5.2-3.1c2.4-1.8,2.5-3.8,0.4-5.8c-1.7-1.6-3.7-3-5.8-4.1
			c-9.4-4.7-19.4-7.1-29.7-8.3c-1.2-0.2-2.3,0.3-3,1.3c-2.1,2.5-4.3,4.9-6.5,7.3C297.7,196.6,297.3,197.1,296.7,197.7L296.7,197.7z
			 M136.1,315.2c-3.2-11.9-6.9-23.6-8.2-35.9c-1.9,4.6-2.9,9.4-3,14.4c-0.1,5.1,1.3,10.2,4.1,14.5
			C130.7,311,133.4,313.1,136.1,315.2z"/>
		<path class="st2" d="M329.8,89.3c0.1,7.5-1.8,12.7-5.4,17.2c-2.6,3.4-6.6,5.5-10.9,5.7c-5.2,0.5-10.1-0.8-14.9-2.7
			c-2.6-1-5.2-2.1-7.6-3.4c-5-2.6-10.4-4.1-16-4.5c-1-0.1-2-0.3-3.1-0.5c-5.3-0.9-7.7-5.2-7.9-9.7c-0.3-5.1,1.7-9.5,4.4-13.7
			c5.6-8.4,13.6-13.3,23.3-15.5c11.1-2.6,20.8,0.5,29.3,7.7c3.4,2.9,6.3,6.3,7.4,10.6C329,83.5,329.5,86.4,329.8,89.3z M312,107.5
			c3.1,0.2,6.1-1.3,8.5-3.8c3.5-3.5,5.3-8.3,5.1-13.3c0.1-5.1-1.8-10-5.2-13.8c-2.1-2.2-4.5-4.1-6.5-6.3c-1.9-2.1-4.3-3-6.8-3.7
			c-4.6-1.2-9.5-1.2-14.2,0c-9.9,2.5-17.6,8-22.7,16.9c-1.4,2.4-2.1,5.2-1.9,8c-0.1,2.2,1.5,4.2,3.8,4.6c1.1,0.3,2.2,0.5,3.3,0.6
			c6.3,0.4,12.4,2.2,18,5.2c2.1,1.1,4.3,2,6.6,2.9C303.8,106.5,307.9,107.4,312,107.5z"/>
		<path class="st3" d="M372.2,366.6c-1-0.8-1.6-2.1-1.5-3.4c0.4-8.2-0.8-16.4-3.7-24.1c-1.2-3.2-3-6-5.4-8.4
			c-1.4-1.2-2.8-2.3-4.4-3.2c-0.8-0.5-2-0.7-2.3-2.1c0.4-0.4,0.8-0.7,1.2-0.9c2.9-1.5,5.5-3.6,7.4-6.3c3.6-4.8,6.2-10.2,7.8-16
			c2.1-7.3,3.5-14.8,4.4-22.4h2.1c-0.2,3.1-0.5,6-0.6,8.9c-0.4,9.5,1.5,19,5.5,27.6c1.7,3.7,4.3,6.5,8.5,7.4
			c0.5,0.1,0.9,0.3,1.4,0.5c0.8,0.3,1.4,0.9,1.2,1.8s-1,1.7-1.9,1.5c-2.4-0.5-4.2,0.7-6,1.9c-4.8,3.1-7.6,7.6-9.2,13
			c-1.6,5-2.6,10.2-3,15.4c-0.1,2-0.3,4-0.5,5.9C373,364.7,372.6,365.7,372.2,366.6z M374.4,300.3c-0.2,0.9-0.5,1.7-0.7,2.5
			c-1.9,6.4-4.4,12.5-8.6,17.7c-1.5,1.9-3.3,3.5-5.1,5.4c7.3,5.2,10.5,12.9,12.2,21.4h0.5c0.3-1.2,0.5-2.4,0.7-3.6
			c0.3-0.7,0.6-1.5,0.8-2.2c1.6-4.7,3.7-9,7.5-12.3c1.4-1.2,3-2.2,4.8-3.5c-4.2-2.8-6.5-7-8-11.6c-1.2-3.8-2.1-7.6-3.1-11.5
			c-0.1-0.8-0.2-1.5-0.3-2.3v-1l-0.3-0.1L374.4,300.3z"/>
		<path class="st3" d="M109.4,102.9c0.3-0.1,0.7-0.2,1-0.2c0.2,0,0.4,0.1,0.6,0.1c0.4,3.7,0.7,7.3,1.3,10.9
			c1.1,7.3,4.8,13.9,10.4,18.6c2,1.7,4.4,2.9,7,3.4c1.3,0.3,2.6,0.6,4.2,1l-0.5,2.6c-7.3,0.3-12.3,4.2-16.7,9.4
			c-4.9,5.7-6.8,12.3-6.9,19.6c0.1,1.4-0.4,2.8-1.3,3.9c-1.1-1.2-1.8-2.7-1.9-4.3c-0.6-4.8-1.7-9.5-3.3-14.1
			c-2.7-7.4-7.1-13.1-14.2-16.7c-0.8-0.4-1.4-0.9-1.2-1.8s1.1-1.1,1.9-1.1c4.1,0.2,7.5-1.6,10.3-4.3c1.5-1.5,2.8-3.1,3.8-4.9
			c3.2-5.6,5-11.9,5.2-18.4C109,105.3,109.3,104.1,109.4,102.9z M108.6,157.4L108.6,157.4l0.4-2v0.1c0.4-0.6,0.8-1.1,1.1-1.7
			c3.4-6.4,7.8-11.8,14.5-15c0.4-0.2,0.8-0.5,1.2-0.7c-8.5-4.8-13.3-12.1-15.7-21.8c-0.3,1-0.4,1.6-0.6,2.2
			c-0.7,1.8-1.3,3.6-2.1,5.4c-2.6,6.2-6.6,10.9-13.3,13.1c0.5,0.4,0.9,0.8,1.4,1.1c3.8,2.7,6.8,6.4,8.7,10.6
			c1.4,2.9,2.4,5.9,3.6,8.8l0.4,1.7L108.6,157.4z"/>
		<path class="st4" d="M179.3,53.6c1.3,0.2,2.5,0.3,3.8,0.6c2,0.4,4,0.9,6,1.4c3.4,0.7,5.6,4.1,4.9,7.5c0,0.2-0.1,0.4-0.2,0.6
			c-0.9,3.2-2.6,5.8-5.8,7.2c-2,0.8-4,1.4-6.1,2.1c-2.6,0.8-5.1,1.6-7.7,2.5c-0.4,0.1-0.8,0.3-1.1,0.4c-4,2-6.7,0.3-8.6-2.9
			c-2.5-4.2-2.4-7.3,1.1-12.4C168.5,56.4,174.2,53.7,179.3,53.6z M179.4,56.9c-4.8,0.2-9,3.1-11.9,7.9c-1.1,1.7-1,4,0.1,5.7
			c1.1,1.7,1.8,2,3.7,1.2c3.3-1.4,6.7-2.5,10.2-3.2c1.7-0.4,3.4-1,4.9-1.8c1.5-0.6,2.7-1.8,3.4-3.2c0.9-1.8,0.7-2.8-1-3.8
			C186.1,57.8,182.8,56.9,179.4,56.9z"/>
		<path class="st5" d="M137,166.8c0.1,1.9-0.6,2.7-2.1,3.2c-1.8,0.7-3.2,2.2-3.9,4c-1.2,2.8-1.9,5.9-2,9c-0.1,1-0.3,1.9-0.6,2.8
			c-1-0.3-1.7-1.3-1.7-2.4c-0.4-2.8-1.2-5.6-2.5-8.2c-1.1-3-3.8-5.1-6.9-5.5c-0.4,0-1-0.3-1.1-0.6c0-0.4,0.1-0.9,0.5-1.1
			c6.5-3.8,8-9.9,8.1-16.7c0-0.8,0.1-1.5,1.1-1.6c0.8-0.1,1.4,0.4,1.6,1.2c0.1,0.2,0.1,0.5,0.1,0.7c0.4,1.8,0.7,3.6,1.2,5.4
			c0.3,1.1,0.7,2.3,1.2,3.4C131.3,163.5,133.3,166,137,166.8z M126.6,174.8l0.8,2.2c1.2-3.7,2.5-6.8,5.9-8.9
			c-3.7-2.6-5.4-6.2-6.9-10.1l-0.3,1.6c-1,3.3-2.7,6.3-5,8.8C123.8,170,125.3,172.3,126.6,174.8L126.6,174.8z"/>
		<path class="st5" d="M355.5,331.6c0,2-0.1,3.8,0,5.6c0.2,2.4,0.6,4.7,1.1,7c0.7,2.5,2.2,4.7,4.3,6.1c0.3,0.2,0.8,0.4,0.9,0.8
			c0.2,0.5,0.3,1,0.2,1.5c-0.3,0.3-0.7,0.5-1.2,0.4c-1.7-0.8-3,0-4.4,0.9c-2.1,1.1-3.6,3-4.3,5.2c-0.4,1.7-0.7,3.4-0.9,5.1
			c0,1.2-0.4,2.3-1.1,3.2c-1.2-0.8-1-2-1.2-3c-0.3-2.4-0.5-4.9-0.9-7.3c-0.6-2.6-2-4.8-4.1-6.5c-0.7-0.6-1.3-1.3-2.2-2.2
			c0.6-0.4,1.2-0.7,1.9-1c3.8-0.9,6.2-3.5,7.6-7c0.9-2.1,1.2-4.4,1.9-6.6C353.5,333,353.4,331.3,355.5,331.6z M352.6,343.5
			c-1.5,2.5-3.6,4.5-6.1,6l3.4,5.6c0.2,0.6,0.4,1.1,0.6,2.1c1.5-3.4,4.2-5,6.6-6.3c-1.4-3.1-2.6-6-3.9-8.9L352.6,343.5z"/>
		<path class="st6" d="M355.5,211.9l3.8-4.5c0.2,2.4,0.5,4.3,0.6,6.2c0.3,7.3,0.8,14.5,0.8,21.8c0,5.3-0.4,10.7-0.8,16
			c-0.5,6.6-1,13.2-1.6,19.8c-0.8,8.7-2.3,17.4-4.4,25.9c-2,8.6-5.2,16.7-8.5,24.9c-5,12.5-11.9,24.1-20.5,34.4
			c-2.2,2.5-4.6,4.9-7.2,7c-2.2,1.9-4.6,3.7-7,5.4c-5.4,4-11.5,6.5-17.7,8.9c-10.8,4.1-22.2,6.7-33.7,7.6c-7,0.8-14,0.9-21,0.4
			c-0.8-0.1-1.6-0.2-2.4-0.3l-1.5-0.2h-0.1c-0.1-0.4-0.2-0.9-0.5-1.2c-1.1-1-2.3-1.8-3.3-2.8c-4.7-4.4-7.9-9.8-11-15.3
			c-5.3-9.6-9.3-19.8-11.9-30.5c-2-7.6-3.6-15.3-5.2-23c-0.8-3.6-1.4-7.2-2-10.8c-1.1-6.8-1.9-13.5-3.1-20.3
			c-0.9-4.9-1.5-9.9-1.8-14.9c-0.1-2.3-0.3-4.6-0.5-6.9c-0.3-3.1-0.8-6.2-0.9-9.3c-0.1-3.4-0.1-6.7,0-10.1c0-2.1,0.8-4.1,2.2-5.6
			c0.9-0.9,1.7-1.8,2.6-2.8c0.8,0,1.6,0,2.4,0.1c4.1,0.4,8.2,1,12.3,1.2c8.8,0.4,17.5,0.6,26.3,0.7c5.7,0.1,11.5-0.3,17.2-0.4
			c4.2-0.1,8.4-0.2,12.6-0.6c7.8-0.7,15.7-1.4,23.5-2.4c5-0.6,10-1.5,15-2.3c1.8,0.4,3.5,0.9,5.3,1.3c6.9,1.6,13.1,4.4,17.8,9.9
			c2.4,2.9,4.7,5.9,6,9.4c2.4,6.3,4.1,12.9,5.2,19.6c1,6.4,1.6,12.9,1.7,19.4c0,1.4,0,2.7,0,4.1l-0.2,0.6l0.2-0.6
			c2-3.4,3.4-7.2,4.2-11.1c2.1-9.4,4.3-18.7,5-28.4c0.4-5.7,1.5-11.4,1.7-17.1C355.7,227.4,355.5,219.6,355.5,211.9z M278.2,239.1
			c0.7,0.5,0.8,0.7,1,0.8c3.5,2.3,7,4.4,10.4,6.8c4,2.9,7.9,6,11.7,9c3.5,2.8,7.1,5.6,10.4,8.8c5.5,5.2,10.9,10.5,15.4,16.7
			c0.4,0.5,1,0.8,1.6,0.8c2.7-0.3,5.3-0.8,8.2-1.2c0.2-1.1,0.3-2.3,0.3-3.4c-0.1-1.6-0.5-3.3-0.8-4.9c-1-5.8-2.6-11.5-4.9-16.9
			c-0.6-1.6-1.4-3-2.4-4.4c-1.5-2.2-3.1-4.2-4.9-6.2c-2.3-2.6-4.8-4.9-7.5-7c-3.2-2.5-7.3-3.4-11.3-2.5c-2.7,0.5-5.5,0.9-8.3,1.1
			c-4.6,0.5-9.3,1-14,1.5C281.7,238.2,280.2,238.7,278.2,239.1z M328.3,342.1c-1.2,0-2.6-0.1-3.9,0c-0.5,0.1-1.1,0.3-1.4,0.7
			c-2.3,2.1-4.5,4.3-6.6,6.6c-3.7,4.5-7.7,8.7-11.9,12.8c-1,0.9-2.1,1.7-3,2.7c-0.3,0.4-0.4,1-0.3,1.5c0.1,0.3,0.9,0.4,1.4,0.3
			c2.7-0.7,5.2-2,7.4-3.7c3.3-2.4,6.3-5.1,9.4-7.8s5.7-6.1,8.5-9.3C328.8,344.8,329,343.3,328.3,342.1L328.3,342.1z M337.1,289.3
			c-1.6,0-3-0.1-4.4,0s-2,1-1.5,2.1c0.6,1.9,1.5,3.7,2.5,5.3c1.1,1.7,2.4,1.4,3-0.6C337.4,294,337.5,291.6,337.1,289.3L337.1,289.3z
			 M294.6,371.9c-1.7-2.1-3.7-1.7-5.5,1C290.9,374.4,292.6,374.1,294.6,371.9L294.6,371.9z"/>
		<path class="st7" d="M225.9,220.3l1.1-2.3c2.2-4.2,3.3-8.9,3.1-13.6c-0.5-7.9-3.5-14.8-8.2-21.1c-5.5-7.7-13.6-13-22.9-15.1
			c-4.1-1-8.2-2.2-12.1-3.6c-8-2.8-13.6-8.4-17.8-15.6s-5.7-14.9-5.7-23.2c0-7.2,2.7-14.1,7.7-19.3c5.7-6.5,13.5-10.8,22-12.4
			c14.2-2.7,27.6,0.2,39.9,7.6c1.7,1.1,3.1,2.5,4.2,4.2c1.5,2,1.5,4.7-0.1,6.7c-1,1.4-2.1,2.6-3.2,3.9c-1.8,2.2-3.8,4.4-5.5,6.6
			c-6.2,7.9-3.5,17.5,0.9,23c1.9,2.3,4,4.2,7,4.7c1.7,0.3,3.5,0.4,5.2,0.2c3-0.4,6-0.9,8.9-1.6c6.2-1.4,12.4-3.3,18.6-4.3
			c7.7-1.3,15.4-1.4,22.8,1.7c1.1,0.5,2.2,1,3.3,1.5c3.7,1.8,6.6,4.9,8,8.8c1.5,3.8,2.4,7.8,2.7,11.9c0.2,3.3-0.7,6.5-1.6,9.6
			c-1.3,4.6-4.2,8.2-7.4,11.6c-5.2,5.4-11.2,10.1-17.7,13.8c-2.6,1.5-5.3,2.7-7.8,4.2c-5.3,3.1-10.1,6.7-13.4,12.1
			c-0.7,1.2-1.8,1.2-2.9,1.3c-3.7,0-7.4,0.1-11,0c-5.4-0.2-10.8-0.5-16.3-0.8C227.3,220.6,226.6,220.5,225.9,220.3z"/>
		<path class="st8" d="M199.2,231.7c-0.9,0.9-1.7,1.9-2.6,2.8c-1.5,1.5-2.2,3.5-2.2,5.6c-0.1,3.4-0.2,6.7,0,10.1
			c0.1,3.1,0.6,6.2,0.9,9.2c0.2,2.3,0.4,4.6,0.5,6.9c0.3,5,0.9,10,1.8,14.9c1.1,6.7,2,13.5,3.1,20.3c0.6,3.6,1.2,7.2,2,10.8
			c1.7,7.7,3.2,15.4,5.2,23c2.6,10.6,6.6,20.9,11.9,30.5c3.1,5.5,6.3,10.9,11,15.3c1.1,1,2.2,1.8,3.3,2.8c0.3,0.3,0.3,0.8,0.5,1.2
			c-3-0.4-6-0.6-9-1.1c-8.4-1.3-16.6-3.3-24.7-5.8c-6.6-2.3-13.1-5.1-19.2-8.5c-5.8-3.1-11-7.1-15.4-12c-0.7-0.8-1.3-1.7-2-2.6
			c4.9-1.1,9.5-2,14.1-3.3c3.2-0.9,6.4-2,9.5-3.2c2.2-0.8,3.8-2.7,4.5-4.9c2.2-6.2,2.1-13-0.2-19.2c-1.6-4.8-5.2-7.8-9.8-9.5
			c-1.4-0.5-3.1-0.8-4.3,0.5c-3.3,3.6-7.6,5.1-11.9,6.8c-3.4,1.3-7,1.8-10.6,1.7c-3.6-0.2-7.1-1.2-10.3-2.9c-0.7-0.5-1.3-1.2-1.6-2
			c-2.3-3.6-3.5-7.7-4.8-11.7c-2.6-8.8-5.4-17.5-7-26.6c-0.3-1.9-0.5-3.8-0.8-5.7c-0.2-1.4,0.2-2.9,1.3-3.9c3.4-4.1,7.9-5.8,13-6.2
			s10.2-0.5,15.1,1.2c0.5,0.1,1.1-0.1,1.5-0.4c1.6-0.9,3.2-1.8,4.7-2.8c0.5-0.3,0.8-0.7,1.1-1.2c2.3-4.1,4.2-8.3,4.7-13.2
			c0.4-4.4-0.3-8.9-2.1-13c-1.7-3.7-4.6-6-9.9-5.2c-2.4,0.2-4.7,1.2-6.5,2.8c-0.8,0.7-1.9,1-2.9,0.7c-2.6-0.3-5.2-0.9-7.8-1.1
			c-4.2-0.3-8.4-0.2-12.7-0.3c-0.3,0-0.6-0.1-0.8-0.1c-0.1-0.5-0.2-1-0.2-1.6c0-5-0.1-9.9,0.2-14.9c0.4-4.6,1-9.2,1.9-13.7
			c0.6-3,2.8-4.9,5.6-6.1c-0.9,2.3-0.5,4.8,1,6.8c3.4,4.9,7.9,8.7,12.6,12.2c3.3,2.5,7.2,3.6,11,5.2c1.4,0.6,3.1,0.6,4.1,2.1
			c-1.1-0.2-2.2-0.4-3.2-0.7c-4.5-1.6-8.9-3.1-13.4-4.7l-4.1-2l-0.2,0.4l3.8,2c4.6,2.8,9.6,4.5,14.7,6.2c8.7,2.6,17.5,4.8,26.4,6.4
			C193,230.4,196.1,231.1,199.2,231.7z"/>
		<path class="st9" d="M393.7,414.2c-1.4,1.3-3,2.6-4.6,3.8c-5.7,3.4-11.7,6.2-18,8.4c-7,2.5-13.9,5.1-20.9,7.5
			c-8,2.6-16.2,4.3-24.5,5.1c-7.5,0.9-15.1,1.3-22.6,2c-4.7,0.4-9.4,0.9-14,1.3c-2.6,0.2-5.3,0.4-7.9,0.4c-4.9,0.1-9.7,0-14.6,0
			c-5.3,0-10.5,0.2-15.8,0.2c-7-0.1-14-0.3-21.1-0.5c-0.5,0-1-0.1-1.4-0.2c0.1-0.3,0-0.7,0.2-0.8c0.9-0.4,1.8-0.7,2.7-1
			c6.2-2.1,12.2-4.8,17.9-8c4.5,0.1,9.1,0.3,13.6,0.2c5.6-0.2,11.3-0.6,16.9-1.2c6.2-0.6,12.4-1.3,18.5-2c16.8-2,33.3-5.5,49.2-11.5
			c4.1-1.5,8.1-3.3,11.9-5.6c3.2-2.1,4.1-8.3,1.5-11.3c-2.8-2.9-6.2-5.1-10-6.4c-5.5-2.1-11.2-3.8-16.9-5
			c-8.6-1.9-17.3-2.9-26.1-3.1c-0.4,0-0.8-0.1-1.2-0.1c-1.1-2.5-2.3-4.9-3.4-7.2l13.4-8.4c2.9,0.7,5.7,1.4,8.6,2
			c3.5,0.7,7,1.3,10.5,2.1c3.2,0.8,6.3,1.8,9.4,2.6c11,2.8,21.6,6.8,31.7,11.9c5.5,2.8,10.3,6.6,13.5,12.1c2.2,3.7,3.9,7.5,3,12
			C393.1,413.7,393.5,414,393.7,414.2z"/>
		<path class="st8" d="M258.7,428.9c-6-0.1-12-0.2-18-0.4c-4.5-0.1-9.1-0.1-13.6-0.5c-5.8-0.5-11.6-1.2-17.4-1.9
			c-10.2-1.1-20.5-2.1-30.6-3.5c-13.8-1.9-27.4-4.7-40.4-9.5c-3.5-1.3-6.8-3.2-9.7-5.6c-0.6-0.5-1.2-1.1-1.6-1.7
			c-1.2-1.7-1-2.8,0.6-4.1c3.4-2.8,7.3-5,11.5-6.3c10-3.5,20.4-5.7,31-6.8c4.6-0.4,9.2-1.1,13.8-0.9l1.5,0.1
			c-0.2,1.3-0.4,2.4-0.6,3.6c-0.2,1.7,0.1,3.2,1.8,4.1c1.4,1,2.8,1.9,4.3,2.6c6.1,2.7,12.1,5.5,18.6,6.9c8,1.7,16,3.6,24.2,4.3
			c6.9,0.6,13.9,0.8,20.8,0.6c11.3-0.4,22.4-1.5,33.3-4.6c4-1.1,7.9-2.5,11.8-3.8c-2.2,2-4.3,4-6.6,5.8
			c-8.4,6.9-17.7,12.8-27.5,17.6C263.3,426.1,261,427.6,258.7,428.9z"/>
		<path class="st10" d="M249,432.4c-5.7,3.2-11.7,5.9-17.9,8c-0.9,0.3-1.8,0.6-2.7,1c-0.1,0.1-0.1,0.5-0.2,0.8
			c-9.3,0.1-18.5-0.3-27.7-1.4c-7.9-0.9-15.7-1.7-23.5-2.8c-5.6-0.8-11.2-2-16.8-2.9c-10.8-1.8-21.4-4.4-31.8-7.7
			c-7.4-2.3-14.6-5.2-21.6-8.5c-3.5-1.5-6.6-3.7-9.1-6.4c-1.4-1.8-2.7-3.7-3.7-5.8c-1.2-2.1-0.9-4.2,0-6.4c1.9-4.9,5.3-8.5,9.2-11.7
			c9.5-7.8,20.5-12.4,32.2-15.8c7.3-1.9,14.8-3.2,22.3-3.8c3.3-0.3,6.5-0.7,9.8-0.9c1.9-0.1,3.8,0.4,5.4,1.6c3.9,2.7,8,5,12.3,6.9
			c1.8,0.8,3.6,1.7,5.5,2.7c-0.8,1.4-1.7,2.8-2.7,4.2c-0.6,0.5-1.3,0.7-2.1,0.7c-6.9-0.1-13.7,0.3-20.5,1.3
			c-11.4,1.5-22.6,4.1-33.1,9c-3.2,1.5-6.1,3.5-8.6,6c-1.8,1.8-2,3.7-0.9,6c1.3,2.6,3.3,4.8,5.7,6.3c5.5,3.4,11.5,6,17.8,7.6
			c13.4,3.8,27.2,6.4,41.1,7.8c8.6,0.8,17.3,1.5,25.9,2.4c8.9,0.9,17.8,1.4,26.7,1.4C243,431.9,246,432.2,249,432.4z"/>
		<path class="st8" d="M129.6,315.5c2,1.7,3.9,3.6,6,5.1c5.3,4.1,11.5,6.7,18.1,7.8c4.6,0.7,9.3,0.2,13.6-1.5
			c5.3-2,10.4-4.1,14.3-8.6c3.1,1.5,5.4,4.2,6.4,7.4c1.6,5.5,2.1,11-0.1,16.4c-0.3,0.7-0.4,1.5-0.7,2.5c-2.4,0.6-5,1.4-7.5,2
			c-5.1,1.1-10.1,2.6-15.2,3.2c-9.9,1.1-19.6,0.4-29-3.2c-7.2-2.7-13.3-7.5-17.7-13.8c-1.7-2.5-3.4-5-5.3-7.4
			c-2.4-3.1-3.7-6.9-5.1-10.5c-3.8-9.4-6.3-19.3-7.4-29.4c-1.2-10.8,1-21.7,6.3-31.2c1.2-2.1,2.4-4.1,3.7-6.2
			c3.9-6.3,10.4-10.4,17.8-11.2c6-0.7,12.2-0.6,18.1,0.5c2,0.4,4,0.4,5.9,0.7c1.7,0.2,3.4-0.3,4.6-1.5c1.2-0.9,2.5-1.7,3.9-2.2
			c3.2-1.1,5.3-0.3,7.2,2.6c0.3,0.5,0.6,1.1,0.8,1.7c-0.6,0.5-1.1,1.1-1.6,1.6c-1.4,1.8-2.8,3.7-4.2,5.5c-0.7,1-2.1,1.3-3.2,0.8
			c-5.9-2.5-12.3-3.5-18.7-3.1c-1.8,0.1-3.6,0.3-5.4,0.8c-6.4,1.9-12,5.7-16.1,10.9c-4.3,5.5-6.9,12.1-7.6,19
			c-0.4,4.1-0.6,8.3-0.4,12.4c0,3.2,0.4,6.3,1.1,9.4c1.5,5.6,3.7,11.1,6.5,16.1c1.6,2.7,3.6,5.1,6,7.1c0.8,0.9,2,1.2,3.1,0.7
			c1.1-0.5,1.9-1.6,1.9-2.8C129.6,316.8,129.6,316.2,129.6,315.5z"/>
		<path class="st11" d="M165.9,222.3c-0.9-1.5-2.7-1.5-4.1-2.1c-3.7-1.6-7.7-2.7-11-5.2c-4.7-3.6-9.2-7.3-12.6-12.2
			c-1.5-1.9-1.9-4.5-1-6.8l1.3-0.8c2.1-0.7,4.2-1.3,6.3-2.1c3.7-1.4,7.3-3.3,11.1-4.4c5.4-1.7,11-3,16.5-4.4c2.3-0.6,4.6-1.1,7-1.5
			c2.8-0.5,5.7-0.7,8.5-1.2c5.4-1,10.8-1.6,16.3-1.7c2.7-0.1,5.4,0,8.1-0.1l0.4,0.4c-0.9,0.2-1.7,0.4-2.6,0.5
			c-4.1,0.4-8.3,0.6-12.4,1.1c-5.4,0.7-10.7,1.5-16.1,2.5c-6.5,1.3-13,2.6-19.4,4.3c-5.5,1.5-10.5,4.3-14.8,8.1
			c-4.4,3.9-4,6.9,0.7,10.5c5,3.8,11,5.5,16.9,7.1c12.9,3.5,26.1,6.1,39.4,7.9c8,1.1,15.9,2.4,23.9,3c8.3,0.6,16.6,0.6,24.9,0.7
			c4.2,0,8.5-0.2,12.7-0.6c8.3-0.7,16.5-1.5,24.7-2.5c6.4-0.7,12.8-1.5,19.2-2.6c10.3-1.9,20.5-4.3,29.8-9.2
			c1.5-0.8,2.9-1.7,4.3-2.6c0.7-0.5,1.3-1,1.8-1.6c2.5-2.9,2.6-5.8,0-8.8c-2.8-3.2-6.5-5.1-10.3-6.7c-8-3.4-16.5-5.6-25.1-6.6
			c-0.9-0.1-1.7-0.3-2.7-0.5c0.5-1.2,1-2.3,1.4-3.4c0.6,0.4,1.2,0.7,1.9,0.9c6.4,1.6,12.8,3.1,19.1,4.9c6.7,1.9,13.3,3.9,19.1,7.9
			c1.7,1.3,3.2,2.8,4.7,4.3c1,1.1,1.3,2.6,0.8,4c-1.1,3.1-2.6,6.2-5.3,8.3c-3,2.4-6.3,4.6-9.4,6.9c-0.6,0.5-1.5,0.7-1.4,1.7
			l-2.1,0.9c-4.8,0.9-9.5,1.9-14.3,2.7c-8.2,1.4-16.3,2.8-24.5,4.1c-11.8,1.9-23.7,2.8-35.7,3.5c-7,0.4-14.1,0.4-21.1,0.5
			c-4.6,0-9.3-0.1-13.9-0.3c-6.9-0.3-13.9-0.5-20.8-1.1c-5.9-0.6-11.7-1.6-17.5-2.8c-7-1.4-14-3.1-21-4.7L165.9,222.3L165.9,222.3z"
			/>
		<path class="st12" d="M258.7,428.9c2.4-1.3,4.7-2.8,7.1-3.9c9.8-4.7,19.1-10.6,27.5-17.5c2.3-1.9,4.4-3.9,6.6-5.8l0,0l0.5-0.4
			l5.3-3.9c3.1,0.2,6.3,0.2,9.4,0c0.6,0,1.3,0,1.9,0.1c4.3,0.6,8.6,1.3,12.9,1.8c5.2,0.6,10.3,1.8,15.3,3.4c2.3,0.7,4.3,2.1,5.9,4
			c0.9,1.1,1.4,2.3,0.6,3.7c-0.2,0.5-0.3,1-0.4,1.6l0,0l-1,0.4c-4.5,1.6-8.9,3.4-13.5,4.9c-8.9,2.9-18,5.1-27.1,6.6
			c-11,1.8-22,3.5-33.1,4.3c-5.2,0.4-10.5,0.6-15.7,1C260.1,429,259.4,428.9,258.7,428.9z"/>
		<path class="st13" d="M355.5,211.9c0,7.8,0.3,15.5,0,23.3c-0.2,5.7-1.3,11.4-1.7,17.1c-0.7,9.6-2.9,19-5,28.4
			c-0.8,3.9-2.2,7.7-4.2,11.1l0,0c0-1.4,0-2.7,0-4.1c-0.1-6.5-0.7-13-1.7-19.4c-1.1-6.7-2.8-13.2-5.2-19.6c-1.2-3.6-3.6-6.6-6-9.4
			c-4.7-5.6-10.9-8.4-17.8-9.9c-1.8-0.4-3.5-0.9-5.3-1.3l5.4-1c7.8-1.4,15.5-3.4,23-5.9l5.1-2.2l5.9-2.6c0.4,0,0.9,0.2,1.1,0.1
			C351.1,214.9,353.3,213.4,355.5,211.9z"/>
		<path class="st6" d="M129.6,315.5c0,0.6,0,1.3-0.1,1.9c0,1.2-0.8,2.3-1.9,2.8c-1.1,0.4-2.3,0.2-3.1-0.7c-2.4-2-4.4-4.4-6-7.1
			c-2.9-5.1-5.1-10.5-6.5-16.1c-0.7-3.1-1.1-6.3-1.1-9.4c-0.1-4.1,0-8.3,0.4-12.4c0.7-6.9,3.3-13.5,7.6-19c4.2-5.2,9.8-9,16.2-10.9
			c1.8-0.5,3.6-0.8,5.4-0.8c6.4-0.4,12.8,0.6,18.7,3.1c1.1,0.6,2.5,0.3,3.2-0.8c1.4-1.8,2.8-3.7,4.2-5.5c0.5-0.6,1-1.1,1.6-1.6
			l0.2,1.8l0.2,0.6l0.1,3.9c-1.3,0.2-0.9,1.4-1.1,2.1c-1,4.1-3.5,7.7-7,10.1c-0.6,0.4-1.4,0.6-2.2,0.6c-1.8-0.2-3.6-0.6-5.4-1.1
			c-3.6-0.9-7.4-0.9-11.1,0c-4.5,1.1-8.8,3-12.5,5.8c-2.9,2-5.2,4.7-6.7,7.9c-2.7,5.5-4.7,11.3-5.7,17.4c-0.3,2.5-0.3,5,0,7.4
			c0.9,6.1,3.8,11.4,6.8,16.7c0.8,1.1,1.7,2.1,2.8,2.9c0.7,0.6,1.7,0.7,2.4,0.1L129.6,315.5z"/>
		<path class="st12" d="M274.5,403.5c-3.6,0.5-7.2,1.2-10.8,1.4c-7.5,0.3-15,0.5-22.4,0.5c-2.8-0.1-5.7-0.4-8.5-0.9
			c-0.9-1.9-1.9-3.7-2.7-5.5c-1.4-3.2-2.3-6.5-0.6-9.9c2.6,0.3,5.2,0.5,7.8,0.8c5.4,0.7,10.8,0.4,16.2,0.2
			c9.2-0.4,18.4-1.7,27.3-3.9c3.7-0.9,7.3-2.2,11-3.3c1.9-0.6,3.8-1.1,5.7-1.6c0.6,1.5,1,3,1.4,4.5c0.4,1.6,0,3.4-1.1,4.7
			c-1.4,1.7-3.2,3.1-5.1,4.1c-4.1,2.6-8.4,4.8-13,6.5C277.9,401.9,276.2,402.8,274.5,403.5z"/>
		<path class="st14" d="M97.3,418.3c4.5,3.5,9.7,5.5,14.8,7.6c8.4,3.5,17,6.5,25.8,8.8c13.9,3.6,28,6.3,42.3,8.2
			c8.6,1.1,17.3,1.9,25.9,2.9c7.6,0.8,15.3,0.9,22.9,1c7.3,0.1,14.7,0.4,22,0.4c5.7,0,11.5-0.3,17.2-0.4c4.5-0.1,9,0.1,13.4-0.1
			c6.7-0.3,13.4-0.9,20-1.3c3.7-0.3,7.5-0.5,11.2-0.7c10.7-0.6,21.3-2.2,31.7-4.6c5.5-1.4,11-3.3,16.4-5.2
			c7.1-2.5,14.1-5.2,21.1-7.9c3.8-1.6,7.4-3.5,10.8-5.8c-1.3,2.6-2.8,4.9-5.6,6.4c-7.4,4-15.3,6.8-23.3,9.4
			c-9.9,3.3-19.9,6.5-30.1,8.6c-8.3,1.7-16.6,3-25.1,3.7c-7.8,0.6-15.5,1.6-23.3,2.1c-4.3,0.3-8.6-0.1-12.9-0.1
			c-5.1-0.1-10.2-0.1-15.3-0.2c-5.8-0.1-11.7-0.2-17.5-0.3c-2.5,0-4.9-0.1-7.4-0.3c-8.1-0.4-16.2-0.8-24.4-1.4
			c-13.2-0.9-26.4-2.4-39.4-4.7c-14.8-2.8-29.6-5.9-43.9-10.9c-5.5-1.9-11-3.9-16.5-5.8c-3.2-1.2-6.2-2.9-8.8-5.2
			c-1.1-0.9-1.8-2.4-2.6-3.6L97.3,418.3z"/>
		<path class="st15" d="M224,195.8c-2.9,0.1-5.5,0.3-8,0.4c-10.1,0.3-20.2,0.7-30.3,1.9c-7.3,0.9-14.6,2.1-21.4,4.7
			c-2.3,0.9-4.5,2-6.6,3.3c-0.9,0.7-2.1,0.7-3.1,0.1c-1.3-0.8-2.6-1.5-3.9-2.3c-1.8-1.1-2-2.1-0.6-3.7c2.1-2.4,4.9-3.8,7.7-5.1
			c5.4-2.7,11.3-3.8,17.2-5.1c12.1-2.6,24.3-4.5,36.5-6.2c5.5-0.8,4.5-0.9,7.8,3.3C221.3,189.7,222.9,192.7,224,195.8z"/>
		<path class="st10" d="M229.4,389.1c-1.7,3.4-0.8,6.7,0.6,9.9c0.8,1.9,1.8,3.7,2.7,5.5c-2.9,0.1-5.9-0.2-8.7-1
			c-5.2-1.1-10.5-1.9-15.6-3.5c-4.9-1.4-9.5-3.6-14.3-5.4c-0.7-0.3-1.4-0.7-2.1-1.2c-2.9-1.7-3.3-2.8-1.9-5.8c1.2-2.5,2.7-4.8,3.9-7
			c5.6,1.6,10.9,3.2,16.2,4.5c5.6,1.4,11.4,2.3,17.1,3.5C228,388.8,228.7,389,229.4,389.1z"/>
		<path class="st15" d="M296.8,197.7c0.5-0.6,0.9-1.1,1.4-1.6c2.2-2.4,4.4-4.8,6.5-7.3c0.7-1,1.8-1.5,3-1.3
			c10.4,1.2,20.4,3.6,29.7,8.3c2.1,1.1,4.1,2.5,5.8,4.1c2.2,2,2,4.1-0.4,5.8c-1.7,1.1-3.4,2.1-5.2,3.1c-3.4-4.9-8.4-6.3-13.5-7.3
			c-8.4-1.6-17-2.8-25.5-3.4C298,198,297.4,197.9,296.8,197.7z"/>
		<path class="st16" d="M224.5,212.5c-1,2-2.1,3.9-3.1,5.9c-0.5,1.1-1.7,1.6-2.8,1.3c-7.2-1.1-14.4-2.1-21.6-3.3
			c-4.3-0.7-8.6-1.6-12.9-2.4s-8.4-1.5-12.6-2.5c-3.1-0.7-6.1-1.6-9.1-2.7c2.6-1.4,5.3-2.5,8.1-3.3c4-0.9,8-2.2,12.1-2.2
			c0.3,0.3,0.6,0.8,1,0.9c5.6,1.6,11.3,3.4,17,4.8c4.4,1.1,8.9,1.7,13.3,2.4C217.6,212,221.1,212.2,224.5,212.5z"/>
		<path class="st0" d="M270.6,214.9c1.2-0.8,2.3-1.7,3.5-2.4c4.8-2.8,10-5,14.4-8.4c2-1.6,4.5-2.3,7-2.1c4.7,0.2,9.4,0.6,14,1.4
			c4.9,0.9,9.9,1.6,14.8,2.5c1.4,0.4,2.7,0.8,4,1.4c-0.8,1.4-2.4,1.6-3.7,1.9c-3.7,0.7-7.5,1.4-11.2,1.9c-5.6,0.8-11.2,1.3-16.8,2
			c-4.1,0.5-8.2,1.1-12.3,1.4C279.7,214.7,275.1,214.8,270.6,214.9z"/>
		<path class="st10" d="M351.4,411.8c0-0.5,0.2-1.1,0.4-1.6c0.8-1.4,0.4-2.6-0.6-3.7c-1.5-1.9-3.6-3.3-5.9-4
			c-5-1.6-10.1-2.8-15.3-3.4c-4.3-0.5-8.6-1.2-12.9-1.8c-0.6-0.1-1.3-0.1-1.9-0.1c-3.1,0.2-6.3,0.2-9.4,0c1.4-2.1,1.4-4.5,1.5-7.2
			c2,0.1,4,0.2,5.9,0.3c11.7,0.7,23.2,3,34.3,6.8c3.9,1.3,7.7,3.1,10.3,6.5c1.6,2.1,1.5,3-0.4,4.6
			C355.5,409.9,353.7,411.3,351.4,411.8z"/>
		<path class="st0" d="M224.5,212.5c-3.5-0.3-7-0.5-10.4-1c-4.5-0.6-8.9-1.3-13.3-2.4c-5.7-1.4-11.3-3.2-17-4.8
			c-0.4-0.1-0.7-0.6-1-0.9c1.3-0.3,2.6-0.6,3.9-0.8c3.8-0.4,7.6-0.7,11.4-1.1c3.2-0.3,6.3-0.7,9.5-0.9c4.9-0.3,9.9-0.4,14.8-0.5
			c1,0.1,2,0.3,3,0.6C225.9,204.8,226.3,208.7,224.5,212.5z"/>
		<path class="st17" d="M129.3,315.2c-0.7,0.6-1.8,0.5-2.4-0.1c-1.1-0.8-2-1.8-2.8-2.9c-3-5.3-5.9-10.6-6.8-16.7
			c-0.3-2.5-0.3-5,0-7.4c1-6.1,2.9-11.9,5.6-17.4c1.5-3.2,3.8-5.9,6.7-7.9c3.7-2.7,7.9-4.7,12.4-5.8c3.6-0.9,7.4-0.9,11.1,0
			c1.8,0.5,3.5,0.8,5.4,1.1c0.8,0.1,1.5-0.1,2.2-0.6c3.5-2.4,6-6,7-10.1c0.2-0.7-0.1-1.9,1.1-2.1c0.1,4.1-1.2,7.8-2.8,11.5
			c-0.9,2-2.4,3.7-4.4,4.8c-0.6,0.5-1.5,0.6-2.2,0.3c-6.3-2.2-12.7-2.1-19.1-0.7c-4.3,0.9-8.2,3.3-11.1,6.6
			c-4.6,5.3-6.8,11.6-8.2,18.4c-0.5,2-0.8,4.1-0.9,6.1c-0.1,1.9,0.1,3.8,0.5,5.7c1.2,6,3.5,11.6,7.9,16.1
			C128.7,314.3,129,314.7,129.3,315.2z"/>
		<path class="st16" d="M270.6,214.9c4.5-0.2,9.1-0.2,13.6-0.5c4.1-0.3,8.2-0.9,12.3-1.4c5.6-0.6,11.2-1.2,16.8-2
			c3.8-0.5,7.5-1.2,11.2-1.9c1.4-0.3,2.9-0.5,3.7-1.9c1.8,0.3,3.4,1.4,4.3,3c-0.5,0.3-1,0.6-1.5,0.8c-4.1,1-8.1,2-12.2,2.9
			c-2.4,0.6-4.8,1.2-7.2,1.6c-3,0.5-6,0.9-8.9,1.3c-3.1,0.4-6.3,0.9-9.4,1.3s-6.5,0.7-9.7,1.1c-3.1,0.4-6.1,0.9-9.2,1.2
			c-3.4,0.3-6.7,1.1-10.2,0.6C264.8,219.2,265.9,218.2,270.6,214.9z"/>
		<path class="st18" d="M393.7,414.2c-0.2-0.2-0.6-0.5-0.5-0.7c0.9-4.5-0.8-8.3-3-12c-3.2-5.5-7.9-9.3-13.5-12.1
			c-10.1-5-20.8-9-31.7-11.9c-3.1-0.9-6.3-1.9-9.4-2.6c-3.5-0.8-7-1.4-10.5-2.1c-2.9-0.6-5.7-1.3-8.6-2c0.3-0.4,0.6-0.7,0.9-1.1
			c0.9-1.1,2.5-1.5,3.8-1c6.1,1.7,12.4,3.2,18.5,4.7c11.4,2.8,22.5,6.4,33.4,11c2.5,1.1,4.9,2.3,7.3,3.5c5.4,3,9.9,7.5,12.8,12.9
			c1.7,3.2,2.4,6.8,2,10.4C395.1,412.3,394.2,413.2,393.7,414.2z"/>
		<path class="st19" d="M347.8,216.3l-5.9,2.6l-3.6,0.8c-0.1-1,0.8-1.3,1.4-1.7c3.2-2.3,6.4-4.5,9.4-6.9c2.7-2.1,4.2-5.2,5.3-8.3
			c0.6-1.4,0.3-2.9-0.8-4c-1.4-1.6-3-3-4.7-4.3c-5.8-4-12.4-6-19.1-7.9c-6.3-1.8-12.8-3.2-19.1-4.9c-0.7-0.2-1.3-0.5-1.9-0.9
			c0.2-0.8,0.4-1.5,0.6-2.5c3.6,0.8,7.2,1.3,10.6,2.3c8.6,2.6,17.2,5.2,25.8,8.1c4.5,1.4,8.3,4.4,10.7,8.4c2.4,3.8,2.7,8.4-0.7,11.8
			C353.3,211.5,350.5,213.9,347.8,216.3z"/>
		<path class="st18" d="M212.3,179.9c-2.7,0-5.4,0-8.1,0.1c-5.5,0.2-10.9,0.7-16.3,1.7c-2.8,0.5-5.7,0.7-8.5,1.2
			c-2.3,0.4-4.7,0.9-7,1.5c-5.5,1.4-11.1,2.7-16.5,4.4c-3.8,1.2-7.4,3-11.1,4.4c-2.1,0.8-4.2,1.4-6.3,2.1c3.2-1.7,6.3-3.6,9.6-5.1
			c8-3.5,16.4-6.2,25-8.1c8.2-1.9,16.6-3.1,24.9-4.3c3.5-0.5,7.2-0.2,10.8-0.1C210.4,177.6,211.4,178.8,212.3,179.9z"/>
		<path class="st17" d="M274.5,403.5c1.7-0.8,3.4-1.7,5.2-2.3c4.6-1.7,8.9-3.9,13-6.5c1.9-1.1,3.7-2.5,5.1-4.1
			c1.1-1.3,1.5-3.1,1.1-4.7c-0.4-1.5-0.8-3.1-1.4-4.5l2.3-1.1c2.1,4.1,4,8,3.6,12.7c-0.1,1.5-1.1,2.7-2.4,3.3
			c-1.8,1-3.7,1.8-5.7,2.5c-6.2,1.8-12.3,3.8-18.7,4.7C275.9,403.4,275.2,403.5,274.5,403.5z"/>
		<path class="st8" d="M234.5,385l1.5,0.2L234.5,385z"/>
		<path class="st10" d="M350.3,412.2l1-0.4L350.3,412.2z"/>
		<path class="st8" d="M300.4,401.2l-0.5,0.4L300.4,401.2z"/>
		<path class="st17" d="M168.7,241.3l-0.2-0.6L168.7,241.3z"/>
		<path class="st20" d="M312,107.5c-4.1-0.1-8.3-0.9-12.1-2.5c-2.2-0.8-4.4-1.8-6.6-2.9c-5.6-3-11.7-4.8-18-5.2
			c-1.1-0.1-2.2-0.3-3.3-0.6c-2.2-0.4-3.8-2.4-3.8-4.6c-0.2-2.8,0.5-5.6,1.9-8c5.1-9,12.8-14.4,22.7-16.9c4.6-1.2,9.5-1.2,14.2,0
			c2.5,0.7,5,1.6,6.8,3.7c2,2.3,4.4,4.2,6.5,6.3c3.4,3.8,5.3,8.7,5.2,13.8c0.2,4.9-1.6,9.7-5.1,13.3
			C318,106.2,315.1,107.7,312,107.5z"/>
		<path class="st21" d="M375.4,302.6c1,3.8,1.9,7.7,3.1,11.5c1.5,4.6,3.7,8.8,8,11.6c-1.7,1.3-3.3,2.3-4.8,3.5
			c-3.9,3.2-6,7.6-7.5,12.3c-0.3,0.7-0.5,1.5-0.8,2.2c-1.4-5-3.3-9.8-5.8-14.4c-0.8-1.4-1.6-2.7-2.4-4
			C370,318.2,373.8,310.9,375.4,302.6z"/>
		<path class="st22" d="M375.4,302.6c-1.6,8.3-5.4,15.6-10.2,22.6c0.8,1.3,1.6,2.7,2.4,4c2.5,4.6,4.4,9.4,5.8,14.4
			c-0.2,1.2-0.5,2.4-0.7,3.6h-0.5c-1.7-8.5-4.9-16.1-12.2-21.4c1.7-1.8,3.6-3.5,5.1-5.4c4.2-5.2,6.8-11.3,8.6-17.7
			c0.3-0.8,0.5-1.7,0.7-2.5h0.7C375.2,301.1,375.3,301.8,375.4,302.6z"/>
		<path class="st21" d="M375.1,300.3h-0.7c0.1-0.4,0.3-0.7,0.4-1.1l0.3,0.1L375.1,300.3z"/>
		<path class="st21" d="M107.8,157.4c-1.2-2.9-2.2-6-3.6-8.8c-2-4.2-5-7.9-8.7-10.6c-0.4-0.3-0.8-0.7-1.4-1.1
			c6.8-2.1,10.8-6.9,13.3-13.1c0.7-1.8,1.4-3.6,2.1-5.4c0.3,0.7,0.6,1.5,0.8,2.2c1.2,3.7,2.2,7.5,3.5,11.1c0.8,2.3,2,4.5,3,6.7
			c-3.8,4-6.4,9-7.6,14.3c-0.1,0.9-0.2,1.7-0.3,2.6v-0.1c-0.2,0.6-0.3,1.3-0.5,2h0.1L107.8,157.4z"/>
		<path class="st22" d="M108.9,155.5c0-0.9,0.1-1.7,0.3-2.6c1.2-5.4,3.8-10.3,7.6-14.3c-1-2.3-2.2-4.4-3-6.7
			c-1.3-3.7-2.3-7.4-3.5-11.1c-0.2-0.8-0.5-1.5-0.8-2.2c0.2-0.6,0.3-1.2,0.6-2.2c2.4,9.7,7.3,17,15.7,21.8c-0.4,0.3-0.8,0.5-1.2,0.7
			c-6.8,3.1-11.1,8.6-14.5,15C109.7,154.3,109.3,154.9,108.9,155.5z"/>
		<path class="st22" d="M108.5,157.4c0.2-0.6,0.3-1.3,0.5-2C108.8,156.1,108.6,156.7,108.5,157.4z"/>
		<path class="st22" d="M107.8,157.4h0.7c-0.1,0.4-0.2,0.8-0.4,1.7L107.8,157.4z"/>
		<path class="st23" d="M179.4,56.9c3.4,0,6.6,0.9,9.5,2.7c1.7,1,1.9,2,1,3.8c-0.7,1.4-1.9,2.6-3.4,3.2c-1.6,0.8-3.2,1.4-4.9,1.8
			c-3.5,0.7-7,1.8-10.2,3.2c-1.9,0.8-2.6,0.6-3.7-1.2c-1.2-1.7-1.2-3.9-0.1-5.7C170.4,60,174.6,57.1,179.4,56.9z"/>
		<path class="st21" d="M126.6,174.7c-1.4-2.4-2.8-4.8-5.6-6.3c2.3-2.5,4-5.5,5-8.8c1,2.5,2.1,4.9,3,7.4c0.2,0.6,0.2,1.2,0,1.7
			C128.3,170.8,127.5,172.7,126.6,174.7z"/>
		<path class="st22" d="M126.6,174.7c0.8-2,1.7-3.9,2.4-5.9c0.2-0.6,0.2-1.2,0-1.7c-0.9-2.5-2-5-3-7.4l0.3-1.6
			c1.5,3.8,3.2,7.5,6.9,10.1c-3.3,2-4.6,5.1-5.9,8.9L126.6,174.7z"/>
		<path class="st21" d="M349.9,355.1l-3.4-5.6c2.5-1.5,4.6-3.5,6.1-6c0.5,1.7,1,3.3,1.4,5c0.2,0.9-0.1,1.8-0.8,2.4
			C352.1,352.2,351,353.7,349.9,355.1z"/>
		<path class="st22" d="M349.9,355.1c1.1-1.4,2.2-2.9,3.4-4.3c0.7-0.6,1-1.5,0.8-2.4c-0.5-1.7-1-3.3-1.4-5l0.6-1.5
			c1.3,2.9,2.5,5.8,3.9,8.9c-2.4,1.3-5.1,2.9-6.6,6.3C350.3,356.2,350.1,355.7,349.9,355.1z"/>
		<path class="st24" d="M278.2,239.1c2-0.4,3.5-0.9,5-1c4.6-0.6,9.3-1,14-1.5c2.8-0.2,5.5-0.5,8.3-1.1c3.9-1,8.1-0.1,11.3,2.5
			c2.7,2.1,5.2,4.4,7.5,7c1.8,1.9,3.4,4,4.9,6.2c1,1.4,1.8,2.9,2.4,4.4c2.3,5.4,3.9,11.1,4.9,16.9c0.3,1.6,0.7,3.3,0.8,4.9
			c0,1.1-0.1,2.3-0.3,3.4c-2.9,0.5-5.6,0.9-8.2,1.2c-0.6,0-1.2-0.3-1.6-0.8c-4.5-6.1-9.9-11.4-15.4-16.7c-3.3-3.1-6.9-5.9-10.4-8.8
			c-3.9-3.1-7.7-6.1-11.7-9c-3.4-2.4-6.9-4.6-10.4-6.8C279,239.7,278.9,239.6,278.2,239.1z"/>
		<path class="st5" d="M336.9,221.1c-7.5,2.5-15.2,4.5-23,5.9l-5.4,1c-5,0.8-10,1.7-15,2.3c-7.8,0.9-15.6,1.7-23.5,2.4
			c-4.2,0.4-8.4,0.4-12.6,0.6c-5.7,0.2-11.5,0.5-17.2,0.4c-8.8-0.1-17.5-0.3-26.3-0.7c-4.1-0.2-8.2-0.8-12.3-1.2
			c-0.8-0.1-1.6-0.1-2.4-0.1c-3.1-0.6-6.2-1.3-9.3-1.9c-8.9-1.6-17.8-3.7-26.4-6.4c-5.1-1.6-10.1-3.4-14.7-6.2l0.6-0.4
			c4.5,1.6,8.9,3.2,13.4,4.7c1.1,0.3,2.1,0.5,3.2,0.7l0,0l1.5,0.4c7,1.6,14,3.3,21,4.7c5.8,1.1,11.6,2.2,17.5,2.8
			c6.9,0.7,13.9,0.9,20.8,1.1c4.6,0.2,9.3,0.3,13.9,0.3c7-0.1,14.1-0.1,21.1-0.5c11.9-0.7,23.8-1.6,35.7-3.5
			c8.2-1.3,16.4-2.7,24.5-4.1c4.8-0.8,9.5-1.8,14.3-2.7L336.9,221.1z"/>
		<path class="st24" d="M328.3,342.1c0.7,1.2,0.5,2.8-0.4,3.8c-2.8,3.1-5.4,6.5-8.5,9.3s-6.1,5.4-9.4,7.8c-2.2,1.7-4.7,3-7.4,3.7
			c-0.4,0.1-1.2-0.1-1.4-0.3c-0.2-0.5-0.1-1,0.3-1.5c0.9-1,2.1-1.7,3-2.7c4.2-4,8.2-8.3,11.9-12.8c2.1-2.3,4.3-4.6,6.6-6.6
			c0.4-0.4,0.9-0.6,1.4-0.7C325.7,342,327,342.1,328.3,342.1z"/>
		<path class="st24" d="M337.1,289.4c0.4,2.3,0.3,4.7-0.4,6.9c-0.6,2-1.9,2.3-3,0.6c-1-1.7-1.9-3.5-2.5-5.3c-0.4-1.2,0.2-2,1.5-2.1
			S335.5,289.4,337.1,289.4z"/>
		<path class="st24" d="M294.6,371.9c-2,2.2-3.6,2.5-5.5,1C290.9,370.2,292.9,369.8,294.6,371.9z"/>
		<path class="st13" d="M344.5,291.7l-0.2,0.6L344.5,291.7L344.5,291.7z"/>
		<path class="st0" d="M149.3,216.8l-0.6,0.4l-3.8-2l0.2-0.4L149.3,216.8z"/>
		<path class="st16" d="M336.9,221.1l-0.7-0.5l2.1-0.9l3.6-0.8L336.9,221.1z"/>
		<path class="st8" d="M167.5,222.6l-1.5-0.4L167.5,222.6z"/>
	</g>
</g>
</svg>
