<?xml version="1.0" encoding="utf-8"?>
<!-- Generator: Adobe Illustrator 24.1.2, SVG Export Plug-In . SVG Version: 6.00 Build 0)  -->
<svg version="1.1" xmlns="http://www.w3.org/2000/svg" xmlns:xlink="http://www.w3.org/1999/xlink" x="0px" y="0px"
	 viewBox="0 0 491.8 491.8" style="enable-background:new 0 0 491.8 491.8;" xml:space="preserve">
<style type="text/css">
	.st0{fill:#462537;}
	.st1{fill:#160C2E;}
	.st2{fill:#1A0E2F;}
	.st3{fill:#1B1232;}
	.st4{fill:#1B1131;}
	.st5{fill:#1B0F30;}
	.st6{fill:#CECEF3;}
	.st7{fill:#DC8CC6;}
	.st8{fill:#9F92ED;}
	.st9{fill:#9F92EC;}
	.st10{fill:#CDCDF1;}
	.st11{fill:#CBCAEF;}
	.st12{fill:#CDCDF2;}
	.st13{fill:#A093EE;}
	.st14{fill:#9A8EE7;}
	.st15{fill:#9D91EB;}
	.st16{fill:#D2E5FC;}
	.st17{fill:#D4E3FA;}
	.st18{fill:#361936;}
	.st19{fill:#DC8BC6;}
	.st20{fill:#B79094;}
	.st21{fill:#B9A9DC;}
	.st22{fill:#DB8BC6;}
	.st23{fill:#D8E8FF;}
	.st24{fill:#1D1134;}
</style>
<g id="Coffee4">
	<g>
		<path class="st0" d="M399.5,401.2c-1.2-4.7-3.8-8.9-7.6-11.8c-3.8-2.9-8-5.3-12.4-7.2c-8.2-3.8-16.6-6.9-25.3-9.3
			c-10.6-3-21.1-6-31.9-7.9c0-0.1-0.1-0.2-0.1-0.3c1.1-1.1,2.3-2.3,3.4-3.4c10.4-10.2,17.6-22.4,23.5-35.5c1.4-3.1,2.6-6.2,3.8-9.3
			c2.5-6.1,4.4-12.3,5.9-18.6c1.4-6.4,2.7-12.8,3.7-19.2c0.8-4.7,1.1-9.3,1.6-14c0.5-4.3,0.9-8.7,1.3-13c0.3-2.8,0.5-5.6,0.5-8.3
			c-0.1-5.1-0.5-10.2-0.8-15.3c-0.3-6.2-0.5-12.4-1.1-18.6c-0.3-4-1-7.9-2.1-11.7c-1.1-4.7-4.2-8.6-8.5-10.8
			c-2.7-1.4-5.4-2.7-8.3-3.7c-9.1-3-18.4-5.4-27.8-7.2c-2.6-0.5-5.2-1-8.1-1.6c0.5-0.3,0.7-0.5,1-0.7c6.5-3.4,10.8-8.8,13.9-15.3
			c0.9-2,1.6-4.2,2-6.4c0.9-4.5,0.1-8.9-0.9-13.2c-1.6-7.3-5.7-13.3-10.6-18.7c-2.9-3.3-6.7-5.7-10.9-7.1c-4.1-1.3-8.4-2.1-12.7-2.2
			c-10.8-0.3-21.4,2.4-30.6,7.9c-8.5,4.8-15.5,11.3-21.6,18.7c-2.9,3.5-5.5,7.3-8.3,10.8c-1.3,1.4-2.6,2.8-4.1,4
			c-1.2,1.1-3,1.4-4.5,0.7c-3-1.2-6-2.3-8.9-3.5c-2-0.9-4.2-1.5-6.4-1.8c-0.5-0.1-1-0.1-1.5-0.1c-8.2,0-14.9,6.6-15,14.8
			c0,2.2-0.2,4.3-0.3,6.5c0,0.7-0.3,1.4-0.6,2c-2,2.8-5,4.7-8.4,5.1c-8.5,1.1-16.9,3.1-25.1,5.8c-7.3,2.2-14.4,5.3-21,9.1
			c-2.5,1.5-4.9,3.2-6.1,5.9c-1.2,2.5-1.9,5.1-2.1,7.8c-0.1,1.8-0.6,3.6-0.8,5.4c-0.5,4.9-1.1,9.9-1.5,14.9c-0.2,2.6,0,5.2,0,7.8
			c-2,0.8,3.8,5.3,2.1,6.1c-3.5,1.6,5.7,15.3,3.1,18.2c-3.8,4.3,1.5,6.7-0.7,12.1c-3.8,9.3,2.3,11.2,3.3,21.2
			c0.9,9.1,2.1,11,5.1,19.7c4.3,12.8-2.6,15.8,7.7,24.4c1.4,1.2,0.3,9.2,1.9,10.1c4.8,2.7-0.9,4.4,4.6,5.3c5.1,1,2.4,5.6,7.4,5
			l9,9.9c-5.8-0.7-11.8-0.6-17.6,0.1c-10.7,1.2-21.2,3.9-31.1,8.1c-7.5,2.9-14.4,6.9-20.6,12c-3.8,3.2-7,6.8-8.9,11.4
			c-1.2,2.4-1.7,5.2-1.4,7.9c1,6,3,11.8,5.9,17.1c0.6,1.1,1.5,2,2.5,2.8c4.8,3.7,10.2,6.6,15.9,8.7c7,2.8,14.1,5.1,21.3,7.2
			c11,3.2,22.2,5.1,33.4,7.4c9.7,2,19.5,3.3,29.3,4c8.6,0.5,17.1,1.5,25.7,2.1c6.2,0.5,12.4,0.8,18.6,1s12.4,0.3,18.7,0.5
			c0.7,0,1.4,0,2.2,0c10.2,0.2,20.4,0.7,30.6-0.4c7.5-0.8,15-1.6,22.5-2.4c9.4-0.9,18.6-2.6,27.7-5.1c7.5-2.2,14.9-4.6,22.5-6.7
			c8.2-2.3,16.2-5.5,23.6-9.8c2.6-1.5,4.8-3.5,6.4-6c2.9-4.3,4.2-9.3,4.9-14.3C400.2,407.4,400.1,404.2,399.5,401.2z"/>
		<path class="st0" d="M171.6,127c5.3-0.1,10.3,2,14,5.8c0.6,0.6,1.2,1.1,1.9,1.5c3.3,2.3,6.5,2.1,9.3-0.7c1.5-1.5,2.8-3.2,4-5
			c2-3.1,4.8-5.6,8.1-7.3c3-1.5,6-3.2,9-4.9c3.5-2,6.1-5.3,7.1-9.2c2.7-7.7-0.3-16.3-7.2-20.7c-6.3-4-13.4-6.5-20.8-7.3
			c-5.3-0.6-10.5-0.9-15.7,0.5c-6.6,1.7-12.9,4.1-17.7,9.4c-2.7,3.2-4.9,6.7-6.4,10.6c-1.4,2.8-2.2,5.9-2.3,9
			c0.1,1.4,0.3,2.8,0.6,4.2C157.2,120,161.7,127,171.6,127z"/>
		<path class="st0" d="M355.2,323.5c-0.5,0.3-1,0.6-1.4,1c0.8,0.6,1.4,1,2,1.5c2.2,1.5,4.2,3.1,6.2,4.8c5.9,5.8,7.8,13.4,8.3,21.3
			c0.2,3.9,0,7.8,0,11.7c-0.2,1.4,0.4,2.7,1.6,3.5c0.4-0.8,0.8-1.7,1-2.6c0.4-2.2,0.7-4.4,0.8-6.6c0.3-6.8,2.7-13.1,5.5-19.1
			c1.7-3.5,4.3-6.6,7.4-9c1.6-1.4,3.6-2.2,5.7-2.3c2,0,2,0.1,2.5-2.3c-0.7-0.2-1.5-0.5-2.2-0.7c-3-0.6-5.7-2.3-7.5-4.7
			c-1-1.3-1.8-2.6-2.5-4c-5.2-10.4-6.1-21.4-5-32.8c0.3-1.1,0.2-2.3-0.1-3.4c-1.4-0.4-1.6,0.3-1.7,1.3c-0.7,5.4-1.8,10.7-3.3,15.8
			c-1.6,6.2-4,12.1-7.2,17.7C362.8,318.7,359.9,322.2,355.2,323.5z"/>
		<path class="st0" d="M100.3,149c3.3,5.9,5.6,12.3,6.5,19c0.1,1.4,0.8,2.7,1.9,3.6c0.3-1.1,0.5-2.1,0.7-3.2
			c0.2-6.8,2.3-13.4,6.1-19.1c2.6-4.4,6.8-7.6,11.7-8.9c1.7-0.4,3.4-0.9,5.1-1.3c1.3-0.2,1.5-0.9,1.3-2.1c-2-0.7-4-1.6-6-2.2
			c-3-1-5.6-2.7-7.7-5c-3.4-3.8-5.7-8.5-6.7-13.6c-1-4.4-1.6-8.9-2.4-13.5c-0.8-0.3-1.4,0-1.5,1c-0.3,1.7-0.6,3.4-0.9,5.2
			c-1,5.6-2.3,11.1-5.1,16.1c-3,5.4-7.2,9-13.7,9.3c-1,0.2-1.9,0.4-2.9,0.8c0.8,0.8,1.6,1.5,2.5,2.2
			C94.1,140.1,97.6,144.3,100.3,149z"/>
		<path class="st0" d="M292.8,84c2,0.5,4.1,0.8,6.1,0.9c5.4,0.1,10.6,1.6,15.1,4.5c2.5,1.6,5.2,2.8,8.1,3.4c2.5,0.6,5.2-0.1,7.1-2
			c2.6-2.6,4.1-6,4.1-9.6c0-0.4,0-0.8,0-1.2c-0.1-0.4-0.2-0.8-0.3-1.2c-2.5-9.9-8.8-16.3-18.3-19.5c-6.7-2.2-13.5-1.5-20,0.6
			c-3.8,1.3-7,4-8.9,7.6C282.4,73.6,285.3,82.4,292.8,84z"/>
		<path class="st0" d="M129.8,159.2c-1.2-2.9-1.9-5.9-2.1-9c0-0.8-0.2-1.5-1.2-1.5c-0.8,0-1.4,0.3-1.5,1.2c-0.1,0.6-0.2,1.1-0.3,1.6
			c-0.3,1.9-0.6,3.8-1.1,5.6c-1.1,4-3.1,7.5-6.7,9.8c-1.6,1-1.4,2.2,0.5,2.8c3.1,1,5.5,3.4,6.6,6.4c1,2.6,1.8,5.3,2.4,8
			c0.2,0.8,0.5,1.6,0.8,2.3l0.8,0c0.3-1.3,0.6-2.6,0.8-3.9c0.7-5.6,2.4-10.6,7.9-13.3c0.1,0,0.2-0.1,0.2-0.1
			c0.7-0.4,0.9-1.4,0.5-2.1c-0.5-0.1-0.9-0.2-1.4-0.4C133.3,165,131.1,162.3,129.8,159.2z"/>
		<path class="st0" d="M355.8,331.3c-2.3-0.1-2.3-0.1-2.8,1.6c-0.2,0.7-0.3,1.4-0.5,2.1c-1.5,5.2-4,9.8-9,12.4c-0.5,0.2-1,0.5-1.8,1
			c0.5,0.6,1.1,1.1,1.8,1.5c1.6,0.9,2.8,2.4,3.4,4.1c0.6,1.6,1.1,3.3,1.5,5c0.3,2,0.3,4.1,0.5,6.2c0.1,0.7,0.4,1.4,0.6,2l0.7,0
			c0.3-0.9,0.7-1.8,0.9-2.7c0.3-1.4,0.5-2.8,0.9-4.2c1.2-4.8,4.7-7.2,8.6-7.1c0.9,0,1.8-0.1,2.1-1.5c-0.5-0.4-1.1-0.9-1.8-1.4
			c-2.2-1.5-3.8-3.7-4.5-6.3c-1-3.6-1.2-7.4-0.6-11.1C355.9,332.4,355.9,331.8,355.8,331.3z"/>
		<path class="st0" d="M167.6,68.7c1.5,1.5,3.7,1.9,5.6,1c0.7-0.3,1.4-0.6,2-0.9c1.9-0.9,3.9-1.5,5.9-1.7c1.8-0.3,3.6-0.8,5.2-1.5
			c3.8-1.6,4.1-8,0.2-10c-1.6-0.7-3.3-1.3-5-1.7c-3.3,0.7-6.5,1.3-9.6,2.1c-3.4,0.9-5.2,3.5-6.1,6.8C165.2,65,165.9,67.3,167.6,68.7
			z"/>
	</g>
</g>
<g id="Coffee4_copy">
	<path class="st1" d="M322.2,364.9c10.8,1.9,21.4,4.9,31.9,7.9c8.7,2.4,17.2,5.5,25.3,9.3c4.4,1.9,8.6,4.3,12.4,7.2
		c3.8,3,6.5,7.2,7.6,11.8c0.7,3,0.7,6.2,0.2,9.2c-0.7,5.1-2,10-4.9,14.4c-1.6,2.5-3.8,4.5-6.4,6c-7.4,4.2-15.4,7.5-23.6,9.8
		c-7.5,2.1-14.9,4.5-22.5,6.7c-9.1,2.5-18.3,4.2-27.7,5.1c-7.5,0.9-15,1.6-22.5,2.4c-10.2,1.1-20.4,0.6-30.6,0.4c-0.7,0-1.4,0-2.2,0
		c-6.2-0.2-12.4-0.3-18.7-0.5s-12.4-0.5-18.6-1c-8.6-0.6-17.1-1.6-25.7-2.1c-9.9-0.7-19.6-2-29.3-4c-11.2-2.2-22.4-4.2-33.4-7.4
		c-7.2-2.1-14.3-4.4-21.3-7.2c-5.7-2.1-11.1-5-15.9-8.7c-1-0.8-1.9-1.7-2.5-2.8c-2.9-5.3-4.9-11.1-5.9-17.1
		c-0.3-2.7,0.2-5.4,1.4-7.9c1.9-4.6,5.2-8.2,8.9-11.4c6.2-5.1,13.1-9.1,20.6-12c9.9-4.2,20.4-6.9,31.1-8.1
		c5.8-0.7,11.8-0.8,17.6-0.1l-9-9.9c-5,0.6-10.1-0.4-15.1-1.4c-5.4-1-10.6-2.9-15.4-5.6c-1.6-0.9-3.1-2-4.5-3.2
		c-10.3-8.7-18-20-22.3-32.8c-3-8.7-5-17.6-5.9-26.8c-1-10,0.5-20,4.3-29.3c2.2-5.4,6-10,9.8-14.3c2.6-2.9,5.7-5.2,9.2-6.7
		c1.7-0.8,3.5-1.4,5.5-2.1c0-2.6-0.2-5.2,0-7.8c0.4-5,1-10,1.6-14.9c0.2-1.8,0.6-3.6,0.8-5.4c0.2-2.7,0.9-5.3,2.1-7.8
		c1.3-2.7,3.6-4.4,6.1-5.9c6.6-3.8,13.7-6.9,21-9.1c8.2-2.7,16.6-4.6,25.1-5.8c3.4-0.5,6.4-2.3,8.4-5.1c0.4-0.6,0.6-1.3,0.6-2
		c0.2-2.1,0.3-4.3,0.3-6.5c0-8.2,6.7-14.9,15-14.8c0.5,0,1,0,1.5,0.1c2.2,0.2,4.4,0.8,6.4,1.8c2.9,1.3,5.9,2.4,8.9,3.5
		c1.5,0.7,3.3,0.4,4.5-0.7c1.5-1.2,2.8-2.6,4.1-4c2.8-3.6,5.4-7.3,8.3-10.8c6.2-7.4,13.2-13.9,21.6-18.7c9.3-5.4,19.9-8.2,30.6-7.9
		c4.3,0.1,8.6,0.8,12.7,2.2c4.2,1.3,8,3.8,10.9,7.1c4.9,5.5,9,11.4,10.6,18.7c0.9,4.3,1.7,8.8,0.9,13.2c-0.4,2.2-1.1,4.3-2,6.4
		c-3.1,6.5-7.5,11.9-13.9,15.3c-0.3,0.1-0.5,0.3-1,0.7c2.9,0.6,5.5,1.1,8.1,1.6c9.4,1.8,18.7,4.2,27.8,7.2c2.9,1,5.6,2.2,8.3,3.7
		c4.2,2.2,7.3,6.2,8.5,10.8c1,3.8,1.7,7.8,2.1,11.7c0.6,6.2,0.7,12.4,1.1,18.6c0.3,5.1,0.6,10.2,0.8,15.3c0,2.8-0.2,5.6-0.5,8.3
		c-0.4,4.4-0.9,8.7-1.3,13c-0.5,4.7-0.8,9.4-1.6,14c-1,6.4-2.3,12.8-3.7,19.2c-1.5,6.4-3.5,12.6-5.9,18.6c-1.2,3.1-2.4,6.2-3.8,9.3
		c-5.9,13.1-13.1,25.4-23.5,35.5c-1.1,1.1-2.3,2.3-3.4,3.4C322.1,364.7,322.2,364.8,322.2,364.9z M137.7,194.8l-0.6,0.4l0,0
		c-3.5,1.4-5.8,4.7-6.1,8.4c-0.5,5.4-1.3,10.7-1.8,16.1c-0.5,4-0.5,8.1,0,12.2c7.4,0,14.8,0.7,22,2.1c0.7,0,1.3-0.2,1.9-0.6
		c1.6-0.9,3.1-2,4.8-2.7c3.8-1.6,8.2-0.6,10.9,2.6c1.6,1.9,2.7,4.2,3.1,6.7c1.1,5.8,0.5,11.7-1.8,17.1c-1.1,2.8-2.5,5.2-5.3,6.5
		c-0.7,0.3-1.4,0.8-2,1.3c-1.5,1.6-3.9,2-5.9,1c-3.5-1.2-7.3-1.8-11-1.7c-5.5-0.1-10.8,2.3-14.4,6.4c-0.7,0.6-1,1.5-0.9,2.4
		c0.3,1.6,0.5,3.3,0.9,4.9c1.7,7.8,3.4,15.6,5.3,23.3c1.7,6.6,4,13,6.9,19.1c0.4,1.2,1.5,2.1,2.8,2.3c2.4,0.4,4.9,0.9,7.3,1.1
		c9,0.7,17.1-1.4,23.6-8.1c1.2-1.4,3.1-1.8,4.7-1c2.6,0.9,4.8,2.6,6.6,4.7c4.8,5.9,6.3,12.6,5.2,20c-0.6,4.2-2.5,7.3-6.8,9
		c-5.8,2.3-11.7,4.1-17.8,5.4l-4.4,0.9c0.2,0.4,0.2,0.7,0.3,0.9c3.1,3.1,6.2,6.3,9.5,9.1c5,4.4,10.9,7.3,16.9,9.9
		c7.8,3.4,15.9,5.7,24.3,7c5.8,0.9,11.7,1.7,17.5,2.6h0.1l1,0.1c3.6,0.3,7.3,0.9,10.9,1c8.5,0.2,17.1-0.3,25.6-1.5
		c7.3-1,14.5-2.4,21.2-5.7c2.6-1.3,5.2-2.5,7.8-3.7c6.3-3,12.4-6.1,17.5-11c4.1-3.9,8.4-7.6,12-12c4.6-5.4,8.5-11.4,11.6-17.8
		c2.5-5.2,4.4-10.6,6.6-15.9c2.6-6,4.7-12.2,6.2-18.6c0.9-3.6,1.7-7.3,2.4-11c0.9-4.7,1.7-9.4,2.3-14.1c0.6-4.3,1-8.5,1.4-12.8
		c0.5-5.2,1-10.5,1.1-15.7s-0.2-10.4-0.4-15.6c-0.3-7.1-0.7-14.2-1.1-21.3c-0.1-0.7-0.2-1.3-0.4-2l-3.4,4.8c-2.4,1.7-4.7,3.3-7.1,5
		c-0.3,0.2-0.7,0-1.1,0c1.4-1.2,2.9-2.3,4.2-3.6c1.8-1.8,3.4-3.8,5-5.8c0.5-0.7,0.8-1.5,0.8-2.4c0.1-2.4-0.1-4.8-0.7-7.1
		c-0.6-3-2.5-5.5-5.2-6.7c-2.6-1.4-5.3-2.5-8.1-3.4c-11.8-3.2-23.7-6.2-35.6-9.2c-2.8-0.8-5.8-1.2-8.7-1.2c-3.7,0-7.5-0.2-11.2-0.8
		c-7.1-1.1-14.1-2.6-21.3-2.6c-4,0-7.9-0.1-11.7,1.4c-1,0.3-2.1,0.8-2.1,1.9c0,0.7,0.8,1.5,1.3,2.1c0.4,0.3,0.8,0.4,1.3,0.4
		c2.9,0.2,5.7,0.3,8.6,0.6c4.3,0.4,8.5,0.8,12.8,1.2c3.6,0.3,7.3,0.5,11,0.9c6.5,0.8,12.9,1.8,19.4,2.6c9.6,1.4,19.1,3.6,28.3,6.7
		c3.8,1.2,7.3,3.2,10.4,5.8c1.5,1.2,2.3,3.1,2.1,5.1c-0.3,2.3-1.1,4.4-3.2,5.6c-2.8,1.8-5.6,3.3-8.7,4.5c-4.8,1.8-9.7,3.3-14.6,4.3
		c-12,2.4-24.1,4.6-36.2,6.5c-6.5,1.1-13.1,1.8-19.7,1.9c-14.2,0.1-28.4,0.8-42.6-1.1c-9-1.2-18.2-2.1-27.2-3.3
		c-5.2-0.7-10.4-1.8-15.6-2.4c-9.7-1.1-19.1-3.9-27.8-8.2c-2.8-1.3-5.1-3.4-6.6-6.1c-1.5-2.3-1-5.4,1.1-7.2c1.1-1.1,2.4-2.1,3.9-2.8
		c3.1-1.5,6.3-2.8,9.5-3.8c4.3-1.3,8.8-2.3,13.4-3.4l1-3l1.9-3.2c-0.3,0-0.6,0-0.9,0.1c-10.1,2.6-20.1,5.4-29.7,9.6
		C143.2,191.6,140.5,193.3,137.7,194.8z M326.2,206.8c-0.6-0.1-1.2-0.4-1.8-0.4c-5.8-1-11.5-1.9-17.3-2.8c-2-0.3-4.1-0.4-6.1-0.6
		c-0.9-0.1-1.7,0.3-2.2,1.1c-2.4,3.3-5.3,6.1-8.7,8.4c-1,0.6-2.1,1.1-3.2,1.6c-0.9,0.3-1.8,0.6-2.7,1c-2.5,1-5,2.1-7.5,3.1
		c-0.8,0.3-1.6,0.7-1.7,2c3.2-0.4,6.4-0.8,9.5-1.2c2.4-0.3,4.7-0.7,7-1c2.8-0.4,5.6-0.8,8.5-1.3s5.5-1,8.2-1.6
		c6.9-1.4,13.8-2.9,20.7-4.4c1.3-0.2,2.6-0.7,3.6-1.6C330.6,207.3,328.4,207.2,326.2,206.8L326.2,206.8z M350.8,412.3L350.8,412.3
		c2.3-0.7,4.5-1.6,6.6-2.5c1.9-1,3-2.6,1.3-5.1c-1.3-2-3.1-3.6-5.2-4.8c-6-3.5-12.6-5.4-19.3-6.7c-7.4-1.5-14.9-2.5-22.4-2.9
		c-1.2-0.1-2.5,0-3.8,0c0.3,3,0,5.5-1.9,7.7l-1.9,1.8c-0.3,0.1-0.6,0.2-0.9,0.3c-6.4,2.9-13,5.3-19.8,7.1c-11.3,2.9-22.9,3.9-34.6,4
		c-2.9,0-5.7-0.1-8.6-0.3c-4.4-0.4-8.9-0.6-13.3-1.3c-8.2-1.3-16.3-3.3-24.1-5.9c-5.4-1.9-10.8-3.9-15.6-7.2c-2.9-2-3.4-3.5-2.1-6.7
		c0.4-1,0.9-2,1.3-3.1c-0.3-0.1-0.5-0.1-0.8-0.1c-7.8,1.2-15.6,2.4-23.4,3.5c-6.9,1.1-13.8,2.6-20.5,4.6c-5.1,1.5-9.8,4-13.9,7.3
		c-1.5,1.2-1.8,2.4-0.6,3.9c1,1.4,2.3,2.7,3.8,3.6c3.8,2,7.7,3.8,11.8,5.3c9.7,3.3,19.6,5.7,29.7,7.2c5.3,0.8,10.5,1.9,15.8,2.5
		c12.7,1.4,25.4,2.6,38.1,3.6c9.1,0.7,18.2,0.9,27.2,1.3c2.2,0.1,4.4,0,6.7,0c3.3,0,6.5,0,9.8-0.1c4.5-0.1,9.1-0.2,13.6-0.6
		c8.6-0.8,17.2-2.2,25.7-4.1c9.8-2,19.6-4.6,29.1-7.7c3.8-1.3,7.5-2.6,11.3-4L350.8,412.3z M168.9,243.7l-0.5-4.8
		c-0.4-0.7-0.8-1.4-1.3-2c-2.2-3-6.4-3.7-9.4-1.7c-0.7,0.4-1.3,1-2,1.3c-0.8,0.5-1.7,0.8-2.6,0.9c-6.1-0.2-12.1-0.3-18.1-0.8
		c-6.6-0.7-13.2,1.1-18.5,5c-3.8,2.7-6.3,6.5-8.9,10.2c-5.2,7.4-7.2,15.8-7.6,24.5c-0.5,10.5,1.5,20.6,4.6,30.6
		c1.6,5.2,3.1,10.4,6,15.1c1.8,3,3.9,5.8,5.9,8.7c2.8,4,6.5,7.3,10.1,10.5c1,0.8,2,1.6,3.1,2.2c4.6,2.7,9.5,4.5,14.7,5.6
		c3.9,0.9,7.9,1.4,11.9,1.5c10.1-0.3,20-2.4,29.4-6.1c1.4-0.5,2.5-1.5,3.1-2.8c0.5-1,0.9-2,1.1-3.1c1.4-7.5-0.8-13.8-6.4-19
		c-0.5-0.4-1-0.7-1.5-1c-1.4,1.2-2.6,2.3-3.9,3.3c-3,2.6-6.5,4.3-10.4,5.2c-4.3,0.8-8.6,1.6-13,1.2c-7.6-0.7-14.6-2.7-20.4-7.9
		c-2.2-2-4.2-4.1-6.2-6.2l-1-1.6c-3.7-6.2-6.3-12.7-6.1-20c0-5.2,0.8-10.3,2.4-15.3c1.4-4.6,4-8.7,7.6-11.9c6.1-5.3,13.1-7,20.9-5.8
		c3.3,0.6,6.5,1.4,9.7,2.4c3.1-1.5,4.7-4.2,5.8-7.3C168.2,251,169.3,247.5,168.9,243.7z M267.3,405.2c1.6-0.2,3.2-0.4,4.7-0.6
		c7.5-1.2,14.8-3.1,22-5.6c2.4-0.9,4.7-1.9,6.9-3.2c2.2-1,3.3-3.5,2.5-5.8c-0.9-3-2-5.9-3-8.8c-0.3-0.6-0.6-1.1-1-1.7l-2,1.1
		c-0.2,0.1-0.5,0.1-0.7,0.2c-9.7,5.1-20.2,7.1-30.9,8c-3.7,0.3-7.5,0.5-11.2,0.7c-2.8,0.2-5.6,0.3-8.3,0.2c-5.3-0.4-10.6-1-15.9-1.5
		c-0.3-0.1-0.6-0.2-0.9-0.2c-5.6-0.9-11.2-1.6-16.7-2.8c-6.4-1.4-12.8-3.2-19.4-4.9c-2,3.7-3.5,7.6-4.4,11.7c2.6,1.4,5,3,7.6,4.1
		c7.5,3.1,15.3,5.6,23.2,7.3c4.9,1,9.8,2.2,14.8,2.3c0.8,0.2,1.6,0.3,2.4,0.4c5.1,0.1,10.3,0.3,15.4,0.2
		C257.4,406.2,262.3,405.6,267.3,405.2z M314.1,370.7l-11.5,7.5l4.2,8.5c7.4,0,14.7,0.6,22,1.9c8.3,1.2,16.4,3.5,24,7
		c2.7,1.3,5.2,2.9,7.4,4.8c3.6,3.1,3.4,7.6,0,10.8c-1.9,1.8-4.2,3.2-6.7,4.1c-4.9,1.8-9.9,3.6-14.9,5.2c-13.1,4.2-26.5,6.9-40,9.2
		c-6.6,1.2-13.2,2-19.9,2.1c-6.9,0.1-13.7,0.2-20.6,0.3l-7.2,0.1c-7.5-0.3-15-0.6-22.4-0.9c-5-0.3-10-0.6-15-1
		c-7.7-0.7-15.4-1.6-23-2.4c-11.4-1.3-22.7-3.3-33.9-5.8c-8.7-1.9-17-4.8-25-8.7c-2.9-1.3-5.4-3.2-7.4-5.6c-2.2-2.8-1.9-6.2,0.7-8.4
		c3.8-3.3,8.2-5.9,12.9-7.5c12.9-4.4,26.4-6.9,40.1-7.6c3.3-0.1,6.7-0.4,10-0.6c0.8-1.5,1.7-3.1,2.5-4.6c-0.2-0.2-0.4-0.3-0.6-0.5
		c-6-2.8-12-5.6-17.3-9.8c-0.3-0.3-0.7-0.4-1.1-0.5c-2.7-0.1-5.4-0.4-8.1-0.3c-3.2,0.1-6.3,0.6-9.5,1c-9.9,1-19.6,3.3-28.9,6.7
		c-8.8,3.3-17.2,7.3-24.2,13.7c-2.9,2.7-5.5,5.6-6.7,9.4c-0.8,2.5-1.5,5-0.1,7.6c2.2,4.1,5.4,7.6,9.3,10c1.7,1,3.5,2,5.2,2.9
		c9.3,4.5,19.1,8.1,29.2,10.6c8.7,2.3,17.6,3.9,26.5,5.5c10.8,2,21.8,3.3,32.7,4.6c4.4,0.5,8.7,0.9,13.1,1.3
		c2.4,0.2,4.8,0.5,7.1,0.6c4.7,0.2,9.4,0.3,14.1,0.4c2,0.1,4,0.3,6,0.4c5.8,0.1,11.5,0.1,17.3,0.2c14,0.3,27.9-0.2,41.9-1.4
		c9.3-0.8,18.6-1.6,27.8-2.5c12.1-1.4,23.9-4.1,35.4-8.1c7.3-2.5,14.5-5.3,21.7-8.2c2.7-1.3,5.4-2.8,7.9-4.4
		c1.3-0.8,2.5-1.7,3.8-2.5c1.4-0.9,2.4-2.3,2.7-4c0.5-2.9,0.8-5.9-0.3-8.7c-1.3-3.7-3.5-7-6.5-9.6c-4.2-3.7-9.1-6.1-14.2-8.3
		c-9.4-4.1-19.2-7.4-29.1-9.8c-8.7-2.1-17.3-5.1-26.3-6C317.2,368.9,315.5,369.2,314.1,370.7z M267.9,220.8
		c3.4-5.1,5.4-6.7,11.2-8.7c1.5-0.5,3-1.1,4.5-1.5c4.9-1.5,8.1-4.9,11-8.8c0.8-1,1-2.4,0.5-3.6c-0.9-2.9-2.9-5.4-5.6-6.9
		c-3.9-2.1-8.1-3.4-12.5-3.7c-5-0.5-10-0.8-15-1.4c-2.8-0.4-5.6-1-8.4-1.8c-2.2-0.6-4-2.2-5-4.2c-1.3-2.1-0.9-4.9,0.9-6.6
		c2-2,4.5-3.3,7.3-3.7c7.2-1.3,14.3-0.8,21.5,0.2c5.8,0.8,11.6,2,17.5,2.4c11.1,0.8,18.7-5.1,24.5-13.9c0-0.1,0.1-0.1,0.1-0.2
		c2-4.7,2.6-9.9,1.8-15c-1-5.9-3.5-11.5-7.3-16.2c-4.7-6-10.5-10.1-18.2-11.4c-4.7-0.8-9.6-0.7-14.3,0.1c-3.4,0.5-6.8,1.3-10,2.4
		c-7.7,2.9-14.9,7-21.3,12.3c-4.6,3.5-8.5,7.8-11.6,12.6c-1.6,2.4-3.1,4.8-4.8,7.2c-1.3,1.8-2.7,3.5-4.3,5.1c-2.8,2.7-6,3.8-9.9,2.3
		c-2.9-1.2-5.8-2.2-8.7-3.5c-2.2-1.1-4.7-1.6-7.2-1.6c-5.3,0.4-9.5,4.5-10,9.8c-0.1,2.3-0.2,4.6-0.4,6.9c-0.1,0.8-0.2,1.6-0.5,2.3
		c-1.2,3.9-4.1,6.1-7.6,7.8c-7.3,3.4-10,8.9-8.5,16.8c1.3,6.6,4.4,12.8,9,17.7c0.7,0.9,1.7,1.5,2.8,1.6c2.1,0.2,4.3,0.6,6.4,0.9
		c9.7,1.1,19.3,2.4,29,3.4c4.8,0.5,9.7,0.8,14.6,0.9c6.1,0.2,12.1,0.1,18.2,0.1C261.2,220.8,264.6,220.8,267.9,220.8z M96.4,418
		c0.1,0.3,0.3,0.7,0.4,1c1.4,2.4,3.4,4.3,5.8,5.5c4.3,2.2,8.8,4.1,13.3,5.8c6.5,2.3,13.1,4,19.6,6.1c10.8,3.3,21.9,5.1,32.9,7.3
		c8.3,1.7,16.7,2.9,25.1,3.5c6.6,0.4,13.2,1.2,19.8,1.7c5.9,0.4,11.8,0.7,17.7,1.1c4.9,0.3,9.9,0.6,14.8,0.8
		c6.9,0.2,13.7,0.3,20.6,0.5c8.9,0.2,17.7-0.1,26.5-0.9c5.4-0.5,10.8-1.2,16.2-1.7c11.3-1.2,22.6-3.1,33.6-5.9
		c15.1-3.8,30-8.2,44-15.2c2.2-1.2,4.1-2.8,5.5-4.9c0.2-0.4,0.5-0.9,0.6-1.4c-3.6,1.9-7,4-10.5,5.5c-7.1,3-14.3,5.9-21.6,8.4
		c-11.4,4-23.2,6.7-35.1,8c-6.4,0.7-12.8,1.3-19.3,1.9c-5.4,0.5-10.8,0.8-16.2,1.1c-5.2,0.3-10.3,0.8-15.5,0.8
		c-12.5,0-24.9-0.1-37.4-0.3c-0.4,0-0.8,0-1.2,0c-7.1-0.3-14.2-0.6-21.3-0.9c-3.2-0.2-6.4-0.5-9.5-0.9c-4-0.5-8.1-1-12.1-1.5
		c-6-0.7-12.1-1.1-18.1-1.9c-5-0.6-9.9-1.8-14.9-2.4c-12.3-1.7-24.3-4.5-36.1-8.4C114.5,427.6,105.1,423.3,96.4,418z M336.5,208.1
		c2.1-1,4-1.8,5.8-2.8c0.9-0.6,1.7-1.5,2.2-2.4c0.9-1.4,0.7-2.4-0.6-3.3c-2.1-1.6-4.3-3-6.6-4.2c-5-2.5-10.4-3.5-15.7-4.9
		c-10.3-2.7-20.8-3.8-31.3-5.3c-0.5,0-1,0-1.6,0c5.8,1.9,10.3,6.8,11.7,12.8c4.9,0.7,9.6,1.3,14.3,2.1c5.5,1,10.9,2.4,16.3,3.7
		C333.4,204.3,335.4,205.9,336.5,208.1z M156.4,207.6c4.9-4.8,11.5-5.5,17.6-7.1c-0.4-3.5-0.7-6.9-1.1-10.5
		c-2.9,0.7-5.9,1.5-8.9,2.2c-3.9,1-7.7,2.5-11.3,4.4c-0.9,0.4-1.6,1-2.4,1.6c-2.1,1.8-2.1,3.4-0.3,5.5
		C151.7,205.6,153.9,206.9,156.4,207.6L156.4,207.6z M127.3,277.1c-0.8,2.4-1.6,4.5-2.2,6.7c-1.1,3.6-1.4,7.4-0.9,11.1
		c0.4,1.9,0.9,3.7,1.5,5.5c1.4,4.6,3.6,8.9,6.6,12.6c1.3,1.7,3,3.2,4.9,4.3c-2.5-6.4-4.5-12.9-6-19.6
		C129.8,291.1,128.6,284.3,127.3,277.1L127.3,277.1z M161.4,209.1l0.1,0.6c6.2,1.9,12.5,3.3,18.9,4.2c-1.4-2.8-2.9-5.5-4.3-8.3
		c-0.4-1-1.4-1.4-2.4-1.1c-0.1,0-0.1,0-0.2,0.1c-2.3,0.6-4.6,1.3-6.8,2.2C164.9,207.4,163.2,208.3,161.4,209.1L161.4,209.1z"/>
	<path class="st2" d="M154.9,108.6c0.2-3.1,1-6.2,2.3-9c1.5-3.9,3.7-7.5,6.4-10.6c4.8-5.3,11.1-7.6,17.7-9.4
		c5.2-1.3,10.4-1.1,15.7-0.5c7.4,0.8,14.5,3.2,20.8,7.3c6.9,4.4,9.9,13,7.2,20.7c-1.1,3.9-3.6,7.2-7.1,9.2c-3,1.7-6,3.4-9,4.9
		c-3.3,1.7-6.1,4.2-8.1,7.3c-1.2,1.8-2.5,3.5-4,5c-2.8,2.8-6,3-9.3,0.7c-0.7-0.4-1.3-1-1.9-1.5c-3.7-3.8-8.7-5.9-14-5.8
		c-9.9,0-14.4-7-16.1-14.2C155.2,111.4,155,110,154.9,108.6z M222.9,99.8c-0.5-3.2-1.7-7-5.5-9.7c-4.3-2.8-9.1-4.8-14.1-5.7
		c-4.3-0.9-8.7-1-13-1.7c-8.3-1.2-15.4,1.5-21.9,6.3c-4.9,3.6-7.3,9-9.4,14.5c-1.4,3.9-1.2,8.3,0.6,12.1c2,4.4,5.1,7.5,10.3,7.8
		c0.6,0,1.1,0.1,1.7,0.1c5.6,0,11.1,2.2,15.2,6c0.7,0.7,1.4,1.3,2.2,1.8c2.2,1.5,3.7,1.4,5.6-0.5c1.5-1.5,2.8-3.2,4-5
		c2.1-3.2,5-5.9,8.4-7.6c3-1.5,5.9-3.2,8.8-4.8C220.8,110.8,222.7,106.3,222.9,99.8L222.9,99.8z"/>
	<path class="st3" d="M371.9,367.3c-1.2-0.7-1.8-2.1-1.6-3.5c0-3.9,0.2-7.8,0-11.7c-0.5-7.9-2.4-15.5-8.3-21.3c-2-1.7-4-3.3-6.2-4.8
		c-0.6-0.4-1.2-0.9-2-1.5c0.4-0.4,0.9-0.7,1.4-1c4.7-1.4,7.6-4.8,9.9-8.8c3.1-5.6,5.6-11.5,7.2-17.6c1.5-5.2,2.6-10.5,3.3-15.9
		c0.1-1,0.3-1.7,1.7-1.3c0.3,1.1,0.3,2.3,0.1,3.4c-1.1,11.3-0.2,22.4,5,32.8c0.7,1.4,1.6,2.7,2.5,4c1.9,2.4,4.6,4.1,7.5,4.7
		c0.8,0.2,1.5,0.4,2.2,0.7c-0.4,2.4-0.4,2.3-2.5,2.3c-2.1,0.1-4.1,0.9-5.6,2.3c-3.1,2.3-5.7,5.4-7.4,9c-2.9,6.1-5.2,12.3-5.5,19.1
		c-0.1,2.2-0.4,4.4-0.8,6.6C372.6,365.6,372.3,366.5,371.9,367.3z M374.1,343.5l0.6-1.3c1.6-3.6,3.1-7.1,5.8-10.1
		c2-2.3,4.4-4.2,7.1-5.7c-2.8-1.7-5.1-4.1-6.6-7.1c-1.3-2.5-2.5-5.2-3.4-7.9c-1-2.8-1.6-5.8-2.4-8.7c-0.1-1.5,0.3-3.1-0.6-4.4
		c-1.2,3.6-2.3,7.2-3.7,10.6c-2.6,6.2-5.3,12.5-11.7,16.2c7.8,5.4,11.9,12.9,13.3,22.2c0.4-0.5,0.5-0.6,0.6-0.7
		C373.5,345.6,373.8,344.6,374.1,343.5L374.1,343.5z"/>
	<path class="st4" d="M110.9,102.8c0.8,4.6,1.4,9.1,2.4,13.5c0.9,5,3.2,9.7,6.7,13.6c2.1,2.3,4.7,4,7.7,5c2,0.7,4,1.5,6,2.2
		c0.3,1.3,0,1.9-1.3,2.1c-1.7,0.3-3.4,0.8-5.1,1.3c-4.9,1.3-9.1,4.5-11.7,8.9c-3.8,5.7-5.9,12.3-6.1,19.1c-0.1,1.1-0.4,2.2-0.7,3.2
		c-1.1-0.9-1.8-2.2-1.9-3.6c-1-6.7-3.2-13.1-6.5-19c-2.8-4.7-6.2-8.9-11.1-11.7c-0.9-0.7-1.7-1.4-2.5-2.2c0.9-0.3,1.9-0.6,2.9-0.8
		c6.5-0.3,10.7-3.9,13.7-9.3c2.8-5,4.1-10.5,5.1-16.1c0.3-1.7,0.6-3.4,0.9-5.2C109.5,102.8,110.1,102.5,110.9,102.8z M108.1,158.4
		L108.1,158.4c0.1-0.2,0.3-0.5,0.4-0.8c1.6-3.3,3-6.7,4.9-9.8c2.5-4.5,6.7-7.8,11.7-9.3c0.5-0.2,1-0.4,1.5-0.6l-1.9-1
		c-2.5-1.2-4.7-2.9-6.6-5.1c-3.3-3.8-5.5-8.4-6.7-13.3c-0.4-1.6-0.7-3.2-1.1-4.9h-0.3c-0.2,1.1-0.4,2.2-0.7,3.2
		c-1.3,3.4-2.4,6.9-4,10.2c-2,4.5-5.9,7.9-10.6,9.5c-0.5,0.2-1,0.4-1.4,0.7c0.5,0.4,0.8,0.6,1,0.8c4.5,3.8,8.1,8.7,10.4,14.1
		c0.9,2.1,1.8,4.2,2.7,6.4l0.3,0.8L108.1,158.4z"/>
	<path class="st5" d="M333.4,81.2c-0.1,3.6-1.6,7.1-4.1,9.6c-1.8,1.9-4.5,2.6-7.1,2c-2.9-0.6-5.7-1.8-8.1-3.4
		c-4.5-2.9-9.8-4.4-15.1-4.5c-2.1-0.1-4.1-0.4-6.1-0.9c-7.5-1.6-10.3-10.4-6.9-16.4c1.9-3.6,5.1-6.3,8.9-7.6
		c6.5-2.1,13.3-2.9,20-0.6c9.5,3.2,15.8,9.6,18.3,19.5c0.1,0.4,0.2,0.8,0.3,1.2C333.4,80.4,333.4,80.8,333.4,81.2z M307.7,60.7
		c-3,0.4-6,0.7-9,1.3c-4.1,0.7-7.7,3-10,6.5c-2.8,4.1-1.2,10.5,4.1,12.1c1.9,0.6,3.9,0.9,5.9,1c5.9,0.1,11.7,1.8,16.8,4.8
		c2.1,1.2,4.4,2.2,6.7,3c2.5,0.9,4.6-0.1,6.1-2.1c1.9-2.5,2.6-5.7,1.9-8.8c-0.8-3.5-2.5-6.8-5-9.3C320.3,64.2,314.8,60.9,307.7,60.7
		L307.7,60.7z"/>
	<path class="st3" d="M127.4,186.6c-0.3-0.8-0.6-1.6-0.8-2.3c-0.7-2.7-1.5-5.4-2.4-8c-1.1-3-3.6-5.4-6.6-6.4
		c-1.9-0.6-2.1-1.8-0.5-2.8c3.7-2.3,5.6-5.8,6.7-9.8c0.5-1.8,0.7-3.7,1.1-5.6c0.1-0.5,0.2-1.1,0.3-1.6c0.1-0.9,0.7-1.2,1.5-1.2
		c1,0,1.1,0.7,1.2,1.5c0.2,3.1,0.9,6.1,2.1,9c1.3,3.1,3.5,5.8,6.4,7.5c0.4,0.2,0.9,0.3,1.4,0.4c0.4,0.7,0.2,1.6-0.5,2.1
		c-0.1,0-0.2,0.1-0.2,0.1c-5.5,2.8-7.1,7.8-7.9,13.4c-0.2,1.3-0.5,2.6-0.8,3.9L127.4,186.6z M125.8,158.3c-1.1,3.7-3,7-5.7,9.8
		c3.1,1.7,4.8,4.4,6.5,7.1l0.8,2.4c1.4-4.1,3.2-7.1,6.3-9.5c-4-2.8-5.7-7-7.3-11.6L125.8,158.3z"/>
	<path class="st3" d="M349.5,367.2c-0.3-0.7-0.5-1.3-0.6-2c-0.2-2-0.2-4.1-0.5-6.2c-0.3-1.7-0.8-3.4-1.5-5c-0.6-1.8-1.8-3.2-3.4-4.1
		c-0.6-0.5-1.2-1-1.8-1.5c0.8-0.5,1.3-0.8,1.9-1c5-2.7,7.5-7.2,9-12.4c0.2-0.7,0.3-1.4,0.5-2.1c0.4-1.7,0.4-1.7,2.8-1.6
		c0,0.6,0,1.2,0,1.7c-0.6,3.7-0.4,7.5,0.6,11.1c0.7,2.6,2.3,4.8,4.5,6.3c0.6,0.4,1.2,0.9,1.8,1.4c-0.3,1.3-1.2,1.5-2.1,1.5
		c-4-0.1-7.5,2.4-8.6,7.1c-0.4,1.4-0.5,2.8-0.9,4.2c-0.2,0.9-0.6,1.8-0.9,2.7L349.5,367.2z M350.2,356l0.3,0.8
		c1.4-2.9,4-5.1,7.1-5.9c-2.7-3.2-3.9-6.8-4.6-10.7l-0.6,1.2c-1.6,2.9-3.4,5.6-6.6,7.2C348.1,350.7,349.1,353.4,350.2,356L350.2,356
		z"/>
	<path class="st5" d="M181.5,53.9c1.7,0.4,3.4,1,5,1.7c3.9,2,3.5,8.4-0.2,10c-1.7,0.7-3.4,1.2-5.2,1.5c-2.1,0.2-4.1,0.8-5.9,1.7
		c-0.6,0.3-1.3,0.6-2,0.9c-1.9,0.9-4.1,0.5-5.6-1c-1.7-1.4-2.3-3.7-1.7-5.8c0.9-3.3,2.7-5.8,6.1-6.8C175,55.2,178.2,54.7,181.5,53.9
		z M178.8,57.1v0.5c-1.1,0-2.2,0-3.3,0c-3.1,0.2-5.8,2.1-6.9,5.1c-0.4,1.3-0.5,2.7,0.6,3.8s2.4,0.7,3.6,0.2c0.2-0.1,0.4-0.2,0.6-0.3
		c2.3-1.2,4.9-2,7.5-2.2c1.4-0.2,2.8-0.6,4.1-1.2c1.3-0.5,1.9-1.9,1.4-3.2c-0.3-0.8-1-1.4-1.8-1.5C182.7,57.7,180.8,57.5,178.8,57.1
		L178.8,57.1z"/>
	<path class="st6" d="M355.9,211.4l3.4-4.8c0.2,0.7,0.3,1.3,0.4,2c0.4,7.1,0.8,14.2,1.1,21.3c0.2,5.2,0.5,10.4,0.4,15.6
		s-0.7,10.5-1.1,15.7c-0.4,4.3-0.8,8.6-1.4,12.8c-0.7,4.7-1.5,9.4-2.3,14.1c-0.7,3.7-1.5,7.3-2.4,11c-1.6,6.3-3.7,12.5-6.3,18.5
		c-2.2,5.3-4.1,10.7-6.6,15.9c-3.1,6.4-7,12.4-11.6,17.8c-3.7,4.4-8,8.1-12,12c-5.1,4.9-11.2,8.1-17.5,11c-2.6,1.2-5.2,2.5-7.8,3.7
		c-6.7,3.3-13.9,4.7-21.2,5.7c-8.5,1.2-17,1.7-25.6,1.5c-3.6-0.1-7.3-0.7-10.9-1l-1-0.1h-0.1c0.3-1-0.5-1.2-1.1-1.6
		c-2.5-1.9-4.7-4.3-6.3-7.1c-1.5-2.8-3.2-5.5-5-8.1c-2.4-3.3-4.3-6.9-5.9-10.7c-3.6-8.4-6.4-17.2-8.3-26.1c-1.1-5.5-2.3-11-3.3-16.6
		c-0.8-4.1-1.4-8.3-2-12.5c-0.6-3.7-1.3-7.4-1.8-11c-0.4-3.3-0.7-6.6-1.1-9.9c-0.3-3-0.7-6-1-9c-0.4-3.6-0.9-7.2-1.3-10.9
		c-0.3-2.6-0.4-5.2-0.5-7.9c-0.2-4.7-0.4-9.4-0.4-14.1c0-2.9,1.2-5.4,4.4-6.4c0.6-0.3,1.2-0.7,1.8-1.1c2.1,0.2,4.3,0.3,6.4,0.5
		c4,0.4,7.9,1,11.9,1.3c5.7,0.4,11.4,0.9,17.2,1.1c5.5,0.2,11,0.1,16.5,0c5.2-0.1,10.3-0.8,15.5-0.8c8.2-0.2,16.4-1,24.5-2.3
		c4.6-0.7,9.3-1.1,14-1.7c0.4,0.2,0.8,0.4,1.3,0.5c2,0.4,4.1,0.6,6.1,1c4.3,0.9,8.4,2.8,11.8,5.5c4.9,4.2,8.6,9.5,10.9,15.5
		c2.2,5.6,3.8,11.3,4.7,17.2c0.7,4.5,1.4,8.9,2,13.4c0.4,2.7,0.7,5.4,1,8.1c1.5-3.4,2.8-7,3.8-10.6c1.8-6.4,3.1-12.8,3.9-19.4
		c0.6-4.9,1.5-9.8,1.4-14.7c0-0.4,0-0.8,0-1.2c0.5-4.2,1.2-8.4,1.3-12.5C356.1,225.3,355.9,218.4,355.9,211.4z M336.8,281.1
		c0.3-1.3,0.5-2.6,0.5-3.9c-0.2-3.2-0.6-6.5-1.3-9.6c-1.1-3.9-2.4-7.7-4-11.5c-1-2.4-2.3-4.7-3.8-6.9c-2.7-3.9-5.9-7.4-9.7-10.2
		c-2.9-2.2-6.1-3.9-9.8-3.9c-4.2,0-8.4,0.3-12.6,0.5c-1.4,0.1-2.8,0.2-4.3,0.5c-4,0.6-8,1.3-12,2c-0.7,0.1-1.6,0.1-2,1.4
		c19.1,11.7,35.9,26,49,43.8L336.8,281.1z M302,367.9c1.2-0.6,2.2-1.1,3.3-1.8c4.2-2.4,8.1-5.3,11.6-8.7c3.6-3.7,7.3-7.3,10.9-11
		c0.5-0.6,1-1.3,1.3-2c0.4-1.1-0.1-2.3-1-2.3c-2.2-0.1-4.3-0.5-6.1,1.5c-6.5,7-13.3,13.7-20,20.6C300.5,365.7,300.5,365.7,302,367.9
		z M330.2,291.1c0.7,1.3,1.2,2.5,1.9,3.6c0.5,0.9,1.1,1.7,1.8,2.5c1,1.1,2.1,1,2.6-0.4c1-2.5,1.7-5.1,0.9-7.8
		C334.6,288.6,332,288.4,330.2,291.1L330.2,291.1z M291.3,373.8c0.8-0.2,1.5-0.5,2.3-0.8c0.7-0.4,1.3-1,0.8-2
		c-0.4-0.9-1.5-1.3-2.4-1c0,0,0,0,0,0c-0.9,0.4-1.8,1-2.6,1.6c-0.5,0.3-0.6,1-0.2,1.5c0.1,0.2,0.3,0.3,0.6,0.4
		C290.2,373.7,290.7,373.8,291.3,373.8L291.3,373.8z"/>
	<path class="st7" d="M267.9,220.8c-3.3,0-6.7,0-10.2,0c-6.1,0-12.1,0.1-18.2-0.1c-4.9-0.1-9.7-0.4-14.6-0.9c-9.7-1-19.3-2.2-29-3.4
		c-2.1-0.3-4.3-0.7-6.4-0.9c-1.1-0.1-2.1-0.7-2.8-1.6c-4.6-4.9-7.7-11.1-9-17.7c-1.6-7.9,1.2-13.4,8.5-16.8c3.5-1.7,6.4-3.9,7.6-7.8
		c0.2-0.8,0.4-1.5,0.5-2.3c0.2-2.3,0.2-4.6,0.4-6.9c0.5-5.3,4.7-9.4,10-9.8c2.5,0,4.9,0.5,7.2,1.6c2.9,1.2,5.8,2.3,8.7,3.5
		c3.8,1.5,7.1,0.4,9.9-2.3c1.6-1.6,3-3.3,4.3-5.1c1.7-2.3,3.3-4.7,4.8-7.2c3.2-4.8,7.1-9.1,11.6-12.6c6.4-5.2,13.6-9.4,21.3-12.3
		c3.2-1.1,6.6-1.9,10-2.4c4.7-0.8,9.6-0.8,14.3-0.1c7.7,1.3,13.5,5.3,18.2,11.4c3.8,4.7,6.3,10.2,7.3,16.2c0.8,5.1,0.2,10.3-1.8,15
		c0,0.1-0.1,0.1-0.1,0.2c-5.8,8.8-13.4,14.7-24.5,13.9c-5.9-0.4-11.7-1.6-17.5-2.4c-7.1-1-14.3-1.5-21.5-0.2
		c-2.8,0.4-5.4,1.7-7.3,3.7c-1.8,1.7-2.2,4.5-0.9,6.6c1,2,2.8,3.6,5,4.2c2.7,0.8,5.6,1.4,8.4,1.8c5,0.6,10,0.9,15,1.4
		c4.4,0.4,8.6,1.7,12.5,3.7c2.7,1.5,4.7,4,5.6,6.9c0.5,1.2,0.3,2.6-0.5,3.6c-2.9,3.9-6.2,7.3-11,8.8c-1.5,0.5-3,1-4.5,1.5
		C273.3,214.1,271.3,215.7,267.9,220.8z"/>
	<path class="st8" d="M201.5,231.2c-0.5,0.4-1.1,0.8-1.8,1.1c-3.2,1-4.4,3.4-4.4,6.4c-0.1,4.7,0.2,9.4,0.4,14.1
		c0.1,2.6,0.3,5.2,0.5,7.9c0.4,3.6,0.9,7.2,1.3,10.9c0.4,3,0.7,6,1,9c0.4,3.3,0.6,6.6,1.1,9.9c0.5,3.7,1.2,7.4,1.8,11
		c0.7,4.1,1.3,8.3,2,12.5c1,5.5,2.2,11.1,3.3,16.6c1.9,9,4.7,17.7,8.3,26.1c1.6,3.8,3.6,7.4,6,10.7c1.8,2.6,3.5,5.3,5,8.1
		c1.6,2.7,3.8,5.1,6.3,7.1c0.5,0.4,1.3,0.7,1.1,1.6c-5.8-0.9-11.7-1.7-17.5-2.6c-8.4-1.3-16.6-3.6-24.3-7c-6-2.6-11.9-5.6-16.9-9.9
		c-3.3-2.9-6.3-6.1-9.5-9.1c-0.1-0.1-0.2-0.4-0.3-0.9l4.4-0.9c6.1-1.3,12.1-3.1,17.8-5.4c4.3-1.7,6.2-4.8,6.8-9
		c1.1-7.4-0.5-14.1-5.2-20c-1.7-2.1-4-3.7-6.6-4.7c-1.6-0.8-3.6-0.4-4.7,1c-6.5,6.6-14.6,8.8-23.6,8.1c-2.4-0.2-4.9-0.7-7.3-1.1
		c-1.3-0.2-2.4-1.1-2.8-2.3c-2.9-6.1-5.3-12.5-6.9-19.1c-1.9-7.7-3.6-15.5-5.3-23.3c-0.4-1.6-0.6-3.3-0.9-4.9
		c-0.1-0.9,0.2-1.8,0.9-2.4c3.6-4.2,8.9-6.5,14.4-6.4c3.7-0.1,7.5,0.5,11,1.7c2,1,4.3,0.6,5.9-1c0.6-0.5,1.3-1,2-1.3
		c2.8-1.3,4.2-3.7,5.3-6.5c2.3-5.4,2.9-11.4,1.8-17.1c-0.5-2.4-1.5-4.7-3.1-6.7c-2.7-3.2-7.1-4.2-10.9-2.6c-1.7,0.7-3.2,1.8-4.8,2.7
		c-0.6,0.4-1.2,0.6-1.9,0.6c-7.2-1.4-14.6-2.1-22-2.1c-0.5-4-0.5-8.1,0-12.2c0.5-5.4,1.3-10.8,1.8-16.1c0.2-3.7,2.6-7,6.1-8.4
		c0.2,1.2,0.4,2.5,0.5,3.7c0.1,3.7,2.1,6.6,4.5,9.1c3.7,4,8.2,7.3,13.1,9.7c0.6,0.4,1.1,0.8,1.5,1.3l-8.5-2.7l-2.7-1.2l-0.2,0.5
		l2,1.1c4.1,1.8,8,3.9,12.2,5.3c4.5,1.4,9.2,2.6,13.9,3.5c7.1,1.6,14.3,2.9,21.5,4.4C197,230.4,199.3,230.8,201.5,231.2z"/>
	<path class="st9" d="M231.2,442.2c-4.7-0.1-9.4-0.2-14.1-0.4c-2.4-0.1-4.8-0.4-7.1-0.6c-4.4-0.4-8.7-0.8-13.1-1.3
		c-10.9-1.2-21.9-2.6-32.7-4.6c-8.9-1.6-17.7-3.2-26.5-5.5c-10.1-2.5-19.8-6-29.2-10.6c-1.8-0.9-3.5-1.9-5.2-2.9
		c-3.9-2.4-7.2-5.9-9.3-10c-1.5-2.6-0.7-5.1,0.1-7.6c1.2-3.8,3.8-6.8,6.7-9.4c7-6.4,15.4-10.4,24.2-13.7c9.3-3.4,19-5.7,28.8-6.7
		c3.2-0.4,6.3-0.8,9.5-1c2.7-0.1,5.4,0.1,8.1,0.3c0.4,0,0.8,0.2,1.1,0.5c5.3,4.1,11.3,6.9,17.3,9.8c0.2,0.2,0.4,0.3,0.6,0.5
		c-0.9,1.5-1.7,3.1-2.5,4.6c-3.4,0.2-6.7,0.5-10,0.6c-13.6,0.6-27.1,3.2-40.1,7.6c-4.8,1.6-9.2,4.2-12.9,7.5
		c-2.6,2.2-2.8,5.5-0.7,8.4c2,2.4,4.5,4.3,7.4,5.6c8,3.9,16.3,6.8,25,8.7c11.2,2.6,22.5,4.5,33.9,5.8c7.7,0.9,15.4,1.7,23,2.4
		c5,0.5,10,0.8,15,1c7.5,0.4,15,0.6,22.4,0.9c-1.2,0.9-2.5,1.7-3.8,2.4c-4.9,2.3-9.8,4.4-14.7,6.7
		C232,441.6,231.6,441.9,231.2,442.2z"/>
	<path class="st8" d="M260.3,429c-2.2,0-4.4,0.1-6.7,0c-9.1-0.4-18.2-0.6-27.2-1.3c-12.7-1-25.4-2.3-38.1-3.6
		c-5.3-0.6-10.6-1.6-15.8-2.5c-10.1-1.5-20.1-3.9-29.7-7.2c-4-1.5-8-3.2-11.8-5.2c-1.5-0.9-2.8-2.1-3.8-3.6
		c-1.2-1.5-0.9-2.7,0.6-3.9c4.1-3.4,8.8-5.8,13.9-7.3c6.7-2,13.6-3.5,20.5-4.6c7.8-1.2,15.6-2.4,23.4-3.5c0.3,0,0.5,0.1,0.8,0.1
		c-0.4,1.1-0.9,2.1-1.3,3.1c-1.3,3.2-0.7,4.7,2.1,6.7c4.8,3.3,10.1,5.3,15.6,7.2c7.9,2.7,16,4.6,24.2,5.9c4.4,0.7,8.9,1,13.3,1.3
		c2.9,0.2,5.7,0.3,8.6,0.3c11.7-0.2,23.3-1.1,34.6-4c6.8-1.8,13.4-4.2,19.8-7.1c0.3-0.1,0.6-0.2,0.9-0.3c-0.9,1-1.8,2-2.8,2.9
		c-1.2,1.1-2.5,2-3.7,3c-2.6,2.2-5.1,4.6-7.9,6.5c-8.6,5.8-17.7,11.1-27,15.7C261.9,428,261.1,428.5,260.3,429z"/>
	<path class="st10" d="M231.2,442.2c0.4-0.4,0.8-0.7,1.2-1c4.9-2.2,9.8-4.4,14.7-6.7c1.3-0.7,2.6-1.5,3.8-2.4l7.2-0.1
		c6.9-0.1,13.7-0.2,20.6-0.3c6.7-0.2,13.3-0.9,19.9-2.1c13.5-2.3,26.9-5,40-9.2c5-1.6,10-3.4,14.9-5.2c2.5-0.9,4.8-2.3,6.7-4.1
		c3.5-3.2,3.6-7.8,0-10.8c-2.2-1.9-4.7-3.5-7.4-4.8c-7.6-3.5-15.7-5.8-24-7c-7.3-1.3-14.6-1.9-22-1.9l-4.2-8.5l11.5-7.5
		c1.2,1.4,2.9,1,4.4,1.4c4.3,1,8.7,1.8,13,2.7s8.5,1.9,12.7,3.1s8.4,2.3,12.5,3.7c4.3,1.3,8.4,2.9,12.5,4.7
		c5.5,2.6,10.6,5.9,15.2,9.9c3.9,3.3,7,7.1,8.2,12.2c0.5,1.8,0.3,3.7-0.6,5.3c-0.5,0.9-1.2,1.7-1.8,2.5c-0.4,0.6-0.7,1.3-1.1,2
		c-2.5,1.6-5.2,3.1-7.9,4.4c-7.2,2.9-14.4,5.8-21.7,8.2c-11.4,4.1-23.3,6.8-35.4,8.1c-9.3,0.9-18.6,1.7-27.8,2.5
		c-13.9,1.2-27.9,1.7-41.9,1.4c-5.8-0.1-11.5-0.1-17.3-0.2C235.2,442.6,233.2,442.4,231.2,442.2z"/>
	<path class="st8" d="M127.7,314.1c2.1,2.1,4.1,4.3,6.2,6.2c5.8,5.2,12.8,7.2,20.4,7.9c4.5,0.4,8.7-0.4,13-1.2
		c3.8-0.8,7.4-2.6,10.4-5.2c1.3-1,2.6-2.1,3.9-3.3c0.5,0.3,1.1,0.6,1.5,1c5.6,5.2,7.8,11.5,6.4,19c-0.3,1.1-0.7,2.1-1.1,3.1
		c-0.6,1.3-1.7,2.4-3.1,2.8c-9.3,3.7-19.3,5.8-29.3,6.1c-4-0.1-8-0.6-11.8-1.5c-5.2-1-10.1-2.9-14.7-5.6c-1.1-0.6-2.1-1.4-3.1-2.2
		c-3.6-3.3-7.3-6.5-10.1-10.5c-2-2.9-4.1-5.7-5.9-8.7c-2.9-4.6-4.5-9.9-6-15.1c-3-10-5-20.1-4.6-30.6c0.4-8.8,2.4-17.2,7.6-24.6
		c2.6-3.7,5.2-7.5,8.9-10.2c5.4-3.9,11.9-5.7,18.5-5c6,0.5,12.1,0.6,18.1,0.8c0.9-0.1,1.8-0.4,2.6-0.9c0.7-0.3,1.3-0.9,2-1.3
		c3.1-2,7.2-1.3,9.4,1.7c0.5,0.6,0.9,1.3,1.3,2c-1,2.1-2,4.3-3.1,6.4c-2.2,3.8-7,5-10.8,2.8c-0.9-0.5-1.9-0.9-2.9-1.1
		c-3.2-0.4-6.5-0.8-9.7-0.9c-2.5,0-4.9,0.2-7.4,0.5c-3,0.3-5.9,1.4-8.3,3.3c-3.1,2.4-5.9,5.1-8.4,8.2c-3.7,4.5-5.9,10.1-6.3,16
		c-0.3,3.7-0.8,7.4-0.2,11.2c0.6,3.1,0.5,6.4,1.3,9.4c1.3,5.1,3.1,10,4.8,15c1.1,3.4,3.1,6.3,5.8,8.6c1.1,0.9,2.3,2.5,3.9,1.5
		c1.6-1,1-2.8,0.6-4.4c0-0.1-0.1-0.1-0.2-0.2L127.7,314.1z"/>
	<path class="st11" d="M156.8,219.1c-0.5-0.5-1-0.9-1.5-1.3c-4.9-2.4-9.4-5.7-13.1-9.7c-2.4-2.6-4.4-5.4-4.5-9.1
		c-0.1-1.3-0.3-2.5-0.5-3.7l0,0l0.6,0.1c1.5,0.3,2.8-0.5,4.1-1c3.7-1.3,7.4-2.5,11.1-3.8c5.4-1.9,10.8-3.8,16.2-5.6
		c1.8-0.5,3.7-0.8,5.6-1.1l-1,3c-4.6,1.2-9,2.1-13.4,3.4c-3.3,1.1-6.4,2.3-9.5,3.8c-1.4,0.7-2.7,1.7-3.9,2.8c-2.1,1.8-2.5,4.9-1,7.2
		c1.5,2.7,3.8,4.8,6.6,6.1c8.7,4.3,18.2,7.1,27.8,8.2c5.2,0.7,10.4,1.8,15.6,2.4c9.1,1.2,18.2,2.1,27.3,3.3
		c14.1,1.9,28.4,1.2,42.6,1.1c6.6-0.1,13.2-0.8,19.7-1.9c12.1-1.9,24.2-4.1,36.2-6.5c5-1.1,9.9-2.5,14.6-4.3c3-1.3,5.9-2.8,8.7-4.5
		c2.1-1.2,2.9-3.4,3.2-5.6c0.2-1.9-0.5-3.9-2.1-5.1c-3-2.6-6.5-4.6-10.4-5.8c-9.2-3.1-18.7-5.3-28.3-6.7c-6.5-0.9-12.9-1.8-19.4-2.6
		c-3.6-0.4-7.3-0.6-11-0.9c-4.3-0.4-8.5-0.8-12.8-1.2c-2.9-0.2-5.7-0.4-8.6-0.6c-0.5,0-0.9-0.1-1.3-0.4c-0.6-0.6-1.3-1.4-1.3-2.1
		c0-1.1,1.1-1.6,2.1-1.9c0.3,0.2,0.6,0.5,1,0.6c2.2,0.4,4.4,0.7,6.6,0.9c4.4,0.3,8.8,0.3,13.1,0.5c2.6,0.1,5.2,0.3,7.8,0.5
		c3.5,0.4,7.1,0.9,10.6,1.4c3.7,0.5,7.4,0.9,11.1,1.6c7.4,1.6,14.8,3.2,22,5.2c7.5,2.1,15,4.3,21.6,8.6c1.9,1.2,3.5,2.8,4.7,4.6
		c0.5,0.7,0.7,1.6,0.7,2.4c-0.5,3.8-2.4,7.3-5.5,9.7c-3.2,2.6-6.7,4.8-10,7.3c-0.4,0.3-1.5,0.3-1.2,1.3c-0.6,0.3-1.3,0.5-2,0.8
		c-7.7,1.8-15.3,3.9-23,5.4c-6.9,1.4-14,2.2-21,3.3c-7.9,1.3-16,2-24,2.1c-3.7,0-7.3,0.4-11,0.5c-6.1,0.2-12.3,0.6-18.4,0.4
		c-8.4-0.3-16.7-1-25-1.9c-7.6-0.8-15.2-1.7-22.7-2.9C179.1,225.6,167.8,222.8,156.8,219.1z"/>
	<path class="st12" d="M260.3,429c0.8-0.5,1.6-1,2.5-1.5c9.3-4.6,18.4-9.9,27-15.7c2.8-1.9,5.3-4.3,7.9-6.5c1.2-1,2.5-1.9,3.7-3
		c1-0.9,1.8-1.9,2.8-2.9l1.9-1.8c4.5,0,9.1-0.1,13.6,0c2.5,0,4.9,0.2,7.4,0.5c3.9,0.6,7.8,1.7,11.7,2.2s7.4,2.5,10.8,4.2
		c2.6,1.3,3.5,2.9,1.6,6.3c-0.2,0.4-0.3,0.9-0.4,1.3l0,0l-1,0.4c-3.8,1.3-7.5,2.7-11.3,4c-9.5,3.1-19.3,5.7-29.1,7.7
		c-8.5,1.9-17.1,3.2-25.7,4.1c-4.5,0.4-9.1,0.4-13.6,0.6C266.9,429,263.6,429,260.3,429z"/>
	<path class="st13" d="M355.9,211.4c0,7,0.2,13.9,0,20.9c-0.1,4.2-0.8,8.4-1.3,12.5c0,0.4-0.1,0.8,0,1.2c0.1,5-0.8,9.8-1.4,14.7
		c-0.9,6.5-2.2,13-3.9,19.4c-1,3.6-2.2,7.2-3.8,10.6c-0.3-2.7-0.6-5.4-1-8.1c-0.7-4.5-1.3-9-2-13.4c-1-5.9-2.6-11.7-4.8-17.2
		c-2.3-6.1-6.1-11.4-11.1-15.6c-3.4-2.8-7.5-4.7-11.8-5.5c-2-0.5-4.1-0.7-6.1-1c-0.4-0.1-0.9-0.3-1.3-0.5c3.2-0.8,6.5-1.5,9.7-2.3
		c6.5-1.7,12.9-3.4,19.3-5.3c2-0.6,3.8-1.9,5.7-2.9l5.6-2.4c0.4,0,0.8,0.2,1.1,0C351.2,214.8,353.6,213.1,355.9,211.4z"/>
	<path class="st12" d="M230.4,388.4c5.3,0.5,10.6,1.1,15.9,1.5c2.8,0.1,5.6,0,8.3-0.2c3.7-0.2,7.5-0.4,11.2-0.7
		c10.8-0.9,21.3-2.8,30.9-8c0.2-0.1,0.4-0.2,0.7-0.2c0.4,1.7,0.8,3.4,1,5.1s0.2,3.7-1.5,5c-1.1,0.8-2.1,1.8-3.2,2.5
		c-5.5,3.7-11.4,6.7-17.6,8.9c-2.9,1-5.8,2-8.8,3c-5,0.4-9.9,1-14.9,1.1c-5.1,0.2-10.3-0.1-15.4-0.2c-0.8-0.1-1.6-0.2-2.4-0.4
		c-0.6-0.5-1.1-1.1-1.6-1.8c-1.4-1.8-2.6-3.7-3.8-5.7c-1.2-2.1-1.5-4.5-0.9-6.8C228.9,390.4,229.6,389.3,230.4,388.4z"/>
	<path class="st14" d="M96.4,418c8.7,5.4,18,9.6,27.8,12.6c11.7,3.9,23.8,6.7,36.1,8.4c5,0.6,9.9,1.8,14.9,2.4
		c6,0.8,12,1.2,18.1,1.9c4,0.5,8.1,1,12.1,1.5c3.2,0.4,6.3,0.7,9.5,0.9c7.1,0.4,14.2,0.6,21.3,0.9c0.4,0,0.8,0,1.2,0
		c12.5,0.1,24.9,0.3,37.4,0.3c5.2,0,10.3-0.5,15.5-0.8c5.4-0.3,10.8-0.7,16.2-1.1c6.4-0.5,12.8-1.2,19.3-1.9c12-1.3,23.8-4,35.1-8
		c7.3-2.5,14.5-5.4,21.6-8.4c3.6-1.5,6.9-3.6,10.5-5.5c-0.2,0.5-0.4,0.9-0.6,1.4c-1.4,2-3.3,3.7-5.5,4.9c-14,7-28.9,11.4-44,15.2
		c-11.1,2.8-22.3,4.7-33.6,5.9c-5.4,0.6-10.8,1.2-16.2,1.7c-8.8,0.8-17.7,1.2-26.5,0.9c-6.9-0.2-13.7-0.3-20.6-0.5
		c-4.9-0.2-9.9-0.5-14.8-0.8c-5.9-0.4-11.8-0.6-17.7-1.1c-6.6-0.5-13.2-1.2-19.8-1.7c-8.4-0.6-16.8-1.8-25.1-3.5
		c-11-2.2-22.1-4-32.9-7.3c-6.6-2-13.2-3.8-19.6-6.1c-4.6-1.7-9-3.6-13.3-5.8c-2.4-1.3-4.5-3.2-5.8-5.6
		C96.7,418.7,96.5,418.3,96.4,418z"/>
	<path class="st6" d="M127.7,315.2c0,0.1,0.1,0.1,0.2,0.2c0.4,1.6,0.9,3.4-0.6,4.4s-2.8-0.6-3.9-1.5c-2.7-2.3-4.7-5.3-5.8-8.6
		c-1.7-5-3.5-9.9-4.8-15c-0.8-3-0.8-6.3-1.3-9.4c-0.7-3.8-0.2-7.5,0.2-11.2c0.4-5.9,2.6-11.5,6.3-16c2.4-3,5.3-5.8,8.4-8.1
		c2.4-1.8,5.3-2.9,8.3-3.3c2.4-0.3,4.9-0.5,7.4-0.5c3.3,0.1,6.5,0.5,9.7,0.9c1,0.2,2,0.5,2.9,1.1c3.8,2.2,8.6,0.9,10.8-2.8
		c1.1-2.1,2.1-4.3,3.1-6.4l0.5,4.8c-0.3,0.9-0.7,1.7-1,2.6c-1,3.4-1.7,7-4.9,9.3c-0.7,0.5-1.4,1-2.1,1.6c-1.5,1.5-2.9,1.4-4.8,0.6
		c-5.3-2.6-11.3-3.2-16.9-1.8c-8.7,2.3-15,7.2-18.7,15.4c-2.4,5.2-3.1,10.9-3.4,16.5c-0.2,3.8,0.9,7.5,1.9,11.2
		c1.2,4.5,2.5,8.9,5,12.8C125,313.3,125.9,314.8,127.7,315.2z"/>
	<path class="st9" d="M230.4,388.4c-0.8,1-1.4,2-1.9,3.1c-0.7,2.3-0.3,4.8,0.9,6.8c1.1,2,2.4,3.9,3.8,5.7c0.5,0.6,1,1.2,1.6,1.8
		c-5-0.1-9.9-1.2-14.8-2.3c-8-1.7-15.7-4.1-23.2-7.3c-2.6-1.1-5-2.7-7.6-4.1c0.9-4.1,2.4-8,4.4-11.7c6.6,1.7,13,3.5,19.4,4.9
		c5.5,1.2,11.1,1.9,16.7,2.8C229.8,388.2,230,388.3,230.4,388.4z"/>
	<path class="st15" d="M336.5,208.1c-1.1-2.3-3.1-3.9-5.6-4.4c-5.4-1.3-10.8-2.6-16.3-3.7c-4.7-0.9-9.5-1.4-14.3-2.1
		c-1.4-6-5.8-10.8-11.7-12.8c0.5,0,1,0,1.6,0c10.5,1.4,21,2.6,31.3,5.3c5.3,1.4,10.8,2.4,15.7,4.9c2.3,1.2,4.5,2.6,6.6,4.2
		c1.3,0.9,1.5,1.9,0.6,3.3c-0.5,1-1.3,1.8-2.2,2.4C340.5,206.4,338.5,207.2,336.5,208.1z"/>
	<path class="st16" d="M347.8,216.4l-5.6,2.4l-4.3,1c-0.4-1.1,0.8-1,1.2-1.3c3.3-2.5,6.9-4.6,10-7.3c3-2.4,5-5.9,5.5-9.7
		c0-0.9-0.2-1.7-0.7-2.4c-1.2-1.9-2.8-3.5-4.7-4.6c-6.6-4.4-14.1-6.6-21.6-8.6c-7.3-2-14.7-3.6-22-5.2c-3.6-0.8-7.4-1.1-11.1-1.6
		c-3.5-0.5-7.1-1-10.6-1.4c-2.6-0.3-5.2-0.4-7.8-0.5c-4.4-0.2-8.8-0.3-13.1-0.5c-2.2-0.2-4.4-0.5-6.6-0.9c-0.4,0-0.7-0.4-1-0.6
		c3.8-1.4,7.8-1.4,11.7-1.4c7.2,0,14.2,1.5,21.3,2.6c3.7,0.6,7.4,0.8,11.2,0.8c2.9,0,5.9,0.4,8.7,1.2c11.9,2.9,23.8,6,35.6,9.2
		c2.8,0.9,5.5,2.1,8.1,3.4c2.7,1.3,4.7,3.8,5.2,6.7c0.6,2.3,0.8,4.7,0.7,7.1c0,0.9-0.3,1.7-0.8,2.4c-1.6,2-3.2,3.9-5,5.8
		C350.7,214.1,349.2,215.2,347.8,216.4z"/>
	<path class="st9" d="M350.8,412.3c0.1-0.4,0.2-0.9,0.4-1.3c2-3.4,1.1-4.9-1.6-6.3c-3.5-1.8-6.8-3.7-10.8-4.2s-7.8-1.5-11.7-2.2
		c-2.4-0.4-4.9-0.5-7.4-0.5c-4.5-0.1-9.1,0-13.6,0c1.9-2.1,2.2-4.7,1.9-7.7c1.3,0,2.6-0.1,3.8,0c7.5,0.5,15,1.4,22.4,2.9
		c6.7,1.4,13.3,3.3,19.3,6.7c2.1,1.2,3.9,2.8,5.2,4.8c1.6,2.5,0.6,4.1-1.3,5.1C355.3,410.7,353.1,411.5,350.8,412.3z"/>
	<path class="st16" d="M389.1,418.1c0.4-0.7,0.7-1.4,1.1-2c0.6-0.9,1.2-1.6,1.8-2.5c1-1.6,1.2-3.5,0.6-5.3
		c-1.2-5.1-4.3-8.9-8.2-12.2c-4.6-3.9-9.7-7.3-15.2-9.9c-4.1-1.8-8.2-3.4-12.5-4.7c-4.1-1.4-8.3-2.6-12.5-3.7s-8.5-2.1-12.7-3.1
		s-8.7-1.8-13-2.7c-1.5-0.3-3.3,0.1-4.4-1.4c1.4-1.5,3.1-1.8,5.2-1.6c9,1,17.5,3.9,26.3,6c10,2.5,19.7,5.8,29.1,9.9
		c5,2.2,10,4.6,14.2,8.3c2.9,2.6,5.1,5.9,6.5,9.6c1,2.8,0.8,5.8,0.3,8.7c-0.3,1.7-1.3,3.1-2.7,4
		C391.6,416.4,390.3,417.3,389.1,418.1z"/>
	<path class="st17" d="M127.7,315.2c-1.8-0.4-2.7-1.9-3.6-3.3c-2.6-3.9-3.9-8.4-5-12.8c-1-3.7-2.1-7.4-1.9-11.2
		c0.3-5.6,1-11.3,3.4-16.5c3.7-8.1,10-13.1,18.7-15.4c5.7-1.4,11.7-0.8,16.9,1.8c1.9,0.9,3.3,0.9,4.8-0.6c0.6-0.6,1.3-1.1,2.1-1.6
		c3.3-2.2,3.9-5.8,4.9-9.3c0.3-0.9,0.6-1.8,1-2.6c0.4,3.7-0.6,7.2-1.9,10.7c-1.1,3.2-2.7,5.9-5.8,7.3c-3.2-0.9-6.4-1.7-9.7-2.4
		c-7.8-1.1-14.8,0.5-20.9,5.8c-3.6,3.2-6.2,7.3-7.6,11.9c-1.5,5-2.3,10.1-2.4,15.3c-0.2,7.3,2.4,13.9,6.1,20l1,1.6L127.7,315.2z"/>
	<path class="st15" d="M156.4,207.6c-2.5-0.7-4.7-2-6.4-3.9c-1.9-2.1-1.8-3.7,0.3-5.5c0.7-0.6,1.5-1.2,2.4-1.6
		c3.6-1.9,7.4-3.4,11.3-4.4c3-0.7,6-1.5,8.9-2.2c0.4,3.6,0.8,7,1.1,10.5C167.9,202.1,161.4,202.8,156.4,207.6z"/>
	<path class="st0" d="M286.9,214c1.1-0.5,2.2-1,3.2-1.6c3.3-2.3,6.3-5.1,8.7-8.4c0.5-0.8,1.3-1.2,2.2-1.1c2,0.2,4.1,0.3,6.1,0.6
		c5.8,0.9,11.5,1.9,17.3,2.8c0.6,0.1,1.2,0.3,1.8,0.4c-1.2,0.6-2.4,1-3.7,1.4c-7.6,1.6-15.2,3.3-22.8,4.7c-3.5,0.7-7,1.1-10.6,1.5
		C288.4,214.4,287.6,214.3,286.9,214z"/>
	<path class="st18" d="M286.9,214c0.7,0.3,1.5,0.4,2.2,0.4c3.5-0.4,7.1-0.8,10.6-1.5c7.6-1.5,15.2-3.1,22.8-4.7
		c1.3-0.4,2.5-0.8,3.7-1.4c2.1,0.4,4.4,0.6,6.3,2.2c-1,0.9-2.2,1.4-3.5,1.5c-6.9,1.5-13.8,3-20.7,4.4c-2.7,0.6-5.4,1.1-8.2,1.6
		s-5.6,0.9-8.5,1.3c-2.4,0.4-4.7,0.7-7,1c-3.1,0.4-6.3,0.8-9.5,1.2c0.1-1.3,0.9-1.6,1.7-2c2.5-1.1,5-2.1,7.5-3.1
		C285.1,214.6,286,214.3,286.9,214z"/>
	<path class="st17" d="M267.3,405.2c2.9-1,5.8-2,8.8-3c6.2-2.2,12.2-5.1,17.6-8.9c1.1-0.8,2.1-1.7,3.2-2.5c1.7-1.3,1.7-3.2,1.5-5
		s-0.7-3.4-1-5.1l2-1.1c0.4,0.5,0.7,1.1,1,1.7c1,2.9,2.1,5.8,3,8.8c0.9,2.3-0.2,4.9-2.5,5.8c-2.2,1.3-4.5,2.3-6.9,3.2
		c-7.2,2.5-14.5,4.3-22,5.5C270.5,404.8,268.9,405,267.3,405.2z"/>
	<path class="st16" d="M174.8,183.8c-1.9,0.2-3.8,0.6-5.6,1.1c-5.4,1.8-10.8,3.8-16.2,5.6c-3.7,1.3-7.4,2.5-11.1,3.8
		c-1.4,0.4-2.6,1.3-4.1,1c0-0.2,0-0.3,0-0.5c2.8-1.5,5.5-3.2,8.4-4.5c9.5-4.3,19.6-7,29.7-9.6c0.3-0.1,0.6-0.1,0.9-0.1L174.8,183.8z
		"/>
	<path class="st18" d="M161.4,209.1c1.8-0.8,3.5-1.7,5.3-2.4c2.2-0.8,4.5-1.5,6.8-2.2c0.9-0.5,2-0.1,2.5,0.8c0,0.1,0.1,0.1,0.1,0.2
		c1.3,2.8,2.8,5.5,4.3,8.3c-6.4-0.9-12.7-2.3-18.9-4.2L161.4,209.1z"/>
	<path class="st8" d="M233.5,384.1l1,0.1L233.5,384.1z"/>
	<path class="st9" d="M349.8,412.7l1-0.4L349.8,412.7z"/>
	<path class="st8" d="M137.7,194.8c0,0.2,0,0.3,0,0.5l-0.6-0.1L137.7,194.8z"/>
	<path class="st19" d="M222.9,99.8c-0.2,6.4-2,10.9-7.1,13.7c-2.9,1.6-5.9,3.3-8.8,4.8c-3.4,1.8-6.3,4.4-8.4,7.6
		c-1.2,1.8-2.5,3.5-4,5c-1.8,1.9-3.4,1.9-5.6,0.5c-0.8-0.5-1.5-1.2-2.2-1.8c-4.1-3.8-9.6-6-15.2-6c-0.6,0-1.1-0.1-1.7-0.1
		c-5.2-0.3-8.3-3.3-10.3-7.8c-1.8-3.8-2-8.1-0.6-12.1c2.1-5.5,4.5-10.8,9.4-14.5c6.5-4.8,13.6-7.5,21.9-6.3c4.3,0.6,8.8,0.7,13,1.7
		c5,0.9,9.8,2.9,14.1,5.7C221.1,92.8,222.4,96.6,222.9,99.8z"/>
	<path class="st20" d="M375.2,302.7c0.8,2.9,1.4,5.9,2.4,8.7c0.9,2.7,2.1,5.3,3.4,7.9c1.5,2.9,3.8,5.4,6.6,7.1
		c-2.7,1.5-5.1,3.4-7.1,5.7c-2.6,3-4.2,6.6-5.8,10.1l-0.6,1.3c-1.8-6.7-4.1-13.1-8.8-18.4c1.1-1.5,2.2-2.8,3.2-4.2
		c2.8-4.4,4.8-9.4,5.7-14.5C374.5,305.1,374.9,303.9,375.2,302.7z"/>
	<path class="st21" d="M375.2,302.7c-0.3,1.2-0.7,2.4-1,3.6c-1,5.2-2.9,10.1-5.7,14.5c-1,1.4-2.1,2.8-3.2,4.2
		c4.7,5.3,7,11.7,8.8,18.4c-0.3,1.1-0.6,2.1-1,3.2c0,0.1-0.2,0.2-0.6,0.7c-1.5-9.3-5.5-16.8-13.3-22.2c6.4-3.8,9.1-10,11.7-16.2
		c1.4-3.5,2.5-7.1,3.7-10.6C375.5,299.6,375.1,301.2,375.2,302.7z"/>
	<path class="st20" d="M107.4,158.4c-0.9-2.1-1.7-4.3-2.7-6.4c-2.4-5.4-5.9-10.2-10.4-14.1c-0.2-0.2-0.5-0.4-1-0.8
		c0.5-0.3,0.9-0.5,1.4-0.7c4.7-1.6,8.5-5,10.5-9.5c1.6-3.3,2.7-6.8,4-10.2c0.4,2.7,0.7,5.3,1.3,8c0.7,3.8,2.1,7.3,4.1,10.6
		c0.7,0.9,0.7,2.2,0,3.1c-2.9,3.9-4.2,8.5-5.6,13.1c-0.5,2.2-0.9,4.5-1.1,6.8h0.1L107.4,158.4z"/>
	<path class="st21" d="M108,158.4c0.2-2.3,0.6-4.5,1.1-6.8c1.3-4.6,2.7-9.2,5.6-13.1c0.7-0.9,0.7-2.2,0-3.1c-2-3.3-3.4-6.9-4.1-10.6
		c-0.6-2.6-0.9-5.3-1.3-8c0.2-1.1,0.4-2.2,0.7-3.2h0.3c0.4,1.6,0.7,3.3,1.1,4.9c1.1,4.9,3.4,9.5,6.6,13.4c1.8,2.1,4.1,3.8,6.6,5.1
		l1.9,1c-0.5,0.2-1,0.4-1.5,0.6c-4.9,1.5-9.1,4.8-11.7,9.3c-1.9,3.1-3.3,6.6-4.9,9.8C108.3,157.9,108.2,158.1,108,158.4z"/>
	<path class="st21" d="M107.4,158.4h0.7l-0.4,0.8L107.4,158.4z"/>
	<path class="st22" d="M307.7,60.7c7.1,0.2,12.7,3.5,17.5,8.4c2.5,2.6,4.3,5.8,5,9.3c0.7,3.1,0.1,6.3-1.9,8.8c-1.5,2-3.6,3-6.1,2.1
		c-2.3-0.8-4.6-1.8-6.7-3c-5.1-3-10.9-4.7-16.8-4.8c-2-0.1-4-0.4-5.9-1c-5.4-1.5-6.9-8-4.1-12.1c2.3-3.4,5.9-5.7,10-6.5
		C301.6,61.4,304.7,61.2,307.7,60.7z"/>
	<path class="st20" d="M126.6,175.2c-1.7-2.7-3.4-5.4-6.5-7.1c2.7-2.7,4.6-6.1,5.7-9.8c1.1,2.8,2.2,5.6,3.3,8.4
		c0.3,0.6,0.4,1.2,0.3,1.8C128.5,170.8,127.5,173,126.6,175.2z"/>
	<path class="st21" d="M126.6,175.2c1-2.2,2-4.5,2.8-6.7c0.1-0.6,0-1.2-0.3-1.8c-1.1-2.8-2.2-5.6-3.3-8.4c0.1-0.5,0.3-1,0.5-1.9
		c1.6,4.7,3.3,8.8,7.3,11.6c-3,2.4-4.8,5.5-6.3,9.5L126.6,175.2z"/>
	<path class="st20" d="M350.2,356c-1-2.7-2-5.4-4.4-7.4c3.3-1.6,5.1-4.4,6.6-7.2c0.4,2.2,0.7,4.4,1.3,6.5c0.3,0.9,0.2,1.9-0.4,2.6
		C352.1,352.3,351.2,354.2,350.2,356z"/>
	<path class="st21" d="M350.2,356c1-1.9,2-3.8,3.1-5.6c0.6-0.7,0.7-1.7,0.4-2.6c-0.6-2.1-0.9-4.3-1.3-6.5l0.6-1.2
		c0.7,3.9,1.9,7.5,4.6,10.7c-3.1,0.8-5.7,3-7.1,5.9L350.2,356z"/>
	<path class="st22" d="M178.8,57.2c1.9,0.3,3.9,0.5,5.8,0.9c1.4,0.3,2.2,1.7,1.9,3c-0.2,0.8-0.8,1.5-1.5,1.8c-1.3,0.6-2.7,1-4.1,1.2
		c-2.6,0.2-5.2,1-7.5,2.2c-0.2,0.1-0.4,0.2-0.6,0.3c-1.2,0.5-2.5,0.9-3.6-0.2s-1-2.5-0.6-3.8c1.1-2.9,3.8-4.9,6.9-5.1
		c1.1,0,2.2,0,3.3,0L178.8,57.2z"/>
	<path class="st23" d="M336.8,281.1l-10,2.1c-13.1-17.7-29.9-32.1-49-43.8c0.4-1.3,1.4-1.3,2-1.4c4-0.7,8-1.4,12-2
		c1.4-0.2,2.8-0.4,4.3-0.5c4.2-0.2,8.4-0.5,12.6-0.5c3.7,0,6.9,1.7,9.8,3.9c3.7,2.9,7,6.3,9.6,10.2c1.5,2.2,2.8,4.5,3.8,6.9
		c1.6,3.7,2.9,7.6,4,11.5c0.7,3.2,1.1,6.4,1.3,9.6C337.2,278.5,337.1,279.8,336.8,281.1z"/>
	<path class="st24" d="M337.8,219.8l4.3-1c-1.9,1-3.7,2.3-5.7,2.9c-6.4,1.9-12.9,3.6-19.3,5.3c-3.2,0.9-6.5,1.6-9.7,2.3
		c-4.6,0.6-9.3,1-14,1.7c-8.1,1.3-16.3,2.1-24.5,2.3c-5.2,0-10.3,0.6-15.5,0.8c-5.5,0.1-11,0.2-16.5,0c-5.7-0.2-11.4-0.6-17.2-1.1
		c-4-0.3-7.9-0.9-11.9-1.3c-2.1-0.2-4.3-0.4-6.4-0.5c-2.3-0.4-4.5-0.8-6.7-1.3c-7.2-1.4-14.3-2.8-21.5-4.4
		c-4.7-0.9-9.3-2.1-13.9-3.5c-4.2-1.4-8.2-3.5-12.2-5.3l1-0.4l8.5,2.7c11,3.8,22.3,6.5,33.9,8.3c7.6,1.2,15.1,2.1,22.7,2.9
		c8.3,0.8,16.6,1.5,25,1.9c6.1,0.2,12.3-0.2,18.4-0.4c3.7-0.1,7.3-0.5,11-0.5c8-0.1,16.1-0.8,24-2.1c7-1.1,14.1-1.9,21-3.3
		c7.7-1.5,15.4-3.6,23-5.4C336.5,220.3,337.2,220.1,337.8,219.8z"/>
	<path class="st23" d="M302,367.9c-1.4-2.2-1.5-2.2-0.1-3.6c6.7-6.9,13.4-13.6,20-20.6c1.9-2,4-1.6,6.1-1.5c0.9,0,1.4,1.2,1,2.3
		c-0.3,0.7-0.7,1.4-1.3,2c-3.6,3.7-7.3,7.3-10.9,11c-3.5,3.4-7.4,6.3-11.6,8.7C304.2,366.8,303.1,367.3,302,367.9z"/>
	<path class="st23" d="M330.2,291.1c1.8-2.6,4.5-2.5,7.3-2.1c0.8,2.8,0.1,5.4-0.9,7.8c-0.5,1.3-1.6,1.4-2.6,0.4
		c-0.7-0.8-1.3-1.6-1.8-2.5C331.4,293.5,330.8,292.3,330.2,291.1z"/>
	<path class="st23" d="M291.3,373.8c-0.5,0-1.1-0.1-1.6-0.3c-0.6-0.2-0.9-0.7-0.7-1.3c0.1-0.2,0.2-0.4,0.4-0.6
		c0.8-0.6,1.7-1.2,2.6-1.6c0.9-0.4,2,0,2.4,0.9c0,0,0,0,0,0c0.5,1-0.2,1.6-0.8,2C292.8,373.4,292,373.6,291.3,373.8z"/>
	<path class="st0" d="M148.2,216.4l-1,0.4l-2-1.1l0.2-0.5L148.2,216.4z"/>
</g>
</svg>
