<?xml version="1.0" encoding="utf-8"?>
<!-- Generator: Adobe Illustrator 24.1.2, SVG Export Plug-In . SVG Version: 6.00 Build 0)  -->
<svg version="1.1" xmlns="http://www.w3.org/2000/svg" xmlns:xlink="http://www.w3.org/1999/xlink" x="0px" y="0px"
	 viewBox="0 0 491.8 491.8" style="enable-background:new 0 0 491.8 491.8;" xml:space="preserve">
<style type="text/css">
	.st0{fill:#121D43;}
	.st1{fill:#140A2A;}
	.st2{fill:#152957;}
	.st3{fill:#68473B;}
	.st4{fill:#7A664C;}
	.st5{fill:#67463A;}
	.st6{fill:#66453A;}
	.st7{fill:#92517A;}
	.st8{fill:#9284BC;}
	.st9{fill:#130A2B;}
	.st10{fill:#2D72BA;}
	.st11{fill:#140B2C;}
	.st12{fill:#9786BF;}
	.st13{fill:#93527A;}
	.st14{fill:#A490BF;}
	.st15{fill:#33489F;}
	.st16{fill:#2C327B;}
	.st17{fill:#150B2E;}
	.st18{fill:#150C2F;}
	.st19{fill:#4787D8;}
	.st20{fill:#140C2F;}
	.st21{fill:#AB749D;}
	.st22{fill:#A29CCE;}
	.st23{fill:#ADA0D2;}
	.st24{fill:#A686B3;}
	.st25{fill:#AC769F;}
	.st26{fill:#AC9DCE;}
</style>
<g id="Layer_1">
	<path class="st0" d="M454.1,229.4c-1.2-6.5-2.7-12.9-4.1-19.4c-2.4-11.7-6.3-22.9-11.8-33.5c-3.9-7.4-8.4-14.5-13.4-21.2
		c-2.7-3.7-5.4-7.3-9-10.2c-9.1-7.3-19.2-13.2-30.1-17.4c-1.9-0.8-3.9-1.4-5.8-2.3c-14.1-6.7-28.9-9.7-44.6-8
		c-10.3,1.1-20.2,4-29.5,8.6c-16.1,8.1-28.8,20-38.8,34.8c-3.5,5.2-6.6,10.8-9.1,16.6c-0.5,1.1-0.9,2.1-2.5,2
		c-4.3-0.3-8.6-0.3-12.9-0.4c-3.2,0-6.4,0-9.6,0c-0.3-2.5-0.6-4.7-0.8-7c-0.5-4.3-0.7-8.6-1.6-12.8c-1.8-8.6-4.2-17-7.3-25.2
		c-4-10.8-9.7-20.8-16.2-30.3c-1.4-2.2-3.4-4.1-5.6-5.4c-2.8-1.6-5.7-3.2-8.6-4.7c-2.1-1.2-4.4-2.3-6.7-3.2
		c-5.1-1.9-10.8-1.8-15.9,0.3c-4.8,2.1-9.3,5.1-13,8.8c-8,7.5-14.1,16.5-19.2,26.1c-8.3,15.7-14.2,32.4-19.3,49.4
		c-0.7,2.2-1.5,4.3-2.2,6.5c-0.8,0-1.3,0.1-1.9,0c-3.5-0.3-7-0.7-10.5-1c-1.6-0.2-3.3-0.2-5-0.2c-2.5-0.2-4.9-0.2-7.4-0.2
		c-4.8,0.5-9.5,1.3-14.2,1.9c-7.1,0.9-13.7,3.6-20.1,6.8c-3.8,1.9-6.6,4.9-7.3,9.3c-0.7,3.8-0.4,7.7,0.9,11.3
		c1.6,4.4,3.7,8.5,6.3,12.3c8.3,11.7,17.7,22.5,28.3,32.1c0.8,0.7,1.1,1.7,0.9,2.7c-0.5,4.3-1,8.7-1.4,13c-0.3,3-0.4,6.1-0.5,9.1
		c-0.3,5.3-0.8,10.5-0.8,15.8c-0.1,7.2,0.1,14.4,0.3,21.6c0.1,3.3,0.2,6.5,0.6,9.8c0.5,5.6,1.5,11.1,2.8,16.5
		c1,3.7,2.7,7.1,4.9,10.2c2.3,3.2,5.6,4.9,9.3,6c5.9,1.9,12.1,3,18.3,3.3c6.3,0.4,12.5-1.6,17.3-5.6c2.1-1.7,4.1-3.6,6-5.5
		c4-4.4,8.1-8.8,11.8-13.5c3.6-4.5,6.9-9.2,10.3-13.8c0.5-0.6,0.9-1.1,1.5-1.7c5.8,12.8,11.9,24.9,20.6,35.6c3,3.9,6.1,7.6,9.5,11.1
		c6,6.1,13.2,10.9,21,14.3c6,2.6,12.1,4.4,18.8,4.1c1.8-0.1,3.5-0.3,5.3-0.3c7-0.1,13.7-2.8,18.9-7.5c0.4-0.4,0.8-0.8,1.1-1.2
		c3.6-5.5,6.5-11.5,8.6-17.8c0.8-2.6,1.7-5.3,2.6-8.1c0.3,0.2,0.6,0.4,0.8,0.6c11.2,12.9,25.3,22.9,41.2,29.2
		c7.2,2.8,14.7,4.1,22.3,4.8c6.7,0.6,13.4,0.5,20-0.5c3.1-0.5,6.1-1.1,9.2-1.6c8.5-1,16.7-3.4,24.5-7c7.1-3.4,13.5-7.9,19.2-13.3
		c2.6-2.5,5.3-5.1,7.8-7.8c5.9-6.6,11-13.9,15.3-21.7c3.9-6.8,7.3-13.8,10.1-21.1c1.2-3,2.2-6.1,3.4-9.2c2.6-7,4.5-14.3,5.7-21.7
		c1.5-9.8,2.2-19.7,2-29.5c0-1.2,0-2.4,0.1-3.6C455.6,242.6,455.3,236,454.1,229.4z"/>
</g>
<g id="Layer_1_copy">
	<g id="Frame2_1_">
		<path class="st1" d="M233,178.9c3.2,0,6.4,0,9.6,0c4.3,0.1,8.6,0.1,12.9,0.4c1.6,0.1,2-0.9,2.5-2c2.5-5.8,5.6-11.3,9.1-16.6
			c10-14.8,22.7-26.8,38.8-34.8c9.2-4.6,19.2-7.5,29.5-8.6c15.7-1.7,30.5,1.3,44.6,8c1.9,0.9,3.8,1.6,5.8,2.3
			c10.9,4.2,21,10.1,30.1,17.4c3.6,2.9,6.3,6.6,9,10.2c5,6.7,9.5,13.8,13.4,21.2c5.4,10.6,9.4,21.9,11.8,33.5
			c1.4,6.4,2.9,12.9,4.1,19.4c1.2,6.5,1.5,13.2,0.9,19.8c-0.1,1.2-0.1,2.4-0.1,3.6c0.2,9.9-0.5,19.8-2,29.5
			c-1.2,7.4-3.1,14.6-5.7,21.6c-1.1,3.1-2.2,6.1-3.4,9.2c-2.9,7.3-6.3,14.3-10.1,21.1c-4.2,7.8-9.3,15.1-15.3,21.7
			c-2.5,2.7-5.2,5.2-7.8,7.8c-5.6,5.5-12.1,10-19.2,13.3c-7.7,3.6-16,6-24.5,7c-3.1,0.4-6.1,1.1-9.2,1.6c-6.6,1-13.3,1.1-20,0.5
			c-7.6-0.7-15.2-1.9-22.4-4.8c-15.8-6.3-30-16.3-41.2-29.2c-0.2-0.2-0.5-0.4-0.8-0.6c-0.9,2.8-1.8,5.4-2.6,8.1
			c-2.1,6.3-5,12.3-8.6,17.8c-0.3,0.5-0.7,0.9-1.1,1.2c-5.2,4.8-11.9,7.4-18.9,7.5c-1.8,0-3.5,0.2-5.3,0.3
			c-6.6,0.3-12.8-1.5-18.8-4.1c-7.8-3.4-15-8.3-21-14.3c-3.4-3.5-6.5-7.2-9.5-11.1c-8.7-10.7-14.8-22.8-20.6-35.6
			c-0.5,0.6-1,1.1-1.5,1.7c-3.4,4.6-6.7,9.3-10.3,13.8c-3.8,4.6-7.8,9.1-11.8,13.5c-1.9,2-3.9,3.8-6,5.5c-4.8,4.1-11,6.1-17.3,5.6
			c-6.2-0.3-12.4-1.4-18.3-3.3c-3.6-1.1-7-2.9-9.3-6c-2.2-3.1-3.9-6.5-4.9-10.2c-1.3-5.4-2.3-10.9-2.8-16.5
			c-0.4-3.2-0.5-6.5-0.6-9.8c-0.2-7.2-0.4-14.4-0.3-21.6c0-5.3,0.5-10.5,0.8-15.8c0.2-3,0.2-6,0.5-9.1c0.4-4.4,0.9-8.7,1.4-13
			c0.2-1-0.1-2-0.9-2.7c-10.5-9.7-20-20.4-28.3-32.1c-2.6-3.8-4.7-8-6.3-12.3c-1.3-3.6-1.6-7.5-0.9-11.3c0.7-4.3,3.4-7.3,7.3-9.3
			c6.4-3.2,12.9-5.8,20.1-6.8c4.7-0.6,9.5-1.4,14.2-1.9c2.5-0.1,4.9,0,7.4,0.1c1.7,0,3.4,0,5,0.2c3.5,0.3,7,0.7,10.4,1
			c0.6,0.1,1.1,0,1.9,0c0.7-2.1,1.6-4.3,2.2-6.5c5.1-17,11-33.7,19.3-49.4c5.1-9.6,11.2-18.6,19.2-26.1c3.7-3.7,8.2-6.7,13-8.8
			c5.1-2.1,10.7-2.3,15.9-0.3c2.3,0.9,4.5,2,6.7,3.2c2.9,1.5,5.8,3.1,8.6,4.7c2.3,1.3,4.2,3.2,5.6,5.4c6.4,9.6,12.1,19.5,16.2,30.3
			c3,8.2,5.5,16.6,7.3,25.2c0.9,4.2,1.1,8.5,1.6,12.8C232.4,174.1,232.7,176.4,233,178.9z M357.5,252.3L357.5,252.3l-0.5-0.5l0,0
			l-0.5-0.5l0,0l-0.5-0.5l0,0l-0.5-0.5l0,0l-0.5-0.5l0,0l-0.5-0.5l0,0c-2.8-2.8-5.5-5.5-8.3-8.3c-0.3-0.2-0.5-0.3-0.8-0.4l0,0
			l-0.5-0.5l0,0l-0.5-0.5l0,0l-0.5-0.5l0,0l-0.5-0.5l0,0l-0.5-0.5l0,0c-6-6.1-12-12.2-18.1-18.4c-1.2-1.2-2.5-2.4-4-3.8
			c0,2.5,1.5,3.6,2.7,4.9l0.7,0.8v0.1l0.4,0.4l0.1,0.1l0.4,0.5l2.2,2.4c0.3,0.5,0.6,1.1,1,1.6c2.4,2.6,4.9,5.2,7.4,7.8
			c5.2,5.5,10.5,10.9,15.7,16.4c3.8,4.2,8.1,8.1,12.7,11.5c0.7,0.5,1.4,0.9,2.6,1.6c-0.1-2.6-1.6-4-2.8-5.5l-0.6-0.5l0,0l-0.5-0.5
			l0,0l-0.5-0.5l0,0l-0.5-0.5l0,0l-0.5-0.5l0,0l-0.5-0.5l0,0l-1-1l0,0l-0.5-0.5l0,0l-0.5-0.5l0,0l-0.5-0.5l0,0l-0.5-0.5l0,0
			L357.5,252.3z M205.3,108.4l1.9,3.8c0.1,0.4,0.3,0.9,0.5,1.3c1.9,4.4,4,8.7,5.6,13.2c3.6,10.1,6.8,20.4,8.6,31
			c0.8,4.7,1.5,9.4,2.2,14.1c0.4,3.1,0.6,6.3,1,9.5c0.2,0.7,0.4,1.4,0.8,2c1.5-1.4,2.7-2.6,3.8-3.6c-0.4-2.8-0.9-5.3-1.2-7.8
			c-0.6-5.2-0.9-10.4-2.4-15.5c-1.7-5.7-3.1-11.5-4.9-17.2c-2.2-7-5.5-13.6-9-20.1c-1.4-2.5-2.9-4.9-4.4-7.4L205.3,108.4
			c-0.3-1.8-1.4-3.3-3.1-4L205.3,108.4z M364.1,131c0.7,0.3,1.4,0.7,2.2,0.9c7.4,2.6,14.5,5.9,21.3,9.8c9.5,5.4,17.9,12.7,24.5,21.4
			c3.8,5.2,7.3,10.6,10.5,16.3c4.2,7.5,7.8,15.2,9.7,23.6c2.4,9.8,4,19.8,4.9,29.9c0.5,6,1.1,12,1.4,18.1
			c0.5,10.2-0.1,20.4-1.9,30.5c-1.1,6.6-2.7,13.1-4.8,19.5c-3.6,10.5-8.6,20.5-14.6,29.8c-4.9,7.6-10.6,14.6-17.1,20.8
			c-2.1,2-4.2,4-6.3,5.8c-7.4,6.4-15.3,12-24.5,15.5c-8.3,3.2-16.9,5.2-25.9,5c-3.3-0.1-6.7-0.5-10-0.9c-6.3-0.7-12.4-2.5-18-5.3
			c-10.2-5.1-19.5-11.7-27.6-19.6c-3.1-3-6.2-6.2-9.3-9.3c-0.8-0.8-1.5-1.8-2.7-3.1c-0.3,2.5-0.7,4.5-0.8,6.4c0.1,0.8,0.5,1.5,1.1,2
			c2.2,2.5,4.4,5,6.9,7.3c3.9,3.6,7.6,7.3,12,10.2c4.9,3.5,10,6.5,15.4,9.2c9.4,4.3,19.4,6.1,29.6,6.9c5.9,0.5,11.8,0.2,17.6-0.7
			c8.8-1.5,17.3-4.5,25.2-8.8c12.2-6.7,22.3-15.9,30.9-26.9c8.8-11.4,15.7-24.1,20.4-37.8c5.3-15.1,8.4-31,9.1-47
			c0.3-7.7,0.1-15.5-0.5-23.2c-0.6-6.4-1.5-12.8-2.8-19.1c-1.3-7.2-3.3-14.3-5.9-21.1c-1.8-4.8-3.8-9.5-5.8-14.1
			c-2.7-6.1-6.1-12-10-17.4c-2.9-4.2-6.1-8.2-9.5-12c-3.8-4.2-7.8-8.2-12.1-11.9c-7.1-6-15.1-10.7-23.8-14.1
			c-8.1-3.3-16.8-5.3-25.5-5.7c-6.4-0.4-12.8,0.1-19,1.5c-15.3,3.2-28.6,10.4-40.2,20.7c-10.1,8.9-18.1,19.5-24.9,31.1
			c-0.8,1.4-1.6,2.9-2.5,4.5c0.7,0.1,1.4,0.2,2.1,0.4c1.3,0.4,1.8-0.1,2.3-1.2c0.9-2.2,2.1-4.3,3.5-6.3c4.5-5.8,9.1-11.5,13.9-17.1
			c3.5-4.2,8-7.4,12.4-10.5c6.4-4.7,13.4-8.4,20.8-11.2c9.1-3.3,18.6-4.4,28.2-4.7c2.2-0.1,4.5,0,6.7,0
			C355.1,128.9,359.7,129.6,364.1,131z M183.7,94.1c-2.4-0.9-5.1-1-7.6-0.4c-6.1,1.3-11.1,4.7-15.6,8.9c-6,5.7-10.5,12.7-15.1,19.4
			c-1.9,2.8-3.6,5.7-5,8.7c-5.3,11.1-9.5,22.6-13.8,34.1c-2.1,5.7-3.8,11.5-5.8,17.2c-0.4,1.3-1.1,2.6-1.6,3.8c-1,0-1.6,0.1-2.2,0
			c-4.7-0.4-9.3-0.9-14-1.3c-2.3-0.2-4.6-0.4-6.9-0.4c-2.9,0-5.7,0.2-8.6,0.6c-3.8,0.5-7.6,1.1-11.3,1.8c-5.9,1-11.6,3-16.9,5.8
			c-2.6,1.2-4.4,3.6-4.8,6.4c-0.4,2.6-0.2,5.3,0.6,7.8c1.3,4.4,3.4,8.5,6.1,12.1c3,4,6.2,7.9,9.3,11.9c5.9,7.3,12.3,14.1,19.3,20.3
			c0.6,0.5,1,1.3,0.9,2.1c-0.2,1.5-0.3,3-0.5,4.5c-0.5,6-1,12.1-1.4,18.1c-0.3,5.2-0.5,10.4-0.5,15.5c0,5.8,0.2,11.6,0.4,17.5
			c0.1,3.4,0.5,6.8,0.4,10.3c0,5.2,0.6,10.3,1.6,15.4c0.5,3,1.5,5.8,2.3,8.7c0.8,1.8,1.6,3.6,2.5,5.4c2.1,4,5.9,5.6,10,6.1
			c4.2,0.3,8.3-0.2,12.3-1.5c8.5-2.5,14.9-8.1,20.7-14.5c3.1-3.5,6.1-6.9,9.1-10.4c3.8-4.5,7.7-9,11.3-13.6c1.9-2.4,3.4-5.2,5.1-7.7
			c2,0.1,2.1,0.3,2.4,1.9c0.2,1.2,0.5,2.3,0.9,3.5c2.9,7.2,5.3,14.5,9.7,21c4.6,6.9,8.2,14.4,13.6,20.8c4.3,5.1,8.4,10.5,13.6,14.8
			c6.3,5.2,13.6,9.1,21.3,11.6c6,2,12,2.4,18-0.2c2.7-1,5.1-2.7,6.9-4.9c2.6-3.3,4.7-6.9,6.2-10.7c2.3-5.7,3.9-11.6,4.9-17.7
			c0.7-4,0.9-8.1,1.5-12.1c0.8-6.5,1.3-13,1.3-19.5c0.2-10.8,0.1-21.6,0-32.4c-0.1-1.9,0.7-3.6,2.1-4.8c2-1.7,4-3.5,5.8-5.3
			c4-4.1,8-8.2,12-12.4c6-6.2,11.2-13.1,15.7-20.5c2.7-4.5,5.3-9.1,6.5-14.1c1.8-7.6,0.7-14.6-5.9-20.1c-4.6-3.9-10-6.7-15.8-8.2
			c-6.9-1.8-13.9-3.3-20.9-4.8c-6.9-1.4-13.9-2.1-20.9-2c-5.8,0.1-11.7,0-17.5,0c-2.9,0-3.4-0.6-3.6-3.5c-0.4-4.9-0.9-9.8-1.6-14.7
			c-0.8-5.3-1.8-10.5-2.8-15.7c-1.7-8.4-4-16.6-6.9-24.6c-2-5.6-4.3-11.2-6.7-16.6c-3-6.9-7.6-13-13.4-17.8
			C188.4,95.8,186.2,94.7,183.7,94.1z M316.2,201.5c0.1,0.4,0.3,0.9,0.4,1.4c1.2,3.1,2.4,6.2,3.7,9.3c0.5,1.1,1.1,2,2,2.9
			c2.7,2.6,5.6,4.9,8.3,7.5c6,5.8,12,11.6,18,17.5c5,4.9,9.9,9.8,14.7,14.8c1.8,1.9,3.4,4,4.8,6.2c1.2,2,1,3.7-0.1,4.6
			s-2.8,0.8-4.6-0.6c-3-2.2-5.8-4.5-8.5-7c-5.1-5-9.9-10.2-14.9-15.3c-0.2-0.2-0.3-0.3-0.5-0.5c-3.6-4.1-7.2-8.1-10.8-12.2
			c-1.6-1.8-3.1-3.6-4.6-5.4c-1-1.2-2-2.3-3.2-3.8c-0.3,1-0.4,1.4-0.5,1.8s-0.2,0.9-0.3,1.4c-2,8.3-5.8,15.7-10.4,22.7
			c-4.8,7.2-10.2,14-16.1,20.4c-5,5.6-10.5,10.7-16.3,15.5c-1,0.6-1.5,1.7-1.5,2.9c0.3,2.8,0.7,5.5,1,8.3c0.3,3.4,0.8,6.8,0.9,10.2
			c0.1,5.8,0,11.7,0,17.5c0,0.6,0,1.3,0,1.9c-0.4,3.8-1,7.5-1.3,11.3c-0.1,0.8,0.1,1.6,0.6,2.2c1.3,1.6,2.7,3.1,4.1,4.7
			c4.7,4.8,9.7,9.3,14.9,13.5c5.7,4.8,11.9,9,18.5,12.6c8.7,4.8,18.3,6.3,28,6.9c4.4,0.2,8.8-0.2,13.1-1c2.7-0.4,5.4-1.1,8-2.1
			c4-1.7,8-3.6,11.9-5.6c6.3-3.3,11.7-7.9,17-12.6c3-2.6,5.6-5.6,8.5-8.4c3.8-3.7,6.8-8,9.9-12.2c9.1-13,15.9-27.3,20.3-42.5
			c2.8-10.2,4.2-20.8,4-31.4c0-1.7-0.3-3.5-0.4-5.2c-0.2-3.6-0.2-7.2-0.5-10.7c-0.4-5.1-0.8-10.3-1.4-15.4
			c-0.7-5.6-1.5-11.2-2.4-16.7c-1.2-7.9-3.7-15.5-7.4-22.6c-2.3-4.3-4.5-8.6-6.9-12.8c-3.1-5.4-6.8-10.4-10.9-15.1
			c-3.4-4-7.3-7.6-11.6-10.7c-3.6-2.7-7.5-5.1-11.6-7.1c-0.3-0.3-0.6-0.5-0.9-0.7c-4.5-2.1-9-4.4-13.7-6.3
			c-6.1-2.5-12.7-3.7-19.3-3.5c-1.6,0.1-3.2,0.4-4.7,0.4c-4.4,0.2-8.9,0.6-13.3,1.4c-7.8,1.1-15.4,3.5-22.4,7.1
			c-9.1,4.7-17.3,10.9-24.2,18.4c-4.4,4.7-8.5,9.7-12.4,14.9c-1.4,2-2.5,4.2-3.3,6.5c2.4,0.3,4.5,0.5,6.6,0.9c6,1.1,12,2.6,17.7,4.7
			c4.8,1.6,9.4,3.7,13.7,6.2c3.8,2.4,7.5,4.8,10,8.7C315.7,201.3,316,201.4,316.2,201.5z M402.2,139.6l-0.4,0.4c1,0.8,2,1.7,3,2.6
			c3.8,4,7.7,7.9,11.1,12.2c7.9,10,14.4,21,19.2,32.8c4,9.5,7,19.3,8.9,29.4c1.3,6.7,2.3,13.5,3,20.3c0.4,4.8,0.6,9.5,0.6,14.3
			c0,5.3,0,10.7-0.6,16c-0.6,6.2-1.6,12.5-2.8,18.6c-2.4,12.8-6.4,25.2-12,37c-4.6,10.1-10.5,19.6-17.5,28.2
			c-5.2,6.4-11.1,12.1-17.6,17.2c-0.9,0.6-1.7,1.3-2.5,2c0.7,0,1.4-0.3,2-0.7c6-3.5,10.9-8.4,15.8-13.1c2.9-2.9,5.6-6.1,8.1-9.4
			c5.1-6.6,9.8-13.4,13.2-21c2.4-5.4,4.9-10.7,7-16.2c1.9-4.7,3.5-9.6,4.8-14.5c1.6-6.4,3.3-12.8,3.6-19.4c0.3-5.8,1-11.6,1.3-17.4
			c0.2-6.8,0.1-13.6,0.1-20.4c0-2.4-0.2-4.8-0.6-7.1c-0.8-5.1-1.9-10.2-2.8-15.3c-1.3-7-3.2-13.8-5.5-20.5
			c-2.5-7.2-5.7-14.2-9.5-20.9c-3.8-7-8.1-13.8-12.8-20.2C414.7,148.1,408.6,143.7,402.2,139.6L402.2,139.6z M270.1,280.2
			c1.2,1,2.2,1.3,3.5,0.2c2.8-2.5,5.8-4.8,8.5-7.3c6.9-6.6,13.3-13.8,19-21.4c5.2-6.8,9.5-14.2,12.7-22.1c2.1-5.1,3.7-10.4,2.3-16
			c-0.7-2.9-1.6-5.8-2.7-8.6c-0.8-2.2-2.6-3.8-4.5-5.1c-2.5-1.8-4.9-3.9-7.6-5.3c-5.2-2.6-10.7-4.6-16.4-5.8
			c-6.4-1.4-12.9-2.6-19.4-3.9c-8-1.7-16.1-2.4-24.2-2.4c-0.6,0-1.1-0.1-1.7-0.1c-2.5-0.1-4.9-0.3-7.4-0.3c-0.6,0-1.3,0.3-1.7,0.7
			c-1.2,1-2.2,2.2-3.6,3.6c2.2,0,3.8,0,5.5,0c2-0.1,4-0.4,5.9-0.4c4.6,0.1,9.2,0.3,13.9,0.4c2.1,0,4.3,0.2,6.4,0.6
			c7.7,1.5,15.5,2.9,23.1,4.9c7,1.8,13.9,4,19.9,8.6c4.3,3.3,7.7,7.1,9.2,12.5c1.2,4.4,1.1,9.1-0.1,13.5c-1.8,6.1-4.4,11.8-7.7,17.2
			c-4.4,7.1-9.6,13.7-15.4,19.7c-3.2,3.4-6.5,6.6-9.8,9.8c-2.2,2.2-4.5,4.3-6.8,6.4C270.6,279.5,270.3,279.9,270.1,280.2z
			 M267.7,282.2c0.1,0.9,0.1,1.4,0.1,1.8c0.4,4.2,1.1,8.4,1.3,12.6c0.2,4.6,0.1,9.3,0.1,13.9c0,3,0.1,6.1-0.1,9.1
			c-0.4,5.6-0.8,11.1-1.4,16.6c-0.3,3.4-0.7,6.8-1.3,10.2c-0.6,3.4-1.4,6.8-2.4,10.2c-1,3.8-2.3,7.5-3.9,11c-2,3.9-4.7,7.4-7.1,11
			c-0.4,0.5-0.8,1.1-1.3,1.6l0.3,0.5c1.9-0.9,4.2-0.9,5.5-3.1c1.5-2.5,3.2-5,4.6-7.5c2.7-5.2,4.8-10.6,6.4-16.2
			c3-9.6,4.8-19.5,5.3-29.5c0.4-6.9,0.4-13.9,0.5-20.8c0-2.3-0.3-4.6-0.4-6.9c-0.2-3.4-0.4-6.8-0.5-10.3c0-1-0.6-1.9-1.5-2.2
			L267.7,282.2z M164.3,313.3c-0.8,1.3-1.3,2.1-1.9,3c-3.2,5.1-7.3,9.5-11.1,14c-4.8,5.8-9.9,11.3-15.2,16.5
			c-4.7,4.7-10.4,8.2-16.8,10.2c-0.6,0.2-1.3,0.4-1.9,0.7c0.2,0.2,0.3,0.4,0.4,0.5c0.2,0.1,0.5,0.1,0.7,0.2c5.4,0,10.5-0.8,14.8-4.4
			c1.5-1.3,3-2.6,4.5-4c7.1-7,13.7-14.5,20.1-22.1c2.7-3.2,5.4-6.5,8-9.8L164.3,313.3z"/>
		<path class="st0" d="M381.9,142.5c4.1,2,8,4.3,11.6,7.1c4.3,3.1,8.1,6.7,11.6,10.7c4.1,4.6,7.8,9.7,10.9,15
			c2.5,4.2,4.7,8.5,6.9,12.8c3.7,7.1,6.2,14.7,7.4,22.6c0.9,5.6,1.7,11.1,2.4,16.7c0.6,5.1,1,10.3,1.4,15.4
			c0.3,3.6,0.3,7.1,0.5,10.7c0.1,1.7,0.4,3.5,0.4,5.2c0.2,10.6-1.2,21.1-4,31.4c-4.4,15.2-11.2,29.6-20.3,42.5
			c-3.1,4.3-6.1,8.6-9.9,12.2c-2.9,2.8-5.5,5.7-8.5,8.4c-5.3,4.7-10.7,9.3-17,12.6c-3.9,2-7.8,4-11.9,5.6c-2.6,1-5.3,1.7-8,2.1
			c-4.3,0.8-8.7,1.2-13.1,1c-9.8-0.6-19.3-2.1-28-6.9c-6.6-3.5-12.8-7.7-18.6-12.6c-5.2-4.2-10.2-8.7-14.9-13.5
			c-1.4-1.5-2.8-3-4.1-4.7c-0.4-0.6-0.7-1.4-0.6-2.2c0.4-3.8,0.9-7.5,1.3-11.3c0-0.6,0-1.3,0-1.9c0-5.8,0.1-11.7,0-17.5
			c-0.1-3.4-0.5-6.8-0.9-10.2c-0.3-2.8-0.7-5.5-1-8.3c-0.1-1.1,0.5-2.2,1.5-2.9c5.8-4.8,11.2-9.9,16.3-15.5
			c5.9-6.3,11.3-13.1,16.1-20.3c4.6-7.1,8.4-14.5,10.4-22.7c0.1-0.5,0.2-0.9,0.3-1.4s0.2-0.9,0.5-1.8c1.2,1.4,2.2,2.6,3.2,3.8
			c1.5,1.8,3.1,3.7,4.6,5.4c3.6,4.1,7.2,8.1,10.8,12.2c0.2,0.2,0.3,0.4,0.5,0.5c4.9,5.1,9.8,10.3,14.9,15.3c2.7,2.5,5.5,4.8,8.5,7
			c1.8,1.4,3.5,1.5,4.6,0.6s1.4-2.6,0.1-4.6c-1.3-2.2-2.9-4.3-4.8-6.2c-4.8-5-9.8-9.9-14.7-14.8c-6-5.9-12-11.7-18-17.5
			c-2.7-2.6-5.6-5-8.3-7.5c-0.9-0.8-1.5-1.8-2-2.9c-1.3-3.1-2.5-6.2-3.7-9.3c-0.2-0.4-0.3-0.9-0.4-1.4c1.5,0.1,3,0.3,4.4,0.4
			c2.6,0.1,5.1,0.3,7.6-0.9c2.6,2.2,5.3,4.4,7.9,6.6c3.5,2.9,7,5.8,10.5,8.7c3.2,2.7,6.5,5.4,9.7,8.1c3.5,2.9,7,5.8,10.5,8.7
			c3.2,2.7,6.5,5.4,9.7,8.1c3.5,2.9,7,5.8,10.5,8.7c3.2,2.7,6.5,5.4,9.7,8.1c3.3,2.7,6.8,5.5,10.1,8.4c3,2.5,6.2,4.7,10.2,5.4
			c2.3,0.5,3.7-0.5,3.9-2.8c0.2-2-0.6-4-2-5.4c-4-4.4-8.8-7.8-13.3-11.6c-5.1-4.2-10.3-8.3-15.5-12.4c-3-2.4-6.1-4.6-9.2-6.8
			c-8.2-6.1-16.4-12.1-24.6-18.2c-5.6-4.1-11.1-8.3-16.6-12.4c-0.8-0.6-1.5-1.4-2.3-2l3.1-1.1c6.1-2.2,12.1-4.8,17.9-7.7
			c2.1-1.1,4.3-2.2,6.5-3.1c3.7-1.6,7.1-4,9.8-7c3.7-4,6.2-8.9,7.3-14.3c0.4-1.8,0.7-3.6,1.1-5.4c1.1-4.5,1.1-9.2,0-13.6
			C382.5,146.1,382.2,144.3,381.9,142.5z M308.6,306c1-2.3,1.6-4.8,1.8-7.3c0.2-3.4,1.2-6.8,2.9-9.8c2.1-3.5,4.5-6.9,8.4-8.6
			c1.6-0.6,3.2-1,4.8-1.2c0.7-0.1,1.5-0.1,1.6-1.3c-1.4-0.8-3-1.6-4.4-2.5c-2.9-1.8-5.6-3.6-7.5-6.5c-3.6-5.4-5.2-11.9-4.3-18.4
			c0.1-0.7,0.1-1.4,0-2.1c0-0.3-0.5-0.6-0.9-1c-0.2,0.4-0.3,0.7-0.5,1.1c-0.6,3.3-1.3,6.5-1.9,9.8c-1,5.1-3.2,9.7-7.4,13
			c-2.9,2.3-5.9,4.7-9.7,5.2c-0.3,1,0.1,1.5,0.8,1.7c1,0.2,2,0.3,3,0.6c0.8,0.1,1.5,0.4,2.2,0.8c2.3,1.9,4.2,4.1,5.7,6.7
			c2.9,5.3,4.4,11.3,4.4,17.4C307.5,304.5,307.3,305.4,308.6,306z M409.2,188.5c-1.5-0.8-2.5-1.4-3.6-2c-2.5-1.3-4.9-2.8-6.3-5.3
			c-1.2-1.9-2.3-3.9-3.4-6c-2.2-4.4-3.3-9.1-3.4-14c-0.1-0.5-0.2-0.9-0.3-1.4c-1.1,0.3-1.7,1.3-1.5,2.4c0,0,0,0,0,0.1
			c0.6,3.2,0.7,6.4,0.5,9.6c-1,8-4.9,13.6-12.3,16.8c-0.4,0.2-1.1,0.8-1,1c0.2,0.6,0.6,1,1.1,1.2c1.6,0.3,3,1,4.3,2
			c5.6,4.8,9,11.6,9.3,19c0.2,1.4,0.8,2.7,1.8,3.8c0.3-0.7,0.5-1.4,0.6-2.1c0.3-2.4-0.4-4.8-0.1-7.3c1.1-8,5.2-13.5,12.6-16.6
			C408,189.2,408.6,188.9,409.2,188.5z M343.8,279c-0.7,0.5-1.3,0.6-1.5,1c-0.3,0.6-0.5,1.3-0.6,2c-0.5,2.4-0.9,4.8-1.5,7.2
			c-1.4,5.5-4.4,9.9-9.4,12.7c-1,0.5-1.9,1.1-2.8,1.8c-1.1,0.9-0.8,2.1,0.5,2.2c2.3,0.2,3.9,1.6,5.5,3.2c3.1,3.2,5.3,7.2,6.3,11.6
			c0.6,2.4,0.9,4.8,1.6,7.2c0.2,0.9,0.1,2.2,1.6,2.4c0.2-0.3,0.6-0.6,0.6-1c0.3-1.6,0.4-3.1,0.5-4.7c0.1-4.5,1.2-8.9,3.2-12.9
			c1.5-3.1,3.5-6,7.4-6.4c0.1,0,0.2-0.2,0.5-0.6c-0.5-0.6-1.1-1.3-1.7-2s-1.2-0.8-1.7-1.3c-5-4.8-6.8-11-7.7-17.6
			C344.3,282.5,344.1,280.9,343.8,279z M279.3,316.4c0.7,0.6,1,1.1,1.3,1.1c1.3,0,1.9,1,2.8,1.6c1.8,1.5,2.6,3.5,3.5,5.6
			c1.7,4.3,3.2,8.6,3.4,13.3c0.2,1,0.4,1.9,0.9,2.8c1.2-0.4,1-1.3,1-1.9c0.2-3.3,0.2-6.7,0.5-10c0.4-3.4,2.1-6.4,4.9-8.4
			c1-0.8,2.3-1.2,3.6-1.1c0.8,0,1.7,0.1,2-0.9c0.3-1.2-0.8-1.4-1.5-1.8c-0.3-0.1-0.6-0.1-0.9-0.3c-1.5-0.6-2.7-1.6-3.6-2.9
			c-3.5-5.6-5.9-11.5-5.8-18.1c0-0.6-0.1-1.2-0.3-1.8c-1.4,1-1.5,1-1.6,1.8c0,0.6,0,1.3,0,1.9c0.1,5.6-1.7,10.6-4.3,15.5
			c-0.6,1.1-1.7,2-2.9,2.4C281.3,315.5,280.5,315.9,279.3,316.4L279.3,316.4z M422.6,213.7l-0.2-0.6c-1.9,0.2-3.7-0.6-4.8-2.2
			c-2.7-3.6-4.3-7.9-4.5-12.4c-0.1-1.9,0-3.8,0-5.8c0-0.7,0-1.3-1.3-1.1c-0.2,1-0.4,2.1-0.6,3.1c-0.1,1.3,0,2.6,0,3.8
			c0,3.8-1.2,7.6-3.4,10.8c-0.9,1.3-2.2,2.3-3.8,2.8c-1.1,0.3-2.2,0.8-3.2,1.2c-0.2,1.4,0.8,1.6,1.5,2c2.9,1.6,5.1,4.2,6.1,7.4
			c1.2,3.3,1.8,6.8,1.8,10.3c0,0.9-0.1,1.8,1.3,2c0.3-0.4,0.5-0.8,0.6-1.2c0.2-2.3,0.3-4.6,0.5-6.9c0.5-5.5,3.1-9.6,8.3-11.9
			C421.5,214.6,422.1,214.2,422.6,213.7L422.6,213.7z M358.1,356.7l0.6-0.1c0.2-1,0.4-2,0.6-3c0.5-2.3,0.9-4.5,1.5-6.7
			c0.6-2.7,2.9-4.6,5.6-4.8c0.3,0,0.7,0,0.9-0.1c0.4-0.4,0.9-0.8,1.2-1.3c-0.9-0.6-1.4-1.1-2-1.5c-2.2-1.4-3.7-3.6-4.2-6.1
			c-0.3-1.8-0.5-3.6-0.6-5.4c-0.1-1.4,0-2.9-0.1-4.3c0-0.3-0.5-0.6-1-1.4c-0.4,1.3-0.7,2.1-0.9,2.9c-0.5,2.2-1,4.3-1.5,6.5
			c-0.7,3.2-2.9,5.8-6,7c-0.8,0.4-1.5,0.8-2.2,1.2c0.7,1.3,0.7,1.3,1.5,1.6c3.7,1.3,5,4.1,5.3,7.7c0.1,1.9,0.3,3.8,0.5,5.7
			C357.7,355.3,357.9,356.1,358.1,356.7L358.1,356.7z"/>
		<path class="st2" d="M328.2,201c-2.4,1.2-5,1.1-7.6,0.9c-1.5-0.1-3-0.3-4.4-0.4c-0.2-0.1-0.5-0.2-0.6-0.4c-2.4-3.9-6.2-6.3-10-8.7
			c-4.3-2.5-8.9-4.6-13.7-6.2c-5.8-2-11.7-3.6-17.7-4.7c-2.1-0.4-4.2-0.6-6.6-0.9c0.8-2.3,1.9-4.5,3.3-6.5c3.8-5.2,8-10.1,12.4-14.9
			c6.9-7.5,15.1-13.7,24.2-18.4c7-3.7,14.6-6.1,22.4-7.1c4.4-0.8,8.8-1.2,13.3-1.4c1.6,0,3.1-0.3,4.7-0.4c6.6-0.2,13.2,1,19.4,3.6
			c4.7,1.8,9.1,4.2,13.7,6.3c0.3,0.2,0.6,0.4,0.9,0.7c0.4,1.8,0.6,3.6,1.1,5.4c1.1,4.5,1.1,9.2,0,13.6c-0.4,1.8-0.7,3.6-1.1,5.4
			c-1.2,5.3-3.7,10.2-7.3,14.3c-2.7,3-6.1,5.4-9.8,7c-2.2,0.9-4.3,2.1-6.5,3.1c-5.8,2.9-11.8,5.5-17.9,7.8l-3.1,1.1
			c-4.2-2.9-8.5-5.7-12.6-8.6c-7.9-5.6-15.9-11.2-23.8-16.8c-3.2-2.3-6.2-4.8-9.3-7c-1-0.8-1.9-2-3.4-2c-0.6,1-0.3,2.4,0.7,3.1
			c0,0,0.1,0,0.1,0.1c2.6,1.9,5.3,3.8,7.8,5.9c2.1,1.6,4,3.4,6,5.1c3.6,3.1,7.3,6.1,11,9.1c2.6,2.2,5.3,4.4,7.9,6.6
			C323.9,197.3,326,199.1,328.2,201z M375.6,143c-0.3-0.4-0.5-0.9-0.9-1.1c-1.9-1.2-3.9-2.3-5.9-3.1c-7-2.6-14.4-4-21.9-4.3
			c-4-0.2-8,0.2-11.9,0.4c-1.8,0.1-3.7,0.3-5.5,0.6c-12.5,2.4-24,7-34.1,14.8c-2.3,1.9-4.4,3.9-6.4,6.1c-0.6,0.6-1.1,1.4-0.4,2.3
			c1.2,0.3,2-0.3,2.8-1c3.3-2.5,6.5-5.1,9.8-7.6c1.3-1.2,2.8-2.2,4.3-3.1c8.9-4.3,18.1-7.5,28.1-8c0.4,0,0.8-0.1,1.2-0.2
			c3.4-0.4,6.8-0.6,10.2-0.6c3.7,0.2,7.4,0.7,11.1,1.5c5.7,1.2,11.6,1.3,16.9,4c0.8,0.5,1.9,0.2,2.4-0.6
			C375.6,143.2,375.6,143.1,375.6,143z M315.4,144.4c2.2,2,4,3.8,6,5.3c5.1,4.1,10.3,8.3,15.6,12.2c7.5,5.6,15,11,22.6,16.4
			c1.1,0.8,2.3,1.4,3.6,1.9c1.6,0.6,2.4-0.1,2.5-1.8c0.1-1-0.3-2.1-1.1-2.8c-1.8-1.6-3.5-3.3-5.3-4.8c-3.1-2.6-6.2-5.3-9.6-7.5
			c-5.5-3.7-11.3-7.2-17-10.7c-4.4-2.7-8.9-5.3-13.4-7.8C318.1,144,316.6,143.8,315.4,144.4L315.4,144.4z M281.8,166.3
			c-1.1-1.2-1.9-0.8-2.5-0.1c-1.6,1.9-3.2,3.8-4.6,5.8c-0.8,0.9-0.9,2.2-0.3,3.2C277.5,172.6,279.3,169.2,281.8,166.3z"/>
		<path class="st3" d="M183.7,94.1c2.4,0.5,4.7,1.7,6.5,3.3c5.8,4.8,10.4,10.9,13.4,17.8c2.4,5.5,4.7,11,6.7,16.6
			c2.9,8,5.2,16.2,6.9,24.6c1,5.2,2,10.5,2.8,15.7c0.7,4.9,1.1,9.8,1.6,14.7c0.3,2.9,0.7,3.5,3.6,3.5c5.8,0,11.7,0.1,17.5,0
			c7-0.1,14,0.6,20.9,2c7,1.4,14,2.9,20.9,4.8c5.8,1.5,11.2,4.4,15.8,8.2c6.6,5.5,7.8,12.5,5.9,20.1c-1.2,5-3.8,9.6-6.5,14.1
			c-4.5,7.4-9.7,14.2-15.7,20.5c-4,4.2-8,8.3-12,12.4c-1.9,1.9-3.9,3.6-5.8,5.3c-1.4,1.2-2.2,3-2.1,4.8c0.1,10.8,0.2,21.6,0,32.4
			c0,6.5-0.4,13.1-1.3,19.5c-0.6,4-0.8,8.1-1.5,12.1c-1,6.1-2.7,12-4.9,17.7c-1.5,3.8-3.6,7.5-6.2,10.7c-1.9,2.2-4.2,3.9-6.9,4.9
			c-6,2.6-12,2.1-18,0.2c-7.8-2.5-15-6.5-21.3-11.6c-5.3-4.3-9.3-9.6-13.6-14.8c-5.4-6.4-9-13.9-13.6-20.8c-4.4-6.5-6.8-13.9-9.7-21
			c-0.4-1.1-0.7-2.3-0.9-3.5c-0.3-1.6-0.4-1.8-2.4-1.9c-1.7,2.6-3.2,5.3-5.1,7.7c-3.6,4.6-7.5,9.1-11.3,13.6c-3,3.5-6.1,7-9.1,10.4
			c-5.8,6.5-12.2,12-20.7,14.5c-3.9,1.3-8.1,1.9-12.3,1.5c-4.1-0.5-7.9-2-10-6.1c-0.9-1.8-1.7-3.6-2.5-5.4c2.8,0.9,5.9,0.6,8.4-1
			c0.6,0.4,1.2,0.8,1.8,1.2c3.5,2.2,7.9,2.6,11.8,1c6.9-2.7,13.2-6.9,18.3-12.4c4.9-5,9.8-10.1,14.4-15.4c3.6-4.2,6.9-8.8,10.2-13.3
			c2.6-3.5,5-7.2,7.4-10.9c0.3-0.3,0.6-0.6,1-0.9c1.1,3.1,1.9,6.1,3.2,9c3.2,7.2,6.5,14.4,9.8,21.6c3.1,6.5,6.7,12.7,10.8,18.6
			c3.7,5.4,7.6,10.7,11.7,15.7c3.1,3.7,6.5,7.3,10.1,10.5c4.3,3.9,9.7,6.1,15.2,7.9c3.1,1,6.5,1.1,9.6,0.1c4.8-1.3,8-4.5,10.8-8.3
			c4.6-6.3,6.9-13.4,8.2-21c0.7-3.8,0.9-7.8,1.6-11.6c1-5.4,0.9-11,1.2-16.4c0.4-6.2,0.1-12.5,0.1-18.7c0-1.7,0-3.4,0-5
			c-0.3-5.5-0.5-11-0.9-16.5c-0.1-1,0.4-1.9,1.3-2.3c8.3-6.1,16-12.7,22.6-20.6c4.9-5.9,9.3-12,12.1-19.1c1.9-4.8,3.5-9.6,3.3-14.8
			c0-2.1-0.7-4.2-1.9-6c-2.9-4.2-7-7.4-11.7-9.2c-5.4-2-10.9-3.7-16.4-5.2c-7.3-1.8-14.9-2.9-22.4-3.1c-2.2-0.1-4.4-0.4-6.7-0.6
			c-2.9-0.3-5.7-0.7-8.5-0.8c-4.7-0.1-9.4,0-14.1-0.1c-0.5,0-0.9-0.1-1.5-0.1c-0.1-0.8-0.1-1.5-0.1-2.2c0-1.7,0.1-3.4-0.1-5
			c-0.5-5.3-1.1-10.6-1.8-15.9s-1.5-10.9-2.8-16.2c-1.6-7-3.6-14-5.7-21c-2.4-8.8-6.4-17.1-11.8-24.5c-1.6-2.2-3.5-4.1-5.3-6.2
			c0.8-1.2,0.8-2.8,0.2-4.1C185.5,98.4,184.6,96.3,183.7,94.1z"/>
		<path class="st4" d="M101.4,342.1c-2.5,1.6-5.6,1.9-8.4,1c-0.8-2.9-1.8-5.8-2.3-8.7c-1-5.1-1.5-10.2-1.6-15.4
			c0.1-3.4-0.3-6.8-0.4-10.3c-0.2-5.8-0.4-11.6-0.4-17.5c0-5.2,0.2-10.4,0.5-15.5c0.3-6,0.9-12.1,1.4-18.1c0.1-1.5,0.3-3,0.5-4.5
			c0.1-0.8-0.2-1.6-0.9-2.1c-6.9-6.3-13.4-13.1-19.3-20.3c-3.1-3.9-6.3-7.9-9.3-11.9c-2.8-3.6-4.8-7.8-6.1-12.1
			c-0.8-2.5-1-5.2-0.6-7.8c0.5-2.8,2.3-5.2,4.8-6.4c5.3-2.8,11-4.7,16.9-5.8c3.8-0.7,7.5-1.3,11.3-1.8c2.8-0.3,5.7-0.5,8.6-0.6
			c2.3,0,4.6,0.1,6.9,0.4c4.7,0.4,9.3,0.9,14,1.3c0.6,0.1,1.3,0,2.2,0c0.5-1.2,1.1-2.5,1.6-3.8c1.9-5.7,3.7-11.6,5.8-17.2
			c4.3-11.5,8.6-23,13.8-34.1c1.4-3,3.1-6,5-8.7c4.6-6.8,9.1-13.7,15.1-19.4c4.4-4.2,9.5-7.6,15.6-8.9c2.5-0.6,5.1-0.5,7.6,0.4
			c0.9,2.1,1.8,4.3,2.6,6.4c0.7,1.3,0.6,2.8-0.2,4.1c-1.9-1.8-4.3-3.1-6.8-3.9c-1.8-0.7-3.8-0.6-5.6,0.1c-3.6,1.4-6.8,3.5-9.6,6.3
			c-3,3-5.1,6.5-7.4,10c-5.6,8.3-10.3,17.1-14.1,26.4c-6,14.9-11.7,29.9-17.6,44.8c-0.5,1.2-1.2,2.4-1.7,3.5
			c-3.4-0.3-6.6-0.6-9.8-0.8s-6.4-0.4-9.6-0.4c-4.2,0-8.4,0.3-12.7,0.4c-5.3,0.1-10.5,0.9-15.6,2.1c-3.9,0.8-7.7,2.1-11.2,4
			c-3.2,1.9-4.3,4.7-3.2,8.4c1.8,6.3,4.7,12.3,8.8,17.5c4.5,5.7,9.3,11.1,14.2,16.5c3.2,3.5,6.6,6.8,9.9,10.1
			c1.2,1.1,1.8,2.7,1.7,4.3c-0.1,2.1-0.4,4.1-0.6,6.2c-0.4,4.3-1,8.5-1.2,12.8c-0.2,6.4-0.2,12.8-0.1,19.2
			c0.1,8.2,0.2,16.5,0.5,24.7c0.1,3.9,0.4,7.8,1,11.6C96.4,333.3,97.5,338.3,101.4,342.1z"/>
		<path class="st5" d="M372.8,127.7c8.6,3.4,16.7,8.2,23.8,14.1c4.3,3.7,8.3,7.7,12.1,11.9c3.4,3.8,6.6,7.8,9.5,12
			c3.9,5.4,7.3,11.3,10,17.4c2,4.7,4,9.4,5.8,14.1c2.6,6.9,4.6,13.9,5.9,21.1c1.3,6.3,2.2,12.7,2.8,19.1c0.6,7.7,0.8,15.5,0.5,23.2
			c-0.7,16-3.8,31.9-9.1,47c-4.7,13.6-11.6,26.4-20.4,37.8c-8.5,10.9-18.6,20.2-30.9,26.9c-7.8,4.3-16.3,7.3-25.2,8.8
			c-5.8,0.9-11.8,1.2-17.6,0.7c-10.2-0.8-20.2-2.6-29.6-6.9c-5.4-2.6-10.6-5.7-15.4-9.2c-4.4-3-8.2-6.6-12-10.2
			c-2.5-2.3-4.6-4.8-6.9-7.3c-0.6-0.5-1-1.3-1.1-2c0.1-1.9,0.4-3.9,0.8-6.4c1.2,1.4,1.9,2.3,2.7,3.1c3.1,3.1,6.1,6.3,9.3,9.3
			c8.1,7.9,17.4,14.6,27.6,19.6c5.6,2.8,11.7,4.6,18,5.3c3.3,0.4,6.6,0.8,10,0.9c9,0.2,17.5-1.8,25.9-5c9.2-3.6,17.2-9.1,24.5-15.5
			c2.2-1.9,4.2-3.9,6.3-5.8c6.5-6.2,12.3-13.2,17.1-20.9c6.1-9.3,11-19.3,14.6-29.8c2.1-6.3,3.7-12.9,4.8-19.5
			c1.8-10.1,2.4-20.3,1.9-30.5c-0.3-6-0.9-12.1-1.4-18.1c-0.9-10.1-2.5-20.1-4.9-29.9c-2-8.4-5.5-16.1-9.7-23.6
			c-3.1-5.7-6.6-11.1-10.5-16.3c-6.6-8.8-14.9-16.1-24.5-21.4c-6.8-3.9-13.9-7.1-21.3-9.8c-0.7-0.3-1.5-0.6-2.2-0.9
			c1.8-0.6,3.6-1.1,5.4-1.7C370.6,128.8,371.7,128.3,372.8,127.7z"/>
		<path class="st6" d="M402.2,139.6c6.4,4.1,12.5,8.5,17.1,14.7c4.7,6.4,9,13.2,12.8,20.2c3.8,6.7,7,13.6,9.5,20.9
			c2.3,6.7,4.2,13.6,5.5,20.5c0.9,5.1,1.9,10.1,2.8,15.3c0.4,2.4,0.6,4.7,0.6,7.1c0.1,6.8,0.2,13.6-0.1,20.4
			c-0.2,5.8-1,11.6-1.3,17.4c-0.4,6.7-2,13-3.6,19.4c-1.3,4.9-2.9,9.8-4.8,14.5c-2.1,5.5-4.6,10.8-7,16.2c-3.4,7.6-8.1,14.5-13.2,21
			c-2.5,3.3-5.2,6.5-8.1,9.4c-4.9,4.7-9.8,9.6-15.8,13.1c-0.6,0.4-1.3,0.6-2,0.7c0.8-0.7,1.7-1.3,2.5-2c6.5-5,12.4-10.8,17.6-17.2
			c7-8.6,12.9-18.1,17.5-28.2c5.6-11.8,9.6-24.2,12-37c1.1-6.2,2.1-12.4,2.8-18.6c0.5-5.3,0.6-10.7,0.6-16c0.1-4.8-0.1-9.6-0.6-14.3
			c-0.7-6.8-1.8-13.6-3-20.3c-1.9-10.1-4.9-20-9-29.4c-4.8-11.8-11.3-22.8-19.2-32.8c-3.5-4.3-7.4-8.1-11.1-12.2c-1-0.9-2-1.8-3-2.6
			L402.2,139.6z"/>
		<path class="st4" d="M372.8,127.7c-1.1,0.6-2.2,1.1-3.3,1.6c-1.8,0.6-3.6,1.2-5.4,1.7c-4.4-1.4-9-2-13.7-1.9c-2.2,0-4.5-0.1-6.7,0
			c-9.6,0.3-19.1,1.5-28.2,4.7c-7.4,2.8-14.4,6.5-20.8,11.2c-4.4,3.1-8.9,6.3-12.4,10.5c-4.7,5.6-9.3,11.3-13.9,17.1
			c-1.4,1.9-2.6,4-3.5,6.3c-0.5,1.2-1,1.7-2.3,1.2c-0.7-0.2-1.4-0.3-2.1-0.4c0.9-1.6,1.7-3.1,2.5-4.5c6.8-11.6,14.8-22.2,24.9-31.1
			c11.6-10.3,24.9-17.5,40.2-20.7c6.2-1.4,12.6-1.9,19-1.5C356,122.4,364.6,124.4,372.8,127.7z"/>
		<path class="st5" d="M270.1,280.2c0.2-0.4,0.5-0.7,0.8-1c2.3-2.1,4.6-4.2,6.8-6.4c3.3-3.2,6.6-6.5,9.8-9.8
			c5.8-6,11-12.7,15.4-19.8c3.4-5.3,6-11.1,7.7-17.2c1.2-4.4,1.3-9.1,0.1-13.5c-1.5-5.3-4.9-9.2-9.2-12.5
			c-5.9-4.5-12.8-6.8-19.9-8.6c-7.6-1.9-15.4-3.3-23.1-4.9c-2.1-0.3-4.3-0.5-6.4-0.6c-4.6-0.2-9.2-0.4-13.9-0.4c-2,0-4,0.3-5.9,0.4
			c-1.6,0.1-3.3,0-5.5,0c1.4-1.4,2.5-2.6,3.6-3.6c0.5-0.4,1.1-0.7,1.7-0.7c2.5,0,4.9,0.2,7.4,0.3c0.6,0,1.1,0.1,1.7,0.1
			c8.1-0.1,16.2,0.7,24.2,2.4c6.5,1.4,13,2.5,19.4,3.9c5.7,1.2,11.2,3.2,16.4,5.8c2.7,1.4,5.1,3.5,7.6,5.3c1.9,1.4,3.7,2.9,4.5,5.1
			c1.1,2.8,2,5.7,2.7,8.6c1.4,5.6-0.3,10.9-2.3,16c-3.2,7.9-7.5,15.4-12.7,22.1c-5.7,7.7-12.1,14.8-19,21.5
			c-2.7,2.5-5.7,4.9-8.5,7.3C272.4,281.5,271.3,281.2,270.1,280.2z"/>
		<path class="st5" d="M267.7,282.2l4.3,1.8c0.9,0.4,1.5,1.3,1.5,2.3c0.1,3.4,0.3,6.8,0.5,10.3c0.1,2.3,0.4,4.6,0.4,6.9
			c-0.1,6.9-0.1,13.9-0.5,20.8c-0.5,10-2.3,19.9-5.3,29.5c-1.6,5.6-3.8,11-6.4,16.2c-1.4,2.6-3.1,5-4.6,7.5
			c-1.3,2.2-3.6,2.3-5.6,3.1l-0.3-0.5c0.5-0.5,0.9-1,1.3-1.6c2.4-3.6,5.2-7.1,7.1-11c1.6-3.5,3-7.2,3.9-11c1-3.4,1.8-6.8,2.5-10.2
			c0.6-3.4,1-6.8,1.3-10.2c0.5-5.5,1-11.1,1.4-16.6c0.2-3,0.1-6.1,0.1-9.1c0-4.6,0.1-9.3-0.1-13.9c-0.2-4.2-0.8-8.4-1.3-12.6
			C267.8,283.5,267.7,283.1,267.7,282.2z"/>
		<path class="st5" d="M207.7,111.8c1.5,2.4,3,4.8,4.4,7.4c3.4,6.5,6.8,13,9,20.1c1.8,5.7,3.2,11.5,4.9,17.2
			c1.5,5.1,1.9,10.3,2.4,15.5c0.3,2.5,0.8,5,1.2,7.8c-1.1,1-2.3,2.2-3.8,3.6c-0.3-0.6-0.6-1.3-0.8-2c-0.4-3.2-0.6-6.3-1-9.5
			c-0.6-4.7-1.4-9.4-2.2-14.1c-1.8-10.6-5.1-20.9-8.6-31c-1.6-4.5-3.7-8.8-5.6-13.2c-0.2-0.4-0.3-0.9-0.5-1.3L207.7,111.8z"/>
		<path class="st6" d="M164.3,313.3l1.6,4.8c-2.7,3.3-5.3,6.5-8,9.8c-6.4,7.6-13,15.1-20.1,22.1c-1.4,1.4-2.9,2.7-4.5,4
			c-4.3,3.5-9.4,4.4-14.8,4.4c-0.2,0-0.5-0.1-0.7-0.2c-0.1-0.1-0.2-0.2-0.4-0.5c0.7-0.2,1.3-0.5,1.9-0.7c6.3-2,12.1-5.5,16.8-10.2
			c5.3-5.3,10.4-10.8,15.2-16.5c3.9-4.5,7.9-9,11.1-14C163,315.4,163.5,314.5,164.3,313.3z"/>
		<path class="st7" d="M363.8,258.6c1.2,1.5,2.7,2.8,2.8,5.5c-1.1-0.7-1.9-1.1-2.6-1.6c-4.5-3.4-8.6-7.1-12.4-11.2
			c-5.1-5.6-10.5-11-15.7-16.4c-2.5-2.6-4.9-5.2-7.4-7.8c-0.4-0.5-0.7-1-1-1.6c1.4,0.9,2.7,1.8,4,2.9c3.1,2.9,6,5.9,9,8.9
			c0.7,0.7,1.3,1.5,2.4,1.2l0,0l0.5,0.5l0,0l0.5,0.5l0,0l0.5,0.5l0,0l0.5,0.5l0,0l0.5,0.5l0,0c0.1,0.4,0.3,0.9,0.5,1.3
			c2.1,2.2,4.3,4.4,6.5,6.5c0.6,0.4,1.3,0.7,2.1,0.9l0,0l0.5,0.5l0,0l0.5,0.5l0,0l0.5,0.5l0,0c0.2,0.2,0.3,0.3,0.5,0.5l0,0
			c0.2,0.2,0.3,0.3,0.5,0.5l0,0l0.5,0.5l0,0l0.5,0.5l0,0c0.2,0.2,0.3,0.3,0.5,0.5l0,0l0.5,0.5l0,0l0.5,0.5l0,0l0.5,0.5l0,0
			c0,0.7,0.3,1,1,1l0,0c0.2,0.2,0.3,0.3,0.5,0.5l0,0l0.5,0.5l0,0l0.5,0.5l0,0l0.5,0.5l0,0L363.8,258.6L363.8,258.6L363.8,258.6z"/>
		<path class="st8" d="M343.1,238.4c-1.2,0.3-1.8-0.6-2.4-1.2c-3-3-6-6-9-8.9c-1.3-1-2.6-2-4-2.9l-2.2-2.4l-0.4-0.5l-0.1-0.1
			c-0.1-0.1-0.3-0.3-0.4-0.4V222l-0.7-0.8c-1.2-1.3-2.7-2.4-2.7-4.9c1.5,1.4,2.8,2.6,4,3.8C331,226.2,337,232.3,343.1,238.4z"/>
		<path class="st8" d="M354.6,249.5c-0.7-0.2-1.4-0.5-2.1-0.9c-2.2-2.1-4.4-4.3-6.5-6.5c-0.2-0.4-0.4-0.8-0.5-1.3
			c0.3,0.1,0.6,0.2,0.8,0.4C349.1,243.9,351.8,246.7,354.6,249.5z"/>
		<path class="st6" d="M205.3,108.4l-3.1-4C204,105.1,205.1,106.6,205.3,108.4z"/>
		<path class="st6" d="M207.7,111.8l-0.5,0.5l-1.9-3.8l0,0L207.7,111.8z"/>
		<path class="st8" d="M360.8,255.7c-0.7,0-1-0.3-1-1L360.8,255.7z"/>
		<path class="st7" d="M323.7,221.2l0.7,0.8L323.7,221.2z"/>
		<path class="st8" d="M358.4,253.3c-0.2-0.2-0.3-0.3-0.5-0.5C358.1,253,358.2,253.1,358.4,253.3z"/>
		<path class="st8" d="M358.9,253.8l-0.5-0.5L358.9,253.8z"/>
		<path class="st8" d="M359.4,254.3l-0.5-0.5L359.4,254.3z"/>
		<path class="st8" d="M359.9,254.8l-0.5-0.5L359.9,254.8z"/>
		<path class="st8" d="M345.5,240.8l-0.5-0.5L345.5,240.8z"/>
		<path class="st8" d="M361.3,256.2c-0.2-0.2-0.3-0.3-0.5-0.5C361,255.9,361.1,256,361.3,256.2z"/>
		<path class="st8" d="M361.8,256.7l-0.5-0.5L361.8,256.7z"/>
		<path class="st8" d="M362.3,257.2l-0.5-0.5L362.3,257.2z"/>
		<path class="st8" d="M362.7,257.6l-0.5-0.5L362.7,257.6z"/>
		<path class="st8" d="M363.2,258.1l-0.5-0.5L363.2,258.1z"/>
		<path class="st8" d="M363.8,258.6l-0.6-0.5L363.8,258.6z"/>
		<path class="st8" d="M345,240.4l-0.5-0.5L345,240.4z"/>
		<path class="st8" d="M355,250l-0.5-0.5L355,250z"/>
		<path class="st8" d="M344.5,239.9l-0.5-0.5L344.5,239.9z"/>
		<path class="st8" d="M344,239.4l-0.5-0.5L344,239.4z"/>
		<path class="st8" d="M355.5,250.4l-0.5-0.5L355.5,250.4z"/>
		<path class="st8" d="M356,250.9l-0.5-0.5L356,250.9z"/>
		<path class="st8" d="M343.5,238.9l-0.5-0.5L343.5,238.9z"/>
		<path class="st8" d="M356.5,251.4c-0.2-0.2-0.3-0.3-0.5-0.5L356.5,251.4z"/>
		<path class="st7" d="M324.9,222.6l0.4,0.5L324.9,222.6z"/>
		<path class="st8" d="M357,251.9c-0.2-0.2-0.3-0.3-0.5-0.5L357,251.9z"/>
		<path class="st8" d="M357.5,252.4l-0.5-0.5C357.1,252,357.3,252.2,357.5,252.4z"/>
		<path class="st8" d="M357.9,252.8l-0.5-0.5L357.9,252.8z"/>
		<path class="st7" d="M324.5,222.1c0.1,0.1,0.3,0.3,0.4,0.4C324.7,222.3,324.6,222.2,324.5,222.1z"/>
		<path class="st9" d="M328.2,201c-2.2-1.9-4.3-3.8-6.5-5.6c-2.6-2.2-5.2-4.4-7.9-6.6c-3.7-3.1-7.3-6.1-11-9.1c-2-1.7-3.9-3.5-6-5.1
			c-2.5-2-5.2-3.9-7.8-5.9c-1.1-0.6-1.5-1.9-0.9-3c0,0,0-0.1,0.1-0.1c1.5,0.1,2.4,1.3,3.4,2c3.1,2.3,6.2,4.8,9.3,7
			c7.9,5.6,15.8,11.2,23.8,16.8c4.2,2.9,8.4,5.7,12.6,8.6c0.8,0.7,1.5,1.4,2.3,2c5.5,4.2,11.1,8.3,16.6,12.4
			c8.2,6.1,16.4,12.1,24.6,18.2c3.1,2.3,6.2,4.5,9.2,6.8c5.2,4.1,10.4,8.1,15.5,12.4c4.5,3.8,9.3,7.2,13.3,11.6
			c1.4,1.4,2.2,3.4,2,5.4c-0.2,2.3-1.7,3.3-3.9,2.8c-4-0.8-7.1-2.9-10.2-5.4c-3.4-2.8-6.8-5.5-10.1-8.4s-6.5-5.4-9.7-8.1
			c-3.5-2.9-7-5.8-10.5-8.7c-3.2-2.7-6.5-5.4-9.7-8.1c-3.5-2.9-7-5.8-10.5-8.7c-3.2-2.7-6.5-5.4-9.7-8.1c-3.5-2.9-7-5.8-10.5-8.7
			C333.4,205.4,330.8,203.2,328.2,201z M337.3,203.4l-0.5-0.6l-11.6-8l-0.3,0.5c2.6,2.1,5.2,4.1,7.8,6.3
			c12.2,10.1,24.5,20.3,36.7,30.4c12.2,10.2,24.4,20.4,36.5,30.6c2.1,1.7,4.2,3.5,6.4,5.1c1.9,1.3,4.1,2,6.4,2.1
			c-0.3-1-0.4-1.6-0.6-2.3c-0.6-1-1.3-2-2.1-2.8c-2.5-2.3-5.1-4.6-7.7-6.8c-6.4-5.3-12.6-10.8-19.2-15.9
			c-13.5-10.3-27.2-20.4-40.9-30.5c-1.6-1.2-3.3-2.4-5-3.6l0,0l-0.5-0.5l0,0l-2.4-1.9l0,0l-1.5-1l0,0l-0.5-0.5l0,0l-1-0.5
			L337.3,203.4z"/>
		<path class="st9" d="M308.6,306c-1.3-0.6-1.1-1.5-1.1-2.4c0-6.1-1.5-12.1-4.4-17.4c-1.5-2.5-3.4-4.8-5.7-6.7
			c-0.7-0.4-1.4-0.7-2.2-0.8c-1-0.3-2-0.3-3-0.6c-0.7-0.2-1.1-0.7-0.8-1.7c3.8-0.5,6.7-2.9,9.7-5.2c4.2-3.3,6.3-7.9,7.4-13
			c0.7-3.3,1.3-6.5,1.9-9.8c0.1-0.4,0.3-0.8,0.5-1.1c0.4,0.4,0.9,0.7,0.9,1c0.1,0.7,0.1,1.4,0,2.1c-0.9,6.5,0.6,13,4.3,18.4
			c1.9,2.9,4.7,4.8,7.5,6.5c1.5,0.9,3,1.7,4.4,2.5c-0.1,1.1-0.9,1.1-1.6,1.3c-1.6,0.2-3.3,0.6-4.8,1.2c-3.9,1.7-6.3,5.1-8.4,8.6
			c-1.6,3-2.6,6.3-2.9,9.8C310.3,301.3,309.7,303.7,308.6,306z M307,288.3c0.2,0.4,0.3,0.8,0.5,1.2l-0.1,0l0.6,1.4
			c0.2,0.8,0.4,1.5,0.7,2.8c2.6-7.3,6-13.1,13.4-15.9c-0.9-0.6-1.5-1.1-2.1-1.5c-2.8-1.8-5.1-4.3-6.6-7.4c-1-2.1-1.8-4.4-2.7-6.6
			c-0.1-0.6-0.2-1.2-0.3-1.8c-1.7,7.5-6.2,12.8-13,16.6c4.1,2,6.2,5.4,8.3,8.8L307,288.3L307,288.3z"/>
		<path class="st9" d="M409.2,188.5c-0.6,0.4-1.2,0.7-1.8,1.1c-7.4,3.1-11.5,8.7-12.6,16.6c-0.4,2.5,0.3,4.9,0.1,7.3
			c-0.1,0.7-0.3,1.5-0.6,2.1c-1-1-1.7-2.3-1.8-3.8c-0.3-7.4-3.7-14.2-9.3-19c-1.2-1-2.7-1.7-4.3-2c-0.5-0.2-1-0.7-1.1-1.2
			c-0.1-0.2,0.6-0.9,1-1c7.4-3.2,11.4-8.8,12.3-16.8c0.3-3.2,0.1-6.5-0.5-9.6c-0.3-1.1,0.4-2.2,1.4-2.4c0,0,0,0,0.1,0
			c0.2,0.5,0.3,0.9,0.3,1.4c0.1,4.9,1.3,9.6,3.4,14c1,2.1,2.1,4.1,3.4,6c1.5,2.5,3.9,3.9,6.3,5.3
			C406.6,187.1,407.7,187.7,409.2,188.5z M393,174.6c-0.1,0-0.2-0.1-0.2-0.1s-0.1,0.1-0.2,0.1c-1.1,6.4-4.2,11.5-9.8,14.9
			c-0.1,0-0.1,0.1-0.2,0.3c5.1,3.1,8.1,7.9,10.6,13.6c0.2-1,0.4-1.6,0.5-2.3c1.2-3.7,3.3-6.9,6.3-9.4c1.3-1,2.6-2,4-3
			c-1.2-0.9-2.4-1.6-3.4-2.4c-3.2-2.6-5-6.2-6.6-9.9C393.7,175.9,393.3,175.3,393,174.6z"/>
		<path class="st9" d="M343.8,279c0.3,1.9,0.5,3.5,0.7,5c1,6.6,2.8,12.8,7.7,17.6c0.5,0.5,1.2,0.8,1.7,1.3s1.2,1.3,1.7,2
			c-0.3,0.4-0.4,0.6-0.5,0.6c-3.9,0.5-5.9,3.3-7.4,6.4c-2,4-3.1,8.4-3.2,12.9c-0.1,1.6-0.3,3.2-0.5,4.7c0,0.3-0.4,0.6-0.6,1
			c-1.5-0.3-1.4-1.6-1.6-2.4c-0.6-2.4-1-4.8-1.6-7.2c-1-4.4-3.1-8.4-6.3-11.6c-1.5-1.5-3.1-2.9-5.5-3.2c-1.3-0.1-1.6-1.4-0.5-2.2
			c0.9-0.7,1.8-1.3,2.8-1.8c5-2.9,7.9-7.3,9.4-12.7c0.6-2.4,1-4.8,1.5-7.2c0.1-0.7,0.3-1.4,0.6-2C342.5,279.6,343.1,279.5,343.8,279
			z M340.6,314.3l1,2.5l0.9,3c1.8-5.9,3.7-11.5,8.9-15.4c-2.6-2.2-4.6-5.1-5.8-8.3c-0.8-1.7-1.3-3.6-2-5.4c-0.2-1.3-0.4-2.5-0.6-3.8
			c-1.9,7.1-4.3,13.7-11,17.4l6.3,6.1C339,311.7,339.8,313,340.6,314.3L340.6,314.3z"/>
		<path class="st9" d="M279.4,316.4c1.2-0.6,1.9-1,2.7-1.3c1.2-0.4,2.3-1.2,2.9-2.4c2.6-4.8,4.4-9.9,4.3-15.5c0-0.6,0-1.3,0-1.9
			c0.1-0.9,0.1-0.9,1.6-1.8c0.2,0.6,0.3,1.2,0.3,1.8c-0.1,6.7,2.3,12.6,5.8,18.1c0.9,1.3,2.2,2.3,3.6,2.9c0.3,0.1,0.6,0.1,0.9,0.3
			c0.8,0.4,1.8,0.6,1.5,1.8c-0.2,1-1.2,1-2,0.9c-1.3-0.1-2.6,0.3-3.6,1.1c-2.7,2-4.4,5.1-4.8,8.4c-0.3,3.3-0.4,6.7-0.5,10
			c0,0.7,0.2,1.5-1,1.9c-0.4-0.9-0.7-1.9-0.9-2.8c-0.2-4.7-1.7-9-3.4-13.3c-0.8-2.1-1.7-4.1-3.5-5.6c-0.9-0.7-1.5-1.6-2.8-1.6
			C280.3,317.5,280.1,317,279.4,316.4z M291.4,307.9l-0.8-3.2c-1.5,4.8-2.6,9.2-5.6,12.3l3.6,6.5l1.1,2l0.5,2.3
			c0.8-2,1.7-3.9,2.8-5.7c1.2-1.5,2.5-2.9,3.9-4.2c-1.3-2.2-2.6-4.2-3.9-6.4C292.4,310.4,292,309.2,291.4,307.9z"/>
		<path class="st9" d="M422.6,213.7c-0.6,0.5-1.2,0.9-1.8,1.2c-5.2,2.3-7.8,6.4-8.3,11.9c-0.2,2.3-0.3,4.6-0.5,6.9
			c-0.1,0.4-0.3,0.8-0.6,1.2c-1.4-0.2-1.3-1.1-1.3-2c0-3.5-0.6-7-1.8-10.3c-1-3.1-3.2-5.8-6.1-7.4c-0.7-0.4-1.8-0.6-1.5-2
			c1-0.4,2.1-0.9,3.2-1.2c1.5-0.5,2.9-1.5,3.8-2.8c2.2-3.2,3.4-6.9,3.4-10.8c0-1.3-0.1-2.6,0-3.8c0.1-1,0.3-2.1,0.6-3.1
			c1.3-0.2,1.3,0.4,1.3,1.1c0,1.9-0.1,3.8,0,5.8c0.2,4.5,1.8,8.8,4.5,12.4c1,1.6,2.9,2.4,4.8,2.2L422.6,213.7z M409.8,220.7l1.2,2.6
			c1.1-3.8,3.4-7,6.6-9.2c-2.5-2.1-3.6-4.9-4.9-7.4l-0.3-1.6c-1.7,3.8-3.4,7.4-7,9.3L409.8,220.7z"/>
		<path class="st9" d="M358.1,356.8c-0.3-0.7-0.5-1.4-0.7-2.1c-0.2-1.9-0.4-3.8-0.5-5.7c-0.2-3.6-1.6-6.5-5.3-7.7
			c-0.8-0.3-0.8-0.3-1.5-1.6c0.7-0.4,1.5-0.9,2.2-1.2c3-1.2,5.3-3.8,6-7c0.5-2.2,1-4.3,1.5-6.5c0.2-0.8,0.5-1.6,0.9-2.9
			c0.5,0.7,1,1,1,1.4c0.1,1.4,0,2.9,0.1,4.3c0.1,1.8,0.3,3.6,0.6,5.4c0.5,2.5,2,4.8,4.2,6.1c0.6,0.4,1.2,0.8,2,1.5
			c-0.4,0.5-0.8,0.9-1.2,1.3c-0.2,0.2-0.6,0.1-0.9,0.1c-2.7,0.2-5,2.2-5.6,4.8c-0.6,2.2-1,4.5-1.5,6.7c-0.2,1-0.4,2-0.6,3
			L358.1,356.8z M359.4,345.1l4.1-4.6l-2.9-5.1l-0.6-3.1c-1.2,3.5-2.7,6-5.4,7.6c0.9,0.8,1.7,1.7,2.5,2.7c0.7,1.1,1.3,2.2,1.8,3.4
			L359.4,345.1z"/>
		<path class="st10" d="M375.6,143c-0.4,0.9-1.4,1.3-2.3,0.9c-0.1,0-0.1-0.1-0.2-0.1c-5.3-2.7-11.2-2.8-16.9-4
			c-3.7-0.8-7.4-1.3-11.1-1.5c-3.4,0-6.8,0.2-10.2,0.6c-0.4,0-0.8,0.1-1.2,0.2c-10,0.5-19.2,3.7-28.1,8c-1.5,0.9-2.9,1.9-4.3,3.1
			c-3.3,2.5-6.6,5.1-9.8,7.6c-0.8,0.6-1.6,1.3-2.8,1c-0.8-0.9-0.2-1.7,0.4-2.3c2-2.2,4.1-4.2,6.4-6.1c10.1-7.8,21.6-12.4,34.1-14.8
			c1.8-0.3,3.6-0.5,5.5-0.6c4-0.2,8-0.6,11.9-0.4c7.5,0.3,14.9,1.7,21.9,4.3c2.1,0.9,4,1.9,5.9,3.1
			C375.1,142.1,375.3,142.6,375.6,143z"/>
		<path class="st11" d="M315.4,144.4c1.3-0.6,2.7-0.4,3.8,0.5c4.5,2.6,9,5.1,13.4,7.8c5.7,3.5,11.4,7,17,10.7
			c3.4,2.3,6.4,4.9,9.6,7.5c1.9,1.5,3.5,3.2,5.3,4.8c0.8,0.7,1.2,1.7,1.1,2.8c-0.1,1.7-0.9,2.4-2.5,1.8c-1.3-0.5-2.5-1.1-3.6-1.9
			c-7.6-5.4-15.1-10.9-22.6-16.4c-5.3-4-10.4-8.1-15.6-12.2C319.4,148.1,317.6,146.4,315.4,144.4z M336.8,158.8
			c2.9,2.2,5.9,4.4,8.8,6.6c5.5,3.9,11,7.8,16.6,11.8h0.1h-0.1c0.2-1.3-0.8-1.9-1.5-2.5c-7.2-6.3-15.3-11.3-23.4-16.3
			c-1.4-1.1-2.9-2.1-4.5-2.9l-0.3,0.4L336.8,158.8z"/>
		<path class="st10" d="M281.8,166.3c-2.5,2.9-4.3,6.4-7.4,8.9c-0.6-1-0.5-2.4,0.3-3.2c1.4-2,3-3.9,4.6-5.8
			C279.9,165.4,280.7,165.1,281.8,166.3z"/>
		<path class="st11" d="M101.4,342.1c-3.9-3.8-5-8.8-5.8-13.8c-0.6-3.9-0.9-7.7-1-11.6c-0.3-8.2-0.4-16.4-0.5-24.7
			c-0.1-6.4-0.1-12.8,0.1-19.2c0.1-4.3,0.8-8.5,1.2-12.8c0.2-2,0.4-4.1,0.6-6.2c0.1-1.6-0.5-3.2-1.7-4.3c-3.4-3.3-6.8-6.6-9.9-10.1
			c-4.9-5.4-9.7-10.8-14.2-16.5c-4-5.2-7-11.1-8.8-17.5c-1-3.6,0-6.5,3.2-8.4c3.5-1.9,7.3-3.2,11.2-4c5.1-1.2,10.3-1.9,15.6-2.1
			c4.2-0.1,8.4-0.4,12.7-0.4c3.2,0,6.4,0.2,9.6,0.4s6.3,0.5,9.8,0.8c0.5-1.1,1.2-2.2,1.7-3.5c5.9-14.9,11.5-29.9,17.6-44.8
			c3.8-9.3,8.5-18.1,14.1-26.4c2.3-3.4,4.5-7,7.4-10c2.7-2.7,6-4.8,9.6-6.3c1.8-0.7,3.8-0.8,5.6-0.1c2.5,0.7,4.9,2.1,6.8,3.9
			c1.8,2.1,3.6,4,5.3,6.2c5.4,7.4,9.3,15.7,11.8,24.5c2,6.9,4,13.9,5.7,21c1.2,5.3,2,10.8,2.8,16.2s1.3,10.6,1.8,15.9
			c0.2,1.7,0.1,3.4,0.1,5c0,0.7,0.1,1.4,0.1,2.2c0.6,0.1,1,0.1,1.5,0.1c4.7,0,9.4-0.1,14.1,0.1c2.9,0.1,5.7,0.5,8.5,0.8
			c2.2,0.2,4.4,0.4,6.7,0.6c7.6,0.2,15.1,1.3,22.4,3.1c5.5,1.5,11,3.2,16.4,5.2c4.7,1.8,8.8,5,11.7,9.2c1.2,1.8,1.9,3.9,1.9,6
			c0.2,5.2-1.4,10.1-3.3,14.8c-2.9,7.1-7.3,13.3-12.1,19.1c-6.6,7.9-14.3,14.5-22.6,20.6c-0.9,0.4-1.4,1.3-1.3,2.3
			c0.3,5.5,0.6,11,0.9,16.5c0.1,1.7,0,3.4,0,5c0,6.2,0.3,12.5-0.1,18.7c-0.3,5.5-0.2,11-1.2,16.4c-0.7,3.8-0.9,7.7-1.6,11.6
			c-1.3,7.5-3.7,14.7-8.2,21c-2.8,3.8-6,7-10.8,8.3c-3.1,1-6.5,0.9-9.6-0.1c-5.5-1.9-10.8-4-15.2-7.9c-3.6-3.2-7-6.7-10.1-10.5
			c-4.1-5-8-10.3-11.7-15.7c-4.1-5.9-7.6-12.1-10.7-18.5c-3.4-7.1-6.7-14.3-9.8-21.6c-1.3-2.8-2.1-5.9-3.2-9c-0.4,0.2-0.7,0.5-1,0.9
			c-2.5,3.6-4.9,7.3-7.4,10.9c-3.3,4.5-6.5,9.1-10.2,13.3c-4.6,5.3-9.5,10.3-14.4,15.4c-5.1,5.4-11.3,9.7-18.3,12.4
			c-3.9,1.6-8.2,1.2-11.8-1C102.6,342.9,102,342.5,101.4,342.1z M103.1,339.7c0.7,1.5,2.1,2.5,3.8,2.7c2.3,0.2,4.6,0.1,6.9-0.3
			c5.8-1.5,10.6-4.8,14.8-8.9c4.6-4.5,9.1-9.2,13.5-13.9c3.7-4,7.3-8.1,10.6-12.4c4.3-5.6,8.3-11.5,12.5-17.2c0.5-0.6,1-1.1,1.6-1.6
			c0.5,1.1,0.9,1.8,1.2,2.5c2,4.8,3.7,9.7,5.9,14.4c3.8,7.9,7.8,15.7,12,23.5c2,3.9,4.3,7.6,6.9,11.2c4.6,6.7,9.6,13.1,15,19.2
			c2.8,3.2,6,6,9.5,8.3c2.9,1.7,6,3.1,9.1,4.2c6.3,2.4,12,1.3,16.8-3.4c4-4.1,6.8-9.1,8.2-14.7c1.2-4.2,2.1-8.5,2.6-12.9
			c0.5-4.9,1.4-9.8,1.3-14.7c0-0.3,0-0.6,0-1c0.3-4.5,0.8-9,0.8-13.6c0-9.2-0.3-18.4-0.4-27.5c0-1.5,0-3,0-4.6
			c0.1-0.6,0-1.1-0.1-1.7c-0.7-1.7,0.1-2.6,1.4-3.6c3.8-3,7.7-6,11.2-9.3c4.1-3.8,7.9-7.9,11.7-12c4.7-5.2,8.7-11.1,11.6-17.5
			c2.1-4.7,3.9-9.5,3.5-14.7c-0.1-1.6-0.6-3.1-1.4-4.4c-2.8-3.8-6.6-6.7-11.1-8.4c-12-4.7-24.8-7.4-37.7-7.8
			c-2.4-0.1-4.8-0.4-7.1-0.6s-4.9-0.6-7.4-0.7c-4.4-0.1-8.8-0.1-13.2-0.1c-1.3,0-2.6,0-3.8,0.1c-1.1,0-1.7-0.4-1.7-1.5
			c0-0.6,0-1.3,0-1.9c-0.2-3.7-0.3-7.5-0.6-11.2c-0.3-3.6-0.8-7.1-1.3-10.6c-0.7-4.6-1.4-9.3-2.3-13.9c-0.7-3.4-1.7-6.6-2.5-10
			c-2.7-10.7-5.7-21.3-11.2-31c-0.8-1.4-1.8-2.6-2.7-3.9c-1.3-1.9-2.5-3.9-4-5.6c-1.3-1.7-2.9-3.2-4.6-4.5
			c-3.2-2.2-6.6-2.8-10.3-0.7c-4.1,2.3-7.6,5.6-10.3,9.5c-6.3,8.9-11.6,18.3-15.9,28.3c-3.9,9.3-7.5,18.8-11.3,28.2
			c-2.7,6.8-5.2,13.5-8,20.3c-1.8,4.3-2.8,4.6-7.3,3.9c-2.6-0.4-5.2-0.7-7.8-0.7c-7.3,0-14.7,0.2-22,0.4c-5.4,0.2-10.8,1-16,2.5
			c-3.1,0.7-6.1,1.9-8.8,3.6c-1.2,0.7-1.9,2.1-1.6,3.5c0.2,1.6,0.5,3.1,1,4.6c2.2,5.6,5.2,10.8,9,15.5c6.1,7.4,12.5,14.5,19.3,21.2
			c1.1,1.1,2.2,2.1,3.2,3.2c1.3,1.3,2,3,1.9,4.8c0,2.3,0.1,4.6-0.1,6.9c-0.2,3.4-0.8,6.8-0.8,10.2c-0.3,10.1-0.4,20.2-0.5,30.3
			c0,2.6,0.3,5.3,0.4,7.9c0.1,7.2,0.2,14.3,1.6,21.4C98.7,333,100.1,336.7,103.1,339.7z"/>
		<path class="st7" d="M418,267.3c0.2,0.6,0.3,1.3,0.6,2.3c-2.3-0.1-4.5-0.8-6.4-2.1c-2.2-1.6-4.3-3.3-6.4-5.1
			c-12.2-10.2-24.4-20.4-36.5-30.6c-12.2-10.2-24.4-20.3-36.7-30.4c-2.6-2.1-5.2-4.2-7.8-6.3l0.3-0.5l11.6,8
			c0.2,0.2,0.3,0.4,0.5,0.6l0,0l1,0.5l0,0c0.2,0.2,0.3,0.3,0.5,0.5l0,0c0,1,0.7,1.1,1.5,1l0,0c0,1.1,0.9,2,2,2c0.1,0,0.3,0,0.4,0
			l0,0l0.5,0.5l0,0c0.3,0.6,0.6,1.2,1.1,1.7c8.9,6.8,17.9,13.6,26.8,20.4c6.3,4.8,12.4,9.7,18.6,14.6c3.5,2.8,7,5.6,10.4,8.4
			c4.3,3.5,8.5,7,12.8,10.4C414.5,264.6,416.2,266,418,267.3z"/>
		<path class="st12" d="M418,267.3c-1.7-1.4-3.5-2.7-5.2-4.1c-4.3-3.5-8.5-7-12.8-10.4c-3.5-2.8-6.9-5.6-10.4-8.4
			c-6.2-4.9-12.4-9.8-18.6-14.6c-8.9-6.8-17.9-13.6-26.8-20.4c-0.5-0.5-0.8-1.1-1.1-1.7c1.7,1.2,3.4,2.4,5,3.6
			c13.6,10.1,27.3,20.2,40.9,30.5c6.6,5,12.8,10.5,19.2,15.9c2.6,2.2,5.2,4.5,7.7,6.8C416.7,265.4,417.4,266.3,418,267.3z"/>
		<path class="st12" d="M342.6,207.2c-1.1,0.2-2.1-0.5-2.4-1.5c0-0.1,0-0.3,0-0.4L342.6,207.2z"/>
		<path class="st12" d="M340.2,205.3c-0.8,0.1-1.4,0-1.5-1L340.2,205.3z"/>
		<path class="st12" d="M338.3,203.9l-1-0.5L338.3,203.9z"/>
		<path class="st12" d="M343.1,207.7l-0.5-0.5L343.1,207.7z"/>
		<path class="st12" d="M338.7,204.4c-0.2-0.2-0.3-0.3-0.5-0.5C338.4,204,338.6,204.2,338.7,204.4z"/>
		<path class="st12" d="M337.3,203.4c-0.2-0.2-0.4-0.4-0.5-0.6C337,203,337.1,203.2,337.3,203.4z"/>
		<path class="st13" d="M307.4,289.6L307.4,289.6c-0.1-0.5-0.3-0.9-0.4-1.3l0,0c-0.3-0.8-0.6-1.6-0.9-2.4l-3.8-8.5
			c3.2-2.7,4.9-6.6,6.5-10.5c0.6-1.5,1.2-3.1,1.8-4.6c0.9,2.2,1.7,4.5,2.7,6.6c1.5,3,3.8,5.5,6.6,7.4c0.6,0.4,1.3,0.9,2.1,1.5
			c-7.3,2.8-10.8,8.6-13.4,15.9c-0.3-1.2-0.5-2-0.7-2.8L307.4,289.6z"/>
		<path class="st12" d="M310.6,262.4c-0.6,1.5-1.1,3.1-1.8,4.6c-1.6,3.9-3.3,7.8-6.5,10.5c1.3,3,2.6,5.7,3.8,8.5h-0.5
			c-2.1-3.4-4.2-6.8-8.3-8.8c6.8-3.9,11.3-9.2,13-16.6C310.4,261.1,310.5,261.8,310.6,262.4z"/>
		<path class="st8" d="M305.6,285.9h0.5c0.3,0.8,0.6,1.6,0.9,2.4L305.6,285.9z"/>
		<path class="st8" d="M307,288.3c0.2,0.4,0.3,0.8,0.5,1.2C307.4,289.2,307.2,288.8,307,288.3z"/>
		<path class="st8" d="M307.4,289.6l0.6,1.4L307.4,289.6z"/>
		<path class="st13" d="M393,174.6c0.3,0.6,0.7,1.2,1,1.9c1.6,3.7,3.4,7.2,6.6,9.9c1,0.9,2.2,1.6,3.4,2.4c-1.4,1-2.7,1.9-4,3
			c-2.9,2.5-5.1,5.8-6.3,9.4c-1.7-4.2-4.5-8-8.1-10.9C390.4,186.5,393.1,180.7,393,174.6z"/>
		<path class="st12" d="M393,174.6c0,6.1-2.7,11.8-7.4,15.7c3.6,2.9,6.3,6.7,8.1,10.9c-0.1,0.6-0.3,1.2-0.5,2.3
			c-2.5-5.7-5.5-10.5-10.6-13.6c0.1-0.2,0.1-0.3,0.2-0.3c5.6-3.4,8.7-8.5,9.8-14.9c0-0.1,0.1-0.1,0.2-0.1S392.9,174.6,393,174.6z"/>
		<path class="st13" d="M343.5,290.7c0.6,1.8,1.2,3.6,2,5.4c1.2,3.2,3.2,6.1,5.8,8.3c-5.2,3.9-7,9.5-8.9,15.4c-0.3-1-0.6-2-0.9-3
			c0-1,0.3-2.1-1-2.5l0,0c0.3-1.9-0.9-3.1-1.9-4.4l-3.9-5.4c2.9-2.8,5.3-6.2,7-9.9C342.4,293.3,343,292,343.5,290.7z"/>
		<path class="st12" d="M343.5,290.7c-0.6,1.3-1.1,2.6-1.7,3.9c-1.7,3.7-4,7.1-7,9.9l3.9,5.4l-0.5,0.5l-6.3-6.1
			c6.7-3.6,9.2-10.2,11-17.4C343.1,288.2,343.3,289.5,343.5,290.7z"/>
		<path class="st8" d="M338.2,310.4l0.5-0.5c1,1.3,2.2,2.5,1.9,4.4C339.8,313,339,311.7,338.2,310.4z"/>
		<path class="st8" d="M340.6,314.3c1.3,0.5,1,1.6,1,2.5L340.6,314.3z"/>
		<path class="st13" d="M291.4,307.9c0.6,1.2,1,2.5,1.7,3.7c1.2,2.1,2.5,4.2,3.9,6.4c-1.4,1.3-2.7,2.7-3.9,4.2
			c-1.1,1.8-2,3.7-2.8,5.7l-0.5-2.3c0.1-3-1.6-5.4-2.7-8.1c1.8-2.7,3.1-5.7,3.8-8.9C290.9,308.4,291.2,308.2,291.4,307.9z"/>
		<path class="st12" d="M291.4,307.9c-0.2,0.2-0.5,0.4-0.6,0.7c-0.8,3.1-2,6.1-3.8,8.9c1.2,2.7,2.8,5.1,2.7,8.1l-1.1-2L285,317
			c3-3.1,4.1-7.5,5.6-12.3L291.4,307.9z"/>
		<path class="st7" d="M412.8,206.6c1.3,2.6,2.4,5.3,4.9,7.4c-3.2,2.2-5.6,5.4-6.6,9.2c-0.5-1.2-0.8-1.9-1.2-2.6
			c0.1-0.6,0.1-1.1,0-1.7c-0.6-1.4-1.4-2.8-2-3.9c1.2-1.7,2.3-3.3,3.4-5C411.7,208.9,412.3,207.8,412.8,206.6z"/>
		<path class="st8" d="M412.8,206.6c-0.5,1.2-1,2.3-1.6,3.4c-1,1.7-2.2,3.2-3.4,5c0.6,1.1,1.3,2.5,2,3.9c0.1,0.6,0.1,1.1,0,1.7
			l-4.3-6.3c3.6-1.9,5.3-5.5,7-9.3C412.5,205.6,412.6,206.1,412.8,206.6z"/>
		<path class="st7" d="M360.7,335.3l2.9,5.1l-4.1,4.6c-0.3-1.2-0.7-2.4-1.1-3.6c-0.4-0.7-0.4-1.6,0.1-2.2
			C359.2,337.9,359.9,336.6,360.7,335.3z"/>
		<path class="st8" d="M360.7,335.3c-0.8,1.3-1.5,2.6-2.3,3.9c-0.4,0.7-0.5,1.5-0.1,2.2c0.5,1.2,0.8,2.4,1.1,3.6
			c-0.1,0.2-0.2,0.4-0.4,0.9c-0.5-1.2-1.2-2.3-1.8-3.4c-0.8-0.9-1.6-1.8-2.5-2.7c2.7-1.6,4.2-4.2,5.4-7.6L360.7,335.3z"/>
		<path class="st14" d="M337.3,158.3c8.1,5,16.1,10,23.4,16.3c0.7,0.6,1.7,1.3,1.5,2.5l0,0c-5.5-3.9-11.1-7.8-16.6-11.8
			c-3-2.1-5.9-4.4-8.8-6.6L337.3,158.3z"/>
		<path class="st8" d="M337.3,158.3l-0.5,0.5l-4.2-3l0.3-0.4C334.4,156.2,335.9,157.2,337.3,158.3z"/>
		<polygon class="st14" points="362.2,177.1 362.3,177.1 362.2,177.1 		"/>
		<path class="st15" d="M103.1,339.7c-3-3-4.4-6.7-5.2-10.8c-1.4-7.1-1.5-14.3-1.6-21.4c0-2.6-0.4-5.3-0.4-7.9
			c0.1-10.1,0.2-20.2,0.5-30.3c0.1-3.4,0.6-6.8,0.8-10.2c0.1-2.3,0-4.6,0.1-6.9c0-1.8-0.7-3.5-1.9-4.8c-1.1-1.1-2.1-2.1-3.2-3.2
			c-6.8-6.7-13.3-13.8-19.3-21.2c-3.8-4.7-6.8-9.9-9-15.5c-0.5-1.5-0.8-3.1-1-4.6c-0.2-1.4,0.4-2.8,1.6-3.5c2.7-1.7,5.7-2.9,8.8-3.6
			c5.2-1.5,10.6-2.3,16-2.5c7.3-0.1,14.7-0.3,22-0.4c2.6,0,5.2,0.3,7.8,0.7c4.6,0.7,5.6,0.4,7.3-3.9c2.8-6.7,5.3-13.5,8-20.3
			c3.7-9.4,7.3-18.9,11.3-28.2c4.3-10,9.6-19.5,15.9-28.3c2.6-3.9,6.1-7.2,10.2-9.5c3.8-2.1,7.1-1.5,10.3,0.7
			c1.8,1.3,3.3,2.8,4.7,4.5c1.5,1.7,2.7,3.7,4,5.6c0.2,0.7,0.3,1.4,0.6,2c0.9,2.8,2.1,5.5,2.7,8.4c1.8,7.8,3.4,15.7,5,23.5
			c0.5,2.2,0.9,4.3,1.3,6.5c0.3,1.9,0.4,3.8,0.5,5.7c0.3,4.4,0.7,8.7,0.9,13.1c0.1,1.9,0,3.8,0.1,5.7c0.1,2.2,0.4,4.4,0.4,6.6
			c0.1,3.8,0.2,7.5-0.1,11.3c-0.3,2.5,1.2,5,3.5,5.9c3,1.6,6.2,2.9,9.6,3.7c5,1,9.9,2.3,15,2.7c4.3,0.3,8.6,1.2,12.9,1.8
			c-0.1,0.6-0.1,1.1,0,1.7c0.7,3.9,0.6,7.9-0.1,11.9c-1.1,5-3.6,9-8.4,11.1c-0.8,0.4-1.5,0.8-2.2,1.3v0.6c0.8,0.3,1.7,0.6,2.5,1
			c1.5,0.6,3,1.3,4.4,2.2c1.5,1.2,2.9,2.5,4.1,4c2.7,3.3,5.1,6.7,6,11c0.2,0.8,0.5,1.7,0.9,2.5c0.3,0.7,0.8,0.7,1.3,0.3
			c-0.3,1.3-1.5,1.8-2.4,2.4c-4.7,3.1-9.4,6.1-14.1,9c-1.7,1-2.9,2.4-3,4.3c-0.1,2,0.1,4,0.5,5.9c0.6,3.3,1.6,6.5,2.3,9.7
			c0.8,3.9,1.3,7.8,2,11.7c0.8,4.9,1.3,9.8,1.3,14.7c0,3.3-0.3,6.7-0.4,10c-0.2,4.1-1,8.2-2.6,12.1c-1.3,2.8-2.7,5.6-4.2,8.3
			c-2.1,3.6-6.6,4.8-10.2,2.7c0,0,0,0,0,0c-2.6-1.5-5.1-3.2-7.4-5.1c-5.3-4.8-10.1-10.2-14.2-16.1c-3.9-5.8-7.4-11.8-10.5-18.1
			c-2.6-5-5-10.2-7.4-15.3c-1.7-3.5-3.3-7.1-4.8-10.7c-0.1-0.5-0.1-1,0-1.4c6.6,5.2,13.1,10.4,19.7,15.5
			c7.1,5.6,14.1,11.2,21.2,16.8c1.4,0.9,2.9,1.7,4.4,2.3c0.8,0.5,2,0.4,2.6-0.3c0.9-0.8,1.2-2,0.8-3.1c-0.4-1-0.9-2-1.5-3
			c-3.5-4.6-8.1-8.1-12.6-11.6c-2.6-2-5.4-3.9-8.1-5.9c-6.7-4.9-13.4-9.8-20.1-14.6c-4.1-3-8.3-5.9-12.5-8.8
			c-0.7-3.1-2.6-7.4-3.8-8.5c-1.7,0.8-2.3,2.4-3,4c-3.4-2.1-6.8-4.1-10.1-6.3c-6.2-3.9-12.3-7.9-18.5-11.8c-0.6-0.4-1-1.1-1.9-0.4
			c0,0.2-0.1,0.6,0,0.6c9.2,7.5,18.5,15,27.8,22.5c-0.2,0.8-0.4,1.7-0.8,2.5c-1.3,2.5-2.7,4.9-4.1,7.3c-2.7,4.7-5.3,9.4-8.1,14
			c-2.1,3.5-4.4,6.8-6.6,10.2c-1.6,2.4-3.2,4.7-4.8,7.1c-2.4,3.5-4.8,6.9-7.2,10.3c-2.9,4-5.4,8.5-9.7,11.4
			c-1.1,0.8-2.2,1.5-3.3,2.3C112.3,338,108,339.9,103.1,339.7z M103.4,212.5l-0.3,0.8c0.6,0.5,1.2,1,1.8,1.4
			c11.2,7.8,22.5,15.5,33.7,23.3c15.9,10.9,31.8,21.7,47.7,32.6c10.3,7.1,20.7,14.2,31.1,21.2c2.3,1.4,4.7,2.7,7.1,3.9
			c1.2,0.8,2.9,0.7,4-0.3c1-1,1.1-2.3,0.3-4.2c-0.9-1.9-2.2-3.5-3.9-4.8c-2.2-1.7-4.5-3.4-6.8-4.9c-8.3-5.3-16.7-10.6-25-15.9
			c-2.5-1.6-4.9-3.3-7.4-4.9c-5-3.2-10.2-6.3-15.1-9.7c-10.8-7.2-22.1-13.9-33.6-19.9c-3.3-1.7-6.5-3.4-9.7-5.2
			c-7.3-4.2-14.4-8.5-21.7-12.8C104.8,212.8,104.2,212.6,103.4,212.5L103.4,212.5z M110.8,207.3l-0.4,0.3c0.1,0.5,0.1,1,0.4,1.4
			c0.5,0.4,1,0.8,1.5,1.1c17.5,11.5,34.9,23,52.4,34.5c8.9,5.8,17.8,11.6,26.7,17.4c1.3,0.8,2.7,1.3,4.1,1.7c1,0.4,2.2-0.1,2.7-1
			c0.7-0.9,0.7-2.1,0-2.9c-0.8-1.2-1.8-2.2-2.9-3.1c-5-3.4-10-6.8-15.2-10c-6.8-4.3-13.6-8.7-20.6-12.6
			c-10.1-5.6-20.1-11.5-30.6-16.4c-5.6-2.7-10.9-5.7-16-9.2C112.3,208.1,111.5,207.7,110.8,207.3z M180.7,105.6
			c-1.7-1.3-2.9-1.7-4.6-1.1c-4.7,1.8-8.9,4.9-11.8,9c-4.3,5.7-8,11.7-11.2,18c-3.8,7.5-7.1,15.1-10,23c-1.3,3.3-2.6,6.5-3.8,9.8
			c-0.6,1.8-1.2,3.6,0.2,5.3c1.6-0.2,2.1-1.3,2.6-2.4c2.4-5.8,4.8-11.6,7.2-17.4c1.9-4.6,3.7-9.1,5.8-13.6c3.8-8.6,9-16.5,15.4-23.5
			c2.3-2.5,4.8-5,8.3-5.8C179.3,106.8,179.8,106.2,180.7,105.6z M166.8,184c0.9-1.4,1.4-3.1,1.6-4.7c0.8-4.2,1.8-8.3,4.2-11.8
			s5.8-5.6,10.4-4.5c0.8,0.3,1.8-0.1,2.1-0.9c0-0.1,0.1-0.2,0.1-0.4c-1-0.6-2-1.4-3.1-1.9c-2.1-1.1-4.2-2.5-5.3-4.7
			c-2.3-4.2-3.1-9.1-2.4-13.9c0.3-1.9,0.6-3.7,0.9-5.6c-1.6-0.1-1.6-0.1-1.9,1c-0.4,2-0.9,4-1.6,6c-2.7,6.7-6.7,12-14.7,12.4
			c-1,0.1-1.4,0.7-1.1,1.6c1.8,0.6,3.4,1.7,4.7,3.2c3.2,3.7,4.9,8.5,4.7,13.4c0,2.5,0,4.9,0,7.4C165.5,181.9,165.9,183.1,166.8,184z
			 M159.9,195.4c-1.4-0.9-2.2-1.4-3.1-1.9c-1.8-1-3.3-2.5-4.4-4.3c-3-5-4.5-10.4-2.9-16.2c0.4-1.2,0.4-2.5,0-3.7
			c-0.4,0.3-1,0.5-1.1,0.8c-0.4,1.2-0.8,2.4-1,3.7c-0.5,3.2-1.6,6.2-3.1,9c-1.5,2.8-3.3,5.5-6.2,7.1c-1.9,0.9-3.8,1.7-5.7,2.4
			c-0.5,0.3-1,0.7-1.4,1.1c0.4,0.4,0.9,0.8,1.4,1.1c1.2,0.4,2.3,0.9,3.4,1.5c2.3,1.6,4,4,4.8,6.7c1.2,3.3,1.8,6.8,1.9,10.3
			c-0.1,1.3,0.3,2.6,1.2,3.5c1.1-1.4,1.2-3.1,1.7-4.5c0.7-2.4,1.5-4.7,2.6-6.9c2.2-3.9,5.2-7.3,9.9-8.4
			C158.6,196.2,159.3,195.8,159.9,195.4L159.9,195.4z M73.7,197.1c-2.4,0.8-4.8,1.8-7.1,2.9c-1.6,0.9-2.4,2.8-1.7,4.6
			c0.6,2.8,1.8,5.5,3.3,7.9c2.8,3.9,5.6,8,8.6,11.8c2.5,3.2,5.3,6.1,8.1,9.1c0.9,0.9,2,1.6,3.2,2.1c1.3,0.6,2.3-0.2,2-1.6
			c-0.1-0.9-0.5-1.8-1.1-2.6c-3.1-3.6-6.2-7.2-9.4-10.8c-3.5-3.9-6.9-7.9-9.4-12.6c-2-3.6-1.3-4.7,2-6c1-0.3,1.9-0.9,2.7-1.6
			c0.4-0.7,0.5-1.4,0.4-2.2C75.1,197.8,74.3,197.5,73.7,197.1L73.7,197.1z M161.5,209c0.5,0.7,1.2,1.3,1.8,1.9
			c5.5,3.6,10.9,7.3,16.5,10.7c6.9,4.2,13.9,8.1,20.9,12.1c2.4,1.3,4.8,2.6,7.2,3.7c0.6,0.3,1.3,0.2,1.9-0.1
			c0.7-0.6,0.8-1.6,0.2-2.3c0,0,0,0,0,0c-0.7-1.1-1.6-2.2-2.6-3.1c-2.2-1.6-4.5-3.1-6.8-4.4c-6.7-3.6-13.5-7.2-20.4-10.7
			c-5.4-2.8-10.9-5.3-16.4-8C163.2,208.6,162.5,207.8,161.5,209z M106.1,289.6c0.8,0.6,1.3,1.1,1.9,1.4c2.1,1.2,3.7,3.1,4.6,5.4
			c1,2.3,1.6,4.9,1.6,7.4c-0.2,1.2,0.3,2.3,1.3,3c0.3-1.2,0.4-2.5,0.6-3.7c0.2-3,1.3-6,3.2-8.4c1.3-2,3.5-3.2,5.8-3.2
			c-0.3-1.3-0.3-1.3-0.8-1.7c-1.1-0.7-2-1.5-2.9-2.4c-2.3-2.9-3.7-6.4-3.8-10.1c-0.1-1.8-0.4-3.5-0.6-5.3l-0.6-0.1
			c-0.3,0.4-0.5,0.8-0.6,1.2c-0.4,1.9-0.6,3.8-1.1,5.6c-1,3.9-2.8,7.3-6.6,9.3C107.4,288.5,106.7,289,106.1,289.6L106.1,289.6z
			 M103.3,251.6h-0.2c0-0.8,0-1.6,0-2.4c-0.3-3.4-1.5-6.5-4.2-8.8c-1-1-2.6-1.1-3.7-0.1c-0.1,0.1-0.2,0.2-0.3,0.4
			c-0.8,1-0.6,2,0.9,3.2c2.9,2.3,4.5,5.9,4.4,9.6c0,0.9,0,1.8,0,2.6c-0.1,0.7,0.4,1.4,1.2,1.4c0,0,0.1,0,0.1,0c0.4,0,1-0.7,1.1-1.2
			C103,254.7,103.1,253.1,103.3,251.6L103.3,251.6z M131.4,187.7c0.7-0.2,1.4-0.5,2-0.9c2.5-2.5,4.3-5.3,4.3-9
			c0-0.8,0.1-1.7-0.8-2.1c-0.9-0.3-1.8,0-2.3,0.8c-2,2.4-3.2,5.3-3.6,8.4C131,185.9,131.2,186.8,131.4,187.7L131.4,187.7z"/>
		<path class="st16" d="M243.4,211.1c-4.3-0.6-8.6-1.5-12.9-1.8c-5.1-0.4-10-1.7-15-2.7c-3.3-0.8-6.5-2-9.6-3.7
			c-2.4-1-3.8-3.4-3.5-5.9c0.3-3.7,0.1-7.5,0.1-11.3c0-2.2-0.3-4.4-0.4-6.6c-0.1-1.9,0.1-3.8-0.1-5.7c-0.3-4.4-0.6-8.7-0.9-13.1
			c-0.1-1.9-0.2-3.8-0.5-5.7c-0.3-2.2-0.8-4.4-1.3-6.5c-1.7-7.8-3.3-15.7-5-23.5c-0.7-2.8-1.8-5.6-2.7-8.4c-0.2-0.7-0.4-1.4-0.6-2
			c0.9,1.3,1.9,2.5,2.7,3.9c5.5,9.7,8.5,20.3,11.2,31c0.8,3.3,1.8,6.6,2.5,10c0.9,4.6,1.6,9.2,2.3,13.9c0.5,3.5,1,7.1,1.3,10.6
			c0.3,3.7,0.4,7.5,0.6,11.2c0,0.6,0,1.3,0,1.9c0,1.1,0.6,1.6,1.7,1.5c1.3-0.1,2.6-0.1,3.8-0.1c4.4,0,8.8,0,13.2,0.1
			c2.4,0.1,4.9,0.5,7.4,0.7s4.7,0.5,7.1,0.6c12.9,0.4,25.7,3,37.7,7.8c4.4,1.7,8.3,4.6,11.1,8.4c0.9,1.3,1.4,2.9,1.4,4.4
			c0.4,5.2-1.4,10.1-3.5,14.7c-3,6.3-6.9,12.2-11.6,17.3c-3.7,4.2-7.6,8.2-11.7,12c-3.5,3.3-7.4,6.3-11.2,9.3
			c-1.3,1-2.1,1.9-1.4,3.6c0.1,0.5,0.2,1.1,0.1,1.7c0,1.5,0,3,0,4.6c0.1,9.2,0.4,18.4,0.4,27.5c0,4.5-0.5,9-0.8,13.6
			c0,0.3,0,0.6,0,1c0.1,5-0.9,9.8-1.3,14.7c-0.5,4.4-1.3,8.7-2.6,12.9c-1.4,5.5-4.2,10.6-8.2,14.7c-4.8,4.7-10.5,5.8-16.8,3.4
			c-3.1-1.1-6.2-2.6-9.1-4.2c-3.6-2.3-6.8-5.1-9.5-8.3c-5.4-6.1-10.4-12.5-15-19.2c-2.5-3.6-4.8-7.3-6.9-11.2
			c-4.1-7.8-8.2-15.6-12-23.5c-2.2-4.7-4-9.6-5.9-14.4c-0.3-0.7-0.7-1.4-1.2-2.5c-0.6,0.5-1.1,1.1-1.6,1.6
			c-4.2,5.7-8.2,11.6-12.5,17.2c-3.3,4.3-6.9,8.4-10.6,12.4c-4.4,4.8-8.9,9.4-13.5,13.9c-4.2,4.1-9,7.4-14.8,8.9
			c-2.3,0.4-4.6,0.6-6.9,0.3c-1.6-0.2-3-1.2-3.8-2.7c4.9,0.1,9.1-1.7,13-4.6c1.1-0.8,2.2-1.6,3.3-2.3c4.3-2.9,6.7-7.3,9.7-11.4
			c2.5-3.4,4.8-6.9,7.2-10.3c1.6-2.3,3.3-4.7,4.8-7.1c2.2-3.4,4.5-6.7,6.6-10.2c2.8-4.6,5.4-9.4,8.1-14c1.4-2.4,2.8-4.8,4.1-7.3
			c0.3-0.8,0.6-1.6,0.8-2.5l15.8,12.5c-0.1,0.5-0.1,1,0,1.4c1.6,3.6,3.2,7.1,4.8,10.7c2.4,5.1,4.8,10.3,7.4,15.3
			c3.1,6.3,6.6,12.3,10.5,18.2c4.1,5.9,8.9,11.3,14.2,16.1c2.3,1.9,4.8,3.7,7.4,5.1c3.6,2.1,8.1,0.9,10.2-2.7c0,0,0,0,0,0
			c1.6-2.7,3-5.4,4.2-8.3c1.5-3.9,2.4-8,2.6-12.1c0.1-3.3,0.5-6.7,0.4-10c0-4.9-0.5-9.8-1.3-14.7c-0.7-3.9-1.2-7.8-2-11.7
			c-0.6-3.3-1.6-6.5-2.3-9.7c-0.4-1.9-0.6-3.9-0.5-5.9c0.1-2,1.4-3.3,3-4.3c4.7-2.9,9.4-5.9,14.1-9c1-0.6,2.1-1.1,2.4-2.4l0,0
			c0.8-0.2,1.5-0.5,2.1-1c1.8-1.5,3.5-3,5.2-4.6c2.6-2.7,5-5.6,7.7-8.1c3-2.9,5.6-6.1,7.7-9.7c3-5.1,2.1-11-2-14.6
			c-1.6-1.4-3.8-2.2-5.8-3.2c-5.5-2.8-11.4-4.6-17.5-5.3l-4.3-0.4L243.4,211.1z"/>
		<path class="st17" d="M103.4,212.4c0.7,0.1,1.4,0.3,2.1,0.6c7.2,4.2,14.4,8.5,21.7,12.8c3.2,1.8,6.4,3.5,9.7,5.2
			c11.6,6,22.8,12.6,33.6,19.8c5,3.3,10.1,6.4,15.1,9.7c2.5,1.6,4.9,3.3,7.4,4.9c8.3,5.3,16.7,10.6,25.1,15.9
			c2.3,1.5,4.6,3.2,6.8,4.9c1.7,1.2,3,2.9,3.9,4.8c0.8,1.9,0.8,3.2-0.3,4.2c-1.1,1-2.8,1.1-4,0.3c-2.4-1.1-4.8-2.4-7.1-3.9
			c-10.4-7-20.7-14.1-31.1-21.2c-15.9-10.8-31.8-21.7-47.6-32.6c-11.3-7.7-22.5-15.5-33.7-23.3c-0.6-0.4-1.2-0.9-1.8-1.4
			L103.4,212.4z M191,267.2l-0.5-0.5l0,0l-1-0.5l0,0l-0.5-0.5l0,0l-1-0.6l-2.1-1.3l-0.8-0.5l0,0l-1-0.5l0,0l-0.5-0.5l0,0l-1-0.5l0,0
			l-1-0.5l0,0l-1.4-1l0,0c-0.2-0.3-0.5-0.6-0.8-0.8c-6.7-4.3-13.5-8.7-20.3-12.9c-2.3-1.5-4.8-2.7-7.2-4l0,0l-2.1-1.4l-11-6.2
			l-2.5-1.5l-0.2,0.4l2.3,1.5l8.1,5.4c0.4,0.3,0.7,0.6,1.1,0.9c22,15,44,30,66,45c2.8,1.9,5.7,3.5,8.6,5.2c0.8,0.4,1.6,0.7,2.5,0.8
			c0.7-0.1,1.4-0.2,2-0.5l-2.2-2.4l-0.6-0.5l0,0l-1.9-1.5l0,0l-1.9-1.5l0,0l-2.9-2.3l0,0l-1.4-1l0,0c-0.2-0.2-0.4-0.5-0.6-0.7
			c-3.3-2.3-6.5-4.5-9.8-6.8c-0.8-0.5-1.7-0.9-2.5-1.2l0,0l-1.5-1l0,0l-1-0.5l0,0l-1.5-1l0,0l-2.4-1.5l0,0l-1.5-1l0,0l-1.5-1l0,0
			l-1.5-1l0,0l-1-0.5L191,267.2z"/>
		<path class="st18" d="M176.6,282.6l-15.8-12.5c-9.2-7.5-18.5-15-27.8-22.5c-0.1-0.1,0-0.4,0-0.6c0.9-0.7,1.4,0.1,1.9,0.4
			c6.2,3.9,12.3,7.9,18.5,11.8c3.4,2.1,6.8,4.2,10.1,6.3l6.8,4.5c4.2,2.9,8.4,5.9,12.5,8.8c6.7,4.8,13.4,9.7,20.1,14.6
			c2.7,2,5.5,3.8,8.1,5.9c4.5,3.5,9.1,7,12.6,11.6c0.6,0.9,1.1,1.9,1.5,3c0.4,1.1,0.1,2.3-0.8,3.1c-0.7,0.7-1.8,0.9-2.6,0.3
			c-1.5-0.6-3-1.4-4.4-2.3c-7.1-5.5-14.1-11.2-21.2-16.8C189.7,292.9,183.2,287.7,176.6,282.6z M219.7,309.4L219.7,309.4l-0.5-0.5
			l0,0c-0.3-0.4-0.7-0.9-1.1-1.2c-3.1-2.4-6.2-4.8-9.3-7.1c-8.2-6-16.4-11.9-24.6-17.8c-3.6-2.6-7.3-5-11-7.6v0.1l-0.5-0.5
			c-4.5-3.6-9.5-6.4-14.3-9.5c0.4,0.7,1,1.2,1.6,1.7c2.8,2.2,5.6,4.4,8.5,6.6c1.6,1.2,3.2,2.4,4.8,3.6l0.1,0.1l0.4,0.3l14.9,11.7
			l0.5,0.4l0.1,0l0.4,0.4l1.4,1.1l1.4,1l0,0c0.6,0.6,1.2,1.3,1.9,1.8c2.5,2,5.1,4,7.7,6.1l16.7,13.2c1.2,1.2,2.8,1.8,4.5,1.9
			c-0.4-2.3-1.8-3.7-3-5.2L219.7,309.4z"/>
		<path class="st18" d="M110.8,207.3c0.7,0.4,1.5,0.8,2.2,1.3c5.1,3.4,10.4,6.5,16,9.2c10.5,4.9,20.5,10.8,30.6,16.4
			c7,3.9,13.8,8.3,20.6,12.6c5.1,3.2,10.2,6.6,15.2,10c1.1,0.9,2.1,1.9,2.9,3.1c0.7,0.9,0.7,2.1,0,2.9c-0.6,0.9-1.7,1.4-2.7,1
			c-1.4-0.4-2.8-1-4.1-1.7c-8.9-5.8-17.8-11.6-26.7-17.4c-17.5-11.5-34.9-23-52.4-34.5c-0.6-0.3-1.1-0.7-1.5-1.1
			c-0.3-0.3-0.3-0.9-0.4-1.4L110.8,207.3z M150.2,232.7c0.2,0.2,0.4,0.3,0.6,0.5l37.1,24.2c1.9,1.2,3.7,2.5,5.6,3.6
			c0.9,0.5,1.9,1.2,3.2,0.5c-0.2-0.3-0.4-0.6-0.6-0.9c-1.5-1.1-2.9-2.2-4.4-3.2c-3.8-2.6-7.5-5.1-11.3-7.6c-6-3.8-12-7.5-18.1-11.2
			c-3.8-2.3-7.6-4.3-11.4-6.5c-1.6-1.2-3.4-2.1-5.3-2.5L150.2,232.7z"/>
		<path class="st19" d="M180.7,105.6c-0.9,0.6-1.4,1.2-2,1.3c-3.6,0.8-6,3.3-8.3,5.8c-6.3,7-11.5,14.9-15.4,23.5
			c-2.1,4.5-3.9,9.1-5.8,13.6c-2.4,5.8-4.8,11.6-7.2,17.4c-0.5,1.1-1,2.2-2.6,2.4c-1.4-1.7-0.9-3.5-0.2-5.3c1.2-3.3,2.5-6.5,3.8-9.8
			c2.9-7.9,6.2-15.5,10-23c3.2-6.3,7-12.3,11.2-18c3-4.1,7.1-7.2,11.8-9C177.8,104,179,104.3,180.7,105.6z"/>
		<path class="st20" d="M166.8,184c-0.9-0.9-1.3-2.1-1.2-3.3c0-2.5,0-4.9,0-7.4c0.1-4.9-1.5-9.7-4.7-13.4c-1.3-1.4-2.9-2.5-4.7-3.2
			c-0.3-1,0-1.6,1.1-1.6c8-0.4,12-5.7,14.7-12.4c0.6-2,1.1-4,1.6-6c0.3-1.2,0.4-1.2,1.9-1c-0.3,1.9-0.6,3.7-0.9,5.6
			c-0.7,4.7,0.2,9.6,2.4,13.8c1.1,2.3,3.1,3.6,5.3,4.7c1.1,0.6,2.1,1.3,3.1,1.9c-0.1,0.9-1,1.5-1.8,1.3c-0.1,0-0.2-0.1-0.4-0.1
			c-4.6-1.1-7.9,1-10.4,4.5s-3.5,7.6-4.2,11.8C168.2,180.9,167.7,182.6,166.8,184z M169,169.1c2-3.7,4.4-6.8,8.7-8.1
			c0.1,0,0.2-0.2,0.3-0.5c-2.6-2.5-4.3-5.8-4.9-9.3c-0.1-0.4-0.2-0.8-0.4-1.1l-0.1-2.4c-2.6,4.2-6.4,7.6-10.8,9.8
			c3.9,4,5.6,8.6,6.5,13.8C168.5,170.6,168.8,169.8,169,169.1z"/>
		<path class="st17" d="M159.9,195.4c-0.6,0.5-1.3,0.9-2,1.2c-4.7,1.1-7.7,4.5-9.9,8.4c-1.1,2.2-1.9,4.5-2.6,6.9
			c-0.5,1.5-0.6,3.1-1.7,4.5c-0.9-0.9-1.3-2.2-1.2-3.5c0-3.5-0.7-7-1.9-10.3c-0.8-2.7-2.5-5.1-4.8-6.7c-1.1-0.6-2.3-1.1-3.4-1.5
			c-0.5-0.3-0.9-0.7-1.4-1.1c0.4-0.4,0.9-0.8,1.4-1.1c1.9-0.7,3.8-1.5,5.7-2.4c2.9-1.6,4.7-4.3,6.2-7.1c1.5-2.8,2.6-5.8,3.1-9
			c0.2-1.3,0.6-2.5,1-3.7c0.1-0.3,0.6-0.5,1.1-0.8c0.4,1.2,0.4,2.5,0,3.7c-1.6,5.9-0.1,11.2,2.9,16.2c1.1,1.8,2.6,3.3,4.4,4.3
			C157.6,193.9,158.5,194.5,159.9,195.4z M143.4,203l0.5,1.2l0.3,1.6c2.4-4.2,5.8-7.7,9.9-10.2c-1.1-1.2-2.2-2.4-3.1-3.8
			c-1.4-2.5-2.4-5.2-3.6-7.8l-0.4-2.4c-2.4,5.2-5.2,9.5-10.3,12c3,2.1,5.3,5.2,6.4,8.7L143.4,203z"/>
		<path class="st20" d="M243.4,211.1l1.6,0.5c0.6,5.9,2.8,11.5,6.6,16.1c2.5,3.1,5.9,4.6,9.8,5.4c0.6,1.4-0.5,1.7-1.4,2.2
			c-3,1.4-5.3,4-6.4,7.1c-1.2,4.1-1.7,8.4-1.5,12.7c0,1.2-0.1,2.3-0.1,3.5l0,0c-0.5,0.4-1,0.4-1.3-0.3c-0.4-0.8-0.7-1.6-0.9-2.5
			c-0.9-4.3-3.3-7.7-6-11c-1.2-1.5-2.6-2.8-4.1-4c-1.4-0.9-2.9-1.6-4.4-2.2c-0.8-0.4-1.6-0.7-2.5-1v-0.6c0.7-0.5,1.4-0.9,2.1-1.2
			c4.9-2.1,7.4-6.1,8.4-11.1c0.8-3.9,0.8-7.9,0.1-11.9C243.4,212.3,243.3,211.7,243.4,211.1z M246,243.3l0.6,1.4l2.8,4.2
			c0.9-2.8,1.6-5.4,2.4-7.9c0.9-2.7,2.9-4.6,5.1-6.5c-3-1-5.6-3-7.4-5.6c-0.8-1.2-1.6-2.4-2.4-3.6l-1.4-3.1h-0.6
			c0,5.8-2.7,11.4-7.3,14.9c2.8,1.5,5.2,3.5,7.2,5.9C245.4,243.2,245.7,243.2,246,243.3L246,243.3z"/>
		<path class="st19" d="M73.7,197.1c0.6,0.4,1.4,0.6,1.4,1c0.2,0.7,0,1.5-0.4,2.2c-0.8,0.7-1.7,1.2-2.7,1.6c-3.3,1.3-4,2.4-2,6
			c2.5,4.7,6,8.6,9.4,12.6c3.2,3.6,6.3,7.2,9.4,10.8c0.6,0.7,1,1.6,1.2,2.5c0.2,1.4-0.7,2.2-2,1.6c-1.2-0.5-2.2-1.2-3.2-2.1
			c-2.8-3-5.6-5.9-8.1-9.1c-3-3.8-5.7-7.8-8.6-11.8c-1.6-2.4-2.7-5.1-3.3-7.9c-0.7-1.7,0-3.7,1.7-4.6C69,198.9,71.3,198,73.7,197.1z
			"/>
		<path class="st17" d="M161.5,209c1-1.2,1.7-0.4,2.3-0.1c5.5,2.6,11,5.2,16.4,8c6.8,3.5,13.6,7,20.4,10.7c2.4,1.3,4.7,2.8,6.8,4.4
			c1,0.9,1.9,1.9,2.6,3.1c0.6,0.7,0.5,1.7-0.1,2.3c0,0,0,0,0,0c-0.6,0.3-1.3,0.3-1.9,0.1c-2.4-1.2-4.9-2.4-7.2-3.7
			c-7-4-14.1-7.9-20.9-12.1c-5.6-3.4-11-7.1-16.5-10.7C162.7,210.4,162,209.7,161.5,209z M182.8,220.8c-0.4-0.9-1.5-1.4-2.5-1.1
			l2.5,1.3l3.4,2.1l13.9,7.8l0.5,0.3c0.1,0.1,0.3,0.2,0.4,0.2l6.4,3.9c-1.1-1.8-2.8-3.1-4.8-3.9c-0.3-0.4-0.7-0.7-1.1-0.9
			c-4.9-2.6-9.9-5.1-14.8-7.7L182.8,220.8z"/>
		<path class="st18" d="M106.1,289.6c0.6-0.5,1.3-1,1.9-1.4c3.8-2,5.5-5.4,6.6-9.3c0.5-1.8,0.7-3.7,1.1-5.6c0.2-0.4,0.4-0.9,0.6-1.2
			l0.6,0.1c0.2,1.8,0.5,3.5,0.6,5.3c0.2,3.7,1.5,7.2,3.8,10.1c0.9,0.9,1.9,1.7,2.9,2.4c0.5,0.4,0.5,0.3,0.8,1.7
			c-2.3,0-4.5,1.2-5.8,3.2c-1.9,2.4-3,5.3-3.2,8.4c-0.1,1.2-0.3,2.5-0.6,3.7c-1-0.7-1.5-1.8-1.3-3c0-2.6-0.6-5.1-1.6-7.4
			c-0.9-2.2-2.5-4.1-4.6-5.4C107.4,290.6,106.9,290.2,106.1,289.6z M114.6,284.5L114.6,284.5c-0.7,1-1.3,2-2.1,2.8s-1.8,1.7-2.6,2.5
			c1.1,1.2,2.2,2.4,3.2,3.8c0.9,1.4,1.6,2.8,2.3,4.3l0.4-1.4c1.3-2.5,3.2-4.6,5.5-6.1c-2.8-2.5-4-5.6-5.1-8.8
			c-0.1-0.1-0.1-0.3-0.2-0.4c0,0-0.2,0-0.2,0C115.4,282.2,115,283.4,114.6,284.5z"/>
		<path class="st19" d="M103.3,251.6c-0.2,1.6-0.4,3.1-0.7,4.7c-0.1,0.5-0.7,1.2-1.1,1.2c-0.7,0-1.3-0.6-1.3-1.3c0,0,0-0.1,0-0.1
			c0-0.9,0-1.8,0-2.6c0.1-3.7-1.5-7.3-4.4-9.6c-1.5-1.2-1.7-2.2-0.9-3.2c0.8-1.2,2.5-1.4,3.6-0.6c0.1,0.1,0.3,0.2,0.4,0.3
			c2.7,2.3,3.8,5.4,4.2,8.8c0,0.8,0,1.6,0,2.4L103.3,251.6z"/>
		<path class="st19" d="M131.4,187.7c-0.2-0.9-0.4-1.8-0.4-2.7c0.4-3.1,1.6-6,3.6-8.4c0.5-0.8,1.4-1.2,2.3-0.8
			c0.9,0.4,0.9,1.3,0.8,2.1c0,3.7-1.8,6.5-4.3,9C132.8,187.2,132.1,187.5,131.4,187.7z"/>
		<path class="st16" d="M170.4,270l-6.8-4.5c0.7-1.6,1.3-3.2,3-4C167.8,262.6,169.7,266.9,170.4,270z"/>
		<path class="st15" d="M251.8,258.6c0-1.2,0.1-2.3,0.1-3.5c-0.2-4.3,0.4-8.6,1.6-12.7c1.1-3.1,3.4-5.7,6.4-7.1
			c0.9-0.5,2-0.8,1.4-2.2c-3.9-0.8-7.3-2.3-9.8-5.4c-3.7-4.6-6-10.2-6.6-16.1l4.3,0.5c6.1,0.7,12,2.5,17.5,5.3c2,1,4.1,1.8,5.8,3.2
			c4.1,3.6,5,9.5,2,14.6c-2.1,3.6-4.7,6.8-7.7,9.7c-2.7,2.6-5.1,5.5-7.7,8.1c-1.6,1.6-3.4,3.2-5.1,4.6
			C253.3,258,252.6,258.4,251.8,258.6z"/>
		<path class="st21" d="M185.9,263.9l2.1,1.3l1,0.6l0,0l0.5,0.5l0,0l1,0.5l0,0l0.5,0.5l0,0l1,0.5l0,0c0,1,0.7,1,1.5,1l0,0
			c0,1.1,0.7,1,1.5,1l0,0l1.5,1l0,0c0.3,1,1.4,1.6,2.4,1.5l0,0c0,1,0.7,1,1.5,1l0,0l1,0.5l0,0c0,1,0.7,1,1.5,1l0,0
			c0.2,0.5,0.5,0.9,0.9,1.3c3.5,2.4,7,4.7,10.5,7c0.5,0.2,1,0.3,1.6,0.4l0,0c0,1.1,0.7,1,1.4,1l0,0c0.5,1.7,1.8,2.3,3.4,2.4l0,0
			c0,1.3,0.9,1.5,1.9,1.5l0,0c0,1.3,0.9,1.5,1.9,1.5l0,0l0.6,0.5l2.2,2.4c-0.6,0.3-1.3,0.5-2,0.5c-0.9-0.1-1.7-0.4-2.5-0.8
			c-2.9-1.7-5.8-3.4-8.6-5.2c-22-15-44-30-66-45c-0.4-0.3-0.7-0.6-1.1-0.9l2.9,0.5c0.4,1.3,1.4,1.4,2.5,1.4l0,0
			c0.3,0.4,0.5,1,0.9,1.2c8.3,5.3,16.6,10.5,25,15.8c0.8,0.4,1.6,0.6,2.4,0.8l0,0c0,1.1,0.7,1,1.4,1l0,0l1,0.5l0,0l1,0.5l0,0
			l0.5,0.5l0,0L185.9,263.9L185.9,263.9L185.9,263.9z"/>
		<path class="st22" d="M180.4,260.5c-0.8-0.2-1.6-0.4-2.4-0.8c-8.3-5.2-16.7-10.5-25-15.8c-0.4-0.3-0.6-0.8-0.9-1.2
			c2.4,1.3,4.9,2.6,7.2,4c6.8,4.3,13.5,8.6,20.3,13C179.9,259.9,180.2,260.2,180.4,260.5z"/>
		<path class="st22" d="M215.4,283c-0.5,0-1.1-0.2-1.6-0.4c-3.5-2.3-7-4.6-10.5-7c-0.4-0.4-0.7-0.8-0.9-1.3c0.9,0.3,1.7,0.8,2.5,1.2
			c3.3,2.2,6.6,4.5,9.8,6.8C215,282.6,215.3,282.8,215.4,283z"/>
		<path class="st12" d="M149.6,241.4l-2.9-0.5l-8.1-5.4l0.4-0.4l11,6.2C150,241.4,149.8,241.4,149.6,241.4z"/>
		<path class="st22" d="M220.2,286.4c-1.6-0.1-2.9-0.7-3.4-2.4L220.2,286.4z"/>
		<path class="st22" d="M149.6,241.4c0.1,0,0.3,0,0.4,0l2.1,1.4C151,242.8,150,242.6,149.6,241.4z"/>
		<path class="st8" d="M139.1,235.1l-0.4,0.4l-2.3-1.5l0.2-0.4L139.1,235.1z"/>
		<path class="st22" d="M222.2,287.8c-1.1,0.1-1.9-0.1-1.9-1.5L222.2,287.8z"/>
		<path class="st22" d="M224.1,289.3c-1.1,0.1-1.9-0.1-1.9-1.5L224.1,289.3z"/>
		<path class="st22" d="M198.6,272c-1.1,0.2-2.1-0.4-2.4-1.5L198.6,272z"/>
		<path class="st22" d="M216.9,284c-0.8,0.1-1.5,0.1-1.4-1L216.9,284z"/>
		<path class="st22" d="M193.4,268.6c-0.8,0.1-1.4,0.1-1.5-1L193.4,268.6z"/>
		<path class="st22" d="M181.9,261.4c-0.7,0.1-1.5,0.1-1.4-1L181.9,261.4z"/>
		<path class="st22" d="M194.8,269.6c-0.7,0-1.5,0.1-1.5-1L194.8,269.6z"/>
		<path class="st22" d="M200.1,273c-0.7,0-1.5,0.1-1.5-1C199.1,272.3,199.6,272.6,200.1,273z"/>
		<path class="st22" d="M202.5,274.4c-0.8,0.1-1.4,0.1-1.5-1L202.5,274.4z"/>
		<path class="st22" d="M196.3,270.6l-1.5-1L196.3,270.6z"/>
		<path class="st22" d="M201,273.5l-1-0.5L201,273.5z"/>
		<path class="st22" d="M182.8,261.9l-1-0.5L182.8,261.9z"/>
		<path class="st22" d="M183.7,262.4l-1-0.5L183.7,262.4z"/>
		<path class="st22" d="M185.2,263.4l-1-0.5L185.2,263.4z"/>
		<path class="st22" d="M189,265.8l-1-0.6L189,265.8z"/>
		<path class="st22" d="M190.5,266.8l-1-0.5L190.5,266.8z"/>
		<path class="st22" d="M191.9,267.7l-1-0.5L191.9,267.7z"/>
		<path class="st22" d="M224.6,289.8l-0.6-0.5L224.6,289.8z"/>
		<path class="st22" d="M184.3,262.9l-0.5-0.5L184.3,262.9z"/>
		<path class="st22" d="M185.9,263.9l-0.8-0.5L185.9,263.9z"/>
		<path class="st22" d="M189.5,266.3l-0.5-0.5L189.5,266.3z"/>
		<path class="st22" d="M191,267.2l-0.5-0.5L191,267.2z"/>
		<path class="st23" d="M191,291.2l-1.4-1.1l-0.4-0.4l-0.1,0l-0.5-0.4l-14.9-11.7l-0.4-0.3l-0.1-0.1c0-0.6,0-1.3,0-1.9
			c3.7,2.5,7.4,5,11,7.6c8.2,5.9,16.4,11.8,24.6,17.8c3.1,2.3,6.2,4.7,9.3,7.1c0.4,0.4,0.8,0.8,1.1,1.2c-0.5,0-0.9-0.1-1.4-0.3
			c-1.2-0.7-2.4-1.6-3.6-2.4c-6.5-4.4-12.9-8.7-19.4-13.1c-0.8-0.4-1.7-0.8-2.6-1l0,0C192.4,291.2,191.7,291.2,191,291.2z"/>
		<path class="st21" d="M192.4,292.2c0.9,0.2,1.7,0.6,2.6,1c6.5,4.3,12.9,8.7,19.4,13.1c1.2,0.8,2.3,1.6,3.6,2.4
			c0.4,0.2,0.9,0.3,1.4,0.3l0,0l0.5,0.5l0,0l0.4,0.5c1.2,1.5,2.6,2.9,3,5.2c-1.7,0-3.3-0.7-4.5-1.9L202,300.1c-2.6-2-5.1-4-7.7-6.1
			C193.6,293.5,193,292.8,192.4,292.2z"/>
		<path class="st8" d="M173.3,275.3c0,0.6,0,1.3,0,1.9c-1.6-1.2-3.2-2.4-4.8-3.6c-2.8-2.2-5.6-4.4-8.5-6.6c-0.6-0.5-1.2-1.1-1.6-1.7
			c4.8,3.2,9.8,5.9,14.3,9.5l0.5,0.5L173.3,275.3z"/>
		<path class="st21" d="M191,291.2c0.7,0,1.4,0,1.4,1L191,291.2z"/>
		<path class="st23" d="M173.3,275.4l-0.5-0.5L173.3,275.4z"/>
		<path class="st8" d="M173.3,277.3l0.4,0.3L173.3,277.3z"/>
		<path class="st21" d="M189.1,289.7l0.4,0.4L189.1,289.7z"/>
		<path class="st23" d="M219.8,309.5l-0.5-0.5L219.8,309.5z"/>
		<path class="st23" d="M220.1,309.9l-0.4-0.5L220.1,309.9z"/>
		<path class="st21" d="M188.5,289.3l0.5,0.4L188.5,289.3z"/>
		<path class="st24" d="M150.7,232.2c3.8,2.1,7.7,4.2,11.4,6.5c6.1,3.7,12.1,7.4,18.1,11.2c3.8,2.4,7.5,5,11.3,7.6
			c1.5,1,3,2.1,4.4,3.2c0.2,0.3,0.4,0.6,0.6,0.9c-1.3,0.6-2.3,0-3.2-0.5c-1.9-1.2-3.8-2.4-5.6-3.6l-37.1-24.2
			c-0.2-0.1-0.4-0.3-0.6-0.5L150.7,232.2z"/>
		<path class="st8" d="M150.7,232.2l-0.6,0.5l-4.8-3C147.4,230.1,149.2,230.9,150.7,232.2z"/>
		<path class="st25" d="M172.7,150.1c0.2,0.4,0.3,0.7,0.4,1.1c0.6,3.5,2.3,6.8,4.9,9.3c-0.1,0.2-0.2,0.4-0.3,0.5
			c-4.2,1.3-6.7,4.4-8.7,8.1c-0.7-4-2.2-7.8-4.4-11.3C168.3,156,170.4,153,172.7,150.1z"/>
		<path class="st26" d="M172.7,150.1c-2.3,2.8-4.4,5.9-8.1,7.7c2.2,3.4,3.7,7.2,4.4,11.3c-0.3,0.7-0.5,1.5-0.8,2.2
			c-0.9-5.2-2.6-9.8-6.5-13.8c4.5-2.2,8.2-5.6,10.8-9.8L172.7,150.1z"/>
		<path class="st25" d="M147.4,184.1c1.2,2.6,2.2,5.3,3.6,7.8c0.9,1.4,1.9,2.6,3.1,3.8c-4.1,2.5-7.5,6-9.9,10.2
			c-0.1-0.5-0.2-1.1-0.3-1.6s-0.3-1.1-0.5-1.7c-0.2-1-0.4-2-0.8-2.9c-0.8-1.7-1.6-3.4-2.5-5.1C144.1,191.8,146,188.1,147.4,184.1z"
			/>
		<path class="st26" d="M147.4,184.1c-1.5,4-3.3,7.7-7.2,10.4c0.8,1.7,1.7,3.3,2.5,5.1c0.3,1,0.6,1.9,0.8,2.9l0,0
			c-0.1,0-0.2,0-0.3,0c-1.1-3.5-3.4-6.5-6.4-8.7c5.1-2.6,7.9-6.8,10.3-12L147.4,184.1z"/>
		<path class="st26" d="M143.4,202.5c0.1,0.6,0.3,1.1,0.5,1.7l-0.5-1.2C143.4,202.8,143.4,202.6,143.4,202.5L143.4,202.5z"/>
		<path class="st25" d="M143.4,202.5c0,0.2,0,0.4-0.1,0.6l-0.2-0.6C143.2,202.4,143.3,202.4,143.4,202.5z"/>
		<path class="st25" d="M247.3,225.3c0.8,1.2,1.5,2.4,2.4,3.6c1.8,2.6,4.4,4.6,7.4,5.6c-2.3,1.9-4.3,3.8-5.1,6.5
			c-0.8,2.5-1.6,5.1-2.4,7.9l-2.8-4.2c0.8-0.9,0-1.1-0.6-1.4v0.1c-0.3-2.3-2.1-3.4-3.5-4.8l-1.1-1.1c0.9-1.1,1.7-1.9,2.4-2.9
			C245.8,231.8,246.5,228.5,247.3,225.3z"/>
		<path class="st26" d="M247.3,225.3c-0.8,3.2-1.4,6.6-3.5,9.3c-0.7,1-1.5,1.8-2.4,2.9l1.1,1.1c1.5,1.4,3.2,2.6,3.5,4.8
			c-0.3-0.1-0.6-0.2-0.8-0.4c-2-2.4-4.4-4.5-7.2-5.9c4.6-3.6,7.3-9.1,7.3-14.9h0.6L247.3,225.3z"/>
		<path class="st26" d="M246,243.3c0.6,0.3,1.4,0.4,0.6,1.4L246,243.3z"/>
		<path class="st12" d="M186.7,222.6c4.9,2.6,9.9,5.1,14.8,7.7c0.4,0.3,0.7,0.6,1.1,0.9H201c-0.2,0-0.3-0.1-0.4-0.2l-0.5-0.3
			l-13.9-7.7L186.7,222.6z"/>
		<path class="st21" d="M201,231.2h1.6c1.9,0.8,3.6,2.1,4.8,3.9L201,231.2z"/>
		<path class="st8" d="M186.7,222.6l-0.5,0.4l-3.4-2.1v-0.2L186.7,222.6z"/>
		<path class="st15" d="M182.8,220.7v0.2l-2.5-1.3C181.3,219.3,182.3,219.8,182.8,220.7z"/>
		<path class="st21" d="M200.1,230.7l0.5,0.3L200.1,230.7z"/>
		<path class="st21" d="M116.2,281.5c1.1,3.2,2.3,6.4,5.1,8.8c-2.3,1.6-4.2,3.7-5.5,6.1l-3.3-6.6l2.1-5.4l0,0
			C115.9,283.9,116,282.7,116.2,281.5z"/>
		<path class="st14" d="M114.6,284.5c-0.7,1.7-1.3,3.5-2.1,5.4l3.3,6.6c-0.1,0.3-0.2,0.6-0.4,1.4c-0.7-1.5-1.5-2.9-2.3-4.3
			c-1-1.3-2.1-2.6-3.2-3.8c0.8-0.8,1.8-1.6,2.6-2.5S113.9,285.4,114.6,284.5z"/>
		<path class="st14" d="M116.2,281.5c-0.2,1.2-0.3,2.4-1.6,3c0.4-1.1,0.8-2.3,1.2-3.4c0,0,0.2,0,0.2,0
			C116.1,281.3,116.2,281.4,116.2,281.5z"/>
	</g>
</g>
</svg>
