<svg width="132" height="118" viewBox="0 0 132 118" fill="none" xmlns="http://www.w3.org/2000/svg">
<g clip-path="url(#clip0_107_566)">
<path d="M127.759 64.3096C128.676 65.2023 129.419 66.2578 129.95 67.4222C130.262 68.1085 130.268 68.9342 130.41 69.696C130.265 69.9412 130.097 70.1777 129.975 70.4316C129.599 71.176 129.177 71.9059 128.881 72.6822C128.237 74.3756 127.173 75.8165 126.215 77.3256C125.046 79.1656 123.695 80.8676 122.297 82.5378C120.846 84.2631 119.371 85.958 117.748 87.5251C116.442 88.7846 115.203 90.1036 113.757 91.2137C112.365 92.2817 111.071 93.4773 109.669 94.5308C108.202 95.6336 106.677 96.6609 105.145 97.6694C103.678 98.6373 102.193 99.5834 100.669 100.457C99.037 101.394 97.348 102.236 95.6851 103.121C95.1511 103.411 94.636 103.729 94.0889 103.973C92.8265 104.534 91.5293 105.018 90.2785 105.604C88.4311 106.487 86.5292 107.251 84.5845 107.892C82.6662 108.51 80.7537 109.156 78.8456 109.806C76.2105 110.703 73.5028 111.321 70.7908 111.913C69.286 112.242 67.7537 112.45 66.2345 112.714C65.6424 112.816 65.0548 112.956 64.4584 113.022C63.2351 113.155 62.009 113.245 60.7843 113.361C59.1968 113.506 57.6123 113.734 56.0205 113.796C54.5346 113.857 53.0429 113.844 51.5527 113.825C48.9538 113.794 46.3506 113.902 43.7663 113.505C43.331 113.438 42.8855 113.395 42.4429 113.345C40.9367 113.177 39.4189 113.069 37.9244 112.826C36.5633 112.604 35.2341 112.18 33.8745 111.945C31.9329 111.607 30.0712 110.971 28.1573 110.54C27.4202 110.373 26.6627 110.297 25.914 110.178C25.541 109.954 25.1638 109.742 24.7967 109.507C23.1957 108.506 21.7472 107.28 20.4957 105.866C19.9041 105.222 19.5151 104.418 19.377 103.555C19.7049 102.697 19.9298 101.78 20.3825 100.995C21.2592 99.5059 22.32 98.1331 23.54 96.9091C24.6548 95.7952 25.903 94.8233 27.2562 94.0157C29.2195 92.8084 31.2655 91.7317 33.3085 90.6608C34.9149 89.8178 36.5778 89.0835 38.2015 88.2709C40.1043 87.3171 41.9975 86.3444 43.8809 85.3529C44.946 84.7913 46.0009 84.2007 47.0268 83.5695C48.5229 82.6466 50.0073 81.7006 51.4642 80.7167C52.921 79.7329 54.3474 78.7114 55.7651 77.6695C56.8635 76.8642 57.9417 76.024 59.0038 75.1766C60.215 74.215 61.4155 73.2394 62.6054 72.2498C63.7749 71.2762 64.8777 70.2183 66.0879 69.3027C67.9264 67.9126 69.7155 66.4529 71.6788 65.2253C73.0692 64.3262 74.5047 63.499 75.9798 62.7469C76.3788 62.5495 76.7996 62.3943 77.2015 62.2013C78.4799 61.5875 79.7307 60.9127 81.0338 60.3584C82.746 59.6329 84.4757 58.9291 86.2402 58.3414C88.3776 57.629 90.5367 56.9586 92.7264 56.4377C94.797 55.9617 96.9169 55.7337 99.0414 55.7586C99.4303 55.7586 99.8206 55.6222 100.202 55.6294C101.118 55.6483 102.035 55.702 102.949 55.7745C104.175 55.866 105.401 55.9632 106.625 56.0996C107.507 56.1982 108.389 56.3259 109.257 56.5102C110.381 56.7496 111.478 57.1371 112.61 57.3214C114.437 57.6116 116.183 58.2036 117.894 58.8334C119.635 59.4733 121.298 60.3541 122.933 61.245C124.264 61.9705 125.504 62.8658 126.784 63.6857L127.759 64.3096Z" fill="#6C314B"/>
<path d="M75.9754 5.18923C76.2845 5.76095 76.6298 6.3167 76.8968 6.90728C77.7852 8.86423 78.5485 10.8756 79.1822 12.9292C80.0706 15.8602 80.7494 18.8506 81.2137 21.8778C81.649 24.6972 82.0104 27.5369 82.2686 30.3723C82.4021 31.8509 82.257 33.3571 82.2048 34.8503C82.1772 35.66 82.0829 36.4682 82.0176 37.2764C81.8734 37.3408 81.7334 37.4139 81.5983 37.4955C80.1762 38.4794 78.7876 39.5183 77.3278 40.4412C75.6634 41.4918 73.957 42.4814 72.2273 43.4217C70.9112 44.137 69.5472 44.7726 68.1731 45.3719C66.635 46.0437 65.078 46.6851 63.4963 47.2481C61.8653 47.8285 60.1879 48.2783 58.5453 48.8254C57.724 49.0982 56.939 49.4755 56.1264 49.7744C54.0137 50.5507 51.8545 51.0919 49.5792 50.8656C48.7981 50.8057 48.024 50.6756 47.2663 50.4767C45.5874 49.9964 44.0217 49.2491 42.7259 48.0607C41.6434 47.0682 40.6059 46.0219 39.6105 44.9409C38.9024 44.1719 38.3045 43.3041 37.6472 42.4857C36.8956 41.5454 36.1091 40.6313 35.3879 39.6678C34.2416 38.1369 33.0662 36.6206 32.1216 34.9475C31.177 33.2744 30.1104 31.6275 29.1049 29.966C28.7885 29.4451 28.4954 28.9111 28.1602 28.3292C28.1065 28.4859 28.0819 28.5585 28.0557 28.6325C27.1851 26.3964 26.2738 24.1589 26.1215 21.7356C26.0533 20.6604 25.885 19.5489 26.2535 18.478C26.3986 18.375 26.596 18.3039 26.6888 18.166C27.4913 16.9791 28.6144 16.1345 29.8115 15.4351C31.9663 14.1785 34.1647 12.9988 36.3863 11.8626C39.1636 10.4421 42.1905 9.72088 45.168 8.8575C47.1995 8.26547 49.2832 7.81274 51.3452 7.30632C53.7104 6.7259 56.0713 6.11791 58.4554 5.58827C59.8048 5.28645 61.179 5.0717 62.5531 4.89322C64.396 4.65379 66.2287 4.28377 68.1034 4.37229C69.3615 4.43178 70.6196 4.47241 71.8762 4.53626C72.9761 4.59285 74.0687 4.70893 75.128 5.04413C75.4066 5.11267 75.6898 5.16117 75.9754 5.18923Z" fill="#B97461"/>
<path d="M11.6326 70.1893C10.1946 68.8732 8.91328 67.4222 7.95704 65.7172C6.74686 63.5594 5.74563 61.3103 5.2987 58.8566C5.09701 57.748 4.9519 56.6307 4.78213 55.5191C4.78213 55.4466 4.78213 55.374 4.77197 55.3029V54.8546C4.91854 54.6217 5.04942 54.3793 5.16376 54.129C6.02278 51.8712 6.80925 49.5843 7.73938 47.357C8.76863 44.88 10.0085 42.4958 11.4454 40.2308C12.2362 38.9916 13.0415 37.764 13.8977 36.5655C14.5187 35.6948 15.2254 34.8735 15.8827 34.0218C16.6503 33.0249 17.3976 32.012 18.1696 31.0181C19.2637 29.6105 20.3674 28.2079 21.4809 26.81C21.626 26.6228 21.877 26.5198 22.0787 26.3674C22.3414 27.6734 22.5663 28.9909 22.8768 30.2853C23.3121 32.0962 23.7706 33.9028 24.28 35.6934C25.3204 39.3486 26.8483 42.8035 28.6839 46.1236C29.9541 48.4484 31.4212 50.6602 33.069 52.7346C34.1704 54.1073 35.2456 55.4916 36.3397 56.8759C36.2345 56.9508 36.1372 57.0364 36.0495 57.1313C35.3065 58.1107 34.6405 59.1627 33.8207 60.0653C32.1522 61.8852 30.3119 63.5398 28.3255 65.0062C27.6945 65.471 27.0953 65.9775 26.532 66.5225C25.1462 67.8894 23.7982 69.2926 22.4299 70.6754C22.2848 70.8205 22.0744 70.9163 21.9597 71.0803C21.1588 72.2252 19.9471 72.5531 18.6774 72.6764C17.4484 72.7998 16.273 72.4849 15.1848 71.9175C14.1385 71.3705 13.1184 70.7741 12.0911 70.1893C11.9242 70.1037 11.7907 69.9499 11.6326 70.1893Z" fill="#B97461"/>
<path d="M109.83 17.3622C109.975 18.1327 110.183 18.8988 110.232 19.6751C110.355 21.5847 110.522 23.503 110.441 25.4068C110.376 26.8289 109.988 28.248 109.647 29.6439C109.132 31.7581 108.54 33.852 107.967 35.9516C107.854 36.2967 107.723 36.6357 107.575 36.9674C107.365 36.9572 107.151 36.9674 106.944 36.9369C105.108 36.6786 103.277 36.3768 101.43 36.1649C100 36.001 98.5611 35.9168 97.1245 35.8559C95.9637 35.808 94.8028 35.8486 93.642 35.8443C93.4326 35.8575 93.2225 35.8404 93.018 35.7935C91.3508 35.2943 90.3437 34.074 89.9708 32.4851C89.3759 29.9704 88.9972 27.4064 88.5096 24.8641C87.9887 22.1434 87.504 19.414 86.9004 16.7121C86.2721 13.8145 85.3914 10.9775 84.2682 8.23357C83.8812 7.31553 83.4991 6.39653 83.1218 5.47656C84.6367 5.57959 86.1545 5.65504 87.6665 5.78999C89.151 5.92059 90.6383 6.06134 92.1111 6.28625C94.1641 6.5884 96.1638 7.18053 98.0503 8.04493C101.832 9.79926 105.22 12.1079 108.063 15.1783C108.488 15.6354 108.817 16.181 109.205 16.6758C109.406 16.9268 109.625 17.1358 109.83 17.3622Z" fill="#B97461"/>
<path d="M25.8965 110.176C26.6452 110.295 27.4027 110.372 28.1398 110.539C30.0538 110.974 31.9126 111.605 33.857 111.943C35.2166 112.178 36.5458 112.602 37.9069 112.824C39.4015 113.068 40.9193 113.175 42.4255 113.344C42.8608 113.393 43.3106 113.436 43.7488 113.503C46.3332 113.901 48.9363 113.793 51.5352 113.824C53.0254 113.843 54.5171 113.856 56.003 113.795C57.5992 113.73 59.1794 113.505 60.7668 113.36C61.9915 113.243 63.2176 113.153 64.4409 113.02C65.0373 112.955 65.6249 112.814 66.217 112.712C67.7362 112.448 69.2642 112.241 70.7733 111.911C73.4853 111.319 76.193 110.701 78.8281 109.804C80.7362 109.154 82.6487 108.509 84.567 107.89C86.5118 107.25 88.4136 106.485 90.261 105.602C91.5118 105.022 92.809 104.533 94.0714 103.971C94.6228 103.727 95.138 103.404 95.6676 103.119C97.3305 102.234 99.0195 101.393 100.652 100.455C102.176 99.5846 103.66 98.6356 105.127 97.6678C106.659 96.6593 108.184 95.6363 109.651 94.5292C111.053 93.4757 112.347 92.28 113.739 91.212C115.19 90.102 116.428 88.783 117.731 87.5235C119.353 85.9563 120.83 84.2615 122.28 82.5362C123.683 80.866 125.037 79.1639 126.198 77.324C127.156 75.8192 128.219 74.3783 128.863 72.6806C129.154 71.9043 129.589 71.1744 129.958 70.43C130.087 70.1761 130.248 69.9396 130.393 69.6943C130.7 70.8131 130.792 71.9565 130.892 73.1087C131.029 74.6755 130.976 76.2531 130.734 77.8072C130.538 79.0565 130.039 80.2174 129.493 81.3521C129.357 81.6423 129.203 81.905 129.058 82.1865C127.585 85.2162 125.638 87.9912 123.29 90.4067C123.052 90.6519 122.833 90.916 122.604 91.17C120.391 93.6237 117.815 95.6682 115.19 97.6446C113.328 99.0521 111.406 100.402 109.428 101.635C106.407 103.529 103.351 105.376 100.24 107.117C98.2619 108.199 96.2275 109.175 94.1454 110.041C92.1952 110.875 90.1884 111.583 88.1816 112.273C86.2488 112.936 84.2928 113.535 82.331 114.105C80.3691 114.676 78.3913 115.228 76.4005 115.702C74.3835 116.176 72.3491 116.598 70.3061 116.928C68.3152 117.25 66.304 117.463 64.2943 117.653C63.0261 117.771 61.7448 117.777 60.4693 117.779C58.4988 117.779 56.5239 117.806 54.5577 117.705C52.5451 117.604 50.5369 117.395 48.5344 117.176C46.9469 117.003 45.3595 116.793 43.788 116.508C42.5793 116.288 41.3938 115.928 40.1995 115.626C39.8455 115.535 39.4958 115.421 39.1417 115.324C36.3339 114.544 33.5639 113.656 30.907 112.438C29.4284 111.76 27.9251 111.132 26.4363 110.485C26.2563 110.391 26.0808 110.276 25.8965 110.176Z" fill="#4D213E"/>
<path d="M127.759 64.3096L126.79 63.69C125.51 62.8702 124.269 61.9749 122.939 61.2494C121.303 60.3584 119.639 59.4776 117.899 58.8377C116.188 58.208 114.443 57.6203 112.616 57.3257C111.484 57.1414 110.387 56.754 109.262 56.5146C108.392 56.3303 107.513 56.2026 106.63 56.1039C105.407 55.9675 104.181 55.8703 102.955 55.7789C102.041 55.7107 101.124 55.657 100.208 55.6338C99.8205 55.6338 99.4301 55.7644 99.0471 55.7629C96.9226 55.7381 94.8027 55.966 92.732 56.442C90.5424 56.9629 88.3789 57.6333 86.2458 58.3458C84.4813 58.9262 82.7517 59.6358 81.0394 60.3628C79.7335 60.9171 78.4856 61.5918 77.2072 62.2056C76.8053 62.3986 76.3844 62.5539 75.9854 62.7512C74.5104 63.5033 73.0749 64.3306 71.6845 65.2296C69.7212 66.4572 67.932 67.917 66.0936 69.3071C64.8834 70.2227 63.7806 71.2805 62.611 72.2542C61.4415 73.2278 60.2211 74.2189 59.0095 75.181C57.943 76.0284 56.8692 76.8685 55.7707 77.6739C54.3531 78.7114 52.9252 79.7344 51.4698 80.7211C50.0144 81.7078 48.5285 82.651 47.0325 83.5739C46.0066 84.2051 44.9517 84.7957 43.8866 85.3572C42.0031 86.3507 40.11 87.3234 38.2072 88.2753C36.5834 89.0879 34.9205 89.8221 33.3142 90.6652C31.2711 91.736 29.2251 92.8127 27.2618 94.02C25.9086 94.8277 24.6604 95.7995 23.5457 96.9134C22.3257 98.1374 21.2648 99.5103 20.3882 101C19.9355 101.785 19.7106 102.702 19.3826 103.559C19.2012 102.644 19.0155 101.727 18.8428 100.81C18.8051 100.608 18.8181 100.397 18.792 100.193C18.5395 98.1367 19.1214 96.3228 20.3693 94.6948C20.6595 94.3204 20.9135 93.9213 21.1732 93.5267C21.6259 92.8418 22.1164 92.2018 22.8767 91.8202C23.0313 91.7213 23.1769 91.6091 23.3121 91.485C25.0464 90.2055 26.9048 89.1034 28.8595 88.1955C30.5906 87.3713 32.3521 86.608 34.0629 85.7432C36.1234 84.7028 38.1564 83.6043 40.1777 82.487C41.1412 81.9545 42.0641 81.3349 42.9782 80.7283C45.2593 79.225 47.5447 77.729 49.7982 76.1793C50.6166 75.6163 51.332 74.9038 52.101 74.2668C52.6814 73.7821 53.2851 73.3062 53.8815 72.8317C56.0189 71.1354 58.1534 69.4333 60.298 67.753C62.6096 65.9334 64.9066 64.092 67.2631 62.3304C68.437 61.4525 69.7168 60.7096 70.9706 59.942C72.4216 59.0496 73.8814 58.1485 75.3832 57.3301C77.7644 56.0415 80.237 54.959 82.8721 54.2727C84.0649 53.9622 85.2374 53.5689 86.4258 53.2352C87.9682 52.7999 89.502 52.3225 91.0691 51.9931C92.4827 51.7072 93.9121 51.5066 95.3498 51.3923C97.0997 51.2385 98.8584 51.1674 100.616 51.1094C102.958 51.0522 105.296 51.3193 107.565 51.9031C108.966 52.2485 110.39 52.5329 111.757 52.9841C113.936 53.6768 116.038 54.5945 118.027 55.7223C119.179 56.3912 120.216 57.259 121.296 58.044C121.762 58.3864 122.188 58.7826 122.659 59.1178C124.255 60.2554 125.604 61.6528 126.909 63.0966C127.229 63.4666 127.475 63.9048 127.759 64.3096Z" fill="#9C455C"/>
<path d="M28.0586 28.6324C28.0847 28.5584 28.1094 28.4873 28.1631 28.3291C28.4983 28.9095 28.7914 29.445 29.1077 29.9659C30.1133 31.6274 31.1668 33.2598 32.1245 34.9474C33.0822 36.6349 34.2445 38.1397 35.3908 39.6677C36.1163 40.6312 36.8984 41.5453 37.6501 42.4856C38.3045 43.304 38.9052 44.1717 39.6134 44.9408C40.6088 46.0218 41.6448 47.068 42.7288 48.0606C44.0246 49.249 45.5903 49.9963 47.2691 50.4766C48.0264 50.6754 48.8 50.8055 49.5807 50.8655C51.8559 51.0918 54.0151 50.5506 56.1278 49.7743C56.9404 49.4753 57.724 49.0981 58.5467 48.8253C60.1893 48.2782 61.8667 47.8284 63.4977 47.248C65.0794 46.685 66.6364 46.0436 68.1745 45.3718C69.5486 44.7725 70.9126 44.1369 72.2287 43.4215C73.9584 42.4813 75.6648 41.4916 77.3292 40.4411C78.789 39.5182 80.1776 38.4792 81.5997 37.4954C81.7348 37.4138 81.8748 37.3406 82.019 37.2763C81.781 39.228 81.5837 41.184 81.2935 43.127C81.0526 44.7623 80.7218 46.3846 80.4011 48.0054C80.3208 48.3631 80.1847 48.7059 79.9977 49.0212C78.982 50.8074 77.5193 52.1671 75.7751 53.1929C74.237 54.0984 72.622 54.8733 71.0273 55.6815C68.6098 56.9047 66.1764 58.0961 63.7618 59.3222C60.8191 60.8046 57.6279 61.7309 54.3488 62.0545C52.0416 62.2969 49.9957 61.6018 48.1485 60.2146C46.2211 58.7454 44.4458 57.0868 42.8492 55.2636C42.4516 54.8152 42.1527 54.2754 41.8161 53.7734C40.0893 51.1919 38.3176 48.6381 36.6546 46.0175C34.8931 43.2402 33.1721 40.4367 31.5658 37.5665C30.7271 36.0618 30.1626 34.4018 29.5343 32.7882C28.9989 31.4155 28.5476 30.0167 28.0586 28.6324Z" fill="#9F6051"/>
<path d="M11.6326 70.1892C11.7907 69.9498 11.9228 70.1036 12.0882 70.1965C13.1155 70.7769 14.1356 71.3777 15.1819 71.9247C16.2701 72.4921 17.4455 72.8069 18.6745 72.6836C19.9442 72.5559 21.1559 72.228 21.9568 71.0874C22.0715 70.9235 22.2819 70.8306 22.427 70.6826C23.7953 69.2997 25.1434 67.8966 26.5291 66.5297C27.0924 65.9847 27.6916 65.4781 28.3226 65.0133C30.309 63.547 32.1493 61.8924 33.8178 60.0725C34.6376 59.1656 35.3036 58.1179 36.0466 57.1384C36.1343 57.0436 36.2316 56.958 36.3368 56.8831C37.3859 57.9481 38.4582 58.9929 39.4798 60.0841C40.9758 61.6802 42.7287 62.963 44.47 64.2617C45.4175 64.9669 46.4057 65.617 47.404 66.3135C47.4068 67.0779 47.132 67.8173 46.6306 68.3943C43.9157 71.4778 41.073 74.4408 37.814 76.9555C36.7344 77.7899 35.5561 78.4965 34.4113 79.2424C32.8891 80.232 31.1362 80.4729 29.3964 80.7703C28.7504 80.8804 28.0866 80.8059 27.481 80.5556C22.218 78.5241 17.4513 75.7033 13.3187 71.8493C12.7412 71.3095 12.1941 70.7421 11.6326 70.1892Z" fill="#9F6051"/>
<path d="M131.655 46.6067C131.595 47.6951 131.334 48.7628 130.883 49.7555C130.792 49.6656 130.715 49.5292 130.606 49.4958C130.01 49.3086 129.408 49.1316 128.801 48.9778C126.73 48.4554 124.814 47.534 122.902 46.6212C121.723 46.0568 120.613 45.3443 119.477 44.6913C118.253 43.989 117.201 43.1271 116.556 41.8183C115.807 40.3381 115.467 38.6851 115.57 37.0298C115.594 36.667 115.675 36.3042 115.707 35.9444C115.771 35.2188 115.82 34.4846 115.876 33.7547C115.978 32.4488 116.167 31.1428 116.167 29.8499C116.151 27.3048 116.348 24.7553 116.039 22.213C115.937 21.3845 115.93 20.5443 115.881 19.71C117.59 21.1378 119.355 22.5076 120.999 24.008C123.431 26.2267 125.61 28.6746 127.322 31.5158C128.548 33.5095 129.485 35.6669 130.106 37.9236C130.831 40.6139 131.197 43.3593 131.372 46.1351C131.381 46.347 131.359 46.5705 131.655 46.6067Z" fill="#B97461"/>
<path d="M83.132 5.48226C83.5131 6.40223 83.8952 7.32124 84.2783 8.23927C85.4015 10.9832 86.2823 13.8202 86.9105 16.7178C87.5141 19.4197 87.9988 22.1491 88.5197 24.8698C89.0073 27.4106 89.3904 29.9761 89.9809 32.4908C90.3582 34.0797 91.3653 35.3 93.0282 35.7992C93.2326 35.8461 93.4428 35.8632 93.6521 35.85C94.813 35.85 95.9738 35.8137 97.1346 35.8616C98.5712 35.9225 100.011 36.0067 101.44 36.1706C103.28 36.3825 105.111 36.6843 106.954 36.9426C107.161 36.9716 107.375 36.9629 107.585 36.9731C107.118 38.2515 106.706 39.5545 106.166 40.8039C105.626 42.0532 104.949 43.2445 104.354 44.4707C104.121 44.9481 103.798 45.0874 103.278 45.009C101.05 44.6753 98.7961 44.5897 96.5484 44.6013C94.1382 44.6143 91.7266 44.7667 89.3178 44.906C88.4834 44.9553 87.6592 45.1469 86.8292 45.2702C86.6841 45.2934 86.539 45.305 86.3141 45.3297C86.346 44.9902 86.3504 44.7058 86.4041 44.4301C86.8442 42.216 87.0942 39.9683 87.1514 37.7117C87.2051 35.4277 87.2965 33.1394 87.2109 30.8598C87.0772 27.7443 86.7315 24.6415 86.1763 21.573C85.6437 18.5722 85.0154 15.5976 84.2261 12.6563C83.5976 10.2757 82.834 7.93278 81.9392 5.63898C81.9114 5.54037 81.8935 5.43928 81.8855 5.33716L83.132 5.48226Z" fill="#A06051"/>
<path d="M4.68923 89.6161C3.8955 88.3478 3.43262 86.9389 2.97553 85.5284C2.83913 85.1076 2.74627 84.6738 2.63454 84.2457C2.86816 84.0513 2.73611 83.9685 2.53151 83.9076C2.51845 83.8075 2.50539 83.7088 2.49088 83.6087C2.53151 83.3098 2.62728 83.005 2.60406 82.7105C2.53586 81.8529 2.33852 80.9982 2.33997 80.1436C2.33997 78.2296 2.18035 76.3128 2.46041 74.4003C2.71144 72.6474 2.87686 70.8713 3.14676 69.117C3.21496 68.6817 3.13805 68.1462 3.56902 67.811C5.06152 70.5163 7.00369 72.9477 9.31229 75.001C11.7715 77.2374 14.5262 79.1255 17.4991 80.6123C17.1712 80.5745 17.074 80.7791 16.9507 81.0476C16.4515 82.1185 15.9494 83.1908 15.3864 84.2297C14.5346 85.7998 13.4725 87.2349 12.3624 88.6308C11.841 89.3219 11.2582 89.9644 10.6211 90.5505C9.97108 91.1179 9.1817 91.5329 8.25738 91.3457C7.33305 91.1585 6.42905 90.8785 5.6774 90.2415C5.38138 89.9846 5.02007 89.8192 4.68923 89.6161Z" fill="#B97461"/>
<path d="M75.9753 5.18905C75.6897 5.16098 75.4065 5.11249 75.1279 5.04394C74.0686 4.70875 72.976 4.59266 71.8761 4.53607C70.618 4.47223 69.3599 4.4316 68.1033 4.3721C66.2286 4.28359 64.3959 4.65361 62.553 4.89303C61.1789 5.07151 59.8047 5.28627 58.4553 5.58809C56.077 6.11772 53.7161 6.72426 51.3451 7.30614C49.2831 7.81256 47.2052 8.26529 45.1679 8.85732C42.1962 9.72795 39.1635 10.4419 36.3861 11.8625C34.166 12.9986 31.9662 14.1841 29.8114 15.435C28.6143 16.1344 27.4897 16.9789 26.6887 18.1658C26.5944 18.3109 26.3985 18.3748 26.2534 18.4778C26.4174 17.7407 26.5219 16.9861 26.7569 16.2737C27.6551 13.5544 29.1788 11.2617 31.5556 9.61622C32.2317 9.1575 32.963 8.78599 33.7322 8.51052C35.5532 7.84303 37.3888 7.21182 39.2462 6.65026C40.7495 6.19463 42.2934 5.86814 43.8156 5.47055C45.3638 5.06716 46.9063 4.64345 48.4589 4.23861C51.0984 3.5479 53.7422 2.87751 56.3788 2.1752C57.9271 1.7631 59.4681 1.32198 61.0033 0.869253C62.5023 0.420877 64.0418 0.298989 65.5901 0.246751C67.5998 0.178551 69.582 0.297538 71.4828 1.05934C73.4084 1.82985 74.9117 3.07341 75.9216 4.89303C75.9533 4.9887 75.9714 5.08835 75.9753 5.18905Z" fill="#CB9A96"/>
<path d="M115.877 19.7099C115.926 20.5442 115.933 21.3844 116.035 22.213C116.344 24.7552 116.146 27.3047 116.162 29.8499C116.17 31.1558 115.978 32.4531 115.872 33.7547C115.816 34.4802 115.766 35.2144 115.702 35.9443C115.671 36.3071 115.589 36.6698 115.566 37.0297C115.463 38.6851 115.803 40.338 116.551 41.8182C117.197 43.1241 118.249 43.9948 119.472 44.6913C120.608 45.3442 121.719 46.0567 122.898 46.6212C124.809 47.5339 126.726 48.4553 128.797 48.9777C129.403 49.1315 130.005 49.3085 130.602 49.4957C130.711 49.5291 130.788 49.6655 130.879 49.7555C130.458 50.5042 130.066 51.2704 129.602 51.9915C129.415 52.2444 129.153 52.4315 128.853 52.5255C128.058 52.7896 127.246 53.1466 126.43 53.1727C125.51 53.2017 124.544 53.1103 123.673 52.6866C122.115 51.9291 120.574 51.1282 118.982 50.4462C116.239 49.2723 113.468 48.1767 110.711 47.0434C110.522 46.9665 110.345 46.862 110.13 46.7532C110.454 45.8318 110.763 44.9452 111.075 44.0615C111.794 42.0416 112.316 39.9569 112.633 37.8365C113.069 34.9561 113.447 32.0671 113.841 29.1809C114.157 26.8627 114.308 24.525 114.293 22.1854C114.286 21.2233 114.386 20.2598 114.439 19.2833C114.874 18.9582 115.277 19.0903 115.685 19.3007C115.749 19.4356 115.81 19.5735 115.877 19.7099Z" fill="#A06051"/>
<path d="M4.68921 89.6159C5.02005 89.8191 5.38136 89.9845 5.67302 90.2326C6.42467 90.8696 7.32288 91.1497 8.253 91.3369C9.18313 91.5241 9.9667 91.1091 10.6168 90.5417C11.2539 89.9556 11.8366 89.313 12.358 88.622C13.4681 87.226 14.5346 85.791 15.382 84.2209C15.9451 83.182 16.4471 82.1096 16.9463 81.0387C17.0696 80.7747 17.1668 80.5701 17.4948 80.6034C19.0256 81.416 20.5551 82.2315 22.0903 83.0368C22.5256 83.2676 22.987 83.4722 23.4441 83.6768C24.1188 83.9771 24.5832 84.4952 25.0127 85.109C24.1812 86.3032 23.2497 87.3639 22.0671 88.1779C19.6627 89.8321 17.2437 91.4704 14.8321 93.1115C14.6952 93.1901 14.5652 93.2799 14.4432 93.38C13.2388 94.551 11.6862 94.6351 10.1423 94.8513C8.41407 95.0922 7.31707 94.0837 6.43193 92.9258C5.69044 91.955 5.26093 90.7318 4.68921 89.6159Z" fill="#A06051"/>
<path d="M22.0743 26.3688C21.8726 26.5139 21.6259 26.6242 21.4765 26.8114C20.3601 28.2024 19.2563 29.6051 18.1651 31.0194C17.3932 32.0134 16.6459 33.0262 15.8783 34.0231C15.2209 34.8749 14.5143 35.6904 13.8932 36.5668C13.0429 37.7654 12.2318 38.993 11.4409 40.2322C10.0041 42.4972 8.7642 44.8813 7.73495 47.3583C6.80482 49.5857 6.01835 51.8726 5.15933 54.1304C5.04499 54.3807 4.91411 54.6231 4.76754 54.8559C4.428 53.7212 4.49909 52.556 4.59196 51.4082C4.94167 47.0957 6.30566 43.0371 7.81621 39.0249C8.0693 38.4184 8.40846 37.8515 8.82324 37.3417C9.79061 36.0648 10.786 34.8072 11.8095 33.5689C13.6132 31.3836 15.4633 29.2346 17.2495 27.0392C18.5076 25.4909 19.6902 23.8831 20.912 22.3058C21.0818 22.0867 21.282 21.8894 21.5374 21.605C21.6825 22.8079 21.8044 23.8875 21.9277 24.9685C21.9814 25.4358 22.0264 25.903 22.0743 26.3688Z" fill="#CB9B96"/>
<path d="M83.1318 5.48234L81.8781 5.33724C81.733 5.11813 81.8288 4.99188 82.0522 4.944C82.6922 4.80615 83.3277 4.63057 83.9749 4.55657C85.1996 4.41872 86.4301 4.34036 87.6591 4.23733C89.0634 4.11327 90.4759 4.11327 91.8802 4.23733C92.6624 4.30844 93.4401 4.44339 94.2135 4.58704C95.4223 4.8134 96.6325 5.04412 97.8325 5.32127C100.108 5.84511 102.175 6.86084 104.152 8.07828C104.464 8.26982 104.758 8.49183 105.073 8.68047C107.483 10.1185 108.501 12.4779 109.261 15.0056C109.428 15.5585 109.595 16.1113 109.741 16.67C109.786 16.8989 109.816 17.1307 109.83 17.3636C109.625 17.1387 109.406 16.9283 109.219 16.6845C108.831 16.1897 108.502 15.6441 108.077 15.187C105.23 12.1238 101.837 9.80794 98.0646 8.05361C96.1781 7.18921 94.1785 6.59708 92.1255 6.29493C90.6526 6.07002 89.1653 5.92927 87.6809 5.79867C86.1645 5.66082 84.6467 5.58537 83.1318 5.48234Z" fill="#CC9A96"/>
<path d="M115.877 19.71C115.81 19.5736 115.744 19.4357 115.678 19.2979C116.303 19.4778 116.949 19.6055 117.55 19.8478C120.054 20.8252 122.341 22.2884 124.278 24.1531C126.13 25.9503 127.602 28.1006 128.608 30.4768C129.914 33.5588 131.02 36.7047 131.578 40.0102C131.784 41.3808 131.909 42.7621 131.954 44.1472C131.991 44.8727 131.866 45.6113 131.809 46.3426C131.8 46.4355 131.713 46.5197 131.664 46.6067C131.374 46.5705 131.39 46.347 131.374 46.1351C131.198 43.3593 130.828 40.6139 130.107 37.9236C129.487 35.6669 128.55 33.5095 127.324 31.5157C125.612 28.6746 123.432 26.2266 121 24.008C119.35 22.5076 117.586 21.1349 115.877 19.71Z" fill="#CC9B97"/>
<path d="M3.57205 67.8067C3.13673 68.1462 3.21799 68.6773 3.14979 69.1126C2.87699 70.867 2.71447 72.6387 2.46054 74.3959C2.18048 76.3084 2.3459 78.2253 2.3401 80.1392C2.3401 80.9939 2.53599 81.8486 2.60419 82.7061C2.62741 82.9963 2.53164 83.3054 2.49101 83.6043C2.36443 83.3552 2.25862 83.096 2.17468 82.8295C1.70611 80.7616 1.36687 78.6666 1.15894 76.5566C0.947084 74.4598 0.803433 72.3659 0.954343 70.2735C1.09074 68.3508 1.20247 66.4079 1.69583 64.5215C1.7205 64.4286 1.75678 64.3401 1.83368 64.1123C2.45183 65.4241 3.01194 66.6154 3.57205 67.8067Z" fill="#CC9C98"/>
<path d="M2.53149 83.9075C2.73609 83.9684 2.86814 84.0526 2.63452 84.2456C2.59969 84.1324 2.56632 84.0192 2.53149 83.9075Z" fill="#CC9C98"/>
<path d="M4.77197 55.3013C4.77197 55.3724 4.77922 55.4464 4.78213 55.5175C4.77777 55.4449 4.77487 55.3796 4.77197 55.3013Z" fill="#CB9B96"/>
</g>
<defs>
<clipPath id="clip0_107_566">
<rect width="131.07" height="117.55" fill="white" transform="translate(0.890381 0.225098)"/>
</clipPath>
</defs>
</svg>
