<?xml version="1.0" encoding="utf-8"?>
<!-- Generator: Adobe Illustrator 24.1.2, SVG Export Plug-In . SVG Version: 6.00 Build 0)  -->
<svg version="1.1" id="Layer_1" xmlns="http://www.w3.org/2000/svg" xmlns:xlink="http://www.w3.org/1999/xlink" x="0px" y="0px"
	 viewBox="0 0 491.8 491.8" style="enable-background:new 0 0 491.8 491.8;" xml:space="preserve">
<style type="text/css">
	.st0{fill:#9D5F6F;}
	.st1{fill:#150C2C;}
	.st2{fill:#180F2F;}
	.st3{fill:#190F30;}
	.st4{fill:#824465;}
	.st5{fill:#9C5F6F;}
	.st6{fill:#814465;}
	.st7{fill:#28257A;}
	.st8{fill:#7B76D2;}
	.st9{fill:#9B5E6E;}
	.st10{fill:#9F85CC;}
	.st11{fill:#804465;}
	.st12{fill:#A782AD;}
	.st13{fill:#A582AD;}
	.st14{fill:#7974CE;}
	.st15{fill:#5752A0;}
	.st16{fill:#9F7E95;}
	.st17{fill:#908ED7;}
	.st18{fill:#A398DB;}
	.st19{fill:#A5849A;}
	.st20{fill:#A89DE2;}
	.st21{fill:#A5839A;}
	.st22{fill:#A79CE1;}
	.st23{fill:#1C0E2E;}
	.st24{fill:#1A0C2D;}
</style>
<g>
	<path class="st0" d="M393.9,335.3c-1.3-0.2-2.7-0.1-4,0.1c-2.6,0.6-5.2,1.4-7.7,2.4c-7.1,2.8-14.2,5.6-21.3,8.5
		c-1.2,0.5-2.5,0.4-3.5-0.3c-5-3.1-11-4.2-16.8-3c-5.3,1.1-10.5,2.5-15.7,4.2c-6,1.9-12,3.4-18.3,3.2c-3.9-0.2-7.8-0.2-11.6,1
		c-3.1-8.1-8.8-13.7-16.4-17.4c-3.4-1.7-6.8-3.5-10.2-5.3c0.1-1.3-0.1-2.6-0.3-3.9c-1.1-3.1-0.7-5.3,2.3-7c1.4-0.8,1.8-2.2,1-4
		c-0.8-1.8-1.4-3.7-2.2-5.5c-1.2-2.6-2.4-5.3-3.7-8c0.4-0.1,0.7-0.2,0.9-0.2c1.3,1,2.6,0.1,3.9,0c2-0.2,1.7-2,2.1-3.3
		c0.1-0.2,0.3-0.5,0.5-0.7c0.9,2.9,0.9,2.9,2.3,3.6c0.1-0.1,0.3-0.2,0.3-0.3c1.5-3.7,2.2-7.7,2-11.7c0-0.3-0.1-0.6-0.2-0.9
		c-1.9-6.5-4.6-12.7-9.2-17.9c-2.8-3.3-5.9-6.2-9.9-8.1c-5.6-2.5-11.1-5.3-16.6-7.9c-2.8-1.2-5.5-2.6-8.1-4.1
		c-4.8-3.1-9.5-6.5-14.2-9.7c-1.6-1.1-3.2-2-4.9-3c0.4-1.3,0.7-2.4,1.1-3.6c0.5-1.5-1.2-2.1-1.5-3.6c1.8-1.5,3.6-3,5.5-4.5
		c0.6-0.3,1.3-0.5,1.9-0.4c2.9,0.2,5.9,0,8.8-0.7c1.7-0.5,3-1.4,3.2-3.4c0.3-2.9,0.4-5.9,0.4-8.8c-0.2-1.6,0.4-3.1,1.6-4.2
		c1-1,2.1-1.9,2.3-3.5l-5.4-4.2c2.1-2.5,4.3-4.8,2.9-8.2c1.2-0.8,2.1-1.9,2.8-3.1c2.2-4.1,0.6-9.3-3.6-11.4
		c-0.6-0.2-1.1-0.3-1.7-0.3c-0.9,2.1,1.4,4.2-0.9,5.9c-0.4-0.2-0.9-0.4-1.2-0.7c-0.9-1.6-2.3-2.9-4-3.7c-0.2-0.1-0.4-0.3-0.5-0.5
		c-1.1-2.4-3.2-2.9-5.6-2.9c-0.7,0-1.4-0.2-2-0.6c-1.1-0.8-2.5-1.2-3.8-0.9c-1.5,0.2-3,0.3-4.5,0.1c-2-0.5-4.1,0.1-5.4,1.7
		c-0.3,0.3-0.5,0.5-0.8,0.7c-1.9-1.9,0.4-3.5,0.3-5.1c-1.3-0.8-2.3-0.2-3.2,0.5c-2.5,1.8-4.1,4.1-3.9,7.4c-2.8,0.1-5.4,0-7.4,2
		c-1.9,1.7-2.6,4.4-1.9,6.8c-4.9,2.4-5.1,5.1-3.1,9.6c-1.5,2.9-1.1,5.4,2,7.6h-3.3l1.6,4.6c-2.3,0.6-2.5,1-2.1,3.1
		c0.8,4.3,3.4,7.1,7.4,8.6l3.4,0c-1.1,1.2-2.1,0.9-3.1,0.9l-9.7,3.9l-3.2-1.6c0.2-0.4,0.5-0.9,0.8-1.3c1.5-1.9,2.4-4.2,2.6-6.6
		c0.5-3.9,0.4-7.8-0.2-11.7c-0.4-2.8-0.2-5.7,0.4-8.5c1-4.7,0-8.9-3.5-12.3c-0.9-1-1.8-2-2.8-3c0.9-0.8,1.8-1.6,2.6-2.5
		c3.2-4.2,6.3-8.4,8.3-13.4c2.2-5.8,4-11.8,5.3-17.8c0.8-3.5,1.2-7.1,3.2-10.2c2.4-3.7,4.1-7.8,5-12.1c0.7-3.3,1-6.6-1.3-9.7
		c0.9-0.4,1.6-0.8,2.5-1.1c1.3-0.6,2.7-1,4-1.6c8.6-4,14.7-10.2,17.3-19.6c0.3-0.8,0.8-1.6,1.5-2.2c2-1.8,4.2-3.5,6.2-5.3
		c7.7-6.7,15.4-13.4,23-20.2c2.4-2.1,4.6-4.4,6.6-6.9c3.9-4.6,0.6-12.2-4.5-13c-0.8-0.1-1.6-0.4-2.3-0.5c-4.3-0.4-8.5-1.6-12.4-3.4
		c-1.4-0.6-2.8-1.1-4.3-1.3c-8-1-16-1.5-24.1-1.4c-4.6,0-9.2,0.8-13.6,2.5c-2.2,0.8-4.4,1.8-6.6,2.7c-2.6-1.4-5.4-2.1-8.3-2.3
		c-8.1-0.4-16.1,1.3-23.4,4.8c-6.1,2.9-12.3,5.6-18.5,8.4c-6.4,2.7-12.3,6.5-17.5,11.1c-4.2,4-8.1,8.4-11.5,13.1
		c-4,5.3-8.1,10.5-10.8,16.6c-0.7,1.7-2.1,3.1-3.8,3.9c-5.3,2.6-9.5,7.1-11.7,12.5c-2.6,6.1-4.2,12.5-5,19.1
		c-0.4,4.6-2.3,8.9-5.4,12.2c-2.9,3-4.9,6.8-5.7,10.9c-0.7,4.3-1.2,8.6-1.3,13c0,2.9,0.3,5.7,0.7,8.6c-2.8,1.2-5.3,3-7.2,5.3
		c-2.4,2.8-4.4,5.8-4.6,9.5c-0.1,2.9,0,5.7,0.5,8.6c0.4,3,1.1,5.9,1.7,8.9c1.2,5.8,1.9,11.7,0.7,17.5c-0.6,3.2-1.8,6.3-2.6,9.4
		c-1.6,6.7-3,13.4-1.3,20.3c0,0.6-0.1,1.2-0.3,1.8c-0.5,1.8-0.9,3.7-1.1,5.6c-0.3,6.4,1.1,12.7,3.9,18.5c2.5,5.2,5,10.3,7,15.7
		c6.9,19.1,15.3,37.6,25.2,55.3c4.4,7.7,9.9,14.6,17.2,19.7c4.6,3.2,9.8,5.3,15.7,4.1c0.6-0.1,1.2-0.1,1.8-0.1
		c1.1,3.7,2.1,7.4,3.2,11.1c1.4,4.6,3.4,9,5.9,13c1.6,2.7,4.4,4.6,7.5,5.1c2.9,0.5,5.8,0.8,8.8,0.9c4.9,0,9.9-0.4,14.8-0.4
		c5.3,0,10.5,0.3,15.8,0.5c0.2,0.4,0.4,0.7,0.6,1.1c4.6,9.8,12.1,18,21.5,23.5c4.2,2.3,8.9,3.3,13.6,3.1c2.9-0.2,5.9-0.6,8.7-1.4
		c5.1-1.2,10.5-1.1,15.6,0.3c2.8,0.8,5.6,1.1,8.5,1.1c5.2,0,10.4-0.7,14.5-4c3,1.1,5.8,2.2,8.6,3c6,1.7,12,3,18.4,2.3
		c8.3-0.9,16.2-3.6,23.4-7.8c2.2-1.4,4.7-2.4,7.3-2.9c4.6-0.9,9.1-1.7,13.6-2.8c7.6-1.8,14.4-5.8,19.7-11.4c0.8-0.9,1.8-1.6,2.9-2
		c6.1-2.4,11.7-6,16.3-10.6c5.7-5.9,10.9-12.3,15.5-19.1c2-2.9,3.7-6,5.1-9.2c3.5-8,5.7-16.4,5.6-25.2
		C401.1,338.9,398.4,335.4,393.9,335.3z"/>
	<path class="st0" d="M312.2,272.4c1.7,0.5,3.3,1.2,4.8,2.1c3.2,2,6,4.5,8.5,7.3c7.4,8.1,12.9,17.3,15.6,27.9
		c1.7,6.5,3.2,13.1,4.7,19.7c0.1,1.1,0.8,2.2,1.9,2.7c0.1-1.1,0.2-1.9,0.3-2.7c0.1-2.2,0.4-4.4,0.7-6.6c2.2-9.6,6.4-18.6,12.3-26.5
		c4.6-6.5,10.8-11.6,18-15c1.9-0.9,3.8-2,5.7-3c0.3-0.2,0.7-0.2,1.1-0.2c1.4,0.1,1.8-0.7,1.9-2.1c-0.7-0.3-1.4-0.5-2.1-0.8
		c-1.5-0.4-3-0.9-4.5-1.6c-2-1.1-3.8-2.3-5.5-3.8c-5.7-4.9-10.6-10.6-14.5-17.1c-5.1-8-8.9-16.5-10.3-26c-0.9-6-1.9-11.9-1.9-18
		c0-0.7,0-1.6-1-1.6c-1-0.1-1.3,0.6-1.3,1.5c-0.1,2.8-0.3,5.6-0.5,8.3c-0.3,7.6-1.7,15-4,22.3c-4.8,14.4-14.4,24.2-28.7,29.4
		c-1.1,0.4-2.2,1-3.3,1.5C310.2,271.3,311.1,272.2,312.2,272.4z"/>
	<path class="st0" d="M259.5,86.9c0-0.1,0.1-0.2,0.1-0.3c0.1-0.7-0.4-1.2-1.1-1.3c-0.9-0.1-1.3,0.5-1.5,1.2
		c-0.1,0.5-0.2,1.1-0.2,1.6c0,1.3-0.1,2.6-0.2,3.8c-1.7,9.2-4.2,18.3-7.6,27.1c-3,8-8.2,13.8-16.5,16.5c-1.9,0.6-3.8,1.4-5.7,2.1
		c0,1.5,0.6,2.1,2,2c2.1-0.2,4.2,0.3,6,1.3c6.4,3.3,11.8,8.3,15.6,14.5c0.5,0.8,0.9,1.7,1.2,2.6c2.8,7.3,4.7,14.9,5.7,22.6
		c0.4,2.4,1,4.8,1.8,7.2c0.2,0.5,0.6,0.9,1.2,1.7c0.2-0.4,0.3-0.9,0.4-1.3c0.6-5,1.2-10.1,1.8-15.1c0.9-8.9,4.6-17.4,10.5-24.2
		c3.5-4,7.7-7.2,13-8.5c1.1-0.3,2.2-0.5,3.3-0.7c0,0,0,0,0,0c0.9,0,1.7-0.8,1.6-1.8c-1.2-0.5-2.4-1.1-3.6-1.7
		c-2.9-1.8-5.8-3.7-8.6-5.6c-5.3-3.5-9.5-8.4-12.1-14.2c-2.6-5.8-4.5-11.8-5.6-18C260,94.6,258.7,90.9,259.5,86.9z"/>
	<path class="st0" d="M76.4,54c8.3,2.8,14.1,8,16,16.8c0.6,2.7,0.8,5.5,1.1,8.3c0.1,1-0.1,2,1.1,3c0.4-1,0.7-2,1-3.1
		c0.5-2.7,0.8-5.5,1.4-8.2c1.5-6.6,4.8-12.1,10.8-15.7c1.9-1.1,3.8-2,6.2-1.1c0.9-2.5,0.8-3-1.4-3.8c-0.6-0.3-1.3-0.5-2-0.8
		c-3.9-1.3-7.3-3.8-9.6-7.2c-4.1-5.8-6.4-12.6-6.6-19.7c0-0.6,0-1.1,0-1.7c-0.1-0.8-0.1-1.4-1.2-1.5s-1.4,0.7-1.5,1.5
		c0,0.6,0,1.3,0,1.9c0,4.5-0.7,9.1-2,13.4c-1.7,5.3-4.5,9.9-9.5,12.8c-1.8,0.9-3.8,1.7-5.7,2.3C74.4,53.4,74.4,53.3,76.4,54z"/>
	<path class="st0" d="M429.3,304c-0.7-0.2-1.4-0.4-2-0.7c-4.3-2.2-7.9-5.5-10.5-9.6c-1.5-2.2-2.5-4.7-2.8-7.3
		c-0.2-2.2-0.4-4.4-0.7-6.6c-1.9-0.2-2.5,0.3-2.5,2c0,3.2-0.6,6.4-1.6,9.4c-2.5,7.1-6.8,12.4-14.4,14.4c-0.6,0.2-1,0.6-1.2,1.2
		c-0.1,0.8,0.5,1.1,1.4,1.3c0.9,0.2,1.8,0.5,2.6,1c5.9,3.6,10.3,8.5,12.1,15.4c0.4,1.4,0.6,2.8,1.1,4.2c0.7,2.3,1.5,4.7,2.3,7
		c0.3,0.5,0.6,1,1,1.4l0.5-0.1c0.1-0.7,0.2-1.5,0.2-2.2c-0.3-2.7-0.4-5.3-0.3-8c0.5-8.4,5.1-14.2,11.5-18.9c1.2-0.9,2.6-1.6,4.3-0.8
		C431.1,304.5,431.1,304.4,429.3,304z"/>
</g>
<g id="Frame1">
	<path class="st1" d="M190.5,220.3c-4-1.6-6.6-4.3-7.4-8.6c-0.4-2.1-0.2-2.5,2.1-3.1l-1.6-4.6h3.3c-3.1-2.2-3.5-4.6-2-7.6
		c-2-4.5-1.9-7.3,3.1-9.6c-0.7-2.4,0-5.1,1.9-6.8c2-2,4.6-1.9,7.4-2c-0.2-3.3,1.4-5.6,3.9-7.4c0.9-0.7,1.9-1.3,3.2-0.5
		c0.1,1.6-2.2,3.2-0.3,5.1c0.3-0.2,0.6-0.5,0.8-0.7c1.3-1.6,3.4-2.3,5.4-1.7c1.5,0.2,3,0.1,4.4-0.1c1.3-0.2,2.7,0.1,3.8,0.9
		c0.6,0.4,1.3,0.6,2,0.6c2.4,0.1,4.4,0.5,5.6,2.9c0.1,0.2,0.3,0.4,0.5,0.5c1.7,0.8,3.1,2.1,4,3.7c0.2,0.4,0.8,0.5,1.2,0.7
		c2.3-1.7,0-3.8,0.9-5.9c0.6,0,1.2,0.1,1.7,0.3c4.1,2.2,5.7,7.3,3.6,11.4c-0.7,1.3-1.6,2.3-2.8,3.1c1.3,3.4-0.9,5.8-2.9,8.2l5.4,4.2
		c-0.2,1.6-1.3,2.6-2.3,3.5c-1.2,1-1.8,2.6-1.6,4.2c0,2.9-0.1,5.9-0.4,8.8c-0.1,2-1.4,2.9-3.2,3.4c-2.9,0.7-5.8,1-8.8,0.7
		c-0.7-0.1-1.4,0.1-1.9,0.4c-1.9,1.4-3.7,3-5.5,4.5c0.3,1.5,2,2.1,1.5,3.6c-0.4,1.1-0.7,2.3-1.1,3.6c1.6,1,3.3,1.9,4.9,3
		c4.8,3.2,9.4,6.6,14.2,9.7c2.6,1.5,5.3,2.9,8.1,4.1c5.5,2.7,11.1,5.4,16.6,7.9c4,1.8,7.1,4.8,9.9,8.1c4.5,5.2,7.2,11.4,9.2,17.9
		c0.1,0.3,0.2,0.6,0.2,0.9c0.2,4-0.5,8-2,11.7c-0.1,0.1-0.2,0.2-0.4,0.3c-1.5-0.7-1.5-0.7-2.3-3.6c-0.2,0.2-0.3,0.4-0.5,0.7
		c-0.4,1.3-0.1,3.1-2.1,3.3c-1.3,0.1-2.6,1-3.9,0c-0.1-0.1-0.5,0.1-0.9,0.1c1.3,2.7,2.5,5.4,3.7,8c0.8,1.8,1.4,3.7,2.2,5.5
		s0.4,3.2-1,4c-3,1.7-3.4,3.9-2.3,7c0.3,1.3,0.4,2.6,0.4,3.9c3.4,1.8,6.8,3.6,10.2,5.3c7.6,3.8,13.2,9.4,16.4,17.4
		c3.8-1.2,7.7-1.2,11.6-1c6.3,0.2,12.3-1.3,18.3-3.1c5.1-1.8,10.4-3.2,15.7-4.2c5.8-1.2,11.8-0.1,16.8,3c1,0.7,2.4,0.8,3.5,0.3
		c7.1-2.9,14.2-5.7,21.3-8.5c2.5-1,5.1-1.7,7.7-2.4c1.3-0.2,2.7-0.2,4-0.1c4.5,0.1,7.2,3.6,7.3,7.9c0.2,8.9-2.1,17.2-5.6,25.2
		c-1.4,3.2-3.2,6.3-5.1,9.2c-4.6,6.8-9.8,13.2-15.5,19.1c-4.6,4.6-10.2,8.3-16.3,10.6c-1.1,0.4-2.1,1.1-2.9,2
		c-5.3,5.7-12.2,9.7-19.7,11.4c-4.5,1.1-9,1.9-13.6,2.8c-2.6,0.5-5,1.5-7.3,2.9c-7.2,4.2-15.1,6.8-23.4,7.8
		c-6.3,0.7-12.4-0.5-18.4-2.3c-2.8-0.8-5.6-1.9-8.6-3c-4.1,3.3-9.3,4-14.5,4c-2.9,0-5.7-0.4-8.5-1.1c-5.1-1.4-10.5-1.5-15.6-0.3
		c-2.9,0.8-5.8,1.2-8.7,1.4c-4.7,0.2-9.4-0.8-13.6-3.1c-9.4-5.5-16.9-13.7-21.5-23.5c-0.2-0.4-0.4-0.7-0.6-1.1
		c-5.3-0.2-10.5-0.5-15.8-0.5c-4.9,0-9.9,0.4-14.8,0.4c-2.9,0-5.9-0.3-8.8-0.9c-3.1-0.5-5.9-2.4-7.5-5.1c-2.5-4-4.5-8.4-5.9-13
		c-1.1-3.7-2.1-7.3-3.2-11.1c-0.6,0-1.2,0-1.8,0.1c-5.9,1.2-11.1-0.9-15.7-4.1c-7.3-5.1-12.8-11.9-17.2-19.7
		c-9.9-17.7-18.3-36.2-25.2-55.3c-2-5.4-4.5-10.6-7-15.7c-2.8-5.8-4.1-12.1-3.9-18.5c0.2-1.9,0.6-3.8,1.1-5.6
		c0.2-0.6,0.3-1.2,0.3-1.8c-1.7-6.9-0.3-13.6,1.3-20.3c0.8-3.2,1.9-6.2,2.6-9.4c1.2-5.9,0.5-11.7-0.7-17.6c-0.6-3-1.3-5.9-1.7-8.9
		c-0.4-2.8-0.6-5.7-0.5-8.6c0.2-3.7,2.3-6.8,4.6-9.5c2-2.3,4.5-4.1,7.2-5.3c-0.4-2.8-0.6-5.7-0.7-8.6c0.2-4.4,0.6-8.7,1.3-13
		c0.8-4.1,2.8-7.9,5.7-10.9c3.1-3.4,5-7.7,5.4-12.2c0.8-6.6,2.4-13,5-19.1c2.2-5.5,6.4-9.9,11.7-12.6c1.7-0.8,3-2.2,3.8-3.9
		c2.7-6.1,6.8-11.3,10.8-16.6c3.4-4.7,7.3-9.1,11.5-13.1c5.2-4.6,11.1-8.4,17.5-11.1c6.2-2.8,12.4-5.5,18.5-8.4
		c7.3-3.5,15.3-5.1,23.4-4.8c2.9,0.1,5.7,0.9,8.3,2.3c2.2-0.9,4.3-1.9,6.6-2.7c4.3-1.7,8.9-2.5,13.6-2.5c8.1-0.1,16.1,0.4,24.1,1.4
		c1.5,0.2,3,0.7,4.3,1.3c3.9,1.9,8.1,3,12.4,3.4c0.8,0.1,1.6,0.4,2.3,0.5c5.1,0.8,8.4,8.4,4.5,13c-2,2.4-4.3,4.7-6.6,6.9
		c-7.6,6.8-15.3,13.5-23,20.2c-2,1.8-4.2,3.5-6.2,5.3c-0.7,0.6-1.2,1.3-1.5,2.2c-2.6,9.3-8.7,15.6-17.3,19.6c-1.3,0.6-2.6,1.1-4,1.6
		c-0.8,0.3-1.6,0.7-2.4,1.1c2.4,3.1,2,6.4,1.4,9.7c-0.9,4.3-2.6,8.4-5,12.1c-2,3.1-2.4,6.7-3.2,10.2c-1.3,6.1-3.1,12-5.3,17.8
		c-2,5-5.1,9.2-8.3,13.4c-0.8,0.9-1.7,1.7-2.6,2.5c1,1,1.8,2,2.8,2.9c3.5,3.5,4.4,7.7,3.5,12.4c-0.7,2.8-0.8,5.7-0.4,8.5
		c0.6,3.9,0.7,7.8,0.2,11.6c-0.2,2.4-1.1,4.7-2.6,6.6c-0.3,0.4-0.6,0.8-0.8,1.3l3.2,1.6l9.7-3.9c1,0,2,0.3,3.1-0.9L190.5,220.3z
		 M180.8,327.7L180.8,327.7l-0.5,0.5l0,0l-0.5,0.5l0,0l-0.7,0.5c-1.9,1.9-3.8,3.9-5.7,5.8c-4.2,4.1-8.4,8.3-12.6,12.4
		s-8.4,8.4-13.5,11.7c-1.1,0.7-2,1.5-3,2.3c-0.2,0.1-0.3,0.1-0.4,0.2c-4.2,3.6-8.6,6.8-13.4,9.7c-0.3,0.3-0.6,0.6-0.8,0.9
		c1.2,3.2,2.4,6.3,3.4,9.4c1.5,5.4,3.5,10.6,6,15.6c0.7,1.5,2.1,2.7,3.8,3c3.3,0.8,6.8,1.2,10.2,1.1c2.9-0.2,5.9-0.2,8.9-0.2
		c4.4,0,8.8-0.1,13.1,0c2.1,0,4.3,0.5,6.3-0.5c3.9-2,7.5-4.7,10.4-7.9c3.9-4.2,7.6-8.6,11.1-13.2c6.5-8.3,13.2-16.3,18.9-25.1
		c2.6-4,4.8-8.1,7.4-12c2.5-3.7,4.2-7.9,5.1-12.3c0.2-1.1,0.3-2.2,0.3-3.3c-0.1-1.9-0.2-3.8-0.4-5.7c-0.1-0.8-0.2-1.6-0.4-2.3
		l-0.3-3.4l-0.3-0.5l0,0c-0.8-3.6-2.9-6.8-6-8.9c-2.8-1.9-5.5-3.8-8.4-5.5c-3.2-1.8-6.2-4-8.8-6.5c-1.3-1.6-3-2.8-5-3.4
		c-0.4,1-0.7,2-1,2.9c-0.7,2.2-1.5,4.3-2.4,6.5c-3.7,7.1-8.2,13.7-13.5,19.6c-1.8,2.1-3.6,4.2-5.4,6.3l-0.2,0v0.2l-1,1.2l0,0
		L180.8,327.7z M214.9,370.9L214.9,370.9c-0.2,0.3-0.5,0.6-0.7,1l-14.7,19c-0.3,0.3-0.6,0.5-0.9,0.8c-2.1,2.1-4.2,4.4-6.4,6.4
		s-4.4,3.7-6.6,5.5c3.8,7.5,9.1,14.1,15.6,19.5c4.6,3.7,9.7,5.9,15.7,5.3c2.4-0.3,4.7-0.7,7.1-1.2c6.1-1.4,12.1-1.7,18.1,0.3
		c3.1,0.9,6.5,1.3,9.7,0.9c3.1-0.2,6.2-0.6,8.9-2.4c3.1-2.1,5.9-4.7,8.3-7.5c3.9-4.7,7.3-9.7,10.1-15.1c2.4-3.9,4.5-7.9,6.3-12.1
		c2.9-7.2,5.7-14.6,6.3-22.5c0.3-3.9,1-7.7,0.4-11.6c-0.8-4.4-2.1-8.5-5.3-11.8c-2.5-3.4-6-6.1-9.9-7.7l-1.1-0.5l0,0
		c-3.3-1.6-6.4-3.4-9.8-4.7c-6.3-2.4-12.9-2.7-19.6-2.4c-2.8,0.1-5.7,0.6-8.4,0.9c-0.3,0.8-0.4,1.4-0.6,1.9c-1.2,3-2,6.1-3.6,8.9
		c-5.1,9.1-10.8,17.9-17,26.4c-0.2,0.4-0.4,0.8-0.6,1.3l0,0c-0.8-0.1-0.9,0.4-1,1l0,0L214.9,370.9z M190.9,189.5L190.9,189.5l-1.9,1
		c-2.3,1.6-2.4,2-1.3,4c1.2-0.8,2.5-1.4,3.8-2c2.3-0.9,3.1-2.4,2.9-4.8c-0.2-1.9,0.8-3.7,2.5-4.6c0.7-0.5,1.5-0.9,2.3-1.3l2.2-0.2
		c-2.6-2.2-8-1.4-9.5,1.1c-0.2,0.3-0.3,0.7-0.3,1.1c0.6,1.8,0,3.4-0.1,5.1l0,0L190.9,189.5z M206.2,176.5c-0.5,0.3-0.6,0.9-0.3,1.4
		c0.1,0.1,0.1,0.2,0.2,0.2c0.7,0.6,1.5,1.2,2.3,1.8c0.3-1.3,0.5-2.4,0.7-3.4l0.6-0.9C208.2,175.6,207,175.3,206.2,176.5L206.2,176.5
		z M261.1,285.9c-0.3-3.3-0.7-3.9-3.7-4.6c1.1,2.1,2.1,4.1,3.2,6.1c0.4,0.9,0.7,1.9,1.1,2.8l0.5-0.1L261.1,285.9z M214.4,177
		l1.5-1.1c-3.1-0.7-4.2-0.2-5.4,2.1l-0.4,1.6c0.2,0.2,0.4,0.3,0.6,0.4c0.9,0.4,1.8,0.7,2.8,1.1c0.1-0.8,0.1-1.5,0.3-2.2
		S214.2,177.6,214.4,177z M201.2,226.8l-0.3-0.8l-2.9-5.3c-0.9,1.1-2.4,2-1.6,3.8c1.6,3.4,3.7,6.4,7.9,6.9l0.1,0.1h0.1l0.7,0.4
		c1.4,0.7,2.6,1.5,4.3,1.5c-0.4-0.6-1-1.1-1.6-1.5c-1.9-1.4-3.8-2.8-5.8-4.2C201.9,227.2,201.5,227.1,201.2,226.8L201.2,226.8z
		 M215.4,178.9l-0.2,0.4c-0.5,3.4,0,4.3,2.7,4.8c1-2.3,3-3.9,5.4-4.6c0.1-0.2,0.2-0.5,0.2-0.6c-2-2.2-5.4-2.4-7.7-0.3
		C215.7,178.7,215.6,178.8,215.4,178.9L215.4,178.9z M208.2,187.1l-0.8,0.5c-2.1,2.1-2.1,2.9-0.3,5c0.5,0.5,1,1,1.4,1.6
		c1.7,2.3,1.5,4.4-0.6,6.3c-0.3,0.3-0.6,0.5-1,0.9c1.1-0.1,2-0.2,2.8-0.3c2.2-0.1,3.5-1.1,3.5-3.3c-0.1-1.3-0.4-2.5-0.9-3.6
		c-0.3-0.9-1-1.6-1.4-2.5c-0.9-2.1,0.1-3.8,2.5-4c1.1-0.1,2.2,0.2,3.3,0.2c0.7,0,1.5-0.1,2.2-0.2c-0.1-0.3-0.3-0.7-0.6-0.9
		C215.2,184.2,211.4,184.4,208.2,187.1L208.2,187.1z M201.5,185.6c-0.9,0.6-1.4,1.7-1.2,2.8c0.4,0.8,0.9,1.7,1.4,2.4
		c1.9,2.7,0.7,5.3-2.5,5.7c-1,0-1.9,0.1-2.9,0.3c-1.6,0.4-3.4,1.1-3.8,2.9s1,2.7,2.3,3.6c1.8,1.2,2.2,3.5,1.1,5.3
		c-0.1,0.1-0.2,0.2-0.3,0.4c-0.4,0.4-0.8,0.8-1.2,1.2c1.5,0.6,2.8,0.8,4.2-0.1c-0.4-0.8-0.7-1.4-0.9-2.1c-1.8-4.7,0.1-8.2,5-9.1
		l0.7-1.9l0.8,0.9c1,1.2,2,1.4,3,0.6s1-1.9,0.1-3.1c-0.5-0.7-1.2-1.3-1.7-2c-2.4-3.1-1.7-5.7,1.3-7.7c1.6-0.9,3.2-1.7,4.9-2.4
		l1.4-0.2c-1.7-1.1-3.1-2-4.8-1.6c-1.1,0.3-2.2,0.7-3.3,1.2C203.5,183.2,202.2,184.2,201.5,185.6L201.5,185.6z M256.7,277.3v0.6
		l1.8,0.8c0.7,0.3,1.3,0.6,1.9,0.9c1,0.8,2.4,0.6,3.2-0.4c1.5-1.6,3-3.3,4.5-4.9c0.6-0.4,0.9-0.8,0.2-1.5c-0.9-1-1.6-2.1-2.6-3.1
		c-1.9-2-3.8-3.8-6-6.1c-0.5,0.8-0.8,1.2-1.1,1.7c-2.9,3.1-4.6,7.1-4.9,11.3L256.7,277.3L256.7,277.3z M263.3,323.3l-6.8,2.7
		l7.4,1.2l1.4,0.3c-0.4-1.5-0.7-2.7-1-3.9C264.2,322.9,263.8,322.9,263.3,323.3L263.3,323.3z M194.8,194.8c2-0.3,4.3,0.3,6.1-1.6
		c-1.9-1.8-2.7-4.5-2.3-7.1l2.1-2.7c-3.7,0.9-4.7,2.1-4.5,5.4c0.1,2.8-0.8,4.1-3.5,5.1c-2,0.7-3.8,1.7-4.6,3.8
		c-1.2,2.4-1,3.5,0.8,4.3s1.9,1,1.5,2.7c-0.2,0.7-0.5,1.3-0.9,1.9c-0.6,0.5-1.3,1-2,1.3l3.3,0.9c0.2-1.1,0.3-1.8,0.4-2.4
		c1.2-0.5,1.3,0.5,1.7,0.9c0.3,0.3,1,0.7,1.2,0.5c0.4-0.3,0.7-0.8,0.8-1.3c0.3-1.2-0.7-1.6-1.5-2.1c-3.6-2.2-3.6-6.5-0.1-8.7
		L194.8,194.8L194.8,194.8z M236.1,185.2c0.6-1,0.5-2.3-0.3-3.3c-0.2,0.1-0.3,0.2-0.5,0.4c-2.4,3.4-4,3.6-7.1,0.8
		c-0.2-0.2-0.3-0.4-0.5-0.5c-1.8-1.5-4.4-1.6-6.4-0.2c-0.9,0.8-2.2,1.4-1.8,3.3c1.1-1.6,3.2-2.1,4.9-1.1c1.8,0.8,3.4,2,5.1,3
		c0.6,0.4,1.4,0.7,2.1,0.9C233.8,188.6,235.3,187.4,236.1,185.2L236.1,185.2z M290.7,391.5l-0.7,1.5c-1.6,3.3-3.3,6.5-5,9.7
		c-1.3,2.4-2.6,4.7-3.9,7c-0.4,0.4-0.7,0.9-1,1.3c-3,5-6.5,9.7-10.6,13.9c-0.1,0.1-0.1,0.4-0.3,0.7c0.7,0.3,1.4,0.6,2,0.8
		c5.3,1.6,10.8,2.7,16.3,3.5c3.6,0.6,7.3,0.1,10.7-1.4c6.5-2.7,12.9-5.5,19.5-8c2.2-0.8,4.4-1.4,6.7-1.6c5.1-0.5,10-1.7,14.8-3.4
		c5.5-1.9,10.3-5.3,13.8-9.9c2-2.8,3.8-5.7,5.5-8.7c3.3-5.6,4.9-11.5,4.1-18c-0.9-6.9-1.5-13.7-2.6-20.6c-0.5-3.7-2-7.1-5.7-8.9
		l-5.6-2.5c-2.3-1-4.7-0.6-7-0.3c-5,0.8-9.8,2.1-14.5,3.8c-7.3,2.5-14.8,4-22.5,3.7c-1.4-0.1-2.7-0.1-4.1,0
		c-1.6,0.1-3.3,0.2-4.6,1.3c0.2,2.8,0.5,5.4,0.4,8c-0.1,7.7-1.5,15.4-4.2,22.7C291.7,387.8,291.2,389.6,290.7,391.5L290.7,391.5z
		 M223.2,84c2.5-2.2,5-4.5,7.6-6.5c6-4.3,11.6-9,16.9-14.1c2.4-2.4,4.9-4.6,7.2-7s2.3-4.7-0.1-7c-1.2-0.6-2.6-1.1-3.9-1.5
		c-4.1-0.5-8.1-1.5-11.9-3l-0.5-0.3l-0.9-0.3c-1.1-0.6-2.3-1-3.5-1.2c-5.8-0.6-11.6-1.1-17.3-1.4c-3.3-0.1-6.7,0-10,0.5
		c-3.9,0.4-7.6,1.7-11,3.6c1.4,1.5,2.7,2.9,3.9,4.4c4.3,5.6,8.6,11.3,12.8,17c4,5.5,7.3,11.3,8.1,18.2c0.1,0.4,0.3,0.8,0.5,1.2
		L223.2,84z M221.5,189c-0.8,1.1-2.1,1.7-3.5,1.7c-1.4,0-2.8,0.3-4.6,0.5c0.6,1,1.1,1.6,1.5,2.3c3.2,4.9-0.7,9.2-4.6,9.6
		c-2.1,0.3-4.3-0.2-6.1-1.5c-1.3-1.2-3.4-1.1-4.6,0.3c-0.2,0.2-0.4,0.5-0.5,0.7c-0.9,2-0.7,4.4,0.7,6.1c1.2,1.7,2.9,2.7,5.1,2.1
		c1-0.3,2.1,0.1,2.8,0.9c2.6,2.5,5.3,4.8,7.9,7.2c3.9,3.5,8.4,3.2,13.1,2.3c0.7-0.2,1.2-0.6,1.5-1.3c0.7-1.7,1-3.6,0.7-5.4
		c-0.7,0.1-1.3,0.2-2,0.3c-1.7,0-3.3,0-5-0.2c-0.9-0.1-1.1-0.7-0.7-1.6c2.5,0.1,4.9,0.6,7.2-0.2c0.1-0.2,0.2-0.3,0.2-0.4
		c0-1.3-0.4-2.8,0-4s1.7-2.3,2.6-3.4l1-1c-1.5-1.1-2.8-2.3-4.3-3.2c-1.4-0.9-2.2-2.6-2-4.2c0-1,0-2-0.1-3.1l-0.9-1.4
		c-1.2-1.4-2.3-2.9-3.5-4.3c-0.4-0.4-0.9-0.8-1.4-1.1C221.8,187.5,221.7,188.2,221.5,189z M363.5,352.7c0.6,2.9,1.2,5.8,1.7,8.7
		c0.5,2.7,0.8,5.5,1.2,8.3c1.1,6.8,1.9,13.6,0.3,20.4c-1.4,4-3.2,7.8-5.5,11.4c-0.3,0.6-0.6,1.2-0.9,1.8c0.9-0.4,1.3-0.6,1.7-0.8
		c4.1-2.2,7.8-5.1,11-8.5c3.3-3.7,6.4-7.5,9.4-11.4c4-4.9,7.2-10.3,9.7-16.2c2.5-6.2,4.1-12.8,4.7-19.4c0.1-2,0.3-4-0.8-5.8
		c-1.6-2.4-4.1-2.3-6.5-1.8c-2.1,0.5-4.1,1.2-6.1,2c-4.6,1.9-9.2,4-13.9,5.9c-2.4,1-4.9,1.9-7.4,2.8L363.5,352.7z M199.1,232.1
		c-2.7-1-5.8-0.5-8.1,1.3c-0.8,0.6-1.6,1.3-1.2,2.4c1,3.1,2.1,6.2,3.2,9.2c0.5,1.5,1.1,3,1.7,4.4c0.4,1.1,1,2.2,1.5,3.5
		c2.7-2.7,5.3-2.7,8.4-1.3c12.1,5.5,24.1,11.2,36.8,15.2c3.6,1,6.9,3.1,9.4,5.9c0.1,0.1,0.3,0.1,0.3,0.1l4.1-7.5l1.3-1.4
		c-6.7-3.9-13.6-7.4-20.7-10.5c-1.5-0.6-3-1.5-4.3-2.4c-7.2-5.5-14.7-10.4-22.5-14.8C205.9,234.5,202.7,232.8,199.1,232.1z
		 M238.9,268.6c-1.6-0.9-3.3-0.6-4.9-0.2c-5.1,1.2-10.1,3.1-14.7,5.6c-5,2.6-9.1,6.7-11.7,11.6c2.3,1.5,4.6,3,6.8,4.5
		c4,2.8,8,5.5,12,8.3c1.8,1.2,3.4,2.6,4.9,4.1c5,5.9,7.9,12.7,7.6,20.6c0,0.9,0,1.9,0,2.9c0.7,0.1,1.5,0.1,2.2,0
		c5.7-0.9,11.3-1.8,16.7-4c2.3-1.1,4.5-2.4,6.5-3.9c0.9-0.7,1.9-1.5,2.8-2.2c0.9-0.7,1.3-1.9,0.8-3c-0.6-1.6-0.9-3.2-1.5-4.8
		c-3-7-6-14.1-9.1-21.1c-1.9-4.3-4.4-8.4-7.4-12C247.3,271.7,243.3,269.4,238.9,268.6z M117.5,97.4L117.5,97.4c-0.3,0-0.7,0-1,0
		c-6.4,1.5-12.7,3.2-18.3,6.7c-3.9,2.5-7.2,5.8-8.8,10.2c-2.2,5.9-3.7,12-4.6,18.3c-0.5,4.6-2.5,9-5.5,12.4c-0.9,1-1.8,2-2.6,3.1
		c-1.2,1.5-2,3.2-2.4,5.1c-0.9,4.1-1,8.2-0.3,12.3c0.5,2.5,0.8,5,1.1,7.5c1.8-0.3,3.3-0.6,4.9-0.8c4.3-0.5,8.7-0.9,13-1.6
		c5.8-0.8,11.6-2,17.5-1.9c0.2,0,0.5,0,0.7,0c3.3-0.1,6.7-0.4,10-0.3c5.2,0.3,10.5,0.8,15.7,1.3c4.4,0.5,8.9,1,13.2,1.8
		c7.1,1.1,14,3.1,20.6,5.9l4.8-4.3l4.8-6.7c0.7-1.4,1.4-2.7,2-4.1c2.6-5.8,3.9-11.9,5.3-18.1c0.9-4.2,1.8-8.5,4.3-12.1
		c2.3-3.3,3.2-6.9,4.1-10.6c0.4-1.6,0-3.3-1.1-4.4c-2.7-3.1-5.9-5.8-9.6-7.9c-8.5-4.5-17.6-7.9-27-10.2c-6.1-1.7-12.4-2.7-18.7-3
		c-3.7-0.2-7.5-0.3-11.2-0.1c-3.3,0.2-6.6,0.7-9.9,1.1L117.5,97.4z M201.8,108.6c0.9-0.2,1.8-0.5,2.7-0.9c2.6-1.7,5.1-3.5,7.5-5.4
		c1.1-1,1.9-2.1,2.6-3.4c1.9-3.3,2.6-7.1,1.8-10.8c-0.9-5.9-3.2-11.6-6.8-16.3c-1.4-2-2.8-4-4.3-6c-3.3-4.3-6.7-8.7-10.1-13
		c-2.9-3.9-6.6-6.6-11.6-7.4c-3.6-0.5-7.3-0.3-10.9,0.4c-4.8,0.8-9.1,2.8-13.5,4.8c-5.3,2.6-10.6,4.9-15.9,7.4c-3,1.4-6,2.9-8.9,4.6
		c-5.3,3.2-9.9,7.3-13.7,12.2c-4.9,5.8-9.4,11.9-13.4,18.3c-0.3,0.6-0.6,1.2-0.8,1.8c0.3,0.1,0.4,0.2,0.4,0.2
		c0.7-0.2,1.4-0.3,2.1-0.5c6.1-2,12.4-3.1,18.8-3.2c6.1,0,12.3,0.1,18.4,0.6c5.9,0.6,11.8,1.8,17.5,3.7c10.9,3.5,21.8,6.9,30.6,14.7
		c0.5,0.4,1.2,0.6,1.9,0.5c1.1-0.3,2.2-0.8,3.3-1.3L201.8,108.6z M89.8,175.7c-1.7,0.1-3.5,0.2-5.2,0.4c-3.9,0.3-7.7,1.1-11.4,2.3
		c-3.6,1.1-6.6,3.3-8.7,6.4c-1.7,2.6-3.5,5.2-2.9,8.6c0.2,1.3,0.4,2.5,0.7,3.8c1.3,6.2,2.7,12.4,3.8,18.7c0.8,4.9,0.8,9.9-1.4,14.5
		c-2,4.1-3.9,8.2-4.3,12.8c-0.2,2.5-0.3,4.9-0.1,7.4c0.8-0.6,1.2-0.8,1.5-1.1c1.9-1.6,3.6-3.4,5.6-4.8c9.7-7,20.6-12.1,32.2-14.9
		c7.9-2,15.9-3.4,23.8-5.2c9.5-2.2,19-3.8,28.8-3.5c0.7,0,1.4-0.1,2.1-0.1c3.5,0,7-0.1,10.4-0.1c3.3,0.1,6.5,0.4,9.9,0.6l0.8-2
		l0.9-1c0.4-0.6,0.7-1.2,1-1.8c0.8-2.5,1-5.2,0.7-7.8c-0.6-5.3-1.5-10.6,0.1-15.9c0.5-1.6,0.2-3.4-0.8-4.8c-1.6-2.5-3.5-4.7-6.3-6
		c-4.3-2.1-8.8-3.6-13.5-4.7c-3.5-0.7-7-1.3-10.5-1.9c-1.9-0.3-3.7-0.7-5.6-0.9c-4-0.4-8.1-0.7-12.1-1.1c-7.1-0.7-14.2-0.8-21.3-0.2
		C101.7,173.7,95.7,174.9,89.8,175.7z M118.3,230.3c-0.5,0-0.9,0-1.4,0.1c-9.5,2.3-18.9,5.2-28.2,8.5c-0.8,0.3-1.6,0.7-2.4,1
		c-2.5,1.1-5.1,1.9-7.4,3.3c-4.5,3-9,6.1-13.2,9.5c-3.2,2.5-6.2,5.4-6.4,9.9c0,1.8,0,3.6,0.3,5.4c0.1,1.6,0.5,3.1,1,4.6
		c0.8,1.9,1.8,3.8,2.8,5.5c3.1,5.6,6.5,11,8.6,17.1c2,5.5,3.9,11.1,5.8,16.7c2.7,7.7,5.3,15.4,9.4,22.5c3.1,5.4,5,11.4,8.6,16.5
		c2.2,3,4.2,6.3,6.7,9c3.2,3.2,7.1,5.7,11.3,7.3c4.6,1.9,9.2,2.4,13.9,0.2c3-1.3,5.8-3,8.4-5.1c2.9-2.4,5.7-4.9,8.6-7.3
		c3.7-3.2,7.5-6.2,11-9.5c4.7-4.5,9.2-9.3,13.7-14s9-9.3,13.2-14.2c4.9-5.5,9.4-11.3,13.5-17.4c2.4-3.8,4.5-7.7,5.1-12.3
		c0.3-2.4,0.7-4.7-0.3-7c0-3.1-0.6-6.2-1.7-9.1c-0.7-2.1-1.3-4.3-2.1-6.3s-1.7-3.8-2.6-5.7s-1.8-4.1-2.9-6c-2.7-4.8-5-9.8-7.1-14.9
		c-1.4-2.9-3-5.6-4.8-8.2c-1.3-2.2-3.6-3.7-6.2-3.9c-1.5-0.1-3-0.6-4.5-0.6c-7.1,0-14.2,0-21.3,0.4c-6.9,0.4-13.8,1.2-20.7,2
		C124.2,228.8,121.3,229.6,118.3,230.3z M205.7,283.8l0.5,0c0.8-1.1,1.5-2.2,2.4-3.3c1.1-1.3,1.6-3,1.5-4.6
		c-0.1-1.9,0.1-3.8,0.1-5.7c0.1-4.2,0.3-8.4,0.5-12.6c-1.6-0.8-3-1.4-4.3-2.2c-0.8-0.6-2-0.4-2.5,0.5c0,0.1-0.1,0.1-0.1,0.2
		c-0.4,0.6-0.7,1.2-1.1,1.8c-0.4,0.5-0.8,0.9-1.3,1.3c-0.2-2.2,0.9-3.6,1.5-5.1c-2.1-1.2-3.9-0.9-5.9,0.9
		C201.8,263.8,204.8,273.6,205.7,283.8z M215.6,223l-9.6-10.2c-0.4,3.4-3.1,5.5-5,8c1.8,3.6,4.8,6.4,8.5,8L215.6,223z M266,288.9
		l0.7,0c0.2,1.4,0.4,2.8,0.5,4.2s-0.2,2.7,1,4.3v-9.9l0.5-0.1c1,1.3,0.5,3,0.6,4.5c0.1,1.7,0.3,3.4,0.4,5c0.5-1.8,0.8-3.6,0.9-5.4
		c0-1.8,0-3.5,0.2-5.3c1.4-0.2,1.5,0.8,1.8,1.4c0.7,1.7,1.4,3.4,2.2,5.5c0.6-4.6-2.3-14-4.7-16.4l-6.8,6.2c0.7,4.1,1.5,8.5,2.2,12.9
		l0.5-0.1L266,288.9z M217.4,271.7l11.6-5.5c-4.1-1.7-7.6-4-11.6-5.5V271.7z M194.2,223.8c-3.7,0.3-6.9,1.2-9.3,4.2l3.3,4.7
		c2.2-2.4,5.1-3.3,8.2-3.9C195.5,227,194.9,225.4,194.2,223.8L194.2,223.8z M211.6,276.2c0.3-0.4,0.6-0.7,0.9-1.1
		c0.2-0.3,0.3-0.5,0.4-0.9c1.1-4.5,1.6-9.1,1.5-13.7c-0.1-1.7-0.1-1.8-2.3-2C211.9,264.3,211.8,270,211.6,276.2L211.6,276.2z
		 M187,214.1c1.6,1.7,4,2.6,6.4,2.3l-1-1.5l3.8-1.9l-4.6-2.4C190.2,212,189.8,214.3,187,214.1z M203.7,213l-4.2-1.7
		c-0.5,0.7-1,1.4-1.6,2.1s-1.2,1.4-1.8,2.1C199.5,217.1,202,216.4,203.7,213L203.7,213z M206.1,180.3l-5.3-5.1
		C200,179.2,201.4,180.6,206.1,180.3L206.1,180.3z M229.5,190.8c0.4,0.9,0.9,1.8,1.2,2.7c0.3,0.8-0.2,1.8,0.4,2.6
		c1.9-2.1,2-2.8,0.8-5.1L229.5,190.8z M210.6,230.6l1,2.3C212.2,231.6,212.4,230.9,210.6,230.6z"/>
	<path class="st2" d="M387.6,276c-0.1,1.4-0.5,2.2-1.9,2.1c-0.4,0-0.7,0-1.1,0.2c-1.9,1-3.8,2.1-5.7,3c-7.2,3.4-13.4,8.5-18,15
		c-5.9,7.9-10.1,16.9-12.3,26.5c-0.4,2.2-0.6,4.4-0.7,6.6c-0.1,0.8-0.1,1.6-0.3,2.7c-1-0.5-1.7-1.5-1.9-2.7
		c-1.5-6.6-3-13.2-4.7-19.7c-2.7-10.7-8.2-19.8-15.6-27.9c-2.4-2.9-5.3-5.3-8.5-7.3c-1.5-0.8-3.1-1.5-4.8-2.1
		c-1.1-0.2-2-1.1-2.2-2.3c1.1-0.5,2.1-1.1,3.3-1.5c14.3-5.2,23.8-15,28.7-29.4c2.3-7.2,3.7-14.7,4-22.3c0.1-2.8,0.4-5.6,0.5-8.4
		c0-0.9,0.3-1.6,1.3-1.6s1,0.9,1,1.6c0,6.1,1.1,12,1.9,18c1.4,9.5,5.1,18,10.3,26c3.9,6.4,8.8,12.2,14.5,17.1
		c1.7,1.4,3.6,2.7,5.5,3.8c1.4,0.6,2.9,1.2,4.5,1.6C386.2,275.5,386.9,275.7,387.6,276z M347.9,230.7l-0.3-1.2
		c-3.3,18.6-11.5,33.6-29.7,41.9c4.5,2.8,8.6,6.3,12,10.3c7.8,9,13.3,19.8,16,31.5c0.3,1.3,0.7,2.6,1,4h0.3l0.7-2.8
		c1.7-3.9,3.2-7.9,5.1-11.6c5.7-11.2,13.4-20.6,25.3-25.8c0.4-0.2,0.7-0.4,1.1-0.7c-3.2-2.5-6.5-4.8-9.4-7.5c-7-6.9-12.8-15-17-23.9
		C350.8,240.4,349.1,235.6,347.9,230.7L347.9,230.7z"/>
	<path class="st2" d="M290.8,137.9c0,0.9-0.7,1.8-1.6,1.8c0,0,0,0,0,0c-1.1,0.2-2.2,0.4-3.3,0.7c-5.3,1.3-9.5,4.4-13,8.5
		c-5.9,6.8-9.5,15.2-10.5,24.2c-0.6,5-1.2,10.1-1.8,15.1c-0.1,0.5-0.2,0.9-0.4,1.3c-0.5-0.8-1-1.2-1.2-1.7c-0.7-2.3-1.3-4.7-1.8-7.2
		c-1-7.7-2.9-15.3-5.7-22.6c-0.3-0.9-0.7-1.8-1.2-2.6c-3.7-6.2-9.1-11.2-15.6-14.5c-1.8-1-3.9-1.4-6-1.3c-1.4,0.1-2.1-0.6-2-2
		c1.9-0.7,3.8-1.4,5.7-2.1c8.3-2.8,13.4-8.5,16.4-16.5c3.4-8.8,5.9-17.8,7.6-27.1c0.1-1.3,0.2-2.5,0.2-3.8c0-0.5,0-1.1,0.2-1.6
		c0.2-0.7,0.7-1.3,1.5-1.2c0.7,0.1,1.1,0.6,1.1,1.3c0,0.1,0,0.2-0.1,0.3c-0.8,4,0.5,7.7,1.3,11.5c1.2,6.2,3.1,12.2,5.6,18
		c2.7,5.7,6.9,10.6,12.1,14.2c2.8,1.9,5.7,3.8,8.6,5.6C288.3,136.8,289.5,137.4,290.8,137.9z M259.3,167.7c1.5-6.1,4-11.8,7.5-17
		c3.8-5.5,8.5-9.9,14.9-12.4c0.5-0.2,0.9-0.4,1.5-0.7c-0.4-0.3-0.6-0.4-0.8-0.5c-10.1-5-17.6-14.1-20.7-24.9
		c-1.1-3.5-1.9-7.1-2.9-10.6c-0.2-0.9,0-1.9-0.9-2.7c-0.1,0.5-0.2,0.8-0.3,1c-1.5,7.2-3.6,14.2-6.1,21.1c-1.9,5-4.3,9.8-8.6,13.3
		c-1.9,1.5-4.1,2.8-6.2,4.2l1.6,0.9c4.4,2.6,8.4,5.9,11.7,9.8c3.4,3.8,5.2,8.4,6.7,13.1c0.7,2.3,1.4,4.6,2,6.9h0.3L259.3,167.7z"/>
	<path class="st3" d="M114,54c-2.4-0.8-4.4,0-6.2,1.1c-6,3.6-9.3,9.1-10.8,15.7c-0.6,2.7-0.9,5.5-1.4,8.2c-0.3,1-0.6,2.1-1,3.1
		c-1.2-1-1-2.1-1.1-3.1c-0.3-2.8-0.5-5.6-1.1-8.3c-1.9-8.8-7.7-14-16-16.8c-2-0.7-2-0.6-1.9-2.7c2-0.6,3.9-1.4,5.7-2.3
		c4.9-2.9,7.7-7.5,9.5-12.8c1.3-4.3,2-8.9,2-13.4c0-0.6,0-1.3,0-1.9c0.1-0.8,0.4-1.6,1.5-1.5s1.2,0.7,1.2,1.5c0,0.6,0,1.1,0,1.7
		c0.2,7.1,2.5,13.9,6.6,19.7c2.3,3.4,5.7,5.9,9.6,7.2c0.7,0.2,1.3,0.5,2,0.8C114.8,51,114.9,51.5,114,54z M92.6,36.5
		c-0.3,0.8-0.6,1.6-0.9,2.4c-2,5.5-5,10.3-10.1,13.5c-0.1,0-0.1,0.2-0.1,0.4c7.9,4.7,9.5,7.1,12.5,12.6l0.7,2
		c2.5-7,6.5-12.3,12.9-15.6c-8.3-3.6-11.3-11-14.4-18.8C92.9,34.4,92.8,35.4,92.6,36.5z"/>
	<path class="st3" d="M430.4,307c-1.7-0.8-3.1-0.1-4.3,0.8c-6.4,4.7-11,10.6-11.5,18.9c-0.2,2.7-0.1,5.3,0.3,8
		c0,0.7-0.1,1.5-0.2,2.2l-0.5,0.1c-0.4-0.4-0.7-0.9-1-1.4c-0.8-2.3-1.6-4.7-2.3-7c-0.4-1.4-0.7-2.8-1.1-4.2
		c-1.8-6.9-6.2-11.8-12.1-15.4c-0.8-0.5-1.7-0.8-2.6-1c-0.9-0.1-1.5-0.5-1.4-1.3c0.2-0.6,0.6-1,1.2-1.2c7.6-2,11.9-7.3,14.4-14.4
		c1.1-3,1.6-6.2,1.6-9.4c0-1.7,0.7-2.2,2.5-2c0.2,2.2,0.4,4.4,0.7,6.6c0.3,2.6,1.3,5.1,2.8,7.3c2.6,4.1,6.2,7.4,10.5,9.6
		c0.6,0.3,1.3,0.6,2,0.7C431.1,304.4,431.1,304.5,430.4,307z M411.5,320.2c0.2,0.5,0.4,1,0.8,1.9c2-7.4,6.4-12.6,12.3-16.8
		c-5.2-3.2-9.4-8-11.8-13.7c-0.2-0.3-0.4-0.6-0.7-0.8c-0.2,0.4-0.4,0.8-0.5,1.2c-1.9,6.2-5.1,11.5-10.9,14.9
		c-0.2,0.1-0.3,0.3-0.5,0.6C405.1,310.5,409,315,411.5,320.2z"/>
	<path class="st0" d="M199.3,271.5c1.1,2.9,1.7,6,1.7,9.1c-0.4,0.6-0.7,1.2-1,1.8c-0.7,1.8-1.3,3.7-2,5.5c-0.3,1.2-1.2,2.2-2.3,2.7
		c-0.6,0.9-1.3,1.8-1.9,2.8c-4.3,6.9-9.3,13.4-15,19.2c-6.3,6.6-12.8,12.9-19.3,19.3c-3.1,3-6.2,6-9.4,8.9c-1.5,1.3-3.1,2.5-4.7,3.7
		c-1.2,0.3-2.4,0.6-3.6,1c-1,0.3-2.1,0.8-2.8-0.1c-0.4-0.5,0-1.6,0-2.4l0.6-0.4l0.4-0.4c5.4-4.2,10.9-8.3,16.3-12.5
		c0.6-0.5,1.2-1.1,1.7-1.7c0.5-0.6,0.2-1.2-0.6-1.4c-3.7,3.6-7.7,6.9-12,9.8c-0.7,0.1-1.4,0.3-2,0.5c-1.7,0.9-3.3,2-5,2.8
		c-1.5,0.7-3.3,1.6-4.7,1.3c-2.1-0.4-4.1-1.4-5.7-2.7c-1.7-1.5-3.1-3.2-4.3-5c-3.7-5.2-6.3-11.1-9-16.9c-1.3-2.9-1.5-5.6,0.2-8.4
		c0.1-0.4,0.2-0.8,0.3-1.1l4.2-1.9c-2.1-0.7-3.7,0.6-5.6,0.9l-1.6-0.8l2.4-3.1c10.3-4.7,20.3-10.1,30-16.1
		c17.8-10.8,27-16.9,28.5-18.9c-1.5-0.2-2.4,0.8-3.5,1.4c-8.7,5.5-17.4,11-26.2,16.4c-3.3,2-6.7,3.8-10,5.6
		c-0.9,0.1-1.7,0.2-2.5,0.5c-6.2,2.6-12.5,5.3-19.4,5.6c-0.7,0.2-1.4-0.2-1.7-0.9c1.1-0.9,2.9-1.1,3.5-2.9l-3.9,1.5l-0.5,0.3l-1,0.1
		c-0.5-0.7-1.1-1.3-1.5-2c-2.6-4.2-5.3-8.3-7.7-12.6c-2.7-4.6-4.2-9.8-5.9-14.8c-1.3-3.8-3.1-7.5-4.8-11.2s-3.2-7.3-2.2-11.4
		c0.2-0.8,0.3-1.7,0.5-2.6c0.8-0.4,1.6-0.7,2.4-1c9.2-3.3,18.6-6.1,28.2-8.5c0.5-0.1,0.9-0.1,1.4-0.1c1.3-0.1,2.6-0.1,3.8-0.2
		c3.5-0.4,7.1-0.9,10.6-1.3c2.5-0.3,5.1-0.4,7.6-0.6c4-0.3,7.9-0.8,11.9-0.8c4.4-0.1,8.8,0.1,13.1,0.5c8,0.7,14.2,4.2,17.2,12.2
		c1.1,3.1,2.5,6,4,8.9c1.8,3.5,4,6.9,6,10.3c1.6,2.8,3,5.6,4.6,8.4C197.7,269,198.6,270.3,199.3,271.5z M146,279.3
		c-0.4-0.2-0.7-0.5-0.8-0.4c-2.1,1.2-4.4,2.3-6.4,3.6c-2.9,1.9-5.9,3.5-8.6,6.2C132.4,288.4,144,281.4,146,279.3z"/>
	<path class="st0" d="M118.5,97c3.3-0.4,6.6-0.9,9.9-1.1c3.7-0.2,7.5-0.1,11.2,0.1c6.3,0.3,12.6,1.3,18.7,3c0.8,0.6,1.6,1.2,2.5,1.6
		c2.8,1.3,5.6,2.3,8.3,3.6c5.2,2.7,10,5.9,14.5,9.7c2.6,2.1,4.9,4.6,6.7,7.4c0.6,0.8,0.8,2,0.4,2.9c-0.7,1.9-1.5,3.7-2.5,5.4
		c-3.1,4.6-3.4,9.8-3.9,15c-0.4,4.4-1,8.8-1.8,13.2c-0.6,2.3-1.3,4.6-2.1,6.8c-0.1,0.6-0.1,1.1,0,1.7l-4.8,6.7h-0.8
		c-1.3-1.9-3.5-2.4-5.4-3.3c-7.3-3.1-15.1-4.6-22.9-5.9c-0.3-1-0.8-1.2-1.5-0.3h-1c-0.1-1-0.8-0.9-1.6-1c-2-0.1-4-0.3-5.9-0.5
		c-3.9-0.4-7.9-1.1-11.8-1.3c-3.7-0.2-7.4-0.7-11.1-1.4c-1.2-0.2-2.3-0.7-3.2-1.4c-3.9-2.5-6.3-6.3-8-10.5c-0.7-1.7-1.1-3.5-1.2-5.3
		c0-2.8,1.1-5.3,2-7.8l13.2-2.4v-0.7c-0.8,0-1.6-0.2-2.4-0.1c-1,0-2,0.2-3.1,0.3c-4.7,0.3-6.6-3.8-5.5-7.4c0.2-0.7,0.2-1.4,0.2-2.1
		c-0.1-2.3,0.4-4.6,1.4-6.7c1.3-2.9,2.6-5.8,4.1-8.6c1.1-1.8,2.2-3.5,3.5-5.1l3-4.2l0,0L118.5,97z M128.8,131.6
		c3.4,1.8,7,1.1,10.3,1.7c2.9,0.5,6,0.1,7-0.6C144.4,131.8,131.1,130.8,128.8,131.6L128.8,131.6z"/>
	<path class="st4" d="M195.7,290.7c1.2-0.5,2-1.5,2.3-2.7c0.7-1.8,1.3-3.7,2-5.5c0.3-0.6,0.6-1.2,1-1.8c0.9,2.3,0.5,4.7,0.3,7
		c-0.5,4.6-2.6,8.5-5.1,12.3c-4.1,6.1-8.6,11.9-13.4,17.4c-4.2,4.9-8.7,9.5-13.2,14.2s-9,9.5-13.7,14c-3.5,3.4-7.3,6.4-11,9.5
		c-2.8,2.4-5.7,4.9-8.6,7.3c-2.5,2.1-5.4,3.8-8.4,5.1c-4.7,2.2-9.4,1.7-13.9-0.2c-4.3-1.6-8.2-4.1-11.4-7.3c-2.6-2.7-4.6-5.9-6.7-9
		c-3.7-5.1-5.5-11.2-8.6-16.5c-4.1-7.1-6.8-14.8-9.4-22.5c-1.9-5.6-3.8-11.2-5.8-16.7c-2.2-6-5.5-11.5-8.7-17.1
		c-1.1-1.8-2-3.6-2.8-5.5c-0.5-1.5-0.9-3.1-1-4.6c-0.2-1.8-0.3-3.6-0.3-5.4c0.2-4.5,3.3-7.4,6.4-9.9c4.3-3.4,8.7-6.5,13.2-9.5
		c2.2-1.4,4.9-2.3,7.4-3.3c-0.2,0.9-0.3,1.7-0.5,2.6c-0.9,4.1,0.6,7.8,2.2,11.4s3.5,7.4,4.8,11.2c1.7,5.1,3.2,10.2,5.9,14.8
		c2.4,4.3,5.1,8.4,7.7,12.6c0.4,0.7,1,1.4,1.5,2c0,0.1-0.1,0.2-0.1,0.2c-8,3.6-16.4,6.3-24.9,8c-0.7,0.1-1.4,0.1-1.7,1.3
		c1,0.1,1.9,0.1,2.9,0c3.8-0.9,7.6-1.8,11.3-3c4.9-1.7,9.7-3.7,14.5-5.5c0.3,0.7,1,1,1.7,0.9c6.9-0.3,13.1-2.9,19.4-5.6
		c0.8-0.3,1.7-0.4,2.5-0.5c-1.5,0.9-2.9,1.9-4.4,2.7c-8.1,4.7-16.7,8.3-25.8,10.8c-3.8,1-7.5,2.1-11.3,3.1c-0.8,0.2-1.7,0.2-2,1.4
		c0.3,0.1,0.7,0.1,1.1,0.1c4.4-1.1,8.8-2.1,13.2-3.3c3.5-1,7-2.2,10.5-3.3l-2.4,3.1l1.6,0.8c-0.7,0.3-1.4,0.6-2.2,0.9
		c-3.5,1.3-7,2.5-10.5,3.9c-0.3,0.1-0.5,0.5-0.8,0.8l0.3,0.4l14.6-4.9c0,0.4-0.1,0.8-0.3,1.1c-1.7,2.8-1.5,5.5-0.2,8.4
		c2.7,5.8,5.3,11.6,9,16.9c1.2,1.9,2.7,3.6,4.3,5.1c1.7,1.4,3.6,2.3,5.7,2.7c1.4,0.3,3.2-0.6,4.7-1.3c1.7-0.8,3.3-1.9,5-2.8
		c0.6-0.2,1.3-0.4,2-0.5c-0.1,0.1-0.2,0.3-0.3,0.4c-5.6,4.4-11.8,8-18.3,10.6c-1.9,0.8-3.9,1.4-5.8,2.2c-0.6,0.2-1.3,0.4-1.3,1.5
		c5.1-1.2,10-3.1,14.6-5.5c1.6-0.8,3.2-1.7,4.8-2.6c0,0.8-0.4,1.9,0,2.4c0.7,1,1.8,0.5,2.8,0.1c1.2-0.4,2.4-0.7,3.6-1
		c-1.2,1.1-2.5,2.2-3.7,3.4c-0.5,0.5-1.4,0.9-1.1,2.1c0.8-0.5,1.4-0.8,2.1-1.3c5.3-3.8,10.3-8,14.9-12.6c8.6-8.5,17.2-17.1,25.4-26
		c3.8-4,7-8.7,10.3-13.2c1.1-1.7,2.1-3.4,3-5.2C196.8,291.1,196.4,290.8,195.7,290.7z M130.2,355.6c-0.5,0-1,0.1-1.5,0.2
		c-3.7,1.1-7.6,1.6-11.5,1.5c-2.3-0.1-4.6-0.3-6.9-0.5c-0.7,0-1.3,0.2-2,0.3C113.4,360,127.3,359.1,130.2,355.6z M108.2,352.3
		c-2-1.9-7-3.3-8.7-2.5C102.4,351.3,105.1,352.7,108.2,352.3L108.2,352.3z"/>
	<path class="st0" d="M199.5,390.9l14.7-19.1c0.2-0.3,0.5-0.7,0.7-1l0,0l0.5-0.5l0,0l1-1l0,0c0.7-0.3,1.3-0.7,1.9-1.2
		c2-2.2,4-4.4,5.8-6.7c4.9-6.5,9.7-13,14.6-19.5c1.3-1.8,2.8-3.5,4.2-5.2c1.4-1.7,3.5-2.6,5.7-2.5c3.4,0.1,6.8,0.4,10.3,0.4
		c3.7,0.2,7.4,0.7,11,1.5c2,0.4,3.9,0.7,5.9,1l0,0l1.1,0.5c4,1.6,7.4,4.2,9.9,7.7l1,4.8c-0.9,0.1-0.9,0.6-0.8,1.3
		c0.3,2,0.6,4.1,0.7,6.1c0,2-0.1,4-0.3,6c-0.1,2.5-0.4,4.9-0.8,7.3c-1.2,5.2-2.6,10.3-4,15.5c-0.6,2.5-1.3,4.9-1.9,7.4
		c-1.1,2.4-2.3,4.7-3.4,7.1c-0.5,1.1-1,2.1-1.5,3.2c-1.3-0.2-1.5,1-2,1.7c-1.7,2.5-3.4,5-5,7.5c-0.3-0.3-0.6-0.8-1-0.9
		c-2.1-0.8-4.2-1.5-6.3-2.2s-4.1-1.2-6.1-2c-1.2-0.5-2.4-1.2-3.5-1.9c0.3-0.8,0.6-1.7,0.9-2.5c1.1-2.9,2.1-5.8,3.2-8.8
		c0.1-0.5,0.1-1,0.1-1.4l-0.5-0.1c-1.9,3.8-3.2,7.9-4.8,11.8l-1.4-0.5c0.3-0.7,0.5-1.3,0.8-2c2.2-5.4,4.4-10.9,6.6-16.3
		c0.1-0.4,0.2-0.8,0.2-1.2l-0.5-0.2c-1.7,2.7-2.7,5.8-4.2,8.6c-0.5,0.4-0.9,0.8-1.3,1.3c-1.9,3.6-4.6,6.7-7.9,9.1
		c-2.2,1.6-4.5,3.3-7.3,3.4c-4.4,0.1-8.9,0.5-13.4-0.4c-6.6-1.2-12.9-3.9-18.2-8.1C201.6,397.2,199.6,394.6,199.5,390.9z"/>
	<path class="st0" d="M144.4,361.2c1-0.8,1.9-1.6,3-2.3c5.1-3.2,9.3-7.4,13.5-11.7s8.4-8.3,12.6-12.4c1.9-1.9,3.8-3.8,5.7-5.8
		l0.7-0.5l0,0l0.5-0.5l0,0l0.5-0.5l0,0c0.2-0.2,0.3-0.3,0.5-0.5l0,0c0.8,0,1-0.5,1-1.2v-0.2l0.2,0c1-0.4,2-0.9,2.9-1.5
		c1.8-1.8,3.5-3.7,5.2-5.6c2.2-2.6,4.6-5.1,6.6-7.9c3-4,5.8-8.2,8.6-12.4c1.1-1.6,1.4-1.7,3.1-0.9c1,0.6,2,1.2,3,1.9
		c1.4,1,2.7,2.2,4.2,3.1c2.3,1.4,4.7,2.7,7.2,3.8c3.4,1.6,6.4,4,8.5,7.2c0.4,0.4,0.9,0.8,1.4,1.1l0,0l0.3,0.5
		c0.1,1.1,0.2,2.3,0.3,3.4c-0.5,0.7-1,1.4-1.4,2.1c-2.6,5.5-5.7,10.9-9.3,15.9c-3.1,4.5-6.1,8.9-9,13.5c-4,6.5-8.4,12.8-13.1,18.8
		c-1.8,2-3.5,4.1-5.3,6c-3.1,3.3-6.4,6.6-9.5,9.9c-2,0-3,1.6-4.4,2.5c-1.8,1.2-3.9,1.8-6.1,1.8c-2.9-0.2-5.9-0.5-8.8-0.4
		c-2.7,0-5.4-0.5-7.9-1.5c-4.5-1.8-8.2-4.6-10-9.3c-1.4-3.5-2.6-7-3.9-10.5C144.3,365.3,143.5,363.4,144.4,361.2z"/>
	<path class="st5" d="M176.1,218.5l-0.9,1c-0.5-0.4-1.1-0.8-1.8-1.1c-4.3-1.2-8.8-1.9-13.3-2.1c0.3-1.1-0.4-1.4-1.3-1.5
		c-3.2-0.7-6.4-1-9.7-0.8c-0.5,0-1,0.6-1.5,0.9c-0.7,0.2-1.4,0.4-2.1,0.4c-4.1-0.2-8.2,0.5-12.2,1c-1-0.2-2-0.3-3-0.3
		c-5.9,1-11.9,2-17.8,3.3c-7.5,1.5-14.8,3.9-21.8,7.1c-1.7,0.8-3.4,1.4-5,2.1c-0.2-3.9,0.2-7.8,1.4-11.5c0.4-1.2,1-2.3,1.4-3.5
		c0.9-0.3,1.8-0.7,2.7-0.9c4.6-1.1,9.2-2.2,13.9-3.4c0.7-0.1,1.4-0.2,1.8-1.4l-6.7,0.9l-1,0.3l-1.4,0.2l-1,0.3l-1.4,0.2
		c-0.8-0.3-1.6-0.4-2.4-0.5c-1.5,0.1-2.9-0.5-3.8-1.7c-1.8-2-3-4.5-3.3-7.2c-0.3-3.5-0.4-7.1-0.5-10.7c0.1-1.4,0.3-2.8,0.6-4.2
		c0.5-3.3,1.7-6.4,3.6-9.2c0.1-0.1,0.1-0.3,0.1-0.5c6-0.8,12-2,18-2.4c7.1-0.6,14.2-0.5,21.3,0.2c4,0.4,8.1,0.7,12.1,1.1
		c1.9,0.2,3.7,0.6,5.6,0.9c2.7,1,5.3,2.1,8,2.9c5.2,1.5,10.2,3.7,14.8,6.5c2.1,1.3,3.7,3.3,4.7,5.6c0.8,1.8-0.1,3.3-0.6,4.8
		c-0.6,2.1-0.6,4.3,0,6.3c0.8,2.3,1.5,4.5,2.3,6.8c0.7,1.9,1.3,3.7,0.6,5.8C176.3,215.7,176.1,217.1,176.1,218.5z M135.8,200.2
		c-1.4-1.4-2.6-0.6-3.7-0.6c-7.9,0.3-15.7,1.1-23.5,2.4c-3.4,0.6-6.7,1.6-10,2.4c-0.7,0.2-1.6,0.3-1.6,1.6c4.3-0.9,8.6-1.9,12.8-2.6
		s8.5-1,12.8-1.6S131.3,201.4,135.8,200.2z M156,201.1c2.5,1.6,8.3,2.5,10.6,1.7C162.9,201.7,159.6,200.7,156,201.1L156,201.1z"/>
	<path class="st0" d="M348.9,346.9l5.6,2.5c0.3,1.6,0.7,3.2,1,4.8c0.1,0.8,0.1,1.6,0.3,2.4c0.4,3,0.9,6,1.2,9c0.4,4.6,0.7,9.3,1,14
		c-0.2,1.8-0.5,3.6-0.5,5.4c-0.2,3.1-1,6.1-2.2,9c-0.1,0.4-0.8,0.7-1.1,1c-1.1-0.3-1.1,0.7-1.4,1.2c-2.3,3.3-4.5,6.5-6.7,9.8
		c-1.6,0.7-3.2,1.3-4.9,1.8c-4.6,1-9.4,1.5-14.1,1.6c-6.1,0-12.1-0.1-18.2,0c-2.2,0.1-4.4,0.3-6.6,0.8c-3.3,0.7-6.6,1.6-10,2.3
		c-2.4,0.6-4.9,0.6-7.3-0.2c-1.3-0.7-2.6-1.5-3.8-2.4c1.3-2.3,2.7-4.7,3.9-7c1.7-3.2,3.3-6.5,5-9.7c0.8-0.2,0.8-0.8,0.7-1.5l0,0
		c0.5-0.5,1-1.1,1.4-1.8c1.3-3.4,2.7-6.8,3.8-10.3c0.8-2.9,1.5-5.8,2-8.8c0.6-3,1-6.1,1.5-9.1c0.1-1,0.8-1.8,1.8-2
		c0.7-0.2,1.4-0.4,2.1-0.5c3.9-0.5,7.7-1,11.5-1.4c5.8-0.7,11.3-2.6,16.2-5.7C336.4,348.7,342.6,347,348.9,346.9z M346.4,399
		c-1.9,1.9-3.4,4.2-4.3,6.8C344.4,404.3,346,401.8,346.4,399z"/>
	<path class="st0" d="M195.3,52.8c3.4,4.3,6.8,8.6,10.1,13c1.5,1.9,2.9,4,4.3,6c0,0.6,0.1,1.1,0.3,1.6c2.3,5.2,3.3,10.6,4,16.2
		c0.1,1,0.1,2.1-0.2,3.1c-0.8,3.7-2.6,7.1-5.3,9.7c-2.1,2.1-4.4,4.2-6.6,6.3l-2.3,0.8c-0.4-1.6-1.7-2.4-2.9-3.3
		c-0.7-0.8-1.5-1.6-2.3-2.3c-4.2-3.2-8.9-5.5-13.5-7.9c-1.1-0.5-2.2-0.9-3.3-1.3l-10-2.9c-1.1-0.5-2.3-1-3.5-1.4
		c-6.4-1.7-13-2.7-19.7-3c-0.8-0.2-1.5-0.3-2.3-0.3c-2.5,0-5,0-7.4,0c-0.7,0-1.4-0.1-2.4-0.2c0.6-1.6,0.8-3,1.8-4.1
		c1.3-1.6,2.8-3.1,4.1-4.6c3.8-4.4,8.6-7.8,13.1-11.5c0.9-0.8,1.8-1.5,2.9-2.1c5.4-2.8,10.8-5.8,16.5-8.2c5.9-2.4,12.2-3.7,18.6-3.8
		C191.2,52.4,193.2,52.5,195.3,52.8z"/>
	<path class="st6" d="M117.5,97.4l-3,4.2c-1.3,1.6-2.4,3.3-3.5,5.1c-1.5,2.8-2.8,5.7-4.1,8.6c-1,2.1-1.5,4.4-1.4,6.7
		c0,0.7,0,1.4-0.2,2.1c-1,3.5,0.9,7.7,5.5,7.4l-4.4,0.7c-3.7,0.6-7.4,1.1-11,1.7c-2.7,0.5-5.4,1.1-8.2,1.7c-0.7,0.2-1.7,0.2-1.6,1.5
		c0.7,0.1,1.3,0.1,2,0c1.8-0.3,3.6-0.8,5.3-1.1c3.4-0.6,6.7-1.1,10.1-1.6c-0.9,2.5-2,5-2,7.8c0,1.8,0.4,3.6,1.2,5.3
		c1.7,4.2,4,7.9,8,10.5c1,0.7,2.1,1.1,3.2,1.4c3.7,0.7,7.4,1.2,11.1,1.4c3.9,0.2,7.9,0.9,11.8,1.3c2,0.2,3.9,0.4,5.9,0.5
		c0.7,0.1,1.5,0,1.6,1l-1.9,0.5v0.6c1,0.2,1.9,0.5,2.9,0.7c3.2,0.6,6.4,1.1,9.6,1.7c6.1,1.2,12,3.1,17.7,5.7
		c0.7,0.3,1.5,1.1,2.4,0.3h0.8l-4.8,4.3c-6.6-2.8-13.5-4.8-20.6-5.9c-4.4-0.8-8.8-1.3-13.2-1.8c-5.2-0.6-10.5-1.1-15.7-1.3
		c-3.3-0.2-6.7,0.2-10,0.3c-0.2,0-0.5,0.1-0.7,0c-5.9-0.1-11.7,1.1-17.6,1.9c-4.3,0.6-8.7,1-13,1.6c-1.6,0.2-3.1,0.5-4.9,0.8
		c-0.4-2.5-0.6-5-1.1-7.5c-0.7-4.1-0.6-8.3,0.3-12.3c0.4-1.9,1.3-3.6,2.4-5.1c0.8-1.1,1.7-2.1,2.6-3.1c3.1-3.5,5-7.8,5.6-12.5
		c0.8-6.2,2.3-12.4,4.6-18.3c1.6-4.4,4.9-7.7,8.8-10.2c5.6-3.6,12-5.2,18.3-6.7C116.9,97.3,117.2,97.3,117.5,97.4z M120.2,163.9
		v-0.5c-0.3-0.1-0.5-0.3-0.8-0.3c-3.6,0-7.2-0.1-10.8,0.1c-4,0.3-7.9,0.7-11.8,1.4c-5.1,0.8-10.2,1.9-15.2,3c-1.5,0.4-2.9,1-4.2,1.8
		c-0.3,0.2-0.4,0.9-0.6,1.3c0.4,0.1,0.8,0.2,1.3,0.1c1.8-0.6,3.6-1.4,5.4-1.9c10.8-2.7,21.8-3.6,32.8-4.4
		C117.7,164.4,118.9,164.1,120.2,163.9z M89.9,129.2c4.4-0.3,8.8-1.1,13-2.4C100.4,125.9,91.5,127.6,89.9,129.2z M126.5,164
		c1.4,0.9,3.3,0.9,4.7,0C129.8,162.9,127.9,162.9,126.5,164z"/>
	<path class="st4" d="M275.8,404.1c0.5-1.1,1-2.2,1.5-3.2c1.1-2.4,2.3-4.7,3.4-7.1c0.4-0.4,1-0.7,1.3-1.2
		c5.2-12.1,7.7-25.2,7.3-38.4c-0.1-1.4-0.2-2.9-1.4-3.9l-1-4.8c3.2,3.3,4.5,7.4,5.3,11.8c0.7,3.9-0.1,7.8-0.4,11.6
		c-0.6,7.9-3.4,15.3-6.3,22.5c-1.8,4.2-3.9,8.2-6.3,12.1c-2.8,5.4-6.2,10.4-10.1,15.1c-2.4,2.9-5.2,5.4-8.3,7.5
		c-2.7,1.7-5.8,2.2-8.9,2.4c-3.3,0.3-6.6,0-9.7-0.9c-6-2-12.1-1.6-18.1-0.3c-2.3,0.5-4.7,0.9-7.1,1.2c-6,0.6-11.1-1.6-15.7-5.3
		c-6.5-5.4-11.8-12-15.6-19.5c2.2-1.8,4.4-3.6,6.6-5.5s4.3-4.3,6.4-6.4c0.3-0.3,0.6-0.5,0.9-0.8c0.1,3.7,2.1,6.3,4.8,8.4
		c5.3,4.1,11.6,6.9,18.2,8.1c4.4,0.8,8.9,0.5,13.4,0.4c2.7-0.1,5-1.9,7.3-3.4c3.3-2.4,6-5.5,7.9-9.1c0.4-0.5,0.8-0.9,1.3-1.3
		c0,0.2,0,0.3,0,0.5c-4.1,9.2-8,18.4-14.3,26.4c-0.4,0.5-1.1,1-0.4,2c1.4-1,2.5-2.2,3.4-3.7c2.8-4.7,5.6-9.4,8.4-14.2l1.4,0.5
		c0,0.9-1.1,1.7-0.4,3l1.5-2c1.1,0.7,2.3,1.3,3.5,1.9c2,0.8,4.1,1.3,6.1,2s4.2,1.4,6.3,2.2c0.4,0.1,0.7,0.6,1,0.9
		c-0.6,2.2-2.7,3.6-2.8,6c0.6-0.3,1.2-0.7,1.6-1.3c2.4-3.5,4.8-7.1,7-10.7C275,406.3,275.5,405.3,275.8,404.1z"/>
	<path class="st6" d="M160.2,216.4c4.5,0.3,8.9,1,13.3,2.1c0.6,0.3,1.2,0.6,1.8,1.1l-0.8,2c-3.4-0.2-6.6-0.5-9.9-0.6
		c-3.5-0.1-7,0-10.4,0.1c-0.7,0-1.4,0.2-2.1,0.1c-9.8-0.3-19.4,1.3-28.8,3.5c-7.9,1.8-15.9,3.3-23.8,5.2
		c-11.6,2.8-22.5,7.9-32.2,14.9c-2,1.4-3.8,3.2-5.6,4.8c-0.3,0.3-0.7,0.5-1.5,1.1c-0.2-2.5-0.2-4.9,0.1-7.4
		c0.4-4.6,2.4-8.7,4.3-12.8c2.2-4.7,2.2-9.6,1.4-14.5c-1-6.3-2.5-12.5-3.8-18.7c-0.3-1.3-0.5-2.5-0.7-3.8c-0.6-3.4,1.3-6,2.9-8.6
		c2.1-3.1,5.1-5.3,8.7-6.4c3.7-1.2,7.5-2,11.4-2.3c1.7-0.2,3.5-0.3,5.2-0.4c0,0.2-0.1,0.3-0.1,0.5c-1.9,2.8-3.1,5.9-3.6,9.2
		c-0.3,1.4-0.5,2.8-0.6,4.2c0,3.6,0.1,7.1,0.5,10.7c0.4,2.7,1.5,5.2,3.3,7.2c0.9,1.2,2.3,1.8,3.8,1.7c0.8,0.1,1.7,0.2,2.4,0.5
		c-0.3,0.2-0.7,0.3-1.1,0.5c-5.6,1.7-11.3,3.3-16.9,5.2c-2.3,0.9-4.6,1.9-6.8,3c-1.2,0.4-2,1.6-1.9,2.9c0.9-0.5,1.5-0.7,2.1-1
		c5.6-3,11.6-5.3,17.9-6.6c-0.5,1.2-1,2.3-1.4,3.5c-1.2,3.7-1.7,7.6-1.4,11.5c-0.6,0.4-1.2,0.8-1.8,1.1c-3.7,1.9-7.4,3.7-11,5.8
		c-3.3,1.9-6.5,4-9.7,6.1c-1,0.6-2.2,1.3-2.4,2.7c0.8,0.9,1.3,0.3,1.9-0.1c1.5-1.1,2.9-2.3,4.4-3.3c7.5-4.8,15.5-8.6,23.5-12.4
		c7.1-3.4,14.7-5.9,22.4-7.5c6.1-1.3,12.2-2.4,18.3-3.6c0.7-0.2,1.4-0.6,2-1c4.1-0.5,8.1-1.2,12.2-1c0.7-0.1,1.4-0.2,2.1-0.4
		c0.4,0.2,0.7,0.3,1.1,0.4C152.7,215.7,156.4,216,160.2,216.4z"/>
	<path class="st7" d="M264.4,318.3c-2.1,1.4-4.3,2.7-6.5,3.9c-5.3,2.2-11,3.1-16.7,4c-0.7,0.1-1.5,0.1-2.2,0c0-1.1,0-2,0-2.9
		c0.3-7.9-2.6-14.7-7.6-20.6c-1.5-1.6-3.1-2.9-4.9-4.1c-3.9-2.8-8-5.6-12-8.3c-2.2-1.5-4.5-3-6.8-4.5c2.6-5,6.7-9,11.7-11.6
		c4.6-2.5,9.6-4.4,14.7-5.6c1.6-0.4,3.3-0.7,4.9,0.2c-0.1,0-0.2,0-0.2,0c-0.1,0-0.1,0.1-0.2,0.2c1.7,0.9,3.4,1.8,5.1,2.8
		c4.5,3.1,7.3,7.6,9.6,12.3c5,10.2,9.3,20.6,13,31.3C265.5,316.3,264.9,317.3,264.4,318.3z"/>
	<path class="st6" d="M144.4,361.2c-0.9,2.1-0.1,4.1,0.6,6c1.3,3.5,2.5,7.1,3.9,10.5c1.8,4.7,5.5,7.5,10,9.3c2.5,1,5.2,1.6,7.9,1.5
		c2.9,0,5.9,0.3,8.8,0.4c2.2,0.1,4.3-0.5,6.1-1.8c1.4-0.9,2.5-2.6,4.4-2.5c-0.7,0.8-1.3,1.6-2,2.3c-1.3,1.2-2.6,2.3-3.9,3.5
		c-0.3,0.4-0.6,0.9-0.8,1.4c0.5,0.1,0.9,0,1.3-0.3c7-5.9,13.4-12.5,19.1-19.6c0.6-0.8,1.2-1.7,1.7-2.6c0.1-0.1-0.4-0.5-0.6-0.7
		c4.7-6,9.1-12.3,13.1-18.8c2.9-4.6,5.9-9,9-13.5c3.5-5,6.6-10.3,9.3-15.9c0.4-0.7,0.9-1.5,1.4-2.1c0.1,0.8,0.3,1.5,0.4,2.3
		c0.2,1.9,0.3,3.8,0.4,5.7c0,1.1-0.1,2.2-0.3,3.3c-0.9,4.4-2.6,8.6-5.1,12.3c-2.6,3.9-4.9,8.1-7.4,12c-5.7,8.8-12.4,16.8-18.8,25.1
		c-3.4,4.6-7.1,9-11.1,13.2c-3,3.2-6.5,5.9-10.4,7.9c-2.1,1-4.2,0.5-6.3,0.5c-4.4-0.1-8.8,0-13.1,0c-2.9,0-5.9,0.1-8.9,0.2
		c-3.4,0.1-6.9-0.3-10.2-1.1c-1.7-0.3-3.1-1.5-3.8-3c-2.5-5-4.5-10.2-6-15.6c-1-3.1-2.2-6.1-3.4-9.4c0.2-0.3,0.5-0.7,0.8-0.9
		c4.7-2.8,9.2-6,13.4-9.6C144.1,361.4,144.3,361.3,144.4,361.2z M230.6,330.9c-0.4,0.7-0.8,1.3-1.1,1.9c-0.7,1.3-1.4,2.7-2.2,4
		c-2.6,4.3-5.3,8.6-8,12.8c-4.2,6.6-8.7,13-13.7,19c-2.5,3.1-4.9,6.3-7.3,9.5c-0.4,0.6-1.2,1.2-0.4,2.3c0.8-0.9,1.5-1.7,2.2-2.5
		c4.1-5.1,8.4-10,12.2-15.3c4.9-6.8,9.3-13.9,13.9-20.9c1.8-2.7,3.3-5.7,4.8-8.5C231.3,332.4,231.9,331.8,230.6,330.9L230.6,330.9z
		 M181.4,394.4c2.5-0.5,4-2.1,5.7-3.4c1-0.7,2.4-1.2,2.7-2.8C187.6,388.6,182.6,392.2,181.4,394.4L181.4,394.4z"/>
	<path class="st6" d="M195.3,52.8c-2-0.3-4.1-0.4-6.2-0.4c-6.4,0.1-12.7,1.4-18.6,3.8c-5.6,2.4-11,5.4-16.5,8.2
		c-1,0.6-2,1.3-2.9,2.1c-4.5,3.7-9.2,7.1-13.1,11.5c-1.4,1.6-2.8,3.1-4.1,4.6c-0.9,1.1-1.2,2.5-1.8,4.1c1,0.1,1.7,0.2,2.4,0.2
		c2.5,0,5,0,7.4,0c0.8,0.1,1.5,0.2,2.3,0.3l-2.9,0.1c-5.7,0.2-11.5,0.1-17.2,0.6c-3.6,0.4-7.1,1.1-10.5,2c-0.6,0.1-1.4,0.3-1.5,1.4
		c0.6,0.7,1.4,0.4,2.2,0.2c6.4-2,13-2.4,19.6-2.6c4.9-0.1,9.7,0,14.6,0.5c5.6,0.6,11.2,1.7,16.7,2.5c0.8,0.1,1.5,0.6,2.2-0.2l10,2.9
		c-0.7,1.2,0.4,1.3,1,1.7c5.1,3,10.2,5.9,15.3,8.8c0.9,0.4,1.9,0.8,2.9,1c1.2,0.9,2.5,1.7,2.9,3.3c-1.1,0.5-2.2,1-3.3,1.3
		c-0.7,0.1-1.4-0.1-1.9-0.5c-8.8-7.8-19.8-11.1-30.6-14.7c-5.7-1.9-11.5-3.2-17.5-3.7c-6.1-0.5-12.3-0.7-18.4-0.6
		c-6.4,0.1-12.7,1.2-18.8,3.2c-0.7,0.2-1.4,0.4-2.1,0.5c-0.1,0-0.1-0.1-0.4-0.2c0.2-0.6,0.5-1.2,0.8-1.8c4-6.4,8.5-12.6,13.4-18.4
		c3.8-4.8,8.5-8.9,13.7-12.2c2.9-1.7,5.9-3.2,8.9-4.6c5.3-2.5,10.6-4.8,15.9-7.3c4.3-2,8.7-4,13.5-4.8c3.6-0.7,7.3-0.8,10.9-0.4
		C188.7,46.2,192.3,48.9,195.3,52.8z"/>
	<path class="st4" d="M354.1,394.8c0.4-0.3,1-0.6,1.1-1c1.2-2.9,2-5.9,2.2-9c0.1-1.8,0.3-3.6,0.5-5.4c1.4-0.2,0.9-1.4,0.9-2.1
		c-0.1-4.1-0.3-8.3-0.5-12.4c-0.1-1.9-0.4-3.8-0.6-5.7c-0.2-1.3-0.5-2.6-0.8-4c0-0.7-0.5-1.2-1.2-1.2c-0.1,0-0.2,0-0.3,0
		c-0.3-1.6-0.7-3.2-1-4.8c3.7,1.8,5.1,5.2,5.7,8.9c1,6.8,1.7,13.7,2.6,20.6c0.8,6.5-0.8,12.5-4.1,18c-1.7,3-3.5,5.9-5.5,8.7
		c-3.6,4.6-8.4,8-13.8,9.9c-4.8,1.8-9.8,2.9-14.8,3.4c-2.3,0.3-4.5,0.8-6.7,1.6c-6.5,2.6-13,5.3-19.5,8c-3.4,1.5-7.1,1.9-10.7,1.4
		c-5.5-0.7-11-1.9-16.3-3.5c-0.7-0.2-1.3-0.5-2-0.8c0.1-0.3,0.1-0.6,0.3-0.7c4.1-4.2,7.6-8.8,10.5-13.8c0.3-0.5,0.6-0.9,1-1.3
		c1.2,0.9,2.4,1.7,3.8,2.4c2.4,0.8,4.9,0.9,7.3,0.2c3.3-0.7,6.6-1.6,10-2.3c2.2-0.5,4.4-0.7,6.6-0.8c6.1-0.1,12.1-0.1,18.2,0
		c4.8,0,9.5-0.6,14.1-1.6c1.7-0.5,3.3-1.1,4.9-1.8l0.8,1c1-1.1,2-2.1,2.8-3.1c1.3-1.7,2.5-3.4,3.6-5.3
		C353.6,397.3,353.9,396.1,354.1,394.8z"/>
	<path class="st0" d="M238.9,45.1c3.8,1.5,7.8,2.5,11.9,3c1.4,0.3,2.7,0.8,3.9,1.5c-1,3.3-3.3,5.9-5.8,8.1
		c-3.5,3.2-7.5,5.9-11.3,8.8c-5.4,3.9-10.2,8.4-13.5,14.4c-0.2,0.4-0.7,0.6-1,1L223,79c0.2-1.8-0.5-3.7-1.8-5
		c-0.3-2.5-1.8-4.4-2.9-6.4c0.4-1.1-0.3-2-0.8-2.9c-3.3-5.5-7.2-10.6-11.6-15.3c0.3-1.9,2-2.2,3.3-2.8c3.7-1.6,7.7-1.7,11.7-2
		c2.8-0.2,5.6-0.1,8.4,0c1.7,0,3.5,0.3,5.2,0.4c1.1,0,2.2,0.6,3.1-0.5l0.9,0.3L238.9,45.1z"/>
	<path class="st8" d="M255.3,265.4l-4.1,7.5c0,0-0.2,0-0.3-0.1c-2.5-2.8-5.7-4.9-9.4-5.9c-12.7-4-24.7-9.8-36.8-15.2
		c-3.1-1.4-5.7-1.4-8.4,1.3c-0.5-1.3-1.1-2.4-1.5-3.5c-0.6-1.5-1.2-2.9-1.7-4.4c-1.1-3.1-2.2-6.1-3.2-9.2c-0.4-1.1,0.4-1.8,1.2-2.4
		c2.3-1.8,5.3-2.3,8.1-1.3c0.3,0.3,0.7,0.6,1.1,0.9c4,2.1,8.1,4.1,12.1,6.3c5,2.7,9.7,5.8,14.1,9.3c2.8,2.3,5.8,4.2,8.9,5.9
		c5.6,2.9,11.5,5.5,17.3,8.2C253.8,263.2,254.8,264.2,255.3,265.4z"/>
	<path class="st9" d="M396,341.1c1.1,1.8,0.9,3.8,0.8,5.8c-0.2-0.4-0.4-0.8-0.6-1.2c-0.5-0.6-0.9-1.3-1.5-1.6
		c-1-0.4-1.3,0.6-1.6,1.3c-0.1,0.2-0.3,0.4-0.5,0.5l-1.3-1.3c-0.1,1.1-0.1,1.6-0.2,2.1c-0.1,3-0.4,6-0.9,9c-1,4.8-2.3,9.4-3.5,14.1
		l-1.9,1.4l-0.9-1.4c0.7-3.3,1.5-6.5,2.1-9.8c0.4-2.2,0.4-4.4-0.1-6.6c-0.5,1.5-0.8,3-1,4.6c-1.5,10.7-5.7,20.9-12.2,29.5
		c-0.9,1.3-1.9,2.5-2.8,3.8c-1.5,0.5-2-1-3.1-1.4c1.7-6.8,0.9-13.6-0.3-20.4c-0.5-2.7-0.7-5.5-1.2-8.3c-0.5-2.9-1.1-5.8-1.7-8.7
		c1.3-0.1,2.7-0.4,3.9-0.8c2.9-1.3,5.7-2.8,8.4-4.5C382,343.5,388.4,340.4,396,341.1z M381.4,362.8c-1,2.1-1.9,3.7-2.6,5.3
		s-1.5,3.3-2.2,5c-0.1,0.3,0.1,0.7,0.1,1.3C379.5,371.1,381.9,365.4,381.4,362.8L381.4,362.8z"/>
	<path class="st10" d="M226.9,191.9l0.9,1.4H227c0-1.1-0.7-1-1.4-1.1c-3.9-0.1-7.5,2.2-9.1,5.7c-0.2,0.5,0.1,1.1,0.2,2.1
		c1.1-1,1.8-1.6,2.5-2.2c1.8-1.6,3.7-3,6.2-3.1l1,1.6c-3.1-0.6-7.3,3-7,6c0,0.4,0.4,0.7,0.6,1l4.7-0.5c1.4-0.9,1.5-2.2,1.1-3.5
		c-0.3-0.9-0.3-1.7,0.7-2.2c0.2,0.3,0.5,0.5,0.5,0.8c0,1.9,1.1,3.1,2.4,4.1s2.7,1.9,4,2.8c-0.9,1.1-2.1,2.1-2.6,3.4s0,2.6,0,4
		c0,0.1-0.1,0.1-0.2,0.4c-2.3,0.8-4.8,0.3-7.2,0.2c-0.4,0.9-0.1,1.6,0.7,1.6c1.6,0.2,3.3,0.2,5,0.2c0.7,0,1.3-0.1,2-0.3
		c0.2,1.9,0,3.7-0.7,5.4c-0.3,0.6-0.9,1.1-1.5,1.3c-4.6,0.9-9.2,1.2-13.1-2.3c-2.7-2.4-5.4-4.8-7.9-7.2c-0.7-0.8-1.8-1.1-2.8-0.9
		c-2.3,0.6-3.9-0.4-5.1-2.1c-1.4-1.7-1.6-4.1-0.7-6.1c0.8-1.6,2.8-2.3,4.4-1.5c0.3,0.1,0.5,0.3,0.7,0.5c1.8,1.3,3.9,1.8,6.1,1.5
		c3.8-0.4,7.8-4.6,4.6-9.6c-0.4-0.6-0.8-1.3-1.5-2.3c1.8-0.2,3.2-0.4,4.6-0.5c1.4,0.1,2.7-0.6,3.5-1.6c0.9,0.5,1.7,1.1,2.5,1.7
		C224.7,191.6,225.8,192,226.9,191.9z M205.4,206.9c0.6-2,0.3-3-1.1-4s-2.5-0.9-4.3,0.4l2.8,0.7l-0.2,2.3l1.7-0.9L205.4,206.9z"/>
	<path class="st11" d="M223,79c0.1,0.9,0.2,1.8,0.3,2.7s0,1.6-0.1,2.3l-2.3,2.6c-0.2-0.4-0.4-0.8-0.5-1.2
		c-0.8-6.9-4.1-12.7-8.1-18.2c-4.2-5.7-8.5-11.4-12.8-17c-1.1-1.5-2.5-2.8-3.9-4.4c3.4-2,7.1-3.2,11-3.6c3.3-0.4,6.7-0.6,10-0.5
		c5.8,0.3,11.6,0.8,17.3,1.4c1.2,0.3,2.4,0.7,3.5,1.3c-0.9,1.1-2.1,0.5-3.1,0.5c-1.7,0-3.5-0.3-5.2-0.4c-2.8-0.1-5.6-0.2-8.4,0
		c-4,0.3-8,0.4-11.7,2c-1.3,0.6-3,0.8-3.3,2.8c-1-0.9-2-1.8-3-2.7c-0.7-0.6-1.6-1.1-2.4,0c1.3,1,2.6,2.1,3.8,3.3
		c3.1,3.7,6.2,7.5,9.2,11.3c1.6,2,3.2,4.1,4.8,6.2c1.2,2,2.7,3.9,2.9,6.4C220.7,75.8,221.4,77.8,223,79z"/>
	<path class="st12" d="M180.3,166.4c-0.1-0.6-0.1-1.1,0-1.7c0.8-2.2,1.6-4.5,2.1-6.8c0.8-4.4,1.3-8.8,1.8-13.2
		c0.5-5.2,0.8-10.4,3.9-15c1-1.7,1.9-3.5,2.5-5.4c0.4-1,0.3-2.1-0.4-2.9c-1.8-2.8-4.1-5.3-6.7-7.4c-4.4-3.8-9.3-7-14.5-9.6
		c-2.7-1.4-5.6-2.4-8.3-3.6c-0.9-0.5-1.7-1-2.5-1.6c9.4,2.3,18.5,5.7,27,10.2c3.6,2.1,6.8,4.7,9.6,7.9c1.1,1.2,1.6,2.9,1.1,4.4
		c-0.9,3.7-1.9,7.4-4.1,10.6c-2.5,3.6-3.4,7.9-4.3,12.1c-1.4,6.1-2.7,12.3-5.3,18.1C181.7,163.7,181,165.1,180.3,166.4z"/>
	<path class="st12" d="M275.9,337.3c-2-0.4-3.9-0.7-5.9-1c-3.7-0.8-7.4-1.3-11.1-1.4c-3.4,0-6.8-0.3-10.3-0.4
		c-2.2-0.1-4.3,0.8-5.7,2.5c-1.4,1.7-2.9,3.4-4.2,5.2c-4.9,6.5-9.7,13-14.6,19.5c-1.8,2.3-3.8,4.5-5.8,6.7c-0.6,0.5-1.2,0.9-1.9,1.2
		c0.2-0.4,0.4-0.9,0.6-1.3c6.2-8.4,11.9-17.2,17-26.4c1.6-2.7,2.4-5.9,3.6-8.9c0.2-0.5,0.4-1.1,0.6-1.9c2.8-0.3,5.6-0.8,8.4-0.9
		c6.6-0.3,13.3,0,19.6,2.4C269.5,333.8,272.6,335.7,275.9,337.3z"/>
	<path class="st11" d="M392.5,345.9c0.2-0.2,0.3-0.3,0.5-0.5c0.4-0.7,0.7-1.7,1.6-1.3c0.6,0.2,1.1,1,1.5,1.6
		c0.3,0.4,0.5,0.8,0.6,1.2c-0.6,6.7-2.2,13.2-4.7,19.4c-2.5,5.8-5.7,11.3-9.7,16.2c-3,3.9-6.2,7.7-9.4,11.4c-3.1,3.4-6.8,6.3-11,8.5
		c-0.4,0.2-0.8,0.4-1.7,0.8c0.3-0.6,0.6-1.2,0.9-1.8c2.3-3.6,4.1-7.4,5.5-11.4c1.1,0.4,1.6,1.9,3.1,1.4c0.8,1,1.2,0.1,1.7-0.3
		c3.2-3,5.4-6.7,7.4-10.5c1.8-3.5,3.3-7.2,5-10.8l0.9,1.4l1.9-1.4c0.6,0.7,1,0.2,1.2-0.4c0.6-1.6,1.2-3.1,1.7-4.7
		C391.5,358.7,392.5,352.3,392.5,345.9z"/>
	<path class="st13" d="M348.9,346.9c-6.3,0.1-12.5,1.8-17.9,5c-4.9,3-10.4,4.9-16.1,5.6c-3.9,0.4-7.7,0.9-11.5,1.4
		c-0.7,0.1-1.4,0.3-2.1,0.5c-1,0.2-1.7,1-1.8,2c-0.5,3-0.9,6.1-1.5,9.1c-0.5,3-1.2,5.9-2,8.8c-1.1,3.5-2.5,6.9-3.8,10.3
		c-0.4,0.7-0.9,1.3-1.4,1.8c0.5-1.8,1-3.7,1.6-5.5c2.7-7.3,4.1-14.9,4.2-22.7c0.1-2.6-0.3-5.2-0.4-8c1.3-1.1,3-1.1,4.6-1.3
		c1.4-0.1,2.7-0.1,4.1,0c7.8,0.3,15.2-1.3,22.5-3.7c4.7-1.7,9.6-3,14.5-3.8C344.2,346.3,346.6,345.9,348.9,346.9z"/>
	<path class="st14" d="M205.7,283.8c-0.9-10.2-3.9-20-8.8-29c1.9-1.8,3.8-2,5.9-0.9c-0.5,1.5-1.7,2.9-1.5,5.1
		c0.5-0.4,0.9-0.8,1.3-1.3c0.4-0.6,0.7-1.2,1.1-1.8c0.5-0.9,1.6-1.2,2.5-0.8c0.1,0,0.1,0.1,0.2,0.1c1.3,0.7,2.7,1.4,4.3,2.2
		c-0.1,4.1-0.3,8.4-0.5,12.6c-0.1,1.9-0.2,3.8-0.1,5.7c0.1,1.7-0.4,3.3-1.5,4.6c-0.9,1-1.6,2.2-2.4,3.3L205.7,283.8z"/>
	<path class="st13" d="M199.3,271.5c-0.8-1.3-1.6-2.5-2.3-3.8c-1.6-2.8-3-5.6-4.6-8.4c-2-3.5-4.1-6.8-6-10.3c-1.5-2.9-2.9-5.9-4-8.9
		c-2.9-8-9.1-11.5-17.2-12.2c-4.4-0.4-8.7-0.5-13.1-0.5c-4,0.1-7.9,0.6-11.9,0.8c-2.5,0.2-5.1,0.3-7.6,0.6
		c-3.6,0.4-7.1,0.9-10.6,1.3c-1.3,0.1-2.5,0.1-3.8,0.2c2.9-0.6,5.8-1.5,8.8-1.9c6.9-0.8,13.8-1.6,20.7-2c7.1-0.4,14.2-0.3,21.3-0.4
		c1.5,0,3,0.4,4.5,0.6c2.6,0.2,4.9,1.6,6.2,3.9c1.8,2.6,3.4,5.4,4.8,8.2c2.1,5.1,4.4,10.1,7.1,14.9c1.1,1.9,1.9,4,2.9,6
		s1.8,3.7,2.6,5.7S198.6,269.4,199.3,271.5z"/>
	<path class="st13" d="M233.2,314.7c-0.5-0.3-1-0.7-1.4-1.1c-2.1-3.1-5-5.6-8.5-7.2c-2.4-1.2-4.9-2.4-7.2-3.8
		c-1.5-0.9-2.8-2.1-4.2-3.1c-1-0.7-2-1.3-3-1.9c-1.7-0.9-2-0.7-3.1,0.9c-2.9,4.1-5.6,8.3-8.6,12.4c-2,2.7-4.3,5.3-6.6,7.9
		c-1.7,1.9-3.4,3.8-5.2,5.6c-0.9,0.6-1.8,1.1-2.9,1.5c1.8-2.1,3.6-4.2,5.4-6.3c5.3-6,9.9-12.5,13.5-19.6c0.9-2.1,1.7-4.3,2.4-6.5
		c0.4-1,0.7-1.9,1-2.9c2,0.6,3.7,1.8,5,3.4c2.6,2.6,5.6,4.8,8.8,6.5c2.9,1.7,5.6,3.6,8.4,5.5C230.3,307.9,232.4,311.1,233.2,314.7z"
		/>
	<path class="st12" d="M223.2,84c0-0.8,0-1.6,0.1-2.3c0.4-0.3,0.7-0.6,1-1c3.3-6,8.1-10.4,13.5-14.4c3.9-2.8,7.8-5.6,11.3-8.8
		c2.4-2.2,4.7-4.8,5.8-8.1c2.4,2.3,2.5,4.7,0.1,7s-4.9,4.6-7.2,7c-5.3,5.1-10.9,9.8-16.9,14.1C228.1,79.5,225.7,81.8,223.2,84z"/>
	<path class="st13" d="M176.1,218.5c0-1.4,0.2-2.8,0.5-4.2c0.7-2.1,0-3.9-0.6-5.8c-0.8-2.2-1.6-4.5-2.3-6.8c-0.6-2.1-0.6-4.3,0-6.3
		c0.4-1.6,1.4-3.1,0.6-4.8c-1-2.3-2.6-4.2-4.7-5.6c-4.6-2.8-9.6-5-14.8-6.5c-2.7-0.9-5.4-1.9-8-2.9c3.5,0.6,7.1,1.2,10.5,1.9
		c4.7,1.1,9.2,2.6,13.5,4.7c2.8,1.3,4.7,3.5,6.3,6c1,1.4,1.2,3.2,0.8,4.8c-1.6,5.3-0.6,10.6-0.1,15.9c0.3,2.6,0.1,5.3-0.7,7.8
		C176.9,217.3,176.5,217.9,176.1,218.5z"/>
	<path class="st15" d="M264.4,318.3c0.6-1,1.2-2,1.8-3c-3.7-10.7-8-21.1-13-31.3c-2.3-4.7-5.1-9.2-9.6-12.3c-1.6-1-3.3-2-5.1-2.8
		c0.1-0.1,0.1-0.1,0.2-0.2c0.1,0,0.2,0,0.2,0c4.4,0.7,8.3,3.1,11,6.6c3,3.6,5.5,7.7,7.4,12c3,7,6.1,14,9.1,21.1
		c0.6,1.5,1,3.2,1.5,4.8c0.5,1.1,0.1,2.3-0.8,3C266.2,316.9,265.3,317.6,264.4,318.3z"/>
	<path class="st16" d="M211.7,183.3c-1.7,0.7-3.3,1.4-4.9,2.4c-3,2.1-3.7,4.6-1.3,7.7c0.5,0.7,1.2,1.3,1.7,2
		c0.9,1.2,0.9,2.3-0.1,3.1s-2,0.6-3-0.6l-0.8-0.9c-0.3,0.8-0.5,1.3-0.7,1.9c-4.9,0.9-6.8,4.4-5,9.1c0.3,0.7,0.6,1.3,0.9,2.1
		c-1.3,0.9-2.6,0.7-4.2,0.1c0.4-0.4,0.8-0.8,1.2-1.2c1.4-1.6,1.2-4-0.5-5.4c-0.1-0.1-0.2-0.2-0.4-0.3c-1.3-0.8-2.7-1.9-2.3-3.6
		s2.2-2.4,3.8-2.9c0.9-0.2,1.9-0.3,2.9-0.3c3.2-0.3,4.4-3,2.5-5.7c-0.5-0.8-1-1.6-1.4-2.4c0.9-0.7,1.3-1.7,1.2-2.8l0,0
		c0.7-0.2,1.4-0.5,2.1-0.8C206.1,183.1,208.7,182.2,211.7,183.3z"/>
	<path class="st10" d="M215.6,223l-6.1,5.8c-3.7-1.6-6.7-4.4-8.5-8c1.9-2.5,4.6-4.6,5-8L215.6,223z"/>
	<path class="st10" d="M266,288.9v6.7l-0.5,0.1c-0.8-4.4-1.5-8.8-2.2-12.9l6.7-6.2c2.4,2.4,5.3,11.8,4.7,16.4
		c-0.8-2-1.5-3.8-2.2-5.5c-0.3-0.7-0.4-1.6-1.8-1.4c-0.2,1.8-0.2,3.5-0.2,5.3c-0.1,1.8-0.4,3.7-0.9,5.4c-0.1-1.7-0.3-3.3-0.4-5
		c-0.1-1.5,0.4-3.2-0.6-4.5l-0.5,0.1v9.9c-1.2-1.6-0.9-3-1-4.3s-0.4-2.8-0.5-4.2L266,288.9z"/>
	<path class="st14" d="M268.1,274.4c-1.5,1.6-3,3.3-4.5,4.9c-0.8,1-2.2,1.1-3.2,0.4c-0.6-0.3-1.3-0.6-1.9-0.9
		c0.6-0.4,1.1-0.8,1.6-1.3c0.7-0.7,0.7-1.8,0.1-2.6c-0.5-0.8-1.5-1.2-2.5-1c-1.1,0.2-1.1,1.2-1.1,2c0,0.5,0,0.9,0.1,1.4l-2.9-0.7
		c0.2-4.2,2-8.2,4.8-11.3c0.1,0.1,0.1,0.3,0.3,0.4c2.3,1.2,4.3,2.9,5.9,5C265.8,272,267,273.2,268.1,274.4z"/>
	<path class="st13" d="M201.8,108.6c2.2-2.1,4.4-4.1,6.6-6.3c2.7-2.6,4.6-6,5.3-9.7c0.2-1,0.3-2.1,0.2-3.1c-0.7-5.5-1.7-11-4-16.2
		c-0.2-0.5-0.2-1.1-0.3-1.6c3.6,4.8,6,10.4,6.8,16.3c0.8,3.7,0.1,7.5-1.8,10.8c-0.7,1.3-1.6,2.4-2.6,3.4c-2.4,2-5,3.7-7.5,5.4
		C203.7,108,202.8,108.4,201.8,108.6z"/>
	<path class="st13" d="M396,341.1c-7.6-0.8-14,2.4-20.1,6.3c-2.7,1.7-5.5,3.2-8.4,4.5c-1.3,0.4-2.6,0.7-3.9,0.8l-1.4-2.7
		c2.6-1,5-1.8,7.4-2.8c4.6-1.9,9.2-4,13.9-5.9c2-0.8,4-1.5,6.1-2C391.9,338.8,394.3,338.7,396,341.1z"/>
	<path class="st17" d="M255.3,265.4c-0.4-1.2-1.4-2.2-2.6-2.6c-5.8-2.7-11.6-5.3-17.3-8.2c-3.2-1.7-6.1-3.7-8.9-5.9
		c-4.4-3.5-9.2-6.6-14.1-9.3c-4-2.2-8.1-4.2-12.1-6.3c-0.4-0.3-0.8-0.5-1.1-0.9c3.6,0.7,6.7,2.4,9.9,4.1c7.8,4.4,15.4,9.4,22.5,14.9
		c1.3,1,2.8,1.8,4.3,2.4c7.1,3.1,14,6.6,20.7,10.5L255.3,265.4z"/>
	<path class="st16" d="M219,187.6c-0.7,0.1-1.5,0.2-2.2,0.2c-1.1,0-2.2-0.2-3.3-0.2c-2.4,0.1-3.4,1.8-2.5,4c0.4,0.9,1.1,1.6,1.4,2.5
		c0.5,1.1,0.8,2.4,0.9,3.6c0,2.2-1.3,3.2-3.5,3.3c-0.9,0-1.7,0.1-2.8,0.3c0.4-0.4,0.7-0.6,1-0.9c2.1-1.9,2.3-4,0.6-6.3
		c-0.4-0.6-1-1.1-1.4-1.6c-1.8-2.1-1.8-2.9,0.3-5l0.8-0.5l0,0c0.6-0.1,1.2-0.2,1.8-0.4c2.3-0.9,4.9-0.8,7,0.4
		C217.6,187.4,218.3,187.5,219,187.6z"/>
	<path class="st14" d="M194.2,223.8c0.7,1.7,1.4,3.2,2.1,5c-3.1,0.6-5.9,1.5-8.2,3.9l-3.3-4.7C187.2,225,190.5,224.1,194.2,223.8z"
		/>
	<path class="st16" d="M194.8,194.8l-1.6,1c-3.6,2.2-3.6,6.6,0.1,8.7c0.8,0.5,1.8,0.8,1.5,2.1c-0.1,0.5-0.4,1-0.8,1.3
		c-0.2,0.1-0.9-0.2-1.2-0.5c-0.5-0.4-0.5-1.4-1.7-0.9c-0.1,0.6-0.2,1.4-0.4,2.4l-3.3-0.9c0.7-0.3,1.4-0.8,2-1.3
		c0.4-0.6,0.7-1.2,0.9-1.9c0.5-1.8,0.3-2-1.5-2.7s-2-1.9-0.8-4.3C190.1,196.2,192.1,194.6,194.8,194.8z"/>
	<path class="st14" d="M211.6,276.2c0.2-6.2,0.4-11.9,0.6-17.6c2.1,0.2,2.2,0.3,2.3,2c0.1,4.6-0.4,9.2-1.5,13.7
		c-0.1,0.3-0.2,0.6-0.4,0.9C212.2,275.5,211.9,275.9,211.6,276.2z"/>
	<path class="st16" d="M199.1,181.9c-0.8,0.4-1.5,0.8-2.3,1.3c-1.7,0.9-2.7,2.7-2.5,4.6c0.3,2.4-0.6,3.9-2.9,4.8
		c-1.3,0.6-2.5,1.2-3.8,2c-1.1-2.1-1-2.4,1.3-4.1c0.8,0,1.6,0,1.9-1l0,0c0.2-0.2,0.3-0.3,0.5-0.5l0,0c1.8-0.5,1.8-2.2,1.9-3.4
		c-0.1-1.5,0.9-2.8,2.4-3.1C196.8,182.1,198,181.9,199.1,181.9z"/>
	<path class="st16" d="M236.1,185.2c-0.8,2.3-2.4,3.4-4.4,3.2c-0.7-0.2-1.5-0.5-2.1-0.9c-1.7-1-3.3-2.2-5.1-3
		c-1.7-1-3.8-0.5-4.9,1.1c-0.4-1.9,0.8-2.5,1.8-3.3c2.8-0.2,5.2,0.2,7.4,2.3S233.6,186.9,236.1,185.2z"/>
	<path class="st14" d="M204.4,231.3c-4.2-0.5-6.2-3.5-7.9-6.9c-0.9-1.8,0.6-2.7,1.6-3.8l2.9,5.3c-0.4,0.5-0.4,0.8,0.3,0.8h-0.1
		c0.5,1.3,1.3,2.4,2.5,3.2C204,230.2,204.1,230.9,204.4,231.3z"/>
	<path class="st18" d="M194.8,194.8c-2.7-0.2-4.7,1.4-6.7,2.9c0.9-2.1,2.6-3,4.6-3.8c2.8-1,3.7-2.3,3.5-5.1
		c-0.1-3.3,0.8-4.5,4.5-5.4l-2.1,2.7c-1.1,0.9-1,2.1-0.9,3.3c0.2,1.7-0.6,3.3-2,4.3C195.4,194,195,194.4,194.8,194.8L194.8,194.8z"
		/>
	<path class="st16" d="M187,214.1c2.8,0.2,3.3-2,4.5-3.5l4.6,2.4l-3.8,1.9l1,1.5C191,216.6,188.6,215.8,187,214.1z"/>
	<path class="st16" d="M223.3,179.5c-2.4,0.6-4.4,2.3-5.4,4.6c-2.7-0.4-3.2-1.3-2.7-4.8c0.1-0.1,0.2-0.3,0.2-0.4l0,0L223.3,179.5z"
		/>
	<path class="st16" d="M203.7,213c-1.7,3.4-4.1,4.1-7.6,2.4c0.6-0.7,1.2-1.4,1.8-2.1s1.1-1.4,1.6-2.1L203.7,213z"/>
	<path class="st18" d="M199.1,181.9c-1.2,0.1-2.3,0.3-3.5,0.6c-1.5,0.3-2.5,1.7-2.4,3.1c0,1.3-0.1,2.9-1.9,3.4
		c0.1-1.7,0.8-3.4,0.1-5.1c0-0.4,0.1-0.8,0.3-1.1c1.5-2.6,6.9-3.3,9.5-1.1L199.1,181.9z"/>
	<path class="st18" d="M236.1,185.2c-2.6,1.7-5.2,1.6-7.3-0.6s-4.6-2.6-7.4-2.3c1.9-1.4,4.5-1.3,6.4,0.2c0.2,0.1,0.3,0.3,0.5,0.5
		c3,2.8,4.7,2.6,7.1-0.8c0.1-0.1,0.3-0.3,0.5-0.4C236.6,182.9,236.7,184.1,236.1,185.2z"/>
	<path class="st18" d="M226.4,196.3l-1-1.6l1.6-1.4h0.8c0.1,1,0.2,2,0.1,3.1c-0.2,1.7,0.6,3.3,2,4.2c1.4,0.9,2.8,2.1,4.3,3.2l-1,1
		c-1.4-0.9-2.8-1.8-4-2.8s-2.4-2.3-2.4-4.1c0-0.3-0.3-0.5-0.5-0.8L226.4,196.3z"/>
	<path class="st17" d="M268.1,274.4c-1.1-1.2-2.4-2.4-3.3-3.7c-1.6-2.1-3.6-3.8-5.9-5c-0.1-0.1-0.2-0.3-0.3-0.4
		c0.3-0.5,0.6-0.9,1.1-1.7c2.3,2.3,4.2,4.1,6,6.1c0.9,1,1.7,2.1,2.6,3.1C269,273.6,268.8,274,268.1,274.4z"/>
	<path class="st16" d="M194.8,194.8c0.3-0.4,0.6-0.8,0.9-1.1c1.4-1,2.2-2.6,2-4.3c0-1.2-0.1-2.4,0.9-3.3c-0.5,2.6,0.4,5.2,2.3,7.1
		C199.1,195.1,196.8,194.5,194.8,194.8z"/>
	<path class="st7" d="M263.9,327.2l-7.4-1.2l6.8-2.7C263.5,324.6,263.7,325.9,263.9,327.2z"/>
	<path class="st10" d="M206.1,180.3c-4.6,0.4-6.1-1.1-5.3-5.1L206.1,180.3z"/>
	<path class="st3" d="M256.7,277.3c0-0.5-0.1-0.9-0.1-1.4c0-0.9-0.1-1.9,1.1-2c1-0.2,1.9,0.2,2.5,1c0.6,0.8,0.6,1.9-0.1,2.6
		c-0.5,0.5-1,0.9-1.6,1.3l-1.8-0.8l0.5-0.3L256.7,277.3L256.7,277.3z M258.4,274.8c-0.9,1.2-0.6,1.6,0.7,2L258.4,274.8z"/>
	<path class="st18" d="M211.7,183.3c-3-1.1-5.6-0.2-8.2,1.5c-0.7,0.3-1.3,0.6-2.1,0.8c0.7-1.4,2-2.4,3.5-2.9
		c1.1-0.5,2.2-0.9,3.3-1.2c1.7-0.4,3.1,0.5,4.8,1.6L211.7,183.3z"/>
	<path class="st17" d="M219,187.6c-0.7,0-1.4-0.2-2-0.4c-2.1-1.2-4.7-1.4-7-0.4c-0.6,0.2-1.2,0.3-1.8,0.4c3.3-2.7,7-2.9,10.3-0.4
		C218.7,186.9,218.9,187.2,219,187.6z"/>
	<path class="st17" d="M223.3,179.5l-7.9-0.5c2-2.2,5.4-2.4,7.7-0.3c0.1,0.1,0.2,0.2,0.3,0.3C223.5,179,223.3,179.3,223.3,179.5z"/>
	<path class="st17" d="M204.4,231.3c-0.2-0.4-0.4-1.1-0.7-1.3c-1.2-0.8-2-1.9-2.5-3.2c0.4,0.2,0.8,0.4,1.1,0.7
		c1.9,1.4,3.8,2.8,5.8,4.2c0.6,0.4,1.2,0.9,1.6,1.5c-1.7,0-2.9-0.9-4.3-1.5l-0.7-0.4h-0.1L204.4,231.3z"/>
	<path class="st16" d="M214.4,177c-0.2,0.7-0.5,1.3-0.7,2s-0.2,1.4-0.3,2.2c-1-0.4-1.9-0.7-2.8-1.1c-0.2-0.1-0.4-0.3-0.6-0.4
		c0.1-0.5,0.3-1.1,0.4-1.6L214.4,177z"/>
	<path class="st18" d="M226.9,191.9c-1.1,0.1-2.3-0.3-3-1.2c-0.8-0.6-1.6-1.2-2.4-1.7c0.2-0.8,0.3-1.5,0.6-2.6
		c0.5,0.3,0.9,0.7,1.4,1.1C224.6,189,225.8,190.5,226.9,191.9z"/>
	<path class="st13" d="M229.5,190.8l2.4,0.2c1.2,2.4,1.1,3.1-0.8,5.1c-0.6-0.9-0.1-1.9-0.4-2.6C230.3,192.6,229.9,191.7,229.5,190.8
		z"/>
	<path class="st16" d="M209.1,176.5c-0.2,1.1-0.4,2.1-0.7,3.4c-0.8-0.5-1.5-1.1-2.3-1.8c-0.4-0.4-0.5-1-0.1-1.4
		c0.1-0.1,0.1-0.1,0.2-0.2L209.1,176.5z"/>
	<path class="st18" d="M214.4,177l-3.9,1c1.2-2.4,2.3-2.8,5.4-2.1L214.4,177z"/>
	<path class="st15" d="M263.9,327.2c-0.2-1.3-0.4-2.6-0.5-3.9c0.5-0.4,0.8-0.4,1,0.3c0.3,1.2,0.6,2.4,1,3.9L263.9,327.2z"/>
	<path class="st17" d="M209.1,176.5l-2.9,0.1c0.8-1.2,2-0.9,3.4-0.9L209.1,176.5z"/>
	<path class="st18" d="M201.5,185.6c0.1,1.1-0.4,2.2-1.2,2.8C200.1,187.4,200.6,186.3,201.5,185.6z"/>
	<path class="st14" d="M210.6,230.6c1.8,0.3,1.6,1,1,2.3L210.6,230.6z"/>
	<path class="st18" d="M190.9,189.5c-0.3,1-1.1,1-1.9,1L190.9,189.5z"/>
	<path class="st12" d="M216.4,369.4l-1,1C215.4,369.8,215.6,369.3,216.4,369.4z"/>
	<path class="st13" d="M182.3,326c0.1,0.7-0.2,1.2-1,1.2L182.3,326z"/>
	<path class="st13" d="M290.7,391.5c0,0.6,0.1,1.3-0.7,1.5L290.7,391.5z"/>
	<path class="st17" d="M208.2,187.1l-0.8,0.5L208.2,187.1z"/>
	<path class="st12" d="M277,337.8l-1.1-0.5L277,337.8z"/>
	<path class="st17" d="M201.2,226.8c-0.7-0.1-0.7-0.3-0.3-0.8L201.2,226.8z"/>
	<path class="st12" d="M214.9,370.8c-0.2,0.3-0.5,0.6-0.7,1C214.5,371.5,214.7,371.2,214.9,370.8z"/>
	<path class="st6" d="M118.5,97l-1,0.3L118.5,97z"/>
	<path class="st18" d="M191.4,189c-0.2,0.2-0.3,0.3-0.5,0.5C191.1,189.3,191.2,189.2,191.4,189z"/>
	<path class="st13" d="M180.4,328.1l-0.5,0.5L180.4,328.1z"/>
	<path class="st13" d="M180.9,327.6l-0.5,0.5L180.9,327.6z"/>
	<path class="st13" d="M179.9,328.6l-0.7,0.5L179.9,328.6z"/>
	<path class="st11" d="M238.9,45.1l-0.5-0.3L238.9,45.1z"/>
	<path class="st13" d="M181.3,327.2c-0.2,0.2-0.3,0.3-0.5,0.5C181,327.5,181.2,327.3,181.3,327.2z"/>
	<path class="st13" d="M233.5,315.2l-0.3-0.5L233.5,315.2z"/>
	<path class="st14" d="M204.6,231.4l0.7,0.4L204.6,231.4z"/>
	<path class="st12" d="M215.4,370.4l-0.5,0.5L215.4,370.4z"/>
	<path class="st17" d="M215.4,178.9c-0.1,0.1-0.1,0.3-0.2,0.4L215.4,178.9z"/>
	<path class="st14" d="M256.7,277.3l0.5,0.3l-0.5,0.3V277.3z"/>
	<path class="st19" d="M347.9,230.7c1.3,4.9,3,9.6,5.1,14.1c4.2,8.9,10,17,17,23.9c2.9,2.8,6.2,5,9.4,7.5c-0.3,0.3-0.7,0.5-1.1,0.7
		c-11.9,5.2-19.6,14.6-25.3,25.8c-1.9,3.8-3.4,7.7-5.1,11.6c-0.2-2.8-0.3-5.6-0.6-8.3c-0.3-3.2-0.8-6.3-1.6-9.4
		c-2.5-7.6-6.7-14.5-12.3-20.2c-0.8-0.8-1.6-1.7-2.8-3c0.8-0.5,1.5-1,2.1-1.5c1.6-1.5,3.1-3.2,4.6-4.9c2.4-3.1,4.3-6.5,5.8-10.1
		c2.8-6.5,4.4-13.5,4.7-20.6C347.9,234.5,347.9,232.6,347.9,230.7z"/>
	<path class="st20" d="M347.9,230.7c0,1.9,0,3.8-0.1,5.7c-0.3,7.1-1.9,14-4.7,20.5c-1.5,3.6-3.5,7-5.8,10.1
		c-1.4,1.7-2.9,3.3-4.6,4.9c-0.7,0.6-1.4,1.1-2.1,1.5c1.2,1.3,2,2.1,2.8,3c5.6,5.7,9.9,12.6,12.3,20.2c0.8,3.1,1.4,6.2,1.6,9.4
		c0.3,2.8,0.4,5.5,0.6,8.3l-0.7,2.8H347c-0.4-1.3-0.7-2.6-1-4c-2.7-11.7-8.2-22.5-16-31.5c-3.4-4.1-7.5-7.5-12-10.3
		c18.1-8.3,26.4-23.3,29.7-41.9L347.9,230.7z"/>
	<path class="st21" d="M258.7,101.6c1,3.5,1.8,7.1,2.9,10.6c3.1,10.8,10.7,19.8,20.7,24.9c0.2,0.1,0.4,0.3,0.8,0.5
		c-0.6,0.3-1,0.6-1.5,0.7c-6.3,2.5-11.1,6.9-14.9,12.4c-3.5,5.2-6,10.9-7.5,17c-0.5-2.9-1.1-5.8-1.6-8.6c-1.1-5.6-2.8-10.9-6.3-15.6
		c-1.2-1.6-2.4-3.1-3.6-4.5c3.6-5.2,6.3-11,7.9-17.2C257.5,115.2,258.5,108.4,258.7,101.6z"/>
	<path class="st22" d="M258.7,101.6c-0.2,6.8-1.2,13.6-3,20.2c-1.6,6.2-4.3,12-7.9,17.2c1.2,1.4,2.4,3,3.6,4.5
		c3.5,4.6,5.2,10,6.3,15.6c0.5,2.9,1.1,5.8,1.6,8.6c-0.1,0.4-0.2,0.9-0.3,1.4h-0.3c-0.7-2.3-1.3-4.6-2-6.9
		c-1.5-4.8-3.3-9.3-6.7-13.1c-3.3-3.9-7.3-7.2-11.7-9.7l-1.6-0.9c2.1-1.4,4.3-2.6,6.2-4.2c4.3-3.5,6.7-8.3,8.6-13.3
		c2.6-6.9,4.6-13.9,6.1-21.1c0.1-0.3,0.1-0.6,0.3-1C258.8,99.7,258.6,100.7,258.7,101.6z"/>
	<path class="st21" d="M94,65.3c-3-5.5-4.6-7.9-12.5-12.6c0-0.1,0-0.3,0.1-0.4c5.1-3.2,8.2-7.9,10.1-13.5c0.3-0.8,0.6-1.6,0.9-2.4
		c1.7,3.5,3.3,7.2,5.2,10.6c1,1.7,2.2,3.4,3.5,4.9C97.5,55.6,95,60.3,94,65.3z"/>
	<path class="st18" d="M94,65.3c1-5.1,3.5-9.7,7.2-13.3c-1.3-1.5-2.5-3.2-3.5-4.9c-1.8-3.5-3.5-7.1-5.2-10.7c0.2-1,0.4-2,0.7-3.6
		c3.1,7.9,6.1,15.2,14.4,18.8c-6.4,3.4-10.4,8.6-12.9,15.6L94,65.3z"/>
	<path class="st21" d="M411.5,320.2c-2.5-5.2-6.4-9.7-11.3-12.7c0.3-0.3,0.4-0.5,0.5-0.6c5.8-3.4,9-8.6,10.9-14.9
		c0.2-0.4,0.3-0.8,0.5-1.2c0.3,2.9,1.3,5.7,2.9,8.2c1.3,2.1,2.8,4.2,4.3,6.3C415.6,309.7,412.9,314.7,411.5,320.2z"/>
	<path class="st18" d="M411.5,320.2c1.4-5.5,4.1-10.5,7.7-14.8c-1.5-2.2-3-4.2-4.3-6.3c-1.6-2.5-2.5-5.3-2.9-8.2
		c0.3,0.2,0.5,0.5,0.7,0.8c2.4,5.7,6.5,10.4,11.8,13.7c-5.9,4.1-10.2,9.3-12.3,16.8C411.9,321.2,411.7,320.7,411.5,320.2z"/>
	<path class="st23" d="M114.7,301.8c-3.5,1.1-6.9,2.3-10.5,3.3c-4.4,1.2-8.8,2.2-13.2,3.3c-0.4,0-0.7,0-1.1-0.1
		c0.3-1.2,1.3-1.2,2-1.4c3.8-1.1,7.5-2.1,11.3-3.1c9-2.5,17.7-6.1,25.8-10.8c1.5-0.9,3-1.8,4.4-2.7c3.3-1.9,6.8-3.6,10-5.6
		c8.8-5.4,17.4-11,26.2-16.4c1-0.6,2-1.6,3.5-1.4c-1.4,2-10.6,8.1-28.5,18.9C135,291.7,125,297.1,114.7,301.8z"/>
	<path class="st23" d="M195.7,290.7c0.7,0.1,1,0.4,0.6,1.1c-0.9,1.8-1.9,3.5-3,5.2c-3.3,4.5-6.5,9.1-10.3,13.2
		c-8.3,8.8-16.8,17.4-25.4,26c-4.6,4.6-9.6,8.9-14.9,12.6c-0.6,0.4-1.3,0.8-2.1,1.3c-0.3-1.2,0.6-1.6,1.1-2.1
		c1.2-1.1,2.5-2.2,3.7-3.4c1.6-1.2,3.2-2.4,4.7-3.7c3.2-2.9,6.3-5.9,9.4-8.9c6.5-6.4,13-12.8,19.3-19.3c5.7-5.8,10.7-12.3,15-19.2
		C194.4,292.5,195.1,291.6,195.7,290.7z"/>
	<path class="st23" d="M139.1,343c-1.6,0.9-3.2,1.8-4.8,2.6c-4.6,2.4-9.5,4.3-14.6,5.5c0-1.1,0.7-1.3,1.3-1.5
		c1.9-0.7,3.9-1.4,5.8-2.2c6.6-2.7,12.8-6.3,18.3-10.6c0.1-0.1,0.2-0.2,0.3-0.4c4.3-2.9,8.3-6.2,12-9.8c0.9,0.2,1.1,0.7,0.6,1.4
		c-0.5,0.6-1,1.2-1.7,1.7c-5.4,4.2-10.8,8.4-16.3,12.5l-0.4,0.4L139.1,343z"/>
	<path class="st23" d="M109.8,295.5c-4.8,1.9-9.6,3.9-14.5,5.5c-3.7,1.2-7.5,2.1-11.3,3c-1,0.1-1.9,0.1-2.9,0c0.3-1.2,1-1.2,1.7-1.3
		c8.6-1.7,16.9-4.4,24.9-8c0.1,0,0.1-0.1,0.1-0.2l1-0.1l0.5-0.3l3.9-1.5C112.7,294.4,111,294.6,109.8,295.5z"/>
	<path class="st23" d="M146,279.3c-2,2.1-13.6,9.1-15.8,9.4c2.7-2.6,5.8-4.3,8.6-6.2c2-1.4,4.2-2.4,6.4-3.6
		C145.3,278.8,145.6,279,146,279.3z"/>
	<path class="st23" d="M115.2,306.8l-14.6,4.9l-0.3-0.4c0.3-0.3,0.5-0.7,0.8-0.8c3.5-1.3,7-2.6,10.5-3.9c0.7-0.3,1.5-0.6,2.2-0.9
		c1.8-0.3,3.4-1.5,5.6-0.9L115.2,306.8z"/>
	<path class="st4" d="M139.7,342.6l0.4-0.4L139.7,342.6z"/>
	<path class="st4" d="M109.4,294.1l-0.5,0.3L109.4,294.1z"/>
	<path class="st23" d="M174.7,173.2c-0.9,0.8-1.7,0-2.4-0.3c-5.7-2.6-11.6-4.5-17.7-5.7c-3.2-0.6-6.4-1.1-9.6-1.7
		c-1-0.2-1.9-0.5-2.9-0.7v-0.6l1.9-0.5h1l1.5,0.3c7.8,1.4,15.6,2.8,22.9,5.9C171.2,170.7,173.4,171.3,174.7,173.2z"/>
	<path class="st23" d="M103.2,134.4c-3.4,0.5-6.7,1-10.1,1.6c-1.8,0.3-3.6,0.8-5.3,1.1c-0.7,0.1-1.3,0.1-2,0
		c-0.1-1.4,0.9-1.4,1.6-1.5c2.7-0.6,5.4-1.2,8.2-1.7c3.7-0.6,7.4-1.1,11-1.7l4.4-0.7c1-0.1,2-0.2,3.1-0.3c0.8,0,1.6,0.1,2.4,0.1v0.7
		L103.2,134.4z"/>
	<path class="st23" d="M128.8,131.6c2.3-0.8,15.6,0.2,17.4,1.1c-1,0.6-4.2,1.1-7,0.6C135.8,132.6,132.3,133.4,128.8,131.6z"/>
	<path class="st6" d="M146.4,164l-1.5-0.3C145.6,162.8,146,163,146.4,164z"/>
	<path class="st23" d="M130.2,355.6c-2.9,3.5-16.8,4.4-21.9,1.6c0.7-0.2,1.3-0.3,2-0.3c2.3,0.1,4.6,0.3,6.9,0.5
		c3.9,0.1,7.8-0.4,11.5-1.5C129.2,355.8,129.7,355.7,130.2,355.6z"/>
	<path class="st23" d="M108.2,352.3c-3.2,0.4-5.8-1-8.7-2.5C101.2,349,106.2,350.5,108.2,352.3z"/>
	<path class="st23" d="M287.9,350.3c1.2,1,1.4,2.5,1.4,3.9c0.4,13.2-2.1,26.3-7.3,38.4c-0.2,0.5-0.8,0.8-1.3,1.2
		c0.6-2.5,1.3-4.9,1.9-7.4c1.3-5.1,2.8-10.3,4-15.5c0.4-2.4,0.7-4.9,0.8-7.3c0.2-2,0.3-4,0.3-6c-0.1-2.1-0.3-4.1-0.7-6.1
		C287,350.8,286.9,350.3,287.9,350.3z"/>
	<path class="st23" d="M249.4,404.9c-2.8,4.7-5.6,9.5-8.4,14.2c-0.9,1.4-2.1,2.7-3.4,3.7c-0.7-1,0-1.6,0.4-2
		c6.3-8,10.3-17.2,14.3-26.4c0-0.2,0-0.3,0-0.5c1.5-2.8,2.5-5.9,4.2-8.6l0.5,0.2c0,0.4-0.1,0.8-0.2,1.2c-2.2,5.4-4.4,10.9-6.6,16.3
		C249.8,403.6,249.6,404.3,249.4,404.9z"/>
	<path class="st23" d="M275.8,404.1c-0.3,1.1-0.7,2.2-1.3,3.3c-2.3,3.6-4.6,7.2-7,10.7c-0.4,0.6-1,1-1.6,1.3c0.1-2.4,2.2-3.9,2.8-6
		c1.7-2.5,3.4-5,5-7.5C274.3,405.1,274.5,403.9,275.8,404.1z"/>
	<path class="st23" d="M251.9,406.4l-1.5,2c-0.8-1.3,0.4-2.1,0.4-3c1.6-3.9,2.9-8,4.8-11.8l0.5,0.1c0,0.5,0,1-0.1,1.4
		c-1,2.9-2.1,5.9-3.2,8.8C252.5,404.7,252.2,405.5,251.9,406.4z"/>
	<path class="st23" d="M201,368.8c0.2,0.3,0.6,0.6,0.6,0.7c-0.5,0.9-1.1,1.8-1.7,2.6c-5.7,7.1-12.1,13.7-19.1,19.6
		c-0.4,0.3-0.9,0.4-1.3,0.3c0.2-0.5,0.5-1,0.8-1.4c1.2-1.2,2.6-2.3,3.9-3.5c0.7-0.7,1.4-1.5,2-2.3c3.2-3.3,6.4-6.6,9.5-9.9
		C197.5,372.9,199.2,370.9,201,368.8z"/>
	<path class="st24" d="M133.5,216.4c-0.6,0.4-1.3,0.8-2,1c-6.1,1.2-12.2,2.4-18.3,3.6c-7.7,1.6-15.3,4.1-22.4,7.4
		c-8,3.8-16,7.6-23.5,12.4c-1.5,1-3,2.1-4.4,3.3c-0.6,0.4-1.1,1-1.9,0.1c0.2-1.4,1.4-2,2.4-2.7c3.2-2.1,6.4-4.2,9.7-6.1
		c3.6-2.1,7.3-3.9,11-5.8c0.6-0.3,1.2-0.7,1.8-1.1c1.7-0.7,3.4-1.3,5-2.1c7-3.2,14.3-5.5,21.8-7.1c5.9-1.2,11.9-2.3,17.8-3.3
		C131.5,216,132.5,216.1,133.5,216.4z"/>
	<path class="st23" d="M135.8,200.2c-4.5,1.2-8.9,1.1-13.2,1.7s-8.6,0.9-12.8,1.6s-8.5,1.7-12.8,2.6c0-1.3,0.9-1.5,1.6-1.6
		c3.3-0.9,6.6-1.8,10-2.4c7.8-1.3,15.6-2.2,23.5-2.4C133.2,199.6,134.4,198.8,135.8,200.2z"/>
	<path class="st23" d="M88.8,213.5c-6.2,1.4-12.3,3.6-17.9,6.6c-0.6,0.3-1.2,0.6-2.1,1c-0.1-1.3,0.7-2.5,1.9-2.9
		c2.2-1.1,4.5-2.1,6.8-3c5.6-1.8,11.3-3.4,16.9-5.2c0.4-0.1,0.7-0.3,1.1-0.5l1.4-0.2l1-0.3l1.4-0.2l1-0.3l6.7-0.9
		c-0.4,1.2-1.1,1.3-1.8,1.4c-4.6,1.1-9.3,2.2-13.9,3.4C90.5,212.8,89.6,213.1,88.8,213.5z"/>
	<path class="st23" d="M160.2,216.4c-3.8-0.3-7.6-0.7-11.3-1c-0.4-0.1-0.8-0.2-1.1-0.4c0.5-0.3,1-0.9,1.5-0.9
		c3.3-0.2,6.5,0.1,9.7,0.8C159.8,215,160.5,215.3,160.2,216.4z"/>
	<path class="st23" d="M156,201.1c3.5-0.4,6.8,0.6,10.6,1.7C164.3,203.6,158.5,202.7,156,201.1z"/>
	<path class="st6" d="M97.9,209.2l-1,0.3L97.9,209.2z"/>
	<path class="st6" d="M100.3,208.8l-1,0.3L100.3,208.8z"/>
	<path class="st23" d="M355.5,354.1c0.6-0.2,1.3,0.2,1.4,0.8c0,0.1,0,0.2,0,0.3c0.2,1.3,0.6,2.6,0.8,4c0.3,1.9,0.5,3.8,0.6,5.7
		c0.2,4.1,0.4,8.3,0.5,12.4c0,0.7,0.5,1.9-0.9,2.1c-0.3-4.7-0.6-9.3-1-14c-0.3-3-0.8-6-1.2-9C355.7,355.7,355.6,354.9,355.5,354.1z"
		/>
	<path class="st23" d="M354.1,394.8c-0.2,1.2-0.5,2.4-1,3.6c-1.1,1.8-2.3,3.6-3.6,5.3c-0.8,1.1-1.8,2-2.8,3.1l-0.8-1
		c2.2-3.3,4.5-6.6,6.7-9.8C353,395.6,353,394.5,354.1,394.8z"/>
	<path class="st23" d="M346.4,399c-0.4,2.8-2,5.3-4.3,6.8C343,403.2,344.5,400.9,346.4,399z"/>
	<path class="st24" d="M167.6,91.6c-0.7,0.8-1.4,0.4-2.2,0.2c-5.6-0.9-11.1-2-16.7-2.5c-4.8-0.4-9.7-0.6-14.6-0.5
		c-6.6,0.1-13.2,0.6-19.6,2.6c-0.8,0.2-1.5,0.5-2.2-0.2c0-1.1,0.8-1.3,1.5-1.4c3.5-0.9,7-1.6,10.5-2c5.7-0.4,11.5-0.4,17.2-0.6
		l2.9-0.1c6.6,0.3,13.2,1.3,19.7,3C165.3,90.6,166.5,91.1,167.6,91.6z"/>
	<path class="st23" d="M196.7,106c-1-0.2-1.9-0.6-2.9-1c-5.1-2.9-10.2-5.9-15.3-8.8c-0.6-0.4-1.7-0.5-1-1.7c1.1,0.3,2.2,0.8,3.3,1.3
		c4.6,2.4,9.4,4.7,13.5,7.9C195.2,104.4,196,105.2,196.7,106z"/>
	<path class="st24" d="M120.2,163.9c-1.3,0.2-2.5,0.5-3.8,0.6c-11,0.7-22,1.7-32.8,4.4c-1.8,0.5-3.6,1.3-5.4,1.9
		c-0.4,0-0.9,0-1.3-0.1c0.2-0.4,0.2-1.1,0.6-1.3c1.3-0.8,2.7-1.4,4.2-1.8c5-1.1,10.1-2.1,15.2-3c3.9-0.6,7.9-1.1,11.8-1.4
		c3.6-0.2,7.2-0.1,10.8-0.1c0.3,0,0.5,0.2,0.8,0.3L120.2,163.9z"/>
	<path class="st23" d="M89.9,129.2c1.6-1.6,10.5-3.3,13-2.4C98.7,128.1,94.3,128.9,89.9,129.2z"/>
	<path class="st23" d="M126.5,164c1.4-1.1,3.3-1.1,4.7,0C129.8,164.9,128,164.9,126.5,164z"/>
	<path class="st24" d="M230.6,330.9c1.3,0.9,0.7,1.5,0.4,2.1c-1.6,2.9-3.1,5.8-4.8,8.5c-4.5,7-9,14.1-13.9,20.9
		c-3.8,5.3-8.1,10.2-12.2,15.3c-0.7,0.9-1.4,1.6-2.2,2.5c-0.7-1.1,0-1.7,0.4-2.3c2.4-3.2,4.8-6.4,7.3-9.5c5-6,9.5-12.4,13.7-19
		c2.7-4.2,5.3-8.5,8-12.8c0.8-1.3,1.4-2.6,2.2-4C229.8,332.1,230.2,331.6,230.6,330.9z"/>
	<path class="st23" d="M181.4,394.5c1.2-2.3,6.1-5.9,8.4-6.2c-0.3,1.6-1.7,2-2.7,2.8C185.5,392.3,183.9,394,181.4,394.5z"/>
	<path class="st23" d="M218.2,67.6c-1.6-2.1-3.1-4.2-4.8-6.2c-3-3.8-6.1-7.6-9.2-11.3c-1.2-1.2-2.4-2.3-3.8-3.3
		c0.8-1.1,1.6-0.7,2.4,0c1,0.9,2,1.8,3,2.7c4.3,4.7,8.2,9.8,11.6,15.3C217.9,65.6,218.6,66.4,218.2,67.6z"/>
	<path class="st23" d="M223,79c-1.6-1.1-2.3-3.1-1.8-5C222.5,75.3,223.2,77.2,223,79z"/>
	<path class="st23" d="M383.8,369.9c-1.6,3.6-3.1,7.3-5,10.8c-2,3.8-4.2,7.5-7.4,10.5c-0.5,0.5-1,1.3-1.7,0.3
		c0.9-1.3,1.9-2.5,2.8-3.8c6.5-8.7,10.7-18.8,12.2-29.5c0.2-1.6,0.5-3.1,1-4.6c0.5,2.2,0.6,4.4,0.1,6.6
		C385.3,363.4,384.6,366.6,383.8,369.9z"/>
	<path class="st23" d="M392.5,345.9c0,6.4-1,12.8-2.9,18.9c-0.5,1.6-1.1,3.1-1.7,4.7c-0.2,0.6-0.5,1-1.2,0.4
		c1.2-4.7,2.5-9.4,3.5-14.1c0.5-3,0.7-6,0.9-9c0-0.5,0.1-1.1,0.2-2.1L392.5,345.9z"/>
	<path class="st23" d="M381.3,362.8c0.6,2.6-1.9,8.2-4.8,11.6c-0.1-0.6-0.3-1-0.1-1.3c0.7-1.7,1.5-3.3,2.2-5
		S380.3,364.9,381.3,362.8z"/>
	<path class="st3" d="M227,193.3l-1.6,1.4c-2.5,0.1-4.4,1.5-6.2,3.1c-0.7,0.6-1.4,1.2-2.5,2.2c-0.1-1-0.3-1.6-0.2-2.1
		c1.6-3.6,5.1-5.8,9.1-5.7C226.3,192.3,227,192.3,227,193.3z"/>
	<path class="st3" d="M226.4,196.3v0.8c-1,0.5-1,1.3-0.7,2.2c0.4,1.4,0.4,2.7-1.1,3.5c-0.9-0.8-1.7-1.6-2.6-2.6
		c-0.7,0.9-1.4,2-2.1,3c-0.2-0.3-0.6-0.7-0.6-1C219.1,199.3,223.3,195.8,226.4,196.3z M224.1,198.8c-1.3,1.4-1.2,2,0.5,3.1
		C225.4,200.7,224.9,199.7,224.1,198.8z"/>
	<path class="st3" d="M205.4,206.9l-1.1-1.4l-1.7,0.9l0.2-2.3l-2.8-0.7c1.7-1.3,2.9-1.4,4.3-0.4S206,204.9,205.4,206.9z"/>
	<path class="st17" d="M220,203.4c0.7-1,1.4-2.1,2.1-3c0.9,0.9,1.8,1.7,2.6,2.6L220,203.4z"/>
	<path class="st7" d="M258.4,274.8l0.7,2C257.8,276.4,257.5,276,258.4,274.8z"/>
	<path class="st15" d="M224.1,198.8c0.8,1,1.2,1.9,0.5,3.1C222.9,200.8,222.8,200.1,224.1,198.8z"/>
</g>
</svg>
