<?xml version="1.0" encoding="utf-8"?>
<!-- Generator: Adobe Illustrator 24.1.2, SVG Export Plug-In . SVG Version: 6.00 Build 0)  -->
<svg version="1.1" xmlns="http://www.w3.org/2000/svg" xmlns:xlink="http://www.w3.org/1999/xlink" x="0px" y="0px"
	 viewBox="0 0 491.8 491.8" style="enable-background:new 0 0 491.8 491.8;" xml:space="preserve">
<style type="text/css">
	.st0{fill:#9C5F6E;}
	.st1{fill:#150B2C;}
	.st2{fill:#180E2F;}
	.st3{fill:#180F2F;}
	.st4{fill:#191030;}
	.st5{fill:#9D5F6E;}
	.st6{fill:#834565;}
	.st7{fill:#824565;}
	.st8{fill:#28257A;}
	.st9{fill:#7C76D1;}
	.st10{fill:#9B5E6D;}
	.st11{fill:#A186CC;}
	.st12{fill:#804464;}
	.st13{fill:#A582AB;}
	.st14{fill:#7974CD;}
	.st15{fill:#57539F;}
	.st16{fill:#9F7E95;}
	.st17{fill:#9692DA;}
	.st18{fill:#A097DA;}
	.st19{fill:#A89DE0;}
	.st20{fill:#FFFFFF;}
	.st21{fill:#A58499;}
	.st22{fill:#A58399;}
	.st23{fill:#1B0D2E;}
</style>
<g id="Frame3_copy">
	<g>
		<path class="st0" d="M391.1,335.1c-1.1,0.1-2.2,0.4-3.3,0.7c-5,1.8-10,3.6-15,5.5c-3.8,1.5-7.5,3.2-11.2,4.8c-1,0.6-2.2,0.4-3-0.4
			c-0.8-0.6-1.6-1-2.5-1.3c-3.3-1.2-6.8-1.8-10.3-2c-4-0.4-8,0.1-11.8,1.3c-3.3,1-6.4,2.3-9.7,3.4c-2.6,1-5.3,1.7-8,2.3
			c-3.2,0.5-6.5,0.6-9.7,0.8c-3.7,0.3-7.4,0.7-11.2,1.1c-5.7-11.4-14.3-19.5-26.7-23.1c-0.6-2.7-1.1-5.3-1.7-7.8
			c1.2-1,2.3-1.9,3.4-2.8c1.1-0.8,1.4-2.2,0.8-3.4c-1.5-3.8-2.9-7.6-4.4-11.4c-0.4-0.9-0.7-1.8-1-2.6l5.1-0.2l1.6-4.2
			c0.5,1.6,0.5,3.3,2.7,3.7c0.4-1.4,0.8-2.8,1.1-4.1c0.9-4.3,1.3-8.6-0.9-12.7c-0.3-0.5-0.4-1-0.6-1.5c-1.2-2.8-2-5.9-3.8-8.2
			c-3.6-4.9-7.3-9.5-13.3-12c-7.2-2.9-14.2-6.6-21.2-9.9c-0.8-0.4-1.5-0.8-2.2-1.4c-5.6-4.4-11-8.9-17.4-12.3
			c-0.9-0.4-1.8-1-2.7-1.4c0.4-1.3,1-2.5,0.9-3.5c0-1.1-0.8-2.1-1.3-3.4c1.3-1.1,2.5-2.2,3.6-3.4c1-1,2.4-1.6,3.8-1.5
			c2.9-0.1,5.9-0.5,8.8-0.9c0,0,0,0,0,0c1.6,0,2.9-1.4,2.8-3c0.2-2.9,0.4-5.7,0.4-8.6c-0.2-1.8,0.5-3.6,1.9-4.8
			c1.2-0.9,2.2-2.1,2-3.8l-5.4-4c2.7-2.4,3-3.1,3.2-8.3c3.2-2.1,4.9-7.2,3.4-10.6c-0.8-1.8-2.6-2.8-4.2-3.8
			c-0.7-0.2-1.4-0.3-2.1-0.3c-0.1,2.2,1,4.3-0.7,5.9c-1.5-1.4-3-2.6-4.4-3.9c-0.2-0.2-0.4-0.5-0.5-0.8c-0.9-1.4-2.4-2.4-4.1-2.7
			c-1.8-0.4-3.8-0.3-5.3-1.7c-0.3-0.2-0.6-0.3-0.9-0.3c-2.8,0.4-5.7,0-8.5,0.2c-1,0.2-1.9,0.7-2.8,1.3c-0.5,0.3-1,0.7-1.5,1.1
			c-0.9-2.1-1-2.1,0-3.8c0.5-0.6,0.5-1.5-0.1-2c-1.3,0.1-2.6,0.7-3.6,1.6c-1.9,1.7-2.9,4.2-2.7,6.7c-2.7-0.6-5.5,0.3-7.4,2.3
			c-2.1,2-1.9,4.8-2.1,7.3c-4.9,2.3-4.6,5.7-3.2,8.5c-0.2,1.9-0.6,3.4-0.3,4.6c0.3,1.2,1.4,2.3,2.3,3.7l-3.2-0.1l2.7,4.8l0.5,0.7
			l-0.1,0l-0.5-0.7l-0.6,0.4l-0.1,0c-0.9-0.1-1.2-1.7-2.5-0.9c-0.5,3.1,0.7,5.7,2.5,8.2c1.8,2.3,4.5,3.7,7.4,4.1
			c-1.8,0.6-3.9,1.1-5.9,1.9c-1.5,0.6-2.9,1.4-4.3,2c-0.5,0.3-1.2,0.4-1.8,0.2c-1.2-0.6-2.3-1.3-3.5-2c2.6-2.5,4.1-5.7,4.5-9.3
			c0.2-3-0.2-6.1-0.3-9.1c-0.1-2.7-0.7-5.3-0.3-8.1c0.3-2.4,0.3-4.8-0.1-7.2c-0.6-3.9-2.9-7.3-6.4-9.2c2.7-1.8,4.9-4.3,6.3-7.2
			c1.9-3.8,3.9-7.5,5.5-11.4c2.2-5.1,3.9-10.4,5.1-15.9c0.9-4.8,2-9.5,4.4-13.8c3.1-5.5,3.8-12,2.1-18c0.9-0.4,1.8-0.8,2.6-1.1
			c3.7-1.3,7.2-3.1,10.5-5.2c2.5-1.4,4.5-3.4,5.8-5.9c1.3-2.7,2.5-5.5,3.8-8.3c0.4-1,1-2,1.7-2.8c2.5-2.4,5-4.6,7.6-6.9
			c8.3-7.3,16.6-14.7,24.9-22.1c2.6-2.3,4.8-4.8,5.8-8.3c0.9-2.5,0.1-5.2-2-6.9c-1.8-1.4-3.8-2.3-6-2.8c-4.2-1.2-8.4-2.3-12.7-3.5
			c-1.9-0.7-3.8-1.3-5.7-1.8c-3.2-0.6-6.5-0.9-9.7-1c-4.7-0.1-9.4,0.2-14.1,0.2c-6.1,0.1-12.1,1.3-17.7,3.7
			c-0.9,0.4-1.9,0.9-2.7,1.3c-1-0.6-2-1.2-3-1.6c-1.1-0.4-2.3-0.7-3.5-0.9c-4.6-0.8-9.1-0.1-13.5,0.9c-6.9,1.5-13.2,4.9-19.3,8.1
			c-6.2,3.2-12.2,6.7-18.3,10c-5.1,2.8-9.7,6.5-13.6,10.8c-6.7,7.3-11.7,15.7-16.5,24.3c-0.4,0.7-1,1.4-1.7,1.9
			c-4.3,3-8.5,6.3-11.7,10.5c-4.8,6.3-8.2,13.3-8,21.5c-0.1,1.4-0.3,2.7-0.7,4c-0.8,3.6-2.9,6.6-5.1,9.6c-2.2,3.1-4.3,6.2-5,10
			c-1.5,7.7-1.9,15.5,0.2,23.3c-1.2,0.7-2.3,1.4-3.5,2.1c-6.8,4.3-10.3,10.8-8.9,19.1c0.9,5.1,1.9,10.2,2.7,15.3
			c0.5,3.3,1.2,6.7,0.4,10c-1.2,5.1-2.3,10.2-3.6,15.3c-1.4,5.3-2.1,10.5-0.6,15.8c0.4,1.2,0.3,2.5-0.3,3.6c-2.3,4.2-2.9,9-1.8,13.7
			c1.1,4.4,2.6,8.7,4.6,12.8c3,6.1,6.1,12.1,8.8,18.3c3.4,8.1,6.4,16.3,9.7,24.5c4.3,10.8,9.6,21.2,15.9,31.1
			c4,6.2,8.6,11.9,15.3,15.5c3.6,1.9,7.2,3.8,11.5,3.3l5.7-0.6c0.6,2.3,1.1,4.5,1.9,6.7c1.6,4.8,3.1,9.5,5,14.2
			c1.8,4.4,4.5,8,9.8,8.9c8.9,1.7,17.9,1.9,26.9,0.7c3.8-0.5,7.6-0.7,10.9-1.1c2.6,4.1,5,8,7.5,11.8c1.2,1.7,2.5,3.3,3.9,4.9
			c3.1,3.2,6.5,5.9,10.3,8.2c4.1,2.8,9,4.2,14,3.9c2.1-0.2,4.3-0.6,6.4-0.8c3.2-0.6,6.5-0.9,9.7-1c4.2,0.1,8.4,0.7,12.6,1.1
			c3.7,0.4,7.5,1,11.2,0.1c3.2-0.8,6.3-2,9.8-3.2c2.2,1.7,5.3,2.5,8.4,3.3c5.7,1.6,11.6,2.2,17.5,1.9c1.8,0,3.6-0.3,5.4-0.7
			c2.6-0.9,5.2-2,7.7-3.3c5-2.7,10.3-4.7,15.8-6.1c5.4-1.4,10.8-2.7,16.2-4.3c6.8-1.8,13-5.3,18.2-10.1c1.8-1.9,4-3.4,6.5-4.4
			c1.9-0.7,3.8-1.7,5.5-2.9c6.1-4.2,11.7-9.2,16.5-14.9c8.1-9.6,13.9-21,16.7-33.3c1-3.8,1.3-7.9,0.7-11.8
			C400.3,338.4,396.8,334.2,391.1,335.1z"/>
		<path class="st0" d="M313.5,273c4.5,1.5,8.5,4.2,11.5,7.9c9.3,10.8,15.1,23.4,18.4,37.1c0.8,3.6,1.3,7.2,2,10.8
			c0.2,1,0.4,2.2,1.8,2.8c1-0.9,1.6-2.1,1.5-3.5c0-0.9,0-1.8,0.1-2.6c1.2-7.1,3.4-13.9,6.4-20.5c5-11.2,13.6-19.1,24.1-25.1
			c1.5-0.8,3.3-1.1,4.9-1.7c1-0.4,2.3-0.3,2.8-1.9c-1-0.7-2-1.4-3-2.1c-1.7-1.1-3.5-2-5.1-3.2c-3.8-3-7.4-6.4-10.5-10.1
			c-7.6-8.6-13.4-18.8-16.8-29.8c-2.1-6.8-3.8-13.7-3.5-20.9c0-0.6,0-1.3-0.2-1.9c-0.2-0.9-0.9-1-1.7-0.6c-0.2,2.5-0.3,4.9-0.5,7.3
			c-0.5,5.5-0.9,10.9-1.5,16.4c-0.8,8.4-4.2,16.3-9.8,22.7c-2.4,2.7-4.9,5.2-7.7,7.5c-4.1,3.5-8.6,6.3-14.1,7.1
			c-0.9,0.2-1.8,0.5-2.6,0.9C311,271.8,311.4,272.3,313.5,273z"/>
		<path class="st0" d="M259,85.5c-1.4-0.6-2.1-0.1-2.2,1.1c-0.1,1.1-0.1,2.2-0.3,3.3c-0.8,6.3-2,12.6-3.7,18.7
			c-1.9,7.4-4.6,14.4-10.1,20.1c-3.3,3.7-7.7,6.3-12.5,7.6c-1.2,0.3-2.4,0.7-3.8,1.2c0.9,1.9,0.9,1.8,2.4,2.2
			c11.7,3.1,20.1,10.2,24.3,21.7c2.9,7.5,4.6,15.4,5,23.5c0,1.3,0.3,2.7,2.3,3.1c0.3-0.8,0.5-1.7,0.6-2.5c0.2-1.9,0.3-3.9,0.3-5.9
			c0-3.3,0.4-6.5,1.1-9.7c2.3-10.8,7.4-19.8,16.7-26.2c3.3-2.5,7.4-3.9,11.6-4c0.1,0,0.3-0.1,0.6-0.3l0.2-1.8
			c-0.8-0.2-1.5-0.4-2.3-0.7c-0.6-0.3-1.2-0.7-1.9-1c-8.1-3.2-13.9-8.8-18.5-16c-3.3-5.3-5.3-11.2-7.1-17.2c-1.4-4.5-2.7-9-2.9-13.7
			C259,87.8,259,86.6,259,85.5z"/>
		<path class="st0" d="M77.5,54.1c7.8,2.8,13.2,7.9,14.8,16.3c0.5,2.9,0.8,5.8,1.2,8.7c0.1,1.1,0.3,2,1.5,2.5c1-1,1-2.3,1-3.5
			c0.2-2.5,0.5-5.1,1-7.5c1.3-5.7,4.6-10.8,9.4-14.3c2.4-1.7,4.9-3,8-2.6c0.8-1,0.9-1.8-0.3-2.5c-0.8-0.5-1.6-0.9-2.5-1.3
			c-3.3-1.2-6.4-2.7-8.6-5.5c-4.5-5.6-7.9-11.8-8.6-19.2c-0.1-1.8-0.3-3.6-0.5-5.4c-1.8-0.3-2.1-0.1-2.3,1.6
			c-0.2,2.1-0.3,4.3-0.5,6.4c-0.6,4.5-1.4,9-3.8,13c-2.8,4.6-6.3,8.4-11.9,9.6c-0.4,0.2-0.8,0.4-1.2,0.7
			C74.6,53.1,76,53.6,77.5,54.1z"/>
		<path class="st0" d="M429.3,304.5c-0.9-0.5-1.9-0.8-2.8-1.3c-1.4-0.6-2.7-1.4-3.9-2.3c-5.1-4.1-8.4-10.1-9-16.6
			c-0.2-2-0.3-3.9-0.5-6.1c-1.8,0.4-1.8,0.3-1.9,1.2c0,0.6,0,1.3,0,1.9c-0.3,6-1.8,11.6-5.6,16.5c-2.6,3.3-5.6,6-10,6.4
			c-0.6,0.1-1.2,0.3-1.8,0.6c0.4,1.7,1,2.8,2.8,3.4c1.4,0.5,2.7,1.3,3.8,2.4c4.7,3.8,8,9,9.5,14.9c0.7,2.8,1.2,5.6,1.8,8.4
			c0.3,1.3,0.5,2.6,2.2,3c1.1-1.4,1.5-3.3,1.1-5c-0.3-1.5-0.5-3-0.7-4.5c-0.2-5.1,2.1-9.4,5-13.4c2.3-3.1,5.1-5.5,9.1-6.1
			c0.4,0,0.8-0.2,1.1-0.4c0.6-0.5,1.1-1.1,1.3-1.8C430.7,305.5,429.9,304.8,429.3,304.5z"/>
	</g>
</g>
<g id="Frame3">
	<path class="st1" d="M186.1,208.9l-2.7-4.8l3.2,0.1c-0.9-1.4-2-2.4-2.3-3.7s0.2-2.7,0.3-4.6c-1.5-2.8-1.7-6.2,3.2-8.6
		c0.2-2.5,0-5.3,2.1-7.3c1.9-2,4.7-2.9,7.4-2.3c-0.2-2.5,0.8-5,2.7-6.7c1-0.9,2.2-1.5,3.6-1.6c0.6,0.5,0.6,1.4,0.1,2
		c-1,1.7-0.9,1.7,0,3.8c0.5-0.4,1-0.8,1.5-1.1c0.8-0.6,1.8-1,2.8-1.3c2.8-0.2,5.6,0.1,8.5-0.2c0.3,0,0.7,0,0.9,0.3
		c1.5,1.4,3.5,1.3,5.3,1.7c1.7,0.2,3.2,1.2,4.1,2.7c0.1,0.3,0.3,0.5,0.5,0.8c1.4,1.3,2.8,2.5,4.4,3.9c1.7-1.6,0.6-3.7,0.7-5.9
		c0.7,0,1.4,0.1,2.1,0.3c1.6,1,3.3,2,4.2,3.8c1.5,3.4-0.1,8.5-3.4,10.6c-0.2,5.2-0.5,5.9-3.2,8.3l5.4,4c0.2,1.7-0.8,2.9-2,3.8
		c-1.4,1.2-2.1,3-1.9,4.8c0.1,2.9-0.2,5.7-0.4,8.6c0,1.6-1.2,3-2.8,3c0,0,0,0,0,0c-2.9,0.4-5.9,0.7-8.8,0.9
		c-1.4-0.1-2.8,0.5-3.8,1.5c-1.2,1.2-2.4,2.4-3.6,3.4c0.5,1.3,1.3,2.3,1.4,3.4s-0.6,2.3-0.9,3.6c0.9,0.5,1.8,1,2.7,1.4
		c6.3,3.4,11.8,7.9,17.4,12.3c0.7,0.5,1.4,1,2.2,1.4c7.1,3.4,14,7,21.2,9.9c6,2.5,9.7,7.1,13.3,12c1.8,2.4,2.5,5.5,3.8,8.2
		c0.2,0.5,0.4,1.1,0.6,1.5c2.2,4.1,1.9,8.4,0.9,12.7c-0.3,1.4-0.7,2.7-1.1,4.1c-2.3-0.5-2.2-2.1-2.7-3.7l-1.6,4.2l-5.1,0.2
		c0.3,0.8,0.6,1.7,1,2.6c1.5,3.8,2.9,7.6,4.4,11.4c0.6,1.2,0.2,2.6-0.8,3.4c-1.1,0.9-2.2,1.8-3.4,2.8c0.5,2.6,1.1,5.1,1.7,7.8
		c12.4,3.5,21,11.7,26.7,23.1c3.8-0.4,7.5-0.7,11.2-1.1c3.3-0.3,6.5-0.3,9.7-0.8c2.7-0.6,5.4-1.3,8-2.3c3.3-1.1,6.4-2.4,9.7-3.4
		c3.8-1.2,7.8-1.6,11.8-1.3c3.5,0.2,7,0.8,10.3,2c0.9,0.3,1.8,0.7,2.5,1.3c0.8,0.8,2,0.9,3,0.4c3.7-1.6,7.4-3.3,11.2-4.8
		c5-1.9,10-3.7,15-5.5c1.1-0.3,2.2-0.6,3.3-0.7c5.7-0.9,9.1,3.3,9.9,7.5c0.6,3.9,0.4,8-0.7,11.8c-2.9,12.3-8.6,23.6-16.7,33.3
		c-4.8,5.7-10.3,10.7-16.5,14.9c-1.7,1.2-3.6,2.1-5.5,2.9c-2.4,1-4.6,2.5-6.5,4.4c-5.1,4.8-11.4,8.2-18.2,10.1
		c-5.4,1.6-10.8,2.9-16.2,4.3c-5.5,1.4-10.8,3.5-15.8,6.1c-2.5,1.3-5,2.4-7.7,3.3c-1.8,0.5-3.6,0.7-5.4,0.7
		c-5.9,0.3-11.8-0.3-17.5-1.9c-3.1-0.8-6.2-1.6-8.4-3.3c-3.5,1.2-6.6,2.4-9.8,3.2c-3.7,0.9-7.4,0.3-11.2-0.1
		c-4.2-0.5-8.4-1.1-12.6-1.1c-3.3,0.1-6.5,0.4-9.7,1c-2.1,0.3-4.2,0.7-6.4,0.8c-5,0.3-9.9-1.1-14-3.9c-3.8-2.3-7.3-5-10.3-8.2
		c-1.4-1.5-2.7-3.1-3.9-4.9c-2.5-3.8-4.9-7.6-7.5-11.8c-3.4,0.3-7.2,0.5-10.9,1.1c-8.9,1.2-18,1-26.9-0.7c-5.2-1-7.9-4.5-9.8-8.9
		c-1.9-4.6-3.4-9.4-5-14.2c-0.7-2.2-1.3-4.4-1.9-6.7l-5.7,0.6c-4.3,0.5-7.9-1.4-11.5-3.3c-6.7-3.6-11.3-9.2-15.3-15.5
		c-6.3-9.8-11.6-20.2-15.9-31.1c-3.3-8.1-6.2-16.4-9.7-24.5c-2.7-6.2-5.8-12.3-8.8-18.4c-2-4.1-3.5-8.4-4.6-12.8
		c-1.2-4.6-0.5-9.5,1.8-13.7c0.6-1.1,0.7-2.4,0.3-3.6c-1.5-5.3-0.8-10.5,0.6-15.8c1.4-5.1,2.5-10.2,3.6-15.3c0.8-3.3,0.1-6.7-0.4-10
		c-0.8-5.1-1.8-10.2-2.7-15.3c-1.4-8.2,2.1-14.8,8.9-19.1c1.1-0.7,2.3-1.4,3.5-2.1c-2.1-7.8-1.7-15.6-0.2-23.3c0.7-3.8,2.8-6.9,5-10
		s4.3-6,5.1-9.6c0.4-1.3,0.6-2.6,0.7-4c-0.2-8.3,3.2-15.2,8-21.5c3.2-4.2,7.4-7.5,11.7-10.5c0.7-0.5,1.3-1.1,1.7-1.9
		c4.8-8.6,9.8-17,16.5-24.3c3.9-4.3,8.5-8,13.6-10.8c6.1-3.3,12.1-6.8,18.3-10s12.4-6.6,19.4-8.1c4.4-1,8.9-1.7,13.5-0.9
		c1.2,0.2,2.3,0.5,3.5,0.9c1.1,0.5,2.1,1,3.1,1.6c0.9-0.4,1.8-0.9,2.7-1.3c5.6-2.4,11.6-3.6,17.7-3.7c4.7-0.1,9.4-0.3,14.1-0.2
		c3.3,0.1,6.5,0.4,9.7,1c1.9,0.5,3.8,1.1,5.7,1.8c4.2,1.2,8.5,2.3,12.7,3.5c2.2,0.5,4.2,1.4,6,2.8c2.1,1.6,2.9,4.4,2,6.9
		c-1,3.5-3.2,6-5.8,8.3c-8.3,7.4-16.6,14.7-24.9,22.1c-2.6,2.3-5.1,4.6-7.6,6.9c-0.7,0.8-1.3,1.8-1.7,2.8c-1.3,2.7-2.4,5.6-3.8,8.3
		c-1.3,2.5-3.4,4.5-5.8,5.9c-3.3,2.1-6.8,3.8-10.5,5.2c-0.9,0.3-1.8,0.7-2.6,1.1c1.7,6,1,12.5-2.1,18c-2.4,4.4-3.5,9.1-4.4,13.8
		c-1.2,5.5-2.9,10.8-5.1,15.9c-1.6,3.9-3.6,7.6-5.5,11.4c-1.4,2.9-3.6,5.4-6.3,7.2c3.5,1.9,5.8,5.3,6.4,9.2c0.4,2.4,0.4,4.8,0.1,7.2
		c-0.4,2.8,0.2,5.4,0.3,8.1c0.1,3,0.5,6.1,0.3,9.1c-0.3,3.5-1.9,6.8-4.5,9.3c1.1,0.7,2.3,1.4,3.4,2c0.6,0.1,1.2,0,1.8-0.2
		c1.5-0.6,2.9-1.4,4.4-2c2-0.7,4.1-1.3,5.9-1.9c-2.9-0.4-5.5-1.9-7.4-4.1c-1.8-2.4-3-5.1-2.5-8.2c1.3-0.8,1.6,0.8,2.5,0.9l1.2,0.4
		L186.1,208.9z M202.4,185.2L202.4,185.2l-0.4,0.5c-1.8,2.4-1.9,3.1-0.4,5.6c1.4,2.2,0.6,4.2-1.8,5.1c-0.7,0.2-1.4,0.3-2.1,0.5
		c-1.3,0.3-2.6,0.8-3.8,1.3c-1.5,0.7-1.6,1.8-0.7,3.1c0.5,0.7,1.3,1.2,1.8,1.9c1.5,1.6,1.3,4.2-0.3,5.6c-0.1,0.1-0.2,0.2-0.3,0.3
		c-0.3,0.3-0.7,0.5-1.1,0.8c2.6,1.6,2.9,1.6,5.1,0.2c-3.3-4.9-2.4-10.4,4.6-11.4l0.6-2.7c0.6,0.9,1.2,1.8,1.9,2.6
		c0.4,0.4,1,0.6,1.6,0.6c0.5-0.3,0.9-0.8,0.9-1.4c0-0.8-0.3-1.5-0.7-2.2c-0.5-0.8-1.2-1.4-1.8-2.3c-1.3-1.9-1.2-4.5,0.3-6.2
		c1.1-1.3,2.6-2.2,4.2-2.6c1-0.3,2-0.7,3-1.1l-0.7-0.5l0,0c-2-1.7-4.9-1.8-7-0.3c-0.9,0.7-1.8,1.4-2.7,2.2l0,0L202.4,185.2z
		 M221.1,364.1L221.1,364.1l-0.7,1c-0.2,0.2-0.5,0.4-0.7,0.7c-4.5,6.2-9.4,12-14.7,17.5c-2,2.3-3.9,4.6-5.6,7.1
		c-1.5,1.7-3.1,3.4-4.6,5.2c-1.8,2.4-4.2,4.4-6.8,5.9c-1.3,0.6-2.5,1.4-3.9,2.3c0.8,1.6,1.8,3.1,2.8,4.5c3.4,3.7,6.1,8,10,11.2
		c3.4,3,7.3,5.5,11.4,7.5c2.6,1.2,5.5,1.5,8.4,1.1c4.6-0.7,9.1-1.9,13.7-1.7c2.6,0.1,5.2,0.3,7.8,0.5c3.6,0.3,7.3,0.8,10.9,1.2
		c5.2,0.6,10-0.5,14.1-3.8c4.5-3.8,8.2-8.3,11.1-13.4c3.5-6,7.1-11.9,9.9-18.3c2.6-6.1,5.5-12,7.1-18.5c1.4-5.8,2.7-11.6,1.1-17.6
		c-1-4.1-2.6-8-5.7-11.1c0-0.1-0.1-0.3-0.2-0.4l-0.4-0.5c-1.4-1.9-3.1-3.5-5-4.8l-2.7-1.5l0,0c-0.5-0.5-1-0.9-1.6-1.3
		c-5.9-3-11.9-5.8-18.7-6.1c-2.1-0.1-4.3-0.4-6.4-0.5s-4.3-0.2-6.4-0.2c-1.6,0-3.2,0.4-4.7,0.4c-1-0.1-2,0.6-2.1,1.6c0,0,0,0,0,0.1
		c-2,6.8-5,13.3-8.9,19.2c-2.4,3.8-5.1,7.3-7.7,11c-0.2,0.4-0.4,0.8-0.6,1.3l0,0L221.1,364.1z M185.6,322.9L185.6,322.9l-1.6,1.9
		c-1.7,1.9-3.4,3.8-5.1,5.6c-7.3,8.1-15.3,15.6-23.8,22.5c-3.8,3.1-7.4,6.5-11.1,9.8c-0.4,0.3-0.8,0.5-1.2,0.8
		c-3,2.7-6.3,5.2-9.8,7.3c-1.2,0.6-2.3,1.4-3.3,2c1.7,4.9,3.2,9.5,4.9,14.2c1.1,3,2.3,6,3.7,8.8c1.3,2.6,3.1,4.7,6.5,4.3
		c0.2,0,0.5,0,0.7,0.1c6.5,1.4,13.1,1.1,19.7,0.7c4.8-0.3,9.7-0.9,14.5-1.4c3.7-0.4,7-1.5,9.6-4.3c2.3-2.5,4.5-5.2,6.6-7.8
		s4.3-5.4,6.5-8c3.4-4.1,7.1-8,10.3-12.2c5.9-7.9,12-15.8,16.5-24.6c2.6-5,5.1-9.9,5.7-15.6c0.5-2.8,0.2-5.7-0.8-8.4l-1.5-5.3
		l-0.4-1l0,0c-0.4-1-0.9-2-1.5-3c-2.2-3.1-5.1-5.6-8.3-7.4c-4.7-2.8-9.3-5.9-13.5-9.5c-1.3-1-2.6-2-3.8-2.9c-0.4,1.7-1,3.5-1.6,5.1
		c-1.2,2.7-2.7,5.3-4.1,7.9c-3.4,6.4-8.2,11.9-12.3,17.9c-0.4,0.6-0.7,1.2-1,1.8l0,0L185.6,322.9z M211.6,177l-0.9,1.5l-0.4,1.3
		l2.7,0.9c0.6-1.5,1.2-2.8,1.7-4.1l1.7-1.3C214,175.1,212.5,175.3,211.6,177L211.6,177z M206,177.5c0.2,1.2,1.1,1.5,2.2,1.9
		c0.3-1,0.6-2,0.9-2.9l0.4-0.8C207.8,175.5,206.6,176,206,177.5L206,177.5z M215.9,178.4l-0.5,0.6c-0.9,2.1-0.5,3,2.2,5
		c1-2.5,3.3-3.5,5.5-4.5c0.1-0.1,0.2-0.2,0.3-0.3C222,176.9,218,176.5,215.9,178.4L215.9,178.4z M194.9,193.8c-1.7,0.7-3.3,1.3-5,2
		c-1.2,0.3-2.1,1.2-2.4,2.4c-0.8,1.5,0.1,2.3,1.3,3.1c1.6,0.9,2.2,3,1.3,4.7c-0.2,0.3-0.4,0.6-0.6,0.8c-0.5,0.4-1.1,0.8-1.6,1.1
		l3.1,1.3v-3.1c0.4,0.2,0.9,0.4,1.3,0.6c0.6,0.5,1.2,1,1.8,0.3c0.7-0.6,0.7-1.7,0.1-2.3c0,0,0,0-0.1-0.1c-0.4-0.4-0.8-0.8-1.2-1.2
		c-2.4-2.6-2.4-4.4-0.1-7.1l1.7-0.9c2-0.6,4.5-0.1,6.2-2.3c-1.6-1.7-2.2-4.1-1.7-6.4l1.3-2.5c-2.5,1.4-3.5,2.8-3.7,4.5
		c-0.2,1.6-0.4,3.1-0.6,4.7v-0.1L194.9,193.8z M222.2,186.7l-0.3,0.4l-0.2,2c-1.2,1.1-2.8,1.6-4.4,1.5c-1.2-0.2-2.5,0.1-3.5,0.9
		c2.2,4.6,2.2,4.6,1.9,6.8l-0.3,0.5c-0.4,1.8-1.6,3.4-3.3,4.1c-2.7,1.2-5.1,0.4-7.3-1.3c-1.4-1.3-3.6-1.3-4.9,0.1
		c-0.2,0.2-0.3,0.3-0.4,0.5c-1.2,1.6-1.3,3.7-0.2,5.4c1.4,1.8,2.9,3.8,5.6,3.2c1-0.3,2,0.1,2.7,0.9c2.9,2.7,5.8,5.4,8.9,8
		c0.9,0.8,2,1.4,3.1,1.6c3,0.7,6.1,0.6,9-0.1c0.7-0.2,1.3-0.6,1.6-1.2c0.7-1.7,1.4-3.5,0.8-5.5c-2.8,0.6-5.7,0.3-8.4-0.6
		c0.3-1.4,1.1-1.1,1.9-1c2.2,0.6,4.5,0.5,6.7-0.3c0-0.7,0-1.4-0.2-2.1c-0.6-1.5-0.1-3.3,1.2-4.2l2.4-2.2c-1.8-1.5-3.3-2.8-4.9-4
		c-1.2-0.7-1.8-2.1-1.5-3.4c0-1.2-0.1-2.3-0.4-3.4l-1-1.2C225.7,189.8,224.1,188,222.2,186.7L222.2,186.7z M263.4,327.3
		c1.5,0.4,1.9,0.2,1.7-0.9c-0.2-1.3-0.6-2.5-1-4l-1.3,1c-2.1,0.8-4.1,1.8-5.9,3.2L263.4,327.3z M274.9,292.6
		c0.8-2.1,0.7-4.4-0.3-6.4c-0.4-1-0.8-2.1-1.1-3.1c-0.9-2.4-1.9-4.8-2.9-7.5l-1,1.6c-1.3,1.4-2.8,2.6-4.3,3.8
		c-1.9,1.2-2.1,2.8-1.8,4.7c0.5,2.7,0.9,5.5,1.4,8.2c0.2,0.9,0.5,1.7,0.8,2.6c0.4-2.7-0.5-5.3-0.2-8.5c0.7,0.7,1.2,0.9,1.2,1.2
		c0.3,1.2,0.4,2.4,0.5,3.5l0.5,4.3h0.3v-7.1l-0.3-0.6c0.1-0.8-0.4-2,1.4-2c0.2,3.4,0.3,6.7,0.5,10h0.5c0.2-3.7,0.4-7.3,0.7-11.5
		c0.7,0.7,1.3,1,1.5,1.5c0.6,1.5,1.1,3.1,1.7,4.7l0.1,1l0.2,0.8L274.9,292.6z M258.6,264.9l-0.3,0.4l-0.2,0.5
		c-2.3,3.1-3.7,6.8-3.9,10.7c2.2,1.9,4.8,2.6,7.3,3.5c0.4,0.1,0.8,0.1,1.1-0.1c2-1.3,4-2.6,5.1-4.9c1.1-0.8,1.1-1.6,0.2-2.6
		c-1.6-1.8-3.2-3.7-4.9-5.5c-1-1.1-2-2.1-3.1-3.3L258.6,264.9z M199,222.6l-0.9-2.2c-0.6,0.8-1.2,1.7-1.7,2.6
		c-0.2,0.5-0.2,1.1,0,1.6c1.6,3.1,3.4,6.1,7.4,6.4l5.5,2.2l0.3-0.5C205.5,229.9,201.4,227.2,199,222.6z M187.6,191.6
		c-0.1,0-0.2,0.1-0.2,0.3c-0.6,0.8-0.2,1.6,0,2.4c1.5-0.6,2.9-1.1,4.2-1.6c2.4-0.9,2.8-1.4,2.7-4c-0.1-1.9,0.7-3.8,2.2-5
		c0.9-0.7,1.8-1.3,2.8-1.8l1.9-0.2c-0.9-0.6-1.4-1.1-1.9-1.1c-1.7-0.1-3.4,0-5,0.3c-2.5,0.6-3,1.7-2.5,4.2c0.4,2.1-0.6,3.5-2,4.8
		C188.9,190.4,188.3,190.9,187.6,191.6L187.6,191.6z M236.2,185.1c0.4-1.2,0-2.2-0.6-3.4c-0.4,0.7-0.6,1.2-0.9,1.7
		c-0.6,1.5-2.2,2.2-3.7,1.7c-0.5-0.1-0.9-0.3-1.4-0.4c-1.8-0.8-3.6-1.7-5.4-2.4c-1.8-0.8-3.8,0.1-4.5,1.8c-0.2,0.4-0.3,0.9-0.3,1.3
		c0.2-0.1,0.4-0.2,0.6-0.3c2.3-1.8,3.7-1.9,6-0.3c1.1,0.8,2.1,1.7,3.2,2.5C232.4,189.6,234.9,188.8,236.2,185.1L236.2,185.1z
		 M213.1,185.8c-1.2,0.2-2.5,0.4-3.7,0.8c-3.4,1.5-3.9,4-1.4,6.8c0.1,0.1,0.2,0.2,0.3,0.3c1.8,1.9,2.6,4.8-0.1,7.1
		c-0.1,0.1,0,0.3,0,0.5c1.7,0.6,3.6,0,4.6-1.5c1.1-1.6,0.6-3.1-0.3-4.7c-0.7-1.2-1.4-2.5-2-3.8c-0.6-1-0.3-2.3,0.7-2.9
		c0.1-0.1,0.2-0.1,0.3-0.1c0.8-0.4,1.6-0.7,2.5-0.8c1.3-0.1,2.5-0.1,3.8-0.1l1.4,0.1C217.4,185.3,215.3,185.3,213.1,185.8
		L213.1,185.8z M206.8,105.6L206.8,105.6c6.8-3.6,9.3-9.9,10-16.9c0.8-7.8-3.5-13.6-8.2-19.1c-0.2-0.5-0.5-1-0.8-1.5
		c-4.1-6.2-9.4-11.1-15-15.8c-1.5-1.5-3-3.1-4.6-4.6c-1.5-1.4-3.4-2.3-5.4-2.7c-4.6-0.8-9.3-0.5-13.7,0.9c-6.8,2-13.1,5.4-19.3,8.8
		c-3.1,1.7-6.1,3.4-9.2,5.1c-3.6,2-7.2,3.9-10.6,6.1c-3.9,2.5-7,6-10.1,9.5c-4.5,5.4-8.4,11.2-11.7,17.4c0.1,0.1,0.2,0.1,0.3,0.1
		c0.3-0.1,0.6-0.1,0.9-0.2c4-1.1,8.1-1.6,12.3-1.7c2.6,0,5.2-0.4,7.9-0.5c2.2-0.1,4.4-0.1,6.6,0c2.8,0.2,5.5,0.7,8.3,1.1
		c2.6,0.4,5.2,0.7,7.8,1.2c3.7,0.8,7.3,1.8,10.9,2.5c4.3,0.8,8.5,2.1,12.5,4c6.8,3.4,13.3,7.2,19.6,11.4l4.8-1.8
		c2.3-0.5,4.5-1.5,6.3-2.9L206.8,105.6z M198.6,270.1L198.6,270.1c-0.9-4.5-2.9-8.6-4.9-12.7c-2.5-5.1-4.8-10.2-7.3-15.3
		c-1.8-3.6-3.6-7.1-5.6-10.6c-1.1-1.9-2.8-3.3-4.8-4.2c-3.5-1.7-7.2-1.9-11-1.9c-8-0.1-15.9-0.1-23.9,0.9
		c-6.2,0.8-12.5,1.2-18.7,2.1c-3.2,0.6-6.3,1.4-9.4,2.3c-0.6,0.1-1.3,0.1-1.9,0.3c-5,1.4-9.9,2.7-14.8,4.2c-2.9,0.9-5.8,2-8.7,3.1
		c-2.9,1.3-5.8,2.6-8.8,3.8c-6.5,2.7-11.4,7.5-16.4,12.3c-2.5,2.4-3.9,5.8-3.7,9.3c0,2.4,0.4,4.8,1.1,7c0.9,2.9,2.1,5.7,3.6,8.3
		c2.6,4.7,5,9.5,7.2,14.3c2.6,5.2,4.9,10.6,6.8,16.2c2.1,6.5,4.3,13,6.9,19.4c3.5,8.8,7.9,17.3,13,25.3c1.8,3,4.2,5.6,7,7.7
		c3.8,2.9,8.1,5.1,12.7,6.6c1.2,0.5,2.5,0.7,3.7,0.6c5.2-0.8,10.3-2.1,14.5-5.7c4.8-4,9.6-8,14.4-11.9c8.5-7,16.9-14.1,24.3-22.4
		c4.2-4.5,8.2-9.3,11.9-14.3c2.8-4,5.9-7.8,8.6-11.8c4.3-6.1,7.8-12.5,6.5-20.4c-0.1-0.5,0-1.1-0.1-1.7c-0.1-0.3-0.2-0.6-0.4-0.9
		c0-3.3-0.5-6.5-1.7-9.6L198.6,270.1z M223.1,84.9c1.5-1.4,3.1-2.8,4.6-4.2c3.6-3.4,7-7,10.6-10.4c4.7-4.3,9.6-8.5,14.3-12.7
		c1.6-1.2,2.8-2.9,3.4-4.9c0.4-1.8,0.3-2.1-1.7-3c-0.5-0.3-1.1-0.6-1.7-0.9c-1.6-0.5-3.2-0.9-4.8-1.3c-2.8-0.7-5.5-1.4-8.3-2.1
		c-2.6-0.9-5.2-2.2-7.9-2.7c-3.8-0.6-7.6-0.9-11.4-1c-3-0.1-6,0.2-9.1,0.3c-2.7,0-5.4,0.2-8.1,0.6c-3.2,0.4-6.3,1.4-9.2,3l1,0.8
		c2.4,2.2,5,4.2,7.3,6.6c5.5,5.7,10,12.2,14.6,18.6c1.9,2.5,3.3,5.3,4.1,8.3c0.4,1.8,0.7,3.7,1.1,5.8L223.1,84.9z M366.3,388.6
		c-1.4,4.4-2.9,8.7-4.3,13.1c0.1,0,0.3,0.1,0.4,0c0.5-0.3,1-0.6,1.4-0.9c6-4.8,11.6-10.2,16.8-16c4.8-5.3,8-11.7,10.9-18.2
		c2.7-5.9,4.5-12.3,5.2-18.8c0-0.8-0.2-1.5-0.4-2.3c0-1.8,0-3.6-1.7-4.8c-1-1.3-2.8-1.7-4.3-1.2c-2.5,0.6-4.9,1.4-7.3,2.3
		c-6.8,2.7-13.5,5.4-20.4,8.2c0.3,1,0.5,1.9,0.7,2.7c1.3,6,2.8,11.9,3.9,17.9c0.6,3.2,1.1,6.4,0.4,9.7
		C367,382.9,366.7,385.8,366.3,388.6z M199.6,232.6c-1.1-0.3-2.1-0.5-3.2-0.8c-2.5-0.8-5.4,1.2-6.5,3.4c-0.2,0.5-0.2,1.1,0,1.6
		c1.1,3.3,2.2,6.5,3.4,9.7c0.8,2.1,1.9,4.2,2.8,6.3c3.3-1.9,4.4-2.2,6.7-1.6c4,0.9,7.8,2.3,11.4,4.1c2.6,1.4,5.2,2.8,7.9,4.1
		c4.9,2.4,9.7,4.8,15,6.1c4.1,1,8,2.9,11.4,5.5c1.1,0.8,2.1,1.6,3.2,2.4l3.2-7.4l2-2.4c-6.3-3.8-12.9-7.1-19.8-9.8
		c-2.5-0.9-4.8-2.2-6.8-3.9c-6.7-5.9-14.2-10.8-22.4-14.6C205.3,234.2,202.6,232.9,199.6,232.6L199.6,232.6z M261.5,320
		c2-0.8,3.8-2,5.3-3.5c1.4-0.9,1.7-2.8,0.9-4.2c-0.5-1.2-1-2.4-1.4-3.6c-3.4-10-7.7-19.6-12.8-28.8c-3-5.6-8.4-9.6-14.6-11
		c-0.6-0.4-1.3-0.6-2-0.7c-1.6,0.1-3.2,0.3-4.7,0.7c-2.6,0.7-5.2,1.6-7.7,2.5c-6.4,2.3-12,6.5-16,12.1c-0.4,0.6-0.9,1.3-1.4,2
		c1,0.7,1.8,1.4,2.7,1.9c4.9,3.2,9.9,6.4,14.9,9.6c3.6,2.4,6.8,5.3,9.4,8.8c3.6,4.9,5.1,10.6,5.4,16.6c0.1,1.1,0,2.2,0,3.6
		C247.1,325.9,254.7,323.8,261.5,320L261.5,320z M281.1,409.7c-0.3,0.4-0.7,0.8-1,1.3c-2.1,3.2-4.2,6.4-6.4,9.5
		c-1.3,1.9-2.9,3.5-4.5,5.4c0.5,0.2,0.9,0.4,1.4,0.6c6.4,2.1,13,3.3,19.7,3.4c4.5,0.1,8.5-1.4,12.3-3.5c5.3-2.8,10.9-5,16.7-6.6
		c4.9-1.4,9.9-2.3,14.9-3.5c7.3-1.9,13.9-5.1,19.2-10.7c1.6-1.4,2.9-3.2,3.9-5c2.4-5.6,4.2-11.4,5.3-17.4c0.9-3.4,1.1-7,0.6-10.5
		c-1.2-6.6-2.7-13.1-4.2-19.6c-0.6-2.6-2.6-4.7-5.3-5.3c-1.4-0.8-3.1-1.2-4.8-1c-3.9-1-7.9-1-11.8,0c-3.5,1-7,2.2-10.4,3.6
		c-5.1,2.2-10.5,3.4-16,3.5c-3.7,0-7.3,0.3-11,0.5c-0.9,0.1-1.8,0.3-2.7,0.5c0.3,2,0.8,3.8,0.9,5.6c0.4,7-1.4,13.6-3.5,20.1
		c-1.4,4.3-3.4,8.4-5.1,12.6c-0.7,1.6-1.4,3.2-2,4.8c-1.2,2.1-2.5,4.2-3.6,6.4C282.7,406.3,281.9,408,281.1,409.7L281.1,409.7z
		 M176,218.7l0.4-1c1-2.3,1.4-4.8,1.1-7.2c-0.3-2-0.6-4.1-0.8-6.1c-0.5-3.1-0.6-6.3-0.3-9.5c0.6-4.5-0.6-8.7-4.8-11.2
		c-3-1.7-6.2-3.2-9.5-4.5c-2.8-1-5.6-1.8-8.5-2.4c-1.8-0.5-3.7-0.8-5.6-1.2c-1-0.2-2-0.5-3-0.6c-7.5-1.4-15.1-2.1-22.8-2.1
		c-2.9,0-5.7,0.3-8.6,0.3c-7.2,0-14.5,0.4-21.7,1.1c-6.1,0.2-12.2,1.6-17.8,4c-3.7,1.5-7,3.9-9.5,7c-2.1,2.6-2.9,6.1-2.2,9.4
		c0.9,5.5,2.1,10.9,3,16.4c0.5,2.7,0.7,5.4,0.5,8.1c-0.4,3.6-1.1,7.2-2,10.8c-0.9,3.7-2.1,7.4-3.1,11c-0.9,3.4-1.2,6.9-0.8,10.4
		c0.8-0.8,1.4-1.3,2-1.9c2.2-2,4.4-3.9,6.7-5.8c3.4-2.9,7.4-4.7,11.5-6.4c5.2-2.2,10.6-4.1,15.9-6c2.5-0.9,5.2-1.6,7.8-2.3
		c5.8-1.5,11.5-3.2,17.3-4.5c3.6-0.7,7.2-1.2,10.8-1.5c7-0.7,14.1-1.3,21.2-1.7c7-0.3,14-0.1,20.9,0.7L176,218.7z M175.6,173.2
		c2.7-4.2,4.9-8.7,6.7-13.3c1.6-4.7,3.5-9.3,4.7-14c1.4-5.6,2.4-11.4,5.4-16.5c1.7-2.9,2-6.2,2.3-9.4c0.2-1.8-0.4-3.6-1.8-4.7
		c-1.2-1.1-2.6-2.1-3.9-3.1c-3.1-1.9-6.3-3.7-9.5-5.6c-6-3.7-12.7-6.1-19.7-7c-3.1-0.7-6.2-1.6-9.3-2.2c-4.5-0.8-9.1-1.3-13.7-2
		c-1.5-0.2-3-0.3-4.5-0.4c-1.7,0-3.5,0.2-5.2,0.4c-2.4,0.2-4.8,0.4-7.1,0.6c-4.6,0.3-9.2,1.2-13.5,2.8c-5.9,2.2-11,6.1-14.6,11.2
		c-3.7,5-6.5,10.5-6.5,16.9c0,5.3-1.7,10.5-4.8,14.8c-1,1.5-2,2.9-3,4.4c-1.8,2.6-3,5.4-3.6,8.5c-1.1,5.5-1.5,11.1-1,16.6
		c0.1,0.8,0.3,1.7,0.6,2.5c0.8-0.3,1.3-0.4,1.9-0.6c4.8-1.9,9.8-2.6,14.9-3.2c4.5-0.5,9-0.7,13.6-1c4.8-0.2,9.6-0.4,14.3-0.5
		c6.1-0.2,12.1,0.1,18.1,0.9c5.4,0.8,10.7,1.4,16,2.7c6.1,1.4,12.3,2.8,17.9,5.9C172.2,176.5,174.4,175.4,175.6,173.2L175.6,173.2z
		 M197.3,254.6c2.2,4.7,4.2,9.5,5.7,14.4c1.6,4.9,1.6,10.1,2.4,15.4c1.4-1.8,2.5-3.2,3.5-4.8c0.4-0.6,0.6-1.3,0.7-2
		c0.7-6.2,1-12.4,0.9-18.6c-0.1-2.9-0.1-3-2.7-4c-2.4-0.9-3.1-0.7-4.6,1.5c-0.4,0.6-0.5,1.5-1.5,1.7c-0.9-1.9,0.7-3,1.3-4.5
		C200.9,252.6,199.1,253.4,197.3,254.6L197.3,254.6z M215.9,223.2l-9.8-10.4c-1,3.2-3.1,5.6-5.3,8.1c2,3.9,5.2,6.2,8.6,8.2
		L215.9,223.2z M217.1,271.5l11.3-5.5l-11.3-6.1L217.1,271.5z M194,223.6c-3.8,0.2-7,1.3-9.5,4.3l3.8,5.4c2.1-3,5-4,8.3-4.3
		L194,223.6z M212.1,257.3c-0.1,6.4-0.3,12.7-0.4,19.4c0.3-0.6,0.4-0.8,0.5-1c1.6-5.3,2.3-10.7,2.2-16.2
		C214.4,258,213.3,257.7,212.1,257.3L212.1,257.3z M194.3,217c-0.8-1.1-1.5-2-2.2-2.9l0.3-0.5c0.6,0.1,1.3,0.1,1.9,0.1
		c0.7-0.1,1.4-0.3,2.1-0.5l-5-2.5c-0.9,1.8-2,3.5-4.6,3.3C189,216.1,190.4,216.6,194.3,217z M200.4,211.4l-3.4,4.1
		c4.1,0.9,5.4,0.4,6.7-2.4L200.4,211.4z M257.4,280.8l-0.5,0.4l4.2,8.3c0.4-1.7,0.1-5.4-0.6-6.3
		C259.6,282.2,258.6,281.4,257.4,280.8L257.4,280.8z M205.6,180.4c-2.1-1.9-4.1-3.4-4.7-6.2C199.2,178,200.7,180.1,205.6,180.4z
		 M229.4,190.8c2,1.4,0.8,3.6,1.5,5.5C233.3,193.6,232.8,191.6,229.4,190.8z"/>
	<path class="st2" d="M347.3,331.6c-1.4-0.6-1.6-1.8-1.8-2.8c-0.7-3.6-1.2-7.2-2-10.8c-3.3-13.8-9.1-26.3-18.4-37.1
		c-3-3.7-7-6.4-11.5-7.9c-2.2-0.7-2.6-1.2-3.3-3.4c0.8-0.4,1.7-0.7,2.6-0.9c5.5-0.7,10-3.6,14.1-7.1c2.7-2.3,5.3-4.8,7.7-7.5
		c5.6-6.3,9-14.3,9.8-22.7c0.6-5.4,1-10.9,1.5-16.4c0.2-2.4,0.3-4.9,0.5-7.3c0.8-0.4,1.5-0.3,1.7,0.6c0.2,0.6,0.2,1.3,0.2,1.9
		c-0.3,7.2,1.4,14.1,3.5,20.9c3.4,11,9.1,21.2,16.8,29.8c3.1,3.8,6.6,7.2,10.5,10.1c1.6,1.2,3.4,2.1,5.1,3.1c1,0.7,2,1.4,3,2.1
		c-0.5,1.6-1.8,1.5-2.8,1.9c-1.6,0.6-3.5,0.8-4.9,1.7c-10.5,6-19,13.9-24.1,25.1c-3,6.5-5.1,13.4-6.4,20.5c-0.1,0.9-0.1,1.8-0.1,2.6
		C348.9,329.5,348.4,330.8,347.3,331.6z M347.4,315.8c0.1-0.4,0.3-0.7,0.5-1.1c2-6.1,4.2-12.2,7.9-17.6c4.7-7,10.8-12.9,18-17.3
		c1.9-1.1,3.8-2.1,5.8-3.3c-0.2-0.2-0.4-0.4-0.6-0.6c-5.7-4.1-10.8-9-15.1-14.6c-7.2-8.8-12.4-19.1-15.1-30.1l-0.5-1.9l-0.4,0.3
		c-0.1,0.5-0.3,1-0.4,1.6c-0.3,2-0.4,4-0.9,5.9c-2.3,10.6-8.2,20.2-16.8,26.9c-3.7,3.1-7.6,6-12.8,7.4c0.7,0.5,1.1,0.8,1.4,1
		c5.1,2.8,9.4,6.6,12.8,11.3c5.8,7.9,10.3,16.7,13.4,26.1c0.8,2.4,1.5,4.8,2.2,7.2h0.3C347.3,316.5,347.4,316.1,347.4,315.8
		L347.4,315.8z"/>
	<path class="st3" d="M226.5,137.5c1.4-0.4,2.6-0.9,3.8-1.2c4.8-1.3,9.1-3.9,12.5-7.6c5.4-5.6,8.1-12.7,10.1-20.1
		c1.7-6.1,2.9-12.4,3.7-18.7c0.1-1.1,0.1-2.2,0.3-3.3s0.8-1.7,2.2-1.1c0,1.1,0,2.3,0,3.4c0.2,4.7,1.5,9.2,2.9,13.7
		c1.9,6,3.8,11.8,7.1,17.2c4.5,7.2,10.4,12.9,18.5,16c0.7,0.3,1.2,0.8,1.9,1c0.8,0.3,1.5,0.5,2.3,0.7l-0.2,1.8
		c-0.4,0.1-0.5,0.3-0.6,0.3c-4.2,0.1-8.2,1.5-11.6,4c-9.2,6.4-14.3,15.4-16.7,26.1c-0.7,3.2-1.1,6.4-1.1,9.7c0,2-0.1,4-0.3,5.9
		c-0.1,0.9-0.3,1.7-0.6,2.5c-2-0.4-2.2-1.8-2.3-3.1c-0.4-8-2.1-16-5-23.5c-4.3-11.5-12.6-18.5-24.3-21.7
		C227.4,139.3,227.4,139.3,226.5,137.5z M257.1,103.5c-0.2,0.3-0.3,0.7-0.4,1.1c-1,5.2-2.5,10.2-4.4,15.1
		c-2.3,6.1-6.3,11.4-11.4,15.3c-1.7,1.3-3.6,2.2-5.6,3.4c1.1,0.6,2.1,1.1,3.1,1.6c3.5,1.7,6.7,4,9.5,6.8c4.1,3.9,6.7,8.9,8.6,14.2
		c0.6,1.8,1.3,3.6,2,5.3c-0.2,0.9,0.2,1.9,0.9,2.6c3.1-13.8,9.7-24.7,23-31.1c-0.8-0.6-1.4-1-2.1-1.4c-3-1.7-5.7-3.9-8-6.4
		c-6-6.6-10.3-14.6-12.4-23.2c-0.6-2.3-1.3-4.5-1.9-6.7l-0.5,0.1L257.1,103.5z"/>
	<path class="st4" d="M114.4,53.7c-3.1-0.4-5.6,0.9-8,2.6c-4.8,3.4-8.1,8.5-9.4,14.3c-0.5,2.5-0.8,5-1,7.5c0,1.3,0,2.5-1,3.5
		c-1.2-0.5-1.4-1.4-1.5-2.5c-0.3-2.9-0.6-5.8-1.2-8.7c-1.6-8.4-7-13.5-14.8-16.3c-1.5-0.5-2.9-1-3.1-3c0.3-0.3,0.7-0.5,1.2-0.7
		c5.6-1.2,9.1-5,11.9-9.6c2.4-4,3.2-8.5,3.8-13c0.3-2.1,0.4-4.3,0.6-6.4c0.2-1.7,0.5-1.9,2.3-1.6c0.2,1.8,0.3,3.6,0.5,5.4
		c0.6,7.4,4.1,13.5,8.6,19.1c2.2,2.8,5.3,4.2,8.6,5.5c0.9,0.4,1.7,0.8,2.5,1.3C115.4,51.8,115.2,52.7,114.4,53.7z M94.5,67.2
		c0,0.1,0.1,0.2,0.1,0.2s0.2,0,0.2,0c0.2-0.5,0.4-1,0.7-1.5c2-4.3,4.5-8.3,8.3-11.2c1.3-1,2.7-1.7,4.1-2.6c-4.5-2-8.1-5.6-10.3-10
		c-1.4-2.6-2.7-5.2-4.1-7.8l-0.2-0.9c-1.8,8-5.4,14.6-12.4,19c2.5,1.8,4.8,3.3,7,5C91.2,59.9,93,63.4,94.5,67.2z"/>
	<path class="st4" d="M413,278.4c0.2,2.1,0.3,4.1,0.5,6.1c0.7,6.5,3.9,12.5,9,16.6c1.2,0.9,2.5,1.6,3.9,2.3c0.9,0.5,1.9,0.8,2.8,1.3
		c0.6,0.3,1.4,1,1.3,1.3c-0.3,0.7-0.7,1.3-1.3,1.8c-0.3,0.2-0.7,0.4-1.1,0.4c-4,0.6-6.9,3-9.1,6.1c-2.9,4-5.2,8.3-5,13.4
		c0.1,1.5,0.4,3,0.7,4.5c0.4,1.7,0,3.6-1.1,5c-1.6-0.4-1.9-1.7-2.2-3c-0.6-2.8-1.2-5.6-1.8-8.4c-1.4-5.9-4.8-11.1-9.5-14.9
		c-1.1-1-2.4-1.8-3.8-2.4c-1.7-0.6-2.4-1.7-2.8-3.4c0.6-0.3,1.2-0.5,1.8-0.6c4.4-0.4,7.4-3.1,10-6.4c3.8-4.8,5.3-10.4,5.6-16.5
		c0-0.6,0-1.3,0-1.9C411.2,278.7,411.2,278.7,413,278.4z M413.6,294.1l-0.5-1.2l-0.7-2c-2.5,6.6-6.1,12.1-12.2,15.5
		c2.4,2.1,4.8,4.3,7,6.7c1.9,2.6,3.7,5.3,5.3,8.1l0.2-1.4l0.5-1.6v0c0.6-1.1,1.3-2.1,1.8-3.3c1.5-3.2,3.8-5.9,6.7-7.9l2-1.4
		c-1.4-1.1-2.6-1.9-3.7-3c-1.2-1.1-2.2-2.3-3.1-3.6C415.7,297.4,414.7,295.7,413.6,294.1L413.6,294.1z"/>
	<path class="st5" d="M198.9,270.5c1.1,3.1,1.7,6.3,1.7,9.6l-4.4,10.1c-0.8-0.2-1.3,0.3-1.8,1c-0.9,1.2-1.8,2.4-2.7,3.7
		c-5.9,8.4-12.4,16.4-19.2,24.1c-3.3,3.7-6.6,7.4-10.1,10.9c-4.2,4.2-8.5,8.1-12.8,12.2c-0.6,0.2-1.3,0.4-2,0.7
		c-2.1,1-4.3,2.1-6.5,2.9c-0.6,0.2-1.3,0-1.8-0.4c-0.3-0.4-0.1-1.3,0.1-1.9c0.3-0.6,0.6-1.2,0.9-1.8c2.1-1.6,4.2-3.1,6.3-4.7
		c3.5-2.8,6.9-5.6,10.4-8.4c0.7-0.5,0.9-1.1-0.2-1.7c-1.1,0.9-2.3,1.9-3.5,2.8c-4.1,3.1-8.3,6.2-12.4,9.3c-1.1,0-2.2,0-2.4,1.5l0,0
		c-0.4-0.1-0.8-0.1-1.2-0.1c-3.9,1.3-6.8-0.4-9.4-3.1c-1.2-1.4-2.5-2.7-3.6-4.1c-2.3-2.9-4.6-5.9-6-9.4c-1.1-2.8-1.9-5.8-3.1-8.5
		s-1.9-5.3-0.3-8c1.6-1.1,3.7-1.2,5.1-2.7c-0.5-1-1.2-0.7-1.9-0.4c-1.5,0.6-3.1,1.1-4.7,1.7l-0.9-1.1c1.3-1.9,3.2-2.9,5-3.9
		c0.8-0.4,1.9-0.5,2.1-1.7c0.1-0.1,0.3-0.1,0.4-0.1l1-0.5c3.6-1.7,7.3-3.3,10.8-5.1c11.4-6.2,22.4-13,33-20.5
		c2.6-1.8,5.1-3.6,7.6-5.4c0.6-0.4,1.4-0.9,0.4-2c-1.3,0.8-2.5,1.6-3.8,2.5c-8.3,5.5-16.5,11-24.8,16.3c-3.9,2.5-8.1,4.5-12.1,6.8
		c-0.4-0.8-0.9-0.3-1.4-0.1c-3.3,1.3-6.7,2.5-10,3.9c-2.6,1.1-5.3,0.9-8,0.9c-0.4,0-0.8-0.5-1.2-0.8l2.8-1.5c-0.4-1.3-1.1-1-1.8-0.7
		c-1.1,0.4-2.2,0.8-3.3,1.3c-1.8-0.5-3.3-1.7-4.3-3.2c-4.2-6.2-7.6-12.9-10.2-19.9c-1.1-3-2-6-3.1-9c-1.7-4.4-3.6-8.7-5.1-13.1
		c-0.8-2.3-1.5-4.7-0.5-7.2c0.4-1,0.9-1.9,1.4-2.9c2.9-1.1,5.8-2.2,8.7-3.1c4.9-1.5,9.9-2.9,14.8-4.2c0.6-0.1,1.2-0.2,1.9-0.3
		c2.9-0.2,5.9-0.3,8.8-0.5c4-0.4,7.9-1,11.8-1.4c5.1-0.5,10.3-1.1,15.4-1.4c7.1-0.3,14.2-0.4,21.2,1c2.7,0.5,5.4,1.4,7.3,3.7
		c2.8,3.6,5.2,7.5,7,11.7c1.9,4.1,3.8,8.2,5.9,12.3s4.5,8.3,6.8,12.4c0.4,0.6,0.8,1.1,1.3,1.6l0,0
		C198.7,270.2,198.8,270.4,198.9,270.5z M145.7,279.6c-1.1-1-1.1-1.1-1.9-0.6c-4.6,3.1-9.2,6.2-13.8,9.3c-0.3,0.3-0.6,0.6-0.8,1
		C135.3,287.1,140.1,282.9,145.7,279.6L145.7,279.6z"/>
	<path class="st5" d="M119.9,96.1c2.4-0.2,4.8-0.4,7.1-0.6c1.7-0.2,3.5-0.4,5.2-0.4c1.5,0,3,0.1,4.5,0.4c4.6,0.6,9.1,1.2,13.7,2
		c3.1,0.5,6.2,1.4,9.3,2.2c0.2,0.3,0.5,0.5,0.9,0.7c2,0.8,4,1.6,6,2.4c6,2.8,11.7,6.3,17,10.3c2.4,1.8,4.3,4.3,6.3,6.5
		c1.3,1.4,1.5,3.5,0.7,5.2c-0.8,1.9-1.8,3.7-2.6,5.6c-0.7,1.3-1.3,2.7-1.7,4.2c-1.3,4-1.9,8.2-2,12.4c-0.1,1.8-0.4,3.6-0.8,5.4
		c-0.4,2.5-0.7,5-1.1,7.5c-1.8,4.7-4,9.1-6.7,13.3l-1.4-0.5c-0.7-0.5-1.4-1-2.1-1.5c-5.1-2.7-10.5-4.7-16-6.2
		c-4.3-1.2-8.7-2-13.1-2.4c-1.2-0.4-2.5-0.8-3.8-1c-3-0.3-6-0.3-9-0.5c-1.9-0.1-3.8-0.3-5.7-0.5c-1.7-0.2-3.5-0.5-5.2-0.9
		c-2.6-0.6-5.1-1.3-7.6-2.1c-1.5-0.4-2.9-1.3-4-2.5c-1.9-2.7-3.7-5.6-5.3-8.5c-0.4-0.7-0.6-1.5-0.7-2.3c-0.1-3.6-0.4-7.4,1.9-10.6
		l11-2c0.7-0.1,1.7,0.1,1.9-1.4c-0.5-0.1-1.1-0.2-1.7-0.2c-1.7,0.2-3.3,0.4-4.9,0.7l-1.4,0.3l-1,0.1c-0.1-0.4-0.3-0.7-0.5-1.1
		c-1.8-1.6-2.4-4.1-1.6-6.3c0.2-0.6,0.2-1.3,0.2-1.9c-0.1-2.2,0.4-4.3,1.3-6.2c0.3-0.8,0.8-1.6,1.1-2.4
		C110.2,106.5,114.5,100.9,119.9,96.1z M147.2,133.3c-2.7-1.5-5.4-1.4-8-1.6c-7-0.6-10.4-0.3-11.5,0.6c0.4,0.2,0.7,0.4,1.1,0.4
		c5.8,0.4,11.5,0.7,17.3,1.1C146.3,133.9,146.5,133.6,147.2,133.3L147.2,133.3z"/>
	<path class="st6" d="M115.2,307.1c-1.6,2.7-0.9,5.3,0.3,8s2.1,5.7,3.1,8.5c1.3,3.5,3.6,6.5,6,9.4c1.1,1.4,2.4,2.8,3.6,4.1
		c2.5,2.7,5.5,4.4,9.4,3.1c0.4-0.1,0.8,0,1.2,0.1c-0.3,0.3-0.7,0.6-1.1,0.9c-4.8,3.1-10.1,5.6-15.6,7.1c-0.7,0.2-1.4,0.5-2,0.8
		l0.1,0.6c1,0.1,1.9,0,2.9-0.2c3.5-1.3,7-2.5,10.4-4.1c2.4-1.1,4.7-2.6,7.1-3.9c-0.4,0.6-0.7,1.2-0.9,1.8c-0.2,0.6-0.4,1.5-0.1,1.9
		c0.5,0.4,1.2,0.6,1.8,0.4c2.2-0.9,4.3-2,6.5-2.9c0.6-0.3,1.3-0.5,2-0.7c-2.5,2.3-4.9,4.5-7.3,6.8c-0.7,0.7-1.7,1.1-1.7,2.7
		c0.8-0.4,1.6-0.9,2.4-1.4c4.1-3.5,8.3-7,12.2-10.8s7.4-7.5,11-11.3c4.4-4.8,8.8-9.6,13.1-14.6c5.8-6.8,11.2-13.9,16.1-21.3
		c0.3-0.6,0.5-1.3,0.7-1.9l4.4-10.1c0.2,0.3,0.3,0.6,0.4,0.9c0.1,0.5,0,1.1,0.1,1.7c1.3,7.9-2.2,14.3-6.5,20.4
		c-2.8,4-5.8,7.8-8.6,11.8c-3.8,5-7.8,9.8-12.1,14.3c-7.4,8.3-15.8,15.4-24.3,22.4c-4.8,3.9-9.6,7.9-14.4,11.9
		c-4.2,3.5-9.3,4.8-14.5,5.7c-1.3,0.1-2.5-0.1-3.7-0.6c-4.5-1.5-8.8-3.8-12.7-6.6c-2.8-2.1-5.2-4.7-7-7.7c-5.1-8-9.5-16.5-13-25.3
		c-2.6-6.4-4.8-12.8-6.9-19.4c-1.9-5.5-4.1-10.9-6.7-16.1c-2.2-4.9-4.7-9.6-7.2-14.3c-1.5-2.7-2.6-5.5-3.6-8.3
		c-0.7-2.3-1.1-4.7-1.1-7c-0.2-3.5,1.1-6.9,3.7-9.3c4.9-4.8,9.9-9.6,16.4-12.3c2.9-1.2,5.8-2.5,8.8-3.8c-0.5,1-1,1.9-1.4,2.9
		c-1,2.4-0.3,4.9,0.5,7.2c1.5,4.4,3.4,8.7,5.1,13.1c1.1,3,2,6,3.1,9c2.6,7,6,13.7,10.2,19.9c1,1.5,2.5,2.7,4.3,3.2
		c-0.4,0.3-0.8,0.5-1.2,0.7c-5.6,2-11.1,4.1-16.7,5.9c-2.9,0.9-5.9,1.3-8.8,2.1c-0.9,0.2-2.1,0.1-2.7,1.6c0.8,0.1,1.7,0.2,2.5,0.1
		c2.7-0.5,5.3-1,7.9-1.7c7.3-1.9,14.3-4.9,21.3-7.7c0.4,0.3,0.8,0.8,1.2,0.8c2.7,0.1,5.4,0.3,8-0.9c3.3-1.4,6.7-2.6,10-3.9
		c0.5-0.2,1-0.7,1.4,0.1c-0.8,0.6-1.7,1.2-2.6,1.6c-5,2.2-10,4.5-15.2,6.4c-7,2.6-14.2,4.9-21.3,7.3c-0.8,0.3-2,0.1-2.1,1.8
		c0.8,0,1.6-0.1,2.4-0.3c4-1.2,7.9-2.5,11.8-3.8c4.8-1.6,9.6-3.3,14.4-4.9c-0.2,1.2-1.3,1.3-2.1,1.7c-1.9,1-3.8,2-5,3.9l0.9,1.1
		c-0.6,0.3-1.3,0.6-1.9,0.9c-3.2,1.1-6.4,2.1-9.5,3.2c-0.7,0.2-1.6,0.3-2,1.3c1.1,0.7,2.1,0,3-0.2
		C107.3,309.6,111.2,308.3,115.2,307.1z M130.3,355.6c-0.9,0.1-1.4,0.1-1.8,0.1c-3.1,0.4-6.1,1-9.2,1.2c-2.7,0.2-5.4,0-8.1,0
		c-0.7,0.1-1.3,0.2-2,0.4C113.9,359.9,127.1,358.9,130.3,355.6z M109.6,351.7c-3-1-5.8-2-8.6-2.9c-0.3-0.1-0.7,0.1-1.1,0.2
		C101.8,351.6,107.4,353.2,109.6,351.7L109.6,351.7z"/>
	<path class="st5" d="M286.8,345c0.1,0.1,0.1,0.2,0.2,0.4c0.2,1.5,0.3,3,0.5,4.5c-0.2,3.9-0.2,7.8-0.5,11.7
		c-0.4,4.6-0.9,9.2-1.8,13.7c-1,4.9-2.4,9.7-3.6,14.6c-0.1,0.8-0.2,1.7-0.2,2.6c-0.4,0.3-0.7,0.7-1,1.2c-1.3,2.8-2.5,5.6-3.8,8.4
		c-0.1,0.4-0.2,0.8-0.2,1.2c-1-0.3-1.3,0.4-1.8,1.1c-1.6,2.6-3.2,5.3-4.8,7.9c-1.8,0-3.5-0.3-5.1-1.1c-1.7-0.7-3.5-1.2-5.1-1.9
		c-2.6-1-5.8-1.2-7.2-4.3c0.3-0.8,0.6-1.6,1-2.4c1.1-2.7,2.1-5.5,3.2-8.2c0.3-0.7,0.6-1.5-0.6-2l-5.4,12.7l-0.6-0.6l1.2-3.1
		l6.1-16.1c-1.5-0.5-1.8,0.4-2.2,1.3l-3.2,8.5c-0.6,0.4-1.1,0.9-1.5,1.4c-1.7,3.1-4.1,5.9-7.1,7.9c-2.5,1.9-5.3,3.5-8.4,3.5
		c-4.9,0.1-9.9,0.7-14.6-1.3c-1.1-0.5-2.4-0.7-3.6-1.1c-4.4-1.4-8.7-3-12.3-6.1c-2.8-2.4-4.8-5-4.8-8.9c1.7-2.4,3.6-4.8,5.6-7.1
		c5.3-5.5,10.2-11.4,14.7-17.5c0.2-0.2,0.4-0.5,0.7-0.7l0.7-1l0,0l0.5-0.5l0,0c0.6-0.2,1.1-0.5,1.6-0.9c1.9-2.4,3.9-4.8,5.7-7.4
		c3.9-5.6,7.9-11.2,11.6-17c1.8-2.9,5-4.7,8.4-4.5c2.7,0,5.4,0.4,8.1,0.4c5.5,0.1,10.9,1.4,16.2,2.5c1.9,0.4,3.7,0.9,5.5,1.4l0,0
		c0.5,1,1.6,1.6,2.7,1.5c1.9,1.3,3.6,3,5,4.8L286.8,345z"/>
	<path class="st5" d="M143.9,362.7c3.7-3.3,7.3-6.7,11.1-9.8c8.5-6.9,16.5-14.4,23.8-22.5c1.7-1.9,3.4-3.8,5.1-5.6
		c1.3,0,1.8-0.7,1.7-1.9l0,0l0.5-0.5l0,0c0.3-0.1,0.7-0.1,0.9-0.3c1.5-1.4,3-2.9,4.3-4.4c2.9-3.7,6.1-7.3,8.3-11.6
		c1.5-2.5,3.2-4.9,5.1-7.2c1.6-2.1,2.5-2.4,4.9-1.3c0.5,0.3,1.1,0.6,1.6,1c2.6,1.8,5.4,3.4,8.1,4.9c4.1,2,7.8,4.5,11.2,7.6
		c0.6,0.4,1.2,0.8,1.8,1.1l0,0c0.1,0.3,0.3,0.6,0.4,1l1.5,5.3c-1.2,0.1-1.3,1.1-1.6,1.9c-2.6,5.5-5.6,10.7-9.1,15.7
		c-2.8,4.1-5.7,8.3-8.4,12.4c-1.1,1.6-2,3.4-3.1,5.1c-3.4,5-6.9,9.9-10.3,14.9c-0.7,0.4-1.4,0.9-2,1.4c-1,1.1-1.8,2.4-2.8,3.5
		c-3.4,3.8-6.9,7.6-10.4,11.4c-0.5,0.1-1.2,0-1.6,0.3c-2,1.7-4.5,2.4-6.9,3.2c-1.3,0.4-2.6,0.6-4,0.7c-4.6,0.5-8.9-1.3-13.4-1.8
		c-0.9-0.1-1.7-0.4-2.5-0.8c-4.5-1.9-7.4-5.5-9.3-9.9c-1.5-3.3-2.7-6.8-3.9-10.2C144.5,365.2,144.2,364,143.9,362.7z"/>
	<path class="st0" d="M176.4,217.7c-0.1,0.3-0.3,0.7-0.4,1c-0.5,0-0.9-0.1-1.4-0.2c-4.7-1.6-9.5-2-14.3-2.6c-0.1-1.3-1.1-1.4-2-1.4
		c-3.5,0-7.1-0.1-10.6,0c-0.6,0-1.1,0.6-1.7,0.9l-12.2,0.6c-0.6-0.2-1.2-0.3-1.8-0.3c-3.3,0.3-6.6,0.7-10,1.1
		c-5.9,0.7-11.8,1.9-17.5,3.7c-6.1,1.9-11.8,4.7-17.6,7.4c-0.6,0-1-0.5-1-1.1c0-0.1,0-0.2,0-0.3c0.1-2.6,0.5-5.1,0.9-7.7
		c0.7-2.2,1.5-4.3,2.4-6.3c1.2-0.4,2.4-0.8,3.6-1c4.2-0.8,8.4-1.6,12.6-2.4c0.6-0.1,1.5-0.1,1.3-1.4c-1.1,0.1-2.2,0.1-3.3,0.2
		c-2.7,0.4-5.3,0.8-8,1.3l-1,0.3l-1.4,0.2c-0.8-0.3-1.5-0.7-2.3-1.1c-2.2-1.6-3.6-4-4-6.6c-0.3-1.8-0.3-3.6-0.6-5.4
		c-0.7-4.1-0.7-8.3,0.1-12.3c0.7-3.6,1.7-7.2,5.3-9.2c0.2-0.1,0.3-0.5,0.4-0.8c7.2-0.7,14.4-1.1,21.7-1.1c2.9,0,5.7-0.3,8.6-0.3
		c7.6,0,15.2,0.7,22.8,2.1c1,0.2,2,0.4,3,0.6c0.6,0.4,1.2,0.7,1.9,1c4,1.5,8.1,2.9,12.1,4.4c3.6,1.3,7,3.2,9.9,5.6
		c2,1.6,2.9,4.3,2.2,6.8c-1,3.8-0.8,7.8,0.5,11.5c0.5,1.4,1,2.7,1.5,4c0.6,1.6,1.1,3.3,0.5,5.1C176.4,215.2,176.3,216.5,176.4,217.7
		z M97.3,205c0.4,0.3,0.5,0.5,0.6,0.5c12.2-3,24.7-4.2,37.2-5.4c0.3-0.1,0.6-0.2,0.9-0.3c0.1,0,0.1-0.1,0.2-0.4
		c-0.6-1.1-1.7-0.8-2.6-0.7c-6.1,0.6-12.2,1.2-18.3,1.9c-5.4,0.5-10.7,1.7-15.8,3.5C98.7,204.3,98,204.6,97.3,205z M155.7,201.4
		c3.8,1.2,7.8,1.8,11.8,1.9c-0.8-1.6-2-1.6-3-1.7C161.6,201.4,158.6,200.4,155.7,201.4L155.7,201.4z"/>
	<path class="st5" d="M348.8,346.9c1.6-0.2,3.3,0.2,4.8,1c0.2,0.6,0.4,1.2,0.5,1.8c0.5,1.6,0.9,3.3,1.4,4.9c0,0.6,0,1.1,0.1,1.7
		c1.2,7.4,1.8,15,1.8,22.5c0,0.9,0.1,1.8,0.1,2.6c0.2,0.5,0.3,1,0.3,1.6c-0.6,3.8-1.7,7.5-3.3,11c-1.3-0.6-1.5,0.5-1.8,1.2
		c-2,4.3-4.8,8.3-8.1,11.7c-0.4,0-0.8,0-1.2,0.1c-5.6,1.6-11.4,2.4-17.2,2.3c-5.8,0-11.7-0.1-17.5,0c-2.2,0.1-4.4,0.3-6.6,0.8
		c-3.4,0.7-6.6,1.6-10,2.3c-2.4,0.6-4.9,0.5-7.3-0.2c-1.3-0.7-2.6-1.5-3.8-2.4c0.8-1.7,1.6-3.4,2.5-5.1c1.1-2.1,2.4-4.3,3.6-6.4
		c0.6-0.5,1.1-1.1,1.5-1.8c1.4-2.6,2.7-5.2,3.9-7.9c3-6.7,4.6-13.9,6.5-20.9c0.4-1.9,0.7-3.7,0.8-5.6c0.1-1.9,0.5-2.5,2.3-3.1
		c1.3-0.4,2.6-0.7,3.9-1c5.4-1,10.8-1.9,16.1-2.9c3.1-0.5,6.2-1.6,8.9-3.2C336.5,348.5,342.6,346.9,348.8,346.9z M341.8,406.3
		c2.3-1.8,4.5-3.7,4.8-6.9C344.5,401.3,342.8,403.7,341.8,406.3L341.8,406.3z"/>
	<path class="st5" d="M192.9,52.3c5.6,4.7,10.9,9.7,15,15.8c0.3,0.5,0.5,1,0.8,1.5c0.2,0.6,0.3,1.2,0.5,1.8c1.1,3.1,2.4,6.2,3.5,9.4
		c1.2,3.3,1.7,6.8,1.2,10.3c-0.4,2.5-1.1,4.9-2.2,7.2c-1.1,2.2-2.9,4-4.3,6c-0.2,0.4-0.4,0.8-0.5,1.3l0,0c-0.3,0-1-0.2-0.4,0.5
		c-1.8,1.5-4,2.5-6.3,2.9l-3.4-2.5c0-1.3-1.1-1.9-2-2.5c-1.9-1.3-3.8-2.6-5.7-3.8c-3.8-2.3-7.6-4.6-11.9-5.8l-9-3.2
		c-0.8-0.5-1.6-0.9-2.5-1.2c-7.9-2-15.9-3.1-24-3.4l-7.6-0.2c0.3-4.3,3.3-6.9,5.8-9.8c0.8-0.8,1.7-1.6,2.7-2.3
		c2.6-2.2,5-4.7,7.8-6.7c3.5-2.5,7.4-4.7,11-7c4.5-2.8,9.6-4.1,14.6-5.8C181.3,53.1,187.1,52.2,192.9,52.3z"/>
	<path class="st6" d="M174.2,172.7l1.4,0.5c-1.3,2.1-3.4,3.3-5.4,4.7c-5.6-3.1-11.8-4.5-17.9-5.9c-5.3-1.2-10.6-1.9-16-2.7
		c-6-0.8-12.1-1.1-18.1-0.9c-4.8,0.1-9.6,0.3-14.3,0.5c-4.5,0.2-9.1,0.5-13.6,1c-5.1,0.6-10.1,1.3-14.9,3.2c-0.5,0.2-1,0.3-1.9,0.6
		c-0.2-0.8-0.4-1.7-0.6-2.5c-0.5-5.6-0.1-11.2,1-16.6c0.6-3.1,1.9-5.9,3.6-8.5c1-1.4,2-2.9,3-4.4c3.1-4.3,4.7-9.5,4.8-14.8
		c0-6.4,2.8-11.9,6.5-16.9c3.6-5.1,8.7-9,14.6-11.2c4.3-1.6,8.9-2.5,13.5-2.8c-5.5,4.8-9.7,10.4-12,17.4c-0.3,0.8-0.7,1.6-1.1,2.4
		c-0.9,1.9-1.4,4.1-1.3,6.2c0.1,0.6,0,1.3-0.2,1.9c-0.8,2.2-0.2,4.7,1.6,6.3c0.2,0.3,0.4,0.7,0.5,1.1c-4.7,1-9.3,1.9-14,3
		c-2.5,0.6-4.9,1.3-7.3,2c-0.4,0.1-0.7,0.6-1.1,0.9l0.3,0.5c1.3-0.3,2.6-0.6,3.9-0.9l14.4-3c-2.3,3.2-2,6.9-1.9,10.6
		c0,0.8,0.3,1.6,0.7,2.3c1.6,2.9,3.4,5.7,5.3,8.5c1.1,1.2,2.5,2,4,2.5c2.5,0.8,5,1.5,7.6,2.1c1.7,0.4,3.4,0.7,5.2,0.9
		c1.9,0.2,3.8,0.4,5.7,0.5c3,0.2,6,0.2,9,0.5c1.3,0.2,2.6,0.6,3.8,1c-0.4,0.6-0.4,1.1,0.3,1.3c1.1,0.3,2.2,0.4,3.3,0.6
		c7,1.1,13.9,3.1,20.4,6l5.2,2.4C172.9,173.3,173.7,173.8,174.2,172.7z M119.7,164l-0.1-0.6c-8.6-1.8-37.1,2.1-43.6,6.8
		c1,0.1,1.9,0,2.9-0.3c12.1-3.3,24.3-5.5,36.9-5.4C117.1,164.4,118.4,164.3,119.7,164z M90.8,128c1.2,0.5,1.3,0.6,3.8,0.1
		s5.4-0.6,8.3-1.9C100.3,125.4,94.1,126.3,90.8,128L90.8,128z M130,163.9l-0.2-0.5c-1.3-0.2-2.7-0.7-3.9,0.5
		c0.9,1.1,2.1,0.6,3.1,0.6C129.4,164.5,129.7,164.1,130,163.9z"/>
	<path class="st6" d="M249.9,404.4l0.6,0.6c-0.3,0.7-0.6,1.5-0.9,2.2s-0.9,1.5-0.2,2.7l2.9-4.9c1.4,3.1,4.6,3.3,7.2,4.3
		c1.7,0.7,3.5,1.1,5.1,1.9c1.6,0.7,3.3,1.1,5.1,1.1c-1.4,2.2-2.7,4.3-4.1,6.5c-0.4,0.6-1.1,1-0.4,2.1c0.6-0.5,1.1-1,1.6-1.6
		c2.5-3.7,5-7.4,7.3-11.2c0.8-1.5,1.5-3.1,2-4.8c0-0.4,0-0.8,0.2-1.2c1.2-2.8,2.5-5.6,3.8-8.4c0.3-0.4,0.6-0.8,1-1.2
		c0.5-0.6,0.9-1.3,1.3-2c0.9-2.5,1.8-5.1,2.5-7.7c1.4-5.4,2.5-10.8,3.1-16.3c0.6-5,0.8-10,0.7-15c0-0.9-0.3-1.5-1.3-1.6
		c-0.2-1.5-0.3-3-0.5-4.5c3.1,3.1,4.6,7,5.7,11.1c1.5,6,0.3,11.8-1.1,17.6c-1.6,6.5-4.5,12.4-7.1,18.5c-2.8,6.4-6.4,12.3-9.9,18.3
		c-2.8,5.1-6.6,9.6-11.1,13.4c-4.1,3.3-9,4.4-14.1,3.8c-3.6-0.4-7.3-0.9-10.9-1.2c-2.6-0.2-5.2-0.4-7.8-0.5c-4.7-0.2-9.2,1-13.7,1.7
		c-2.8,0.5-5.8,0.1-8.4-1.1c-4.1-2-7.9-4.5-11.3-7.5c-3.9-3.2-6.6-7.5-10-11.2c-1.1-1.4-2-2.9-2.8-4.5c1.4-0.8,2.6-1.6,3.9-2.3
		c2.7-1.5,5-3.5,6.8-5.9c1.4-1.8,3-3.5,4.6-5.2c-0.1,3.9,2,6.5,4.8,8.9c3.6,3,7.9,4.6,12.3,6.1c1.2,0.4,2.5,0.6,3.6,1.1
		c4.7,2,9.7,1.4,14.6,1.3c3.2,0,5.9-1.7,8.4-3.5c2.9-2.1,5.3-4.8,7.1-7.9c0.4-0.5,0.9-1,1.5-1.4c-0.3,0.9-0.5,1.8-0.9,2.7
		c-2.5,6.2-5.2,12.3-9.2,17.7c-1,1.4-2.1,2.8-3.1,4.2c-0.7,0.7-0.9,1.8-0.5,2.8c0.4-0.2,0.7-0.5,1-0.8c1.7-2.2,3.6-4.3,5-6.6
		C246.1,411.4,248,407.8,249.9,404.4z"/>
	<path class="st7" d="M133.8,216l12.2-0.6l14.4,0.5c4.8,0.6,9.7,1,14.3,2.6c0.5,0.1,0.9,0.2,1.4,0.2c-0.6,1.1-1.2,2.2-1.8,3.3
		c-6.9-0.8-14-1-20.9-0.7c-7.1,0.4-14.1,1.1-21.2,1.7c-3.7,0.3-7.3,0.8-10.9,1.5c-5.8,1.3-11.6,2.9-17.3,4.5
		c-2.6,0.7-5.3,1.4-7.8,2.3c-5.3,1.9-10.7,3.8-15.9,6c-4,1.7-8.1,3.5-11.5,6.4c-2.2,1.9-4.4,3.9-6.7,5.8c-0.6,0.5-1.1,1.1-2,1.9
		c-0.4-3.5-0.1-7,0.8-10.4c1-3.7,2.2-7.3,3.1-11c0.9-3.6,1.6-7.2,2-10.8c0.2-2.7,0-5.4-0.5-8.1c-0.9-5.5-2-11-3-16.4
		c-0.7-3.3,0.1-6.8,2.2-9.4c2.5-3.1,5.8-5.5,9.5-7c5.7-2.4,11.7-3.8,17.8-4c-0.1,0.3-0.2,0.7-0.4,0.8c-3.6,2-4.6,5.5-5.3,9.2
		c-0.8,4.1-0.8,8.2-0.1,12.3c0.3,1.8,0.3,3.6,0.6,5.4c0.4,2.6,1.8,5,4,6.6c0.7,0.5,1.5,0.8,2.3,1.1c-1.8,0.5-3.5,1-5.2,1.4
		c-5.7,1.4-11.2,3.5-16.4,6.3c-0.7,0.4-1.7,0.6-1.7,2c0.8-0.2,1.6-0.4,2.4-0.7c2.3-0.9,4.5-2,6.8-2.9c3.4-1.3,6.7-2.8,10.4-3.3
		c-1,2-1.8,4.1-2.4,6.3c-0.5,2.5-0.8,5.1-0.9,7.7c-0.2,0.6,0.2,1.1,0.7,1.3c0.1,0,0.2,0,0.3,0c-4.5,2.5-9.1,4.9-13.6,7.6
		c-3.4,2-6.6,4.2-9.9,6.3c-1.1,0.7-1.9,1.9-2,3.2c0.6-0.3,1.2-0.6,1.8-0.9c2-1.4,4-2.9,6.1-4.1c8.8-5.5,18-10.3,27.4-14.6
		c6.4-2.9,13.1-4.9,20.1-6.1c4.6-0.7,9.3-1.2,13.9-1.9C131.8,217.1,133.2,217.5,133.8,216z"/>
	<path class="st8" d="M261.5,320c-6.8,3.7-14.3,5.9-22,6.2c0-1.4,0-2.5,0-3.6c-0.3-6-1.8-11.7-5.4-16.6c-2.6-3.5-5.7-6.5-9.4-8.8
		c-5-3.2-9.9-6.4-14.9-9.6c-0.9-0.6-1.7-1.2-2.7-1.9c0.5-0.8,1-1.4,1.4-2c4-5.5,9.6-9.8,16-12.1c2.5-1,5.1-1.8,7.7-2.5
		c1.5-0.4,3.1-0.6,4.7-0.7c0.7,0.1,1.4,0.3,2,0.7c0.6,0.4,1.2,0.8,1.8,1.2c1.7,1.2,3.7,2.3,5.2,3.8c3.1,3.2,5.7,6.9,7.7,10.9
		c2.9,6.2,5.6,12.5,8.3,18.8c1.2,2.9,2.2,5.8,3.3,8.7c0.7,1.9,0.7,3.5-1,4.9C263.2,318.1,262.3,319.1,261.5,320z"/>
	<path class="st7" d="M143.9,362.7c0.2,1.2,0.5,2.5,0.9,3.7c1.2,3.4,2.4,6.9,3.9,10.2c1.9,4.3,4.7,8,9.3,9.9
		c0.8,0.4,1.6,0.6,2.5,0.8c4.5,0.5,8.8,2.4,13.4,1.8c1.4-0.1,2.7-0.3,4-0.7c2.4-0.9,4.8-1.6,6.9-3.2c0.4-0.3,1-0.2,1.6-0.3
		c-1.9,1.7-3.7,3.4-5.6,5.2c-0.4,0.5-0.8,1.1-1.1,1.7c0.6-0.1,1.2-0.4,1.8-0.6c1.7-1.3,3.4-2.6,5-4c5.1-4.8,9.4-10.3,13.8-15.8
		c0.5-0.8,0.9-1.8,1.2-2.7c3.4-5,6.9-9.9,10.3-14.9c1.1-1.6,2-3.4,3.1-5.1c2.8-4.2,5.6-8.3,8.4-12.4c3.5-5,6.5-10.2,9.1-15.7
		c0.3-0.7,0.5-1.8,1.6-1.9c1,2.7,1.2,5.6,0.8,8.4c-0.6,5.7-3.2,10.6-5.7,15.6c-4.5,8.9-10.6,16.7-16.5,24.6
		c-3.2,4.3-6.9,8.1-10.3,12.2c-2.2,2.6-4.3,5.4-6.5,8s-4.3,5.3-6.6,7.8c-2.6,2.8-5.9,4-9.6,4.3c-4.8,0.5-9.6,1.1-14.5,1.4
		c-6.6,0.4-13.2,0.6-19.7-0.7c-0.2-0.1-0.5-0.1-0.7-0.1c-3.4,0.4-5.2-1.7-6.5-4.3c-1.4-2.9-2.6-5.8-3.7-8.8
		c-1.7-4.6-3.2-9.3-4.9-14.2c1-0.6,2.2-1.4,3.3-2c3.5-2.1,6.8-4.5,9.8-7.3C143.2,363.3,143.6,363,143.9,362.7z M230.3,330.7
		c-0.8,1.4-1.5,2.9-2.4,4.3c-4.8,7.4-9.4,14.8-14.4,22c-4.6,6.9-9,14-14.6,20.1c-0.8,0.6-1.1,1.6-0.9,2.6c0.6-0.3,1.1-0.7,1.6-1.2
		c1.7-1.7,3.3-3.5,4.7-5.4c7.3-10.7,14.6-21.5,21.9-32.3c1.7-2.6,3.1-5.4,4.6-8.1C231.2,332.1,231.7,331.4,230.3,330.7L230.3,330.7z
		 M181.3,393.7c2.8-0.2,7.9-3.7,8.8-5.8C188.5,388,183.4,391.3,181.3,393.7L181.3,393.7z"/>
	<path class="st7" d="M168.1,91.1l9,3.2l-1,0.5c0.4,0.3,0.9,0.6,1.4,0.8c6,2.8,11.7,6.2,17.1,10.1c0.7,0.4,1.4,0.6,2.2,0.8l3.4,2.5
		l-4.8,1.8c-6.3-4.2-12.8-8-19.6-11.4c-4-1.9-8.2-3.2-12.5-4c-3.7-0.7-7.3-1.7-10.9-2.5c-2.6-0.5-5.2-0.8-7.8-1.2
		c-2.8-0.4-5.5-0.9-8.3-1.1c-2.2-0.1-4.4-0.1-6.6,0c-2.6,0.1-5.2,0.5-7.9,0.5c-4.1,0.1-8.3,0.7-12.3,1.7c-0.3,0.1-0.6,0.1-0.9,0.2
		c-0.1,0-0.1-0.1-0.3-0.1c3.3-6.2,7.2-12,11.7-17.4c3-3.5,6.1-7,10.1-9.5c3.4-2.2,7.1-4,10.6-6c3.1-1.7,6.1-3.4,9.2-5.1
		c6.2-3.5,12.5-6.8,19.3-8.9c4.4-1.4,9.1-1.7,13.7-0.9c2.1,0.4,4,1.3,5.5,2.7c1.6,1.5,3,3,4.6,4.6c-5.8-0.1-11.6,0.8-17.1,2.5
		c-4.9,1.7-10.1,2.9-14.6,5.8c-3.7,2.3-7.5,4.5-11,7c-2.8,2-5.2,4.4-7.8,6.7c-1,0.7-1.8,1.5-2.7,2.3c-2.5,2.9-5.6,5.5-5.8,9.8
		l-7.8,0.5c-3.6,0.2-7.1,0.9-10.5,2.1c-1,0.4-1.9,0.9-2.8,1.4c1.2,1.2,2.2,0.3,3.1,0.2c3.4-0.6,6.8-1.9,10.3-2
		c6.6-0.4,13.2-0.4,19.9,0c6.6,0.4,13.1,1.4,19.5,3.1C166.3,91.7,167.3,92,168.1,91.1z"/>
	<path class="st6" d="M281.1,409.7c1.2,0.9,2.4,1.7,3.8,2.4c2.4,0.8,4.9,0.9,7.3,0.2c3.3-0.7,6.6-1.6,10-2.3
		c2.2-0.4,4.4-0.7,6.6-0.8c5.8-0.1,11.7,0,17.5,0c5.8,0.1,11.6-0.7,17.1-2.3c0.4-0.1,0.8-0.1,1.2-0.1l0.6,1.5c1.1-1.1,2-2,2.9-2.9
		c2.4-2.8,4.3-5.9,5.8-9.3c0.3-0.7,0.5-1.5,0.7-2.3c1.6-3.5,2.7-7.2,3.3-11c0-0.5-0.1-1.1-0.3-1.6c0.3-0.1,0.7-0.2,0.8-0.4
		c0.3-1.1,0.5-2.2,0.6-3.3c0.1-6-0.2-11.9-1-17.9c-0.1-1.4-0.5-2.8-0.7-4.2c-0.1-1-0.7-1.1-1.5-1c-0.5-1.6-0.9-3.3-1.4-4.9
		c-0.2-0.6-0.4-1.2-0.5-1.8c2.6,0.6,4.7,2.7,5.3,5.3c1.5,6.5,3,13,4.2,19.6c0.5,3.5,0.3,7-0.6,10.5c-1.2,6-2.9,11.8-5.3,17.4
		c-1,1.9-2.3,3.6-3.9,5c-5.2,5.6-11.9,8.9-19.2,10.7c-4.9,1.3-10,2.2-14.9,3.5c-5.8,1.5-11.4,3.7-16.7,6.6
		c-3.8,2.1-7.7,3.6-12.3,3.5c-6.7-0.1-13.3-1.3-19.7-3.4c-0.5-0.2-0.9-0.4-1.4-0.6c1.6-1.9,3.2-3.5,4.5-5.4c2.2-3.1,4.3-6.4,6.4-9.5
		C280.4,410.5,280.7,410.1,281.1,409.7z"/>
	<path class="st5" d="M239.5,45.5c2.8,0.7,5.5,1.4,8.3,2.1c1.6,0.4,3.2,0.8,4.8,1.3c0.6,0.2,1.1,0.5,1.7,0.9
		c-0.3,1.1-0.7,2.2-1.1,3.3c-1.4,2.7-3.7,4.5-6.1,6.2c-4.7,3.4-9.2,7-13.6,10.7c-2.2,1.8-4.2,3.8-6.1,6c-1.4,1.7-2.6,3.6-3.8,5.4
		l-0.5-2c0.1-2.4-0.7-4.8-2.4-6.7l-1.9-4.8c-0.1-0.6-0.2-1.2-0.4-1.8c-3-6.5-7.2-12.2-12.5-17c0.1-1.3,1.2-1.5,2.2-1.9
		c4.6-1.6,9.4-2.4,14.3-2.4C228.1,45.2,233.8,45.4,239.5,45.5z"/>
	<path class="st9" d="M254.8,266l-3.2,7.4c-1.1-0.8-2.1-1.6-3.2-2.4c-3.4-2.6-7.2-4.4-11.4-5.5c-5.3-1.3-10.2-3.7-15-6.1
		c-2.6-1.3-5.3-2.7-7.9-4.1c-3.6-1.8-7.5-3.2-11.4-4.1c-2.3-0.6-3.4-0.3-6.7,1.6c-0.9-2.1-2-4.2-2.8-6.3c-1.2-3.2-2.3-6.4-3.4-9.7
		c-0.2-0.5-0.2-1.1,0-1.6c1-2.2,3.9-4.1,6.5-3.4c1.1,0.3,2.1,0.5,3.2,0.8c4.2,2.3,8.3,4.7,12.5,6.8c6,3.1,11.6,6.9,16.8,11.3
		c2.3,2,4.8,3.7,7.5,5c5.4,2.3,10.8,4.8,16.1,7.1C254,263.2,254.9,264.6,254.8,266z"/>
	<path class="st10" d="M394.6,340.6c1.7,1.2,1.7,3,1.7,4.8c-1.8-2-2.1-2-3.5,0.1c-0.1,0.2-0.4,0.2-0.6,0.3l-1-1.6
		c-0.4,3.7-0.7,6.8-1.1,9.8c-0.8,5.4-1.6,10.7-3.8,15.8l-1.8-0.2c0.3-1.6,0.6-2.9,0.8-4.3c0-0.4-0.3-0.8-0.4-1.3l0.1-0.9
		c0.6-0.2,1-0.4,0.3-1c0.3-2.4,0.6-4.9,0.9-7.3c0.1-0.8,0.3-1.8-1.3-1.7c-0.2,1.9-0.4,3.7-0.7,5.4c-0.9,5.8-2.5,11.5-4.7,17
		c-2.2,5.1-4.6,10.2-8.2,14.5l-1.4,0.3c-1.8,0.4-1.9,0.4-3-1.4c-0.1-0.2-0.4-0.3-0.6-0.4c0.4-2.8,0.8-5.7,1.3-8.5
		c0.7-3.3,0.2-6.5-0.4-9.7c-1.1-6-2.6-11.9-3.9-17.9c2.3,0.3,4.2-0.9,6.1-1.8c2.9-1.5,5.7-3.1,8.4-4.9
		C382.8,342.6,388.6,340.8,394.6,340.6z M375.9,374.5c2-1.1,3.4-3.2,4.9-7.5c0.4-1.2,1.4-2.3,0.5-3.9c-0.4,0.4-0.8,0.5-0.9,0.9
		C378.9,367.3,377.5,370.7,375.9,374.5z"/>
	<path class="st11" d="M232.2,206.2c-1.3,1-1.8,2.7-1.2,4.2c0.1,0.7,0.2,1.4,0.2,2.1c-2.1,0.8-4.5,0.9-6.7,0.3
		c-0.8-0.2-1.6-0.5-1.9,1c2.7,1,5.6,1.2,8.4,0.6c0.6,2-0.1,3.8-0.8,5.5c-0.4,0.6-1,1-1.6,1.2c-2.9,0.8-6,0.8-9,0.1
		c-1.2-0.3-2.2-0.9-3.1-1.6c-3-2.6-6-5.3-8.9-8c-0.7-0.8-1.7-1.1-2.7-0.9c-2.7,0.6-4.2-1.4-5.6-3.2c-1.1-1.6-1-3.8,0.2-5.4
		c1-1.6,3.2-2.1,4.8-1.1c0.2,0.1,0.4,0.3,0.5,0.4c2.2,1.7,4.6,2.6,7.3,1.3c1.7-0.8,2.9-2.3,3.3-4.1c0.5,0.3,1,0.6,1.5,1
		c2.2-2.8,5.4-4.6,9-4.9l0.1,0.9c-2.6,0.7-4.8,2.5-6,4.9c-0.6,0.9-0.5,2,0.3,2.7l3.9-0.5c1.4-0.8,1.8-1.4,1.6-2.9
		c-0.2-0.7-0.4-1.5-0.7-2.2l1.1-0.7c0.1,0.1,0.4,0.2,0.4,0.3c0.2,2.8,2,4.5,4.2,5.9C231.9,204,232.4,205.1,232.2,206.2z
		 M206.1,207.1c0.4-1.9-0.7-3.8-2.5-4.5c-1.1-0.6-2.3-1.1-3.6,0.6l2.7,0.9c-0.2,0.8-0.8,1.6,0.1,2.5l1.4-1L206.1,207.1z"/>
	<path class="st7" d="M239.5,45.5c-5.7-0.1-11.5-0.3-17.2-0.4c-4.9-0.1-9.7,0.7-14.3,2.4c-1,0.3-2.1,0.5-2.2,1.9
		c-1.4-1-2.4-2.6-4.4-2.7c0.4,0.8,0.9,1.4,1.6,2c2.2,2.4,4.6,4.6,6.7,7.1c2.9,3.4,5.4,7.1,7.3,11.1c0.4,0.8,0.8,1.4,1.8,1.2l1.9,4.8
		c-0.1,0.2-0.4,0.4-0.4,0.6c0.5,1.9,0.9,3.8,1.5,5.7c0.1,0.2,0.8,0.3,1.2,0.4l0.5,2c-0.3,0.8-0.6,1.6-0.7,2.4
		c-0.1,0.3,0.2,0.6,0.3,1l-1.1,1c-0.4-2.1-0.7-3.9-1.1-5.8c-0.8-3-2.2-5.8-4.1-8.3c-4.6-6.4-9.1-12.9-14.6-18.6
		c-2.3-2.4-4.8-4.4-7.3-6.6l-1-0.8c2.8-1.6,6-2.6,9.2-3c2.7-0.3,5.4-0.5,8.1-0.6c3-0.2,6.1-0.5,9.1-0.3c3.8,0.1,7.6,0.4,11.4,1
		C234.4,43.3,236.9,44.6,239.5,45.5z"/>
	<path class="st12" d="M366.3,388.6c0.2,0.1,0.5,0.2,0.6,0.4c1.1,1.7,1.2,1.8,3,1.4l1.4-0.3c-0.1,0.8-1.4,1.3-0.3,2.4
		c0.4-0.1,0.8-0.3,1.1-0.6c0.6-0.7,1.2-1.5,1.7-2.3c4.3-6.3,7.6-13.3,9.6-20.7c0.5-1.6,1-3.1,1.5-4.7c0.1,0.4,0.4,0.9,0.4,1.3
		c-0.2,1.4-0.5,2.7-0.8,4.3l1.8,0.2c0.2,0.4,0.3,0.8,0.6,1.4c1.5-1.4,1.9-3.1,2.3-4.8c1.8-6.7,2.9-13.6,3-20.6
		c0.2-0.1,0.5-0.1,0.6-0.3c1.4-2.1,1.8-2.2,3.5-0.1c0.2,0.7,0.4,1.5,0.4,2.3c-0.7,6.5-2.5,12.8-5.2,18.8
		c-2.9,6.5-6.1,12.9-10.9,18.2c-5.1,5.8-10.7,11.2-16.8,16c-0.4,0.3-0.9,0.6-1.4,0.9c-0.1,0-0.3,0-0.4,0
		C363.4,397.3,364.8,392.9,366.3,388.6z"/>
	<path class="st13" d="M182.3,159.9c0.4-2.5,0.7-5,1.1-7.5c0.4-1.8,0.6-3.6,0.8-5.4c0.1-4.2,0.7-8.4,2-12.4c0.5-1.4,1-2.8,1.7-4.2
		c0.9-1.9,1.8-3.7,2.6-5.6c0.9-1.7,0.6-3.7-0.7-5.2c-2-2.3-3.9-4.8-6.3-6.5c-5.3-4-11-7.5-17-10.3c-2-0.9-4-1.6-6-2.4
		c-0.3-0.2-0.6-0.4-0.9-0.7c7,0.9,13.7,3.3,19.7,7c3.2,1.9,6.4,3.7,9.5,5.6c1.4,0.9,2.7,2,3.9,3.1c1.4,1.1,2.1,3,1.9,4.8
		c-0.3,3.3-0.6,6.5-2.3,9.4c-3,5.1-3.9,10.9-5.4,16.5C185.8,150.7,183.9,155.3,182.3,159.9z"/>
	<path class="st13" d="M198.7,270.1c-0.5-0.5-0.9-1.1-1.3-1.6c-2.3-4.1-4.6-8.2-6.8-12.4s-4-8.1-5.9-12.3c-1.8-4.2-4.2-8.1-7-11.7
		c-1.9-2.3-4.6-3.2-7.3-3.7c-7-1.4-14.1-1.3-21.2-1c-5.1,0.2-10.3,0.8-15.4,1.4c-3.9,0.4-7.9,1-11.8,1.4c-2.9,0.3-5.9,0.4-8.8,0.5
		c3.1-0.9,6.3-1.7,9.4-2.3c6.2-0.9,12.5-1.3,18.7-2.1c7.9-1,15.9-1,23.9-0.9c3.7,0,7.5,0.3,11,1.9c2,0.9,3.6,2.3,4.8,4.2
		c1.9,3.5,3.8,7,5.6,10.6c2.5,5.1,4.9,10.2,7.3,15.3C195.8,261.5,197.8,265.6,198.7,270.1z"/>
	<path class="st14" d="M197.2,254.6c1.8-1.2,3.6-2,5.8-0.8c-0.6,1.5-2.2,2.6-1.3,4.5c1-0.1,1.1-1,1.5-1.7c1.4-2.2,2.1-2.4,4.6-1.5
		c2.7,1,2.7,1.1,2.7,4c0.1,6.2-0.2,12.4-0.9,18.6c-0.1,0.7-0.3,1.4-0.7,2c-1,1.5-2.2,2.9-3.5,4.8c-0.8-5.4-0.8-10.5-2.4-15.4
		C201.4,264.1,199.5,259.3,197.2,254.6z"/>
	<path class="st13" d="M278.8,338.2c-1.8-0.5-3.7-1-5.5-1.4c-5.4-1.1-10.7-2.4-16.2-2.5c-2.7-0.1-5.4-0.4-8.1-0.4
		c-3.4-0.2-6.7,1.5-8.4,4.5c-3.8,5.7-7.7,11.4-11.6,17c-1.8,2.5-3.7,5-5.7,7.4c-0.5,0.4-1,0.7-1.6,0.9c0.1-0.4,0.3-0.9,0.6-1.3
		c2.6-3.6,5.3-7.2,7.7-11c3.9-5.9,6.9-12.4,8.9-19.2c0.1-1,1-1.8,2-1.7c0,0,0,0,0.1,0c1.6,0,3.2-0.4,4.7-0.4c2.1,0,4.3,0,6.4,0.2
		s4.3,0.5,6.4,0.5c6.8,0.3,12.8,3.1,18.7,6.1C277.7,337.3,278.3,337.7,278.8,338.2z"/>
	<path class="st13" d="M348.8,346.9c-6.2,0.1-12.3,1.8-17.7,4.9c-2.8,1.6-5.8,2.7-8.9,3.2c-5.4,1-10.8,1.9-16.1,2.9
		c-1.3,0.3-2.6,0.6-3.9,1c-1.8,0.5-2.1,1.1-2.3,3.1c-0.1,1.9-0.3,3.8-0.8,5.6c-1.9,7.1-3.4,14.2-6.5,20.9c-1.2,2.7-2.5,5.3-3.9,7.9
		c-0.4,0.6-1,1.2-1.5,1.8c0.7-1.6,1.4-3.2,2-4.8c1.7-4.2,3.8-8.3,5.1-12.6c2.1-6.5,3.9-13.1,3.5-20.1c-0.1-1.8-0.6-3.6-0.9-5.6
		c0.9-0.2,1.8-0.4,2.8-0.5c3.7-0.2,7.3-0.5,11-0.5c5.5-0.1,10.9-1.3,16-3.5c3.4-1.4,6.8-2.6,10.4-3.6
		C340.9,345.9,345,345.9,348.8,346.9z"/>
	<path class="st13" d="M232.3,312.3c-0.6-0.3-1.2-0.6-1.8-1.1c-3.3-3.1-7.1-5.6-11.2-7.6c-2.8-1.5-5.5-3.2-8.1-4.9
		c-0.5-0.4-1-0.7-1.6-1c-2.4-1.1-3.3-0.9-4.9,1.3c-1.9,2.3-3.6,4.7-5.1,7.2c-2.2,4.3-5.4,7.9-8.3,11.6c-1.4,1.6-2.8,3.1-4.3,4.4
		c-0.2,0.2-0.6,0.2-0.9,0.3c0.4-0.6,0.6-1.2,1-1.8c4.1-6,8.9-11.5,12.3-17.9c1.4-2.6,2.8-5.2,4.1-7.9c0.6-1.7,1.2-3.4,1.6-5.1
		c1.2,0.9,2.5,1.9,3.8,2.9c4.2,3.5,8.8,6.7,13.5,9.5c3.3,1.8,6.1,4.4,8.3,7.4C231.3,310.3,231.8,311.3,232.3,312.3z"/>
	<path class="st13" d="M223.1,84.9c-0.1-0.3-0.3-0.7-0.3-1c0.2-0.8,0.5-1.6,0.7-2.4c1.2-1.9,2.4-3.7,3.8-5.4c1.9-2.2,3.9-4.2,6.1-6
		c4.4-3.7,9-7.3,13.6-10.7c2.4-1.8,4.7-3.5,6.1-6.2c0.5-1.1,0.8-2.2,1.1-3.3c2,0.9,2.1,1.2,1.7,3c-0.6,1.9-1.7,3.6-3.3,4.8
		c-4.8,4.2-9.6,8.3-14.3,12.7c-3.6,3.3-7.1,6.9-10.6,10.4C226.2,82.2,224.6,83.5,223.1,84.9z"/>
	<path class="st15" d="M261.5,320c0.8-1,1.6-1.9,2.6-2.8c1.7-1.4,1.8-3,1-4.9c-1.1-2.9-2-5.9-3.3-8.7c-2.7-6.3-5.5-12.5-8.3-18.8
		c-1.9-4-4.5-7.7-7.6-10.9c-1.4-1.5-3.4-2.5-5.2-3.8c-0.6-0.4-1.2-0.8-1.8-1.2c6.2,1.4,11.6,5.4,14.6,11c5.1,9.2,9.4,18.8,12.8,28.8
		c0.4,1.2,0.9,2.4,1.4,3.6c0.8,1.4,0.5,3.3-0.9,4.2C265.3,318.1,263.5,319.3,261.5,320z"/>
	<path class="st16" d="M213.3,183.3c-1,0.4-2,0.7-3,1.1c-1.6,0.4-3.1,1.3-4.2,2.6c-1.5,1.7-1.7,4.3-0.3,6.2c0.5,0.8,1.3,1.4,1.8,2.3
		c0.4,0.7,0.7,1.4,0.7,2.2c-0.1,0.6-0.4,1.1-0.9,1.4c-0.6,0.1-1.2-0.1-1.6-0.6c-0.7-0.8-1.3-1.7-1.9-2.6c-0.3,1.3-0.4,2-0.6,2.7
		c-6.9,1.1-7.9,6.6-4.6,11.5c-2.2,1.4-2.5,1.4-5.1-0.2c0.4-0.3,0.8-0.5,1.1-0.8c1.8-1.3,2.2-3.8,0.9-5.6c-0.1-0.1-0.2-0.2-0.3-0.3
		c-0.6-0.7-1.3-1.2-1.8-1.9c-1-1.3-0.8-2.4,0.7-3.1c1.2-0.5,2.5-1,3.8-1.3c0.7-0.2,1.4-0.3,2.1-0.5c2.4-0.8,3.1-2.9,1.8-5.1
		c-1.5-2.4-1.5-3.1,0.4-5.6l0.4-0.5l0,0l0.5-0.5l0,0c3-1.5,6.3-2.1,9.6-1.9l0,0L213.3,183.3z"/>
	<path class="st11" d="M215.9,223.2l-6.5,5.9c-3.4-2-6.6-4.3-8.6-8.2c2.1-2.5,4.3-4.9,5.3-8.1L215.9,223.2z"/>
	<path class="st14" d="M267.7,275c-1,2.3-3.1,3.6-5.1,4.9c-0.3,0.2-0.7,0.2-1.1,0.1c-2.5-0.9-5.1-1.6-7.3-3.5
		c0.2-3.9,1.6-7.6,3.9-10.7c1.8,0.4,3.4,1.4,4.5,2.8C264.7,270.5,266.4,272.6,267.7,275z M260.4,276.4c0-1.4-1-2.6-2.3-2.9
		c-1.1,0-2,0.9-2,2c0,0.1,0,0.1,0,0.2c0.1,1.4,1.2,2.5,2.5,2.7C259.8,278.4,260.4,277.6,260.4,276.4z"/>
	<path class="st17" d="M254.8,266c0.1-1.5-0.8-2.8-2.2-3.3c-5.4-2.3-10.7-4.8-16.1-7.1c-2.7-1.3-5.3-3-7.5-5
		c-5.2-4.4-10.8-8.1-16.8-11.3c-4.3-2.1-8.4-4.5-12.5-6.8c3,0.3,5.6,1.6,8.3,2.8c8.1,3.8,15.7,8.7,22.4,14.6c2,1.7,4.3,3,6.8,3.9
		c6.8,2.7,13.4,6,19.7,9.8L254.8,266z"/>
	<path class="st13" d="M176.4,217.7c-0.1-1.2,0-2.5,0.3-3.7c0.6-1.9,0.1-3.5-0.5-5.1c-0.4-1.4-1-2.7-1.5-4
		c-1.3-3.7-1.5-7.7-0.5-11.5c0.7-2.5-0.2-5.2-2.2-6.8c-2.9-2.5-6.3-4.4-9.9-5.6c-4-1.5-8.1-2.9-12.1-4.4c-0.6-0.3-1.3-0.6-1.9-1
		c1.9,0.4,3.7,0.8,5.6,1.2c2.9,0.6,5.7,1.5,8.5,2.4c3.3,1.2,6.4,2.7,9.5,4.5c4.2,2.5,5.4,6.7,4.8,11.2c-0.3,3.2-0.2,6.4,0.3,9.5
		c0.2,2,0.5,4.1,0.8,6.1C177.8,213,177.4,215.5,176.4,217.7z"/>
	<path class="st11" d="M268.1,289.8v2.9h-0.8c-0.2-1.2-0.3-2.4-0.5-3.5c-0.1-0.3-0.5-0.6-1.2-1.2c-0.2,3.2,0.6,5.8,0.2,8.5
		c-0.3-0.8-0.6-1.7-0.8-2.6c-0.5-2.7-0.9-5.5-1.4-8.2c-0.4-2-0.1-3.5,1.8-4.7c1.5-1.2,2.9-2.4,4.3-3.8c1.7,3.9,3.6,7.7,4.6,11.9
		c0.2,0.9,0.6,1.8-0.1,2.7c-0.5-1.6-1-3.2-1.7-4.7c-0.2-0.5-0.8-0.8-1.5-1.5c-0.2,4.2-0.5,7.9-0.7,11.5h-0.5
		c-0.2-3.3-0.3-6.6-0.5-10c-1.8,0.1-1.3,1.2-1.4,2L268.1,289.8z"/>
	<path class="st13" d="M206.8,105.6c0.1-0.4,0.3-0.9,0.5-1.3c1.4-2,3.2-3.8,4.3-6c1.1-2.3,1.9-4.7,2.2-7.2c0.4-3.5,0-7-1.2-10.3
		c-1.1-3.2-2.3-6.3-3.5-9.4c-0.2-0.6-0.4-1.2-0.5-1.8c4.7,5.5,9,11.4,8.2,19.1C216.1,95.7,213.6,102,206.8,105.6z"/>
	<path class="st13" d="M394.6,340.6c-6,0.1-11.8,1.9-16.8,5.3c-2.7,1.8-5.5,3.4-8.4,4.9c-1.9,0.9-3.8,2-6.1,1.8
		c-0.2-0.8-0.5-1.6-0.7-2.7c6.9-2.8,13.6-5.5,20.4-8.2c2.4-0.9,4.8-1.6,7.3-2.3C391.8,338.9,393.5,339.4,394.6,340.6z"/>
	<path class="st14" d="M194,223.6l2.6,5.4c-3.3,0.3-6.2,1.3-8.3,4.3l-3.8-5.4C187,224.9,190.2,223.8,194,223.6z"/>
	<path class="st16" d="M217.8,187.5c-1.3,0-2.5,0-3.8,0.1c-0.9,0.1-1.7,0.3-2.5,0.8c-1.1,0.4-1.6,1.6-1.1,2.7c0,0.1,0.1,0.2,0.1,0.3
		c0.6,1.3,1.3,2.6,2,3.8c0.9,1.5,1.4,3.1,0.3,4.7c-1,1.5-2.9,2.2-4.6,1.5c0-0.2-0.1-0.4,0-0.5c2.7-2.3,1.9-5.2,0.1-7.1
		c-0.1-0.1-0.2-0.2-0.3-0.3c-2.5-2.8-2-5.3,1.4-6.8c1.2-0.4,2.4-0.7,3.7-0.8L217.8,187.5z"/>
	<path class="st11" d="M226.8,191.9l1,1.2l-0.8,0.2c0-1-0.6-1.1-1.4-1.1c-3,0.1-5.8,1.4-7.8,3.6c-0.7,0.8-1.4,1.5-2,2.3
		c0.3-2.2,0.3-2.2-1.9-6.8c1-0.8,2.3-1.1,3.5-0.9c1.6,0.1,3.2-0.4,4.4-1.5c0.7,0.5,1.4,1,2,1.5C224.6,191.3,225.5,192.1,226.8,191.9
		z"/>
	<path class="st16" d="M199.2,181.8c-0.9,0.6-1.9,1.2-2.8,1.8c-1.5,1.2-2.3,3.1-2.2,5c0.1,2.6-0.3,3.1-2.7,4c-1.3,0.5-2.6,1-4.2,1.6
		c-0.3-0.9-0.6-1.6,0-2.4c0.1-0.1,0.1-0.2,0.2-0.3l0.1-0.1c3.4-0.7,4.8-2.1,5.2-5c0.4-3.6,1.6-4.7,5.1-4.7L199.2,181.8z"/>
	<path class="st16" d="M192.6,196.2c-2.3,2.7-2.2,4.6,0.1,7.1c0.4,0.4,0.8,0.8,1.2,1.2c0.7,0.6,0.7,1.7,0.1,2.3c0,0,0,0-0.1,0.1
		c-0.7,0.7-1.3,0.3-1.8-0.3c-0.4-0.3-0.8-0.5-1.3-0.6v3.1l-3.1-1.3c0.6-0.3,1.1-0.7,1.6-1.1c1.4-1.3,1.5-3.4,0.2-4.8
		c-0.2-0.3-0.5-0.5-0.8-0.6c-1.1-0.8-2-1.6-1.3-3.1C189.1,197.3,190.6,196.2,192.6,196.2z"/>
	<path class="st16" d="M236.3,185.1c-1.4,3.7-3.9,4.6-7,2.3c-1.1-0.8-2.1-1.7-3.2-2.5c-2.3-1.7-3.7-1.6-6,0.3
		c-0.2,0.1-0.4,0.2-0.6,0.3c0-1.9,1.6-3.4,3.5-3.4c0.5,0,0.9,0.1,1.3,0.3c1.9,0.7,3.6,1.6,5.4,2.4c0.1,0.3,0.2,0.8,0.4,0.9
		C232.3,186.7,234.3,186.3,236.3,185.1z"/>
	<path class="st14" d="M212.1,257.3c1.2,0.4,2.3,0.7,2.3,2.1c0.1,5.5-0.7,10.9-2.2,16.2c-0.1,0.2-0.2,0.4-0.5,1
		C211.8,270,212,263.7,212.1,257.3z"/>
	<path class="st4" d="M215.8,198.2c0.7-0.8,1.3-1.5,2-2.3c2-2.2,4.8-3.5,7.8-3.6c0.8-0.1,1.4,0,1.4,1.1l-1.1,1.4
		c-3.6,0.3-6.8,2.1-9,4.9c-0.5-0.3-1-0.7-1.5-1L215.8,198.2z"/>
	<path class="st18" d="M225.9,194.7l1.1-1.4l0.8-0.2c0.3,1.1,0.4,2.3,0.4,3.4c-0.2,1.3,0.4,2.7,1.5,3.4c1.6,1.2,3.1,2.5,4.9,4
		l-2.4,2.2c0.2-1.1-0.3-2.3-1.3-2.9c-2.2-1.4-4-3.1-4.2-5.9c0-0.1-0.2-0.2-0.4-0.3c-0.1-0.5-0.2-1-0.3-1.4L225.9,194.7z"/>
	<path class="st16" d="M194.3,217c-3.9-0.4-5.3-0.9-7.6-2.9c2.6,0.2,3.7-1.5,4.6-3.3l5,2.5c-0.7,0.2-1.4,0.4-2.1,0.5
		c-0.6,0-1.3,0-1.9-0.1l-0.3,0.5C192.8,215.1,193.4,216,194.3,217z"/>
	<path class="st18" d="M199.2,181.8H198c-3.5,0-4.7,1.1-5.1,4.7c-0.3,2.8-1.8,4.2-5.2,5c0.7-0.6,1.4-1.1,2-1.7
		c1.4-1.3,2.4-2.7,2-4.8c-0.5-2.6,0-3.6,2.5-4.2c1.6-0.3,3.3-0.4,5-0.3c0.5,0,1,0.6,1.9,1.1L199.2,181.8z"/>
	<path class="st14" d="M203.8,230.9c-4-0.3-5.8-3.3-7.4-6.4c-0.2-0.5-0.2-1.1,0-1.6c0.5-0.9,1.1-1.8,1.7-2.6c0.4,1,0.6,1.6,0.9,2.2
		c-0.8,0.7-0.2,1.3,0.2,1.8L203.8,230.9z"/>
	<path class="st16" d="M223.2,179.5c-2.3,1-4.5,2-5.5,4.5c-2.7-2-3.1-2.9-2.2-5c0.2-0.2,0.3-0.4,0.5-0.6l0,0
		C218.3,178.5,220.9,178.2,223.2,179.5z"/>
	<path class="st17" d="M267.7,275c-1.4-2.4-3.1-4.5-5.1-6.4c-1.2-1.4-2.8-2.4-4.5-2.8c0.1-0.2,0.1-0.3,0.2-0.5l0.3-0.4l1.4-1.3
		c1.1,1.1,2.1,2.2,3.1,3.3c1.6,1.8,3.2,3.7,4.9,5.5C268.8,273.4,268.8,274.2,267.7,275z"/>
	<path class="st18" d="M274,291.7c0.7-0.9,0.3-1.8,0.1-2.7c-0.9-4.2-2.8-8-4.6-11.9l1-1.6c1.1,2.8,2,5.1,2.9,7.5
		c0.3,1.1,0.7,2.1,1.1,3.1c1,2,1.1,4.3,0.3,6.4h-0.7L274,291.7z"/>
	<path class="st16" d="M198.7,186.6c-0.5,2.3,0.1,4.7,1.7,6.4c-1.7,2.2-4.2,1.6-6.2,2.3c0.3-0.5,0.7-1,1-1.5l0.4-0.6v0.1
		c1.9-1,1.5-3,1.9-4.6C197.8,187.9,197.7,187,198.7,186.6z"/>
	<path class="st16" d="M200.4,211.4l3.3,1.7c-1.4,2.8-2.6,3.3-6.7,2.4L200.4,211.4z"/>
	<path class="st17" d="M203.8,230.9l-4.6-6.5c-0.4-0.6-1-1.1-0.2-1.8c2.3,4.6,6.4,7.3,10.6,10l-0.3,0.5L203.8,230.9z"/>
	<path class="st8" d="M263.4,327.3l-6.4-0.8c1.8-1.3,3.8-2.4,5.9-3.2L263.4,327.3z"/>
	<path class="st13" d="M205.6,180.4c-4.8-0.2-6.4-2.3-4.7-6.2C201.5,176.9,203.4,178.4,205.6,180.4z"/>
	<path class="st11" d="M198.7,186.6c-1,0.4-0.9,1.3-1.1,2.1c-0.4,1.6-0.1,3.6-1.9,4.6c0.2-1.6,0.4-3.1,0.6-4.7
		c0.2-1.8,1.2-3.1,3.7-4.5L198.7,186.6z"/>
	<path class="st18" d="M236.3,185.1c-2,1.2-4,1.6-6.1,0.5c-0.2-0.1-0.3-0.6-0.4-0.9c0.4,0.1,0.9,0.3,1.4,0.4
		c1.5,0.5,3.1-0.3,3.7-1.7c0.3-0.5,0.5-1,0.9-1.7C236.3,182.9,236.7,183.9,236.3,185.1z"/>
	<path class="st19" d="M226.8,191.9c-1.3,0.2-2.1-0.7-3-1.4c-0.7-0.5-1.4-1-2-1.5c0.1-0.7,0.1-1.3,0.2-2l0.3-0.4
		C224.1,188,225.7,189.8,226.8,191.9z"/>
	<path class="st17" d="M212.6,182.8c-3.3-0.2-6.7,0.5-9.6,1.9c0.9-0.8,1.8-1.5,2.7-2.2C207.7,181,210.6,181.1,212.6,182.8z"/>
	<path class="st16" d="M214.6,176.6c-0.5,1.3-1.1,2.6-1.7,4.1l-2.7-0.9l0.4-1.3l0.9-1.5l0,0L214.6,176.6z"/>
	<path class="st11" d="M229.4,190.8c3.4,0.7,3.9,2.7,1.5,5.5C230.1,194.5,231.4,192.2,229.4,190.8z"/>
	<path class="st17" d="M195.3,193.8c-0.3,0.5-0.7,1-1,1.5l-1.7,0.9c-2-0.1-3.5,1.1-5.1,1.9c0.3-1.1,1.2-2,2.4-2.4
		c1.6-0.7,3.3-1.3,5-2L195.3,193.8L195.3,193.8z"/>
	<path class="st18" d="M223.2,179.5c-2.3-1.3-4.8-1-7.3-1c2.1-2,6.2-1.6,7.6,0.7C223.4,179.3,223.3,179.4,223.2,179.5z"/>
	<path class="st15" d="M263.4,327.3l-0.5-4l1.3-1c0.4,1.5,0.7,2.8,1,4C265.3,327.5,264.8,327.6,263.4,327.3z"/>
	<path class="st16" d="M209.1,176.5l-0.9,2.9c-1.1-0.4-2-0.7-2.2-1.9L209.1,176.5z"/>
	<path class="st17" d="M217.8,187.5l-4.7-1.7c2.2-0.5,4.3-0.5,6.1,1.8L217.8,187.5z"/>
	<path class="st17" d="M214.6,176.6l-3.1,0.4c0.9-1.8,2.5-1.9,4.8-1.8L214.6,176.6z"/>
	<path class="st17" d="M209.1,176.5l-3.2,1c0.6-1.5,1.8-2,3.6-1.9L209.1,176.5z"/>
	<path class="st14" d="M267.3,292.7h0.8v4.3h-0.3L267.3,292.7z"/>
	<path class="st13" d="M185.6,322.9c0.1,1.2-0.3,2-1.7,1.9L185.6,322.9z"/>
	<path class="st13" d="M281.4,339.7c-1.1,0.1-2.1-0.5-2.7-1.5L281.4,339.7z"/>
	<path class="st17" d="M211.6,177l-0.9,1.5L211.6,177z"/>
	<path class="st11" d="M274.1,292.6h0.7l-0.5,0.8L274.1,292.6z"/>
	<path class="st13" d="M232.6,313.3c-0.1-0.3-0.3-0.6-0.4-1C232.4,312.6,232.5,312.9,232.6,313.3z"/>
	<path class="st20" d="M186.1,208.9l0.5,0.8l-1.2-0.4L186.1,208.9z"/>
	<path class="st13" d="M206.4,106.1c-0.5-0.7,0.1-0.5,0.4-0.5L206.4,106.1z"/>
	<path class="st13" d="M221.2,364.1l-0.7,1L221.2,364.1z"/>
	<path class="st11" d="M195.3,193.8h-0.4l0.9-0.6L195.3,193.8z"/>
	<path class="st17" d="M213.3,183.3l-0.7-0.5L213.3,183.3z"/>
	<path class="st13" d="M221.6,363.6l-0.5,0.5L221.6,363.6z"/>
	<path class="st13" d="M186.1,322.4l-0.5,0.5L186.1,322.4z"/>
	<path class="st17" d="M202.5,185.2l-0.4,0.5L202.5,185.2z"/>
	<path class="st13" d="M198.9,270.5c-0.1-0.2-0.2-0.3-0.3-0.5C198.7,270.2,198.8,270.4,198.9,270.5z"/>
	<path class="st18" d="M215.9,178.4c-0.1,0.2-0.3,0.4-0.5,0.6C215.6,178.8,215.7,178.6,215.9,178.4z"/>
	<path class="st18" d="M187.6,191.6c-0.1,0.1-0.2,0.1-0.2,0.3C187.4,191.7,187.5,191.6,187.6,191.6z"/>
	<path class="st6" d="M286.8,345l-0.4-0.5C286.5,344.6,286.7,344.8,286.8,345z"/>
	<path class="st17" d="M203,184.7l-0.5,0.5L203,184.7z"/>
	<path class="st14" d="M268.1,289.8l-0.3-0.6L268.1,289.8z"/>
	<path class="st14" d="M258.6,264.9l-0.3,0.4L258.6,264.9z"/>
	<path class="st11" d="M222.1,186.7l-0.3,0.4L222.1,186.7z"/>
	<path class="st21" d="M347.8,229.6l0.4-0.3l0.5,1.9c2.7,11,7.9,21.3,15.1,30.1c4.3,5.6,9.4,10.5,15.1,14.6c0.2,0.2,0.4,0.4,0.6,0.6
		c-2,1.1-3.9,2.1-5.8,3.3c-7.2,4.4-13.3,10.3-18,17.3c-3.7,5.4-5.8,11.5-7.9,17.6c-0.1,0.4-0.3,0.7-0.5,1.1c-0.3-3.5-0.6-7-1-10.4
		c-0.5-4.4-1.5-8.6-3-12.7c-2.5-6.5-5.9-12.4-11.1-17.1c-0.9-0.9-1.8-1.8-2.6-2.6l7-6.8c2.7-2.6,4.9-5.7,6.4-9.1
		c2.7-6.5,4.3-13.4,4.6-20.4C347.9,234.3,347.8,232,347.8,229.6z"/>
	<path class="st19" d="M347.8,229.6c0,2.3,0.1,4.6,0,6.9c-0.3,7-1.9,13.9-4.6,20.4c-1.5,3.4-3.7,6.5-6.4,9.1l-7,6.8
		c0.8,0.9,1.7,1.8,2.6,2.6c5.2,4.8,8.5,10.7,11.1,17.1c1.5,4.1,2.5,8.4,3,12.7c0.4,3.5,0.7,7,1,10.4c-0.1,0.4-0.1,0.7-0.2,1.1h-0.3
		c-0.7-2.4-1.4-4.8-2.2-7.2c-3.1-9.3-7.6-18.1-13.4-26.1c-3.4-4.7-7.8-8.5-12.8-11.3c-0.4-0.2-0.7-0.5-1.4-1c5.2-1.4,9-4.4,12.8-7.4
		c8.5-6.7,14.4-16.2,16.7-26.9c0.4-1.9,0.6-3.9,0.9-5.9C347.5,230.7,347.7,230.2,347.8,229.6z"/>
	<path class="st22" d="M257.1,103.5l0.5-3.5l0.5-0.1c0.6,2.2,1.4,4.4,1.9,6.7c2.1,8.7,6.3,16.6,12.3,23.2c2.3,2.5,5,4.7,8,6.4
		c0.7,0.4,1.3,0.9,2.1,1.4c-13.2,6.4-19.8,17.4-23,31.1c-0.7-0.6-1.1-1.6-0.9-2.6c-0.1-5.3-1.6-10.3-3.1-15.3
		c-1.7-5.3-5.7-8.9-9.3-12.5c1.9-2.1,3.7-3.8,5.3-5.7c2.9-3.8,4-8.3,4.7-12.9C257,114.5,257.4,109,257.1,103.5z"/>
	<path class="st19" d="M257.1,103.5c0.3,5.5-0.1,11-1,16.4c-0.8,4.6-1.8,9.1-4.7,12.9c-1.5,1.9-3.3,3.6-5.3,5.7
		c3.6,3.6,7.6,7.2,9.3,12.5c1.6,5,3,10,3.1,15.3c-0.7-1.8-1.3-3.6-2-5.3c-2-5.3-4.5-10.2-8.6-14.2c-2.8-2.8-6-5.1-9.5-6.8
		c-1.1-0.5-2.1-1-3.1-1.6c1.9-1.1,3.8-2.1,5.6-3.4c5.2-3.9,9.1-9.2,11.4-15.3c1.9-4.9,3.4-9.9,4.4-15.1
		C256.8,104.2,257,103.9,257.1,103.5z"/>
	<path class="st22" d="M94.5,67.2c-1.5-3.7-3.3-7.3-6.5-9.8c-2.2-1.8-4.5-3.3-7-5c6.9-4.4,10.5-11,12.4-19c0,0.3,0.1,0.6,0.2,0.9
		c-0.3,4,1.2,7.5,3.1,10.8c1.3,2.3,2.7,4.6,4.1,6.8C96.9,56.1,94.7,61.5,94.5,67.2z"/>
	<path class="st19" d="M94.5,67.2c0.2-5.7,2.4-11,6.2-15.3c-1.3-2.2-2.8-4.5-4.1-6.8c-1.8-3.4-3.4-6.8-3.1-10.8
		c1.4,2.6,2.7,5.2,4.1,7.8c2.1,4.4,5.8,8,10.3,10c-1.5,0.9-2.9,1.6-4.1,2.6c-3.9,2.9-6.3,6.9-8.3,11.2c-0.2,0.5-0.4,1-0.7,1.5
		c0,0-0.1,0.1-0.2,0S94.5,67.2,94.5,67.2z"/>
	<path class="st22" d="M412.6,319.7c0,0.4-0.1,0.8-0.2,1.4c-1.6-2.8-3.4-5.5-5.3-8.1c-2.2-2.4-4.5-4.6-7-6.7
		c6.1-3.3,9.7-8.8,12.2-15.5c0.2,0.7,0.5,1.3,0.7,2l0.5,1.2l0,0c0.4,3.3,1.9,6.3,4.1,8.6c2.3,2.5,1.6,2.3,0.2,4.5
		c-0.1,0.2-0.3,0.4-0.5,0.5c-2.3,3.1-4.3,6.3-4.3,10.4v0L412.6,319.7z"/>
	<path class="st18" d="M413.1,318.1c0-4,2-7.3,4.3-10.4c0.1-0.2,0.3-0.3,0.5-0.5c1.4-2.3,2.1-2-0.2-4.5c-2.3-2.4-3.7-5.4-4.1-8.6
		c1.1,1.6,2.1,3.4,3.3,4.9c0.9,1.3,2,2.5,3.1,3.6c1.1,1,2.4,1.9,3.7,3l-2,1.4c-2.9,2-5.2,4.7-6.7,7.9
		C414.4,316,413.7,317,413.1,318.1z"/>
	<path class="st18" d="M412.6,319.7l0.5-1.6L412.6,319.7z"/>
	<path class="st18" d="M413.6,294.1l-0.5-1.2L413.6,294.1z"/>
	<path class="st23" d="M120,299c-4.8,1.6-9.6,3.3-14.4,4.9c-3.9,1.3-7.9,2.6-11.8,3.8c-0.8,0.2-1.6,0.3-2.4,0.3
		c0.1-1.6,1.3-1.5,2.1-1.8c7.1-2.5,14.2-4.7,21.3-7.3c5.2-1.9,10.1-4.2,15.2-6.4c0.9-0.5,1.8-1,2.6-1.6c4-2.2,8.2-4.3,12.1-6.8
		c8.4-5.3,16.6-10.9,24.8-16.3c1.3-0.8,2.5-1.6,3.8-2.5c1,1.1,0.2,1.6-0.4,2c-2.5,1.8-5.1,3.6-7.6,5.4c-10.6,7.4-21.6,14.3-33,20.5
		c-3.5,1.9-7.2,3.4-10.8,5.1l-1,0.5C120.2,298.9,120.1,298.9,120,299z"/>
	<path class="st23" d="M196.2,290.3c-0.1,0.7-0.4,1.3-0.7,1.9c-5,7.4-10.4,14.5-16.1,21.3c-4.3,4.9-8.7,9.8-13.1,14.6
		c-3.6,3.9-7.2,7.7-11,11.3s-8.1,7.2-12.2,10.8c-0.8,0.5-1.6,1-2.4,1.4c0-1.6,1-2.1,1.7-2.7c2.4-2.3,4.9-4.6,7.3-6.8
		c4.3-4,8.6-8,12.8-12.2c3.5-3.5,6.7-7.2,10.1-10.9c6.9-7.7,13.3-15.7,19.2-24.1c0.9-1.2,1.8-2.4,2.7-3.7
		C194.9,290.6,195.4,290.1,196.2,290.3z"/>
	<path class="st23" d="M140.5,341.5c-2.4,1.3-4.6,2.8-7.1,3.9c-3.4,1.5-6.9,2.8-10.4,4.1c-0.9,0.2-1.9,0.3-2.9,0.2l-0.1-0.6
		c0.7-0.3,1.3-0.6,2-0.8c5.5-1.6,10.8-4,15.6-7.1c0.4-0.3,0.7-0.6,1.1-0.9l0,0l2.4-1.5c4.1-3.1,8.3-6.2,12.4-9.3
		c1.2-0.9,2.4-1.9,3.5-2.8c1.1,0.6,0.9,1.2,0.2,1.7c-3.5,2.8-6.9,5.6-10.4,8.4C144.8,338.4,142.6,339.9,140.5,341.5z"/>
	<path class="st23" d="M111.8,294.7c-7,2.8-14,5.7-21.3,7.7c-2.6,0.7-5.3,1.2-7.9,1.7c-0.8,0.1-1.7,0-2.5-0.1
		c0.7-1.5,1.8-1.4,2.7-1.6c2.9-0.8,6-1.2,8.8-2.1c5.6-1.8,11.1-3.9,16.7-5.9c0.4-0.2,0.8-0.4,1.2-0.7c1.1-0.4,2.2-0.8,3.3-1.3
		c0.7-0.3,1.4-0.5,1.8,0.7L111.8,294.7z"/>
	<path class="st23" d="M115.2,307.1c-4,1.2-7.9,2.5-11.9,3.6c-0.9,0.3-1.9,0.9-3,0.2c0.4-1,1.3-1,2-1.3c3.2-1.1,6.4-2.1,9.5-3.2
		c0.7-0.2,1.3-0.6,1.9-0.9c1.6-0.6,3.1-1.1,4.7-1.7c0.7-0.3,1.3-0.6,1.9,0.4C118.8,305.9,116.7,306,115.2,307.1z"/>
	<path class="st23" d="M145.7,279.6c-5.6,3.3-10.4,7.5-16.5,9.8c0.2-0.4,0.5-0.7,0.8-1c4.6-3.1,9.2-6.2,13.8-9.3
		C144.6,278.5,144.6,278.6,145.7,279.6z"/>
	<path class="st6" d="M141.1,338.7l-2.4,1.5C138.9,338.8,140,338.8,141.1,338.7z"/>
	<path class="st6" d="M120.4,298.9l1-0.5L120.4,298.9z"/>
	<path class="st23" d="M174.2,172.7c-0.6,1.1-1.3,0.6-2,0.3l-5.2-2.4c-6.5-2.9-13.4-4.9-20.4-6c-1.1-0.2-2.2-0.4-3.3-0.6
		c-0.8-0.2-0.8-0.7-0.3-1.3c4.4,0.3,8.8,1.1,13.1,2.3c5.5,1.5,10.9,3.5,16,6.2C172.8,171.7,173.5,172.2,174.2,172.7z"/>
	<path class="st23" d="M103.7,133.9l-14.4,3c-1.3,0.3-2.6,0.6-3.9,0.9l-0.3-0.5c0.4-0.3,0.7-0.8,1.1-0.9c2.4-0.7,4.9-1.5,7.3-2
		c4.7-1.1,9.3-2,14-3l1-0.1l1.4-0.3c1.7-0.2,3.3-0.5,4.9-0.7c0.6,0,1.1,0.1,1.7,0.2c-0.2,1.5-1.1,1.2-1.9,1.4L103.7,133.9z"/>
	<path class="st23" d="M147.2,133.3c-0.7,0.4-0.9,0.6-1,0.6c-5.8-0.4-11.5-0.7-17.3-1.1c-0.4-0.1-0.8-0.2-1.1-0.4
		c1.1-1,4.5-1.2,11.5-0.6C141.8,131.9,144.5,131.8,147.2,133.3z"/>
	<path class="st6" d="M109.9,131l-1.4,0.3L109.9,131z"/>
	<path class="st23" d="M130.3,355.6c-3.2,3.3-16.4,4.3-21.1,1.7c0.7-0.2,1.3-0.3,2-0.4c2.7,0,5.4,0.2,8.1,0c3.1-0.2,6.1-0.8,9.2-1.2
		C128.9,355.7,129.4,355.7,130.3,355.6z"/>
	<path class="st23" d="M109.6,351.7c-2.2,1.5-7.8-0.1-9.7-2.7c0.4-0.1,0.8-0.3,1.1-0.2C103.8,349.8,106.6,350.7,109.6,351.7z"/>
	<path class="st23" d="M249.9,404.4c-1.9,3.5-3.7,7-5.8,10.4c-1.5,2.4-3.3,4.5-5,6.6c-0.3,0.3-0.6,0.6-1,0.8c-0.4-0.9-0.2-2,0.5-2.8
		c1-1.4,2.1-2.8,3.1-4.2c4-5.4,6.7-11.5,9.2-17.7c0.4-0.9,0.6-1.8,0.9-2.7l3.2-8.5c0.3-0.9,0.6-1.8,2.2-1.3l-6.1,16.1L249.9,404.4z"
		/>
	<path class="st23" d="M287.5,349.9c1,0,1.3,0.7,1.3,1.6c0.1,5-0.2,10-0.7,15c-0.6,5.5-1.6,11-3.1,16.3c-0.7,2.6-1.6,5.2-2.5,7.7
		c-0.3,0.7-0.8,1.4-1.3,2c0-0.9,0.1-1.7,0.2-2.6c1.2-4.9,2.7-9.7,3.6-14.6c0.8-4.5,1.4-9.1,1.8-13.7
		C287.3,357.7,287.3,353.8,287.5,349.9z"/>
	<path class="st23" d="M276.3,403.1c-0.5,1.7-1.2,3.3-2,4.8c-2.3,3.8-4.9,7.5-7.3,11.2c-0.5,0.6-1,1.1-1.6,1.6
		c-0.7-1.1,0-1.6,0.4-2.1c1.3-2.2,2.7-4.3,4.1-6.5c1.6-2.6,3.2-5.2,4.8-7.9C275,403.6,275.3,402.8,276.3,403.1z"/>
	<path class="st23" d="M252.3,404.9l-2.9,4.9c-0.7-1.3-0.1-2,0.2-2.7s0.6-1.5,0.9-2.2l5.4-12.7c1.1,0.6,0.8,1.3,0.6,2
		c-1,2.7-2.1,5.5-3.2,8.2C252.9,403.3,252.6,404.1,252.3,404.9z"/>
	<path class="st23" d="M201.5,368.5c-0.3,1-0.7,1.9-1.2,2.7c-4.4,5.5-8.6,11-13.8,15.8c-1.6,1.5-3.3,2.7-5,4
		c-0.6,0.3-1.2,0.5-1.8,0.6c0.3-0.6,0.7-1.1,1.1-1.7c1.8-1.7,3.7-3.5,5.6-5.2c3.5-3.8,6.9-7.6,10.4-11.4c1-1.1,1.8-2.4,2.8-3.5
		C200.1,369.4,200.8,368.9,201.5,368.5z"/>
	<path class="st23" d="M133.8,216c-0.5,1.5-2,1.1-3,1.3c-4.6,0.7-9.3,1.2-13.9,1.9c-6.9,1.2-13.7,3.2-20.1,6.1
		c-9.5,4.3-18.6,9.2-27.5,14.6c-2.1,1.3-4.1,2.8-6.1,4.1c-0.6,0.3-1.2,0.6-1.8,0.9c0.2-1.3,0.9-2.5,2-3.2c3.3-2.1,6.5-4.3,9.9-6.3
		c4.5-2.6,9-5,13.6-7.6c5.8-2.7,11.5-5.5,17.6-7.4c5.7-1.8,11.5-3.1,17.5-3.8c3.3-0.4,6.6-0.8,10-1.1
		C132.6,215.7,133.2,215.8,133.8,216z"/>
	<path class="st23" d="M97.3,205c0.7-0.4,1.4-0.7,2.1-1c5.1-1.8,10.4-2.9,15.8-3.4c6.1-0.6,12.2-1.3,18.3-1.9c0.9-0.1,2-0.4,2.6,0.7
		c-0.1,0.3-0.1,0.4-0.2,0.4c-0.3,0.1-0.6,0.2-0.9,0.3c-12.5,1.2-25,2.4-37.2,5.4C97.8,205.5,97.7,205.3,97.3,205z"/>
	<path class="st23" d="M89.3,212.6c-3.7,0.4-7,1.9-10.4,3.3c-2.3,0.9-4.5,2-6.8,2.9c-0.8,0.3-1.6,0.5-2.4,0.7c0.1-1.4,1-1.6,1.7-2
		c5.2-2.8,10.7-4.9,16.4-6.3c1.8-0.4,3.5-0.9,5.2-1.4l1.4-0.2l1-0.3c2.7-0.4,5.3-0.9,8-1.3c1.1-0.1,2.2-0.1,3.3-0.2
		c0.2,1.3-0.7,1.3-1.3,1.4c-4.2,0.8-8.4,1.6-12.6,2.4C91.7,211.8,90.5,212.2,89.3,212.6z"/>
	<path class="st23" d="M155.7,201.4c3-1.1,5.9-0.1,8.9,0.2c1,0.1,2.2,0.1,3,1.7C163.5,203.3,159.5,202.7,155.7,201.4z"/>
	<path class="st23" d="M160.3,215.9l-14.4-0.5c0.6-0.3,1.1-0.9,1.7-0.9c3.5-0.1,7.1-0.1,10.6,0C159.2,214.5,160.2,214.6,160.3,215.9
		z"/>
	<path class="st7" d="M95.5,209.2l-1,0.3L95.5,209.2z"/>
	<path class="st23" d="M355.5,354.5c0.8-0.1,1.4,0,1.5,1c0.2,1.4,0.6,2.8,0.7,4.2c0.8,5.9,1.1,11.9,1,17.9c-0.1,1.1-0.3,2.2-0.6,3.3
		c0,0.2-0.5,0.3-0.8,0.4c0-0.9-0.1-1.7-0.1-2.6c0-7.5-0.5-15.1-1.8-22.5C355.5,355.6,355.5,355.1,355.5,354.5z"/>
	<path class="st23" d="M354.5,394c-0.2,0.8-0.4,1.5-0.7,2.3c-1.4,3.4-3.4,6.5-5.8,9.3c-0.8,0.9-1.8,1.8-2.9,2.9l-0.6-1.5
		c3.4-3.4,6.1-7.4,8.1-11.7C353.1,394.4,353.2,393.3,354.5,394z"/>
	<path class="st23" d="M341.8,406.4c1-2.7,2.7-5.1,4.8-6.9C346.3,402.6,344.1,404.5,341.8,406.4z"/>
	<path class="st23" d="M168.1,91.1c-0.8,0.9-1.8,0.6-2.7,0.4c-6.4-1.7-12.9-2.7-19.5-3.1c-6.6-0.4-13.2-0.4-19.8,0
		c-3.4,0.2-6.8,1.4-10.3,2c-0.9,0.2-1.9,1-3.1-0.2c0.9-0.5,1.9-1,2.8-1.4c3.4-1.2,6.9-1.9,10.5-2.1l7.9-0.5l7.6,0.2
		c8.1,0.3,16.1,1.5,24,3.4C166.4,90.3,167.3,90.6,168.1,91.1z"/>
	<path class="st23" d="M196.7,106.5c-0.8-0.1-1.5-0.4-2.2-0.8c-5.4-3.9-11.1-7.2-17.1-10.1c-0.5-0.3-0.9-0.5-1.4-0.8l1-0.5
		c4.3,1.2,8.1,3.5,11.9,5.8c2,1.2,3.9,2.5,5.7,3.8C195.6,104.6,196.6,105.2,196.7,106.5z"/>
	<path class="st23" d="M119.7,164c-1.3,0.3-2.6,0.4-3.9,0.5c-12.6,0-24.8,2.1-36.9,5.4c-0.9,0.2-1.9,0.3-2.9,0.3
		c6.5-4.6,35-8.5,43.6-6.8L119.7,164z"/>
	<path class="st23" d="M90.8,127.9c3.3-1.6,9.6-2.6,12.1-1.8c-2.8,1.3-5.6,1.4-8.3,1.9S92,128.4,90.8,127.9z"/>
	<path class="st23" d="M130,163.9c-0.3,0.2-0.7,0.6-1,0.6c-1,0-2.2,0.4-3.1-0.6c1.3-1.1,2.6-0.6,3.9-0.5L130,163.9z"/>
	<path class="st23" d="M230.3,330.7c1.4,0.6,0.9,1.4,0.5,2.1c-1.5,2.7-2.9,5.5-4.6,8.1c-7.2,10.8-14.5,21.6-21.9,32.3
		c-1.4,1.9-3,3.7-4.7,5.4c-0.5,0.4-1.1,0.8-1.6,1.2c-0.2-1,0.2-2,0.9-2.6c5.6-6.1,10-13.2,14.6-20.1c4.9-7.3,9.6-14.7,14.4-22
		C228.8,333.6,229.6,332.2,230.3,330.7z"/>
	<path class="st23" d="M181.4,393.7c2-2.4,7.2-5.7,8.8-5.8C189.3,390,184.2,393.5,181.4,393.7z"/>
	<path class="st23" d="M218.8,68.1c-1,0.3-1.4-0.4-1.8-1.2c-1.9-4-4.4-7.8-7.3-11.1c-2.1-2.5-4.5-4.7-6.7-7.1
		c-0.6-0.6-1.1-1.3-1.5-2c2,0.1,3,1.7,4.4,2.7c5.3,4.8,9.5,10.5,12.5,17C218.5,66.9,218.7,67.5,218.8,68.1z"/>
	<path class="st23" d="M223.1,79.6c-0.4-0.1-1.1-0.2-1.2-0.4c-0.6-1.9-1.1-3.8-1.5-5.7c0-0.2,0.2-0.4,0.4-0.6
		C222.3,74.8,223.2,77.1,223.1,79.6z"/>
	<path class="st23" d="M384.8,364.1c-0.5,1.6-1,3.1-1.5,4.7c-2.1,7.4-5.3,14.4-9.6,20.7c-0.5,0.8-1.1,1.6-1.7,2.3
		c-0.3,0.3-0.7,0.5-1.1,0.6c-1-1.1,0.3-1.7,0.3-2.4c3.7-4.3,6.1-9.3,8.2-14.5c2.3-5.5,3.8-11.2,4.7-17c0.3-1.8,0.4-3.6,0.7-5.4
		c1.6-0.1,1.4,0.9,1.3,1.7c-0.3,2.5-0.6,4.9-0.9,7.3l-0.3,1C384.9,363.5,384.8,363.8,384.8,364.1z"/>
	<path class="st23" d="M392.1,345.9c-0.2,7-1.2,13.9-3,20.6c-0.4,1.6-0.8,3.4-2.3,4.8c-0.2-0.6-0.4-1-0.6-1.4c2.2-5,3-10.4,3.8-15.8
		c0.4-3.1,0.7-6.2,1.1-9.8L392.1,345.9z"/>
	<path class="st23" d="M375.9,374.5c1.6-3.8,3-7.1,4.5-10.5c0.1-0.3,0.5-0.5,0.9-0.9c0.8,1.6-0.1,2.8-0.5,3.9
		C379.3,371.3,377.9,373.4,375.9,374.5z"/>
	<path class="st12" d="M384.9,363.2l0.3-1C386,362.8,385.5,363,384.9,363.2z"/>
	<path class="st4" d="M226,195.7c0.1,0.5,0.2,1,0.3,1.4l-1.1,0.7c0.3,0.7,0.5,1.4,0.7,2.2c0.3,1.5-0.1,2.2-1.6,2.9
		c-0.4-0.6-0.8-1.2-1.2-1.8l1.7,0.9c0.5-1.4,0.2-2.4-1.1-3.6c-0.2,1.1-0.4,1.9-0.5,2.7l-1-0.9l-1.7,3.1c-0.8-0.7-1-1.9-0.3-2.7
		C221.2,198.2,223.4,196.4,226,195.7z"/>
	<path class="st4" d="M206.1,207.1l-1.8-1.5l-1.4,1c-0.9-0.9-0.3-1.7-0.1-2.5l-2.7-0.9c1.3-1.6,2.4-1.1,3.6-0.6
		C205.4,203.3,206.5,205.2,206.1,207.1z"/>
	<path class="st17" d="M220.4,203.4l1.7-3.1l1,0.9l0,0c0.4,0.6,0.8,1.2,1.2,1.8L220.4,203.4z"/>
	<path class="st4" d="M260.4,276.4c0,1.3-0.7,2-1.8,2c-1.4-0.2-2.4-1.3-2.5-2.7c-0.1-1.1,0.7-2.1,1.8-2.1c0.1,0,0.1,0,0.2,0
		C259.5,273.8,260.4,275,260.4,276.4z M258.2,275.4l-0.5,0.4c0.3,0.3,0.6,0.5,0.9,0.8c0,0,0.3-0.2,0.3-0.3
		C258.6,276,258.4,275.7,258.2,275.4L258.2,275.4z"/>
	<path class="st15" d="M223.1,201.1c0.1-0.8,0.3-1.6,0.5-2.7c1.3,1.2,1.6,2.2,1.1,3.6L223.1,201.1L223.1,201.1z"/>
	<path class="st8" d="M258.2,275.4c0.2,0.3,0.5,0.6,0.7,1c0,0-0.3,0.3-0.3,0.3c-0.3-0.2-0.6-0.5-0.9-0.8L258.2,275.4z"/>
</g>
</svg>
