<?xml version="1.0" encoding="utf-8"?>
<!-- Generator: Adobe Illustrator 24.1.2, SVG Export Plug-In . SVG Version: 6.00 Build 0)  -->
<svg version="1.1" xmlns="http://www.w3.org/2000/svg" xmlns:xlink="http://www.w3.org/1999/xlink" x="0px" y="0px"
	 viewBox="0 0 491.8 491.8" style="enable-background:new 0 0 491.8 491.8;" xml:space="preserve">
<style type="text/css">
	.st0{fill:#462537;}
	.st1{fill:#160C2E;}
	.st2{fill:#180D2E;}
	.st3{fill:#190F2F;}
	.st4{fill:#190F30;}
	.st5{fill:#CECFF3;}
	.st6{fill:#DD8BC5;}
	.st7{fill:#9F93ED;}
	.st8{fill:#9F93EC;}
	.st9{fill:#CDCDF1;}
	.st10{fill:#CBCCF0;}
	.st11{fill:#CDCEF2;}
	.st12{fill:#A094EE;}
	.st13{fill:#9B90E8;}
	.st14{fill:#371A36;}
	.st15{fill:#9E92EB;}
	.st16{fill:#D1E3FA;}
	.st17{fill:#D3E5FD;}
	.st18{fill:#D3E0F8;}
	.st19{fill:#DC8BC5;}
	.st20{fill:#B79194;}
	.st21{fill:#B9A9DC;}
	.st22{fill:#DB8AC4;}
	.st23{fill:#D8E8FF;}
	.st24{fill:#1F1336;}
</style>
<g id="Layer_1">
	<g>
		<path class="st0" d="M391.4,389c-6.2-4.9-13.2-8.7-20.8-11.2c-15.8-5.2-31.7-10.2-47.7-12.2c1.7-2,3.4-4.2,5.3-6.3
			c6.3-6.8,11.7-14.4,16.1-22.5c4.5-8.4,7.5-17.4,10.7-26.3c2.7-7.9,4.8-16,6.2-24.3c1.1-6.2,2-12.4,2.9-18.6
			c0.4-2.9,0.4-5.9,0.6-8.8c0.4-5.3,1-10.6,1.2-15.9c0.1-6.3-0.2-12.6-0.3-18.9c0-1.8,0-3.5-0.2-5.3c-0.7-7.2-1.4-14.4-3.4-21.4
			c-0.4-1.7-1.1-3.3-2-4.8c-1.6-2.3-3.8-4.2-6.3-5.5c-9.3-5.1-19.4-7.7-29.6-10c-6.6-1.5-13.3-2.5-20-3.7c-10-1.7-20.1-2.7-30.2-3.1
			c-4.8-0.2-9.6-0.5-14.4-0.6c-4.5-0.1-9.1-0.2-13.7-0.2c-4.4,0-8.8,0.3-13.2,0.4c-0.4,0-0.8,0-1.2-0.2c-1.5-0.5-2.3-2.2-1.8-3.6
			c0.4-1.8,1.7-3.3,3.5-4c6.5-2.4,13.4-3.6,20.4-3.5c3.9,0.1,7.8,0.4,11.7,1c10.6,1.4,21.1,3.1,31.8,3.7c8.7,0.4,16.9-1.2,24.1-6.3
			c5.5-3.9,9.3-9.1,10.1-15.9c0.6-4.8,0.4-9.6-0.7-14.3c-1.9-7.5-5.6-14.2-10-20.5c-1.9-2.7-4.1-5.1-6.6-7.2
			c-7.4-6.3-16.9-9.7-26.7-9.4c-15.1,0.1-29.1,8-37.1,20.9c-2.4,3.9-4.7,7.8-7.2,11.6c-1.9,3.2-4.8,5.6-8.3,6.9
			c-4.3,1.6-8.9,2-13.4,1.3c-6.8-1.1-13.6-2.3-20.5-3.3c-6.4-0.9-13,0-19,2.5c-7.9,3.2-12.7,9-14.9,16.9c-2.8,9.9-2,19.6,3.1,28.7
			c0.3,0.6,0.6,1.2,1,2l-1.8,0.5c-5.6,1.3-11.2,2.4-16.7,4.1c-6.9,2.1-13,5.7-19,9.6c-3.1,2-5.3,5.2-6,8.8
			c-1.7,7.7-2.6,15.6-2.7,23.6c0,3,0,5.9,0,8.8l1.9,1.9c-3.9,1.1,5.6,7.4,2.6,10.2c-10.7,10.8,0.4,15.9,0,31.1
			c0,4.2,2.6,12.9,3.2,17c0.4,3.7,2.4,10.5,3.1,14.2c2.8,12.6,2.6,14.1,10.7,24.1c4.9,6.1,1.3,9.2,8.8,11.9c5.1,1.8-3.5,4.1,1.8,5.5
			c3.4,0.7-1.9,7.4,1.6,7.2c0.8-0.1,1.5,0.1,2.2,0.5c2.3,2.5,4.5,5.1,6.8,7.8c-0.3,0.1-0.7,0.2-1,0.2c-4.4,0.3-8.8,0.3-13.1,0.8
			c-4.5,0.4-9,1.2-13.5,1.8c-10.8,1.6-21.3,5.1-31,10.3c-6.2,3.2-11.5,7.9-15.6,13.5c-3.2,4.4-4.7,9.8-4.4,15.2
			c0,0.7,0.2,1.4,0.4,2.1c1.4,4.4,2.9,8.8,4.3,13.2c0.1,0.5,0.4,1,0.8,1.4c1.7,1.5,3.6,2.9,5.5,4.2c5.3,3.1,10.9,5.6,16.8,7.5
			c11.9,4,24,7.8,36.3,10.4c9,1.9,18.2,3.2,27.3,4.8c11.2,2,22.5,3,33.9,4c7.6,0.7,15.3,1.1,22.9,1.4c8.7,0.3,17.4,0.4,26.1,0.5
			c2.7,0.1,5.4,0.1,8.2,0c4.7-0.2,9.3-0.5,14.1-0.7c4.8-0.2,9.6-0.2,14.3-0.6c6.2-0.5,12.3-1.3,18.5-2c3.8-0.5,7.6-0.9,11.3-1.6
			c6.1-1.3,12.1-2.8,18.2-4.2c9.8-2.2,19.3-5.7,28.7-9c5.5-1.9,10.7-4.7,15.3-8.3c0.7-0.4,1.2-1,1.7-1.6c2.9-5.3,5.9-10.7,6.5-16.8
			C400.9,401.6,398.2,394.5,391.4,389z"/>
		<path class="st0" d="M168.1,106.1c3.4,1.3,7.3,0.8,10.3-1.2c1.8-1.1,3.5-2.3,5.1-3.6c4.9-4.3,10.9-7.1,17.2-8.3
			c2.6-0.5,5.1-1.6,7.2-3.2c3.4-2.4,5.4-6.3,5.2-10.4c0.2-2.3-1.1-4.6-3.5-6.2c-1.4-0.8-2.8-1.6-4.3-2.2c-7.7-3.6-16.3-4.8-24.7-3.4
			c-10.4,1.9-18.4,7-22.5,17.2c-1.1,2.3-1.5,4.9-1.3,7.5C157.8,99.3,161.5,103.8,168.1,106.1z"/>
		<path class="st0" d="M355.2,325.5c0.2,1,1.2,1.8,2.3,1.7c1.7,0,3.1,1.1,4.3,2.3c3.9,3.6,5.9,8.2,7.1,13.3
			c1.6,7.1,1.3,14.4,2.3,21.5c0.1,1-0.2,2,1.2,2.9c0.3-1.3,0.6-2.3,0.8-3.4c0.7-4.2,1.3-8.3,2-12.5c0.6-4.4,1.8-8.7,3.7-12.8
			c2.8-5.8,6.8-10.4,13.6-11.5c0.3,0,0.6-0.1,0.7-0.4c0.3-0.4,0.1-0.9-0.2-1.2c-0.7-0.6-1.6-1.1-2.4-1.6
			c-6.9-3.9-11.2-9.5-12.2-17.5c-0.8-6.1-0.9-12.2-0.5-18.3c0.1-1.8,0.1-3.5,0.1-5.3c-0.1-1.7-0.5-1.8-2.3-1.2
			c-0.2,1.1-0.3,2.2-0.5,3.3c-1.1,5.8-2.1,11.6-3.4,17.3c-1.4,5.7-3.6,11.1-7.8,15.4C361.3,320.3,358.2,322.7,355.2,325.5z"/>
		<path class="st0" d="M99.3,144.5c3.8,5.1,5.3,11.1,5.8,17.4c0.3,2.9,0.9,5.8,1.4,8.7c0.2,0.6,0.5,1.3,0.8,1.8
			c2.1-0.4,1.8-1.9,2-3.1c0.6-3.3,1.1-6.6,1.5-9.9c1.6-11.8,10.1-18.7,19.5-19.5c1.2,0.1,2.3-0.7,2.7-1.8c-0.8-0.5-1.5-0.9-2.2-1.3
			c-2.3-1.2-4.5-2.3-6.8-3.4c-4.2-2-7.5-5.6-9.3-9.9c-1.9-4.7-2.9-9.8-2.9-14.9c0-1.5,0-3,0-4.5c-3.1-0.9-3.5-0.6-3.4,2.2
			c0,0.2,0,0.3,0,0.5c0.3,3.8,0,7.7-1,11.4c-1.9,7.6-6.1,13.2-14.2,15.2c-1.2,0.3-2.5,0.6-3.7,0.9c-0.5,0.1-1,0.4-2.2,0.8
			c1,0.9,1.5,1.8,2.2,2C93.9,138,96.8,141,99.3,144.5z"/>
		<path class="st0" d="M301,75.4c5.5,2.1,10.7,5,15.5,8.4c1.4,0.9,2.9,1.7,4.5,2.2c2.3,0.9,4.8,0,6.1-2c2.1-2.5,3.2-5.6,3.1-8.9
			c-0.1-1.2-0.3-2.5-0.7-3.7c-1.7-4.1-4.7-7.5-8.6-9.6c-4.5-2.5-9.4-4.1-14.5-4.6c-3.2-0.4-6.4,0.1-9.3,1.5
			c-3.5,1.8-4.8,4.8-3.6,8.6C294.6,71,297.3,74,301,75.4z"/>
		<path class="st0" d="M128,155.6c-0.2-1.5-0.4-3-0.6-4.5h-2.9c0,0.5,0,0.8,0,1c0.3,5-1,9.5-4.8,12.9c-0.9,0.9-1.9,1.7-2.9,2.5
			c-1.2,1.1-1.1,1.7,0.5,2.3c0.3,0.1,0.6,0.2,0.9,0.3c1.7,0.3,3.2,1.2,4.2,2.5c1.6,1.8,2.7,4,3.2,6.3c0.4,1.7,0.6,3.4,1,5.2
			c0.3,0.9,0.6,1.8,0.9,2.7c1.3-2,1.2-3.7,1.4-5.4c0.2-2,0.6-3.9,1.2-5.8c1-2.7,2.7-5.1,5.7-6.1c1.1-0.4,1-1.2,1.3-2
			c-1-0.5-2-1-3-1.6C130.9,163.3,128.7,159.6,128,155.6z"/>
		<path class="st0" d="M356.2,333.3c-2.4-1.3-2.7-1.1-3,1.2c-0.5,3.2-1.6,6.3-3.2,9.2c-1.5,2.5-3.4,4.4-6.6,4.5
			c-0.3,0-0.8,0.4-1.3,0.7c0.6,0.8,1,1.6,1.6,1.9c2.9,1.3,3.8,3.7,4.3,6.4c0.4,2.5,0.6,5.1,0.9,7.6c0.1,0.8,0,1.8,1.3,2
			c0.2-0.5,0.4-1,0.6-1.5c0.6-2,1.2-4,1.9-5.9c1.3-3.5,3.6-6,7.4-6.8c1.7-0.4,1.9-1.3,0.7-2.7c-0.3-0.3-0.5-0.6-0.8-0.9
			c-3.4-3.6-4.9-8.6-3.9-13.5C356.1,334.9,356.1,334.1,356.2,333.3z"/>
	</g>
</g>
<g id="Layer_1_copy">
	<g id="Coffee1_1_">
		<path class="st1" d="M322.9,365.6c16,2,31.9,6.9,47.7,12.2c7.5,2.5,14.6,6.3,20.8,11.2c6.8,5.5,9.5,12.6,8.5,21.2
			c-0.7,6.1-3.6,11.5-6.5,16.8c-0.4,0.7-1,1.2-1.7,1.6c-4.6,3.6-9.8,6.4-15.3,8.3c-9.5,3.3-18.9,6.8-28.7,9
			c-6.1,1.4-12.1,2.9-18.2,4.2c-3.7,0.8-7.5,1.2-11.3,1.6c-6.2,0.7-12.3,1.5-18.5,2c-4.8,0.4-9.6,0.4-14.3,0.6s-9.4,0.5-14.1,0.7
			c-2.7,0.1-5.4,0.1-8.1,0c-8.7-0.1-17.4-0.2-26.1-0.5c-7.6-0.3-15.3-0.8-22.9-1.4c-11.3-1-22.7-2-33.9-4
			c-9.1-1.6-18.2-2.9-27.3-4.8c-12.4-2.5-24.4-6.3-36.3-10.4c-5.8-1.9-11.5-4.4-16.8-7.5c-1.9-1.3-3.8-2.7-5.5-4.2
			c-0.4-0.4-0.7-0.9-0.8-1.4c-1.5-4.4-2.9-8.8-4.3-13.2c-0.2-0.7-0.4-1.4-0.4-2.1c-0.3-5.4,1.2-10.8,4.4-15.2
			c4.1-5.6,9.5-10.3,15.6-13.5c9.7-5.2,20.2-8.7,31-10.3c4.5-0.7,9-1.4,13.5-1.8c4.4-0.4,8.8-0.5,13.1-0.8c0.3,0,0.7-0.1,1-0.2
			c-2.3-2.7-4.5-5.3-6.8-7.8c-0.6-0.4-1.4-0.6-2.2-0.5c-3.5,0.2-7-0.1-10.5-0.9c-5.2-1.4-10.5-2.8-15.6-4.6
			c-7.5-2.7-13.2-8-18.1-14.1c-8.1-10-13.8-21.8-16.7-34.4c-0.8-3.7-1.3-7.4-1.7-11.1c-0.6-4.1-0.9-8.3-1-12.4
			c0.3-15.2,6.1-28.2,16.8-39c3-2.8,6.6-4.8,10.5-5.9l2.3-0.7c0-2.9,0-5.9,0-8.8c0.1-7.9,1-15.8,2.7-23.6c0.7-3.6,2.9-6.8,6-8.8
			c6-3.8,12.1-7.5,19-9.6c5.5-1.7,11.1-2.8,16.7-4.1l1.8-0.4c-0.4-0.8-0.7-1.4-1-2c-5.1-9.1-5.8-18.8-3.1-28.7
			c2.2-7.9,7-13.8,14.9-16.9c6-2.5,12.6-3.3,19-2.5c6.9,0.9,13.7,2.2,20.5,3.3c4.5,0.7,9.1,0.3,13.4-1.3c3.5-1.3,6.4-3.8,8.3-6.9
			c2.5-3.8,4.9-7.7,7.2-11.6c8-12.9,22-20.8,37.1-20.9c9.8-0.3,19.3,3.1,26.7,9.4c2.5,2.1,4.7,4.5,6.6,7.2c4.4,6.3,8.1,13,10,20.5
			c1.1,4.7,1.3,9.5,0.7,14.3c-0.8,6.8-4.6,12-10.1,15.9c-7.2,5.1-15.4,6.7-24.1,6.3c-10.7-0.5-21.2-2.3-31.8-3.7
			c-3.9-0.6-7.8-0.9-11.7-1c-7-0.1-13.9,1.1-20.4,3.5c-1.7,0.7-3,2.2-3.4,4c-0.5,1.5,0.3,3.1,1.8,3.6c0.4,0.1,0.8,0.2,1.2,0.2
			c4.4-0.1,8.8-0.3,13.2-0.4c4.6,0,9.1,0.1,13.7,0.2c4.8,0.1,9.6,0.4,14.4,0.6c10.1,0.4,20.2,1.4,30.2,3.1c6.7,1.2,13.4,2.2,20,3.7
			c10.2,2.3,20.3,4.9,29.6,10c2.5,1.3,4.6,3.2,6.3,5.5c0.9,1.5,1.6,3.1,2,4.8c2,7,2.6,14.2,3.4,21.4c0.2,1.7,0.1,3.5,0.2,5.3
			c0.1,6.3,0.4,12.6,0.3,18.9c-0.1,5.3-0.8,10.6-1.1,15.9c-0.2,2.9-0.2,5.9-0.6,8.8c-0.9,6.2-1.8,12.4-2.9,18.6
			c-1.4,8.2-3.4,16.4-6.2,24.3c-3.3,8.9-6.2,18-10.7,26.3c-4.4,8.2-9.8,15.7-16.1,22.5C326.3,361.4,324.6,363.6,322.9,365.6z
			 M124.3,308.9L124.3,308.9l-0.5-1.1v-0.2l-0.1-0.1c0-0.2,0-0.3,0-0.5c-3.3-8.6-4.1-17.9-2.3-27c2-10,7.8-16.4,17.6-19
			c3.9-1.1,7.9-0.7,11.9-0.8c2.7-0.1,5.4,0.3,8,1.2c1.6,0.6,5.5-0.8,6.3-2.3c1.1-1.9,2.1-3.9,2.9-6c1.2-3.4,1.9-6.9,0.9-10.5
			c-0.2-1.1-0.4-2.2-0.6-3.3c-0.2-0.5-0.4-1-0.6-1.5c-1.8-3.7-4.5-4.4-8.1-3c-1.3,0.5-2.6,1.2-3.8,1.9c-1.8,1.1-4,1.6-6.1,1.3
			c-5.5-0.9-11-1.9-16.6-1.7c-8,0.3-15.1,2.8-20.6,8.8c-4.1,4.3-7.3,9.3-9.4,14.8c-1.4,3.6-2.8,7.2-3,11c-0.4,7.2-0.1,14.5,0.8,21.7
			c1.7,14.3,7.4,27,15.8,38.5c4.8,6.7,11.4,12,19.1,15.1c4.6,1.7,9.2,2.9,14,3.8c5.6,1.2,11.3,0.7,16.9,0c6.9-0.8,13.6-3,19.6-6.6
			c1.3-0.6,2.3-1.7,3-3c0.9-2.5,1.7-5.3,1.6-7.9c-0.4-5.4-2.6-9.9-8-12.4c-1.8-0.8-3.2-1.1-4.7,0.5c-0.8,0.7-1.6,1.3-2.5,1.9
			c-5.8,4.1-12.7,6.3-19.8,6.3c-3.3-0.1-6.5-0.7-9.6-1.7c-5.2-1.4-10.1-4.1-14.1-7.7c-1.3-1.2-2.4-2.6-3.5-3.9l-3.8-5.8L124.3,308.9
			z M302.8,212.5c-0.1,1.2-0.1,2.5-0.2,3.8c1,0.1,2,0.1,3,0c3.3-0.7,6.7-1.4,10-2.2c3.6-0.9,7.3-1.6,10.8-2.7
			c2.2-0.7,4.6-1.1,6.6-2.7c-1.2-1.5-2.7-1.7-4.3-1.9c-1.7-0.6-3.4-1-5.2-1.4c-6.3-1-12.6-1.9-18.9-2.9c-0.7-0.1-1.3-0.1-2,0
			C302.6,206.1,302.7,209.3,302.8,212.5L302.8,212.5z M280.3,177.7l0.2,0.1h0.2l1.4,0.3c2,0.7,4,1.6,5.8,2.7c1.8,1.1,3.9,1.8,6,2
			c11.8,1.2,23.3,3.8,34.8,6.4c5.2,1.2,10.2,3.3,14.7,6.2c2.3,1.3,4,3.5,4.7,6.1c0.4,1.7,0.3,3.3-1,4.4c-1.6,1.6-3.5,3-5.5,4.1
			c-4.5,2.1-9.1,3.9-13.8,5.4c-10.4,3.2-21.1,5.5-32,6.7c-5.4,0.6-10.8,1.3-16.1,1.8c-3.6,0.3-7.2,0.4-10.7,0.6
			c-5.1,0.3-10.2,0.6-15.3,0.7c-4.8,0.1-9.6-0.1-14.4-0.3c-3.9-0.1-7.8-0.3-11.7-0.7c-7.3-0.7-14.6-1.4-21.8-2.2
			c-7.4-0.9-14.8-1.9-22.3-3c-4.6-0.7-9.3-1.6-13.9-2.6c-6.4-1.4-12.3-4.4-18.2-7.1c-1.4-0.7-2.6-1.6-3.5-2.8
			c-2.5-3.2-2.2-7.7,0.7-10.5c2.3-2.2,5.2-3.8,8.3-4.7c5.8-1.7,11.7-3.3,17.5-4.9c1.4-0.4,2.8-0.7,4.6-1.2l-2.7-2.2L174,181
			c-7.3,1.5-14.6,3-21.4,5.8c-2.4,1-5,1.8-7.3,2.9c-2.8,1.4-5.4,3.1-8,4.6c-1.3,0.9-2.5,2-3.6,3.1c-0.8,0.9-1.4,2-1.6,3.1
			c-1.6,6.7-2.5,13.6-2.5,20.5c0,0.6-0.2,1.3-0.2,1.9c0,2.9,0,5.8,0,8.8c1.3-0.1,2.5-0.2,3.7-0.2c5.3,0,10.5,0.5,15.7,1.6
			c2,0.4,4.1,0.2,6-0.6c2.9-1.5,6.2-1.9,9.3-1.2c1.4,0.3,3,0.8,3.8,1.7c1.4,1.7,2.6,3.6,3.4,5.7c1.8,4.9,1.6,10,0.2,15
			c-1.2,4.4-3.3,8.1-7.7,10.1c-0.7,0.3-1.4,0.8-2,1.3c-1,0.8-2.2,1-3.4,0.6c-4.1-1.2-8.2-0.9-12.4-0.8c-4.9,0.1-9.6,1.8-13.5,4.8
			c-1,0.6-1.5,1.7-1.3,2.8c0.2,1.6,0.3,3.3,0.6,5c0.9,4.7,1.7,9.4,2.7,14.1c1.6,7.8,3.4,15.6,6.3,23c0.8,2.1,1.8,4.1,2.9,6
			c0.3,0.6,0.9,1.1,1.6,1.3c3,0.9,6,1.6,9.1,2.1c5.9,0.5,11.6-0.3,16.5-4.1c1.4-1.1,2.9-2,4.3-3.1c2.2-1.8,5.2-2.2,7.8-1
			c7.4,2.8,12,11.4,11.7,17.4c-0.4,6.8-3,12.1-9.1,15.5c-5.4,3-11.4,5-17.6,5.9c-0.5,0.1-1,0.3-1.4,0.5c0.4,0.6,0.7,1,1.1,1.4
			c0.9,1.2,1.9,2.3,3,3.4c7.9,7.2,16.2,13.6,26.4,17.3c12.1,4.5,24.7,6.2,37.4,7.4h0.2l0.6,0.1c6.1,0.9,12.2,1.2,18.4,0.9
			c2-0.2,4-0.2,6-0.3c10.1-0.2,20.2-2.2,29.6-5.9c6.1-2.5,11.9-5.6,17.8-8.7c2.5-1.2,4.9-2.7,7.1-4.5c4.4-3.5,8.5-7.2,12.3-11.3
			c5.4-6,10.1-12.6,13.9-19.7c4.2-7.8,7-16.3,10.1-24.5c3.5-9.3,5.5-18.9,7.2-28.7c1-5.8,1.7-11.6,2.4-17.5c0.4-2.9,0.4-5.9,0.6-8.8
			c0.4-5.4,1.1-10.8,1.1-16.2c0-7.9-0.5-15.8-0.9-23.6c-0.2-3-0.8-6-1.4-9.6L356,211l-6.4,4.8l-0.4-0.7c1.8-1.8,3.6-3.6,5.5-5.3
			c3.8-4,4.4-10.2,1.3-14.8c-1.2-1.4-2.6-2.6-4.2-3.6c-5.7-3.7-12.1-5.7-18.5-7.6c-6.3-1.9-12.7-2.9-19.1-4.2
			c-15.7-3.3-31.7-4.6-47.6-5.4c-4.6-0.2-9.3-0.1-13.9-0.2c-1.3,0-2.5-0.2-3.8-0.2c-3.4,0.1-6.8,0.2-10.2,0.3l-0.1,0.5
			c4.1,1.5,8.4,2.3,12.7,2.3c3.3,0,6.7-0.3,10-0.4C267.7,176.1,274,176.5,280.3,177.7L280.3,177.7z M181.8,203
			c-6.8,0.9-13.4,2.9-19.5,5.9c-0.2,0.1-0.2,0.4-0.4,0.7c1,0.4,2,0.8,2.9,1.2c5.5,2,11.2,2.8,16.9,3.7c4.5,0.7,9.1,1.4,13.6,2.1
			c3.1,0.5,6.3,1,9.4,1.3c4,0.4,8.1,0.6,12.1,1c4.6,0.4,9.1,1.1,13.7,1.4c6,0.3,11.9,0.4,17.9,0.5c0.7,0,1.4-0.1,2.3-0.1
			c-0.1-2.8-1.4-5-2.8-7.1c-3.4-4.8-8.6-7.1-13.6-9.8c-4.3-2.2-9.1-3.4-14-3.5c-5-0.2-10,0.2-15,0.5c-3.4,0.2-6.8,0.6-10.2,0.9
			c-0.6,0.1-1.3,0-1.9,0.1C189.5,202,185.7,202.5,181.8,203z M251.8,406.9c0.8,0.2,1.7,0.2,2.6,0.2c4.7-0.5,9.3-0.9,14-1.5
			c7.9-1.2,15.6-3,23.2-5.6c3.5-1.2,6.8-2.6,10-4.4c3-1.7,2.9-2,2.5-5.7c-0.1-0.8-0.3-1.6-0.7-2.3c-1.3-2.6-2.6-5.2-4-8L296,381
			c-3.6,1.2-7.2,2.5-10.9,3.5c-4.7,1.5-9.5,2.6-14.4,3.6c-5.3,0.9-10.8,1.1-16.2,1.5c-4.7,0.3-9.4,0.2-14.1-0.2
			c-3.7-0.3-7.4-0.8-11.1-1.2c-0.6-0.1-1.1-0.2-1.7-0.3c-8.4-0.8-16.7-2.4-24.8-4.7c-3.1-0.9-6.1-2.1-9.2-3.2
			c-1.3,2.5-2.6,5-3.9,7.4c-0.8,1.3-1,2.9-0.6,4.4c1.1,0.9,2.3,1.7,3.6,2.4c4.1,1.9,8.1,3.7,12.3,5.3c7.2,2.8,14.7,4.1,22.3,5.3
			c1.8,0.3,3.6,0.4,5.4,0.6c0.4,0.2,0.9,0.3,1.4,0.4C240,406.2,245.9,406.5,251.8,406.9L251.8,406.9z M301.7,400.6L301.7,400.6
			c-1.1,0.5-2.2,1-3.3,1.5c-7.9,3.3-16.1,5.8-24.5,7.3c-6,1.2-12.1,2-18.2,2.3c-5.6,0-11.2-0.2-16.7-0.7c-6.6-0.5-13.1-1.5-19.6-2.6
			c-8.8-1.6-17.3-4.4-25.4-8.4c-3-1.3-5.8-3.1-8.4-5.1c-1.8-1.5-2-1.9-1.3-4c0.4-1.4,1.1-2.8,1.7-4.2c-0.3-0.1-0.6-0.1-0.8-0.1
			c-0.9,0.1-1.9,0.2-2.8,0.3c-10.8,1.3-21.4,3.1-32,5.4c-5.7,1.4-11.4,2.9-16.7,5.6c-2.2,1-4.1,2.5-5.7,4.3c-1.4,1.6-1.4,2.6,0,4.2
			c0.6,0.7,1.3,1.4,2.1,2c3.9,3.4,8.7,5.3,13.5,6.9c14.9,5.1,30.4,7.3,45.9,9.3c11.3,1.5,22.6,2.9,34,3.4
			c11.2,0.5,22.5,1.1,33.7,1.5c0.3,0,0.6-0.1,0.9-0.2c0.8,0.1,1.6,0.2,2.4,0.2c6.3-0.2,12.6-0.3,18.9-0.8c7-0.5,14.1-1.2,21.1-2.2
			c13.4-2.1,26.7-5.2,39.7-9.3c3-0.9,5.9-1.9,8.8-2.9c2.5-1,5-1.9,7.5-3c0.6-0.3,1.1-0.7,1.5-1.2c1.9-1.9,2-3.3,0.4-5.5
			c-2.5-3.3-5.9-5.7-9.7-7c-10.2-3.9-20.9-5.6-31.7-6.5c-2.8-0.2-5.7-0.4-8.4-0.5c-0.5,2-0.9,3.8-1.3,5.5l-3.9,3.7L301.7,400.6z
			 M314.7,371.8l-12.3,6.5l4.7,8c0.6,0.1,1.4,0.2,2.2,0.3c4.9,0.4,9.9,0.7,14.8,1.2c8.2,0.7,16.2,2.5,23.9,5.3
			c3.5,1.2,6.9,2.6,9.8,5c2.2,1.9,4.2,3.9,5,6.8c0.5,1.4,0.3,3.1-0.6,4.3c-0.6,0.9-1.3,1.8-2.2,2.5c-2.2,1.5-4.5,2.8-6.9,3.8
			c-5.4,2-11,3.9-16.5,5.6c-24.4,7.7-49.9,11.7-75.6,11.6c-4,0-8,0.1-12,0.1c-2.1-0.2-4.1-0.3-6.2-0.5c-6.3-0.4-12.6-0.7-18.8-1.1
			c-3.8-0.3-7.6-0.9-11.4-1.3c-5.7-0.6-11.5-0.8-17.1-1.7c-12.6-2-25.1-4.2-37.7-6.5c-7.3-1.3-14.5-3.2-21.5-5.7
			c-4.2-1.5-8.2-3.4-11.4-6.8c-2.8-2.6-2.9-7-0.2-9.8c0.1-0.1,0.1-0.1,0.2-0.2c2.6-2.5,5.7-4.4,9-5.8c7.4-3.2,15.2-4.9,23-6.3
			c9.5-1.7,19.1-2.8,28.7-3.4c0.8,0,1.5-0.3,2.1-0.9c0.9-1.4,1.7-2.9,2.4-4.4c-6.1-2.4-11.7-5.9-16.7-10.2c-1.3-1.1-3-1.6-4.6-1.3
			c-4.9,0.6-9.8,0.9-14.7,1.6c-12.8,1.9-25.5,4.1-37.4,9.5c-4,1.7-7.7,3.9-11.1,6.5c-5.9,4.6-10.5,10-11.9,17.6
			c-0.5,2.6-0.4,5.3,1.5,7.2c2.5,2.5,5.3,4.9,8.2,7c5.6,4,11.9,6.4,18.3,8.7c10.8,3.8,21.8,6.7,33.1,8.6c9.8,1.7,19.7,3.3,29.5,4.8
			c5,0.7,10,1.1,15,1.5c9.1,0.8,18.1,1.5,27.2,2.2c6,0.1,12,0.3,17.9,0.4c3.7,0.1,7.3,0.1,11,0c9.5-0.1,19,0.6,28.5-0.2
			c7.6-0.6,15.3-1,22.9-1.7c7.3-0.7,14.6-1.7,21.8-2.7c10.4-1.3,20.7-3.6,30.8-6.8c8.2-2.7,16.3-6.1,24-10c2.5-1.4,4.9-3,7.2-4.7
			c2.8-2.2,4.8-5.3,5.6-8.8c0.1-0.5,0.1-1,0-1.4c-0.6-5.5-3.4-10.5-7.8-13.8c-3.1-2.3-6.3-4.4-9.6-6.3c-6-3.5-12.7-5.4-19.3-7.5
			c-13.2-4.3-26.7-7.4-40.4-9.3c-1-0.3-2.1,0-2.8,0.8C315.7,370.8,315.2,371.3,314.7,371.8L314.7,371.8z M297.1,217.3
			c1.1-3.1,1.6-6.4,1.3-9.8c-0.6-6.2-2.8-12-6.5-17c-2.9-4.1-7.2-6.9-12.1-7.9c-7.4-1.8-14.9-1.2-22.4-1.3c-3.3,0.1-6.7,0.1-10-0.1
			c-6.2-0.7-12-2.6-16.8-6.8c-1.1-1-2.1-2.1-3-3.4c-1.6-2.3-1.9-6.9,1-9.4c1.6-1.5,3.5-2.5,5.6-3.1c2.2-0.6,4.5-1.1,6.7-1.6
			c4.2-1,8.5-1.5,12.8-1.6c6.9-0.1,13.7,0.9,20.5,1.6c8.7,0.9,17.4,2.2,26.2,2c4.2,0,8.4-0.8,12.4-2.4c6.7-2.7,11.8-7.2,13.4-14.5
			c1.5-6.5,0.8-13.3-1.9-19.4c-1.2-2.8-2.7-5.4-4.1-8.1c-2.6-5-6.1-9.4-10.4-13c-7.5-6.4-16.3-8.7-25.9-7.5
			c-12.2,1.5-22.3,6.8-29.1,17.5c-3.1,4.9-6.4,9.8-9.7,14.6c-1.5,2.3-3.7,4.1-6.1,5.2c-5.5,2.6-11.3,4-17.4,3.3
			c-6.6-0.8-13.1-1.8-19.6-2.8c-6.5-1.1-13.2-0.2-19.1,2.6c-6.3,2.7-10.8,8.3-12.1,15c-0.4,2.1-0.7,4.2-0.8,6.4
			c-0.4,9.1,2.4,17,8.9,23.4c2,1.9,4.2,3.7,6.5,5.3c6.4,4.8,13.9,8,21.9,9.2c5,0.7,10,1.3,15,1.6c5.7,0.3,11.2,2,16.1,4.8
			c1.7,0.9,3.4,1.8,5,2.8c4.9,2.9,8.8,6.6,10.7,12.1c0.6,1.9,1.1,3.8,1.7,5.9C269.4,220.2,283.3,219.8,297.1,217.3z M393.1,419.8
			c-0.5,0-0.6,0-0.7,0c-6.9,4.8-14.7,8-22.4,11.3c-11.8,4.8-24.1,8.1-36.7,9.8c-7.4,1.1-14.8,2.1-22.3,2.9
			c-8.2,0.9-16.3,1.7-24.5,2.1c-6.7,0.3-13.4,0.9-20.1,0.3c-5-0.4-10.1-0.2-15.1-0.2c-7.3,0-14.7,0.1-22,0c-5.7-0.1-11.3-0.4-17-0.8
			c-6.7-0.4-13.4-0.8-20-1.6c-8.9-1.1-17.8-2.5-26.7-4c-5.4-0.9-10.8-2-16.2-3c-12.7-2.3-25.1-6-37-11.1c-5.6-2.4-11-5.1-15.5-9.3
			c-0.6-0.5-1.2-1-2.2-1.9c0.7,3.3,1.8,5.8,4.2,7.5c4.5,3.4,9.7,5.5,14.8,7.7c10,4.2,20.6,6.4,31,9.1c10.7,2.8,21.5,4.6,32.4,6.4
			c13.1,2.2,26.2,3.4,39.4,4.5c4.1,0.3,8.3,0.5,12.4,0.7c8.5,0.4,16.9,0.8,25.4,0.9c12.1,0.2,24.1-0.2,36.2-0.9
			c6.7-0.4,13.4-0.6,20-1.5c5.4-0.8,10.9-1.3,16.3-2.3c6.2-1.2,12.3-2.9,18.4-4.3c10.5-2.4,20.6-6.1,30.8-9.8
			c4-1.5,7.9-3.4,11.8-5.3c0.9-0.4,1.7-1,2.2-1.7C391.1,423.6,392,421.8,393.1,419.8L393.1,419.8z M345.5,202.6
			c-0.8-2.5-2.6-4.4-5-5.4c-3.2-1.7-6.6-3.1-10.1-4.3c-10.9-2.9-21.9-5.1-33-6.7c-0.9-0.1-1.8-0.1-3.1-0.2c0.5,0.8,0.8,1.2,1.1,1.7
			c1.3,2.1,2.6,4.2,3.9,6.3c0.8,1.4,1.2,3.4,2.4,4.2s3.2,0.6,4.9,0.9c7.9,1,15.8,2.5,23.5,4.6c2.6,0.8,5.1,1.7,6.5,4.3
			C341.3,206.7,342.1,206.2,345.5,202.6z M156.9,207.6c1-0.9,2.2-1.6,3.3-2.3c7.2-3.4,14.9-5.7,22.9-6.6c5.2-0.6,10.4-1.1,15.6-1.6
			c-0.1-0.1-0.2-0.3-0.4-0.3c-5.4-1.9-10.6-4.5-15.3-7.9c-0.6-0.4-1.3-0.5-1.9-0.4c-2.5,0.5-5,1-7.5,1.6c-6,1.5-12,3.1-18,4.7
			c-1.9,0.5-3.7,1.6-5,3.1c-2,2.3-2,3.9,0.2,6C152.6,205.5,154.7,206.8,156.9,207.6L156.9,207.6z M127.6,275.6
			c-0.3,0.5-0.6,0.9-0.8,1.5c-1.4,5-2.5,10-1.8,15.3c0.2,1.3,0.3,2.5,0.4,3.8c0.7,7.6,4.2,14.7,9.7,20c0.5,0.5,1,0.9,1.6,1.3
			c0-0.2,0-0.3,0-0.5c-3.8-10.2-6.3-20.9-7.6-31.7C128.6,282.1,128.1,279.1,127.6,275.6L127.6,275.6z"/>
		<path class="st2" d="M213.1,79.4c0.2,4.1-1.8,8.1-5.2,10.4c-2.1,1.6-4.6,2.7-7.2,3.2c-6.4,1.2-12.3,4-17.2,8.3
			c-1.6,1.3-3.3,2.5-5.1,3.6c-3,2-6.9,2.5-10.3,1.2c-6.6-2.3-10.4-6.8-11.3-13.8c-0.2-2.6,0.2-5.1,1.3-7.5
			c4.1-10.1,12.1-15.3,22.5-17.2c8.4-1.4,17-0.3,24.7,3.4c1.5,0.6,2.9,1.3,4.3,2.2C212,74.8,213.3,77.1,213.1,79.4z M160.4,91
			c0.1,3.3,1.5,6.4,3.9,8.6c4,3.7,8.8,4.1,13.3,1c1.8-1.3,3.6-2.6,5.4-4c4.4-3.6,9.6-6,15.2-7.1c1.4-0.3,2.8-0.7,4.1-1.2
			c2.7-0.9,4.9-2.8,6.4-5.2c1.1-1.8,1.6-4,0.1-5.6c-1.4-1.8-3.3-3.3-5.4-4.2c-7.5-2.7-15.2-3.6-23-1.8c-8.8,2.1-15.4,7.1-18.9,15.6
			C161.1,88.4,160.7,89.7,160.4,91z"/>
		<path class="st3" d="M355.2,325.5c3.1-2.8,6.1-5.3,8.8-8.1c4.1-4.3,6.4-9.7,7.8-15.4s2.3-11.5,3.4-17.3c0.2-1.1,0.4-2.2,0.5-3.3
			c1.8-0.6,2.2-0.5,2.3,1.2c0.1,1.8,0.1,3.5-0.1,5.3c-0.4,6.1-0.3,12.3,0.5,18.4c1,8,5.3,13.6,12.2,17.5c0.8,0.4,1.7,1,2.4,1.6
			c0.4,0.3,0.5,0.8,0.2,1.2c-0.2,0.2-0.4,0.4-0.7,0.4c-6.9,1.1-10.8,5.7-13.6,11.5c-1.8,4.1-3.1,8.4-3.7,12.8
			c-0.7,4.1-1.3,8.3-2,12.5c-0.2,1.1-0.5,2.1-0.8,3.4c-1.4-0.8-1.1-1.9-1.2-2.9c-1-7.1-0.7-14.4-2.3-21.5c-1.2-5.1-3.2-9.7-7.1-13.3
			c-1.3-1.2-2.6-2.3-4.4-2.3C356.4,327.3,355.4,326.6,355.2,325.5z M375,302.7v-2.2h-0.2l-0.5,2.2l-0.6,1.8
			c-1.9,6.3-4.5,12.3-9.3,17c-1.2,1.2-2.4,2.2-3.8,3.5c3.6,2.1,6.5,5.2,8.4,9c2,3.6,3,7.6,4,12.1c0.6-2.1,1-3.6,1.5-5.1
			c0.3-0.7,0.6-1.5,1-2.2c2.4-5.4,5.5-10.1,11-12.8c0.2-0.1,0.4-0.3,0.6-0.5c-5.7-3.3-9-8.2-10.7-14.3c-0.5-1.6-0.7-3.3-1.1-4.9
			L375,302.7z"/>
		<path class="st4" d="M87.3,135c1.2-0.4,1.7-0.7,2.2-0.8c1.2-0.3,2.5-0.6,3.7-0.9c8.1-2,12.3-7.6,14.2-15.2c1-3.7,1.3-7.5,1-11.4
			c0-0.2,0-0.3,0-0.5c-0.1-2.8,0.3-3.1,3.4-2.2c0,1.4,0,3,0,4.5c0,5.1,1,10.2,2.9,14.9c1.7,4.4,5,7.9,9.3,9.9
			c2.3,1.1,4.6,2.3,6.8,3.4c0.8,0.4,1.5,0.9,2.2,1.3c-0.4,1.1-1.5,1.9-2.7,1.8c-9.4,0.9-17.9,7.7-19.5,19.6
			c-0.4,3.3-0.9,6.6-1.5,9.9c-0.2,1.1,0.1,2.7-2,3.1c-0.3-0.6-0.6-1.2-0.8-1.8c-0.5-2.9-1.1-5.8-1.4-8.7c-0.6-6.3-2-12.3-5.8-17.4
			c-2.6-3.4-5.5-6.4-9.9-7.5C88.8,136.8,88.3,135.9,87.3,135z M109.8,119.9c-0.3,0.7-0.6,1.5-0.8,2.2c-1.3,3.9-3.1,7.6-6.4,10.2
			c-2.1,1.5-4.2,2.9-6.5,4.2c1.3,1.2,2.9,2.4,4.2,3.9c3.4,3.8,5.9,8.3,7.3,13.2l0.6,2.5c2.4-9.3,7.9-15.3,17.3-18.1
			c-9.1-3.5-13.3-10.4-15.6-19L109.8,119.9z"/>
		<path class="st2" d="M330.3,75.1c0.1,3.2-1,6.4-3.1,8.9c-1.3,2-3.9,2.9-6.1,2c-1.6-0.5-3.1-1.2-4.5-2.2c-4.8-3.4-10-6.3-15.5-8.4
			c-3.7-1.4-6.4-4.4-7.5-8.2c-1.1-3.8,0.1-6.8,3.6-8.6c2.9-1.4,6.1-1.9,9.3-1.5c5.1,0.5,10,2.1,14.5,4.6c3.9,2.1,6.9,5.5,8.6,9.6
			C330,72.6,330.2,73.8,330.3,75.1z M304.6,60.4c-1.6,0.2-3.2,0.6-4.7,1.1c-3.8,1.4-4.4,3.7-1.9,6.9c0.2,0.3,0.5,0.6,0.8,0.9
			c1.4,1.5,3.1,2.5,5.1,3.1c4.3,1.5,8.4,3.6,12.1,6.2c1.6,1.1,3.4,2.1,5.2,3c1.7,0.9,2.6,0.7,3.7-0.8c1.7-2.3,2.5-4.8,1.2-7.6
			c-0.5-1.1-1-2.3-1.6-3.5c-1.2-2.3-3-4.2-5.2-5.4C314.9,61.8,310.1,60.8,304.6,60.4z"/>
		<path class="st4" d="M124.6,151.1h2.9c0.2,1.6,0.4,3,0.6,4.5c0.6,4.1,2.8,7.7,6.1,10.2c1,0.6,2,1.2,3,1.6c-0.3,0.8-0.2,1.6-1.3,2
			c-2.9,1-4.6,3.4-5.6,6.1c-0.6,1.9-1,3.8-1.2,5.8c-0.3,1.7-0.1,3.5-1.4,5.4c-0.4-0.9-0.7-1.8-0.9-2.7c-0.4-1.7-0.7-3.4-1-5.1
			c-0.5-2.4-1.6-4.5-3.2-6.3c-1-1.4-2.5-2.3-4.2-2.5c-0.3-0.1-0.6-0.1-0.9-0.3c-1.6-0.6-1.7-1.2-0.5-2.3c1-0.8,2-1.6,2.9-2.5
			c3.9-3.5,5.2-7.9,4.8-12.9C124.6,151.9,124.6,151.6,124.6,151.1z M127.1,173.8l0.3,0.5l5-6.7c-3-1.7-4.3-4.9-6-8.2l-0.3,1.3
			l-4.3,7.2L127.1,173.8z"/>
		<path class="st4" d="M356.2,333.3c-0.1,0.9-0.1,1.6-0.2,2.3c-1,4.9,0.5,9.9,3.9,13.5c0.3,0.3,0.5,0.6,0.8,0.9
			c1.2,1.4,0.9,2.4-0.7,2.7c-3.8,0.8-6.1,3.3-7.4,6.8c-0.7,1.9-1.3,4-1.9,5.9c-0.2,0.5-0.4,1-0.6,1.5c-1.3-0.2-1.2-1.2-1.3-2
			c-0.3-2.5-0.5-5.1-0.9-7.6c-0.5-2.7-1.4-5.2-4.3-6.4c-0.6-0.3-1-1.2-1.6-1.9c0.6-0.3,1-0.7,1.4-0.7c3.2-0.1,5.1-2.1,6.6-4.5
			c1.6-2.8,2.7-5.9,3.2-9.2C353.5,332.2,353.8,332,356.2,333.3z M352.7,353.6L352.7,353.6l4.4-3c-1-1.8-2-3.7-3-5.6
			c-0.2-0.4-0.4-0.9-0.5-1.3l-0.8,0.3c-1.1,2.4-2.8,4.5-4.9,6c1.1,2.2,2.1,4.2,3.1,6.3l1.2-2L352.7,353.6z"/>
		<path class="st5" d="M356,211l3.3-4.8c0.5,3.6,1.2,6.6,1.4,9.6c0.5,7.9,0.9,15.8,0.9,23.6c0,5.4-0.7,10.8-1.1,16.2
			c-0.2,2.9-0.3,5.9-0.6,8.8c-0.7,5.8-1.4,11.7-2.4,17.5c-1.7,9.7-3.7,19.4-7.2,28.7c-3.1,8.3-5.9,16.7-10.1,24.5
			c-3.9,7.1-8.5,13.7-13.9,19.7c-3.8,4.1-7.9,7.9-12.3,11.3c-2.2,1.7-4.6,3.2-7.1,4.5c-5.9,3-11.6,6.2-17.8,8.7
			c-9.4,3.7-19.5,5.8-29.6,5.9c-2,0-4,0.1-6,0.3c-6.1,0.4-12.3,0.1-18.4-0.9l-0.6-0.1h-0.2c-0.1-0.3-0.3-0.6-0.5-0.9
			c-1-0.9-2.1-1.7-3.1-2.6c-4.8-4.4-8-9.9-11.1-15.5c-5.4-9.6-9-19.9-11.8-30.5c-1.5-5.5-2.7-11-3.9-16.5c-1.1-5-1.9-10.1-2.8-15.2
			c-0.8-4.5-1.5-8.9-2.2-13.4c-0.7-4.7-1.5-9.4-2.1-14.1c-0.4-3.4-0.7-6.8-1-10.2c-0.5-5.1-1.1-10.3-1.4-15.4
			c-0.2-3.4-0.1-6.9,0-10.3c0.1-2,0.8-3.9,2.1-5.5c1.4-1.6,3.1-2.9,5.1-3.7c0.8,0,1.6,0,2.4,0.1c4.2,0.4,8.4,1,12.6,1.3
			c3.1,0.3,6.2,0.4,9.3,0.5c5.2,0.3,10.3,0.9,15.5,0.9c8.4,0,16.8-0.2,25.1-0.4c3.8-0.1,7.7-0.1,11.5-0.5c7.8-0.8,15.5-1.8,23.2-2.7
			c2.6-0.3,5.2-0.8,7.8-1.1c0.2,0.1,0.4,0.4,0.6,0.4c2.6,0.5,5.2,0.9,7.7,1.6c5.6,1.4,10.5,4.7,14,9.3c3.1,4,4.9,8.6,6.8,13.1
			c4.5,10.7,6.3,21.9,6.4,33.5c0,1.7,0,3.4,0,5l-0.2,0.6l0.2-0.6c0.4-0.5,0.7-1,0.9-1.6c1.5-4.5,3.3-9,4.4-13.6
			c1.5-6.2,2.6-12.6,3.7-18.9c0.5-3.1,0.7-6.3,1-9.4c0.3-3.3,0.7-6.6,0.9-9.9c0.3-5.7-0.2-11.4,0.4-17.2
			C356.1,217.7,356.1,214.4,356,211z M279.2,238.2c0.9,0.8,1.5,1.3,2.1,1.7c1.6,1.1,3.2,2,4.7,3.2c4.1,3.2,8.3,6.4,12.3,9.8
			s8.2,7.1,12.1,10.8c1.9,1.8,3.7,3.8,5.3,5.8c2.9,3.5,5.7,7,8.5,10.6c1.1,1.5,1.3,1.6,3.1,1.4c2.3-0.4,4.6-0.6,6.8-0.8
			c1.8-0.2,2.3-0.6,2-2.4c-0.4-3.4-0.9-6.8-1.4-10.1c-0.9-5.3-2.7-10.3-5.4-15c-2.3-4-5-7.7-7.6-11.5c-3.5-5.1-8.8-6.8-14.5-6.9
			c-3.8-0.1-7.7,0.9-11.6,1.4L279.2,238.2z M302,367.9c10.8-5.9,20.2-14.1,27.5-23.9c-3.1-0.6-5.6-1-8,0.3c-0.1,0-0.1,0.1-0.2,0.1
			l-6.1,6.4c-0.7,0.7-1.3,1.4-2,2c-1.1,1-2.3,2-3.4,3c-2.6,2.7-5.1,5.4-7.7,8.1C300.6,365.7,300.5,365.7,302,367.9z M330.7,290.6
			c1.1,4.1,2.4,6.1,4.4,7.2c1.2-2.9,2.6-5.6,0.8-8.8C334,288.4,331.9,289,330.7,290.6L330.7,290.6z M289,373.1
			c1.7,1.3,3.3,0.6,4.7-0.3c0.4-0.4,0.7-1,0.5-1.6c-0.4-0.5-0.9-0.7-1.5-0.7C291.2,370.7,289.8,371.6,289,373.1L289,373.1z"/>
		<path class="st6" d="M297.1,217.3c-13.8,2.5-27.7,2.9-41.5,3.5c-0.6-2.1-1.1-4-1.7-5.9c-1.9-5.5-5.9-9.2-10.7-12.1
			c-1.6-1-3.3-1.9-5-2.8c-4.9-2.8-10.5-4.5-16.1-4.8c-5-0.3-10-0.9-15-1.6c-7.9-1.2-15.4-4.4-21.9-9.2c-2.3-1.6-4.5-3.4-6.5-5.3
			c-6.5-6.4-9.3-14.4-8.9-23.4c0.1-2.1,0.4-4.3,0.8-6.4c1.3-6.7,5.9-12.3,12.1-15c6-2.8,12.7-3.7,19.1-2.6c6.5,1,13.1,2,19.6,2.8
			c6.1,0.7,11.9-0.7,17.4-3.3c2.5-1.2,4.6-3,6.1-5.2c3.3-4.8,6.6-9.6,9.7-14.6c6.8-10.7,16.9-16,29.1-17.5
			c9.6-1.2,18.4,1.1,25.9,7.5c4.3,3.6,7.8,8,10.4,13c1.4,2.7,2.9,5.4,4.1,8.1c2.7,6.1,3.4,12.9,1.9,19.4
			c-1.6,7.3-6.7,11.8-13.4,14.5c-3.9,1.5-8.1,2.4-12.4,2.4c-8.8,0.2-17.5-1.1-26.2-2c-6.8-0.7-13.6-1.7-20.5-1.6
			c-4.3,0.1-8.6,0.6-12.8,1.5c-2.3,0.5-4.5,1.1-6.7,1.6c-2.1,0.5-4,1.6-5.6,3.1c-2.9,2.6-2.6,7.1-1,9.4c0.9,1.2,1.9,2.4,3,3.4
			c4.8,4.2,10.6,6.1,16.8,6.8c3.3,0.2,6.7,0.2,10,0.1c7.5,0.1,15-0.6,22.4,1.3c4.9,1,9.2,3.8,12.1,7.9c3.7,5,6,10.8,6.5,17
			C298.6,210.9,298.2,214.2,297.1,217.3z"/>
		<path class="st7" d="M201.6,230.8c-2,0.8-3.7,2.1-5.1,3.7c-1.2,1.6-2,3.5-2.1,5.5c-0.1,3.4-0.2,6.9,0,10.3
			c0.3,5.1,0.9,10.3,1.4,15.4c0.3,3.4,0.6,6.8,1,10.2c0.6,4.7,1.3,9.4,2.1,14.1c0.7,4.5,1.4,8.9,2.2,13.4c0.9,5.1,1.8,10.2,2.8,15.2
			c1.2,5.5,2.4,11,3.9,16.5c2.8,10.6,6.4,20.9,11.8,30.5c3.1,5.5,6.4,11.1,11.1,15.5c1,0.9,2.1,1.7,3.1,2.6c0.2,0.3,0.4,0.6,0.5,0.9
			c-12.7-1.1-25.3-2.9-37.4-7.4c-10.2-3.7-18.6-10.1-26.4-17.3c-1.1-1.1-2.1-2.2-3-3.4c-0.4-0.4-0.6-0.9-1.1-1.4
			c0.5-0.2,0.9-0.4,1.4-0.5c6.2-0.9,12.1-2.9,17.6-5.9c6.1-3.4,8.7-8.6,9.1-15.5c0.3-6.1-4.2-14.6-11.7-17.4c-2.6-1.2-5.6-0.8-7.8,1
			c-1.4,1-2.9,2-4.3,3.1c-4.9,3.8-10.6,4.6-16.5,4.1c-3.1-0.4-6.1-1.1-9.1-2.1c-0.7-0.2-1.2-0.7-1.6-1.3c-1.1-2-2-4-2.9-6
			c-2.9-7.4-4.7-15.2-6.3-23c-1-4.7-1.8-9.4-2.7-14.1c-0.3-1.6-0.4-3.3-0.6-5c-0.2-1.1,0.3-2.2,1.3-2.8c3.9-3,8.6-4.7,13.5-4.8
			c4.1-0.1,8.3-0.4,12.4,0.8c1.2,0.4,2.5,0.1,3.4-0.6c0.6-0.5,1.3-0.9,2-1.3c4.4-2,6.5-5.7,7.7-10.1c1.4-5,1.6-10.1-0.2-15
			c-0.8-2.1-1.9-4-3.4-5.7c-0.8-1-2.5-1.4-3.8-1.7c-3.2-0.7-6.5-0.3-9.3,1.2c-1.9,0.8-4,1.1-6,0.6c-5.2-1.1-10.4-1.6-15.7-1.6
			c-1.2,0-2.4,0.1-3.7,0.2c0-3,0-5.9,0-8.8c0-0.6,0.2-1.3,0.2-1.9c0.1-6.9,0.9-13.8,2.5-20.6c0.3-1.2,0.8-2.2,1.6-3.1
			c1.1-1.1,2.3-2.1,3.6-3.1c0,0.3,0.1,0.7,0.1,1c0.1,2.2,0.4,4.4,0.8,6.6c1.1,4.9,4.8,7.9,8.5,10.8c3.4,2.7,7.4,4.4,11.2,6.3
			c0.7,0.4,1.8,0.4,1.8,1.6c-0.7-0.1-1.4-0.3-2.1-0.5c-3.6-1.3-7.1-2.7-10.7-4.1l-2.8-1.6l-0.2,0.3l2.5,1.6
			c3.9,2.4,7.9,4.8,12.5,5.9c9,2.2,18.1,4.3,27.2,6.1C191.1,229.4,196.4,230,201.6,230.8z"/>
		<path class="st8" d="M226.5,442.2c-9.1-0.7-18.1-1.4-27.2-2.2c-5-0.4-10-0.8-15-1.5c-9.9-1.5-19.7-3.1-29.5-4.8
			c-11.2-2-22.3-4.9-33.1-8.7c-6.4-2.3-12.8-4.7-18.3-8.7c-2.9-2.1-5.7-4.5-8.2-7c-2-1.9-2-4.5-1.5-7.2c1.4-7.6,6-13,11.9-17.6
			c3.4-2.6,7.2-4.8,11.1-6.5c11.9-5.4,24.6-7.6,37.4-9.5c4.9-0.7,9.8-1.1,14.7-1.6c1.7-0.3,3.4,0.2,4.6,1.3
			c4.9,4.3,10.6,7.8,16.7,10.2c-0.7,1.5-1.5,3-2.4,4.4c-0.5,0.6-1.3,0.9-2.1,0.9c-9.6,0.6-19.2,1.8-28.7,3.4
			c-7.9,1.3-15.7,3.1-23,6.3c-3.3,1.3-6.4,3.3-9,5.8c-2.8,2.6-2.9,7-0.2,9.8c0.1,0.1,0.1,0.1,0.2,0.2c3.2,3.3,7.2,5.2,11.4,6.8
			c7,2.5,14.2,4.4,21.5,5.7c12.5,2.3,25.1,4.5,37.7,6.5c5.6,0.9,11.4,1.1,17.1,1.7c3.8,0.4,7.6,1,11.4,1.3
			c6.3,0.5,12.6,0.8,18.8,1.1c2.1,0.1,4.1,0.3,6.2,0.5c-0.5,0.5-1.1,0.9-1.7,1.3c-2,0.9-3.9,1.8-5.9,2.6
			C236.5,438.5,231.5,440.3,226.5,442.2z"/>
		<path class="st7" d="M257.9,429c-0.3,0.1-0.6,0.2-0.9,0.2c-11.2-0.4-22.5-1-33.7-1.5c-11.4-0.5-22.7-1.9-34-3.4
			c-15.5-2-31-4.2-45.9-9.3c-4.9-1.6-9.6-3.5-13.5-6.9c-0.7-0.6-1.4-1.3-2.1-2c-1.4-1.6-1.4-2.6,0-4.2c1.6-1.8,3.6-3.2,5.7-4.3
			c5.3-2.7,11-4.3,16.7-5.6c10.6-2.4,21.2-4.2,32-5.4c0.9-0.1,1.9-0.2,2.8-0.3c0.3,0,0.6,0.1,0.8,0.1c-0.6,1.4-1.2,2.8-1.7,4.2
			c-0.7,2.2-0.5,2.5,1.3,4c2.6,2.1,5.4,3.8,8.4,5.1c8,3.9,16.6,6.7,25.4,8.3c6.5,1.1,13,2.1,19.6,2.6c5.6,0.5,11.1,0.8,16.7,0.7
			c6.1-0.3,12.2-1,18.2-2.3c8.4-1.5,16.6-3.9,24.5-7.2c1.1-0.5,2.2-1,3.3-1.5c0.1,1.6-1.2,2.2-2.1,2.9c-4.4,3.5-8.9,7-13.5,10.2
			c-7.4,5.4-15.4,9.9-23.8,13.5C260.8,427.7,259.4,428.4,257.9,429z"/>
		<path class="st9" d="M226.5,442.2c5-1.9,10-3.7,15-5.6c2-0.8,4-1.7,5.9-2.6c0.6-0.4,1.2-0.8,1.7-1.3c4-0.1,8-0.2,12-0.1
			c25.6,0.1,51.1-3.9,75.5-11.6c5.5-1.7,11.1-3.5,16.5-5.6c2.4-1,4.7-2.3,6.9-3.8c0.9-0.7,1.6-1.5,2.2-2.5c0.9-1.3,1.1-2.9,0.6-4.3
			c-0.9-2.9-2.8-5-5-6.8c-2.9-2.4-6.3-3.8-9.8-5c-7.7-2.8-15.8-4.6-24-5.3c-4.9-0.5-9.9-0.8-14.8-1.2c-0.8-0.1-1.6-0.2-2.2-0.3
			l-4.7-8l12.3-6.5c0.3,0.2,0.6,0.4,1,0.5c3.8,0.5,7.5,0.9,11.3,1.5c6.6,1.1,13.1,2.7,19.4,4.8c7.9,2.4,15.7,5.4,23.1,9
			c4.3,2.2,8.8,4.1,12.5,7.3s6.9,6.4,8.7,10.9c1.1,2.8,1.9,5.6,0.2,8.5c-0.3,0.7-0.4,1.5-0.4,2.3c-2.3,1.7-4.7,3.3-7.2,4.7
			c-7.7,3.9-15.8,7.3-24,10c-10,3.2-20.3,5.4-30.8,6.7c-7.3,1-14.5,1.9-21.8,2.6c-7.6,0.7-15.3,1.1-22.9,1.7
			c-9.5,0.8-19,0.1-28.5,0.2c-3.7,0.1-7.3,0.1-11,0C238.4,442.5,232.5,442.3,226.5,442.2z"/>
		<path class="st7" d="M128.6,315.7c1.2,1.3,2.2,2.7,3.5,3.9c4,3.7,8.9,6.3,14.1,7.7c3.1,1,6.4,1.6,9.6,1.7c7.1,0,14-2.2,19.7-6.3
			c0.9-0.5,1.7-1.2,2.5-1.9c1.5-1.6,2.9-1.3,4.7-0.5c5.4,2.4,7.6,7,8,12.4c0.2,2.6-0.7,5.4-1.6,7.9c-0.7,1.3-1.7,2.3-3,3
			c-6,3.5-12.7,5.8-19.6,6.6c-5.6,0.7-11.3,1.2-16.9,0c-4.8-0.9-9.4-2.2-14-3.8c-7.7-3.1-14.3-8.4-19.1-15.1
			c-8.5-11.5-14.1-24.2-15.8-38.5c-0.9-7.2-1.1-14.5-0.8-21.7c0.2-3.9,1.7-7.5,3-11c2.2-5.5,5.4-10.6,9.4-14.9
			c5.5-6,12.6-8.5,20.6-8.8c5.6-0.2,11.1,0.8,16.6,1.7c2.1,0.3,4.3-0.1,6.1-1.3c1.2-0.8,2.5-1.4,3.8-1.9c3.7-1.3,6.3-0.7,8.1,3
			c0.3,0.5,0.4,1,0.6,1.5c-0.6,1-1.3,2-1.9,3c-1.1,2.3-2.9,4.3-5,5.6c-1.4,0.8-2.7,1.2-4.2,0.2c-0.8-0.5-1.7-0.9-2.6-1.2
			c-4.6-1.7-9.6-2.4-14.5-1.9c-2.3,0.3-4.6,0.3-6.9,0.8c-7.9,1.6-13.2,6.8-17.1,13.4c-2.7,4.9-4.4,10.2-5,15.8
			c-0.7,5.4-0.5,11,0.5,16.4c0.4,2.3,1,4.5,1.5,6.7c1.2,6.1,3.7,11.9,7.3,17c1.3,2.1,3.3,3.7,5.6,4.8c1.5,0.6,2.3,0.1,2.5-1.5
			C128.6,317.6,128.6,316.6,128.6,315.7z"/>
		<path class="st10" d="M159.5,220.5c0-1.2-1.1-1.2-1.8-1.6c-3.8-2-7.8-3.6-11.2-6.3c-3.7-2.9-7.3-6-8.5-10.8
			c-0.4-2.2-0.6-4.4-0.8-6.6c1.6,0.3,2.9-0.4,4.4-0.9c3.7-1.3,7.5-2.6,11.3-3.8c6.6-2.2,13.1-4.3,19.7-6.5c1.1-0.4,2.3-0.5,3.5-0.8
			l2.7,2.2c-1.8,0.4-3.2,0.8-4.6,1.2c-5.8,1.6-11.7,3.2-17.5,4.9c-3.1,0.8-5.9,2.4-8.3,4.7c-2.8,2.8-3.1,7.3-0.7,10.5
			c1,1.2,2.2,2.1,3.5,2.8c5.9,2.7,11.8,5.7,18.2,7.1c4.6,1,9.2,1.9,13.9,2.6c7.4,1.1,14.8,2.1,22.3,3c7.3,0.9,14.6,1.5,21.8,2.2
			c3.9,0.4,7.8,0.6,11.7,0.7c4.8,0.2,9.6,0.4,14.4,0.3c5.1-0.1,10.2-0.5,15.3-0.7c3.6-0.2,7.2-0.3,10.7-0.6
			c5.4-0.5,10.8-1.2,16.1-1.8c10.9-1.3,21.6-3.5,32-6.7c4.7-1.5,9.3-3.3,13.8-5.4c2-1.1,3.9-2.5,5.5-4.1c1.3-1.1,1.4-2.8,1-4.4
			c-0.7-2.6-2.4-4.8-4.7-6.1c-4.5-2.9-9.5-5-14.7-6.2c-11.5-2.6-23-5.2-34.8-6.4c-2.1-0.2-4.2-0.9-6-2c-1.9-1-3.8-1.9-5.8-2.7
			c0.5-0.3,1.1-0.5,1.7-0.5c4.6,0.6,9.1,1.1,13.7,1.9c6.6,1.1,13.3,2.3,19.9,3.7c7.8,1.8,15.6,4.1,23.1,6.9c4,1.4,7.7,3.5,11,6.1
			c2,1.6,4,3.6,3.1,6.5c-0.8,3.3-2.7,6.2-5.3,8.4c-3.6,2.8-7.6,5.3-11.3,7.9c-0.6,0.5-1.1,1.1-1.5,1.7c-2.8,0.8-5.6,1.7-8.5,2.4
			c-12.3,2.8-24.7,4.8-37.2,6.4c-13.9,1.8-27.8,2-41.8,2.2c-6,0.1-12.1-0.2-18.2-0.5c-6.8-0.3-13.7-0.9-20.5-1.4
			c-5.4-0.5-10.8-0.9-16.1-1.7c-7.7-1.3-15.3-2.9-23-4.5c-3.5-0.8-6.9-1.8-10.4-2.8l-1.1-0.2L159.5,220.5z"/>
		<path class="st11" d="M257.9,429c1.4-0.6,2.9-1.3,4.3-1.9c8.4-3.6,16.4-8.1,23.8-13.5c4.6-3.2,9-6.7,13.5-10.2
			c0.9-0.7,2.3-1.3,2.1-2.9l0,0c0.9,0.2,1.3-0.2,1.5-1l3.9-3.7c0.5,0.1,0.9,0.3,1.3,0.6c0.6,0.6,1.5,0.9,2.4,0.9
			c2.9,0.1,5.9,0.4,8.8,0.4c5.1,0.1,10.1,0.6,15.2,1.4c5.8,0.8,11.3,3,16.1,6.3c1.1,0.5,1.7,1.8,1.4,3c-0.3,1-0.8,2-1.4,2.9
			c-0.6,0.9-1.3,1.8-2,2.7c-3,1-5.9,2-8.8,2.9c-13,4.1-26.3,7.1-39.7,9.3c-7,1-14,1.7-21.1,2.2c-6.3,0.5-12.6,0.5-18.9,0.8
			C259.5,429.2,258.7,429.1,257.9,429z"/>
		<path class="st12" d="M344.5,291.7c0-1.7,0-3.4,0-5c-0.1-11.5-1.9-22.8-6.4-33.5c-1.9-4.5-3.7-9.1-6.8-13.1
			c-3.5-4.6-8.4-7.9-14-9.3c-2.5-0.7-5.1-1-7.7-1.6c-0.2,0-0.4-0.3-0.6-0.4c0.3-0.2,0.6-0.3,0.9-0.4c4.3-0.9,8.5-1.7,12.8-2.6
			c5.8-1.2,11.6-2.6,17-5.2c0.9-0.5,1.9-1.1,2.7-1.8l4.6-2.1l2.5-0.9l6.4-4.9c0.2,3.3,0.2,6.7,0,10c-0.6,5.7-0.1,11.5-0.4,17.2
			c-0.2,3.3-0.5,6.6-0.9,9.9c-0.3,3.1-0.5,6.3-1,9.4c-1.1,6.3-2.2,12.6-3.7,18.9c-1.1,4.6-2.9,9.1-4.4,13.6
			C345.2,290.6,344.9,291.1,344.5,291.7L344.5,291.7z"/>
		<path class="st13" d="M393.1,419.8c-1.1,2-2,3.8-3.1,5.5c-0.6,0.8-1.4,1.3-2.2,1.7c-3.9,1.8-7.8,3.8-11.8,5.3
			c-10.1,3.6-20.2,7.4-30.8,9.8c-6.1,1.4-12.2,3.1-18.4,4.3c-5.4,1-10.9,1.5-16.3,2.3c-6.6,0.9-13.3,1.2-20,1.5
			c-12,0.6-24.1,1.1-36.2,0.9c-8.5-0.2-16.9-0.6-25.4-0.9c-4.1-0.2-8.3-0.3-12.4-0.7c-13.2-1.1-26.4-2.3-39.4-4.5
			c-10.9-1.8-21.7-3.6-32.4-6.4c-10.4-2.7-21-4.9-31-9.1c-5.2-2.2-10.3-4.3-14.8-7.7c-2.3-1.7-3.5-4.2-4.2-7.5
			c1,0.9,1.6,1.4,2.2,1.9c4.5,4.2,9.9,6.9,15.5,9.3c11.9,5.1,24.3,8.8,37,11.1c5.4,1,10.8,2.2,16.2,3c8.9,1.4,17.8,2.9,26.7,4
			c6.6,0.8,13.3,1.2,20,1.6c5.6,0.4,11.3,0.7,17,0.8c7.3,0.1,14.7,0,22,0c5,0,10.1-0.1,15.1,0.2c6.7,0.5,13.4,0,20.1-0.3
			c8.2-0.4,16.4-1.3,24.5-2.1c7.4-0.8,14.9-1.8,22.3-2.9c12.6-1.7,24.9-5,36.7-9.8c7.7-3.2,15.5-6.5,22.4-11.3
			C392.5,419.8,392.6,419.8,393.1,419.8z"/>
		<path class="st11" d="M229.4,388.2c3.7,0.4,7.4,0.8,11.1,1.2c4.7,0.4,9.4,0.5,14.1,0.2c5.4-0.4,10.8-0.6,16.2-1.5
			c4.9-0.9,9.7-2.1,14.4-3.6c3.7-1,7.3-2.3,10.9-3.5c0.7,0.9,1.4,1.9,2.1,2.8c2,2.6,2.5,4.2,0.5,6.6c-1.9,2.4-4.3,4.5-7.1,6
			c-5.2,2.7-10.7,4.8-16.4,6.4c-4.3,1.4-8.7,2.3-13.3,2.7c-2.4,0.1-4.9,0.6-7.3,0.9c-0.9,0.1-1.9,0.3-2.8,0.5
			c-5.9-0.3-11.9-0.7-17.8-1c-0.5-0.1-0.9-0.2-1.4-0.4c-0.8-1.4-1.6-2.9-2.5-4.3C227.4,397.5,227.1,392.4,229.4,388.2z"/>
		<path class="st5" d="M128.6,315.7c0.1,1,0.1,1.9,0,2.9c-0.2,1.5-1,2-2.5,1.5c-2.3-1-4.2-2.7-5.6-4.8c-3.6-5.1-6.1-10.9-7.3-17
			c-0.5-2.3-1.1-4.5-1.5-6.7c-1-5.4-1.2-10.9-0.5-16.4c0.6-5.6,2.3-10.9,5-15.8c3.9-6.6,9.1-11.9,17.1-13.4c2.3-0.4,4.6-0.5,6.9-0.8
			c4.9-0.5,9.9,0.2,14.5,1.9c0.9,0.3,1.8,0.7,2.6,1.2c1.5,1,2.8,0.6,4.2-0.2c2.1-1.4,3.9-3.3,5-5.6c0.6-1,1.3-2,1.9-3
			c0.2,1.1,0.4,2.2,0.6,3.3c-0.2,0.3-0.4,0.6-0.5,1c-0.7,3.3-1.9,6.4-3.5,9.4c-1.5,2.9-5.1,5.5-9.2,4c-1.9-0.7-4-0.9-6.1-0.8
			c-3,0.2-6,0.7-8.9,1.3c-1.9,0.3-3.7,0.9-5.4,1.7c-2.1,1.1-4.1,2.4-6,3.9c-2.8,2-5.5,4.1-7.1,7.2c-0.5,1-0.9,2-1.4,3
			c-3.4,6.6-4,13.6-2.8,20.9c0.7,4.2,2.1,8.2,4.2,11.8c0.3,0.5,1,0.9,1.5,1.3l0.1,0.1v0.2c0.2,0.4,0.3,0.8,0.5,1.1l0,0
			c0.2,0.3,0.3,0.7,0.5,1L128.6,315.7z"/>
		<path class="st14" d="M248.1,213.5c1.4,2.1,2.7,4.3,2.8,7.1c-0.9,0.1-1.6,0.2-2.3,0.1c-6-0.1-11.9-0.2-17.9-0.5
			c-4.6-0.3-9.1-0.9-13.7-1.4c-4-0.4-8.1-0.6-12.1-1c-3.1-0.3-6.3-0.8-9.4-1.3c-4.6-0.7-9.1-1.3-13.6-2.1
			c-5.7-0.9-11.5-1.7-16.9-3.7c-1-0.4-1.9-0.8-2.9-1.2c0.2-0.4,0.3-0.6,0.4-0.7c6.2-3,12.7-5,19.5-5.9c0.7,0.6,1.5,1.1,2.4,1.4
			c7,2.4,14.1,4.3,21.4,5.7c4.5,0.7,8.9,1.4,13.4,2c3,0.4,6,0.7,9,1c3.1,0.3,6.3,0.7,9.5,0.9c2.9,0.2,5.9,0.1,8.9,0
			C246.9,213.9,247.5,213.7,248.1,213.5z"/>
		<path class="st8" d="M229.4,388.2c-2.2,4.1-1.9,9.2,0.8,13c0.9,1.4,1.6,2.8,2.5,4.3c-1.8-0.2-3.6-0.3-5.4-0.6
			c-7.6-1.2-15.1-2.5-22.3-5.3c-4.2-1.6-8.2-3.5-12.3-5.3c-1.3-0.7-2.4-1.5-3.6-2.4c-0.4-1.5-0.2-3.1,0.6-4.4
			c1.3-2.5,2.6-4.9,3.9-7.4c3.1,1.1,6.1,2.3,9.2,3.2c8.1,2.3,16.4,3.9,24.8,4.7C228.3,388,228.8,388.1,229.4,388.2z"/>
		<path class="st0" d="M248.1,213.5c-0.6,0.2-1.2,0.4-1.8,0.5c-3,0.1-5.9,0.1-8.9,0c-3.2-0.2-6.3-0.6-9.5-0.9c-3-0.3-6-0.6-9-1
			c-4.5-0.6-8.9-1.2-13.4-2c-7.3-1.3-14.4-3.3-21.4-5.7c-0.8-0.4-1.6-0.9-2.4-1.4c3.9-0.5,7.7-0.9,11.6-1.4c0.6-0.1,1.3,0,1.9-0.1
			c3.4-0.3,6.8-0.7,10.2-0.9c5-0.3,10-0.7,15-0.5c4.9,0.1,9.7,1.2,14,3.5C239.4,206.3,244.6,208.7,248.1,213.5z"/>
		<path class="st15" d="M345.5,202.6c-3.3,3.6-4.1,4.1-9,5.4c-1.3-2.6-3.8-3.6-6.5-4.3c-7.7-2.1-15.5-3.6-23.5-4.6
			c-1.6-0.2-3.6,0-4.9-0.9s-1.6-2.8-2.4-4.2c-1.3-2.1-2.6-4.2-3.9-6.3c-0.3-0.4-0.6-0.9-1.1-1.7c1.3,0.1,2.2,0,3.1,0.2
			c11.1,1.6,22.1,3.8,33,6.7c3.5,1.1,6.9,2.6,10.1,4.3C342.9,198.2,344.7,200.1,345.5,202.6z"/>
		<path class="st16" d="M347,216.8l-4.6,2.1c-0.4,0-0.9,0.1-1.3,0.2c-1.6,0.5-3.1,1.1-4.7,1.6c0.4-0.6,0.9-1.2,1.5-1.7
			c3.8-2.7,7.7-5.1,11.3-7.9c2.6-2.2,4.4-5.1,5.3-8.4c0.9-2.9-1.1-4.9-3.1-6.5c-3.3-2.7-7-4.7-11-6.1c-7.5-2.8-15.2-5.2-23.1-6.9
			c-6.6-1.4-13.2-2.6-19.9-3.7c-4.5-0.8-9.1-1.3-13.7-1.9c-0.6,0.1-1.2,0.2-1.7,0.5l-1.4-0.3l-0.4-0.1c-6.2-1.1-12.5-1.6-18.8-1.3
			c-3.4,0.1-6.7,0.4-10,0.4c-4.3,0-8.6-0.8-12.7-2.3l0.1-0.5c3.4-0.1,6.8-0.2,10.2-0.3c1.3,0,2.5,0.2,3.8,0.2
			c4.6,0.1,9.3,0,13.9,0.2c16,0.8,31.9,2.1,47.6,5.4c6.4,1.4,12.8,2.4,19.1,4.2c6.4,1.9,12.8,3.9,18.5,7.6c1.5,1,2.9,2.2,4.1,3.6
			c3.1,4.7,2.5,10.9-1.4,14.9c-1.9,1.7-3.7,3.6-5.5,5.3L347,216.8z"/>
		<path class="st15" d="M156.9,207.6c-2.3-0.8-4.3-2.1-6.1-3.8c-2.2-2.1-2.2-3.7-0.2-6c1.3-1.5,3.1-2.6,5-3.1c6-1.6,12-3.2,18-4.7
			c2.5-0.6,5-1.2,7.5-1.6c0.7-0.1,1.4,0,1.9,0.4c4.7,3.4,9.8,6,15.3,7.9c0.1,0,0.2,0.2,0.4,0.3c-5.3,0.5-10.5,1-15.6,1.6
			c-7.9,1-15.6,3.2-22.9,6.6C159,206,157.9,206.7,156.9,207.6z"/>
		<path class="st17" d="M390.5,416.6c0-0.8,0.2-1.6,0.4-2.3c1.7-2.9,0.9-5.7-0.2-8.5c-1.8-4.5-5.1-7.8-8.7-10.9s-8.2-5.1-12.5-7.3
			c-7.5-3.6-15.2-6.6-23.1-9c-6.3-2.1-12.8-3.7-19.4-4.8c-3.8-0.6-7.5-1-11.3-1.5c-0.4-0.1-0.7-0.3-1-0.5c0.6-0.4,1.1-0.9,1.6-1.4
			c0.7-0.8,1.8-1.1,2.8-0.8c13.7,1.9,27.3,5,40.4,9.3c6.6,2.1,13.3,4,19.3,7.5c3.3,1.9,6.5,4,9.6,6.3c4.4,3.3,7.2,8.3,7.8,13.8
			c0.1,0.5,0.1,1,0,1.4C395.4,411.3,393.4,414.4,390.5,416.6z"/>
		<path class="st8" d="M348.8,414c0.7-0.9,1.4-1.7,2-2.7c0.6-0.9,1.1-1.9,1.4-2.9c0.3-1.2-0.3-2.5-1.4-3c-4.8-3.3-10.3-5.4-16.1-6.3
			c-5-0.8-10.1-1.3-15.2-1.4c-2.9,0-5.9-0.3-8.8-0.4c-0.9,0.1-1.7-0.3-2.4-0.9c-0.4-0.3-0.8-0.5-1.3-0.6c0.4-1.8,0.8-3.5,1.3-5.5
			c2.7,0.2,5.6,0.3,8.4,0.5c10.8,0.9,21.5,2.6,31.7,6.5c3.9,1.3,7.3,3.7,9.7,7c1.6,2.2,1.5,3.6-0.4,5.5c-0.4,0.5-0.9,0.9-1.5,1.2
			C353.8,412.1,351.3,413,348.8,414z"/>
		<path class="st18" d="M123.7,307.5c-0.5-0.4-1.2-0.8-1.5-1.3c-2.1-3.6-3.6-7.7-4.2-11.8c-1.1-7.3-0.6-14.3,2.8-20.9
			c0.5-1,0.9-2,1.4-3c1.6-3.1,4.3-5.3,7.1-7.2c1.9-1.4,3.9-2.7,6-3.9c1.7-0.8,3.5-1.4,5.4-1.7c2.9-0.6,5.9-1.1,8.9-1.3
			c2.1-0.2,4.1,0.1,6.1,0.8c4,1.5,7.7-1.1,9.2-4c1.6-3,2.7-6.1,3.5-9.4c0.1-0.4,0.3-0.7,0.5-1c1,3.6,0.3,7.1-0.9,10.5
			c-0.8,2.1-1.8,4.1-2.9,6c-0.8,1.5-4.7,2.9-6.3,2.3c-2.6-0.9-5.3-1.3-8-1.2c-4,0.1-8-0.3-11.9,0.8c-9.8,2.7-15.6,9.1-17.6,19
			c-1.8,9-1,18.4,2.3,27C123.7,307.2,123.7,307.4,123.7,307.5z"/>
		<path class="st18" d="M251.9,406.9c0.9-0.2,1.9-0.4,2.8-0.5c2.4-0.3,4.8-0.8,7.3-0.9c4.5-0.4,8.9-1.3,13.3-2.7
			c5.7-1.6,11.2-3.7,16.4-6.4c2.7-1.5,5.1-3.6,7.1-6c2-2.4,1.5-4-0.5-6.6c-0.7-0.9-1.4-1.9-2.1-2.8l3.4-1.4c1.4,2.7,2.7,5.3,4,8
			c0.3,0.7,0.6,1.5,0.7,2.3c0.5,3.7,0.6,4-2.5,5.7c-3.2,1.8-6.5,3.3-10,4.4c-7.5,2.6-15.3,4.5-23.2,5.6c-4.6,0.6-9.3,1.1-14,1.5
			C253.6,407.1,252.7,407,251.9,406.9z"/>
		<path class="st0" d="M302.8,212.5c-0.1-3.2-0.2-6.4-0.3-10c0.7-0.1,1.3-0.1,2,0c6.3,0.9,12.6,1.8,18.9,2.9
			c1.8,0.4,3.5,0.8,5.2,1.4c-0.8,0.6-1.5,1.6-2.4,1.8c-3.6,1-7.2,1.8-10.9,2.5C311.3,211.7,307,212,302.8,212.5z"/>
		<path class="st16" d="M176.1,183.3c-1.2,0.3-2.3,0.4-3.5,0.8c-6.6,2.1-13.1,4.3-19.7,6.5c-3.8,1.3-7.5,2.5-11.3,3.8
			c-1.4,0.5-2.8,1.2-4.4,0.9c0-0.3-0.1-0.7-0.1-1c2.7-1.6,5.3-3.2,8-4.6c2.4-1.2,4.9-1.9,7.3-2.9c6.9-2.8,14.1-4.3,21.4-5.8
			L176.1,183.3z"/>
		<path class="st14" d="M302.8,212.5c4.2-0.5,8.5-0.8,12.7-1.5c3.6-0.6,7.3-1.5,10.8-2.5c0.9-0.2,1.6-1.2,2.4-1.8
			c1.6,0.2,3.1,0.4,4.3,1.9c-2,1.7-4.4,2.1-6.6,2.7c-3.6,1.1-7.2,1.8-10.8,2.7c-3.3,0.8-6.6,1.5-10,2.2c-1,0.1-2,0.1-3,0
			C302.6,215,302.7,213.7,302.8,212.5z"/>
		<path class="st0" d="M347,216.8l2.2-1.6c0.1,0.2,0.3,0.4,0.4,0.7L347,216.8z"/>
		<path class="st7" d="M303.1,399.5c-0.2,0.8-0.6,1.2-1.5,1L303.1,399.5z"/>
		<path class="st18" d="M124.3,309c-0.2-0.4-0.3-0.8-0.5-1.1C124,308.2,124.2,308.6,124.3,309z"/>
		<path class="st18" d="M124.8,309.9c-0.2-0.3-0.3-0.7-0.5-1C124.5,309.3,124.6,309.6,124.8,309.9z"/>
		<path class="st10" d="M280.3,177.6l0.4,0.1h-0.2L280.3,177.6z"/>
		<path class="st7" d="M234.5,384.6l0.6,0.1L234.5,384.6z"/>
		<path class="st19" d="M160.4,91c0.3-1.3,0.7-2.6,1.1-3.9c3.5-8.6,10.1-13.5,18.9-15.6c7.8-1.9,15.5-0.9,23,1.8
			c2.1,0.9,4,2.3,5.4,4.2c1.4,1.7,1,3.8-0.1,5.6c-1.5,2.4-3.7,4.3-6.4,5.2c-1.3,0.5-2.7,0.9-4.1,1.2c-5.6,1.1-10.8,3.6-15.3,7.2
			c-1.8,1.4-3.5,2.7-5.4,4c-4.5,3.1-9.3,2.7-13.3-1C161.9,97.4,160.5,94.3,160.4,91z"/>
		<path class="st20" d="M375.3,306.4c0.3,1.6,0.6,3.3,1.1,4.9c1.8,6,5.1,11,10.7,14.3c-0.2,0.2-0.4,0.3-0.6,0.5
			c-5.5,2.7-8.7,7.4-11,12.8c-0.3,0.7-0.6,1.5-1,2.2c-1-5.5-2.9-10.8-5.8-15.5c-0.7-0.9-0.7-2.1,0-3c1-1.5,1.9-3.1,2.6-4.8
			C372.8,314,374,310.2,375.3,306.4z"/>
		<path class="st21" d="M375.3,306.4c-1.3,3.8-2.5,7.5-4,11.2c-0.7,1.7-1.6,3.3-2.6,4.8c-0.7,0.9-0.7,2.1,0,3
			c2.9,4.8,4.8,10.1,5.8,15.6c-0.4,1.5-0.9,3-1.5,5.1c-1-4.5-2-8.5-4-12.1c-1.8-3.8-4.8-6.9-8.4-9c1.4-1.2,2.6-2.3,3.8-3.5
			c4.8-4.7,7.4-10.7,9.3-17l0.6-1.8h0.7L375.3,306.4z"/>
		<path class="st20" d="M375,302.7h-0.7c0.2-0.7,0.4-1.5,0.5-2.2h0.2V302.7z"/>
		<path class="st20" d="M107.7,153.5c-1.4-4.9-3.9-9.4-7.3-13.2c-1.3-1.4-2.9-2.7-4.2-3.9c2.2-1.3,4.4-2.6,6.5-4.2
			c3.2-2.6,5-6.3,6.4-10.2c0.3-0.8,0.5-1.5,0.8-2.2c0,0.8,0.1,1.6,0.1,2.4c0,3.7,1,7.4,2.9,10.6c1,1.6,2.3,3.1,3.3,4.4
			c-1.5,1.9-3,3.5-4.3,5.4C109.7,146,108.8,149.8,107.7,153.5z"/>
		<path class="st21" d="M107.7,153.5c1.1-3.7,2-7.5,4.2-10.8c1.2-1.9,2.8-3.6,4.3-5.4c-1-1.3-2.3-2.8-3.3-4.4c-2-3.2-3-6.9-2.9-10.6
			c0-0.8,0-1.6-0.1-2.4c0-0.3,0.1-0.6,0.2-0.9c2.3,8.5,6.5,15.5,15.6,19c-9.4,2.8-14.8,8.8-17.3,18.1L107.7,153.5z"/>
		<path class="st22" d="M304.6,60.4c5.6,0.4,10.3,1.4,14.6,3.8c2.2,1.3,4.1,3.2,5.2,5.4c0.6,1.1,1,2.3,1.6,3.5
			c1.4,2.8,0.5,5.3-1.2,7.6c-1.1,1.5-2,1.7-3.7,0.8c-1.8-0.9-3.5-1.9-5.2-3c-3.7-2.6-7.8-4.7-12.1-6.2c-1.9-0.6-3.7-1.6-5.1-3.1
			c-0.3-0.3-0.5-0.6-0.8-0.9c-2.5-3.3-1.9-5.5,1.9-6.9C301.4,61,303,60.6,304.6,60.4z"/>
		<path class="st20" d="M127.1,173.8l-5.3-6l4.3-7.2l3.2,7.2L127.1,173.8z"/>
		<path class="st21" d="M127.1,173.8l2.2-5.9l-3.2-7.2l0.3-1.3c1.7,3.3,3,6.5,6,8.2l-5,6.7L127.1,173.8z"/>
		<path class="st20" d="M352.2,354.3l-1.2,2c-1-2.1-2-4.1-3.1-6.3c2.1-1.5,3.8-3.6,4.9-6c0.5,1.6,1.1,3.3,1.6,4.9
			c0,0.6-0.1,1.2-0.4,1.7c-0.4,1-0.8,2-1.3,3v-0.1L352.2,354.3z"/>
		<path class="st21" d="M352.7,353.6c0.4-1,0.9-2,1.3-3c0.3-0.5,0.4-1.1,0.4-1.7c-0.4-1.7-1-3.3-1.6-4.9l0.8-0.3
			c0.1,0.4,0.3,0.9,0.5,1.3c1,1.9,2,3.7,3,5.6L352.7,353.6z"/>
		<path class="st21" d="M352.2,354.3l0.5-0.7L352.2,354.3z"/>
		<path class="st23" d="M279.1,238.2l16.6-2.1c3.9-0.5,7.7-1.5,11.6-1.4c5.7,0.1,11,1.8,14.5,6.9c2.6,3.8,5.4,7.5,7.6,11.5
			c2.7,4.7,4.5,9.7,5.4,15c0.6,3.4,1,6.7,1.4,10.1c0.2,1.8-0.3,2.2-2,2.4c-2.3,0.2-4.6,0.5-6.8,0.8c-1.8,0.3-2,0.1-3.1-1.4
			c-2.8-3.6-5.6-7.1-8.5-10.6c-1.7-2-3.4-4-5.3-5.8c-4-3.7-8-7.3-12.1-10.8s-8.2-6.6-12.3-9.8c-1.5-1.2-3.2-2.1-4.7-3.2
			C280.6,239.5,280.1,239,279.1,238.2z"/>
		<path class="st24" d="M336.3,220.7c1.6-0.6,3.1-1.1,4.7-1.6c0.4-0.1,0.9-0.2,1.3-0.2c-0.9,0.7-1.8,1.2-2.7,1.8
			c-5.4,2.6-11.2,4-17,5.2c-4.3,0.9-8.5,1.7-12.8,2.6c-0.3,0.1-0.6,0.2-0.9,0.4c-2.6,0.4-5.2,0.8-7.8,1.1
			c-7.7,0.9-15.5,1.9-23.2,2.7c-3.8,0.4-7.6,0.4-11.5,0.5c-8.4,0.2-16.8,0.5-25.1,0.4c-5.2,0-10.3-0.6-15.5-0.9
			c-3.1-0.2-6.2-0.3-9.3-0.5c-4.2-0.4-8.4-0.9-12.6-1.3c-0.8-0.1-1.6-0.1-2.4-0.1c-5.2-0.8-10.4-1.4-15.5-2.4
			c-9.1-1.9-18.2-4-27.2-6.1c-4.5-1.1-8.5-3.5-12.5-5.9l0.5-0.4c3.6,1.4,7.1,2.8,10.7,4.1c0.7,0.2,1.4,0.4,2.1,0.5h0.1l1.1,0.3
			c3.5,0.9,6.9,2,10.4,2.8c7.6,1.6,15.3,3.3,23,4.5c5.3,0.9,10.8,1.3,16.1,1.7c6.8,0.6,13.6,1.1,20.5,1.4c6.1,0.3,12.1,0.6,18.2,0.5
			c14-0.2,27.9-0.5,41.8-2.2c12.5-1.6,24.9-3.6,37.2-6.4C330.7,222.4,333.5,221.5,336.3,220.7z"/>
		<path class="st23" d="M302,367.9c-1.5-2.3-1.5-2.3,0.1-3.9c2.6-2.7,5.1-5.5,7.7-8.1c1-1.1,2.3-2,3.4-3c0.7-0.6,1.3-1.4,2-2
			l6.1-6.4c0.1-0.1,0.1-0.1,0.2-0.1c2.5-1.3,5-0.9,8-0.3C322.1,353.9,312.8,362.1,302,367.9z"/>
		<path class="st23" d="M330.7,290.6c1.2-1.6,3.3-2.2,5.2-1.6c1.8,3.1,0.4,5.9-0.8,8.8C333,296.6,331.8,294.6,330.7,290.6z"/>
		<path class="st23" d="M289.1,373c0.7-1.4,2.1-2.4,3.7-2.6c0.6,0,1.2,0.2,1.5,0.7c0.1,0.6-0.1,1.2-0.5,1.6
			C292.4,373.6,290.8,374.3,289.1,373z"/>
		<path class="st12" d="M344.5,291.7l-0.2,0.6L344.5,291.7L344.5,291.7z"/>
		<path class="st0" d="M146.8,215.9l-0.5,0.4l-2.5-1.6l0.2-0.3L146.8,215.9z"/>
		<path class="st7" d="M160.7,220.8l-1.1-0.3L160.7,220.8z"/>
	</g>
</g>
</svg>
