<?xml version="1.0" encoding="utf-8"?>
<!-- Generator: Adobe Illustrator 24.1.2, SVG Export Plug-In . SVG Version: 6.00 Build 0)  -->
<svg version="1.1" id="Layer_2_copy" xmlns="http://www.w3.org/2000/svg" xmlns:xlink="http://www.w3.org/1999/xlink" x="0px"
	 y="0px" viewBox="0 0 748.2 447" style="enable-background:new 0 0 748.2 447;" xml:space="preserve">
<style type="text/css">
	.st0{fill:#677492;}
	.st1{fill:#2A3C66;}
	.st2{fill:#FF99CC;}
	.st3{fill:#FFA3D1;}
	.st4{fill:#152957;}
	.st5{opacity:0.3;fill:#FFFFFF;enable-background:new    ;}
	.st6{fill:#FFFFFF;}
	.st7{fill:#B0C6F6;}
	.st8{fill:#BBC1CE;}
	.st9{opacity:4.000000e-02;fill:#FFFFFF;enable-background:new    ;}
	.st10{fill:#82A5F1;}
	.st11{opacity:0.5;fill:#FFFFFF;enable-background:new    ;}
	.st12{enable-background:new    ;}
	.st13{opacity:0.2;}
</style>
<rect x="161.5" y="258" class="st0" width="409.9" height="189"/>
<path class="st1" d="M120.5,288.8c0.8,7.7,13,13.8,28,13.8s27.2-6.1,28-13.8H120.5z"/>
<path class="st2" d="M176.4,288.8c0.8,7.7,13,13.8,28,13.8s27.2-6.1,28-13.8H176.4z"/>
<path class="st1" d="M232.4,288.8c0.8,7.7,13,13.8,28,13.8s27.2-6.1,28-13.8H232.4z"/>
<path class="st2" d="M287.4,288.8c0.8,7.7,13,13.8,28,13.8s27.2-6.1,28-13.8H287.4z"/>
<path class="st3" d="M343.3,288.8c0.8,7.7,13,13.8,28,13.8s27.2-6.1,28-13.8H343.3z"/>
<path class="st1" d="M622.1,288.8c-0.8,7.7-13,13.8-28,13.8s-27.2-6.1-28-13.8H622.1z"/>
<path class="st2" d="M566.2,288.8c-0.8,7.7-13,13.8-28,13.8s-27.2-6.1-28-13.8H566.2z"/>
<path class="st1" d="M510.2,288.8c-0.8,7.7-13,13.8-28,13.8s-27.2-6.1-28-13.8H510.2z"/>
<path class="st2" d="M455.2,288.8c-0.8,7.7-13,13.8-28,13.8s-27.2-6.1-28-13.8H455.2z"/>
<path class="st1" d="M399.3,288.8c-0.8,7.7-13,13.8-28,13.8s-27.2-6.1-28-13.8H399.3z"/>
<polygon class="st4" points="363.5,288.8 120.4,288.8 201.2,233.3 363.5,233.3 "/>
<polygon class="st2" points="357.3,288.8 176.5,288.8 240.3,233.3 363.5,233.3 "/>
<polygon class="st4" points="357.3,288.8 232,288.8 278.9,233.3 363.5,233.3 "/>
<polygon class="st2" points="367.6,288.8 287.4,288.8 317.5,233.3 366.1,233.3 "/>
<polygon class="st4" points="371.3,233.3 356.5,233.3 343.3,288.8 371.3,288.8 "/>
<polygon class="st1" points="379.1,288.8 622.2,288.8 541.4,233.3 379.1,233.3 "/>
<polygon class="st2" points="385.3,288.8 566.1,288.8 502.3,233.3 379.1,233.3 "/>
<polygon class="st4" points="385.3,288.8 510.6,288.8 463.7,233.3 379.1,233.3 "/>
<polygon class="st2" points="375,288.8 455.2,288.8 425.1,233.3 376.5,233.3 "/>
<polygon class="st4" points="371.3,233.3 386.1,233.3 399.3,288.8 371.3,288.8 "/>
<rect x="366.1" y="233.3" class="st4" width="8.9" height="55.5"/>
<polygon class="st5" points="276.6,228.3 276.6,261.4 276.6,276 468.1,276 468.1,228.3 "/>
<rect x="275.1" y="226" class="st6" width="191.5" height="47.7"/>
<rect x="279.5" y="231.1" class="st6" width="182.6" height="37.6"/>
<rect x="177.2" y="303.3" class="st4" width="73.1" height="143.3"/>
<rect x="180.9" y="306.8" class="st7" width="66.5" height="66.5"/>
<rect x="180.9" y="377.1" class="st7" width="66.5" height="66.5"/>
<path class="st8" d="M215.4,340.8c0,0.7-0.6,1.3-1.3,1.3s-1.3-0.6-1.3-1.3c0-0.7,0.6-1.3,1.3-1.3l0,0
	C214.8,339.5,215.4,340.1,215.4,340.8z"/>
<polygon class="st9" points="177.2,360.5 177.2,303.3 250.3,303.3 "/>
<rect x="257" y="303.6" class="st4" width="296.5" height="99.5"/>
<rect x="260.5" y="307.7" class="st7" width="287.2" height="91.2"/>
<path class="st10" d="M286,368.8c-1.9,0.1-3.4,1.6-3.6,3.5v26.5h2.1v-27C284.5,370.7,285,369.6,286,368.8z"/>
<path class="st10" d="M447.9,368.8c0.9,0.8,1.5,1.9,1.5,3.1v27h2.1v-26.6C451.3,370.4,449.8,368.9,447.9,368.8z"/>
<path class="st10" d="M381.9,366.5c0.3,0.8,0.6,1.5,0.8,2.3c0.4-0.5,0.8-1,1.2-1.5c1.3-1.8,2.2-2.7,1.1-3.5c-0.5-0.4-2.1,0-3.4,0.4
	v0.9v0.1c0,0.1,0,0.2,0,0.3v0.5c0,0.1,0,0.1,0,0.2v0.1L381.9,366.5z"/>
<path class="st10" d="M291.2,368.8c0.9,0.8,1.5,1.9,1.5,3.1v27h2.1v-26.6C294.6,370.4,293.1,368.9,291.2,368.8z"/>
<path class="st10" d="M397.3,376.7c0.7-0.2,1.1-1,0.9-1.8c-0.2-0.5-0.7-0.7-1.3-0.6v0.1c0,0.9-0.2,1.7-0.7,2.4
	C396.7,376.9,397,376.9,397.3,376.7z"/>
<path class="st10" d="M341.1,374.3c-0.5-0.1-1,0.2-1.3,0.6c-0.2,0.7,0.2,1.5,0.9,1.8c0.3,0.1,0.7,0.2,1,0.1
	c-0.5-0.7-0.7-1.6-0.7-2.4C341.1,374.5,341.1,374.4,341.1,374.3z"/>
<path class="st10" d="M442.6,368.8c-1.9,0.1-3.5,1.6-3.6,3.5v26.5h2.1v-27C441.2,370.7,441.7,369.5,442.6,368.8z"/>
<path class="st10" d="M411.2,397.3l1.8-1v-17.9h-15.1V378h-3.4c0.7,0,1.3-0.3,1.7-0.9c0.4,0.1,0.9,0,1.3-0.2
	c0.9-0.3,1.4-1.3,1.2-2.2c-0.3-0.6-1-0.9-1.6-0.8v-0.3h-8.8c0,0.2,0,0.5,0,0.7c0,2,1.1,3.6,2.6,3.6h-3.3v0.4h-5.5
	c1.7-2.5,1.7-5.7,1.2-8.1c0.4-0.9,0.9-1.7,1.5-2.4c1.1-1.7,2.3-3.3,0.8-4.4c-0.7-0.5-2.6-0.1-3.7,0.3l0,0v-0.3v-0.1v-0.2
	c0-0.3,0.1-0.7,0.1-1l0,0c0.2,0,0.3-0.1,0.4-0.3c0-0.2-0.1-0.3-0.3-0.4H382h-0.1l-0.1-0.1h-0.1l-0.1-0.1l-0.1-0.1h-0.1l-0.2-0.1
	h-0.1l-0.2-0.1l0,0l-0.3-0.1l0,0c-0.2,0-0.4-0.1-0.6-0.1h-0.2c0-0.2-0.3-0.3-0.6-0.3s-0.5,0.1-0.6,0.3c-0.8,0-1.6,0.2-2.3,0.7h-0.1
	c-0.2,0-0.3,0.1-0.3,0.3l0,0l0,0v0.1h-1.5c0.8,0.1,3,0.8,1.5,4.6c-0.6,1.5-2.8,7.6,0.1,11.9h-3.4L370,373v-4.3h-9.6v9.6h-9.3V378
	h-3.4c1.4,0,2.6-1.6,2.6-3.6c0-0.2,0-0.5-0.1-0.7h-8.8v0.3c-0.7-0.1-1.3,0.2-1.6,0.8c-0.2,0.9,0.3,1.9,1.2,2.2
	c0.4,0.2,0.9,0.3,1.3,0.2c0.4,0.5,1,0.8,1.7,0.9h-3.4v0.4h-19.2V391l0,0v8h90.3L411.2,397.3z M397,374.5v-0.1c0.5-0.1,1,0.2,1.3,0.6
	c0.2,0.7-0.2,1.5-0.9,1.8c-0.3,0.1-0.7,0.2-1,0.1C396.8,376.1,397,375.3,397,374.5z M340.8,376.7c-0.7-0.2-1.1-1-0.9-1.8
	c0.2-0.5,0.8-0.7,1.3-0.6v0.1c0,0.9,0.2,1.7,0.7,2.4C341.5,376.9,341.1,376.9,340.8,376.7L340.8,376.7z M381.7,365.9v-0.5
	c0-0.1,0-0.2,0-0.3V365v-0.9c1.3-0.4,2.9-0.8,3.4-0.4c1.1,0.9,0.1,1.8-1.1,3.5c-0.3,0.5-0.8,1-1.1,1.5c-0.2-0.8-0.5-1.6-0.8-2.3
	l-0.1-0.3V366L381.7,365.9L381.7,365.9z"/>
<path class="st10" d="M392.1,372c0,0-0.8-1.9,0.2-2.8c0.4-0.4,0.1-1.4,0-2.2C392.6,369,390.5,369.2,392.1,372z"/>
<path class="st10" d="M392.6,372.6l-0.2,0.3C392.5,372.8,392.6,372.7,392.6,372.6z"/>
<path class="st10" d="M392.2,370c-0.1,0.6-0.3,1.4,0,1.6s0.5,0.6,0.4,1C393.4,370.8,392,371.3,392.2,370z"/>
<path class="st10" d="M346.1,372c1.6-2.9-0.6-3-0.2-4.9c-0.1,0.8-0.4,1.8,0,2.2C346.9,370.2,346.1,372,346.1,372z"/>
<path class="st10" d="M345.5,372.6c0,0.1,0.1,0.2,0.2,0.3L345.5,372.6z"/>
<path class="st10" d="M345.9,371.6c0.3-0.3,0.1-1,0-1.6c0.3,1.4-1.2,0.9-0.4,2.7C345.4,372.2,345.5,371.8,345.9,371.6z"/>
<path class="st10" d="M439,372.3c0.2-1.9,1.7-3.4,3.6-3.5c-0.9,0.8-1.5,1.9-1.5,3.1v27h8.1v-27c0-1.2-0.5-2.4-1.5-3.1
	c1.9,0.1,3.4,1.6,3.6,3.5v26.5h1.8v-26.5c0-2.8-2.8-5-6.1-5h-3.7c-3.4,0-6.1,2.3-6.1,5v26.5h1.8L439,372.3z"/>
<path class="st10" d="M282.4,372.3c0.2-1.9,1.7-3.4,3.6-3.5c-0.9,0.8-1.5,1.9-1.5,3.1v27h8.2v-27c0-1.2-0.6-2.4-1.5-3.1
	c1.9,0.1,3.4,1.6,3.6,3.5v26.5h1.8v-26.5c0-2.8-2.8-5-6.1-5h-3.7c-3.4,0-6.1,2.3-6.1,5v26.5h1.8L282.4,372.3z"/>
<polygon class="st11" points="547.7,307.7 371.7,307.7 260.5,345.6 260.5,398.9 281.9,398.9 547.7,308.3 "/>
<polygon class="st11" points="324.4,398.9 547.7,322.8 547.7,315.2 302.1,398.9 "/>
<path class="st4" d="M541.2,233.5v-16.3c0-2.9-4.4-5.2-9.9-5.2H211.8c-5.5,0-9.9,2.4-9.9,5.2v16.3H541.2z"/>
<g class="st12">
	<path d="M294.2,261.2c0,1,0.2,1.8,0.5,2.4c0.4,0.7,1,1,1.9,1h0.2c0.4,0,0.5,0.2,0.5,0.5v1.1c0,0.4-0.2,0.5-0.5,0.5h-11.1
		c-0.4,0-0.5-0.2-0.5-0.5v-1.1c0-0.4,0.2-0.5,0.5-0.5h0.3c0.9,0,1.5-0.3,1.9-1c0.3-0.7,0.5-1.5,0.5-2.4v-15.8c0-1-0.2-1.8-0.6-2.4
		c-0.4-0.6-1.1-1-2-1h0c-0.4,0-0.5-0.2-0.5-0.5v-1.1c0-0.4,0.2-0.5,0.5-0.5H299c1.9,0,3.6,0.4,5.1,1.1s2.6,1.7,3.3,3
		c0.8,1.2,1.2,2.5,1.2,3.9c0,1.5-0.4,2.9-1.1,4.2c-0.7,1.2-2,2.2-3.7,2.9c-1.7,0.7-4,1.1-6.9,1.1h-2.7V261.2z M296.3,253.4
		c2.4,0,4.2-0.4,5.3-1.3c1.1-0.9,1.7-2.3,1.7-4.3c0-1.7-0.5-3-1.5-4.1c-1-1.1-2.4-1.7-4.2-1.7H294v11.4H296.3z"/>
	<path d="M323.7,239.3c1.9,0,3.7,0.4,5.3,1.1c1.7,0.7,3.1,1.8,4.4,3.1c1.3,1.3,2.2,2.8,3,4.5c0.7,1.7,1.1,3.5,1.1,5.4
		s-0.3,3.7-1,5.4c-0.7,1.7-1.7,3.1-2.9,4.4c-1.2,1.2-2.7,2.2-4.3,2.9c-1.6,0.7-3.3,1.1-5.1,1.1c-1.9,0-3.7-0.4-5.3-1.1
		c-1.7-0.7-3.1-1.8-4.4-3.1c-1.2-1.3-2.2-2.8-2.9-4.5c-0.7-1.7-1.1-3.5-1.1-5.4c0-1.9,0.3-3.6,1-5.3c0.7-1.7,1.6-3.1,2.8-4.4
		c1.2-1.3,2.6-2.3,4.2-3C320,239.7,321.8,239.3,323.7,239.3z M323.3,242.5c-2.4,0-4.3,0.8-5.6,2.4c-1.3,1.6-2,3.7-2,6.3
		c0,1,0.1,2.1,0.3,3.3c0.2,1.2,0.5,2.3,1,3.4c0.4,1.1,1,2.1,1.7,3c0.7,0.9,1.5,1.6,2.4,2.2c0.9,0.6,2,0.8,3.2,0.8
		c1.6,0,3-0.4,4.2-1.1c1.1-0.7,2-1.8,2.6-3.1c0.6-1.3,0.9-2.8,0.9-4.5c0-0.9-0.1-2-0.3-3.1c-0.2-1.2-0.5-2.3-1-3.4
		c-0.4-1.1-1-2.2-1.7-3.1s-1.5-1.7-2.5-2.3C325.6,242.8,324.5,242.5,323.3,242.5z"/>
	<path d="M361.9,259.1c0.2,0.1,0.3,0.2,0.3,0.4c0,0,0,0.1,0,0.1c0,0,0,0.1-0.1,0.2l-3.4,7.1c-0.1,0.2-0.2,0.3-0.4,0.3
		c0,0-0.1,0-0.2-0.1c-0.1,0-0.2-0.1-0.3-0.3c-0.1-0.1-0.4-0.2-0.7-0.2h-18c-0.4,0-0.5-0.2-0.5-0.5v-1.1c0-0.4,0.2-0.5,0.5-0.5
		c1.8,0,2.7-1.1,2.7-3.4v-15.8c0-2.3-0.9-3.4-2.7-3.4c-0.4,0-0.5-0.2-0.5-0.5v-1.1c0-0.4,0.2-0.6,0.5-0.6h10.9
		c0.5,0,0.7,0.2,0.7,0.6v1.1c0,0.4-0.2,0.5-0.6,0.5h-2.6v18.8c0,2.3,0.8,3.4,2.5,3.4h1.4c1.8,0,3.4-0.4,4.8-1.1
		c1.5-0.8,2.7-2.2,3.7-4.3l0.1-0.2c0.1-0.2,0.3-0.3,0.4-0.3c0.1,0,0.2,0,0.3,0.1L361.9,259.1z"/>
	<path d="M386.4,261.2c0.4,1,0.8,1.8,1.1,2.4c0.4,0.6,0.9,1,1.5,1c0.2,0,0.4,0,0.5,0.1c0.1,0.1,0.1,0.2,0.1,0.4v1.1
		c0,0.4-0.2,0.5-0.5,0.5H378c-0.4,0-0.5-0.2-0.5-0.5v-1.1c0-0.2,0-0.3,0.1-0.4s0.2-0.1,0.5-0.1c0.6,0,1.3-0.2,1.9-0.7
		c0.6-0.5,0.9-1.1,0.9-1.8c0-0.2,0-0.3-0.1-0.5s-0.1-0.3-0.1-0.5l-1.1-3.1h-9.9l-1.1,3.1c0,0.2-0.1,0.3-0.1,0.5c0,0.2,0,0.3,0,0.4
		c0,0.8,0.3,1.4,0.9,1.8c0.6,0.5,1.2,0.7,1.9,0.7c0.3,0,0.4,0,0.5,0.1c0,0.1,0.1,0.2,0.1,0.4v1.1c0,0.4-0.2,0.5-0.5,0.5h-9
		c-0.4,0-0.5-0.2-0.5-0.5v-1.1c0-0.2,0-0.3,0.1-0.4c0.1-0.1,0.2-0.1,0.4-0.1c0.7,0,1.3-0.3,1.6-1c0.4-0.7,0.7-1.5,1.1-2.4l7.7-21
		c0.1-0.3,0.3-0.5,0.6-0.5h4.4c0.3,0,0.5,0.1,0.6,0.4L386.4,261.2z M370.7,255h7.6l-3.9-10.5L370.7,255z"/>
	<path d="M417.7,264.6c0.4,0,0.5,0.2,0.5,0.5v1.1c0,0.4-0.2,0.5-0.5,0.5h-11.1c-0.4,0-0.5-0.2-0.5-0.5v-1.1c0-0.4,0.2-0.5,0.5-0.5
		h0.2c0.6,0,1-0.2,1.3-0.5s0.4-0.8,0.4-1.2c0-0.6-0.2-1.1-0.5-1.7l-3.3-6.1c-0.7,0.1-1.5,0.1-2.3,0.1h-2.7v6c0,1,0.2,1.8,0.5,2.4
		c0.4,0.7,1,1,1.9,1h0.2c0.4,0,0.5,0.2,0.5,0.5v1.1c0,0.4-0.2,0.5-0.5,0.5h-11.1c-0.4,0-0.5-0.2-0.5-0.5v-1.1c0-0.4,0.2-0.5,0.5-0.5
		h0.3c0.9,0,1.5-0.3,1.9-1c0.3-0.7,0.5-1.5,0.5-2.4v-15.8c0-1-0.2-1.8-0.6-2.4c-0.4-0.6-1.1-1-2.1-1c-0.4,0-0.5-0.2-0.5-0.5v-1.1
		c0-0.4,0.2-0.5,0.5-0.5h13.2c1.9,0,3.6,0.3,5.1,1c1.4,0.7,2.6,1.6,3.3,2.8s1.2,2.4,1.2,3.8c0,1.2-0.3,2.4-1,3.6
		c-0.6,1.2-1.8,2.1-3.3,2.8l3.9,7.4c0.5,0.9,1,1.7,1.5,2.4c0.5,0.7,1.2,1,2.1,1H417.7z M401.9,252.6c2.4,0,4.2-0.5,5.3-1.4
		c1.1-0.9,1.7-2.2,1.7-3.9c0-1.7-0.5-3-1.5-4c-1-1-2.4-1.5-4.2-1.5h-3.2v10.7H401.9z"/>
	<path d="M428.7,261.2c0,1,0.2,1.8,0.5,2.4c0.4,0.7,1,1,1.9,1h0.2c0.4,0,0.5,0.2,0.5,0.5v1.1c0,0.4-0.2,0.5-0.5,0.5h-11.1
		c-0.4,0-0.5-0.2-0.5-0.5v-1.1c0-0.4,0.2-0.5,0.5-0.5h0.3c0.9,0,1.5-0.3,1.9-1c0.3-0.7,0.5-1.5,0.5-2.4v-15.8c0-1-0.2-1.8-0.5-2.4
		c-0.3-0.7-1-1-1.9-1h-0.3c-0.4,0-0.5-0.2-0.5-0.5v-1.1c0-0.4,0.2-0.5,0.5-0.5h11.1c0.4,0,0.5,0.2,0.5,0.5v1.1
		c0,0.4-0.2,0.5-0.5,0.5h-0.2c-0.9,0-1.5,0.3-1.9,1c-0.4,0.7-0.5,1.5-0.5,2.4V261.2z"/>
	<path d="M454,248c-0.1,0-0.1,0.1-0.2,0.1c-0.1,0-0.1,0.1-0.2,0.1c-0.2,0-0.4-0.1-0.6-0.4c-1.5-1.9-3-3.3-4.5-4.1
		c-1.5-0.8-3-1.3-4.6-1.3c-1,0-1.8,0.3-2.5,0.8c-0.7,0.5-1,1.3-1,2.4c0,0.9,0.3,1.6,0.8,2.2c0.6,0.6,1.3,1.1,2.1,1.4
		c0.9,0.4,1.8,0.7,2.7,1c1.4,0.4,2.7,0.8,4,1.3s2.5,1.1,3.6,1.7s1.9,1.5,2.6,2.4c0.6,0.9,1,2.1,1,3.4c0,1.6-0.4,3.1-1.2,4.4
		c-0.8,1.3-2,2.3-3.6,3c-1.6,0.7-3.4,1.1-5.7,1.1c-1.1,0-2.1-0.1-3-0.4s-1.9-0.6-2.8-1.1c-0.2-0.1-0.4-0.1-0.5-0.1
		c-0.2,0-0.3,0.1-0.3,0.4c0,0.1,0,0.2,0.1,0.4c0.1,0.2,0.1,0.3,0.1,0.4c0,0.3-0.2,0.4-0.6,0.4h-1.8c-0.4,0-0.7-0.2-0.9-0.5l-4.4-8.2
		c-0.1-0.2-0.1-0.3-0.1-0.4c0-0.3,0.1-0.5,0.4-0.6l1.6-0.9c0.1,0,0.1-0.1,0.2-0.1c0.1,0,0.1,0,0.2,0c0.2,0,0.4,0.1,0.6,0.4
		c1.6,2.5,3.4,4.3,5.4,5.5c2,1.2,4,1.8,6.1,1.8c1.6,0,2.8-0.4,3.6-1.1c0.8-0.7,1.3-1.6,1.3-2.7c0-1.1-0.3-1.9-0.8-2.5
		c-0.5-0.6-1.3-1.1-2.4-1.5c-1.1-0.4-2.5-0.9-4.2-1.4c-1.2-0.3-2.3-0.7-3.5-1.2c-1.2-0.5-2.2-1.1-3.1-1.7c-0.9-0.7-1.7-1.5-2.3-2.4
		c-0.6-0.9-0.8-2.1-0.8-3.4c0-1.6,0.4-2.9,1.2-3.9c0.8-1,1.9-1.8,3.3-2.3s2.9-0.7,4.6-0.7c1.3,0,2.5,0.2,3.4,0.5
		c0.9,0.3,1.7,0.6,2.2,0.9c0.4,0.2,0.7,0.4,0.8,0.4c0.1,0,0.2-0.1,0.2-0.2c0-0.1,0-0.3-0.1-0.5s-0.1-0.4-0.1-0.7
		c0-0.4,0.2-0.5,0.6-0.5h1.3c0.4,0,0.7,0.2,0.9,0.6l2.5,6.4c0,0.1,0.1,0.2,0.1,0.3c0,0.1,0,0.2,0,0.2c0,0.2-0.1,0.4-0.4,0.5L454,248
		z"/>
</g>
<g class="st13">
</g>
</svg>
