<?xml version="1.0" encoding="utf-8"?>
<!-- Generator: Adobe Illustrator 24.1.2, SVG Export Plug-In . SVG Version: 6.00 Build 0)  -->
<svg version="1.1" xmlns="http://www.w3.org/2000/svg" xmlns:xlink="http://www.w3.org/1999/xlink" x="0px" y="0px"
	 viewBox="0 0 491.8 491.8" style="enable-background:new 0 0 491.8 491.8;" xml:space="preserve">
<style type="text/css">
	.st0{fill:#121D43;}
	.st1{fill:#140A2A;}
	.st2{fill:#152957;}
	.st3{fill:#68473B;}
	.st4{fill:#68463B;}
	.st5{fill:#7A664C;}
	.st6{fill:#67463A;}
	.st7{fill:#66453A;}
	.st8{fill:#915179;}
	.st9{fill:#9889C2;}
	.st10{fill:#130A2B;}
	.st11{fill:#130A2C;}
	.st12{fill:#2D72B9;}
	.st13{fill:#9185BD;}
	.st14{fill:#93537B;}
	.st15{fill:#9886BF;}
	.st16{fill:#A4739C;}
	.st17{fill:#304B96;}
	.st18{fill:#293473;}
	.st19{fill:#150C2E;}
	.st20{fill:#150C2F;}
	.st21{fill:#150B2E;}
	.st22{fill:#4589D4;}
	.st23{fill:#140C2F;}
	.st24{fill:#AB739C;}
	.st25{fill:#A79ECF;}
	.st26{fill:#AD9DCF;}
	.st27{fill:#AC759E;}
</style>
<g id="Frame3">
	<path class="st0" d="M453.6,225.9c-1.3-8.8-3.3-17.5-6-26c-1.9-5.7-3.5-11.5-6.2-17c-1.2-2.6-2.6-5.1-4-7.6c-1.6-3-3.1-6.1-4.9-9
		c-3.4-5.4-7.1-10.6-11.1-15.5c-3.5-4.6-7.8-8.4-12.8-11.4c-4.6-2.7-9.3-5.2-14.2-7.4c-6-2.8-12.1-5.2-18.2-7.8
		c-12.4-5.3-25.8-7.5-39.3-6.3c-7.2,0.6-14.2,2.1-21,4.4c-17.7,6.1-32.1,16.8-44.1,31c-6.2,7.3-11.4,15.5-15.3,24.2
		c-0.4,0.9-0.7,1.4-1.9,1.4c-6-0.1-11.9,0-17.9,0c-1.3,0-2.5,0.1-3.7,0.2c-0.6-5-1.1-9.8-1.8-14.6c-1-8.3-2.9-16.5-5.7-24.3
		c-1.6-4.3-3.2-8.5-5-12.7c-1.3-3.4-2.9-6.7-4.7-9.9c-3.4-5.5-7.1-10.8-10.7-16.2c-0.5-0.6-1-1-1.6-1.5c-5.5-4.1-11.6-7.2-18.2-9.2
		c-5.6-1.9-11.7-1.4-16.9,1.3c-6.8,3.3-12.2,8.3-17,14c-2.3,2.7-4.3,5.7-6.3,8.7c-4.8,7.1-9,14.7-12.5,22.6
		c-3.8,8.1-6.4,16.7-9.4,25.1c-1.9,5.3-3.7,10.7-5.5,16c-0.4,1-0.8,2-1.1,3c-0.6,0-1,0-1.4,0c-6.3-0.5-12.5-1-18.8-1.4
		c-2,0-4,0.1-6,0.3c-8.6,0.4-17.2,1.5-25.2,5c-3.4,1.5-6.8,2.7-9.8,4.9c-4.9,3.5-7,9.7-5.3,15.5c1.1,3.7,2.6,7.2,4.4,10.6
		c4.1,7.6,9.1,14.7,14.8,21.1c4.6,5.1,9.4,10,14.5,14.6c1.6,1.5,3.4,2.9,2.4,5.6c0,0.2,0,0.3,0,0.5c-0.2,4-0.4,7.9-0.6,11.9
		c-0.5,8.2-1.1,16.4-1.4,24.6c-0.3,9.7,0.1,19.5,1,29.2c0.4,4.3,0.9,8.7,1.5,13c0.7,5.5,2.6,10.7,5.5,15.4c0.7,1.3,1.8,2.5,3.1,3.3
		c4.4,2.4,9.2,4.1,14.1,5c5,1,10.1,1.7,15.2,1c1.8-0.3,3.8-0.3,5.3-1.2c3-1.6,5.9-3.5,8.5-5.7c5.6-5,10.8-10.4,15.7-16.1
		c3.7-4.1,7-8.5,9.9-13.2c0.9-1.5,1.8-3,2.9-4.8c0.3,0.7,0.4,1.1,0.5,1.5c2.5,6.2,4.8,12.5,8.5,18.2c3.4,5.3,7,10.5,10.6,15.6
		s7.4,10.3,12.3,14.3c3.4,2.9,7,5.6,10.8,8c3.3,1.9,6.8,3.6,10.3,5c1.8,0.8,3.7,1.4,5.6,1.9c3.9,1,8,1.4,12,1.3c3,0,6-0.2,9-0.6
		c7.6-1.1,13.6-4.6,17.6-11.4c2.3-3.9,3.7-8.1,5.3-12.3c1.3-3.3,2.4-6.7,3.7-10.6c0.4,0.6,0.9,1.1,1.4,1.7c3.6,3.6,7,7.4,10.9,10.8
		c14.8,12.9,31.7,21.2,51.5,22.9c7,0.6,14,0.3,20.9-0.9c3-0.5,5.9-1.3,8.9-1.7c9-1,17.8-3.7,25.9-7.9c6.3-3.4,12.3-7.5,17.7-12.2
		c5.1-4.1,9.6-8.9,13.6-14.1c7.6-10.2,13.5-21.5,18.7-33.1c5.7-12.6,8.3-26.1,10.1-39.7c1-7.7,1.7-15.5,2.3-23.3
		C455.8,244.6,455.3,235.1,453.6,225.9z"/>
</g>
<g id="Frame3_copy">
	<path class="st1" d="M273.3,351.4c-1.3,3.9-2.4,7.3-3.7,10.6c-1.6,4.1-3.1,8.4-5.3,12.3c-4,6.8-10,10.3-17.6,11.4
		c-3,0.4-6,0.6-9,0.6c-4,0.1-8.1-0.3-12-1.3c-1.9-0.5-3.8-1.1-5.6-1.9c-3.5-1.4-7-3.1-10.3-5c-3.8-2.4-7.4-5.1-10.8-8
		c-4.9-4.1-8.6-9.2-12.3-14.3s-7.2-10.4-10.6-15.6c-3.7-5.6-5.9-12-8.4-18.2c-0.1-0.4-0.3-0.7-0.5-1.5c-1.1,1.8-2,3.3-2.9,4.8
		c-2.9,4.7-6.2,9.1-9.9,13.2c-4.8,5.7-10.1,11.1-15.7,16.1c-2.6,2.2-5.5,4.1-8.5,5.7c-1.5,0.8-3.5,0.9-5.3,1.2
		c-5.1,0.8-10.2,0-15.2-1c-4.9-1-9.7-2.7-14.1-5c-1.3-0.8-2.4-1.9-3.1-3.3c-2.9-4.7-4.8-9.9-5.5-15.4c-0.6-4.3-1.1-8.7-1.5-13
		c-0.9-9.7-1.2-19.4-0.9-29.2c0.3-8.2,0.9-16.4,1.4-24.6c0.2-4,0.4-8,0.7-11.9c0-0.2,0-0.3,0-0.5c1-2.7-0.8-4.1-2.4-5.6
		c-5.1-4.6-9.9-9.5-14.5-14.6c-5.7-6.4-10.7-13.5-14.8-21.1c-1.8-3.4-3.3-6.9-4.4-10.6c-1.7-5.8,0.4-12,5.3-15.5
		c3-2.2,6.5-3.4,9.8-4.9c8-3.5,16.5-4.6,25.2-4.9c2-0.2,4-0.3,6-0.3c6.3,0.4,12.5,0.9,18.8,1.4c0.4,0,0.8,0,1.4,0c0.4-1,0.8-2,1.1-3
		c1.8-5.4,3.6-10.7,5.5-16.1c3-8.4,5.6-16.9,9.4-25.1c3.5-7.9,7.7-15.4,12.5-22.6c2-3,4-6,6.3-8.7c4.8-5.7,10.2-10.7,17-14
		c5.2-2.8,11.3-3.2,16.9-1.3c6.6,2,12.7,5.1,18.2,9.2c0.6,0.4,1.1,0.9,1.6,1.4c3.6,5.3,7.3,10.6,10.7,16.2c1.8,3.2,3.4,6.5,4.7,9.9
		c1.8,4.2,3.4,8.4,5,12.7c2.8,7.9,4.7,16,5.7,24.3c0.6,4.8,1.2,9.6,1.8,14.6c1.2-0.1,2.4-0.2,3.7-0.2c6,0,11.9-0.1,17.9,0
		c1.2,0,1.5-0.5,1.9-1.4c3.9-8.8,9-16.9,15.3-24.2c12-14.2,26.4-24.9,44.1-31c6.8-2.3,13.8-3.8,21-4.4c13.4-1.1,26.9,1,39.3,6.3
		c6.1,2.6,12.3,5,18.2,7.8c4.8,2.3,9.5,4.8,14.2,7.4c5,2.9,9.3,6.8,12.8,11.4c4,5,7.7,10.1,11.1,15.5c1.8,2.9,3.3,6,4.9,9
		c1.4,2.5,2.8,5,4,7.6c2.7,5.4,4.2,11.3,6.2,17c2.7,8.5,4.7,17.2,6,26c1.6,9.3,2.1,18.7,1.5,28.1c-0.6,7.8-1.2,15.5-2.3,23.3
		c-1.8,13.6-4.4,27.1-10.1,39.7c-5.2,11.6-11.1,22.8-18.7,33.1c-3.9,5.2-8.5,10-13.6,14.1c-5.5,4.7-11.4,8.7-17.7,12.1
		c-8.1,4.2-16.9,6.9-25.9,7.9c-3,0.4-5.9,1.1-8.9,1.7c-6.9,1.2-14,1.5-20.9,0.9c-19.8-1.7-36.7-10-51.5-22.9
		c-3.8-3.4-7.3-7.2-10.9-10.8C274.1,352.5,273.7,351.9,273.3,351.4z M326.8,224.4L326.8,224.4l0.5,0.5l0.1,0.1l0.4,0.4l0.1,0.1
		l0.4,0.4h0.1c0.7,0.9,1.3,1.8,2.1,2.6c2.9,3.1,5.8,6.1,8.7,9.2c4,4.3,7.8,8.9,11.9,13c3.9,3.9,8,7.5,12,11.2c1,0.8,2.1,1.6,3.2,2.3
		l0.4-0.4c-0.9-1.4-1.8-2.9-2.8-4.2c-1.3-1.7-2.7-3.3-4.1-4.9l-0.7-1l0,0l-0.5-0.5l0,0l-0.5-0.5l0,0l-0.5-0.5l0,0l-0.5-0.5l0,0
		l-0.5-0.5l0,0l-0.5-0.5l0,0c-0.2-0.5-0.5-1-0.8-1.4c-2-2.1-3.9-4.2-5.9-6.2c-4.9-4.8-9.8-9.5-14.8-14.3c-4.3-4.1-8.6-8.3-12.9-12.4
		c-0.3-0.2-0.6-0.4-1-0.6c0.2,2,1.6,3.9,5,7.1l0.6,0.6c0,0.1,0.1,0.2,0.2,0.2L326.8,224.4z M372.8,128.1c-9-3.6-18.7-5.6-28.4-5.7
		c-5.1-0.1-10.2,0.4-15.2,1.4c-11.8,2.3-23,7-32.9,13.8c-8.2,5.7-15.6,12.5-22,20.2c-5.1,5.8-9.3,12.4-12.5,19.5
		c-0.3,0.6-0.5,1.3-0.8,2.1l3.1,0.6c3-4.5,5.8-8.7,8.6-13c2.1-3.3,4.6-6.3,7.4-9.1c3.5-3.2,6.7-6.6,10.4-9.5
		c6.4-5,13.4-9.3,20.9-12.6c2.5-1.1,5-2.1,7.6-2.8c8.9-2.4,18.1-3.7,27.4-3.8c5.9-0.1,11.6,0,17.2,2.2c0.5,0.1,0.9,0.2,1.4,0.1
		c4,1.7,8.1,3.4,12.1,5.1c10.5,4.3,20,10.7,27.8,18.8c1.4,1.4,2.7,2.9,4,4.5c2.3,2.6,4.4,5.2,6.4,8c4.3,6.5,8,13.3,11.3,20.3
		c2.3,5,4.1,10.2,5.4,15.6c1.3,5.6,2.3,11.2,3.2,16.9c0.8,5.2,1.3,10.4,1.9,15.6c0.3,2.6,0.4,5.2,0.5,7.9c0.3,4,0.6,7.9,0.8,11.9
		c0.1,1.8-0.3,3.6-0.4,5.5c-0.2,3.3-0.5,6.7-0.5,10c0,5.3-1.2,10.4-2.2,15.6c-1.6,9-4.5,17.7-8.4,25.9c-3.9,8.2-8.6,16.1-14,23.4
		c-3.1,4.1-6.5,7.9-9.8,11.8c-1.4,1.7-2.8,3.2-4.4,4.8c-1.9,1.8-4,3.5-6,5.2c-5.2,4.6-11,8.5-17.2,11.6c-4.7,2.3-9.6,4.2-14.5,6.1
		c-4.1,1.5-8.5,2.4-12.9,2.5c-5.3,0.1-10.5-0.2-15.7-1c-5.5-0.8-10.9-2.2-16.1-4.4c-6.9-2.9-12.9-7.3-18.7-11.9
		c-3-2.4-5.9-4.9-8.6-7.5c-3.1-2.9-6-5.9-9-8.9c-1.4-1.4-2.6-2.9-4-4.5c-0.5,2.5-1,4.7-1.5,6.8c4.5,5.3,9.4,10.3,14.6,14.9
		c7.4,6.4,15.7,11.5,24.8,15.3c9.8,4,20.2,6.1,30.8,6.1c3.2-0.1,6.3-0.4,9.5-0.9c7.9-0.9,15.6-3.2,22.8-6.7
		c8.4-4.1,16.2-9.3,23.2-15.5c5.4-4.8,10.3-10.2,14.7-16c6.3-8.2,11.5-17.2,15.6-26.6c3.1-7,5.6-14.3,7.6-21.6
		c2-7.3,3.5-14.7,4.4-22.2c0.5-4.4,1.1-8.9,1.3-13.3c0.4-8.5,0.2-17.1-0.8-25.6c-0.6-4.1-0.9-8.2-1.6-12.3c-1.6-8.9-3.9-17.5-7-26
		c-3.6-10-8.4-19.6-14.2-28.4c-6.1-9.1-13.4-17.3-21.8-24.4C390.6,136.7,382,131.7,372.8,128.1L372.8,128.1z M183.7,94.2
		c-5.1-1.6-9.7-0.6-14.3,2c-2.8,1.6-5.5,3.6-7.9,5.8c-5.2,4.4-9.8,9.7-13.5,15.5c-5.2,8.3-9.6,17.1-13.2,26.3
		c-2.1,5.4-4,10.9-6,16.4c-3,8.3-6,16.6-9.2,25.3c-0.8,0.3-1.7,0.5-2.6,0.5c-6.6-1.1-13.3-1.6-20-1.5c-2.3,0-4.6,0.4-6.9,0.3
		c-8.4,0.3-16.8,2.1-24.5,5.3c-2.6,0.9-5.2,2-7.6,3.5c-2.3,1.4-3.7,3.9-3.8,6.5c-0.2,4.7,1.1,9.4,3.7,13.4c2.2,3.6,4.6,7.1,7.1,10.6
		c1.8,2.7,3.7,5.2,5.7,7.7c3.3,3.7,6.7,7.2,10.2,10.8c2.7,2.8,5.5,5.6,8.4,8.2c1,0.7,1.6,2,1.4,3.2c-0.2,3.4-0.3,6.8-0.5,10.3
		c-0.2,3.7-0.3,7.3-0.6,11c-0.4,6.4-1.2,12.9-1.3,19.3c-0.1,7.8,0.3,15.6,0.4,23.5c0,0.2,0,0.3,0,0.5c0.5,4.8,0.8,9.5,1.4,14.2
		c0.5,3.9,0.9,7.9,2.9,11.5c0.8,1.9,1.5,3.8,2.5,5.6c0.6,1,1.4,1.9,2.4,2.5c5.3,3,11,3,16.7,1.5c7.7-2,14-6.4,19.6-11.9
		c7.7-7.4,15-15.3,21.7-23.6c2.7-3.4,5.4-6.7,7-10.8c0.4-1,1-1.3,2.2-1c0.2,0.8,0.4,1.6,0.7,2.4c1.3,3.2,2.6,6.5,4,9.7
		c0.8,1.8,1.8,3.5,2.7,5.4c1.9,3.9,3.5,7.9,5.5,11.7c3.5,6.5,7.6,12.7,12.2,18.5c2.7,3.5,5.7,6.9,8.6,10.3c2.6,3.2,6.1,5.3,9.3,7.8
		c4.6,3.7,10.1,5.9,15.5,7.8c2.6,0.9,5.4,1.5,8.1,1.8c7.4,0.9,13.7-1.1,18.4-7.1s7.4-13.2,9.3-20.6c2.5-9.3,3.5-18.9,4-28.5
		c0.3-5.6,0.7-11.1,0.9-16.7c0.3-8.2-0.3-16.4,0-24.6c0.1-0.6,0-1.1-0.1-1.7c-0.5-1.3-0.1-2.8,0.9-3.7c2.5-2.5,4.9-5.1,7.5-7.4
		c5-4.4,9.6-9.2,13.8-14.2c2.9-3.4,5.6-7,8.4-10.5c4.9-6.3,9-13,11.1-20.8c0.8-2.4,1.2-5,1.1-7.5c-0.4-5.7-3.4-10.8-8-14.1
		c-3.5-2.4-7.3-4.3-11.3-5.6c-6.4-2.4-13.1-4.1-19.8-5.4c-4.7-0.8-9.4-1.6-14.1-2.3c-2.8-0.4-5.5-0.8-8.3-1
		c-1.7-0.1-3.5,0.1-5.3,0.1c-2.9,0-5.9,0.1-8.8,0.1c-0.8-0.1-1.6-0.1-2.4,0c-2.7,0.4-5.4,0.3-8-0.5c-0.2-2.9-0.6-5.8-0.6-8.6
		c0-5-0.5-10-1.5-14.9c-0.9-4.4-2-8.7-2.8-13.1c-1.7-8.8-4.6-17.2-7.5-25.7c-2.2-6.4-5.2-12.5-8.9-18.3
		C196.2,102.8,190.5,97.6,183.7,94.2z M309.9,247.1c-0.5,0.5-1,1-1.5,1.5c-4.2,6.1-8.9,11.8-13.9,17.3c-5.7,6-11.4,12.1-17.9,17.3
		c-0.4,0.4-0.7,1-0.6,1.6c0.2,1.9,0.6,3.8,0.8,5.6s0.4,3.6,0.5,5.5c0.3,3.4,0.7,6.8,0.9,10.2c0.1,3.2,0.1,6.4,0,9.6
		c-0.2,4.4-0.6,8.9-0.9,13.3c-0.1,0.8-0.3,1.6-0.3,2.4c0,1.6-0.3,3.5,0.4,4.6c1.8,2.8,3.9,5.4,6.2,7.8c2.4,2.5,5.2,4.8,7.6,7.3
		c3.7,3.8,7.9,6.9,12.1,10.1c5.5,4.5,11.8,7.9,18.5,10.2c6.5,2.1,13.3,3.2,20.2,3.3c3,0.2,6.1,0.2,9.1-0.1c4.7-0.8,9.3-2.1,13.7-3.9
		c7.4-3.1,14.8-6.2,21.1-11.4c3.1-2.5,6.3-4.9,9.2-7.6s5.5-5.6,8.1-8.5c2.1-2.4,4.2-4.8,6.1-7.3c3.4-4.5,6.5-9.3,9.4-14.1
		c4.3-7.1,7.8-14.7,10.4-22.5c1.5-4.9,2.7-9.9,3.7-15c1.3-5.7,2-11.4,2-17.3c0-0.2,0-0.5,0-0.7c0.5-3.8,0.7-7.6,0.5-11.3
		c-0.3-6.1-0.4-12.3-1-18.4c-0.4-3.6-0.5-7.1-1-10.7c-0.8-5.2-1.9-10.3-2.8-15.4c-1.5-8.5-4.2-16.7-8.1-24.4c-2-4-4.1-7.9-6.4-11.8
		c-1.5-2.5-3.1-4.8-4.9-7.1c-1.7-2.3-3.6-4.4-5.6-6.5c-3.1-3.2-6.1-6.5-9.5-9.4c-4.4-3.7-9.3-6.8-14.6-9.2c-0.6-0.5-1.3-0.9-2-1.2
		c-4-1.9-8-3.7-11.9-5.5c-0.8-0.4-1.6-0.7-2.4-1c-4.9-1.6-10.1-2.3-15.2-1.9c-7.1,0.2-14.1,0.1-21.1,1.5c-4.3,0.8-8.5,1.8-12.7,3.2
		c-4.8,1.8-9.5,4.2-13.8,7c-5.8,3.6-11.4,7.3-16,12.4c-1.6,1.7-3.3,3.3-4.9,4.9c-1.1,1.1-2.2,2.3-3.1,3.6c-2.7,3.8-5.3,7.6-7.9,11.4
		c-0.8,1.1-1.4,2.4-2.2,3.8c0.6,0.3,1.3,0.6,2,0.8c2.6,0.5,5.3,0.9,8,1.5c7.5,1.9,15.2,3.4,22.2,7.1c2.3,1.2,4.5,2.3,6.7,3.6
		c3,1.7,5.6,3.9,7.9,6.5c0.5,0.8,1.1,1.6,1.6,2.3c2,3,2.7,6.4,3.6,9.8c0.1,0.6,0.4,1.2,0.7,1.7c1.1,1.2,2.3,2.4,3.5,3.6
		c4.8,4.2,9.8,8.1,14.3,12.6c6.9,6.7,13.5,13.6,20.1,20.5c2.7,2.9,5.3,6,7.6,9.1c1,1.3,1.7,2.8,2.2,4.4c0.7,2.2-0.8,3.6-3,3
		c-0.6-0.2-1.2-0.5-1.7-0.9c-2.3-1.9-4.5-3.8-6.7-5.7c-1.1-1-2.2-2.1-3.3-3.2c-2-1.9-4.2-3.7-6.1-5.8c-4.2-4.7-8.2-9.5-12.4-14.2
		s-8.3-9.2-12.4-13.9c-0.8-0.9-1.5-1.7-2.5-2.7c-0.1,1.2-0.2,2.4-0.4,3.6c-1.7,6.9-4.1,13.5-8.3,19.4
		C311.2,244.5,310.5,245.7,309.9,247.1L309.9,247.1z M269.6,280.1c2.1,1.6,3.7,1.3,5.3-0.3c1.4-1.4,3-2.4,4.4-3.7
		c6.8-6.4,13.2-13.3,19-20.6c3.8-4.8,7.1-9.8,10.6-14.8c3.7-5.5,6.3-11.7,7.7-18.2c0.4-1.8,0.6-3.6,0.6-5.4
		c-0.1-1.9-0.4-3.8-0.9-5.6c-0.7-4.2-2.8-8.1-5.9-10.9c-2.7-2.3-5.6-4.3-8.6-6c-4.1-2.3-8.5-4-13.1-5.1c-6.5-1.6-13-3.2-19.5-4.5
		c-4.4-0.9-8.8-1.6-13.2-2c-4.5-0.4-9.1-0.4-13.6-0.6c-0.5,0-1,0-1.4,0c-2.5-0.1-5.1-0.3-7.6-0.4c-0.6-0.1-1.3,0-1.8,0.3
		c-1.6,1.3-3,2.8-4.2,4.5c2.5-0.4,5.1-0.7,7.6-0.9c5-0.1,10,0,15.1,0.4c5.9,0.6,11.7,1.5,17.5,2.6s11.7,2.6,17.4,4.2
		c5.6,1.4,10.9,3.8,15.7,6.9c3.4,2.2,6.3,5.2,8.5,8.7c2.7,4.5,3.5,9.9,2.2,15c-1.4,6.4-3.4,12.6-7.1,18.2c-4.7,7-9.9,13.5-15.5,19.7
		c-5.1,5.7-10.8,10.9-16.2,16.3C271.3,278.6,270.5,279.3,269.6,280.1L269.6,280.1z M402.1,139.6l-0.3,0.4c0.3,0.3,0.7,0.7,1,1
		c4.8,4.1,9.2,8.7,13.1,13.6c9.9,12.2,17.5,26,22.7,40.8c3.7,10.1,6.3,20.6,7.6,31.3c0.7,5.8,1.5,11.7,1.8,17.5s-0.1,11.6-0.4,17.5
		c-0.3,5.1-0.8,10.1-1.4,15.2c-1,8.2-2.8,16.3-5.4,24.2c-3.6,12-8.7,23.5-15.1,34.3c-3.9,6.6-8.4,12.8-13.4,18.6
		c-4.8,5.5-10.1,10.5-16,14.8c-0.3,0.3-0.5,0.6-0.7,0.9c3.9-1.9,7.2-4.6,10.5-7.2c6.7-5.3,12.6-11.6,17.4-18.7
		c4.5-7,8.6-14.2,12.1-21.7c2.5-4.8,4.5-9.7,6.2-14.8c3.4-10.3,5.9-20.9,7.4-31.6c0.9-7.4,1.6-14.9,1.8-22.4c0-0.7,0.2-1.4,0.2-2.1
		c0.1-0.9,0.1-1.9,0.1-2.9c0-1.2-0.3-2.4-0.3-3.6c0-4.7-0.3-9.4-0.9-14.1c-1-7.5-2.5-14.9-4.3-22.3c-1-4.2-2.4-8.2-3.8-12.3
		c-1-3.1-2.1-6.2-3.4-9.2c-2.3-4.8-4.7-9.4-7.3-14c-2-3.7-4.3-7.3-6.6-10.8c-2.9-4.1-6-8.1-9.1-12c-1.2-1.7-2.6-3.2-4.2-4.6
		C408.5,143.4,405.3,141.6,402.1,139.6z M268.1,282.3c0.1,2.7,0.2,4.9,0.4,7.1s0.6,4.4,0.6,6.6c0,5.9-0.2,11.8-0.4,17.7
		c-0.2,5.6-0.6,11.1-0.9,16.7c-0.3,5.5-1,10.9-2,16.3c-1.4,8.6-4.2,16.9-8.2,24.6c-0.4,0.7-0.8,1.4-1.3,2c-1.6,2.2-3.2,4.5-5.1,7
		c1.9-0.4,3.6-0.4,4.9-1.6c2.8-2.5,5-5.6,6.5-9.1c3.5-7.9,6.3-16,8.2-24.4c1.6-6.9,2.5-13.9,2.6-21c0-0.4,0-0.8,0-1.2
		c0.3-4.4,0.8-8.9,0.8-13.3c0-7.3-0.3-14.5-0.4-21.8c-0.1-0.9-0.2-1.7-0.5-2.6c-0.1-0.4-0.3-0.8-0.6-1
		C271.5,283.7,270,283.1,268.1,282.3L268.1,282.3z M224.6,183.9l0.5,0.3c1.1-1,2.1-2.1,3.2-3.1c0.9-0.7,1.3-1.9,1-3
		c-0.6-4.2-1.3-8.5-1.8-12.7c-0.9-7.2-2.5-14.3-4.7-21.2c-2.7-8.1-6-16-9.8-23.6c-2.6-5.3-5.8-10.3-8.8-15.3
		c-0.8-1.3-1.9-2.3-3.3-2.9c0,0.4,0.1,0.8,0.4,1.1c1.5,2.3,3,4.7,4.5,7c1,1.5,1.9,3.1,2.7,4.8c2.4,5.3,4.4,10.8,6.1,16.3
		c1.3,4.5,2.9,8.9,4.1,13.5c1.3,5.1,2.2,10.3,3.3,15.4c1.7,7.1,2.5,14.3,2.5,21.6C224.5,182.6,224.6,183.3,224.6,183.9L224.6,183.9z
		 M164.2,312.9c-0.7,1.2-1.3,2.3-1.9,3.4c-4.1,7-9.5,13-15.1,18.8c-3.8,3.9-7.9,7.5-11.7,11.4c-4.7,4.7-10.4,8.2-16.7,10.4
		c-0.5,0.2-0.9,0.4-1.4,0.7c2.2,0.3,4.5,0.4,6.7,0.3c1.4,0,2.7-0.3,3.9-1c2.5-1.4,4.8-3,7-4.9c3.3-2.9,6.3-6.1,9.3-9.3
		c3.2-3.4,6.3-6.8,9.2-10.3c3.6-4.3,6.9-8.8,10.4-13.1C165.9,316.9,166,316,164.2,312.9z"/>
	<path class="st0" d="M381.4,142c5.2,2.4,10.1,5.5,14.6,9.1c3.4,2.9,6.4,6.2,9.5,9.4c2,2.1,3.8,4.3,5.6,6.5c1.8,2.3,3.4,4.6,4.9,7.1
		c2.3,3.9,4.4,7.8,6.4,11.8c3.9,7.7,6.6,15.9,8.1,24.4c0.9,5.1,2,10.3,2.8,15.4c0.5,3.5,0.7,7.1,1,10.7c0.7,6.1,0.8,12.2,1,18.4
		c0.1,3.8,0,7.6-0.5,11.3c0,0.2,0,0.5,0,0.7c0,5.8-0.7,11.6-2,17.3c-1,5.1-2.2,10.1-3.7,15c-2.6,7.9-6.1,15.4-10.4,22.5
		c-2.9,4.9-6,9.6-9.4,14.1c-1.9,2.5-4,5-6.1,7.3c-2.6,2.9-5.2,5.8-8.1,8.5s-6.1,5.1-9.2,7.6c-6.3,5.1-13.7,8.2-21.1,11.4
		c-4.4,1.9-9,3.2-13.7,3.9c-3,0.3-6.1,0.4-9.1,0.1c-6.8-0.1-13.6-1.2-20.2-3.3c-6.7-2.3-13-5.8-18.5-10.2
		c-4.1-3.3-8.4-6.3-12.1-10.1c-2.4-2.5-5.2-4.7-7.6-7.3c-2.3-2.4-4.4-5-6.2-7.8c-0.7-1.2-0.4-3-0.4-4.6c0-0.8,0.3-1.6,0.3-2.4
		c0.3-4.4,0.7-8.9,0.9-13.3c0.1-3.2,0.2-6.4,0-9.6c-0.1-3.4-0.6-6.8-0.9-10.2c-0.2-1.8-0.3-3.6-0.5-5.5s-0.6-3.8-0.8-5.6
		c0-0.6,0.2-1.2,0.6-1.6c6.5-5.2,12.2-11.3,17.9-17.3c5-5.5,9.6-11.2,13.9-17.3c0.5-0.5,0.9-1.1,1.5-1.5c-0.1,1.9-0.2,3.8-0.5,5.7
		c-0.7,6.6-3.4,12.8-7.7,17.9c-2.1,2.7-5.2,4.4-8.5,4.7c-0.9,0.1-1.7,0.4-2.5,0.7c0.5,1.1,1.5,1.9,2.8,2.1c3,1,5.6,2.7,7.6,5.1
		c2.7,2.9,4,6.6,5,10.4c1,3.3,1.5,6.8,1.4,10.3c0,0.8-0.1,1.6,1.4,1.9c0.5-1.6,0.8-3.3,1-5c-0.1-2.7,0.4-5.4,1.5-7.9
		c1.1-2.4,2-5,3.6-7c2.9-3.5,6.5-6.4,11.3-6.8c0.8-0.1,1.3-0.5,1.2-1.7c-1.1-0.6-2.4-1.2-3.6-1.9c-1.5-0.9-2.9-1.8-4.3-2.9
		c-3.1-2.5-4.7-6.1-6.1-9.6c-1.8-4.5-3-9.1-1.7-14c0.1-0.6,0-1.3-0.1-1.9L310,247c0.6-1.3,1.3-2.5,2-3.7c4.1-5.9,6.6-12.5,8.3-19.4
		c0.2-1.2,0.3-2.4,0.4-3.6c0.9,1,1.7,1.8,2.5,2.7c4.1,4.6,8.3,9.2,12.4,13.9s8.2,9.5,12.4,14.2c1.9,2.1,4,3.8,6.1,5.7
		c1.1,1,2.1,2.2,3.3,3.2c2.2,2,4.4,3.9,6.7,5.7c0.5,0.4,1.1,0.7,1.7,0.9c2.2,0.6,3.7-0.9,3-3c-0.5-1.6-1.2-3.1-2.2-4.4
		c-2.4-3.2-4.9-6.2-7.6-9.1c-6.6-6.9-13.2-13.9-20.1-20.5c-4.7-4.4-9.7-8.3-14.4-12.5c-1.2-1.1-2.4-2.3-3.5-3.6
		c-0.4-0.5-0.6-1.1-0.7-1.7c-0.9-3.4-1.6-6.8-3.6-9.8c-0.5-0.8-1.1-1.6-1.6-2.3c1.6,0.3,3.2,0.6,4.9,0.7c2.4,0.3,4.8,0.7,7.1-0.3
		c3.6,2.9,7.2,5.8,10.8,8.6c3.4,2.7,6.7,5.4,10,8.1c3.6,2.9,7.1,5.8,10.7,8.8c5.5,4.5,11,9.1,16.5,13.7c3.2,2.6,6.3,5.3,9.5,8
		s6.4,5.2,9.4,8.1c3.5,3.5,7.2,6.8,11.2,9.7c2.3,1.6,4.5,3.3,6.8,4.8c1.8,1.3,4.1,1.9,6.3,1.7c2.2-0.2,3-1.1,2.7-3.3
		c-0.2-2-1.1-3.9-2.5-5.3c-4.1-3.5-8.2-7-12.4-10.4c-3.9-3.1-8-6.1-11.9-9.2s-7.6-6-11.4-9c-1.7-1.3-3.5-2.5-5.2-3.8
		c-3.8-3-7.4-6.3-11.3-9.2c-6.6-5-13.4-9.8-20-14.6c-3.1-2.3-6.2-4.5-9.2-6.8c-0.4-0.4-0.7-0.8-0.9-1.3c1.6-0.5,3.1-0.9,4.7-1.5
		c6-2.2,12.2-4.2,18.1-6.7c5.4-2.4,10.5-5.7,15-9.6c3.1-2.6,5.6-5.8,7.5-9.4c1.2-2.3,2.1-4.6,3.1-6.9c0.3-0.7,0.5-1.4,0.5-2.1
		c0.4-3.6,0.1-7.3-0.8-10.8C383,148.5,382.2,145.3,381.4,142z M394.4,215.7c1-0.7,0.9-1.8,1-2.8c0.1-2.8,0.3-5.6,0.5-8.3
		c0.5-7.2,4.8-11.7,10.6-15.1c0.5-0.3,0.9-0.7,1.3-1.2c-0.4-0.5-0.8-0.9-1.3-1.2c-1.6-0.6-3-1.4-4.3-2.5c-3-3.3-5.3-7.2-6.8-11.4
		c-1.5-3.8-2.4-7.7-2.8-11.8c-0.1-1.1-0.4-1.8-1.9-1.4c0.1,0.5,0.1,0.9,0.2,1.3c0.2,2,0.8,4.1,0.6,6.1c-0.5,4.3-1.6,8.4-3.4,12.4
		c-1.9,4.1-4.4,7.6-9,8.9c-0.5,0.2-1,0.9-1.7,1.6c0.9,0.4,1.4,0.5,1.9,0.7c1.2,0.4,2.4,0.9,3.5,1.5c4.1,2.6,6.5,6.7,8.3,11.1
		c1.2,3.1,1.8,6.4,1.9,9.8C393,214.4,393.1,215.4,394.4,215.7L394.4,215.7z M342.3,278.1c-0.4,2.4-0.7,4.5-1.2,6.7
		c-1.1,5.9-3.9,11.4-8.1,15.8c-1.4,1.2-2.9,2.3-4.6,3c-0.6,0.3-1.4,0.7-1.1,1.6c0.3,0.5,0.8,0.9,1.4,0.9c1.7,0,2.8,0.9,3.9,2
		c3.8,3.6,6.4,8.3,7.4,13.4c0.5,2.6,1,5.3,1.5,7.9c0.1,0.4,0.7,0.7,1,1c0.3-0.4,0.7-0.7,0.8-1.1c0.4-2.1,0.5-4.3,1.1-6.3
		c0.8-3.5,1.9-6.9,3.2-10.2c1.4-3.3,3.5-6.2,7.3-7.4c0.4-0.1,0.6-0.7,1.1-1.2l-2.2-1.5c-0.6-0.4-1.2-0.7-1.8-1.2
		c-3-2.7-5.3-6.2-6.6-10.1c-1.3-3.5-1.9-7.2-1.9-11C343.5,279.6,343.9,278.7,342.3,278.1L342.3,278.1z M303.5,318.8
		c0.2-1.2-0.4-1.5-1.2-1.7c-1.1-0.4-2.5-0.6-3.2-1.4c-1.7-1.7-3.2-3.6-4.4-5.6c-2.4-4.3-3.7-9.2-3.6-14.1c0-0.8,0.3-2.1-0.9-2.1
		s-0.9,1.2-1,2.1c-0.2,2.5-0.2,5.1-0.5,7.6c-0.5,3.9-1.6,7.7-4.8,10.4c-1.2,0.9-2.5,1.7-3.8,2.4c0.2,0.3,0.4,0.9,0.7,1
		c2.7,1,4,3.3,5.3,5.6c2.4,4.4,3.8,9.3,4.1,14.3c-0.1,1.2,0.4,2.4,1.5,3c0.2-0.5,0.3-1.1,0.4-1.6c0-1.8,0.1-3.7,0-5.5
		c-0.1-3,0.7-6,2.2-8.7c1.6-3.3,4.1-5.7,8.2-5.4C302.9,319,303.2,319,303.5,318.8L303.5,318.8z M422.4,213.4
		c-0.9-0.3-1.8-0.6-2.8-0.8c-1-0.1-2-0.8-2.5-1.7c-0.7-1-1.4-2.1-1.9-3.3c-1.8-4.2-2.7-8.7-2.6-13.2c0.1-0.6,0-1.1-0.1-1.7
		c-0.1-0.3-0.5-0.5-1.1-1c-0.1,0.9-0.2,1.4-0.3,1.9c-0.2,2.1-0.3,4.3-0.5,6.4c-0.2,4.2-2.3,7.5-5,10.5c-1.3,1.4-2.7,2.7-4.9,2.1
		c-0.4,1.1,0.1,2.2,1.2,2.7c0,0,0,0,0.1,0c0.7,0.4,1.5,0.9,2.1,1.4c2.7,2,3.9,5,4.6,8.1c0.6,2.9,1,5.8,1.5,8.7
		c0.1,0.6,0.2,1.3,1.4,1.2c0.2-1.2,0.4-2.4,0.5-3.6c0-2.7,0.5-5.4,1.4-7.9c1.5-3.7,3.3-7.1,7.4-8.5
		C421.4,214.6,421.7,214,422.4,213.4z M361.7,322.5c-1.6-0.1-1.7,0.7-1.9,1.7c-0.3,2.1-0.8,4.2-1.4,6.3c-1.2,3.9-3.3,7.3-7.3,8.9
		c-0.2,0.1-0.3,0.4-0.4,0.6c0.2,1.1,1.1,1.4,2,1.9c1.1,0.6,2.1,1.4,2.8,2.4c1.3,2.3,1.9,4.9,1.9,7.5c0,1.1,0,2.2,0,3.4
		c0.1,0.9,0.5,1.5,1.8,1.1c0.2-1,0.4-2.1,0.5-3.2c0.1-3.3,1.2-6.4,3.2-9c0.8-1.1,1.7-2.1,3.3-1.9c0.9,0.1,1.8-0.5,1.9-1.5
		c0,0,0-0.1,0-0.1C361.5,336.2,361,329.6,361.7,322.5L361.7,322.5z"/>
	<path class="st2" d="M381.4,142c0.8,3.2,1.6,6.4,2.5,9.6c0.9,3.5,1.2,7.2,0.8,10.8c-0.1,0.7-0.2,1.4-0.5,2.1c-1,2.3-2,4.7-3.1,6.9
		c-1.8,3.6-4.4,6.8-7.5,9.4c-4.5,3.9-9.6,7.2-15,9.6c-5.9,2.5-12,4.5-18.1,6.7c-1.5,0.6-3.1,1-4.7,1.5c-1-0.3-1.9-0.7-2.8-1.2
		c-7-4.9-13.9-9.8-20.8-14.7c-2.5-1.8-5.2-3.4-7.7-5.2c-4.9-3.6-9.7-7.4-14.6-11.1c-0.7-0.6-1.8-0.6-2.5,0c0.2,0.3,0.4,0.6,0.6,0.8
		c2.5,2,5.1,3.8,7.5,5.8c6.2,5.3,12.4,10.7,18.5,16.1c4.2,3.7,8.4,7.3,12.6,10.9c-2.4,0.9-4.8,0.5-7.1,0.3c-1.6-0.2-3.2-0.5-4.9-0.7
		c-2.2-2.6-4.9-4.8-7.9-6.5c-2.1-1.4-4.4-2.5-6.7-3.6c-7-3.7-14.7-5.2-22.2-7.1c-2.6-0.6-5.3-1-8-1.5c-0.7-0.2-1.4-0.5-2-0.8
		c0.8-1.4,1.4-2.6,2.2-3.8c2.6-3.8,5.2-7.6,7.9-11.4c1-1.3,2-2.4,3.1-3.6c1.6-1.7,3.3-3.2,4.9-4.9c4.6-5,10.3-8.8,16-12.4
		c4.3-2.9,9-5.2,13.9-7.1c4.2-1.4,8.4-2.4,12.7-3.2c7-1.4,14.1-1.3,21.1-1.5c5.1-0.3,10.3,0.3,15.2,1.9c0.8,0.3,1.6,0.6,2.4,1
		c4,1.8,8,3.7,11.9,5.5C380.1,141.1,380.8,141.6,381.4,142z M374.8,143.1c-0.9-0.7-1.8-1.3-2.8-1.9c-4.8-2.5-9.9-4.5-15.1-5.9
		c-3.1-1-6.4-1.5-9.6-1.4c-5.4,0.1-10.8,0.4-16.2,0.9c-4.5,0.5-9,1.5-13.2,3.1c-7.4,2.8-14.3,6.8-20.4,11.8
		c-2.6,2.1-5.1,4.4-7.6,6.6c-0.6,0.6-1,1.3-1.3,2c-0.1,0.3,0,0.7,0.2,1c0.3,0.2,0.7,0.3,1.1,0.2c0.9-0.5,1.8-1,2.6-1.6
		c2.9-2.3,5.6-4.7,8.5-6.9c5.7-4.5,12.2-8,19-10.5c6.1-2.1,12.5-2.4,18.8-3.1c1.9-0.2,3.9,0.2,5.7-0.2c2.6-0.4,5.2-0.2,7.8,0.5
		c6.7,1.5,13.2,3.6,19.5,6.3C372.7,144.3,373.6,144.6,374.8,143.1L374.8,143.1z M315.6,145.1l2.3,1.8c6.2,5,12.2,10.2,18.5,15.1
		c7.4,5.6,15,11,22.6,16.4c1,0.7,2,1.3,3.2,1.7c0.6,0.3,1.3,0.2,1.9-0.1c0.4-0.5,0.6-1.3,0.4-1.9c-0.4-1.1-1-2.1-1.8-3
		c-1.2-1.2-2.4-2.3-3.7-3.3c-3.9-3-7.7-6.1-11.7-9c-6.4-4.6-13.2-8.7-20.1-12.5c-2.9-1.6-5.7-3.5-8.5-5.4
		C317.7,144.2,316.8,143.7,315.6,145.1L315.6,145.1z M274.7,175.7c0.4-0.3,0.8-0.6,1.1-0.9c2-2.8,4-5.5,6-8.3
		c0.6-0.9,0.2-1.5-0.7-1.8C277.3,167.4,274.2,172.5,274.7,175.7z"/>
	<path class="st3" d="M183.7,94.2c6.7,3.4,12.4,8.6,16.3,15c3.7,5.7,6.6,11.8,8.9,18.3c2.9,8.4,5.7,16.9,7.5,25.7
		c0.9,4.4,1.9,8.7,2.8,13.1c1,4.9,1.5,9.9,1.5,14.9c0.1,2.9,0.4,5.7,0.6,8.6c2.6,0.8,5.3,0.9,8,0.5c0.8-0.1,1.6-0.1,2.4,0
		c2.9,0,5.9,0,8.8-0.1c1.8,0,3.5-0.2,5.3-0.1c2.8,0.2,5.5,0.6,8.3,1c4.7,0.7,9.4,1.5,14.1,2.3c6.7,1.2,13.4,3,19.8,5.4
		c4,1.3,7.8,3.2,11.3,5.6c4.6,3.2,7.6,8.4,8,14.1c0.1,2.5-0.3,5.1-1.1,7.5c-2.1,7.8-6.2,14.5-11.1,20.8c-2.8,3.5-5.5,7.1-8.4,10.5
		c-4.3,5.1-8.9,9.8-13.8,14.2c-2.6,2.3-5,4.9-7.5,7.4c-1,1-1.4,2.4-0.9,3.7c0.1,0.5,0.2,1.1,0.1,1.7c-0.3,8.2,0.3,16.4,0,24.6
		c-0.2,5.6-0.6,11.1-0.9,16.7c-0.5,9.6-1.5,19.2-4,28.5c-2,7.3-4.6,14.5-9.3,20.6s-11.1,8.1-18.4,7.1c-2.8-0.3-5.5-0.9-8.1-1.8
		c-5.5-2-10.9-4.2-15.5-7.8c-3.2-2.5-6.7-4.6-9.3-7.8c-2.9-3.4-5.9-6.8-8.6-10.3c-4.6-5.8-8.7-12-12.2-18.6c-2-3.8-3.7-7.8-5.5-11.7
		c-0.9-1.8-1.9-3.5-2.7-5.4c-1.4-3.2-2.7-6.5-4-9.7c-0.3-0.8-0.5-1.7-0.7-2.4c-1.2-0.4-1.8-0.1-2.2,1c-1.6,4.1-4.3,7.4-7,10.8
		c-6.7,8.3-14,16.2-21.7,23.6c-5.6,5.5-11.9,9.9-19.6,11.9c-5.7,1.5-11.4,1.4-16.7-1.5c-1-0.6-1.9-1.4-2.4-2.5
		c-1-1.8-1.7-3.8-2.5-5.6c2.1,0.1,4.2,0.1,6.1-1.1c0.8-0.4,1.6-0.6,2.4-0.8c0.3,0.2,0.7,0.4,1,0.6c2.2,1.6,4.9,2.4,7.6,2.4
		c3.5,0,6.8-1,9.7-2.9c4.4-2.7,8.5-5.7,12.4-9.1c4.8-4.4,9-9.5,13.4-14.3c2.1-2.3,4.1-4.6,6-7.1c4.2-5.7,8.2-11.6,12.3-17.4
		c0.5-0.8,1-1.5,1.7-2.7c1.1,2.8,2.1,5.1,3,7.5c1.9,4.5,3.6,9,5.8,13.4c2.4,5,5.2,9.7,7.7,14.6c4.1,8,8.8,15.6,14.1,22.8
		c3.8,5.6,8.4,10.7,13.6,15c5.4,4.3,11.1,7.8,17.7,9.7c2.8,0.8,5.8,1,8.8,0.5c3.8-0.9,7.1-3,9.4-6.2c4.2-5.1,7.2-11,8.8-17.4
		c2.6-9.9,3.5-20,3.8-30.3c0.1-2.8,0.3-5.6,0.4-8.4c0-0.8,0-1.6-0.1-2.4c-0.1-1.2-0.3-2.4-0.3-3.6c-0.2-8.7-0.4-17.4-0.6-26.1
		c0-0.6-0.1-1.1-0.3-1.6c-0.5-1.5,0.1-3.1,1.5-3.8c6-4.1,11.7-8.7,16.8-13.9c5.8-5.6,10.7-12.1,14.6-19.1c2.8-4.7,5-9.9,6.4-15.2
		c1.9-8-1.8-14.5-7.8-18.9c-3.7-2.5-7.8-4.2-12.2-5.2c-4.7-1.3-9.4-2.4-14.2-3.5c-1.8-0.4-3.6-0.7-5.4-0.9c-3.2-0.4-6.3-0.8-9.5-1.1
		c-4.3-0.4-8.5-1.1-12.8-1.2c-5.7-0.2-11.4,0-17,0c-1.3,0-2.5,0-3.9,0c-0.3-2.9-0.4-5.6-0.7-8.3c-0.5-4.9-0.7-9.9-1.6-14.7
		c-1.8-9.6-3.8-19.2-5.9-28.8c-1.6-6.8-3.8-13.5-6.6-20c-1.6-4.3-3.8-8.3-6.5-12c-2.2-2.7-4.6-5.3-6.9-7.9c0.2-0.3,0.5-0.7,0.4-1
		c-0.1-1-0.4-2-0.7-3C185.2,98.5,184.4,96.4,183.7,94.2z"/>
	<path class="st4" d="M372.8,128.1c9.3,3.5,17.9,8.6,25.4,15c8.4,7.1,15.7,15.3,21.8,24.4c5.9,8.9,10.6,18.4,14.2,28.5
		c3.1,8.5,5.4,17.1,7,26c0.7,4.1,1.1,8.2,1.6,12.3c1,8.5,1.3,17,0.8,25.6c-0.1,4.4-0.8,8.9-1.3,13.3c-0.8,7.5-2.3,14.9-4.4,22.2
		c-2,7.4-4.6,14.6-7.6,21.6c-4.1,9.5-9.3,18.4-15.6,26.6c-4.4,5.8-9.3,11.2-14.7,16c-7,6.3-14.8,11.5-23.2,15.6
		c-7.2,3.5-14.9,5.8-22.8,6.7c-3.1,0.5-6.3,0.7-9.5,0.9c-10.5,0-21-2.1-30.8-6.1c-9-3.7-17.4-8.9-24.8-15.3
		c-5.3-4.6-10.1-9.5-14.6-14.9c0.5-2.2,1-4.3,1.5-6.8c1.4,1.6,2.7,3.1,4,4.5c3,3,5.9,6,9,8.9c2.8,2.6,5.7,5.2,8.6,7.5
		c5.8,4.6,11.8,9,18.7,11.9c5.1,2.2,10.5,3.7,16.1,4.4c5.2,0.8,10.5,1.1,15.7,1c4.4-0.2,8.7-1,12.8-2.6c4.9-1.9,9.8-3.8,14.5-6.1
		c6.2-3.1,12-7,17.2-11.6c2-1.7,4.1-3.4,6-5.2c1.5-1.5,3-3.1,4.4-4.8c3.3-3.9,6.7-7.7,9.8-11.8c5.4-7.3,10.1-15.1,14-23.4
		c4-8.2,6.8-16.9,8.5-25.8c1-5.1,2.2-10.3,2.2-15.6c0-3.3,0.3-6.7,0.5-10c0.1-1.8,0.5-3.6,0.4-5.5c-0.2-4-0.5-7.9-0.8-11.9
		c-0.2-2.6-0.3-5.3-0.5-7.9c-0.6-5.2-1.1-10.4-1.9-15.6c-0.9-5.7-1.9-11.3-3.2-16.9c-1.3-5.4-3.1-10.6-5.4-15.6
		c-3.2-7-7-13.8-11.3-20.3c-2-2.8-4.1-5.4-6.4-8c-1.3-1.5-2.6-3-4-4.5c-7.9-8.1-17.3-14.5-27.8-18.8c-4-1.7-8.1-3.4-12.1-5.1
		c1.8-0.6,3.6-1.2,5.3-1.9C371.2,129.2,372,128.7,372.8,128.1z"/>
	<path class="st5" d="M183.7,94.2c0.7,2.2,1.5,4.3,2.1,6.4c0.3,1,0.5,2,0.7,3c0,0.3-0.3,0.7-0.4,1c-0.8-0.6-1.7-1.2-2.5-1.8
		c-4.7-3.4-9.8-3.6-14.4-0.1c-2.4,2-4.6,4.1-6.6,6.5c-7.6,8.1-12.5,17.9-17.3,27.7c-3.5,7.2-6.5,14.6-9.1,22.1
		c-3.3,9.3-6.9,18.4-10.4,27.5c-0.6,1.6-1.4,3.2-2,4.6c-6.2-0.4-12.1-0.9-17.9-1.1c-3.6-0.1-7.2,0.4-10.8,0.3
		c-8-0.1-15.7,1.5-23.3,3.6c-2.7,0.8-5.4,1.9-7.9,3.3c-2,1-3.1,3.2-2.9,5.4c0.2,2.9,0.9,5.7,2.2,8.3c4.9,9.9,11.4,18.9,19.3,26.6
		c4.1,4,8.2,8.1,12.2,12.2c0.5,0.4,0.8,1,0.9,1.6c0,2.1-0.1,4.3-0.3,6.5c-0.2,1.9-0.5,3.8-0.6,5.7c-0.2,4.9-0.4,9.9-0.5,14.8
		c-0.1,5.4-0.1,10.9-0.1,16.3c0,0.9-0.1,1.8-0.1,2.6c-0.1,1.7-0.3,3.4-0.2,5c0.2,4.5,0.5,8.9,0.8,13.4c0.3,4.3,0.5,8.6,1.2,12.8
		c0.9,5,3,9.7,6.1,13.6c-0.8,0.1-1.7,0.4-2.4,0.8c-1.9,1.2-4,1.2-6.1,1.1c-2-3.6-2.4-7.6-2.9-11.5c-0.7-4.7-1-9.5-1.4-14.2
		c0-0.2,0-0.3,0-0.5c-0.2-7.8-0.6-15.6-0.4-23.5c0.1-6.4,0.8-12.9,1.3-19.3c0.2-3.7,0.4-7.3,0.6-11c0.2-3.4,0.3-6.8,0.5-10.3
		c0.2-1.2-0.4-2.5-1.4-3.2c-3-2.5-5.7-5.4-8.4-8.2c-3.4-3.5-6.9-7.1-10.2-10.8c-2-2.4-3.9-5-5.7-7.6c-2.4-3.5-4.8-6.9-7.1-10.5
		c-2.6-4-3.9-8.7-3.7-13.5c0.1-2.7,1.6-5.1,3.8-6.6c2.4-1.4,4.9-2.6,7.6-3.4c7.8-3.3,16.2-5.1,24.6-5.4c2.3,0,4.6-0.3,6.9-0.3
		c6.7-0.1,13.4,0.4,20,1.5c0.9,0,1.8-0.1,2.6-0.5c3.2-8.6,6.2-17,9.2-25.3c2-5.5,3.8-11,6-16.4c3.6-9.1,8-17.9,13.2-26.3
		c3.7-5.8,8.2-11,13.5-15.5c2.4-2.2,5.1-4.1,7.9-5.8C174,93.7,178.6,92.6,183.7,94.2z"/>
	<path class="st6" d="M269.6,280.1c0.9-0.8,1.8-1.4,2.5-2.2c5.4-5.4,11.1-10.6,16.2-16.3c5.7-6.2,10.9-12.8,15.5-19.7
		c3.6-5.6,5.6-11.8,7.1-18.2c1.2-5.1,0.4-10.5-2.2-15c-2.1-3.5-5-6.4-8.5-8.7c-4.8-3.2-10.1-5.5-15.7-6.9
		c-5.7-1.7-11.5-3.1-17.4-4.2s-11.6-2.1-17.4-2.6c-5-0.4-10-0.5-15.1-0.4c-2.5,0.1-5.1,0.4-7.6,0.9c1.2-1.7,2.6-3.2,4.2-4.5
		c0.6-0.3,1.2-0.4,1.8-0.3c2.6,0.1,5.1,0.3,7.6,0.4c0.5,0,1,0,1.4,0c4.5,0.2,9.1,0.1,13.6,0.6c4.4,0.4,8.8,1.1,13.2,2
		c6.5,1.4,13,3,19.5,4.5c4.6,1.1,9,2.8,13.1,5.1c3.1,1.7,6,3.7,8.6,6c3.2,2.9,5.3,6.7,5.9,10.9c0.4,1.9,0.7,3.7,0.9,5.6
		c0,1.8-0.2,3.7-0.6,5.4c-1.3,6.5-3.9,12.7-7.7,18.2c-3.5,4.9-6.8,10-10.6,14.8c-5.8,7.3-12.2,14.2-19,20.6c-1.4,1.3-3,2.4-4.4,3.7
		C273.3,281.3,271.7,281.6,269.6,280.1z"/>
	<path class="st5" d="M372.8,128.1c-0.7,0.5-1.5,1-2.4,1.4c-1.7,0.7-3.5,1.3-5.3,1.9c-0.5,0-1,0-1.4-0.1c-5.5-2.2-11.3-2.4-17.2-2.2
		c-9.2,0.1-18.4,1.4-27.4,3.8c-2.6,0.7-5.2,1.7-7.6,2.8c-7.4,3.3-14.4,7.6-20.9,12.6c-3.7,2.9-6.9,6.4-10.4,9.5
		c-2.8,2.7-5.3,5.7-7.4,9.1c-2.8,4.2-5.6,8.5-8.6,13l-3.1-0.6c0.3-0.8,0.5-1.5,0.8-2.1c3.1-7.1,7.3-13.7,12.5-19.5
		c6.4-7.7,13.8-14.5,22-20.2c9.9-6.8,21.1-11.5,32.9-13.8c5-1,10.1-1.5,15.2-1.4C354.1,122.6,363.7,124.5,372.8,128.1z"/>
	<path class="st7" d="M402.1,139.6c3.1,2,6.4,3.8,9.4,6c1.6,1.3,3,2.9,4.2,4.6c3.1,3.9,6.2,7.9,9.1,12c2.4,3.5,4.6,7.1,6.6,10.8
		c2.6,4.6,5,9.3,7.3,14c1.3,3,2.5,6,3.4,9.2c1.4,4.1,2.7,8.2,3.8,12.3c1.8,7.3,3.3,14.8,4.3,22.3c0.6,4.7,0.9,9.4,0.9,14.1
		c0,1.2,0.3,2.4,0.3,3.6c0,1,0,1.9-0.1,2.9c0,0.7-0.2,1.4-0.2,2.1c-0.2,7.5-0.9,14.9-1.8,22.3c-1.5,10.7-3.9,21.3-7.4,31.6
		c-1.7,5.1-3.8,10-6.2,14.8c-3.6,7.5-7.6,14.7-12.1,21.7c-4.8,7.1-10.7,13.4-17.4,18.7c-3.3,2.6-6.6,5.3-10.5,7.2
		c0.2-0.3,0.5-0.6,0.7-0.9c5.9-4.3,11.2-9.3,16-14.8c5.1-5.7,9.6-11.9,13.5-18.6c6.4-10.8,11.4-22.3,15.1-34.3
		c2.5-7.9,4.3-16,5.4-24.2c0.6-5,1.1-10.1,1.4-15.2c0.3-5.8,0.6-11.6,0.4-17.4s-1.1-11.7-1.8-17.5c-1.4-10.7-3.9-21.2-7.6-31.3
		c-5.1-14.8-12.8-28.6-22.7-40.8c-4-4.9-8.4-9.5-13.2-13.6c-0.4-0.3-0.7-0.6-1-1L402.1,139.6z"/>
	<path class="st6" d="M268.1,282.3c1.9,0.8,3.4,1.3,4.8,2c0.3,0.2,0.5,0.6,0.6,1c0.2,0.8,0.4,1.7,0.5,2.6c0.2,7.3,0.5,14.5,0.4,21.8
		c0,4.5-0.5,8.9-0.8,13.3c0,0.4,0,0.8,0,1.2c-0.1,7.1-1,14.1-2.6,21c-2,8.4-4.7,16.6-8.2,24.4c-1.5,3.5-3.7,6.6-6.5,9.1
		c-1.3,1.2-3,1.3-4.9,1.6c1.8-2.5,3.4-4.8,5-7c0.5-0.6,0.9-1.3,1.3-2c4-7.7,6.7-16,8.2-24.6c1-5.4,1.7-10.8,2-16.3
		c0.3-5.6,0.7-11.1,0.9-16.7c0.2-5.9,0.4-11.8,0.4-17.7c0-2.2-0.5-4.4-0.6-6.6S268.2,285,268.1,282.3z"/>
	<path class="st6" d="M224.6,183.9c0-0.6-0.1-1.3-0.1-1.9c0-7.2-0.9-14.5-2.5-21.5c-1.1-5.1-2-10.3-3.3-15.4
		c-1.2-4.6-2.8-9-4.1-13.5c-1.7-5.6-3.7-11-6.1-16.3c-0.8-1.7-1.7-3.3-2.7-4.8c-1.5-2.4-3-4.7-4.5-7c-0.2-0.3-0.3-0.7-0.4-1.1
		c1.4,0.6,2.5,1.6,3.3,2.9c3,5.1,6.2,10.1,8.8,15.3c3.9,7.6,7.1,15.5,9.8,23.6c2.2,6.9,3.7,14,4.7,21.2c0.5,4.2,1.2,8.5,1.8,12.7
		c0.3,1.1-0.1,2.3-1,3c-1.1,1-2.1,2.1-3.2,3.1L224.6,183.9z"/>
	<path class="st7" d="M164.2,312.9c1.8,3.1,1.8,3.9-0.1,6.3c-3.4,4.4-6.8,8.9-10.4,13.1c-3,3.6-6.1,7-9.2,10.3
		c-3,3.2-6.1,6.4-9.3,9.3c-2.2,1.8-4.5,3.5-7,4.9c-1.2,0.6-2.5,0.9-3.9,1c-2.2,0.1-4.5,0.1-6.7-0.3c0.4-0.2,0.9-0.5,1.4-0.7
		c6.3-2.2,12-5.8,16.7-10.4c3.8-3.9,7.9-7.5,11.7-11.4c5.6-5.8,10.9-11.8,15.1-18.8C162.9,315.2,163.5,314.1,164.2,312.9z"/>
	<path class="st8" d="M359.6,254.8c1.4,1.6,2.8,3.2,4.1,4.9c1,1.4,1.9,2.8,2.8,4.2l-0.4,0.4c-1.1-0.7-2.2-1.5-3.2-2.3
		c-4.1-3.7-8.2-7.3-12-11.2c-4.1-4.2-7.9-8.7-11.9-13c-2.9-3.1-5.8-6.1-8.7-9.2c-0.7-0.8-1.4-1.7-2.1-2.6c0.8,0.4,1.6,0.9,2.3,1.5
		c5.6,5.4,11.2,10.8,16.8,16.2c1.2,1.3,2.5,2.6,3.9,3.8c1.5,1.2,2.6,3,4.6,3.5l0,0l0.5,0.5l0,0l0.5,0.5l0,0l0.5,0.5l0,0l0.5,0.5l0,0
		l0.5,0.5l0,0l0.5,0.5l0,0L359.6,254.8z"/>
	<path class="st9" d="M356,250.9c-2-0.5-3.1-2.3-4.6-3.5c-1.4-1.2-2.7-2.5-3.9-3.8c-5.6-5.4-11.2-10.8-16.8-16.2
		c-0.7-0.6-1.5-1.1-2.3-1.5h-0.1c-0.1-0.1-0.3-0.3-0.4-0.4l-0.1-0.1c-0.1-0.1-0.3-0.3-0.4-0.4l-0.1-0.1l-0.4-0.4l-0.1-0.1l-0.4-0.4
		c-0.1-0.1-0.1-0.1-0.2-0.2c-0.2-0.2-0.4-0.4-0.6-0.6c-3.5-3.1-4.9-5.1-5-7.1c0.4,0.1,0.7,0.3,1,0.6c4.3,4.1,8.6,8.3,12.9,12.4
		c4.9,4.8,9.9,9.5,14.8,14.3c2,2,4,4.1,5.9,6.2C355.5,250,355.8,250.4,356,250.9z"/>
	<path class="st9" d="M359.6,254.8l-0.7-1L359.6,254.8z"/>
	<path class="st9" d="M356.5,251.4l-0.5-0.5L356.5,251.4z"/>
	<path class="st9" d="M357,251.9l-0.5-0.5L357,251.9z"/>
	<path class="st9" d="M358.9,253.8l-0.5-0.5L358.9,253.8z"/>
	<path class="st9" d="M358.4,253.3l-0.5-0.5L358.4,253.3z"/>
	<path class="st9" d="M357.9,252.8l-0.5-0.5L357.9,252.8z"/>
	<path class="st8" d="M327.4,224.9c0.1,0.1,0.3,0.3,0.4,0.4C327.6,225.2,327.5,225.1,327.4,224.9z"/>
	<path class="st8" d="M326.9,224.5l0.4,0.4L326.9,224.5z"/>
	<path class="st8" d="M327.8,225.4c0.1,0.1,0.3,0.3,0.4,0.4C328.1,225.7,328,225.6,327.8,225.4z"/>
	<path class="st8" d="M326.4,223.9l0.4,0.4L326.4,223.9z"/>
	<path class="st8" d="M325.7,223.1c0.2,0.2,0.4,0.4,0.6,0.6C326,223.5,325.9,223.3,325.7,223.1z"/>
	<path class="st9" d="M357.5,252.3l-0.5-0.5L357.5,252.3z"/>
	<path class="st10" d="M326.7,200.1c-4.2-3.6-8.4-7.3-12.6-10.9c-6.2-5.4-12.3-10.8-18.5-16.1c-2.4-2.1-5-3.9-7.5-5.8
		c-0.2-0.2-0.4-0.5-0.6-0.8c0.7-0.6,1.8-0.6,2.5,0c4.9,3.7,9.7,7.5,14.6,11.1c2.5,1.9,5.2,3.4,7.7,5.2c7,4.9,13.9,9.8,20.8,14.7
		c0.9,0.5,1.8,0.9,2.8,1.2c0.2,0.5,0.5,0.9,0.9,1.3c3,2.3,6.1,4.5,9.2,6.8c6.7,4.9,13.4,9.7,20,14.6c3.9,2.9,7.5,6.1,11.3,9.2
		c1.7,1.3,3.5,2.5,5.2,3.8c3.8,3,7.6,6,11.4,9s8,6,11.9,9.2c4.2,3.4,8.3,6.9,12.4,10.4c1.5,1.4,2.4,3.3,2.5,5.3
		c0.3,2.2-0.5,3.1-2.7,3.3c-2.3,0.2-4.5-0.4-6.3-1.7c-2.3-1.5-4.5-3.2-6.8-4.8c-4-2.9-7.7-6.2-11.2-9.7c-3-2.9-6.2-5.4-9.4-8.1
		s-6.3-5.4-9.5-8c-5.5-4.6-11-9.1-16.5-13.7c-3.6-2.9-7.1-5.9-10.7-8.8c-3.3-2.7-6.7-5.4-10-8.1
		C333.9,205.8,330.3,202.9,326.7,200.1z M341.1,206.3L341.1,206.3l-1-0.7l-13.1-9.4c-0.1,0-0.2,0-0.2-0.1l-1.1-0.9
		c-0.7-0.7-1.5-1.3-2.4-1.8l-0.3,0.4l2.2,1.4l1.4,1.1c0.4,0.5,0.8,0.9,1.3,1.4c3.2,2.6,6.4,5.3,9.6,7.9c8.5,6.8,17.1,13.6,25.6,20.5
		c5,4.1,9.9,8.3,14.8,12.4c3.7,3.1,7.5,6.1,11.2,9.4c6.4,5.7,12.5,11.8,19.5,17c1.6,1.2,3.4,2.4,5.2,3.4c1.3,0.8,2.9,0.9,4.4,0.5
		l-0.4-1.5c-0.6-1.9-2-3.2-3.5-4.4c-3.5-2.8-6.9-5.7-10.4-8.4c-7.7-6.1-15.5-12.1-23.2-18.1c-0.8-0.6-1.7-1.1-2.6-1.7l0,0l-1.5-1
		l0,0l-2.9-2.4l0,0l-4.3-3.4l0,0c-0.2-0.3-0.5-0.6-0.8-0.9c-6.5-4.9-12.9-9.8-19.4-14.7c-0.5-0.3-0.9-0.5-1.5-0.7l0,0l-2.4-1.9l0,0
		l-1.9-1.5l0,0l-1.9-1.4l0,0L341.1,206.3z"/>
	<path class="st10" d="M309.9,247.1l1.8,0.2c0.1,0.6,0.2,1.3,0.1,1.9c-1.3,4.9-0.1,9.5,1.7,14c1.4,3.5,3,7.1,6.1,9.6
		c1.4,1,2.8,2,4.3,2.9c1.2,0.7,2.5,1.3,3.6,1.9c0.1,1.2-0.4,1.6-1.2,1.7c-4.9,0.4-8.4,3.3-11.3,6.8c-1.6,2-2.6,4.6-3.6,7
		c-1.1,2.5-1.6,5.2-1.5,7.9c-0.2,1.7-0.5,3.4-1,5c-1.5-0.2-1.4-1.1-1.4-1.9c0.1-3.5-0.4-7-1.4-10.3c-1-3.8-2.3-7.5-5-10.4
		c-2-2.4-4.7-4.1-7.6-5.1c-1.2-0.2-2.2-1-2.8-2.1c0.8-0.3,1.7-0.6,2.5-0.7c3.4-0.3,6.5-2,8.5-4.7c4.3-5.1,6.9-11.3,7.7-17.9
		C309.7,250.9,309.8,249,309.9,247.1L309.9,247.1z M304.6,283.1c0,0.2,0,0.3,0.1,0.4l4.2,9.4c2.3-6.6,5.8-12.2,13.1-14.8
		c-4.1-2.3-7.2-5.9-8.9-10.3c-0.9-2.3-1.7-4.6-2.6-6.9c-0.1-0.1-0.1-0.3-0.2-0.4c0,0-0.1-0.1-0.3-0.1c-2.1,7.1-5.6,13.1-12.2,16.7
		L304.6,283.1L304.6,283.1z"/>
	<path class="st11" d="M394.4,215.7c-1.3-0.4-1.4-1.3-1.5-2.4c-0.1-3.3-0.8-6.6-1.9-9.8c-1.8-4.4-4.2-8.4-8.3-11.1
		c-1.1-0.6-2.3-1.1-3.5-1.5c-0.5-0.2-1-0.4-1.9-0.7c0.7-0.7,1.1-1.4,1.7-1.6c4.6-1.4,7.1-4.8,9-8.9c1.8-3.9,2.9-8.1,3.4-12.4
		c0.2-2-0.3-4.1-0.6-6.1c0-0.4-0.1-0.8-0.2-1.3c1.4-0.4,1.7,0.4,1.9,1.4c0.4,4,1.4,8,2.8,11.8c1.5,4.2,3.8,8.1,6.8,11.4
		c1.2,1.1,2.7,2,4.3,2.5c0.5,0.3,1,0.7,1.3,1.2c-0.4,0.4-0.8,0.8-1.3,1.2c-5.9,3.4-10.2,7.9-10.6,15.1c-0.2,2.8-0.3,5.6-0.5,8.3
		C395.3,214,395.4,215,394.4,215.7z M393.9,201.1c1.2-3,2.4-5.9,4.8-8.2c1.5-1.4,3.1-2.8,4.7-4.2c-2.7-1.8-4.9-4.4-6.3-7.3
		c-1.5-2.8-2.7-5.8-4-8.7c-0.1-0.1-0.2-0.2-0.4-0.2c0,0-0.2,0-0.2,0.1c-0.5,1.7-0.9,3.4-1.5,5c-1.6,4.8-3.4,9.5-8.1,12.2
		c-0.1,0.1-0.1,0.3-0.1,0.5c4.9,2.8,8,7.1,10.4,12.6L393.9,201.1z"/>
	<path class="st11" d="M342.3,278.2c1.6,0.5,1.2,1.5,1.2,2.2c0,3.8,0.6,7.5,1.9,11c1.3,3.9,3.6,7.3,6.6,10.1
		c0.6,0.4,1.2,0.8,1.8,1.2l2.2,1.5c-0.5,0.5-0.7,1.1-1.1,1.2c-3.7,1.2-5.8,4.1-7.3,7.4c-1.3,3.3-2.4,6.7-3.2,10.2
		c-0.5,2.1-0.7,4.2-1.1,6.3c-0.1,0.4-0.5,0.7-0.8,1.1c-0.4-0.3-1-0.6-1-1c-0.6-2.6-1-5.3-1.5-7.9c-1-5.1-3.6-9.8-7.4-13.4
		c-1.1-1.1-2.2-2-3.9-2c-0.6-0.1-1.1-0.4-1.4-0.9c-0.4-0.8,0.4-1.2,1.1-1.6c1.7-0.7,3.2-1.8,4.6-3c4.1-4.4,6.9-9.8,8.1-15.7
		C341.6,282.7,341.9,280.5,342.3,278.2z M341.5,317.2l0.2,0.9c0.1,0.8,0.4,1.6,0.8,2.3c1.1-3,2.1-5.8,3.3-8.6s3.5-5.1,5.4-6.9
		c-1.7-1.9-3.2-4-4.6-6.1c-1.4-2.2-2.3-4.7-3.5-7c-0.2-1.1-0.4-2.2-0.7-3.7c-2.5,6.5-4.6,12.7-10.2,16.7c1.3,1.3,2.6,2.4,3.7,3.6
		C338.4,310.8,340,314,341.5,317.2L341.5,317.2z"/>
	<path class="st10" d="M303.5,318.8c-0.3,0.1-0.7,0.2-1,0.2c-4.1-0.3-6.5,2.1-8.2,5.4c-1.5,2.6-2.3,5.6-2.2,8.7c0.1,1.8,0,3.7,0,5.5
		c-0.1,0.6-0.2,1.1-0.4,1.6c-1-0.6-1.6-1.8-1.5-3c-0.3-5-1.7-9.9-4.1-14.3c-1.2-2.3-2.6-4.6-5.3-5.6c-0.3-0.1-0.5-0.7-0.7-1
		c1.3-0.7,2.6-1.5,3.9-2.4c3.1-2.7,4.2-6.5,4.8-10.4c0.4-2.5,0.4-5.1,0.5-7.6c0.1-0.8-0.3-2.1,1-2.1s1,1.3,0.9,2.1
		c-0.1,5,1.1,9.9,3.5,14.2c1.2,2.1,2.7,3.9,4.4,5.6c0.8,0.8,2.1,1,3.2,1.4C303.1,317.4,303.7,317.6,303.5,318.8z M289.4,325.2
		c0.3,0.9,0.7,1.8,1.2,3.2c1.4-4.5,3.1-8.2,7-10.4c-2.6-3-4.7-6.4-6.3-10.1l-0.7-2.9c-1.2,4.7-2.6,9.1-6.6,12.2
		C286.4,319.4,288.2,322.2,289.4,325.2L289.4,325.2z"/>
	<path class="st10" d="M422.4,213.4c-0.6,0.6-1,1.2-1.5,1.4c-4.1,1.4-5.9,4.8-7.4,8.5c-0.9,2.6-1.3,5.2-1.4,7.9
		c-0.1,1.2-0.3,2.4-0.5,3.6c-1.2,0.1-1.3-0.6-1.4-1.2c-0.5-2.9-0.9-5.8-1.5-8.7c-0.6-3.2-1.9-6.1-4.6-8.1c-0.7-0.5-1.4-1-2.1-1.4
		c-1.1-0.4-1.6-1.6-1.2-2.6c0,0,0,0,0-0.1c2.2,0.6,3.5-0.7,4.9-2.1c2.8-3,4.8-6.3,5-10.5c0.1-2.1,0.3-4.3,0.5-6.4
		c0-0.5,0.1-1.1,0.3-1.9c0.5,0.4,1,0.7,1.1,1c0.1,0.5,0.2,1.1,0.1,1.7c-0.1,4.5,0.8,9.1,2.6,13.2c0.5,1.2,1.1,2.3,1.9,3.3
		c0.5,0.9,1.4,1.6,2.5,1.7C420.5,212.8,421.5,213.1,422.4,213.4z M412.7,206.2c-0.1-0.6,0.1-1.4-0.8-1.7c-1.8,4.1-2,5.4-6.8,10
		c2.5,2.1,4.3,4.9,5.2,8c0.2,0.6,0.4,1.1,0.5,1.5c0.8-1.9,1.7-3.7,2.8-5.5c1.1-1.5,2.3-3,3.6-4.4c-1.1-1.6-2.2-3.1-3.1-4.6
		C413.5,208.4,413.1,207.3,412.7,206.2L412.7,206.2z"/>
	<path class="st10" d="M361.7,322.5c-0.6,7.1-0.2,13.7,6.7,18c-0.1,0.9-0.9,1.7-1.8,1.6c0,0-0.1,0-0.1,0c-1.6-0.2-2.5,0.9-3.3,1.9
		c-2,2.6-3.1,5.8-3.2,9.1c-0.1,1.1-0.3,2.1-0.5,3.2c-1.3,0.3-1.8-0.2-1.8-1.1c-0.1-1.1,0-2.2,0-3.4c0-2.6-0.6-5.2-1.9-7.5
		c-0.7-1-1.7-1.9-2.8-2.4c-0.9-0.5-1.8-0.7-2-1.9c0.1-0.2,0.2-0.5,0.4-0.6c4.1-1.6,6.1-5,7.3-8.9c0.6-2.1,1-4.1,1.4-6.3
		C360,323.2,360.1,322.5,361.7,322.5z M360.9,335.3c-0.2-0.9-0.4-1.7-0.6-2.5c-1.1,2.8-2.8,5.4-4.9,7.4c1,1.5,1.9,2.8,2.7,4.1
		c0.3,0.5,0.5,1,0.8,1.5l0.6-0.3c1.3-1.9,2.4-4,4.6-5L360.9,335.3z"/>
	<path class="st12" d="M374.8,143.1c-1.1,1.5-2.1,1.2-3.1,0.7c-6.3-2.7-12.8-4.8-19.5-6.3c-2.5-0.7-5.2-0.8-7.8-0.5
		c-1.9,0.3-3.8,0-5.7,0.2c-6.3,0.7-12.7,1-18.8,3.1c-6.8,2.5-13.3,6-19,10.5c-2.9,2.2-5.7,4.6-8.5,6.9c-0.8,0.6-1.7,1.2-2.6,1.6
		c-0.4,0.1-0.8,0-1.1-0.2c-0.2-0.3-0.3-0.7-0.2-1c0.3-0.7,0.8-1.4,1.3-2c2.5-2.2,5-4.5,7.6-6.6c6.1-5,13-9,20.4-11.8
		c4.3-1.6,8.7-2.6,13.2-3.1c5.4-0.6,10.8-0.9,16.2-0.9c3.3,0,6.5,0.4,9.6,1.4c5.2,1.5,10.3,3.5,15.1,5.9
		C373,141.8,373.9,142.4,374.8,143.1z"/>
	<path class="st11" d="M315.6,145.1c1.2-1.4,2.1-0.9,3-0.3c2.8,1.8,5.6,3.7,8.5,5.4c6.9,3.8,13.7,7.9,20.1,12.5c4,2.9,7.9,6,11.7,9
		c1.3,1,2.6,2.1,3.8,3.4c0.8,0.9,1.4,1.9,1.8,3c0.2,0.7,0.1,1.4-0.4,1.9c-0.6,0.3-1.3,0.4-1.9,0.1c-1.1-0.4-2.2-1-3.2-1.7
		c-7.5-5.4-15.2-10.8-22.6-16.4c-6.3-4.8-12.4-10-18.5-15.1L315.6,145.1z M346.4,164.6L346.4,164.6l-1-0.5l0,0l-12.5-8.2
		c-0.4-0.6-1.2-0.8-1.9-0.6l1.9,1.3l1.8,1.3l0.6,0.5l0,0c0.2,0.3,0.4,0.5,0.6,0.7c7.6,5.6,15.3,11.1,22.9,16.6
		c0.6,0.4,1.2,0.7,1.9,0.9l0.6,0.6l0.1-0.2l-0.7-0.4c-0.2-0.4-0.4-0.8-0.7-1.2c-3-2.5-6.1-5-9.2-7.5l-2.1-1.5l0,0l-1.9-1.4l0,0
		L346.4,164.6z"/>
	<path class="st12" d="M274.7,175.7c-0.5-3.2,2.6-8.3,6.4-11c0.9,0.3,1.3,0.9,0.7,1.8c-2,2.8-4,5.6-6,8.3
		C275.5,175.2,275.1,175.4,274.7,175.7z"/>
	<path class="st10" d="M101.8,342.1c-3.1-4-5.2-8.7-6.1-13.6c-0.7-4.2-0.9-8.5-1.2-12.8c-0.3-4.5-0.6-8.9-0.8-13.4
		c-0.1-1.7,0.1-3.3,0.2-5c0-0.9,0.1-1.8,0.1-2.6c0-5.4,0-10.9,0.1-16.3c0.1-4.9,0.3-9.9,0.5-14.8c0.1-1.9,0.5-3.8,0.6-5.7
		c0.2-2.1,0.3-4.3,0.3-6.4c-0.1-0.6-0.4-1.2-0.9-1.6c-4-4.1-8.1-8.2-12.2-12.2c-7.9-7.7-14.4-16.7-19.3-26.6
		c-1.3-2.6-2.1-5.4-2.2-8.3c-0.2-2.2,0.9-4.4,2.9-5.4c2.5-1.4,5.2-2.5,7.9-3.3c7.6-2.1,15.3-3.6,23.3-3.6c3.6,0,7.2-0.4,10.8-0.3
		c5.9,0.2,11.7,0.7,17.9,1.1c0.6-1.4,1.4-3,2-4.6c3.5-9.2,7.2-18.3,10.4-27.5c2.6-7.5,5.6-14.9,9.1-22.1c4.8-9.8,9.8-19.6,17.3-27.7
		c2-2.4,4.2-4.5,6.6-6.5c4.6-3.5,9.7-3.3,14.4,0.1c0.9,0.6,1.7,1.2,2.5,1.8c2.3,2.6,4.8,5.2,6.9,7.9c2.7,3.7,4.9,7.7,6.5,12
		c2.7,6.5,4.9,13.2,6.6,20c2.1,9.6,4.1,19.1,5.9,28.8c0.9,4.8,1.1,9.8,1.6,14.7c0.3,2.7,0.5,5.4,0.7,8.3c1.3,0,2.6,0,3.9,0
		c5.7,0,11.4-0.2,17,0c4.3,0.2,8.6,0.8,12.8,1.2c3.2,0.3,6.3,0.7,9.5,1.1c1.8,0.2,3.6,0.5,5.4,0.9c4.7,1.1,9.5,2.2,14.2,3.5
		c4.4,1,8.5,2.8,12.3,5.3c6,4.3,9.7,10.9,7.8,18.9c-1.4,5.3-3.6,10.4-6.4,15.2c-3.9,7.1-8.9,13.5-14.7,19.1
		c-5.1,5.2-10.7,9.8-16.7,13.9c-1.4,0.7-2,2.3-1.5,3.8c0.1,0.5,0.2,1.1,0.3,1.6c0.2,8.7,0.4,17.4,0.6,26.1c0,1.2,0.2,2.4,0.3,3.6
		c0.1,0.8,0.1,1.6,0.1,2.4c-0.1,2.8-0.3,5.6-0.4,8.4c-0.4,10.2-1.2,20.3-3.8,30.3c-1.6,6.4-4.6,12.3-8.8,17.4
		c-2.3,3.1-5.7,5.3-9.4,6.2c-2.9,0.5-5.9,0.3-8.8-0.5c-6.7-1.8-12.4-5.4-17.7-9.7c-5.2-4.3-9.8-9.4-13.6-15
		c-5.3-7.2-10-14.8-14.1-22.8c-2.5-4.9-5.3-9.7-7.7-14.6c-2.1-4.4-3.9-8.9-5.8-13.4c-1-2.3-1.9-4.7-3-7.5c-0.8,1.2-1.2,2-1.7,2.7
		c-4.1,5.8-8.1,11.7-12.3,17.4c-1.9,2.5-3.9,4.8-6,7.1c-4.4,4.8-8.7,9.9-13.4,14.3c-3.8,3.4-7.9,6.4-12.3,9.1
		c-2.9,1.9-6.3,2.9-9.7,2.9c-2.7,0.1-5.4-0.7-7.6-2.4C102.5,342.4,102.2,342.2,101.8,342.1z M190.9,114.2c-2.4-3.8-5.5-7.1-9.1-9.7
		c-4.5-3.3-9.5-2.9-13.2,1c-0.6,0.6-1.1,1.1-1.7,1.7c-6.3,7.1-11.6,15-16,23.5c-6,11.3-10.5,23.2-14.7,35.3
		c-3,8.4-6.5,16.6-9.8,24.9c-0.7,1.9-1.8,2.7-4,2.5c-4.4-0.5-8.9-0.9-13.3-1c-5.7-0.1-11.5,0.2-17.2,0.3c-5.6,0.2-11.1,1.1-16.5,2.5
		c-3.5,0.7-6.9,1.9-10.2,3.5c-1.7,0.8-2.8,2.6-2.5,4.5c0,0.7,0.2,1.4,0.5,2.1c1.5,3.4,3.1,6.8,4.9,10.1c3.2,5.5,7,10.7,11.3,15.4
		c5.5,5.8,11.2,11.4,16.7,17.2c0.6,0.6,1,1.4,1.2,2.2c0,1.9-0.1,3.8-0.3,5.7c-0.2,2.8-0.4,5.6-0.5,8.3c-0.1,1.3,0.4,2.7,0.3,4
		c0,2.1-0.3,4.3-0.4,6.4c-0.2,7.1-0.4,14.2-0.5,21.3c0,3.6,0.3,7.2,0.4,10.7c0.1,6.4,0.6,12.9,1.4,19.3c0.7,4.8,2.5,9.5,5.2,13.5
		c0.4,0.7,1.4,1,2.1,1.5c0.8,1.2,2.1,1.3,3.4,1.4c2.6,0.2,5.3-0.3,7.7-1.4c4.8-2.1,9-5.2,13.2-8.2c1.3-0.9,2.5-2,3.6-3.1
		c4.6-5.1,9.1-10.2,13.6-15.4c2.1-2.5,4.3-4.9,6.2-7.5c4-5.5,7.9-11,11.9-16.5c0.7-0.8,1.3-1.6,2.1-2.3c0.7,0.9,1.3,1.9,1.8,2.9
		c1,2.1,1.9,4.2,2.7,6.4c2.6,7.1,5.7,14,9.4,20.7c4.1,7.4,7.9,15,12.6,22c4.6,6.8,9.2,13.4,15,19.1s12.6,10.4,20.7,12.9
		c5.6,1.7,11.6-0.4,14.9-5.1c3.6-4.6,6.3-9.8,8-15.4c2.4-9.1,3.7-18.5,3.8-28c0.3-11.1,0.1-22.2,0.1-33.3c0-4.5-0.3-8.9-0.3-13.4
		c0.1-0.7,0.3-1.4,0.8-1.9c0.5-0.6,1.1-1.2,1.7-1.7c3.5-2.7,7.1-5.4,10.4-8.4c4.3-3.8,8.3-7.9,12-12.4c3.4-4.1,6.4-8.6,8.9-13.3
		c2.3-4.4,4.3-8.9,5.7-13.6c0.6-1.5,0.7-3.1,0.4-4.6c-1.6-5.8-5.9-10.5-11.5-12.6c-4-1.6-8.1-3-12.2-4.2c-6.3-1.8-12.7-2.9-19.2-3.5
		c-5.1-0.4-10.2-1.4-15.4-1.8c-5.3-0.4-10.7-0.4-16-0.6c-2.2-0.1-4.3,0-6.5,0s-2.2-0.2-2.4-2.1c-0.3-3-0.8-6-0.9-9
		c-0.2-5.1-0.9-10.1-2-15.1c-1.8-9.1-3.7-18.2-5.7-27.3c-1.8-7.7-4.4-15.2-7.6-22.4C194.8,119.3,193.1,116.6,190.9,114.2z"/>
	<path class="st8" d="M326.8,196.1c0.1,0,0.2,0,0.2,0.1l13.1,9.4l1,0.7l0,0l0.5,0.5l0,0c0.1,1.2,1,1.4,1.9,1.4l0,0
		c0.1,1.2,0.8,1.6,1.9,1.5l0,0c0,1.1,0.9,2,2,2c0.1,0,0.3,0,0.4,0l0,0c0.3,0.7,0.8,1.3,1.3,1.8c6.1,4.7,12.3,9.3,18.4,13.8
		c0.6,0.3,1.2,0.6,1.9,0.7l0,0c0.7,1.9,2.4,3.2,4.3,3.4l0,0c0.3,1.7,1.6,2,2.9,2.4l0,0c0,1,0.7,1.1,1.5,1l0,0
		c-0.1,1.1,0.8,1.4,1.5,2l10.1,8c3.8,3,7.5,5.9,11.2,8.9c2.6,2,5.1,4,7.6,6.1s5.1,4.5,7.7,6.8c0.5,0.4,1,0.7,1.6,0.9l0.4,1.5
		c-1.5,0.5-3.1,0.3-4.4-0.5c-1.8-1-3.5-2.1-5.2-3.4c-6.9-5.1-13.1-11.2-19.5-17c-3.6-3.2-7.4-6.3-11.2-9.4
		c-4.9-4.1-9.8-8.4-14.8-12.4c-8.5-6.9-17.1-13.6-25.6-20.5c-3.2-2.6-6.4-5.3-9.6-7.9c-0.5-0.4-0.9-0.9-1.3-1.4L326.8,196.1z"/>
	<path class="st13" d="M417.8,267.2c-0.6-0.3-1.1-0.6-1.6-0.9c-2.6-2.2-5.1-4.6-7.7-6.8s-5.1-4.1-7.6-6.1c-3.7-3-7.5-5.9-11.2-8.9
		l-10.1-8c-0.7-0.5-1.6-0.9-1.5-2c0.9,0.6,1.8,1,2.6,1.7c7.8,6,15.5,12,23.2,18.1c3.5,2.8,7,5.6,10.4,8.4
		C415.8,264,417.2,265.3,417.8,267.2z"/>
	<path class="st13" d="M369.5,227.9c-0.7-0.1-1.3-0.4-1.9-0.7c-6.2-4.6-12.3-9.2-18.4-13.8c-0.5-0.5-0.9-1.2-1.3-1.8
		c0.5,0.2,1,0.4,1.5,0.7c6.5,4.9,12.9,9.8,19.4,14.7C369,227.3,369.2,227.6,369.5,227.9z"/>
	<path class="st13" d="M373.8,231.2c-2-0.2-3.6-1.5-4.3-3.4L373.8,231.2z"/>
	<path class="st13" d="M376.6,233.6c-1.3-0.4-2.6-0.8-2.9-2.4L376.6,233.6z"/>
	<path class="st13" d="M347.9,211.6c-1.1,0.2-2.1-0.5-2.4-1.5c0-0.1,0-0.3,0-0.4L347.9,211.6z"/>
	<path class="st7" d="M325.3,195.3l-2.2-1.4l0.3-0.4c0.9,0.5,1.7,1.1,2.4,1.8C325.6,195.3,325.4,195.3,325.3,195.3z"/>
	<path class="st13" d="M345.5,209.6c-1.1,0.1-1.9-0.2-1.9-1.5L345.5,209.6z"/>
	<path class="st13" d="M343.5,208.2c-0.9-0.1-1.8-0.3-1.9-1.4L343.5,208.2z"/>
	<path class="st13" d="M378.1,234.6c-0.8,0.1-1.4,0-1.5-1L378.1,234.6z"/>
	<path class="st8" d="M325.3,195.3c0.1,0,0.3,0,0.4,0l1.1,0.9l-0.2,0.2L325.3,195.3z"/>
	<path class="st13" d="M341.1,206.3l-1-0.7L341.1,206.3z"/>
	<path class="st13" d="M341.6,206.8l-0.5-0.5L341.6,206.8z"/>
	<path class="st14" d="M310.6,260.9c0.9,2.3,1.6,4.6,2.6,6.9c1.7,4.4,4.8,8,8.9,10.3c-7.3,2.6-10.8,8.1-13.1,14.8l-4.2-9.4
		c0-0.1,0.1-0.1,0.1-0.2c-0.1-0.1-0.2-0.2-0.3-0.3l0,0l-2.2-5.4c1-1.2,2.1-2.5,3-3.8C307.9,269.9,309.6,265.5,310.6,260.9z"/>
	<path class="st15" d="M310.6,260.9c-0.9,4.6-2.7,9-5.1,12.9c-0.9,1.4-2,2.6-3,3.8l2.2,5.4l-6.7-6.1c6.6-3.5,10.1-9.6,12.2-16.7
		c0.1,0.1,0.3,0.1,0.3,0.1C310.4,260.6,310.5,260.7,310.6,260.9z"/>
	<path class="st15" d="M304.6,283.1c0.1,0.1,0.2,0.2,0.3,0.3c0,0-0.1,0.1-0.1,0.2C304.7,283.4,304.6,283.2,304.6,283.1z"/>
	<path class="st14" d="M393,172.7c1.3,2.9,2.5,5.9,4,8.7c1.4,3,3.6,5.5,6.3,7.3c-1.6,1.4-3.2,2.8-4.7,4.2c-2.3,2.3-3.6,5.2-4.8,8.2
		c-0.7-1.4-1.5-2.8-2.4-4.1c-1.8-2.3-3.7-4.5-5.6-6.9c0.2-0.3,0.4-0.5,0.7-0.7c3.3-3,5.5-7.1,6.1-11.5
		C392.9,176.1,393,174.4,393,172.7z"/>
	<path class="st15" d="M393,172.7c0,1.7-0.1,3.5-0.3,5.2c-0.6,4.4-2.8,8.5-6.1,11.5c-0.2,0.2-0.5,0.5-0.7,0.7
		c1.9,2.3,3.8,4.5,5.6,6.9c0.9,1.3,1.7,2.7,2.4,4.1l-0.8,1.8c-2.4-5.5-5.5-9.9-10.4-12.6c0-0.2,0-0.4,0.1-0.5
		c4.7-2.8,6.5-7.4,8.1-12.2c0.6-1.6,1-3.4,1.5-5c0,0,0.1-0.1,0.2-0.1C392.8,172.5,392.9,172.6,393,172.7z"/>
	<path class="st14" d="M343.1,291.6c1.1,2.4,2.1,4.8,3.5,7c1.4,2.1,3,4.2,4.6,6.1c-2,1.8-4.3,4-5.4,6.9s-2.1,5.6-3.3,8.6
		c-0.5-0.7-0.8-1.5-0.8-2.3c0-0.3-0.1-0.6-0.2-0.9l0,0c0.1-2.2-0.6-4.3-1.9-6c-1.4-2.3-3.1-4.4-4.8-6.7
		C338.5,300.8,341.4,296.5,343.1,291.6z"/>
	<path class="st15" d="M343.1,291.6c-1.7,4.8-4.6,9.2-8.2,12.8c1.7,2.3,3.3,4.5,4.8,6.7c1.3,1.7,2,3.8,1.9,6c-1.6-3.2-3.1-6.4-5.6-9
		c-1.1-1.2-2.4-2.3-3.7-3.6c5.6-4,7.7-10.1,10.2-16.7C342.7,289.4,342.9,290.5,343.1,291.6z"/>
	<path class="st15" d="M341.5,317.1c0,0.3,0.1,0.6,0.2,0.9C341.7,317.7,341.6,317.4,341.5,317.1z"/>
	<path class="st14" d="M291.4,307.9c1.6,3.7,3.7,7,6.3,10.1c-3.9,2.2-5.6,5.9-7,10.4c-0.5-1.4-0.9-2.3-1.2-3.2c0.1-0.7,0.1-1.3,0-2
		c-0.7-1.9-1.5-3.8-2.3-5.8c1.7-2.7,3-5.6,3.7-8.7C290.9,308.4,291.2,308.2,291.4,307.9z"/>
	<path class="st15" d="M291.4,307.9c-0.2,0.2-0.5,0.5-0.5,0.7c-0.7,3.1-2,6.1-3.7,8.7c0.8,2,1.7,3.9,2.3,5.8c0.1,0.7,0.1,1.3,0,2
		c-1.2-3-3-5.8-5.4-8c4-3.1,5.5-7.5,6.6-12.2L291.4,307.9z"/>
	<path class="st8" d="M412.7,206.2c0.4,1.1,0.9,2.2,1.4,3.3c0.9,1.5,2,3,3.1,4.6c-1.3,1.4-2.5,2.9-3.6,4.4c-1,1.8-1.9,3.6-2.8,5.5
		l-0.5-1.5c0.1-0.7,0.1-1.3,0-2c-0.8-2-1.7-3.9-2.6-6C410.5,212.6,411.5,209.4,412.7,206.2z"/>
	<path class="st15" d="M412.7,206.2c-1.2,3.1-2.2,6.4-5,8.4c0.9,2,1.9,4,2.6,6c0.1,0.7,0.1,1.3,0,2c-0.9-3.1-2.7-5.9-5.2-8
		c4.9-4.7,5-6,6.8-10C412.8,204.8,412.6,205.6,412.7,206.2z"/>
	<path class="st8" d="M360.9,335.3l3.1,5.2c-2.2,1-3.3,3.1-4.6,5c-0.3-1.3-0.7-2.6-1-3.8c-0.1-0.6-0.5-1.5-0.2-2
		C359,338.1,360,336.8,360.9,335.3z"/>
	<path class="st15" d="M360.9,335.3c-0.9,1.5-1.9,2.9-2.7,4.4c-0.3,0.5,0.1,1.3,0.2,2c0.3,1.3,0.6,2.6,1,3.8l-0.6,0.3
		c-0.3-0.5-0.5-1-0.8-1.5c-0.8-1.3-1.7-2.6-2.7-4.1c2.2-2.1,3.9-4.6,4.9-7.4C360.5,333.6,360.7,334.5,360.9,335.3z"/>
	<path class="st16" d="M360.8,176.5c-0.7-0.2-1.3-0.5-1.9-0.9c-7.7-5.5-15.3-11.1-22.9-16.6c-0.2-0.2-0.5-0.4-0.6-0.7
		c0.5,0.1,0.9,0.2,1.3,0.4c2.2,1.4,4.3,2.9,6.5,4.2c0.7,0.4,1.5,0.8,2.3,1.1l0,0c0.3,0.2,0.6,0.3,1,0.5l0,0l0.5,0.5l0,0
		c0.2,0.9,1,1.5,2,1.4l0,0c0.3,0.9,1.1,1.5,2.1,1.5c3.1,2.5,6.1,5,9.2,7.5C360.5,175.8,360.7,176.2,360.8,176.5L360.8,176.5z"/>
	<path class="st9" d="M345.5,164.1c-0.8-0.3-1.6-0.6-2.3-1.1c-2.2-1.4-4.3-2.8-6.5-4.2c-0.4-0.2-0.9-0.3-1.3-0.4l0,0l-0.6-0.5
		l-1.8-1.3c0-0.2,0-0.4,0-0.7L345.5,164.1z"/>
	<path class="st16" d="M332.9,155.9c0,0.2,0,0.4,0,0.7l-1.9-1.3C331.8,155,332.5,155.3,332.9,155.9z"/>
	<path class="st9" d="M348.8,166.4c-0.9,0-1.7-0.6-2-1.4L348.8,166.4z"/>
	<path class="st9" d="M350.9,167.9c-1,0.1-1.8-0.5-2.1-1.5L350.9,167.9z"/>
	<path class="st16" d="M360.8,176.6l0.7,0.4l-0.1,0.2L360.8,176.6L360.8,176.6z"/>
	<path class="st9" d="M346.4,164.6c-0.3-0.2-0.6-0.4-1-0.5L346.4,164.6z"/>
	<path class="st9" d="M346.9,165l-0.5-0.5L346.9,165z"/>
	<path class="st16" d="M334.7,157.9l0.6,0.5L334.7,157.9z"/>
	<path class="st17" d="M105.1,341.1c-0.7-0.5-1.6-0.8-2.1-1.5c-2.7-4-4.5-8.6-5.2-13.5c-0.8-6.4-1.3-12.8-1.4-19.3
		c-0.1-3.6-0.4-7.2-0.4-10.7c0.1-7.1,0.3-14.2,0.5-21.3c0.1-2.1,0.3-4.3,0.4-6.4c0-1.3-0.4-2.7-0.3-4c0.1-2.8,0.4-5.6,0.5-8.3
		c0.2-1.9,0.3-3.8,0.3-5.7c-0.1-0.9-0.5-1.6-1.2-2.2c-5.5-5.8-11.2-11.4-16.7-17.2c-4.3-4.7-8.1-9.9-11.3-15.4
		c-1.8-3.3-3.5-6.6-4.9-10.1c-0.3-0.7-0.4-1.4-0.5-2.1c-0.3-1.9,0.7-3.7,2.4-4.5c3.2-1.6,6.6-2.8,10.2-3.5
		c5.4-1.4,10.9-2.3,16.5-2.5c5.7-0.1,11.5-0.4,17.2-0.3c4.4,0.1,8.9,0.5,13.3,1c2.2,0.2,3.2-0.6,4-2.5c3.3-8.3,6.8-16.5,9.8-24.9
		c4.3-12,8.8-24,14.8-35.3c4.4-8.4,9.7-16.3,16-23.5c0.5-0.6,1.1-1.2,1.7-1.7c3.7-3.9,8.7-4.2,13.2-1c3.6,2.6,6.7,5.9,9.1,9.7
		c0.1,0.8,0.3,1.5,0.5,2.3c0.4,1.3,1,2.5,1.3,3.8c2.6,10.3,5.1,20.5,7.5,30.8c0.8,3.5,1.2,7.2,1.2,10.8c0,4.1,0.2,8.3,0.5,12.4
		c0.3,4.4,1,8.8,1.3,13.3c0.3,4.2,0.4,8.4,0.5,12.6c0.1,2.8,0.9,4.2,3.6,5c2.3,0.6,4.6,1.1,7,1.4c2.6,0.4,5.2,0.7,7.8,1.1
		c1.9,0.3,3.8,0.6,5.6,0.9l7.1,1c1,0.1,2,0.2,3,0.4c1.9,0.4,4,0,5.7,1.4c-0.1,0.3-0.2,0.7-0.2,1.1c0.1,3.2,0.6,6.5,0.2,9.7
		c-0.8,6.3-3.5,11.6-10,13.9c-0.6,0.2-1,0.8-1.9,1.6c0.7,0.3,1.5,0.5,2.3,0.7c2.1,0.3,4,1.1,5.6,2.4c5.2,3.9,8.8,9.5,10.3,15.9
		c0.3,0.8,0.8,1.6,1.4,2.4c-0.2,0.5-0.5,0.9-0.8,1.3c-1,0.7-2,1.4-3,2c-4.1,2.6-8.2,5.1-12.4,7.6c-2.5,1.4-3.7,4.5-2.7,7.2
		c1.7,5.1,2.9,10.2,3.8,15.5c0.8,5,1.8,10,1.7,15.1c-0.1,4.2,0.1,8.5,0,12.7c0,2.2-0.2,4.4-0.6,6.6c-0.7,4.6-2,9.2-3.8,13.5
		c-1.3,3.1-2.7,6.1-5.3,8.5c-0.7,0.7-1.6,1-2.5,1.1c-2.9,0.3-5.1-1-7.3-2.5c-3.7-2.5-6.6-6-9.7-9.2c-1.4-1.3-2.6-2.8-3.8-4.3
		c-4.4-6-9.3-11.7-12.8-18.3c-3-5.7-6.1-11.4-8.9-17.2c-2.1-4.2-3.9-8.5-5.8-12.8c-0.4-1.1-0.7-2.3-1-3.4l10.7,8.5
		c9.5,7.4,18.9,14.9,28.4,22.2c2,1.5,4,2.8,6.2,4c1.1,0.7,2.6,0.3,3.2-0.8c0.2-0.4,0.3-0.8,0.3-1.3c0-1-0.2-2.1-0.7-3
		c-0.6-1.1-1.4-2.1-2.3-3c-3-3.2-6.4-6-9.9-8.6c-11.1-8.3-22.7-16-34-23.9c-2.7-1.9-5.2-3.9-7.8-5.9c-1.1-4.4-3.4-9.1-4.9-10
		c-1.9,1-1.8,3.3-2.8,4.8c-0.3-0.1-0.6-0.2-0.9-0.4l-25.4-16.6c-0.7-0.5-1.5-1-2.2-1.4s-1.2-0.4-1.6,0.6c0.3,0.4,0.5,0.7,0.9,1
		c5.8,4.6,11.6,9.2,17.4,13.9c3.3,2.7,6.7,5.4,10,8.1c-0.9,2.4-1.7,5-2.8,7.3c-2.9,6.5-7,12.3-11,18.1c-1.4,2-3.1,3.9-4.3,6
		c-3.3,5.4-6.9,10.7-10.9,15.6c-4.6,5.9-9.6,11.4-14.9,16.7c-3,2.9-6.3,5.3-10.6,6C106.2,340.6,105.6,340.8,105.1,341.1z M104.4,213
		l-0.4,0.7c0.4,0.5,0.9,1,1.4,1.4c2.7,1.9,5.5,3.9,8.3,5.8c12.3,8.4,24.7,16.8,37,25.2c13.4,9,26.8,18,40.1,27.1
		c9.8,6.6,19.5,13.4,29.3,20c1.8,1.1,3.7,1.9,5.6,2.7c0.4,0.2,0.9,0.2,1.4,0.1c1.9-0.4,2.8-2,2-4.1c-1-2.3-2.6-4.3-4.7-5.6
		c-6.6-4.8-13.2-9.5-19.9-14.1c-4.9-3.4-9.8-6.6-14.8-9.8c-6.8-4.3-13.6-8.3-20.4-12.5c-7.8-4.8-15.6-9.8-23.5-14.3
		c-13.1-7.5-26.4-14.7-39.6-22C105.5,213.3,105,213.1,104.4,213z M110.7,208.2c0.2,0.4,0.3,0.8,0.6,0.9c2.8,1.7,4.8,4.4,8,5.6
		c0.9,0.4,1.8,1,2.7,1.6c13.2,8.7,26.4,17.4,39.6,26.1c9.4,6.2,18.8,12.4,28.2,18.6c1.7,1.1,3.4,2,5.3,2.8c1.3,0.4,2.8-0.3,3.2-1.7
		c0.2-0.8,0.1-1.7-0.4-2.3c-1.5-1.5-3.1-2.9-4.8-4.2c-1.3-1-2.9-1.6-4.3-2.5c-5-3.1-10-6.3-15.1-9.3c-3.5-2.1-7-4.1-10.5-6.3
		c-8.3-5.3-16.7-10.3-25.5-14.8c-5.5-2.8-11-5.8-16.4-8.9c-2.8-1.6-5.4-3.4-8.1-5.1C112.5,208.1,111.8,207.3,110.7,208.2
		L110.7,208.2z M180.4,105.8c-1.7-1.4-4-1.8-6.1-1c-3.2,1-6.1,3-8.1,5.7c-6.1,8.1-11.5,16.7-16,25.8c-2.3,4.5-4.4,9-6.3,13.7
		c-1.9,4.6-3.6,9.4-5.2,14.1c-0.4,1.3-0.5,2.7-0.4,4c0,0.4,0.6,1,1,1.1c0.3,0.1,0.9-0.3,1.1-0.6c0.8-1.2,1.5-2.5,2.1-3.8
		c1.8-4.1,3.4-8.4,5.4-12.5c3.6-7.4,7.5-14.6,11.2-22c2.4-4.8,5.1-9.4,8.1-13.8c2.8-4,5.7-7.7,10.9-8.7
		C179.1,107.7,180,106.9,180.4,105.8L180.4,105.8z M185.7,162.2c-0.1-0.3-0.2-0.4-0.2-0.5c-0.4-0.2-0.9-0.4-1.3-0.6
		c-3.3-1.6-6.4-3.5-7.7-7.2c-1.8-4.9-2.4-10.2-1.5-15.3c0.3-1.2,0.3-2.5-0.1-3.6c-1.3,0.1-1.1,0.9-1.3,1.6c-0.5,3-1.5,5.9-2.9,8.6
		c-2.9,5.3-7.1,9-13.2,10.2c-0.4,0.1-0.7,0.2-1.1,0.4c0,1.3,0.9,1.6,1.8,2.1c1,0.4,1.9,1.1,2.7,1.9c1.3,1.5,2.3,3.2,3,5.1
		c1.7,5.4,2.3,11.1,1.9,16.8c-0.1,1,0,1.6,1.1,2.2c0.8-1.2,1.3-2.6,1.5-4c0.4-2,0.7-4.1,1.1-6.1c0.9-4.2,3.7-7.1,6.9-9.5
		c1.8-1.5,4.1-2,6.3-1.3c0.6,0.2,1.3,0.2,1.9,0.1C185,162.9,185.3,162.5,185.7,162.2L185.7,162.2z M159.8,195.5l-0.1-0.6
		c-0.3-0.2-0.7-0.3-1-0.5c-1.8-0.4-3.5-1.3-4.7-2.7c-2.2-2.2-3.3-5-4.2-7.9c-1.3-4-0.9-8-0.2-12.1c0.1-0.7,0.1-1.4,0.2-2.4
		c-1.8,0.3-1.7,1.6-1.9,2.4c-0.9,3.6-1.5,7.2-3.3,10.4c-2.7,5-6.1,9.2-12.4,9.7c-0.4,0-0.7,0.6-1.1,0.9c0.3,0.4,0.7,0.7,1.1,1
		c1.4,0.9,3,1.5,4.2,2.6c3.2,3,5.2,7,5.7,11.3c0.2,2,0.4,4,0.5,5.9c-0.1,1,0.5,1.9,1.4,2.3c0.4-1,0.7-2,0.9-3
		c0.5-4,2.3-7.4,4.5-10.7c2-3.2,5.3-5.4,9-6.1C158.8,196,159.3,195.8,159.8,195.5L159.8,195.5z M75.5,197.4
		c-2.9-0.1-5.8,0.7-8.2,2.3c-2.8,1.7-2.7,2.1-2.4,5.6c0.1,0.5,0.2,0.9,0.4,1.4c1.3,2.8,2.7,5.6,4.3,8.2c5.2,7.5,11.3,14.5,18,20.8
		c1,1,2.3,1.7,3.7,1.8c1-1.9,1-2.3-0.6-4c-3.1-3.4-6.2-6.7-9.1-10.1s-6.1-7.2-8.9-10.9c-2-2.7-3.9-5.5-2.8-9.1
		c1.7-1.1,3.3-2.2,5-3.3c0.9-0.4,1.2-1.4,0.8-2.3C75.6,197.5,75.6,197.4,75.5,197.4L75.5,197.4z M161.5,209.1c0.5,0.5,1,1,1.5,1.4
		c3.3,2.1,6.5,4.3,9.9,6.4c9,5.5,18.1,11,27.2,16.5c2.5,1.4,5.1,2.7,7.7,3.8c0.8,0.3,1.7,0.3,2.4-0.1c0.9-0.8,0.1-1.9-0.5-2.5
		c-1-1.1-2.2-2.1-3.4-2.9c-6.1-3.7-12.2-7.6-18.5-11c-7.5-4-15.3-7.6-23-11.3C163.9,208.9,162.9,208.3,161.5,209.1L161.5,209.1z
		 M106,289.5c0.6,0.6,1.3,1.1,2,1.6c1.4,0.8,2.5,2,3.3,3.4c1.9,3.1,2.4,6.5,2.9,10c0.1,0.6,0.3,1.3,0.4,1.9h0.6
		c0.2-0.5,0.4-1.1,0.5-1.7c0.3-1.6,0.4-3.1,0.8-4.7c0.7-4,3.7-7.3,7.6-8.4c0.8-0.3,1.3-0.5,1-1.6c-2.4-1-4.3-2.7-5.5-4.9
		c-1.6-2.9-2.4-6.1-2.5-9.4c0-1,0-1.9-0.1-2.9c0-0.3-0.5-0.5-1.2-1.2C115.3,279.2,112.7,285.3,106,289.5z M101.1,257.7
		c0.3-0.2,0.6-0.4,0.9-0.7c2.8-4.3,1.6-12.7-2.4-16.1c-1.6-1.4-2.8-1.3-4.6,0.2c0.3,1.6,1.2,3.1,2.4,4.2c2.4,2.3,3.4,5.7,2.5,8.9
		C99.6,255.5,99.6,256.9,101.1,257.7L101.1,257.7z M132.5,187.3c0.8-0.6,1.5-1.3,2.2-2c1.7-2.1,2.2-4.7,2.8-7.3
		c0.1-0.7-0.2-1.3-0.7-1.8c-0.6-0.3-1.3-0.3-1.9-0.1c-0.7,0.3-1.3,0.9-1.7,1.6c-0.8,2-1.6,4.1-2.1,6.3
		C130.8,185,131.1,186.1,132.5,187.3L132.5,187.3z"/>
	<path class="st18" d="M176.5,282.5c0.3,1.2,0.6,2.3,1,3.4c1.9,4.3,3.7,8.6,5.8,12.8c2.9,5.8,5.9,11.4,8.9,17.2
		c3.4,6.7,8.3,12.4,12.8,18.3c1.2,1.5,2.4,2.9,3.8,4.3c3.1,3.2,6,6.6,9.7,9.2c2.2,1.5,4.4,2.8,7.3,2.5c0.9-0.1,1.8-0.5,2.5-1.1
		c2.6-2.3,3.9-5.4,5.3-8.5c1.9-4.3,3.1-8.9,3.8-13.5c0.3-2.2,0.5-4.4,0.6-6.6c0.1-4.2,0-8.5,0-12.7c0.1-5.1-0.9-10.1-1.7-15.1
		c-0.9-5.2-2.2-10.4-3.8-15.5c-1-2.8,0.2-5.8,2.7-7.2c4.2-2.5,8.3-5.1,12.4-7.6c1-0.6,2-1.3,3-2c0.4-0.4,0.6-0.8,0.8-1.3h0.2h0.2
		c0.4-0.1,0.8-0.1,1.1-0.3c2.2-1.8,4.4-3.4,6.4-5.4c3.6-3.6,7.2-7.3,10.6-11.1c3-3.4,5.4-7.1,6.3-11.6c0.5-2.5,0.2-4.7-1.8-6.5
		c-2.4-2.1-5-3.9-7.8-5.4c-5.5-3.3-11.6-4.9-17.6-6.5c-1.1-0.3-2.5-1.2-3.8-0.1l-1.4-0.6c-1.7-1.4-3.8-1-5.7-1.4c-1-0.2-2-0.3-3-0.4
		l-7.1-1c-1.9-0.3-3.8-0.6-5.6-0.9c-2.6-0.4-5.2-0.6-7.8-1.1c-2.4-0.4-4.7-0.8-7-1.4c-2.6-0.8-3.5-2.2-3.6-5
		c-0.1-4.2-0.2-8.4-0.5-12.6c-0.3-4.4-1-8.8-1.3-13.3c-0.3-4.1-0.5-8.3-0.5-12.4c0-3.7-0.4-7.3-1.3-10.9c-2.4-10.3-5-20.5-7.5-30.8
		c-0.3-1.3-0.9-2.6-1.3-3.8c-0.2-0.8-0.4-1.5-0.5-2.3c2.2,2.3,3.8,5.1,4.9,8.1c3.2,7.2,5.8,14.7,7.6,22.4c2,9.1,3.9,18.2,5.7,27.3
		c1.1,5,1.8,10,2,15.1c0.1,3,0.6,6,0.9,9c0.2,1.9,0.4,2.1,2.4,2.1s4.3-0.1,6.5,0c5.3,0.1,10.7,0.2,16,0.6c5.1,0.4,10.2,1.4,15.4,1.8
		c6.5,0.6,12.9,1.8,19.2,3.5c4.1,1.1,8.2,2.5,12.2,4.2c5.6,2.1,9.9,6.8,11.5,12.6c0.3,1.6,0.2,3.2-0.4,4.6
		c-1.5,4.7-3.4,9.3-5.7,13.6c-2.5,4.7-5.5,9.2-8.9,13.3c-3.7,4.4-7.7,8.5-12,12.4c-3.3,3-6.9,5.7-10.4,8.4c-0.6,0.5-1.2,1-1.7,1.7
		c-0.4,0.6-0.7,1.2-0.8,1.9c0.1,4.5,0.3,8.9,0.3,13.4c0.1,11.1,0.2,22.2-0.1,33.3c-0.1,9.5-1.4,18.9-3.8,28
		c-1.7,5.6-4.4,10.8-8,15.4c-3.4,4.7-9.4,6.8-14.9,5.2c-8.1-2.5-14.8-7-20.7-12.9s-10.5-12.4-15-19.1c-4.8-7-8.5-14.6-12.6-22
		c-3.7-6.6-6.8-13.5-9.4-20.6c-0.8-2.2-1.7-4.3-2.7-6.4c-0.5-1-1.1-2-1.8-2.9c-0.7,0.7-1.4,1.5-2.1,2.3c-4,5.5-7.8,11-11.9,16.5
		c-1.9,2.6-4.1,5.1-6.2,7.5c-4.5,5.2-9,10.3-13.6,15.4c-1.1,1.2-2.3,2.2-3.6,3.1c-4.2,3-8.4,6.1-13.2,8.2c-2.4,1.2-5,1.7-7.7,1.4
		c-1.3-0.1-2.6-0.2-3.4-1.4c0.5-0.3,1.1-0.6,1.7-0.8c4.3-0.7,7.6-3.1,10.6-6c5.3-5.2,10.3-10.8,14.9-16.7c4-5,7.6-10.2,10.9-15.7
		c1.3-2.1,2.9-4,4.3-6c4-5.8,8.1-11.6,11-18.1c1.1-2.4,1.8-4.9,2.8-7.3L176.5,282.5z"/>
	<path class="st19" d="M104.4,213c0.6,0.1,1.1,0.3,1.7,0.5c13.2,7.3,26.5,14.5,39.6,22c8,4.6,15.7,9.5,23.5,14.3
		c6.8,4.1,13.7,8.2,20.4,12.5c5,3.1,9.9,6.4,14.8,9.8c6.7,4.6,13.3,9.3,19.9,14.1c2.1,1.3,3.8,3.3,4.7,5.6c0.8,2-0.1,3.7-2,4.1
		c-0.5,0.1-1,0.1-1.4-0.1c-1.9-0.7-3.8-1.6-5.6-2.7c-9.8-6.6-19.5-13.3-29.3-20c-13.4-9-26.8-18-40.1-27.1
		c-12.4-8.4-24.7-16.8-37-25.2c-2.8-1.9-5.5-3.8-8.3-5.8c-0.5-0.4-1-0.9-1.4-1.3L104.4,213z M222.6,288.3L222.6,288.3l-0.5-0.5l0,0
		l-1.4-1l0,0l-0.5-0.5l0,0l-3.3-2.3l0,0c-0.5-0.3-1-0.6-1.4-1l0,0c-0.1-0.2-0.3-0.4-0.4-0.5c-6-4.2-11.9-8.5-18.1-12.6
		c-5.4-3.6-11-6.7-16.5-10.2c-9.3-5.8-18.4-11.8-27.8-17.5c-5.5-3.4-11.2-6.4-16.8-9.6l-4.1-2.6l-0.3,0.5l3.9,2.5l12.4,8.2l0.6,0.4
		l0.9,0.6l2.4,1.5l0,0c0.5,0.5,0.9,0.9,1.5,1.3c14.9,10,29.8,20,44.6,30.1c8.1,5.5,16.1,11,24.1,16.4c0.9,0.6,1.9,1,3,1.3
		c0.4,0.1,0.9-0.2,1.8-0.4l-2.1-2.7l-1.4-1l0,0L222.6,288.3z"/>
	<path class="st20" d="M176.5,282.5l-15.3-12c-3.3-2.7-6.7-5.4-10-8.1c-5.8-4.6-11.6-9.2-17.4-13.9c-0.3-0.3-0.6-0.6-0.9-1
		c0.4-1,1-0.9,1.6-0.6s1.5,0.9,2.2,1.4l25.4,16.6c0.3,0.2,0.6,0.3,0.9,0.4c1.8,1.2,3.5,2.5,5.3,3.7c0.8,0.5,1.6,1,2.4,1.5
		c2.6,2,5.1,4,7.8,5.9c11.4,8,22.9,15.6,34,23.9c3.5,2.6,6.9,5.4,9.9,8.6c0.9,0.9,1.7,1.9,2.3,3c0.5,0.9,0.7,2,0.7,3
		c0,1.3-1,2.4-2.3,2.4c-0.4,0-0.9-0.1-1.3-0.3c-2.2-1.2-4.3-2.5-6.2-4c-9.5-7.4-19-14.8-28.4-22.2L176.5,282.5z M219.7,309.4
		L219.7,309.4l-0.5-0.5l0,0c-0.2-0.3-0.5-0.6-0.8-0.9c-7.2-5.4-14.3-10.9-21.6-16.1c-8-5.7-16.1-11.1-24.2-16.6l0,0l-0.5-0.4
		l-12-8.7l-2-1.4l-0.3,0.4l1.5,1l11.9,9.1l0.4,0.4l0.1,0.1l21.4,16.8l0.5,0.4l0.1,0.1l0.4,0.4l0.9,0.6c0.3,0.4,0.6,0.7,1,1
		c7.1,5.6,14.2,11.2,21.3,16.8c1.3,1,2.5,1.9,3.8,2.8c0.5,0.2,1,0.4,1.6,0.5c0-2.4-1.3-3.9-2.7-5.3L219.7,309.4z"/>
	<path class="st21" d="M110.7,208.2c1.1-0.9,1.8-0.1,2.4,0.3c2.7,1.7,5.3,3.6,8.1,5.1c5.4,3.1,10.9,6.1,16.4,8.9
		c8.8,4.5,17.2,9.5,25.5,14.8c3.4,2.2,7,4.1,10.5,6.3c5,3.1,10,6.2,15.1,9.3c1.4,0.9,3,1.5,4.3,2.5c1.7,1.3,3.3,2.7,4.8,4.2
		c0.9,1.1,0.7,2.7-0.5,3.6c-0.7,0.5-1.5,0.7-2.3,0.4c-1.8-0.8-3.6-1.7-5.3-2.8c-9.4-6.1-18.8-12.4-28.2-18.6
		c-13.2-8.7-26.4-17.4-39.6-26.1c-0.8-0.6-1.7-1.2-2.7-1.6c-3.1-1.2-5.2-3.9-8-5.6C111.1,209,110.9,208.5,110.7,208.2z M166,242.8
		L166,242.8l0.5,0.4l0.1,0.1l0.4,0.3l0.4,0.2l0.6,0.4l0.9,0.6l0.5,0.4c0.1,0.1,0.2,0.2,0.3,0.1c0.1,0.1,0.2,0.3,0.3,0.4
		c7.7,5.1,15.4,10.2,23.1,15.2c0.9,0.5,1.9,0.9,2.9,1.1l0.4-0.5c-0.4-0.8-1-1.5-1.6-2.1c-2.2-1.4-4.5-2.7-6.7-4.1l-0.5-0.4l0,0
		l-1.9-1l0,0l-1.4-1l0,0l-1.5-1l0,0l-1-0.5l0,0l-0.5-0.5l0,0l-2.4-1.5l0,0l-1-0.5l0,0l-1.5-1l0,0l-1.5-1l0,0l-1-0.5l0,0l-1-0.5l0,0
		l-0.6-0.4c-2.4-1.4-4.7-2.9-7.1-4.3l-15.1-9.1l-4.2-2.4l-1.9-1.4l-0.3,0.5l2.2,1.4l3.9,2.4l15.3,9.9L166,242.8z"/>
	<path class="st22" d="M180.4,105.9c-0.4,1-1.3,1.8-2.4,2c-5.2,1-8.1,4.7-10.9,8.7c-3,4.4-5.7,9-8.1,13.8c-3.7,7.4-7.6,14.6-11.2,22
		c-2,4.1-3.6,8.3-5.4,12.5c-0.6,1.3-1.3,2.6-2.1,3.8c-0.2,0.3-0.9,0.7-1.1,0.6c-0.4-0.2-1-0.7-1-1.1c-0.1-1.3,0-2.7,0.4-4
		c1.6-4.8,3.3-9.5,5.2-14.1s4-9.2,6.3-13.7c4.5-9.1,9.9-17.7,16-25.8c2-2.7,4.9-4.7,8.1-5.7C176.3,104.1,178.7,104.5,180.4,105.9z"
		/>
	<path class="st23" d="M185.7,162.2c-0.3,0.3-0.7,0.7-1.1,0.8c-0.6,0.1-1.3,0.1-1.9-0.1c-2.2-0.7-4.6-0.2-6.3,1.3
		c-3.2,2.4-6,5.3-6.9,9.5c-0.4,2-0.7,4.1-1.1,6.1c-0.2,1.4-0.7,2.8-1.5,4c-1-0.5-1.1-1.2-1.1-2.2c0.5-5.7-0.2-11.3-1.9-16.8
		c-0.7-1.8-1.7-3.6-3-5.1c-0.7-0.8-1.7-1.5-2.7-1.9c-0.9-0.4-1.7-0.7-1.8-2.1c0.3-0.2,0.7-0.3,1.1-0.4c6.1-1.2,10.2-4.9,13.2-10.2
		c1.4-2.7,2.4-5.6,2.9-8.6c0.1-0.7,0-1.5,1.3-1.6c0.4,1.2,0.5,2.4,0.1,3.6c-0.9,5.1-0.3,10.4,1.5,15.3c1.3,3.6,4.4,5.5,7.7,7.2
		c0.4,0.2,0.9,0.4,1.3,0.6C185.5,161.8,185.5,161.9,185.7,162.2z M172.9,149.5l-0.4-3.1c-2.5,5.1-5.8,8.7-11,10.7
		c4,3.5,5.5,8.1,6.5,13.5l0.9-2.1c2.4-3.3,4.9-6.3,9.3-7.7c-2.1-1.7-3.6-4.1-4.3-6.7C173.6,152.6,173.3,151,172.9,149.5z"/>
	<path class="st23" d="M251.7,259h-0.2h-0.2c-0.6-0.7-1-1.5-1.4-2.4c-1.5-6.3-5.2-11.9-10.3-15.9c-1.6-1.3-3.6-2.1-5.6-2.4
		c-0.8-0.2-1.5-0.4-2.3-0.7c0.9-0.8,1.3-1.4,1.9-1.6c6.6-2.3,9.2-7.6,10-13.9c0.4-3.2-0.1-6.5-0.2-9.7c0-0.4,0.1-0.7,0.2-1.1
		l1.4,0.6c-0.3,3,0.8,5.7,2.1,8.2c3.1,6.1,6.6,11.9,14.5,12.7c0.4,1.1-0.4,1.3-1.2,1.7c-3.3,1.5-5.9,3.8-7.1,7.4
		c-1.1,2.9-1.6,6-1.6,9.1C251.9,253.8,251.8,256.4,251.7,259z M245.6,243.2c1.4,2.1,2.8,4.2,4.2,6.3c1-5.6,1.3-11.4,6.9-15
		c-4-2.1-7.3-5.3-9.6-9.3l-1-2.5c-1.1,5.9-3.5,10.8-8.6,14.3C240.9,238.6,243.3,240.9,245.6,243.2L245.6,243.2z"/>
	<path class="st23" d="M159.8,195.5c-0.5,0.3-1,0.6-1.5,0.7c-3.7,0.7-7,2.9-9,6.1c-2.1,3.3-4,6.7-4.5,10.7c-0.2,1-0.5,2-0.9,3
		c-0.9-0.4-1.5-1.3-1.4-2.3c-0.1-2-0.3-4-0.5-5.9c-0.5-4.3-2.6-8.3-5.8-11.3c-1.1-1.1-2.8-1.8-4.2-2.6c-0.4-0.3-0.8-0.6-1.1-1
		c0.4-0.3,0.7-0.9,1.1-0.9c6.3-0.5,9.6-4.8,12.4-9.7c1.8-3.3,2.4-6.9,3.3-10.4c0.2-0.9,0.1-2.1,1.9-2.4c-0.1,0.9-0.1,1.7-0.2,2.4
		c-0.7,4-1.1,8.1,0.2,12.1c1,2.9,2.1,5.7,4.2,7.9c1.2,1.4,2.9,2.3,4.7,2.7c0.3,0.1,0.7,0.3,1,0.5L159.8,195.5z M143.8,204.4l0.2,0.9
		l0.1,0.6c2.2-4.5,5.1-8.3,10.2-10.4c-2.1-1.6-3.7-3.7-4.7-6.1c-0.8-2-1.4-4-2.1-6.1l-0.5-1.8c-2.2,5.4-5.4,9.6-10.1,12.2
		c1.7,2.3,3.3,4.4,4.7,6.5C142.6,201.6,143.3,203,143.8,204.4L143.8,204.4z"/>
	<path class="st22" d="M75.5,197.4c0.5,0.8,0.3,1.9-0.4,2.4c-0.1,0.1-0.2,0.1-0.3,0.1c-1.7,1.1-3.3,2.2-5,3.3
		c-1.1,3.6,0.8,6.5,2.8,9.1c2.8,3.7,5.9,7.3,8.9,10.9s6.1,6.8,9.1,10.1c1.6,1.7,1.6,2.1,0.6,4c-1.4-0.1-2.7-0.8-3.7-1.8
		c-6.7-6.3-12.8-13.2-18-20.8c-1.6-2.6-3.1-5.4-4.3-8.2c-0.2-0.4-0.4-0.9-0.4-1.4c-0.2-3.4-0.3-3.9,2.4-5.6
		C69.7,198.1,72.6,197.3,75.5,197.4z"/>
	<path class="st20" d="M161.5,209.1c1.4-0.9,2.4-0.2,3.3,0.2c7.7,3.7,15.4,7.3,23,11.3c6.3,3.4,12.4,7.3,18.5,11
		c1.3,0.8,2.4,1.8,3.4,2.9c0.6,0.6,1.4,1.7,0.5,2.5c-0.7,0.4-1.6,0.4-2.4,0.1c-2.6-1.1-5.2-2.4-7.7-3.8
		c-9.1-5.4-18.2-10.9-27.2-16.5c-3.3-2-6.6-4.2-9.9-6.4C162.5,210.1,162,209.6,161.5,209.1z M181.3,219.2c-1.4-1-3-1.7-4.7-2
		l4.3,2.4l18,10.7c2.6,1.9,5.4,3.4,8.4,4.7l0.3-0.4l-7.4-4.6C194.1,226,187.8,222.4,181.3,219.2z"/>
	<path class="st20" d="M106,289.5c6.7-4.2,9.2-10.3,9.7-17.8c0.7,0.7,1.2,0.9,1.2,1.2c0.1,1,0.1,1.9,0.1,2.9c0.1,3.3,1,6.5,2.5,9.4
		c1.2,2.2,3.2,4,5.5,4.9c0.3,1.1-0.3,1.4-1,1.6c-3.9,1.1-6.9,4.4-7.6,8.4c-0.3,1.5-0.5,3.1-0.8,4.7c-0.1,0.6-0.3,1.1-0.5,1.7h-0.6
		c-0.1-0.6-0.3-1.3-0.4-1.9c-0.4-3.5-1-6.9-2.9-10c-0.8-1.4-1.9-2.6-3.3-3.4C107.3,290.6,106.7,290,106,289.5z M116.2,282l-0.2-1.1
		c-1.6,3.4-3.8,6.5-6.6,9c2.8,2,4.1,4.9,5.5,8.1c0.3-0.8,0.6-1.4,0.8-1.9l5.4-5.8C118.5,288.3,117.4,285.1,116.2,282L116.2,282z"/>
	<path class="st22" d="M101.1,257.7c-1.6-0.8-1.5-2.1-1.2-3.4c0.9-3.2,0-6.7-2.5-8.9c-1.3-1.1-2.1-2.6-2.4-4.2
		c1.8-1.6,3-1.6,4.6-0.2c4,3.4,5.2,11.8,2.4,16.1C101.7,257.3,101.4,257.5,101.1,257.7z"/>
	<path class="st22" d="M132.5,187.3c-1.4-1.1-1.8-2.2-1.5-3.3c0.6-2.1,1.3-4.2,2.1-6.3c0.4-0.7,1-1.3,1.7-1.6
		c0.6-0.2,1.3-0.2,1.9,0.1c0.5,0.4,0.8,1.1,0.7,1.8c-0.6,2.6-1.1,5.1-2.8,7.3C134.1,186,133.3,186.6,132.5,187.3z"/>
	<path class="st18" d="M170.7,270.7c-0.8-0.5-1.6-1-2.4-1.5c-1.8-1.2-3.5-2.5-5.3-3.7c1-1.5,0.9-3.8,2.8-4.8
		C167.3,261.6,169.6,266.3,170.7,270.7z"/>
	<path class="st17" d="M251.7,259c0-2.6,0.1-5.3,0.1-7.9c0-3.1,0.6-6.2,1.6-9.1c1.1-3.6,3.8-5.8,7.1-7.4c0.8-0.4,1.5-0.6,1.2-1.7
		c-7.9-0.7-11.4-6.5-14.5-12.7c-1.3-2.6-2.4-5.2-2.1-8.2c1.3-1.1,2.7-0.2,3.8,0.1c6.1,1.6,12.1,3.2,17.6,6.5
		c2.8,1.6,5.4,3.4,7.8,5.4c2,1.8,2.3,4,1.8,6.5c-0.9,4.5-3.4,8.2-6.3,11.6c-3.4,3.8-6.9,7.5-10.6,11.1c-2,1.9-4.2,3.6-6.4,5.4
		C252.6,259,252.1,259,251.7,259z"/>
	<path class="st24" d="M224.5,289.8l2.1,2.7c-0.9,0.2-1.4,0.5-1.8,0.4c-1.1-0.3-2.1-0.8-3-1.3c-8.1-5.5-16.1-11-24.1-16.4
		C182.8,265,167.9,255,153,245c-0.5-0.4-1-0.8-1.4-1.2c0.8,0.1,1.5,0.3,2.2,0.6c1.9,1.1,3.8,2.4,5.7,3.6c6.1,3.9,11.9,8,18.2,11.5
		c6.6,3.8,13,8,19.4,12.1c5.4,3.5,10.8,7.1,16.2,10.6c0.7,0.3,1.4,0.6,2.1,0.8l0,0c0,1.1,0.7,1,1.4,1l0,0c0.5,1.7,1.8,2.3,3.4,2.4
		l0,0l0.5,0.5l0,0c0,1,0.7,1,1.4,1l0,0l0.5,0.5l0,0l0.5,0.5l0,0L224.5,289.8z"/>
	<path class="st25" d="M215.4,283c-0.7-0.2-1.5-0.5-2.1-0.8c-5.4-3.5-10.8-7.1-16.2-10.6c-6.4-4.1-12.8-8.4-19.4-12.1
		c-6.2-3.6-12.1-7.6-18.2-11.5c-1.9-1.2-3.7-2.4-5.7-3.6c-0.7-0.3-1.5-0.5-2.2-0.6l0,0c-0.2-1.4-1.3-1.4-2.4-1.5l-0.9-0.6l-0.6-0.4
		l-12.4-8.2l0.5-0.4c5.6,3.2,11.3,6.2,16.8,9.6c9.3,5.7,18.5,11.7,27.8,17.5c5.5,3.4,11.1,6.6,16.5,10.2c6.1,4,12.1,8.4,18.1,12.6
		C215.2,282.6,215.3,282.8,215.4,283z"/>
	<path class="st13" d="M135.8,232.6l-0.5,0.4l-3.9-2.5l0.3-0.5L135.8,232.6z"/>
	<path class="st25" d="M220.2,286.4c-1.6-0.1-2.9-0.7-3.4-2.4L220.2,286.4z"/>
	<path class="st24" d="M149.2,242.2c1.1,0.1,2.1,0.1,2.4,1.5L149.2,242.2z"/>
	<path class="st25" d="M216.9,284c-0.8,0.1-1.5,0.1-1.4-1C215.9,283.4,216.4,283.7,216.9,284z"/>
	<path class="st25" d="M222.2,287.9c-0.7,0-1.5,0.1-1.4-1L222.2,287.9z"/>
	<path class="st25" d="M224.5,289.8l-1.4-1L224.5,289.8z"/>
	<path class="st25" d="M220.7,286.9l-0.5-0.5L220.7,286.9z"/>
	<path class="st25" d="M222.6,288.3l-0.5-0.5L222.6,288.3z"/>
	<path class="st25" d="M223.1,288.8l-0.5-0.5L223.1,288.8z"/>
	<path class="st24" d="M147.8,241.3l0.6,0.4L147.8,241.3z"/>
	<path class="st26" d="M172.7,275.4c8.1,5.5,16.2,10.9,24.2,16.6c7.3,5.2,14.4,10.7,21.6,16.1c0.3,0.3,0.5,0.6,0.8,0.9
		c-0.5-0.1-1.1-0.2-1.6-0.4c-1.1-0.7-2.3-1.5-3.4-2.2c-5.4-3.7-10.9-7.5-16.4-11.1c-0.9-0.5-1.8-0.9-2.8-1.1l-0.9-0.6l-0.4-0.4
		l-0.1-0.1l-0.5-0.4l-21.4-16.8L172.7,275.4z"/>
	<path class="st24" d="M195.2,294.1c1,0.3,1.9,0.7,2.8,1.1c5.5,3.7,10.9,7.4,16.4,11.1c1.1,0.8,2.2,1.5,3.4,2.2
		c0.5,0.2,1,0.3,1.6,0.4l0,0l0.5,0.5l0,0c0.2,0.2,0.3,0.4,0.5,0.5c1.4,1.4,2.6,2.9,2.7,5.3c-0.5-0.1-1.1-0.3-1.6-0.5
		c-1.3-0.9-2.6-1.8-3.8-2.8c-7.1-5.6-14.2-11.2-21.3-16.8C195.9,294.8,195.5,294.5,195.2,294.1z"/>
	<path class="st13" d="M172.7,275.4l-0.9,0.5l-0.1-0.1l-0.4-0.4l-11.9-9.1h0.8l12,8.7L172.7,275.4L172.7,275.4z"/>
	<path class="st17" d="M160.2,266.3h-0.8l-1.5-1l0.3-0.4L160.2,266.3z"/>
	<path class="st26" d="M171.3,275.4l0.4,0.4L171.3,275.4z"/>
	<path class="st26" d="M172.7,275.4l-0.5-0.4L172.7,275.4z"/>
	<path class="st24" d="M193.3,292.6l0.5,0.4L193.3,292.6z"/>
	<path class="st26" d="M219.8,309.5l-0.5-0.5L219.8,309.5z"/>
	<path class="st26" d="M220.2,309.9c-0.2-0.2-0.3-0.4-0.5-0.5C219.9,309.6,220.1,309.8,220.2,309.9z"/>
	<path class="st24" d="M193.9,293.1l0.4,0.4L193.9,293.1z"/>
	<path class="st16" d="M188.1,255.2c2.2,1.3,4.5,2.6,6.7,4.1c0.7,0.6,1.2,1.3,1.6,2.1l-0.4,0.5c-1-0.3-2-0.7-2.9-1.1
		c-7.7-5-15.4-10.1-23.1-15.2c-0.1-0.1-0.2-0.2-0.3-0.4l2,0.5l1.5,0.4l0,0l1,0.5l0,0l1,0.5l0,0c0,1,0.7,1,1.5,1l0,0l1.5,1l0,0l1,0.5
		l0,0c0.2,1.4,1.3,1.5,2.4,1.5l0,0l0.5,0.5l0,0l1,0.5l0,0c0.5,0.3,1,0.6,1.5,1l0,0l1.4,1l0,0c0.3,1,1.1,1,1.9,1l0,0L188.1,255.2z"/>
	<path class="st15" d="M171.7,245.7l-2-0.5c-0.1,0-0.2-0.1-0.3-0.1l-0.5-0.4l-0.9-0.6l-0.6-0.4l-0.4-0.2c-0.1-0.1-0.2-0.2-0.4-0.3
		l-0.1-0.1l-0.5-0.4l0,0l-0.5-0.2l-15.3-9.9l0.3-0.4l15.1,9.1c2.4,1.4,4.7,2.9,7.1,4.3L171.7,245.7z"/>
	<path class="st8" d="M150.5,232.2l-0.3,0.4l-3.9-2.4v-0.5L150.5,232.2z"/>
	<path class="st9" d="M181.4,250.9c-1.1,0-2.2-0.1-2.4-1.5L181.4,250.9z"/>
	<path class="st18" d="M146.3,229.8v0.5l-2.2-1.4l0.3-0.5L146.3,229.8z"/>
	<path class="st9" d="M187.6,254.8c-0.8,0-1.6-0.1-1.9-1L187.6,254.8z"/>
	<path class="st9" d="M176.6,248c-0.8,0.1-1.5,0.1-1.5-1L176.6,248z"/>
	<path class="st9" d="M184.3,252.8c-0.5-0.3-1-0.6-1.5-1C183.3,252.2,183.8,252.5,184.3,252.8z"/>
	<path class="st9" d="M185.7,253.8l-1.4-1L185.7,253.8z"/>
	<path class="st9" d="M178,249l-1.5-1L178,249z"/>
	<path class="st9" d="M171.7,245.7h1l0.6,0.4L171.7,245.7z"/>
	<path class="st9" d="M182.8,251.9l-1-0.5L182.8,251.9z"/>
	<path class="st9" d="M175.1,247.1l-1-0.5L175.1,247.1z"/>
	<path class="st9" d="M174.2,246.6l-1-0.5L174.2,246.6z"/>
	<path class="st9" d="M179,249.4l-1-0.5L179,249.4z"/>
	<path class="st9" d="M181.9,251.4l-0.5-0.5L181.9,251.4z"/>
	<path class="st16" d="M168.9,244.7l0.5,0.4L168.9,244.7z"/>
	<path class="st16" d="M167.4,243.7l0.6,0.4L167.4,243.7z"/>
	<path class="st16" d="M166.6,243.2c0.2,0,0.3,0.1,0.4,0.3L166.6,243.2z"/>
	<path class="st9" d="M188.1,255.2l-0.5-0.4L188.1,255.2z"/>
	<path class="st16" d="M166,242.8l0.5,0.4L166,242.8z"/>
	<path class="st16" d="M165.5,242.5l0.5,0.2L165.5,242.5z"/>
	<path class="st27" d="M172.9,149.5c0.3,1.5,0.6,3.1,1,4.6c0.7,2.6,2.2,5,4.3,6.7c-4.4,1.4-6.9,4.5-9.3,7.7
		c-0.8-3.8-2.3-7.3-4.4-10.5C168,155.9,170.9,153,172.9,149.5z"/>
	<path class="st26" d="M172.9,149.5c-2,3.5-4.9,6.4-8.4,8.5c2.1,3.2,3.6,6.8,4.4,10.6l-0.9,2.1c-1-5.4-2.5-10-6.5-13.5
		c5.2-2,8.4-5.6,11-10.7L172.9,149.5z"/>
	<path class="st27" d="M247.2,225.3c2.2,3.9,5.5,7.2,9.6,9.3c-5.6,3.6-5.9,9.4-6.9,15c-1.4-2.1-2.8-4.2-4.2-6.3
		c0.1-0.3,0.3-0.8,0.1-1c-1.1-1.3-2.2-2.5-3.3-3.7c-0.4-0.4-0.8-0.7-1.2-1.1c0.9-1.1,1.7-1.9,2.4-2.9
		C245.8,231.8,246.5,228.6,247.2,225.3z"/>
	<path class="st26" d="M247.2,225.3c-0.8,3.3-1.4,6.6-3.5,9.3c-0.7,0.9-1.5,1.8-2.4,2.9c0.4,0.4,0.8,0.7,1.2,1.1
		c1.1,1.2,2.3,2.4,3.3,3.7c0.1,0.2-0.1,0.6-0.1,1c-2.4-2.3-4.7-4.6-8.1-6.1c5.1-3.5,7.5-8.4,8.6-14.3L247.2,225.3z"/>
	<path class="st27" d="M147.6,183.3c0.7,2,1.3,4.1,2.1,6.1c1,2.4,2.6,4.5,4.7,6.1c-5,2.1-7.9,5.9-10.2,10.4l-0.1-0.6l-0.2-0.9h0.1
		c0.1-1.7-0.3-3.4-1.1-4.8c-0.8-1.7-1.7-3.4-2.6-5.1C144.3,191.7,146.3,187.7,147.6,183.3z"/>
	<path class="st26" d="M147.6,183.3c-1.3,4.4-3.3,8.4-7.4,11.2c0.9,1.8,1.7,3.4,2.6,5.1c0.9,1.4,1.3,3.1,1.1,4.8
		c-0.6-1.4-1.3-2.9-2.1-4.2c-1.4-2.2-3.1-4.2-4.7-6.5c4.7-2.6,7.9-6.8,10.1-12.2L147.6,183.3z"/>
	<path class="st26" d="M143.9,204.4l0.2,0.9L143.9,204.4z"/>
	<path class="st9" d="M198.9,230.4l-18-10.7l0.4-0.5c6.5,3.1,12.8,6.7,18.9,10.7L198.9,230.4z"/>
	<path class="st14" d="M198.9,230.4l1.2-0.4l7.4,4.6l-0.3,0.4C204.3,233.8,201.5,232.2,198.9,230.4z"/>
	<path class="st16" d="M181.3,219.2l-0.4,0.5l-4.3-2.4C178.3,217.5,179.9,218.2,181.3,219.2z"/>
	<path class="st27" d="M116.2,282c1.2,3.1,2.2,6.3,4.9,8.2l-5.4,5.8l-3.2-6.3C113.8,287.1,115,284.5,116.2,282z"/>
	<path class="st26" d="M116.2,282c-1.2,2.5-2.5,5.1-3.8,7.8l3.2,6.3c-0.2,0.5-0.4,1.1-0.8,1.9c-1.3-3.2-2.7-6.1-5.5-8.1
		c2.8-2.5,5-5.6,6.6-9L116.2,282z"/>
</g>
</svg>
