<?xml version="1.0" encoding="utf-8"?>
<!-- Generator: Adobe Illustrator 24.1.2, SVG Export Plug-In . SVG Version: 6.00 Build 0)  -->
<svg version="1.1" xmlns="http://www.w3.org/2000/svg" xmlns:xlink="http://www.w3.org/1999/xlink" x="0px" y="0px"
	 viewBox="0 0 491.8 491.8" style="enable-background:new 0 0 491.8 491.8;" xml:space="preserve">
<style type="text/css">
	.st0{fill:#121D43;}
	.st1{fill:#140A2A;}
	.st2{fill:#152957;}
	.st3{fill:#69473B;}
	.st4{fill:#69463A;}
	.st5{fill:#7B664C;}
	.st6{fill:#7A664C;}
	.st7{fill:#68463A;}
	.st8{fill:#65443A;}
	.st9{fill:#67453A;}
	.st10{fill:#935279;}
	.st11{fill:#9785BD;}
	.st12{fill:#8479A6;}
	.st13{fill:#130A2C;}
	.st14{fill:#2D72B9;}
	.st15{fill:#140C2F;}
	.st16{fill:#140B2B;}
	.st17{fill:#94537A;}
	.st18{fill:#9B8AC3;}
	.st19{fill:#A78DBA;}
	.st20{fill:#3348A0;}
	.st21{fill:#2C327C;}
	.st22{fill:#160D30;}
	.st23{fill:#150C2F;}
	.st24{fill:#4787D8;}
	.st25{fill:#A9749C;}
	.st26{fill:#A89CCC;}
	.st27{fill:#AD779F;}
	.st28{fill:#AE9ECF;}
</style>
<g id="Layer_1">
	<path class="st0" d="M455.4,248c-0.4-4.6-0.7-9-1-13.6c-0.9-10.5-2.8-21-5.8-31.1c-3.6-12.9-8.9-25.3-15.8-36.8
		c-3.8-6.4-7.8-12.6-13.1-17.9c-7.8-7.8-17.2-13.5-27.2-18.1c-6.7-3.1-13.6-5.7-20.6-8.3c-13.7-5-28.5-6.3-42.9-3.6
		c-22.4,4.1-40.6,15.6-55.4,32.6c-6.1,7-11.3,14.7-15.6,22.9c-0.8,1.5-1.3,3.5-2.5,4.2c-1.2,0.7-3.2,0.1-4.9,0.1h-17.6
		c-0.2-2.1-0.3-4.3-0.7-6.5c-1.7-9.7-3.8-19.3-6.5-28.8c-3.6-13.2-9.2-25.7-16.8-37.1c-3-4.5-6.6-8.6-11.5-11c-4.4-2.2-9-4-13.6-5.8
		c-1.4-0.5-2.9-0.7-4.5-0.7c-4.3-0.2-8.2,1-12,2.8c-7.2,3.5-13.4,8.9-17.7,15.7c-12.4,19-22.2,39.6-29.2,61.2c-1.4,4.3-2.6,8.6-4,13
		c-6.2-0.3-12-0.5-17.8-0.9c-7.7-0.5-15.5,0-23.1,1.5c-6.5,1.1-12.9,3.4-18.7,6.6c-3.1,1.7-5.5,4.4-6.9,7.7c-0.9,2-1.2,4.2-0.8,6.3
		c0.6,3.9,2,7.6,3.9,11c3,4.8,6,9.7,9.3,14.2c6.4,8.5,13.6,16.5,21.4,23.8c1.9,1.9,2.6,3.4,2.1,6.1c-0.6,3.9-1,7.7-1.1,11.6
		c-0.6,8.3-1.4,16.5-1.7,24.8c-0.2,6.8,0.1,13.6,0.3,20.4c0,1.3,0,2.7,0.2,4.1c0.6,6.2,1.5,12.3,2.8,18.4c1.1,4.9,2.3,9.7,4.7,14.3
		c2.1,3.9,5.3,6.1,9.3,7.3c1.7,0.5,3.3,1.1,5,1.6c1.7,0.5,3.4,1,5.1,1.3c4.7,0.7,9.5,0.8,14.3,0.4c2.6-0.1,5-0.9,7.2-2.4
		c2.4-1.7,4.8-3.5,7-5.5c9.2-8.5,17.5-17.9,24.8-28.2c1-1.5,2-3,3.1-4.6c4,9.9,9.1,19,14.5,28c7.9,13.3,19.1,24.4,32.6,32
		c7.6,4.4,15.9,6.5,24.8,5.5c0.4-0.1,0.8-0.1,1.2-0.1c2.6-0.3,5.3-0.4,7.8-0.9c6.9-1.4,12.5-4.9,16-11.1c2.9-5.1,5.2-10.6,7-16.2
		c0.7-2.3,1.4-4.5,2.1-7c2.1,2.2,3.9,4.2,5.8,6.1c8.7,9.2,19.1,16.6,30.6,21.9c12.7,5.9,26.8,8.4,40.8,7.3c3.6-0.3,7.1-1.1,10.6-1.4
		c10.4-0.8,20.6-3.7,30-8.3c4.2-2.2,8.4-4.6,12.4-7.2c3.9-2.5,7.8-5,10.9-8.5c4.1-4.6,8.2-9.2,11.8-14.1c11-14.7,17.8-31.5,23-48.9
		c2.3-7.7,3.4-15.5,4.5-23.4C454.8,265.8,456.1,257,455.4,248z"/>
</g>
<g id="Layer_1_copy">
	<g id="Frame1_1_">
		<path class="st1" d="M116.8,181.3c1.3-4.4,2.6-8.7,4-13c6.9-21.6,16.7-42.2,29.2-61.2c4.3-6.8,10.4-12.2,17.7-15.7
			c3.8-1.8,7.7-3,12-2.8c1.5,0,3,0.2,4.5,0.7c4.6,1.8,9.2,3.6,13.6,5.8c4.9,2.4,8.5,6.5,11.5,11c7.5,11.4,13.2,23.9,16.8,37.1
			c2.7,9.5,4.8,19.1,6.5,28.8c0.4,2.2,0.5,4.4,0.7,6.4h17.6c1.6,0,3.6,0.6,4.9-0.1c1.2-0.7,1.7-2.7,2.5-4.2
			c4.3-8.2,9.5-15.9,15.6-22.9c14.8-17,33-28.5,55.4-32.6c14.3-2.7,29.2-1.5,42.9,3.6c7,2.5,13.9,5.2,20.6,8.3
			c10,4.6,19.3,10.2,27.2,18.1c5.3,5.3,9.3,11.6,13.1,17.9c6.9,11.5,12.2,23.9,15.8,36.8c2.9,10.2,4.9,20.6,5.8,31.1
			c0.3,4.5,0.6,9,1,13.6c0.7,9-0.7,17.8-1.9,26.6c-1.1,7.9-2.2,15.8-4.5,23.4c-5.2,17.4-12,34.2-23,48.9c-3.6,4.9-7.7,9.5-11.8,14.1
			c-3.1,3.5-7,6-10.9,8.5c-4,2.6-8.1,5-12.4,7.2c-9.4,4.7-19.6,7.5-30,8.3c-3.6,0.3-7.1,1.1-10.6,1.4c-14,1.1-28-1.4-40.8-7.3
			c-11.5-5.3-21.9-12.7-30.6-21.9c-1.9-1.9-3.7-3.9-5.8-6.1c-0.7,2.5-1.4,4.8-2.1,7c-1.8,5.6-4.1,11.1-7,16.2
			c-3.5,6.3-9.1,9.7-16,11.1c-2.6,0.5-5.2,0.6-7.8,0.9c-0.4,0-0.8,0-1.2,0.1c-8.9,1-17.1-1.2-24.8-5.5c-13.5-7.6-24.7-18.7-32.6-32
			c-5.3-9-10.5-18.1-14.5-28c-1.1,1.6-2.1,3.1-3.1,4.6c-7.2,10.3-15.5,19.7-24.8,28.2c-2.2,2-4.6,3.8-7,5.5
			c-2.1,1.4-4.6,2.2-7.2,2.4c-4.8,0.4-9.5,0.3-14.3-0.4c-1.7-0.3-3.4-0.7-5.1-1.3c-1.7-0.5-3.3-1.1-5-1.6c-4-1.2-7.3-3.4-9.3-7.3
			c-2.4-4.5-3.6-9.4-4.7-14.3c-1.3-6.1-2.3-12.2-2.8-18.4c-0.1-1.4-0.2-2.7-0.2-4.1c-0.1-6.8-0.5-13.6-0.3-20.4
			c0.3-8.3,1.1-16.5,1.7-24.8c0.2-3.9,0.5-7.8,1.1-11.6c0.5-2.7-0.2-4.3-2.1-6.1c-7.8-7.3-15-15.3-21.4-23.8
			c-3.3-4.6-6.3-9.4-9.3-14.2c-2-3.4-3.3-7.1-3.9-11c-0.4-2.1-0.2-4.3,0.8-6.3c1.4-3.2,3.9-5.9,6.9-7.7c5.8-3.3,12.1-5.5,18.6-6.6
			c7.6-1.4,15.4-1.9,23.1-1.5C104.9,180.7,110.7,181,116.8,181.3z M336.4,232.2l-0.5-0.5l0,0l-0.5-0.5l0,0l-0.5-0.5l0,0l-0.5-0.5
			l0,0l-0.5-0.5l0,0l-0.5-0.7l-2.1-2.2l-10.4-10.3l-0.5,0.3l0.9,1.9l0.7,0.8l0.1,0.1l0.4,0.4l0.1,0.1l0.4,0.4l0.1,0.1l0.4,0.4
			l0.1,0.1l0.4,0.4l0.1,0.1l0.4,0.4l0.1,0.1l0.4,0.4l0.1,0.1l0.4,0.4l0.1,0.1l0.4,0.4l1.8,2c0.3,0.6,0.7,1.2,1.2,1.7
			c5.5,6.1,11,12.2,16.6,18.2c3.9,4.2,8,8.2,12.2,12.2c2.4,2.4,5.1,4.3,8.2,5.8c0.2-1.8,0-2.2-2.2-4.7l-0.9-1l0,0l-0.5-0.5l0,0
			l-0.5-0.5l0,0l-0.5-0.5l0,0l-0.5-0.5l0,0l-1-1l0,0l-0.5-0.5l0,0l-0.5-0.5l0,0c-2.4-2.4-4.7-4.8-7.1-7.1c-0.5-0.4-1-0.7-1.5-1l0,0
			l-0.5-0.5l0,0l-0.5-0.5l0,0l-0.5-0.5l0,0l-0.5-0.5l0,0l-0.5-0.5l0,0l-1-1l0,0l-0.5-0.5l0,0l-0.5-0.5l0,0l-0.5-0.5l0,0l-0.5-0.5
			l0,0l-0.5-0.5l0,0l-0.5-0.5l0,0l-0.5-0.5l0,0l-4.4-4.2l-0.4-0.1l0,0l-0.5-0.5l0,0l-0.5-0.5l0,0l-0.5-0.5l0,0l-0.5-0.5l0,0
			l-0.5-0.5L336.4,232.2z M372.9,128.1c-0.3-0.2-0.6-0.4-1-0.6c-8-3-16.4-4.7-24.9-5c-3.3-0.2-6.7,0.2-10,0.3
			c-4.9,0.3-9.8,1.1-14.6,2.5c-7.6,2.1-14.9,5.2-21.7,9.4c-9.8,6-18.7,13.1-25.7,22.3c-4.9,6.5-9.7,13.1-13.1,20.6
			c-0.3,0.6-0.5,1.1-0.7,1.7c0.7,0.1,1.3,0.2,2,0.4c1.2,0.4,1.6-0.1,2.1-1.2c1-2.1,2.1-4.1,3.3-6.1c4.3-6.8,9.6-12.7,15.3-18.3
			c7.1-7.1,15.4-12.8,24.5-16.9c13.5-6.1,28.2-8.9,43-8.2c4.2,0.1,8.4,0.7,12.5,1.6c0.5,0.3,0.9,0.6,1.5,0.8
			c6.6,2.2,12.9,5.1,18.9,8.6c10.8,6.2,19.8,14.5,27.6,24.1c4.1,5.2,7.7,10.8,10.8,16.6c3.2,5.6,5.7,11.5,7.5,17.6
			c2.5,8.4,4.3,17,5.4,25.7c0.9,8,2.2,15.9,2.6,23.9c0.3,6.7,0.1,13.4-0.5,20.1c-0.6,6.1-1.5,12.1-2.8,18.1
			c-2,9.9-5.2,19.6-9.4,28.8c-2.9,6.4-6.7,12.2-10.4,18c-5.9,9.2-13.4,17-21.7,24.1c-8,7-17,12.7-26.7,17c-4.8,2.1-9.8,3.7-15,3.9
			c-6.6,0.2-13.2,0.3-19.8-0.8c-10.5-1.7-20.4-5.9-29.1-12.1c-4.1-3-8-6.3-12-9.5c-4.4-3.5-8.5-7.5-12.2-11.8
			c-1-1.2-2.1-2.3-3.3-3.6c-0.4,1.7-0.7,3-1,4.5c-0.2,0.8,0.1,1.6,0.7,2.1c4.6,4.6,9,9.5,13.9,13.8c9.5,8.3,20.6,14.4,32.7,17.9
			c6.5,2,13.2,3.1,20,3.2c3.3,0.1,6.5-0.1,9.8-0.4c3.6-0.3,7.1-0.9,10.6-1.7c6.7-1.7,13.2-4.2,19.3-7.6
			c10.7-5.8,20.2-13.5,28.2-22.7c5.7-6.5,10.8-13.7,15-21.3c6-10.7,10.6-22.2,13.7-34.1c2-7.7,3.5-15.5,4.4-23.4
			c0.8-6.3,1-12.7,1.3-19c0.1-2.4-0.4-4.8-0.4-7.1c0-4.2-0.5-8.4-0.9-12.6c-0.7-6.7-1.9-13.3-3.5-19.8c-3-12.7-7.7-24.9-14-36.3
			c-5.8-10.4-13.1-19.9-21.7-28.1c-7.4-7.2-16-13-25.3-17.4C376.6,129.4,374.7,128.8,372.9,128.1z M93.5,343.5
			c0.6,1.5,1.1,3,1.8,4.4c2.3,4.9,6.8,6,11.5,6.4c2.1,0.2,4.3-0.4,6.4-0.8c6.7-1.1,13-4.1,18-8.8c5.5-5.2,10.8-10.7,15.9-16.3
			c3.8-4.2,7.3-8.6,10.8-13.1c1.9-2.4,3.5-5,5.2-7.5c0.6-0.9,1.2-1.9,2.6-1.2c0.3,1.3,0.7,2.5,1.1,3.7c1.9,4.7,3.6,9.6,6,14.1
			c3.1,6.2,6.6,12.2,10.2,18.2c5.3,8.9,11.2,17.3,19.4,23.9c4.2,3.6,8.7,6.8,13.4,9.6c5.1,2.8,10.7,4.6,16.5,5.3
			c7.7,1.1,13.9-1.5,18.7-7.3c5.6-6.7,8.3-14.8,10.1-23.3c1.9-8.9,2.6-17.9,3.3-27c0.4-4.9,0.4-9.9,0.5-14.8c0-1.9,0-3.8,0-5.8
			s0.1-4,0-6c-0.3-5.1-0.5-10.2-0.9-15.3c-0.1-1.7,0.7-3.3,2.1-4.2c2-1.7,4.1-3.3,6-5.1c4.5-4.4,9.1-8.6,13.2-13.3
			c5.7-6.5,11-13.3,15.1-20.9c2.9-5.4,5.9-10.7,6.6-17.1c0.7-5-0.8-10-4.2-13.7c-3-3.3-6.9-5.6-10.8-7.8c-4.8-2.6-10-3.9-15.4-5.1
			c-9.5-2.1-19.2-3.4-28.9-4c-7-0.4-14-0.4-21-0.5c-0.8,0-1.6,0-2.4,0c-1.7-0.1-2.4-0.8-2.6-2.5c-0.3-3.6-0.5-7.1-0.9-10.7
			c-0.4-4.6-0.8-9.2-1.5-13.8c-1.2-8-3-15.8-5.5-23.4c-3-9.5-7-18.7-12-27.3c-2.8-5-6.3-9.7-10.4-13.7c-2.6-2.4-5.3-4.6-9-5
			c-0.8-0.2-1.7-0.4-2.6-0.5c-3.2-0.1-6.4,0.6-9.2,2.1c-7.5,3.4-13.7,9.1-17.9,16.1c-8,12.8-15.6,25.9-20.9,40
			c-2.8,7.5-5.4,15-8,22.5c-1.2,3.4-2.2,6.8-3.3,10.2c-0.3,1-0.7,1.7-2,1.6c-2.1-0.2-4.1-0.4-6.2-0.5c-5.1-0.3-10.2-0.8-15.3-0.8
			c-4.8,0-9.5,0.5-14.3,0.8c-6.4,0.5-12.6,2.1-18.4,4.7c-3.1,1.2-5.8,3.1-8,5.5c-1.6,1.6-2.3,3.9-1.9,6.2c0.5,2.4,1.1,4.8,2,7.1
			c1.8,4.9,4.9,9.2,7.8,13.4c6,8.5,12.7,16.4,20.2,23.6c1.4,1.4,2.9,2.7,4.5,4c1.1,0.9,1.6,2.3,1.3,3.6c-0.3,2.5-0.7,5-0.8,7.6
			c-0.3,4.2-0.3,8.4-0.5,12.7c-0.2,4.9-0.5,9.7-0.5,14.6c0,9.6,0.3,19.2,0.4,28.7c0.2,6.1,1.1,12.2,2.5,18.2
			C91.8,338.2,92.8,340.9,93.5,343.5z M314.8,199.5c0.2,0.3,0.3,0.5,0.5,0.8c3.1,3.4,4.9,7.7,5.3,12.3c0.1,0.8,0.4,1.5,1,2.1
			c1.2,1.3,2.6,2.3,3.9,3.5c5.9,5.6,11.8,11.1,17.7,16.8c2.4,2.2,4.8,4.4,7.1,6.7c5.1,4.9,10.2,9.7,15.1,14.7
			c1.3,1.6,2.4,3.3,3.3,5.2c0.3,0.7,0.4,1.6,0.2,2.3c-0.3,1.6-2.4,2.9-3.6,2.2c-1.8-1-3.6-2.1-5.3-3.3c-6-4.3-10.8-9.7-15.8-14.9
			c-3.7-3.8-7.1-7.9-10.6-12c-2.8-3.2-5.5-6.4-8.2-9.6c-1.4-1.7-2.9-3.3-4.6-5.2c-0.3,0.6-0.5,1.2-0.7,1.8c-0.6,2.8-1.1,5.6-1.9,8.3
			c-1.4,4.3-3.3,8.5-5.8,12.3c-0.8,1.2-1.9,2.4-1.9,4l0,0c-0.4,0.2-0.8,0.5-1.1,0.8c-2.1,2.6-4,5.4-6.1,7.9c-4,4.8-8,9.5-12.1,14.2
			c-1.3,1.4-2.8,2.6-4.3,3.8c-3.1,2.8-6.1,5.6-9.3,8.3c-1.3,1-2,2.6-1.7,4.2c0.4,2.7,0.6,5.4,0.9,8c0.2,1.8,0.4,3.6,0.5,5.5
			c0.3,3.5,0.7,7,0.9,10.4c0.1,2.1-0.4,4.3-0.4,6.4c0,5.2-0.5,10.3-1.4,15.4c-0.4,1.6,0,3.3,1,4.5c2,2.3,3.8,4.8,5.9,6.9
			c2.6,2.6,5.5,5,8.4,7.5c5.5,4.8,11.3,9.2,17.5,13.2c10.2,6.7,22.1,10.2,34.3,10.1c3.7,0.1,7.5-0.1,11.2-0.7c5-1,9.9-2.7,14.4-4.9
			c5.4-2.6,10.5-5.7,15.4-9.2c4.9-3.4,9.5-7.2,13.8-11.4c2.9-2.8,5.7-5.8,8.4-8.9c2.2-2.4,4.2-5,6-7.7c2.4-3.9,4.6-8,6.6-12.2
			s3.9-8.6,6-12.8c4.5-8.9,6.5-18.6,8-28.3c0.6-3.7,1.1-7.4,1.5-11.1c0.4-4,0.8-7.9,0.9-11.9c0.1-4.9-0.2-9.7-0.4-14.6
			c-0.1-2.1-0.3-4.1-0.6-6.2c-0.7-4.1-1.6-8.1-2.2-12.2c-1.4-8.6-3.4-17-6.1-25.2c-3.4-10.5-8.9-19.9-15.4-28.7
			c-2.3-3.1-4.7-6-7.3-8.8c-2.9-3.2-5.9-6.2-9.1-9.1c-4.4-3.7-9.2-7-14.3-9.7c-4.8-2.6-9.9-4.8-15.2-6.4c-4.9-1.7-10-2.6-15.2-2.5
			c-5.6,0-11.3,0.6-16.8,1.6c-7.4,1.5-14.9,2.6-21.6,6.4c-0.1,0.1-0.3,0.1-0.4,0.2c-4.9,1.9-9.6,4.5-13.9,7.5
			c-6.7,4.7-12.9,10.2-18.2,16.4c-3.4,3.9-6.5,8-9.4,12.4c-0.5,0.9-1,1.8-1.6,2.9c0.6,0.3,1.2,0.5,1.9,0.7c2.2,0.4,4.4,0.6,6.6,1
			c4.2,0.9,8.4,1.8,12.5,3.1c3.6,1.1,7,2.7,10.5,4.1C305.1,191,310.4,194.8,314.8,199.5L314.8,199.5z M272.6,281.5
			c2-1.9,3.9-3.8,5.8-5.5c6-5.2,11.6-10.8,16.7-16.8c5.1-5.9,9.7-12,13.9-18.5c2.6-4.2,5-8.6,6.1-13.5c0.6-3.1,0.7-6.3,1.3-9.4
			c0.9-4.2,0-8.6-2.5-12.1c-2.9-4.3-6.8-7.8-11.4-10.3c-2.3-1.3-4.7-2.4-7.2-3.3c-5-1.9-10.1-3.5-15.3-4.9
			c-5.9-1.4-11.9-2.3-17.8-3.3c-2.2-0.4-4.4-0.8-6.6-1s-4.4-0.4-6.7-0.4c-5.3-0.2-10.7-0.4-16-0.5c-0.6-0.1-1.3,0.1-1.8,0.4
			c-1.3,1.1-2.4,2.3-3.5,3.4c0.8,0.3,1.6,0.5,2.5,0.4c4.9,0,9.8-0.1,14.6,0.1c4.4,0.1,8.7,0.6,13.1,0.9c2.2,0.2,4.4,0.4,6.6,0.8
			c4.6,0.8,9.2,1.8,13.9,2.5c8.2,1.2,15.9,4.4,22.6,9.3c2.4,1.8,4.7,3.9,6.6,6.2c4.8,5.7,5.3,12.3,3.6,19.2c-1.2,5-3.5,9.5-6,14
			c-5.3,9.7-12.3,18.1-19.5,26.2c-4,4.5-8.6,8.5-13,12.7c-0.8,0.8-1.6,1.5-2.5,2.5L272.6,281.5z M401.9,139.5c0.5,0.3,0.9,0.6,1.3,1
			c6.8,6.4,13.3,13.1,18.6,20.8c5.5,7.8,10.1,16.1,13.8,24.9c2.3,5.7,4.4,11.5,6.2,17.3c2.4,7.4,4,15.1,4.9,22.8
			c0.6,5.8,1.5,11.5,1.7,17.3c0.5,9.6,0.1,19.3-1.3,28.9c-0.9,5.5-1.7,11-2.8,16.5c-2.1,9.5-5.1,18.8-9,27.7
			c-2.9,6.9-6.3,13.6-10.3,20c-3.6,5.8-7.6,11.2-12,16.4c-4.4,5-9.1,9.6-14.3,13.7c-1.5,1.2-3.1,2.4-4.7,3.6
			c0.3,0.2,0.4,0.3,0.4,0.2c5.3-2.9,10.2-6.5,14.7-10.6c9.1-8.2,15.8-18.3,21.6-29c6-11.2,10.8-23,14.5-35.1
			c1.5-4.5,2.6-9.2,3.3-13.9c0.5-4.4,1.1-8.8,1.5-13.3c0.5-5,1-10,1.3-15c0-2.3-0.1-4.6-0.4-6.9c-0.3-4.1-0.6-8.2-1-12.4
			c-0.7-7.8-1.9-15.5-3.9-23c-2.1-8.4-4.4-16.7-8.2-24.4c-3-6-6-12-9-18c-4.9-9.8-11.8-18.5-20.3-25.4
			C406.8,141.9,404.4,140.5,401.9,139.5L401.9,139.5z M253,379.8c2.8-0.5,3.5-0.8,4.9-2.7c1.8-2.6,3.4-5.4,4.7-8.3
			c4.2-8.6,6.6-17.8,8.5-27.1c1-5.4,1.8-10.8,2.5-16.3c0.6-5.2,1-10.5,1.3-15.7c0-2-0.1-4-0.4-5.9c-0.4-5.8-0.7-11.6-1-17.4
			c0-0.6-0.3-1.4-0.7-1.6c-1.3-0.8-2.8-1.3-4.5-2.1c0,1,0,1.5,0,2.1c0.3,3.8,0.8,7.6,0.8,11.4c0,8.5,0.5,16.9-0.4,25.4
			c-0.4,4.4-0.5,8.7-1,13.1c-0.7,6.2-1.3,12.4-2.6,18.4c-2,9.4-5.5,18.2-11.6,25.7C253.3,379,253.2,379.4,253,379.8z M198.5,100
			c2.3,3.6,4.8,7.2,6.8,10.9c6.2,11.2,10.9,23.1,13.9,35.6c1.6,6.6,3,13.4,4.2,20.1c0.8,4.4,1.1,9,1.6,13.5c0.1,1,0.4,1.9,0.6,3.2
			c1.3-1.1,2.4-2,3.4-3c0.4-0.5,0.6-1.1,0.6-1.7c-0.3-2.3-0.6-4.6-1.1-6.8c-1.5-6.8-3-13.5-4.6-20.3c-2.4-10.7-6.1-21-10.9-30.8
			c-2-4-4.3-7.9-6.6-11.7C204.5,105.5,201.7,102.5,198.5,100z M164.5,314.2c-2,2.5-3.9,4.8-5.8,7.2c-4.5,5.9-9.4,11.5-14.6,16.8
			c-3,3-6,5.9-9,9c-4.3,4.5-9.7,7.9-15.6,9.9c-0.5,0.2-1,0.5-1.5,0.8c1.3,0.3,2.6,0.4,3.9,0.3c0.8,0,1.6-0.3,2.4-0.3
			c2.2,0.1,4.3-0.6,6.1-1.8c2.4-1.7,4.7-3.5,6.9-5.5c2.2-2,4.1-4.3,6.1-6.4s4-3.8,5.9-5.9c5.4-6.2,10.4-12.7,15-19.5
			C165.4,317.4,165.9,316,164.5,314.2L164.5,314.2z"/>
		<path class="st0" d="M310.4,247.6c0-1.6,1.1-2.8,1.9-4c2.5-3.8,4.4-8,5.8-12.3c0.8-2.7,1.3-5.6,1.9-8.3c0.2-0.6,0.4-1.2,0.7-1.8
			c1.6,1.9,3.1,3.5,4.6,5.2c2.8,3.2,5.5,6.4,8.2,9.6c3.5,4,6.9,8.1,10.6,12c5.1,5.1,9.9,10.6,15.9,14.9c1.7,1.2,3.5,2.3,5.3,3.3
			c1.3,0.7,3.3-0.6,3.6-2.2c0.2-0.8,0.1-1.6-0.2-2.3c-0.9-1.9-2-3.6-3.3-5.2c-4.9-5-10-9.8-15.1-14.7c-2.4-2.3-4.8-4.4-7.1-6.7
			c-5.9-5.6-11.8-11.2-17.7-16.8c-1.3-1.2-2.7-2.3-3.9-3.5c-0.6-0.6-0.9-1.3-1-2.1c-0.3-4.6-2.2-8.9-5.3-12.3
			c-0.2-0.3-0.4-0.5-0.5-0.8c1.4,0,2.9,0,4.3,0.1c2.3,0.1,4.5,0.3,6.8,0.4c0.7,0,1.3-0.1,1.4-0.9l10.8,9c3.4,2.8,6.9,5.6,10.3,8.5
			c2.6,2.2,5.2,4.5,7.8,6.7c3,2.6,6.1,5.1,9.1,7.7c2.7,2.3,5.4,4.7,8.1,7.1c3.1,2.7,6.3,5.3,9.4,8.1c3.5,3.1,6.9,6.4,10.5,9.4
			c4.8,4,9.6,7.8,14.5,11.6c2.5,2.1,5.5,3.6,8.7,4.4c3.3,0.7,4.9-0.8,4.4-4c-0.1-0.4-0.2-0.8-0.4-1.1c-1-2.3-2.6-4.2-4.6-5.8
			c-5.6-4.4-11.3-8.8-16.9-13.2c-6.3-5-12.5-10.1-18.9-14.9c-14.3-10.9-28.7-21.6-43.1-32.4c-0.4-0.4-0.8-0.9-1.1-1.4
			c2.2-0.7,4.4-1.3,6.5-2c11-3.5,21.4-8.9,30.5-16c4.6-3.5,8.1-8.2,10.3-13.5c0.7-1.5,1.3-3.1,1.5-4.7c0.6-5.5-0.4-11-2.7-16
			c-0.8-1.7-1.4-3.5-2-5.3c5.1,2.8,9.9,6.1,14.3,9.9c3.2,2.8,6.3,5.9,9.1,9.1c2.6,2.8,5.1,5.7,7.3,8.8c6.5,8.8,12,18.2,15.4,28.7
			c2.7,8.2,4.8,16.7,6.1,25.2c0.6,4.1,1.5,8.1,2.2,12.2c0.3,2,0.5,4.1,0.6,6.2c0.2,4.9,0.5,9.7,0.4,14.6c0,4-0.5,7.9-0.9,11.9
			c-0.4,3.7-0.9,7.4-1.5,11.1c-1.6,9.8-3.5,19.4-8,28.3c-2.1,4.2-3.9,8.6-6,12.8s-4.2,8.3-6.6,12.2c-1.8,2.7-3.8,5.3-6,7.7
			c-2.7,3.1-5.5,6-8.4,8.9c-4.3,4.2-8.9,8-13.8,11.4c-4.8,3.5-10,6.6-15.4,9.2c-4.6,2.2-9.4,3.9-14.4,4.9c-3.7,0.5-7.4,0.8-11.2,0.7
			c-12.2,0.1-24.1-3.5-34.3-10.1c-6.2-4-12-8.4-17.5-13.2c-2.8-2.5-5.7-4.8-8.4-7.5c-2.1-2.1-3.9-4.6-5.9-6.9c-1-1.3-1.4-2.9-1-4.5
			c0.9-5.1,1.4-10.3,1.4-15.5c0-2.1,0.5-4.3,0.4-6.4c-0.1-3.5-0.5-7-0.9-10.4c-0.2-1.8-0.3-3.6-0.5-5.5c-0.3-2.7-0.5-5.4-0.9-8
			c-0.3-1.6,0.4-3.2,1.7-4.2c3.1-2.7,6.2-5.5,9.3-8.3c1.5-1.2,2.9-2.5,4.3-3.8c4.1-4.7,8.1-9.4,12.1-14.2c2.1-2.6,4.1-5.3,6.1-7.9
			C309.6,248,310,247.8,310.4,247.6c-0.6,3.2-1.1,6.4-1.8,9.5c-1.3,5.9-4.5,11.2-9.1,15c-1.8,1.4-3.8,2.6-5.9,3.6
			c-0.5,0.3-1.3,0.1-1.4,1s0.9,1.1,1.5,1.2c2.4,0.5,4.5,1.8,6,3.7c1.1,1.2,2,2.4,2.9,3.8c2.7,4.4,4.3,9.5,4.5,14.6
			c0.1,1.8,0.3,3.6,0.6,5.4c0,0.3,0.6,0.6,1.3,1.2c0.4-2.4,0.8-4.3,1-6.3c0.1-1.1,0-2.3,0.2-3.3c0.8-4.2,2.6-8.2,5.3-11.6
			c2.4-2.9,5.1-5.5,9.1-6.2c0.8-0.1,1.7-0.3,3-0.5c-0.3-0.6-0.8-1.1-1.2-1.6c-0.7-0.4-1.4-0.8-2.1-1.1c-4.3-2.3-7.7-5.3-9.8-9.8
			c-1.7-3.5-2.5-7.2-2.5-11.1c0-2.1,0-4.3,0-6.5C311.9,247.9,311.4,247.5,310.4,247.6z M392.5,160.5c-1.7-0.1-1.9,0-1.9,1.6
			c-0.1,3.2,0.2,6.4-0.1,9.6c-0.2,2.8-0.7,5.7-1.5,8.4c-0.8,3.1-3,5.8-6,7.1c-1.2,0.5-2.5,1-3.8,1.4c-0.8,0.3-1.3,0.8-1.1,1.6
			c0.2,0.5,0.6,1,1.2,1.3c1,0.6,2.4,0.8,3.2,1.5c1.9,1.5,3.7,3.2,5.2,5.2c3.3,4.7,5.5,9.8,5.8,15.7c0,1.1,0.5,2.2,1.4,2.8
			c0.2-0.9,0.4-1.8,0.5-2.7c0.2-3.1,0.3-6.2,0.5-9.3c0.2-4.6,2.5-8.8,6.3-11.5c1.5-1.1,3.2-2.1,4.8-3.1c0.9-0.5,1.9-0.9,1.6-2.4
			c-0.5-0.2-1-0.3-1.5-0.4c-2.4-0.2-4.6-1.3-6.3-3c-2.9-3-4.9-6.7-5.8-10.8C393.9,169.2,393.3,164.9,392.5,160.5L392.5,160.5z
			 M342.7,330c0.3-0.7,0.6-1.5,0.8-2.3c0.6-2.9,1.1-5.8,1.9-8.6c1.5-5.6,3.6-10.7,9.4-13.3c0.9-0.4,0.9-1.3,0.5-2.1
			c-0.3-0.4-0.8-0.8-1.2-1.1c-3-2.3-5.3-5.3-6.8-8.8c-1.7-4.1-2.6-8.5-2.7-13c0-0.9-0.2-1.7-1.3-1.6s-1.1,0.8-1.1,1.6
			c-0.3,3.6-1.2,7.1-2.7,10.3c-2.3,5.3-5.7,9.8-11.1,12.4c-0.4,0.3-0.8,0.6-1.1,1c0.2,0.3,0.3,0.5,0.4,0.6c0.3,0.2,0.7,0.4,1,0.6
			c4.1,2.5,7.4,6.1,9.3,10.6c1.6,3.5,2.6,7.2,3.2,10.9C341.3,328.3,341.3,329.4,342.7,330z M291.2,294c-1.9,0.7-1.9,0.7-1.8,1.6
			c0.2,4.4-0.3,8.7-1.7,12.9c-1.1,3.4-2.8,6.5-6.9,7.2c-0.4,0.1-0.6,0.6-1,0.9c0.3,0.3,0.6,0.8,0.9,0.9c1.7,0.5,3.1,1.7,4,3.2
			c1.2,1.9,2.2,4,3,6.2c0.9,3.1,1.3,6.4,2.1,9.5c0.4,1.2,0.8,2.5,1.3,3.7h0.6c0.2-0.4,0.4-0.9,0.5-1.4c0.1-1.3,0-2.5,0-3.8
			c0-3.7,0.9-7.3,2.6-10.5c0.9-1.9,2.5-3.4,4.4-4.3c1-0.3,2-0.5,3-0.7c0.5-0.3,1-0.6,1.5-1c-0.3-0.5-0.6-0.9-1-1.3
			c-0.6-0.4-1.3-0.7-1.9-0.9c-2.3-0.9-4.2-2.6-5.5-4.8c-2.4-4.4-3.8-9.3-3.9-14.4C291.2,296.2,291.2,295.3,291.2,294L291.2,294z
			 M411.4,236.5c0.3-0.4,0.6-0.8,0.7-1.1c0.2-2.1,0.5-4.1,0.5-6.2c0.2-5.6,1.9-10.3,7.1-13.1c1.4-0.8,1.4-1.6,0-2.7
			c-1.8-1.4-3.2-3.1-4.2-5.1c-1.8-3.7-2.7-7.7-2.5-11.8c0-1.2,0-2.3,0-3.5c-1.5-0.2-1.8,0.5-1.9,1.5c-0.1,1.8-0.2,3.6-0.5,5.4
			c-0.8,5.8-2.6,11.1-9,13.1c-0.5,0.2-0.8,0.6-0.9,1.2c0.1,0.5,0.5,0.9,1,1.1c1,0.2,2,0.8,2.5,1.6c1.1,1.2,2.1,2.6,2.9,4
			c2.1,3.9,2.7,8.3,3,12.6C410.3,234.6,409.8,235.8,411.4,236.5L411.4,236.5z M357.5,354.9l0.6,0.1c0.3-0.5,0.5-1,0.7-1.5
			c0.5-1.8,0.8-3.7,1.4-5.5c0.7-2.9,3.1-5,6.1-5.4c0.6-0.1,1.1-0.4,1.5-0.9c0.4-0.8-0.4-1.2-1-1.6c-2.5-1.9-4.5-4.1-4.8-7.4
			c-0.2-2.4-0.2-4.8-0.1-7.1c0-1.5,0-1.6-1.9-2c-0.1,0.4-0.1,0.8-0.2,1.1c-0.6,2.9-1.1,5.9-1.9,8.8s-2.1,5.4-5.4,6.2
			c-0.5,0.1-0.9,0.8-1.3,1.2c0.5,0.4,0.9,1,1.4,1.1c2,0.4,3.6,2,3.8,4.1c0.3,1.6,0.3,3.2,0.5,4.7
			C357.1,352.1,357.3,353.5,357.5,354.9z"/>
		<path class="st2" d="M380,141.1c0.6,1.8,1.2,3.6,2,5.3c2.4,5,3.3,10.5,2.7,16c-0.3,1.6-0.8,3.2-1.5,4.7c-2.2,5.3-5.7,10-10.3,13.5
			c-9.1,7.1-19.5,12.5-30.5,16c-2.2,0.7-4.4,1.3-6.5,2c-1.7,0-2.6-1.4-3.8-2.2c-9-6.5-18-13-27.1-19.5c-5.2-3.7-10.4-7.4-15.6-11
			c-0.3-0.2-0.7-0.3-1.1-0.3c-0.6,0.7-0.5,1.7,0.2,2.2c0.1,0.1,0.1,0.1,0.2,0.2c1.1,0.9,2.1,1.9,3.3,2.8c6,4.9,12,9.7,18,14.6
			c5.8,4.6,11.6,9.2,17.3,13.8c-0.1,0.8-0.7,1-1.4,0.9c-2.3-0.1-4.5-0.3-6.8-0.4c-1.4-0.1-2.8-0.1-4.3-0.1c-4.3-4.8-9.7-8.5-15.7-11
			c-3.5-1.4-6.9-3-10.5-4.1c-4.1-1.3-8.3-2.1-12.5-3.1c-2.2-0.5-4.4-0.6-6.6-1c-0.7-0.2-1.3-0.4-1.9-0.7c0.6-1.1,1-2,1.6-2.9
			c2.8-4.3,5.9-8.5,9.4-12.4c5.4-6.2,11.5-11.7,18.2-16.4c4.3-3.1,8.9-5.6,13.9-7.5c0.2-0.1,0.3-0.1,0.4-0.2
			c6.7-3.8,14.2-4.9,21.6-6.4c5.6-1,11.2-1.5,16.8-1.6c5.2-0.1,10.3,0.8,15.2,2.5C370.1,136.4,375.2,138.5,380,141.1z M286.6,160.7
			c1.7-0.3,3.3-1.1,4.4-2.5c3.9-4,8.7-6.8,13.3-9.8c8.6-5.7,18.6-9,28.9-9.7c7.5-0.6,15-0.4,22.5,0.5c5.9,0.9,12.1,1.2,17.5,4.4
			c0.6,0.5,1.4,0.4,1.9-0.2c0.1-0.1,0.1-0.2,0.2-0.3c0.5-0.9-0.2-1.3-0.9-1.7c-1.9-1.1-3.8-2-5.8-2.9c-6.9-2.8-14.2-3.5-21.5-4.2
			c-5.7-0.5-11.5,0.4-17.1,1.1c-5.3,0.6-10.3,2.5-15.3,4.4c-4.7,1.8-9.2,4.1-13.4,6.8c-4.9,3-9.4,6.7-13.2,11
			C287.2,158.5,286.3,159.2,286.6,160.7L286.6,160.7z M365.6,177.7c-0.1-0.5-0.4-1-0.7-1.5c-0.8-1-1.8-2-2.8-2.9
			c-4.8-3.9-9.3-8-14.4-11.4c-9.3-6-18.9-11.5-28.4-17.2c-0.4-0.3-0.8-0.5-1.3-0.6c-0.5,0-1.2,0-1.5,0.3c-0.2,0.5-0.2,1,0.1,1.5
			c0.6,0.8,1.2,1.4,2,2c7,5.3,14.2,10.6,21.2,15.9c4.7,3.6,9.2,7.4,13.8,11c2.7,2.1,5.4,4.3,8.7,5.4
			C364.4,181.1,365.6,180.2,365.6,177.7L365.6,177.7z M274.2,175c0.4-0.1,0.6-0.1,0.8-0.2c2-2.4,4-4.7,5.9-7.1
			c0.2-0.5,0.2-1.2-0.1-1.7c-0.6-0.8-1.3-0.4-1.8,0.2c-2.1,2.2-3.8,4.9-4.8,7.8C274.1,174.3,274.1,174.7,274.2,175z"/>
		<path class="st3" d="M182.3,94c3.7,0.4,6.4,2.6,9,5c4.1,4,7.6,8.7,10.4,13.7c5,8.7,9,17.8,12,27.3c2.5,7.6,4.4,15.5,5.5,23.4
			c0.7,4.6,1,9.2,1.5,13.8c0.3,3.6,0.6,7.1,0.9,10.7c0.1,1.7,0.8,2.4,2.6,2.5c0.8,0,1.6,0,2.4,0c7,0.2,14,0.1,21,0.5
			c9.7,0.6,19.4,1.9,28.9,4.1c5.3,1.2,10.5,2.5,15.4,5.1c3.9,2.2,7.8,4.5,10.8,7.8c3.4,3.7,5,8.7,4.2,13.7
			c-0.7,6.4-3.7,11.7-6.6,17.1c-4.1,7.6-9.4,14.4-15.1,20.9c-4.1,4.7-8.7,8.9-13.2,13.3c-1.9,1.8-3.9,3.5-6,5.1
			c-1.4,0.9-2.2,2.6-2.1,4.3c0.4,5.1,0.7,10.2,0.9,15.3c0.1,2,0,4,0,6s0,3.8,0,5.8c-0.1,4.9-0.1,9.9-0.5,14.8
			c-0.7,9-1.4,18.1-3.3,27c-1.8,8.4-4.6,16.5-10.1,23.3c-4.8,5.8-11,8.4-18.7,7.3c-5.8-0.7-11.4-2.5-16.5-5.3
			c-4.7-2.8-9.2-6.1-13.4-9.6c-8.1-6.6-14.1-15-19.4-23.9c-3.6-6-7-12-10.2-18.2c-2.3-4.5-4-9.4-6-14.1c-0.4-1.2-0.8-2.5-1.1-3.7
			c-1.4-0.7-1.9,0.3-2.6,1.2c-1.7,2.5-3.3,5.1-5.2,7.5c-3.5,4.4-7,8.9-10.8,13.1c-5.1,5.6-10.4,11.1-15.9,16.3
			c-5,4.7-11.3,7.7-18,8.8c-2.1,0.4-4.3,1-6.4,0.8c-4.7-0.5-9.2-1.5-11.5-6.4c-0.7-1.4-1.2-2.9-1.8-4.4c0.9,0.1,1.9,0.1,2.8,0
			c1.7-0.3,3.7-0.2,4.9-1.9c2.4,2.6,5.8,4.1,9.4,3.9c3.6-0.1,6.6-1.5,9.5-3.4c4.7-2.9,9-6.3,13-10.1c4.6-4.5,9.2-8.9,13.4-13.7
			c3.8-4.4,7.2-9.1,10.7-13.8c2.7-3.7,5.2-7.6,7.9-11.4c0.4-0.4,0.8-0.8,1.2-1.2c1.5,6.5,4.2,12.1,6.8,17.9c2.8,6.1,5.8,12.1,9,18
			c2.6,4.9,5.4,9.8,8.4,14.5c5.5,8.6,11.8,16.7,20.2,22.8c5.5,4,11.3,7.5,17.9,9.4c6.4,1.9,11.8,0.6,16.4-4.2
			c3.2-3.4,5.6-7.4,7.3-11.7c2.3-5.8,3.8-11.9,4.4-18c0.6-6.6,1.5-13.3,1.8-20c0.3-8.6,0.2-17.3,0.1-25.9c0-5.4-0.3-10.9-0.5-16.3
			c-0.2-1.4,0.5-2.7,1.7-3.4c6.1-4,11.5-8.8,16.3-14.3c5.5-6,10.3-12.6,14.6-19.5c2.7-4.5,5.3-9.1,6.6-14.3
			c1.4-4.8,0.3-9.9-2.9-13.7c-1.8-2-3.8-3.9-6.1-5.4c-3.4-2.3-7.1-4-11-5.2c-8.9-3-18.2-3.8-27.4-4.8c-3.7-0.4-7.4-0.8-11.2-1.1
			c-6.3-0.5-12.5-0.9-18.8-1.3c-2-0.1-4,0-6.1,0c-0.1-0.4-0.2-0.9-0.3-1.3c-0.2-3.3-0.3-6.5-0.5-9.8c-0.3-3.6-0.6-7.3-0.9-10.9
			c-0.8-6.9-2-13.7-3.7-20.4c-2.3-10-5.7-19.8-10-29.2c-3.3-7-7-13.8-12.3-19.5c0.1-0.3,0.4-0.7,0.3-1
			C185.5,100,184.2,96.8,182.3,94z"/>
		<path class="st4" d="M372.9,128.1c1.9,0.7,3.8,1.3,5.5,2.1c9.3,4.4,17.9,10.3,25.3,17.4c8.6,8.2,15.9,17.7,21.7,28.1
			c6.3,11.4,11,23.6,14,36.3c1.6,6.5,2.8,13.1,3.5,19.7c0.4,4.2,0.9,8.4,0.9,12.6c0,2.4,0.5,4.8,0.4,7.1c-0.3,6.4-0.5,12.7-1.3,19
			c-0.9,7.9-2.4,15.8-4.4,23.5c-3.1,11.9-7.8,23.3-13.8,34.1c-4.2,7.6-9.3,14.7-15,21.3c-8,9.2-17.5,16.9-28.2,22.7
			c-6.1,3.3-12.6,5.9-19.3,7.6c-3.5,0.8-7,1.4-10.6,1.7c-3.2,0.3-6.5,0.5-9.8,0.4c-6.8-0.2-13.5-1.3-20-3.2
			c-12.1-3.5-23.2-9.6-32.7-17.9c-4.9-4.3-9.3-9.2-13.9-13.8c-0.6-0.5-0.9-1.4-0.7-2.1c0.3-1.4,0.6-2.8,1-4.5
			c1.2,1.3,2.3,2.4,3.3,3.6c3.7,4.3,7.8,8.3,12.3,11.8c4,3.2,7.9,6.5,12,9.5c8.6,6.2,18.6,10.4,29.1,12.1c6.6,1.1,13.2,1,19.8,0.8
			c5.2-0.2,10.2-1.8,15-3.9c9.7-4.3,18.7-10,26.7-17c8.3-7.1,15.8-14.9,21.7-24.1c3.8-5.8,7.5-11.7,10.4-18
			c4.2-9.2,7.4-18.9,9.4-28.8c1.3-6,2.2-12,2.8-18.1c0.6-6.7,0.8-13.4,0.5-20.1c-0.5-8-1.8-15.9-2.6-23.9c-1-8.7-2.8-17.3-5.4-25.7
			c-1.8-6.1-4.3-12-7.5-17.6c-3.1-5.9-6.8-11.5-10.9-16.7c-7.8-9.6-16.8-17.9-27.6-24.1c-6-3.5-12.3-6.4-18.9-8.6
			c-0.5-0.2-1-0.5-1.5-0.8L372.9,128.1z"/>
		<path class="st5" d="M182.3,94c1.9,2.8,3.3,5.9,4.1,9.2c0.1,0.3-0.2,0.7-0.3,1c-0.6-0.4-1.2-0.7-1.8-1.1c-2.8-1.8-5.7-3.1-9-2.2
			c-2.5,0.7-4.8,1.8-6.9,3.2c-5.4,3.9-9.9,8.9-13.2,14.7c-2.3,3.8-4.2,7.9-6.2,11.9c-5.8,11.6-10.9,23.4-15.8,35.4
			c-3.1,7.8-6.2,15.6-9.2,23.4c-0.8,1.9-0.9,2.1-3,1.9c-3.5-0.2-7-0.8-10.5-0.8c-8.3-0.1-16.6-0.5-24.9,0.3
			c-6.4,0.6-12.6,2.1-18.5,4.6c-4.8,2-6,4.1-5.6,9.3c0.1,0.6,0.1,1.1,0.3,1.6c1,4,2.7,7.9,5.1,11.3c7.3,11,16.6,20.2,25.8,29.6
			c1.1,1.2,2,2.4,2.9,3.8c0.3,0.6,0.4,1.2,0.4,1.8c-0.4,4.8-1,9.5-1.2,14.3c-0.3,7.3-0.4,14.7-0.5,22c0,2.5,0,5-0.1,7.4
			c0,9.4-0.3,18.8,0.9,28.2c0.6,6.1,2.8,11.9,6.3,16.8c-1.2,1.7-3.2,1.6-4.9,1.9c-0.9,0.1-1.9,0.1-2.8,0c-0.8-2.7-1.7-5.3-2.3-8
			c-1.4-6-2.3-12.1-2.5-18.2c-0.2-9.6-0.4-19.1-0.4-28.7c0-4.9,0.3-9.7,0.5-14.6c0.2-4.2,0.3-8.4,0.5-12.7c0.2-2.5,0.5-5.1,0.8-7.6
			c0.3-1.4-0.2-2.8-1.3-3.6c-1.5-1.3-3-2.6-4.5-4c-7.5-7.2-14.2-15.1-20.2-23.6c-3-4.3-6-8.5-7.8-13.4c-0.9-2.3-1.5-4.7-2-7.1
			c-0.4-2.2,0.3-4.6,1.8-6.2c2.2-2.4,4.9-4.3,8-5.5c5.9-2.6,12.1-4.2,18.4-4.7c4.8-0.3,9.5-0.8,14.3-0.8c5.1,0,10.2,0.5,15.3,0.8
			c2.1,0.1,4.1,0.3,6.2,0.5c1.3,0.1,1.7-0.6,2-1.6c1.1-3.4,2.1-6.9,3.3-10.2c2.6-7.5,5.2-15.1,8-22.5c5.4-14.2,12.9-27.2,20.9-40
			c4.2-7,10.4-12.7,17.9-16.1c2.9-1.5,6-2.2,9.2-2.1C180.6,93.6,181.5,93.8,182.3,94z"/>
		<path class="st6" d="M372.9,128.1l-8.8,2.5c-4.1-0.9-8.3-1.5-12.5-1.6c-14.8-0.7-29.5,2.1-43,8.2c-9.1,4.1-17.4,9.8-24.5,16.9
			c-5.7,5.7-11.1,11.5-15.3,18.3c-1.2,2-2.3,4-3.3,6.1c-0.5,1.1-0.9,1.6-2.1,1.2c-0.7-0.2-1.3-0.3-2-0.4c0.2-0.6,0.4-1.2,0.7-1.7
			c3.4-7.5,8.2-14.1,13.1-20.6c7-9.3,15.9-16.3,25.7-22.3c6.7-4.2,14-7.3,21.7-9.4c4.7-1.4,9.6-2.2,14.6-2.5c3.3-0.1,6.7-0.5,10-0.3
			c8.5,0.3,16.9,2,24.9,5C372.2,127.6,372.6,127.8,372.9,128.1z"/>
		<path class="st7" d="M272.6,281.6l-2.5-1.1c0.9-0.9,1.7-1.7,2.5-2.5c4.4-4.2,9-8.2,13-12.7c7.3-8.1,14.3-16.6,19.5-26.2
			c2.5-4.5,4.8-9,6-14c1.6-6.9,1.1-13.6-3.6-19.2c-2-2.3-4.2-4.4-6.6-6.2c-6.7-4.9-14.4-8.1-22.6-9.3c-4.6-0.7-9.2-1.7-13.9-2.5
			c-2.2-0.4-4.4-0.6-6.6-0.8c-4.4-0.4-8.7-0.8-13.1-0.9c-4.9-0.2-9.8-0.1-14.6-0.1c-0.9,0-1.7-0.1-2.5-0.4c1.2-1.2,2.3-2.4,3.5-3.4
			c0.5-0.3,1.2-0.5,1.8-0.4c5.3,0.2,10.7,0.3,16,0.5c2.2,0.1,4.4,0.2,6.7,0.4s4.4,0.6,6.6,1c6,1.1,12,1.9,17.8,3.3
			c5.2,1.4,10.3,3,15.3,4.9c2.5,0.9,4.9,2,7.2,3.3c4.6,2.5,8.5,6,11.4,10.3c2.5,3.5,3.4,7.9,2.5,12.1c-0.6,3.1-0.7,6.3-1.3,9.4
			c-1,4.9-3.5,9.2-6.1,13.5c-4.2,6.5-8.8,12.7-13.9,18.6c-5.1,6-10.7,11.6-16.7,16.8C276.5,277.8,274.6,279.6,272.6,281.6z"/>
		<path class="st8" d="M401.9,139.6c2.5,0.9,4.8,2.3,6.8,4.1c8.5,6.9,15.4,15.6,20.3,25.4c3,6,6,11.9,9,18
			c3.8,7.8,6.1,16.1,8.2,24.4c1.9,7.5,3.2,15.2,3.9,23c0.3,4.1,0.6,8.2,1,12.4c0.3,2.3,0.4,4.6,0.4,6.9c-0.3,5-0.8,10-1.3,15
			c-0.5,4.4-1,8.8-1.5,13.3c-0.6,4.7-1.7,9.4-3.3,13.9c-3.7,12.2-8.5,23.9-14.5,35.1c-5.8,10.7-12.5,20.8-21.6,29
			c-4.5,4.1-9.4,7.6-14.7,10.6c0,0-0.1-0.1-0.4-0.2c1.6-1.2,3.1-2.4,4.7-3.6c5.2-4.2,10-8.7,14.3-13.7c4.5-5.1,8.5-10.6,12.1-16.3
			c4-6.4,7.4-13.1,10.3-20c3.9-8.9,6.9-18.2,9-27.7c1.1-5.4,2-11,2.8-16.5c1.4-9.6,1.8-19.2,1.3-28.9c-0.2-5.8-1.1-11.6-1.7-17.3
			c-0.9-7.8-2.5-15.4-4.9-22.8c-1.9-5.8-3.9-11.6-6.2-17.3c-3.7-8.8-8.3-17.1-13.8-24.9c-5.4-7.7-11.9-14.4-18.7-20.8
			C402.8,140.2,402.4,139.9,401.9,139.6z"/>
		<path class="st7" d="M253,379.8c0.1-0.4,0.3-0.7,0.5-1.1c6.1-7.6,9.6-16.4,11.6-25.7c1.3-6,1.9-12.3,2.6-18.4
			c0.5-4.3,0.6-8.7,1-13.1c0.9-8.5,0.4-16.9,0.4-25.4c0-3.8-0.5-7.6-0.8-11.4c0-0.5,0-1.1,0-2.1c1.7,0.8,3.2,1.3,4.5,2.1
			c0.4,0.2,0.6,1.1,0.7,1.6c0.4,5.8,0.7,11.6,1,17.4c0.2,2,0.4,4,0.4,5.9c-0.3,5.2-0.7,10.5-1.3,15.7c-0.6,5.4-1.4,10.9-2.5,16.3
			c-1.8,9.3-4.3,18.5-8.5,27.1c-1.3,2.9-2.8,5.7-4.7,8.3C256.5,378.9,255.8,379.2,253,379.8z"/>
		<path class="st9" d="M198.5,100c3.2,2.5,5.9,5.5,8,9c2.3,3.8,4.6,7.7,6.6,11.7c4.8,9.8,8.5,20.2,10.9,30.8
			c1.6,6.7,3.1,13.5,4.6,20.3c0.5,2.3,0.9,4.5,1.1,6.8c0,0.6-0.2,1.2-0.6,1.7c-1,1-2.1,1.9-3.4,3c-0.3-1.2-0.5-2.2-0.6-3.2
			c-0.5-4.5-0.8-9-1.6-13.5c-1.2-6.7-2.6-13.4-4.2-20.1c-3-12.4-7.7-24.3-13.9-35.5C203.3,107.2,200.8,103.7,198.5,100z"/>
		<path class="st9" d="M164.6,314.2c1.3,1.8,0.9,3.1-0.1,4.6c-4.6,6.8-9.6,13.3-15,19.5c-1.8,2.1-3.9,3.9-5.9,5.9s-3.9,4.4-6.1,6.4
			c-2.2,2-4.5,3.8-6.9,5.5c-1.8,1.3-3.9,1.9-6.1,1.8c-0.8,0-1.6,0.2-2.4,0.3c-1.3,0.1-2.6,0-3.9-0.3c0.5-0.3,1-0.6,1.5-0.8
			c5.9-2,11.3-5.4,15.6-9.9c2.9-3,5.9-6,9-9c5.2-5.3,10.1-10.9,14.6-16.8C160.7,319.1,162.6,316.7,164.6,314.2z"/>
		<path class="st10" d="M331.3,226.9l2.1,2.2l0.5,0.7l0,0l0.5,0.5l0,0l0.5,0.5l0,0l0.5,0.5l0,0l0.5,0.5l0,0l0.5,0.5l0,0l0.5,0.5l0,0
			l0.5,0.5l0,0l0.5,0.5l0,0l0.5,0.5l0,0l0.5,0.5l0,0v0.5c1,1,1.9,2.1,2.9,3.1c0.6,0.3,1.2,0.6,1.9,0.7l0,0l0.5,0.5l0,0l0.5,0.5l0,0
			l0.5,0.5l0,0l0.5,0.5l0,0l0.5,0.5l0,0l0.5,0.5l0,0l0.5,0.5l0,0c-0.1,0.7,0.3,1,1,1l0,0l0.5,0.5l0,0c0.2,0.2,0.3,0.3,0.5,0.5l0,0
			l0.5,0.5l0,0l0.5,0.5l0,0l0.5,0.5l0,0c0.3,0.7,0.7,1.3,1.2,1.9c2,2,4.1,3.9,6.2,5.8c0.4,0.2,0.8,0.4,1.3,0.5l0,0l0.5,0.5l0,0
			l0.5,0.5l0,0c-0.1,0.7,0.3,1,1,1l0,0l0.5,0.5l0,0c0.2,0.2,0.3,0.3,0.5,0.5l0,0l0.5,0.5l0,0l0.5,0.5l0,0l0.9,1
			c2.2,2.5,2.4,2.9,2.2,4.7c-3-1.4-5.8-3.4-8.2-5.8c-4.2-4-8.3-8-12.2-12.2c-5.6-6-11.1-12.1-16.6-18.2c-0.4-0.5-0.8-1.1-1.2-1.7
			c0.5,0.3,1,0.6,1.6,0.8C329.9,226.5,330.6,226.7,331.3,226.9z"/>
		<path class="st11" d="M331.3,226.9c-0.7-0.2-1.4-0.4-2.1-0.7c-0.5-0.2-1.1-0.5-1.6-0.8l-1.8-2l-0.4-0.4l-0.1-0.1l-0.4-0.4
			l-0.1-0.1c-0.1-0.1-0.3-0.3-0.4-0.4l-0.1-0.1l-0.4-0.4l-0.1-0.1l-0.4-0.4l-0.1-0.1c-0.1-0.1-0.3-0.3-0.4-0.4l-0.1-0.1l-0.4-0.4
			l-0.1-0.1c-0.1-0.1-0.3-0.3-0.4-0.4l-0.1-0.1c-0.2-0.3-0.5-0.5-0.7-0.8l-0.9-1.9l0.5-0.3L331.3,226.9z"/>
		<path class="st12" d="M358.9,253.8c-0.4-0.1-0.9-0.3-1.3-0.5c-2.1-1.9-4.2-3.8-6.2-5.8c-0.5-0.6-0.9-1.2-1.2-1.9
			c0.5,0.3,1,0.6,1.5,1C354.1,249,356.5,251.4,358.9,253.8z"/>
		<path class="st12" d="M343.5,238.9c-0.7-0.1-1.3-0.4-1.9-0.7c-1.1-0.9-2-2-2.9-3.1l0.5-0.4L343.5,238.9z"/>
		<path class="st12" d="M347.9,243.2c-0.7,0.1-1-0.3-1-1L347.9,243.2z"/>
		<path class="st12" d="M363.6,258.6l-0.9-1L363.6,258.6z"/>
		<path class="st12" d="M360.8,255.7c-0.7,0.1-1-0.3-1-1L360.8,255.7z"/>
		<path class="st10" d="M321.3,218.8c0.2,0.3,0.5,0.5,0.7,0.8C321.8,219.3,321.5,219.1,321.3,218.8z"/>
		<path class="st10" d="M322.1,219.7c0.1,0.1,0.3,0.3,0.4,0.4C322.3,219.9,322.2,219.8,322.1,219.7z"/>
		<path class="st10" d="M322.5,220.1l0.4,0.4L322.5,220.1z"/>
		<path class="st10" d="M323,220.6c0.1,0.1,0.3,0.3,0.4,0.4C323.3,220.9,323.2,220.8,323,220.6z"/>
		<path class="st10" d="M323.5,221.1l0.4,0.4L323.5,221.1z"/>
		<path class="st10" d="M324.5,222.1c0.1,0.1,0.3,0.3,0.4,0.4C324.7,222.3,324.6,222.2,324.5,222.1z"/>
		<path class="st10" d="M324.9,222.6l0.4,0.4L324.9,222.6z"/>
		<path class="st10" d="M325.4,223l0.4,0.4L325.4,223z"/>
		<path class="st11" d="M334,229.8l-0.5-0.7L334,229.8z"/>
		<path class="st11" d="M334.4,230.3l-0.5-0.5L334.4,230.3z"/>
		<path class="st11" d="M334.9,230.8l-0.5-0.5L334.9,230.8z"/>
		<path class="st11" d="M335.4,231.2l-0.5-0.5L335.4,231.2z"/>
		<path class="st11" d="M335.9,231.7l-0.5-0.5L335.9,231.7z"/>
		<path class="st12" d="M346.4,241.8l-0.5-0.5L346.4,241.8z"/>
		<path class="st12" d="M362.3,257.1l-0.5-0.5L362.3,257.1z"/>
		<path class="st12" d="M362.7,257.6l-0.5-0.5L362.7,257.6z"/>
		<path class="st12" d="M345.9,241.3l-0.5-0.5L345.9,241.3z"/>
		<path class="st12" d="M345.5,240.8l-0.5-0.5L345.5,240.8z"/>
		<path class="st12" d="M359.9,254.7l-0.5-0.5L359.9,254.7z"/>
		<path class="st12" d="M361.3,256.2l-0.5-0.5L361.3,256.2z"/>
		<path class="st12" d="M344,239.4l-0.5-0.5L344,239.4z"/>
		<path class="st12" d="M348.8,244.2c-0.2-0.2-0.3-0.3-0.5-0.5C348.5,243.9,348.6,244,348.8,244.2z"/>
		<path class="st12" d="M361.8,256.7c-0.2-0.2-0.3-0.3-0.5-0.5C361.4,256.3,361.6,256.5,361.8,256.7z"/>
		<path class="st12" d="M348.3,243.7l-0.5-0.5L348.3,243.7z"/>
		<path class="st12" d="M359.4,254.3l-0.5-0.5L359.4,254.3z"/>
		<path class="st12" d="M344.5,239.9l-0.5-0.5L344.5,239.9z"/>
		<path class="st12" d="M345,240.4l-0.5-0.5L345,240.4z"/>
		<path class="st12" d="M349.3,244.7l-0.5-0.5L349.3,244.7z"/>
		<path class="st11" d="M339.2,234.7l-0.5,0.4v-0.5L339.2,234.7z"/>
		<path class="st12" d="M349.8,245.1l-0.5-0.5L349.8,245.1z"/>
		<path class="st11" d="M338.8,234.6l-0.5-0.5L338.8,234.6z"/>
		<path class="st11" d="M338.3,234.1l-0.5-0.5L338.3,234.1z"/>
		<path class="st10" d="M324,221.6l0.4,0.4L324,221.6z"/>
		<path class="st12" d="M346.9,242.3l-0.5-0.5L346.9,242.3z"/>
		<path class="st11" d="M337.8,233.6l-0.5-0.5L337.8,233.6z"/>
		<path class="st11" d="M337.3,233.1l-0.5-0.5L337.3,233.1z"/>
		<path class="st11" d="M336.8,232.7l-0.5-0.5L336.8,232.7z"/>
		<path class="st11" d="M336.4,232.2l-0.5-0.5L336.4,232.2z"/>
		<path class="st12" d="M350.3,245.6l-0.5-0.5L350.3,245.6z"/>
		<path class="st13" d="M327.2,199.1c-5.8-4.6-11.6-9.2-17.3-13.8c-6-4.8-12-9.7-18-14.6c-1.1-0.9-2.2-1.9-3.3-2.8
			c-0.7-0.5-1-1.4-0.5-2.2c0-0.1,0.1-0.1,0.2-0.2c0.4,0.1,0.7,0.2,1.1,0.3c5.2,3.7,10.4,7.3,15.6,11c9,6.5,18,13,27.1,19.5
			c1.2,0.9,2.1,2.3,3.8,2.2c0.3,0.5,0.7,1,1.1,1.4c14.4,10.8,28.8,21.6,43.1,32.4c6.4,4.9,12.6,10,18.9,14.9
			c5.6,4.4,11.3,8.8,16.9,13.2c2,1.5,3.5,3.5,4.6,5.8c0.2,0.4,0.3,0.7,0.4,1.1c0.5,3.3-1.1,4.8-4.4,4c-3.2-0.8-6.2-2.3-8.7-4.4
			c-4.9-3.8-9.8-7.6-14.5-11.6c-3.6-3-7-6.3-10.5-9.4c-3.1-2.7-6.3-5.4-9.4-8.1c-2.7-2.3-5.4-4.7-8.1-7.1c-3-2.6-6.1-5.1-9.1-7.7
			c-2.6-2.2-5.1-4.5-7.8-6.7c-3.4-2.9-6.9-5.7-10.3-8.5L327.2,199.1z M347.4,212.5l1,0.9l0.1,0.1l1.3,1.1l0.5,0.4l0.5,0.4l0.1,0.1
			l1.4,1.1l0.4,0.4l2.4,1.9l0,0c0.6,0.7,1.3,1.4,1.9,2.1c6,5.2,12.1,10.3,18.2,15.5c7.9,6.8,15.6,13.8,23.6,20.6
			c4,3.4,8.2,6.6,12.5,9.7c1.6,1.1,3.4,2,5.3,2.6c1.6,0.5,1.9,0,1.4-1.9c-0.7-1.3-1.6-2.5-2.6-3.6c-2.5-2.2-5.3-4.1-7.9-6.1l0,0
			l-1.9-1.5l0,0c-0.6-0.7-1.3-1.4-2-2c-12.3-9.7-24.6-19.4-37-28.9c-6.4-5-13-9.8-19.5-14.7l-8.8-6.7l-6.7-5.1L318,188.6
			c-0.9-0.6-1.5-1.7-3.2-1.9l3,2.2c3.5,2.8,7,5.6,10.6,8.4c0.8,0.7,1.7,1.3,2.6,1.9l7.2,5.9l8.1,6.6L347.4,212.5L347.4,212.5z"/>
		<path class="st13" d="M310.4,247.6c1-0.1,1.5,0.3,1.5,1.4c0,2.2,0,4.3,0,6.5c0,3.8,0.9,7.6,2.5,11.1c2,4.5,5.5,7.5,9.8,9.8
			c0.7,0.3,1.4,0.7,2.1,1.1c0.5,0.5,0.9,1,1.2,1.6c-1.3,0.2-2.2,0.3-3,0.5c-4,0.7-6.7,3.3-9.1,6.2c-2.7,3.4-4.5,7.4-5.3,11.6
			c-0.2,1.1,0,2.2-0.2,3.3c-0.3,1.9-0.6,3.9-1,6.3c-0.7-0.6-1.2-0.9-1.3-1.2c-0.3-1.8-0.5-3.6-0.6-5.4c-0.2-5.2-1.8-10.2-4.5-14.6
			c-0.8-1.4-1.8-2.6-2.9-3.8c-1.5-1.9-3.6-3.2-6-3.7c-0.6-0.1-1.5-0.2-1.5-1.2s0.9-0.7,1.4-1c2-1,4-2.3,5.9-3.6
			c4.7-3.8,7.9-9.1,9.1-15C309.2,254,309.8,250.8,310.4,247.6L310.4,247.6z M306.5,287.4L306.5,287.4l0.5,1l0,0
			c0.2,0.5,0.3,1,0.5,1.5l0,0l0.5,1.5l0,0l0.5,1.1c0,0.1,0.1,0.3,0.2,0.4c0,0,0.2,0,0.2,0c0.2-0.5,0.5-1,0.7-1.5
			c1.9-4.5,4.5-8.4,8.5-11.2c1.1-0.7,2.2-1.4,3.5-2.2c-3.6-2-6.5-5-8.3-8.7c-1.1-2.2-1.8-4.5-2.7-6.8l-0.2-2.4
			c-2.6,6.9-6.3,12.9-13.1,17c3.4,1.8,5.4,4.4,7.4,7.1l1.5,2.4l0,0L306.5,287.4z"/>
		<path class="st13" d="M392.5,160.5c0.8,4.4,1.4,8.7,2.5,12.8c0.9,4.1,2.9,7.8,5.8,10.8c1.7,1.7,3.9,2.8,6.3,3
			c0.5,0.1,1,0.2,1.5,0.4c0.2,1.5-0.8,1.9-1.6,2.4c-1.6,1-3.3,1.9-4.8,3.1c-3.7,2.7-6,6.9-6.3,11.5c-0.2,3.1-0.3,6.2-0.5,9.3
			c-0.1,0.9-0.3,1.8-0.5,2.7c-0.9-0.7-1.4-1.7-1.4-2.8c-0.2-5.9-2.5-11-5.8-15.7c-1.5-1.9-3.2-3.7-5.2-5.2c-0.9-0.7-2.2-0.9-3.2-1.5
			c-0.5-0.3-0.9-0.7-1.2-1.3c-0.2-0.8,0.3-1.3,1.1-1.6c1.3-0.4,2.6-0.8,3.8-1.4c3-1.3,5.2-4,6-7.1c0.7-2.8,1.2-5.6,1.4-8.4
			c0.2-3.2,0-6.4,0.1-9.6C390.6,160.5,390.8,160.4,392.5,160.5z M393.9,201.1c0.2-0.4,0.4-0.8,0.6-1.3c1-3.1,2.9-5.9,5.5-7.9
			c1.1-1,2.4-1.8,3.8-2.7c-3.5-1.6-6.3-4.4-7.9-7.9c-1-2-1.8-4.2-2.7-6.4l-0.5-1.8c-0.4,0.5-0.7,1.2-0.7,1.9
			c-0.2,2.9-0.8,5.7-1.9,8.3c-1.1,2.5-3,4.6-5.4,5.8c-0.8,0.4-1.7,0.7-2.8,1.1c5.7,2.9,8.7,7.8,11.2,13.1l0.5-0.1
			C393.7,202.5,393.8,201.8,393.9,201.1L393.9,201.1z"/>
		<path class="st13" d="M342.7,330c-1.4-0.6-1.4-1.8-1.5-2.7c-0.6-3.8-1.7-7.5-3.2-10.9c-1.9-4.4-5.2-8.1-9.3-10.6
			c-0.3-0.2-0.7-0.4-1-0.6c-0.1-0.1-0.2-0.3-0.4-0.6c0.3-0.4,0.7-0.7,1.1-1c5.4-2.6,8.7-7.1,11.1-12.4c1.5-3.3,2.4-6.8,2.7-10.3
			c0-0.8,0.2-1.5,1.1-1.6s1.2,0.8,1.3,1.6c0.2,4.5,1.1,8.9,2.7,13c1.5,3.4,3.8,6.5,6.8,8.8c0.5,0.3,0.9,0.7,1.2,1.1
			c0.4,0.8,0.4,1.7-0.5,2.1c-5.8,2.6-8,7.7-9.4,13.3c-0.8,2.8-1.2,5.7-1.9,8.6C343.3,328.6,343,329.3,342.7,330z M343.6,290.7
			l-0.5-3.5c-2.3,7-5.4,13.3-11.5,17.6c1.5,1.3,2.8,2.5,4,3.7c2.8,2.9,4.4,6.4,6,10c0.2,0.5,0.4,1.1,0.6,1.8
			c1.2-3.1,2.2-5.9,3.5-8.6c1.4-3,3.8-5.5,6.8-7.1c-0.5-0.2-0.9-0.4-1.4-0.7c-2.9-2.6-5.1-6-6.4-9.7
			C344.4,293.1,344,291.9,343.6,290.7L343.6,290.7z"/>
		<path class="st13" d="M291.2,294.1c0,1.2,0,2.2,0,3.1c0.1,5,1.4,10,3.9,14.4c1.3,2.2,3.2,3.8,5.5,4.8c0.7,0.2,1.3,0.5,1.9,0.9
			c0.4,0.4,0.7,0.8,1,1.3c-0.4,0.4-0.9,0.7-1.5,1c-1,0.2-2,0.4-3,0.7c-1.9,0.9-3.4,2.4-4.4,4.3c-1.8,3.2-2.7,6.9-2.6,10.5
			c0,1.3,0,2.6,0,3.8c-0.1,0.5-0.2,0.9-0.5,1.4H291c-0.5-1.2-0.9-2.4-1.3-3.7c-0.7-3.2-1.1-6.4-2.1-9.5c-0.7-2.2-1.7-4.3-3-6.2
			c-0.9-1.6-2.3-2.7-4-3.2c-0.4-0.1-0.6-0.6-0.9-0.9c0.3-0.3,0.6-0.8,1-0.9c4.1-0.7,5.7-3.9,6.9-7.2c1.4-4.1,1.9-8.5,1.7-12.9
			C289.4,294.8,289.4,294.8,291.2,294.1z M289.4,325.2l1,3.2c0.9-2,1.9-4,3-5.9c1.3-1.6,2.7-3,4.1-4.4c-1.3-1.3-2.5-2.6-3.6-4.1
			c-1.1-1.9-2.1-3.9-3-5.9c-0.1-0.5-0.3-1-0.5-2c-0.6,2.1-1.4,4.1-2.2,6.1c-1.1,1.9-2.3,3.7-3.6,5.4
			C286.9,319.5,288.3,322.3,289.4,325.2z"/>
		<path class="st13" d="M411.4,236.5c-1.5-0.8-1.1-1.9-1.1-2.9c-0.3-4.4-0.9-8.7-3-12.6c-0.8-1.4-1.8-2.8-2.9-4
			c-0.6-0.9-1.5-1.5-2.5-1.6c-0.5-0.2-0.9-0.6-1-1.1c0.1-0.5,0.4-1,0.9-1.2c6.4-2,8.2-7.3,9-13.1c0.3-1.8,0.4-3.6,0.5-5.4
			c0.1-1,0.4-1.7,1.9-1.5c0,1.2,0.1,2.4,0,3.5c-0.2,4.1,0.6,8.1,2.5,11.8c1,2,2.4,3.8,4.2,5.1c1.4,1,1.4,1.9,0,2.7
			c-5.2,2.9-6.9,7.6-7.1,13.1c-0.1,2.1-0.3,4.1-0.5,6.2C412,235.8,411.6,236.1,411.4,236.5z M412.6,207.2c-0.2-0.9-0.4-1.9-0.7-3.2
			c-1.4,4.5-3,8.3-7.4,10.4c2.2,2,4,4.4,5.2,7.1c0.3,0.6,0.6,1.3,1,1.9l0.1,0.9c0.7-1.9,1.6-3.7,2.7-5.4c1.3-1.5,2.7-2.9,4.2-4.2
			c-1.1-1.1-2.1-2.2-3-3.5C413.9,210,413.2,208.6,412.6,207.2L412.6,207.2z"/>
		<path class="st13" d="M357.5,354.9c-0.2-1.4-0.4-2.7-0.6-4.1c-0.2-1.6-0.2-3.2-0.5-4.7c-0.2-2.1-1.8-3.7-3.8-4.1
			c-0.5-0.1-0.9-0.7-1.4-1.1c0.4-0.4,0.8-1.1,1.3-1.2c3.3-0.8,4.6-3.4,5.4-6.2s1.3-5.9,1.9-8.8c0.1-0.4,0.1-0.8,0.2-1.1
			c1.9,0.3,1.9,0.5,1.9,2c-0.1,2.4,0,4.8,0.1,7.1c0.2,3.3,2.3,5.5,4.8,7.4c0.6,0.5,1.4,0.8,1,1.6c-0.4,0.5-0.9,0.8-1.5,0.9
			c-2.9,0.4-5.3,2.5-6.1,5.4c-0.6,1.8-0.9,3.7-1.4,5.5c-0.2,0.5-0.4,1-0.7,1.5L357.5,354.9z M359.4,345c1-1.8,2.6-3.2,4.4-4
			c-1.1-2-2.1-3.8-3.2-5.7l-0.6-3c-1.1,3.3-1.8,6.5-4.3,8.3c1,2.1,1.9,3.9,2.9,6L359.4,345z"/>
		<path class="st14" d="M286.5,160.7c-0.2-1.5,0.6-2.2,1.3-2.9c3.9-4.3,8.3-8,13.2-11c4.2-2.7,8.7-5,13.4-6.8c5-1.9,10-3.8,15.3-4.4
			c5.7-0.7,11.4-1.6,17.1-1.1c7.3,0.7,14.6,1.4,21.5,4.2c2,0.9,3.9,1.8,5.8,2.9c0.6,0.3,1.3,0.8,0.9,1.7c-0.3,0.7-1.1,1-1.8,0.7
			c-0.1,0-0.2-0.1-0.3-0.2c-5.4-3.3-11.5-3.6-17.5-4.4c-7.4-0.9-15-1.1-22.5-0.5c-10.3,0.6-20.3,4-28.9,9.7c-4.6,3-9.4,5.8-13.3,9.8
			C289.8,159.5,288.3,160.4,286.5,160.7z"/>
		<path class="st15" d="M365.5,177.7c0,2.5-1.2,3.4-3.2,2.6c-3.3-1.2-6-3.3-8.7-5.4c-4.6-3.6-9.1-7.4-13.8-11
			c-7-5.4-14.1-10.6-21.2-15.9c-0.8-0.6-1.4-1.2-2-2c-0.3-0.4-0.3-1-0.1-1.5c0.2-0.3,1-0.4,1.5-0.3c0.5,0.1,0.9,0.3,1.3,0.6
			c9.5,5.7,19.1,11.2,28.4,17.2c5.1,3.3,9.7,7.5,14.4,11.4c1,0.9,1.9,1.8,2.8,2.9C365.2,176.7,365.4,177.2,365.5,177.7z
			 M332.5,155.5L332.5,155.5L332.5,155.5l2.9,2.3l16.1,12.1c3,2.3,6.1,4.6,9.2,6.8c0.6,0.3,1.2,0.6,1.8,0.9
			c-0.2-0.8-0.7-1.5-1.4-2.1c-1.4-1.2-2.8-2.4-4.2-3.6c-6.5-5.5-13.5-10.4-20.9-14.6L332.5,155.5z"/>
		<path class="st14" d="M274.2,175c-0.1-0.3-0.1-0.6-0.1-0.9c1.1-2.9,2.7-5.6,4.8-7.9c0.5-0.6,1.3-1,1.8-0.2
			c0.3,0.5,0.4,1.1,0.1,1.7c-1.9,2.4-3.9,4.8-5.9,7.1C274.8,174.9,274.5,174.9,274.2,175z"/>
		<path class="st16" d="M101.3,341.6c-3.5-5-5.7-10.8-6.3-16.8c-1.2-9.4-0.9-18.8-0.9-28.2c0-2.5,0-5,0.1-7.4
			c0.2-7.3,0.2-14.7,0.5-22c0.2-4.8,0.8-9.5,1.2-14.3c0.1-0.6-0.1-1.3-0.4-1.8c-0.8-1.3-1.8-2.6-2.9-3.8
			c-9.2-9.3-18.5-18.6-25.8-29.6c-2.4-3.4-4.1-7.2-5.1-11.3c-0.1-0.5-0.2-1.1-0.3-1.6c-0.4-5.2,0.8-7.3,5.6-9.3
			c5.9-2.5,12.1-4,18.5-4.6c8.3-0.8,16.6-0.4,24.9-0.3c3.5,0,7,0.6,10.5,0.8c2.1,0.1,2.2,0,3-1.9c3.1-7.8,6.1-15.6,9.2-23.4
			c4.9-12,9.9-23.9,15.8-35.4c2-4,4-8,6.2-11.9c3.4-5.7,7.9-10.7,13.2-14.7c2.1-1.4,4.4-2.5,6.9-3.2c3.3-1,6.3,0.3,9,2.2
			c0.6,0.4,1.2,0.8,1.8,1.1c5.4,5.7,9,12.5,12.3,19.5c4.3,9.4,7.7,19.1,10,29.2c1.7,6.7,2.9,13.5,3.7,20.4c0.4,3.6,0.7,7.3,0.9,10.9
			c0.2,3.3,0.3,6.5,0.5,9.8c0.1,0.4,0.1,0.9,0.3,1.3c2.1,0,4.1-0.1,6.1,0c6.3,0.4,12.6,0.9,18.8,1.3c3.7,0.3,7.5,0.6,11.2,1.1
			c9.2,1.1,18.5,1.8,27.5,4.8c3.9,1.2,7.6,3,11,5.2c2.2,1.5,4.3,3.3,6.1,5.4c3.2,3.8,4.3,8.9,2.9,13.7c-1.3,5.2-3.8,9.8-6.6,14.3
			c-4.3,6.9-9.2,13.5-14.6,19.5c-4.8,5.5-10.3,10.3-16.3,14.4c-1.2,0.7-1.8,2-1.7,3.4c0.2,5.4,0.4,10.9,0.5,16.3
			c0.1,8.6,0.2,17.3-0.1,25.9c-0.2,6.7-1.1,13.3-1.8,20c-0.6,6.2-2.1,12.3-4.4,18c-1.6,4.4-4.1,8.3-7.3,11.7
			c-4.6,4.7-10.1,6-16.4,4.2c-6.6-2-12.4-5.4-17.9-9.4c-8.4-6.1-14.7-14.2-20.2-22.8c-3-4.7-5.8-9.5-8.4-14.5
			c-3.1-5.9-6.2-11.9-9-18c-2.6-5.7-5.4-11.4-6.8-17.9c-0.4,0.4-0.8,0.8-1.2,1.2c-2.6,3.8-5.1,7.7-7.9,11.4
			c-3.4,4.7-6.8,9.5-10.7,13.8c-4.2,4.8-8.8,9.2-13.4,13.7c-4,3.8-8.3,7.2-13,10.1c-2.9,1.9-5.9,3.4-9.5,3.4
			C107.1,345.7,103.6,344.2,101.3,341.6z M102.7,339.2c0.8,1.4,2.2,2.4,3.7,2.8c3.8,1.3,7.9,0.8,11.2-1.5
			c5.5-3.4,10.6-7.4,15.3-11.8c3.9-3.7,7.6-7.6,11.1-11.5c2.8-3.1,5.4-6.3,7.9-9.6c4.4-6,8.7-12.2,13.1-18.3c0.5-0.6,1-1.1,1.6-1.6
			c0.9,0.8,1.5,1.9,1.7,3.1c0.3,1.7,0.7,3.4,1.2,5.1c3.6,10.4,8.9,20,13.8,29.7c3.6,7.4,8.1,14.3,13.2,20.7c2.6,3.1,5,6.5,7.8,9.3
			c2.7,2.7,5.6,5.2,8.8,7.4c5.3,3.8,10.9,7.2,17.5,8.5c3.8,0.7,7.4,0.4,10.6-2.3c2.7-2.4,4.9-5.2,6.6-8.3c3.7-6.7,5.3-14,6.3-21.4
			c0.7-5.3,1.1-10.6,1.4-15.9s0.5-10.4,0.5-15.5c0-3.5-0.3-7-0.4-10.5c-0.1-6.9,0-13.8-0.1-20.6c-0.1-1.1,0.5-2,1.5-2.5
			c5.8-3.6,11.1-8.1,15.6-13.3c5.9-6.5,11.1-13.6,15.6-21.1c2.8-4.7,5.3-9.4,6.3-14.9c0.8-3.6-0.2-7.3-2.6-10
			c-1.8-2.1-3.9-4-6.3-5.5c-5.5-3.4-11.6-5.7-18-6.8c-3.6-0.7-7.2-1.1-10.8-1.6c-3.4-0.5-6.8-0.9-10.2-1.3
			c-3.9-0.4-7.9-0.7-11.9-1.1c-4.1-0.3-8.2-0.6-12.4-0.9c-2.3-0.1-4.6,0-6.9,0h-3.5c-0.4-3.2-0.9-6.1-1-9c0-4.6-0.4-9.2-1-13.8
			c-0.6-3.9-0.9-7.8-1.7-11.5c-1.6-7.5-3.5-14.9-5.4-22.3c-2.4-8.9-6.3-17.2-10.6-25.3c-0.3-0.4-0.6-0.7-0.9-1
			c-1.1-1.9-2.1-3.9-3.4-5.7c-1.9-2.9-4.6-5.2-7.8-6.5c-1-0.5-2.1-0.7-3.2-0.6c-2.6,0.4-5.1,1.4-7.2,3c-6.5,4.9-11.8,11.3-15.5,18.5
			c-2.8,5.6-5.7,11.3-8.2,17c-4.7,10.7-9.2,21.6-13.7,32.4c-2.3,5.6-4.4,11.3-6.9,16.8c-1.8,4.1-2,3.9-6.3,3.5
			c-7.1-0.6-14.3-1.1-21.5-1.3c-6.1-0.1-12.3,0.3-18.3,1.4c-4.7,0.8-9.3,2.3-13.6,4.4c-2.2,1-3.4,3.4-2.8,5.7
			c0.5,2.6,1.4,5.2,2.5,7.7c3.8,7.9,9.7,14.2,15.4,20.6c3.4,3.7,7.1,7.1,10.6,10.8c1.7,1.9,3.3,3.9,4.7,6c0.9,1.3,1.3,3,1,4.6
			c-0.3,2.9-0.7,5.9-0.8,8.8c-0.2,6.6-0.4,13.3-0.4,19.9c0,9.3,0.3,18.7,0.3,28c-0.1,5.2,0.3,10.4,1,15.5
			C98,330.6,99.8,335.2,102.7,339.2z"/>
		<path class="st10" d="M417.9,267.3c0.6,1.9,0.2,2.4-1.4,1.9c-1.9-0.6-3.7-1.5-5.3-2.6c-4.3-3.1-8.5-6.3-12.5-9.7
			c-7.9-6.8-15.7-13.7-23.6-20.6c-6-5.2-12.1-10.3-18.1-15.5c-0.7-0.6-1.3-1.3-1.9-2.1c0.5,0.1,1.1,0.2,1.5,0.5
			c3,2.2,6.1,4.3,9.1,6.6c6.2,4.8,12.4,9.6,18.6,14.4c4.3,3.4,8.5,6.9,12.8,10.3c2.2,1.7,4.3,3.4,6.6,5.1c0.5,0.3,1.1,0.5,1.7,0.6
			l0,0c0,1.3,0.8,1.6,1.9,1.5l0,0c0.2,0.6,0.5,1.1,0.9,1.6c2.8,2.6,5.7,5.1,8.6,7.6C417.1,267,417.5,267.2,417.9,267.3z"/>
		<path class="st11" d="M405.4,256.2c-0.6-0.1-1.2-0.3-1.7-0.6c-2.2-1.7-4.4-3.4-6.6-5.1c-4.3-3.4-8.5-6.9-12.8-10.3
			c-6.2-4.9-12.4-9.7-18.7-14.4c-3-2.3-6-4.4-9.1-6.6c-0.5-0.2-1-0.4-1.5-0.5l0,0c-0.1-1.2-1.2-2.1-2.4-2c0,0,0,0-0.1,0l-0.4-0.4
			c0-0.9-0.6-1-1.4-1.1l-0.1-0.1l-0.5-0.4l-0.5-0.4c0-0.9-0.6-1-1.3-1.1l-0.1-0.1l-1-0.9l0,0l-0.5-0.9v-0.9
			c6.5,4.9,13.1,9.7,19.5,14.7c12.4,9.6,24.6,19.3,37,28.9C404.1,254.8,404.8,255.5,405.4,256.2z"/>
		<path class="st11" d="M417.9,267.3c-0.4-0.1-0.7-0.2-1.1-0.4c-2.9-2.5-5.7-5.1-8.6-7.6c-0.4-0.5-0.7-1-0.9-1.6
			c2.6,2,5.4,3.9,7.9,6.1C416.2,264.8,417.1,266,417.9,267.3z"/>
		<path class="st12" d="M346.9,210.6v0.9h-0.6l-8.1-6.5l-0.1-1.1L346.9,210.6z"/>
		<path class="st12" d="M330.9,199.1c-0.9-0.6-1.8-1.2-2.6-1.9c-3.5-2.8-7.1-5.6-10.6-8.4c0.1-0.1,0.2-0.2,0.3-0.3l13.5,10.2
			L330.9,199.1z"/>
		<path class="st10" d="M330.9,199.1l0.6-0.4l6.6,5.1l0.1,1.1L330.9,199.1z"/>
		<path class="st10" d="M318,188.6c-0.1,0.1-0.2,0.2-0.3,0.3l-3-2.2C316.5,186.9,317.1,187.9,318,188.6z"/>
		<path class="st10" d="M352.6,216.8c1.2-0.1,2.3,0.7,2.4,1.9c0,0,0,0,0,0.1L352.6,216.8z"/>
		<path class="st11" d="M407.4,257.6c-1.1,0.1-1.9-0.2-1.9-1.5L407.4,257.6z"/>
		<path class="st10" d="M350.8,215.3c0.7,0,1.3,0.2,1.4,1.1L350.8,215.3z"/>
		<path class="st10" d="M348.5,213.4c0.7,0,1.3,0.2,1.3,1.1L348.5,213.4z"/>
		<path class="st10" d="M346.3,211.6h0.6l0.5,0.9L346.3,211.6z"/>
		<path class="st10" d="M347.4,212.5l1,0.9L347.4,212.5z"/>
		<path class="st10" d="M350.3,214.9l0.5,0.4L350.3,214.9z"/>
		<path class="st17" d="M310.5,262.4c0.9,2.3,1.6,4.6,2.7,6.8c1.8,3.7,4.7,6.7,8.3,8.7c-1.3,0.8-2.4,1.5-3.5,2.2
			c-4.1,2.8-6.6,6.8-8.5,11.2c-0.2,0.5-0.5,1-0.7,1.5c0,0-0.2,0-0.2,0c-0.1-0.1-0.1-0.3-0.2-0.4l-0.5-1.1l0,0
			c-0.2-0.5-0.3-1-0.5-1.5l0,0c-0.2-0.5-0.3-1-0.5-1.5l0,0l-0.5-1l0,0l-0.5-1l0,0c0.1-0.9,0.1-1.8-0.8-2.4l-3-6.5
			c3.2-2.9,5-6.6,6.5-10.5C309.4,265.5,309.9,264,310.5,262.4z"/>
		<path class="st18" d="M310.5,262.4c-0.6,1.5-1.1,3.1-1.7,4.6c-1.5,3.9-3.3,7.6-6.5,10.5l3,6.5h-0.7c-2-2.7-4-5.3-7.4-7.1
			c6.8-4.1,10.4-10.1,13.1-17L310.5,262.4z"/>
		<path class="st12" d="M304.6,284.1h0.7c0.9,0.6,0.9,1.5,0.8,2.4L304.6,284.1z"/>
		<path class="st12" d="M307.5,289.8c0.2,0.5,0.3,1,0.5,1.5C307.8,290.8,307.6,290.3,307.5,289.8z"/>
		<path class="st12" d="M307,288.4c0.2,0.5,0.3,1,0.5,1.5C307.3,289.3,307.2,288.8,307,288.4z"/>
		<path class="st12" d="M306.5,287.4l0.5,1L306.5,287.4z"/>
		<path class="st12" d="M308,291.2l0.5,1.1L308,291.2z"/>
		<path class="st12" d="M306,286.4c0.2,0.3,0.3,0.7,0.5,1C306.4,287.1,306.2,286.8,306,286.4z"/>
		<path class="st17" d="M393.1,175c0.9,2.1,1.6,4.3,2.7,6.4c1.6,3.5,4.4,6.3,7.9,7.9c-1.3,1-2.6,1.8-3.8,2.7c-2.6,2-4.5,4.8-5.5,7.9
			c-0.2,0.4-0.4,0.9-0.6,1.3c-1.4-2.2-2.7-4.5-4.3-6.6c-1.1-1.4-2.3-2.8-3.6-4.1c1.4-1.8,2.9-3.4,4.1-5.3
			C391.9,182,393,178.6,393.1,175z"/>
		<path class="st11" d="M393.1,175c-0.2,3.6-1.2,7.1-3.1,10.2c-1.2,1.9-2.7,3.5-4.1,5.3c1.3,1.3,2.5,2.7,3.7,4.1
			c1.5,2.1,2.9,4.4,4.3,6.6c-0.1,0.7-0.2,1.5-0.3,2.2l-0.5,0.1c-2.5-5.4-5.5-10.3-11.2-13.1c1.1-0.4,2-0.7,2.8-1.1
			c2.4-1.3,4.3-3.3,5.4-5.8c1.1-2.7,1.8-5.5,1.9-8.3c0-0.7,0.2-1.3,0.6-1.9L393.1,175z"/>
		<path class="st17" d="M343.6,290.7c0.4,1.2,0.8,2.4,1.2,3.6c1.3,3.7,3.5,7.1,6.4,9.7c0.4,0.3,0.9,0.5,1.4,0.7
			c-3,1.6-5.3,4-6.8,7.1c-1.3,2.7-2.3,5.6-3.5,8.6c-0.3-0.7-0.5-1.3-0.6-1.8c0.1-0.4,0.5-0.9,0.4-1.3c-0.7-2.2-1.5-4.3-2.6-6.4
			c-1.4-2.2-2.9-4.4-4.5-6.5c3-2.9,5.4-6.3,7.1-10.1C342.5,293.1,343.1,291.9,343.6,290.7z"/>
		<path class="st11" d="M343.6,290.7c-0.5,1.2-1.1,2.4-1.6,3.6c-1.7,3.8-4.1,7.2-7.1,10.1c1.6,2.1,3.1,4.2,4.5,6.5
			c1,2,1.9,4.2,2.6,6.4c0.1,0.3-0.2,0.8-0.4,1.3c-1.6-3.6-3.2-7.1-6-10c-1.2-1.3-2.5-2.4-4-3.7c6.1-4.3,9.2-10.6,11.5-17.6
			L343.6,290.7z"/>
		<path class="st10" d="M291,308c0.9,2,1.9,4,3,5.9c1.1,1.5,2.3,2.8,3.6,4.1c-1.5,1.3-2.9,2.8-4.1,4.4c-1.1,1.9-2.1,3.9-3,5.9
			l-1-3.2c0.1-0.7,0.1-1.5-0.1-2.2c-0.7-1.9-1.5-3.8-2.3-5.7C288.9,314.5,290.3,311.4,291,308z"/>
		<path class="st11" d="M291,308c-0.7,3.3-2.1,6.4-3.9,9.3c0.8,1.9,1.6,3.8,2.3,5.7c0.1,0.7,0.2,1.5,0.1,2.2
			c-1.2-2.9-2.5-5.7-4.7-7.6c1.3-1.7,2.5-3.5,3.6-5.4c0.9-2,1.6-4,2.2-6.1C290.8,307,290.9,307.5,291,308z"/>
		<path class="st17" d="M412.6,207.2c0.6,1.4,1.3,2.7,2.1,4c0.9,1.2,1.9,2.4,3,3.5c-1.5,1.3-3,2.7-4.2,4.2c-1,1.7-1.9,3.5-2.7,5.4
			l-0.1-0.9c0.3-3.3-1.7-5.9-3-8.7c1.9-1.5,3.3-3.5,4-5.8C412,208.3,412.3,207.8,412.6,207.2z"/>
		<path class="st11" d="M412.6,207.2c-0.3,0.5-0.7,1.1-0.9,1.6c-0.8,2.3-2.2,4.3-4,5.8c1.3,2.8,3.4,5.4,3,8.7
			c-0.3-0.6-0.7-1.2-1-1.9c-1.2-2.7-2.9-5.2-5.2-7.1c4.4-2.1,6-5.9,7.4-10.4C412.2,205.4,412.4,206.3,412.6,207.2z"/>
		<path class="st17" d="M360.7,335.3c1,1.8,2,3.7,3.2,5.7c-1.9,0.8-3.4,2.2-4.4,4c-0.3-1.2-0.7-2.4-1.1-3.6
			c-0.4-0.7-0.3-1.5,0.1-2.2C359.2,337.9,359.9,336.6,360.7,335.3z"/>
		<path class="st11" d="M360.7,335.3c-0.8,1.3-1.5,2.6-2.3,3.9c-0.4,0.7-0.5,1.5-0.1,2.2c0.4,1.2,0.8,2.4,1.1,3.6
			c-0.2,0.5-0.4,1-0.7,1.6c-1-2-1.9-3.9-2.9-6c2.5-1.8,3.2-5,4.3-8.3L360.7,335.3z"/>
		<path class="st19" d="M335.9,157.3c7.4,4.2,14.4,9.1,20.9,14.6c1.4,1.2,2.8,2.3,4.2,3.6c0.6,0.5,1.1,1.3,1.4,2.1
			c-0.6-0.2-1.2-0.5-1.8-0.9c-3.1-2.3-6.1-4.6-9.2-6.8l-16.1-12.1L335.9,157.3z"/>
		<path class="st12" d="M335.9,157.3l-0.6,0.5l-2.9-2.4l0,0L335.9,157.3z"/>
		<polygon class="st12" points="332.5,155.4 332.4,155.4 332.5,155.5 		"/>
		<path class="st20" d="M102.7,339.2c-2.8-4-4.7-8.6-5.3-13.4c-0.7-5.1-1.1-10.3-1-15.5c-0.1-9.3-0.3-18.7-0.3-28
			c0-6.6,0.2-13.2,0.5-19.9c0.1-2.9,0.5-5.9,0.8-8.8c0.3-1.6-0.1-3.2-1-4.6c-1.5-2.1-3.1-4.1-4.7-6c-3.5-3.7-7.2-7.1-10.6-10.8
			c-5.8-6.4-11.7-12.7-15.4-20.6c-1.2-2.5-2-5-2.6-7.7c-0.6-2.3,0.6-4.8,2.8-5.8c4.3-2.1,8.9-3.6,13.6-4.4c6-1.1,12.2-1.6,18.3-1.4
			c7.2,0.2,14.3,0.7,21.5,1.3c4.4,0.3,4.6,0.5,6.3-3.5c2.4-5.6,4.5-11.2,6.9-16.8c4.5-10.8,9-21.6,13.7-32.4
			c2.5-5.8,5.4-11.4,8.2-17c3.7-7.3,9-13.7,15.5-18.7c2.1-1.6,4.6-2.6,7.2-3c1.1-0.1,2.2,0.1,3.2,0.6c3.2,1.3,5.9,3.6,7.8,6.5
			c1.3,1.8,2.3,3.8,3.4,5.7c0.4,1.4,0.7,2.9,1.2,4.3c4.3,11.6,7.1,23.6,8.3,35.9c0.4,4.2,0.8,8.4,1,12.6c0.3,4.8,0.4,9.5,0.5,14.3
			c0.1,3.8,0.1,7.7,0,11.5c0,1.7-0.3,3.3-0.4,5c-0.1,0.8,0.1,1.6,0.5,2.3c1.7,2.3,3.5,4.3,6.6,4.8s6.1,0.9,9.2,1.4
			c4.6,0.8,9.2,1.5,13.8,2.3c3.9,0.7,7.8,1.6,11.6,2.5c0,3,0.1,6.1,0.1,9.1c0,5.4-2.7,9.4-6.6,12.7c-1.3,1.1-2.8,2.1-4.5,3.4
			c0.6,0.6,1.3,1.1,2.1,1.5c7.5,3.2,12.1,8.8,14.3,16.5c0.5,1.3,1.1,2.6,1.8,3.9l-9.6,6.7c-2.1,1.5-4.3,3-6.5,4.5
			c-1.6,1.1-2.6,2.9-2.7,4.8c0,2.2,0.3,4.4,0.9,6.6c1.8,6.6,3.1,13.3,4,20.1c0.4,4,1.1,8,1.3,12.1c0.3,5.5,0,11-0.9,16.4
			c-1,5.8-2.5,11.3-6.4,16c-3.5,4.2-6.5,5.1-10.6,2.8c-4.4-2.5-8.4-5.6-11.8-9.2c-2.8-2.8-5.3-5.9-7.6-9.1c-4.2-6.1-8-12.4-11.4-19
			c-4.4-8.6-8.3-17.4-12.4-26.2c-0.5-1.3-0.9-2.5-1.2-3.8c0.7,0.4,1.4,0.8,2,1.3c6.1,4.9,12.2,9.8,18.2,14.8
			c6.8,5.6,13.4,11.3,20.2,16.8c1.8,1.3,3.7,2.5,5.8,3.3c0.9,0.5,2,0.2,2.5-0.6c0.1-0.2,0.2-0.5,0.2-0.8c0.2-0.9,0.2-1.9,0.1-2.8
			c-0.4-3.1-2.5-5.2-4.8-6.9c-3.8-2.9-7.9-5.5-11.8-8.2c-8.4-6-16.7-12-25-18.1c-4.3-3.1-8.5-6.2-12.7-9.3c-1.2-3.2-2.4-6.4-3.6-9.5
			c-0.2-0.4-0.8-0.7-1.5-1.2c-0.6,1.1-1.1,1.9-1.6,2.8s-1,1.5-1.5,2.3c-1.5-1-3-1.9-4.4-2.9c-7.7-5.4-16.1-9.6-23.5-15.6
			c-0.5-0.4-1.1-0.5-1.8,0.4c0.5,0.7,1.1,1.4,1.8,2.1c6.4,4.9,12.8,9.8,19.1,14.7c2.5,1.9,5,4,7.4,6c-4.7,9.8-10,19.4-15.9,28.6
			c-3.2,5.1-6.4,10.3-10,15.1c-3.2,4.7-6.9,9-10.9,13c-1,0.8-1.9,1.7-2.7,2.7c-1.9,2.7-4.3,4.9-7.2,6.6
			C111,338.2,107.3,340.2,102.7,339.2z M102.5,212.9c0.6,0.7,1.2,1.3,1.8,1.8c5.8,4,11.4,8.1,17.3,12c14.8,9.7,29.7,19.1,44.4,28.9
			c14.4,9.7,28.5,19.8,42.7,29.7c3.9,2.7,7.6,5.5,11.6,8.1c1.5,1,3.2,1.8,4.9,2.4c1.6,0.5,3.3-0.3,3.8-1.9c0.2-0.7,0.2-1.4-0.1-2.1
			c-0.2-0.8-0.6-1.6-1.2-2.3c-1.4-1.5-3-2.9-4.7-4.1c-4.7-3.2-9.5-6.1-14.3-9.3c-10.6-7-21.1-14.2-31.8-21
			c-10.3-6.5-20.7-12.6-31.2-18.8c-10.2-6-20.5-11.8-30.7-17.8c-3.1-1.8-6.2-3.7-9.3-5.5C104.9,212.6,104,211.8,102.5,212.9z
			 M110.6,207.7l-0.4,0.7c0.7,0.7,1.4,1.4,2.2,2c2.2,1.6,4.4,3.1,6.7,4.6c16.2,10.6,32.3,21.2,48.5,31.7
			c7.9,5.2,15.9,10.4,23.9,15.6c1.5,1,3.1,1.8,4.9,1.4c2.1-0.4,2.9-1.9,1.7-3.7c-0.8-1.3-1.8-2.4-3-3.3c-2.2-1.6-4.6-2.9-6.9-4.4
			c-7.4-4.6-14.8-9.5-22.4-13.9c-17.7-10.2-35.6-20.1-53.4-30.1C111.9,208.1,111.3,207.8,110.6,207.7z M140,169
			c0.7-0.5,1.3-1.1,1.8-1.7c0.9-1.2,1.6-2.6,2.1-4c2.7-7.6,5.9-15,9.6-22.2c3.2-6.3,6.2-12.6,9.5-18.8c2.1-4.3,5.3-8,9.3-10.7
			c2.1-1.2,4.2-2.3,6.4-3.2c0.9-0.5,2-0.9,1.7-2.3s-1.6-1.1-2.6-1.4c-0.2-0.1-0.5,0.1-0.7,0.1c-2.3,0.4-4.4,1.3-6.3,2.6
			c-4.7,2.9-8.6,6.8-11.5,11.5c-2.5,3.9-4.9,8-7,12.2c-3.2,6.4-6.1,13-8.9,19.6c-1.8,4.2-3.3,8.6-4.8,13
			C137.6,165.6,138.2,167.9,140,169z M150.3,169.3c-1.3-0.6-1.9-0.3-2.3,0.6c-0.3,0.8-0.6,1.7-0.8,2.5c-0.9,4.1-2.3,8.2-4.3,11.9
			c-2.1,3.8-4.8,6.8-9.4,7.4c-0.2,0.1-0.5,0.1-0.7,0.2c-0.7,0.2-1.6,0.5-1.4,1.3c0.2,0.5,0.7,1,1.3,1.1c1.6,0.5,3,1.5,4.1,2.8
			c2.4,2.6,4,5.8,4.6,9.3c0.4,2.6,0.6,5.2,0.9,7.8c0.1,1,0.2,2.1,1.6,2.7c0.4-1.1,0.7-2.3,0.9-3.5c0.4-4.3,2.1-8.4,4.9-11.7
			c2.2-2.4,4.3-5,8.1-4.8c0.6-0.1,1.1-0.5,1.3-1c0.3-0.8,0-1.7-0.8-2c0,0,0,0,0,0c-0.5-0.2-1-0.4-1.6-0.6c-2.5-1-4.5-3-5.6-5.4
			c-2.1-4.1-2.4-8.4-1.9-12.8C149.6,173.2,150,171.3,150.3,169.3L150.3,169.3z M156.5,155.6c0.3,1.4,0.3,1.3,1.1,1.9
			c1.3,0.8,2.5,1.7,3.5,2.8c3.3,4,4.4,8.9,4.8,14c0.2,3,0,5.9,0.1,8.9c0.1,0.6,0.2,1.2,0.5,1.7c1.1-1.6,1.8-3.5,1.9-5.5
			c0.6-5.1,2.8-9.9,6.4-13.6c2.2-2.4,4.8-3.9,8.3-2.9c0.5,0.1,1.1,0.2,1.6,0.1c0.7-0.1,1.1-0.6,0.9-1.6c-1.1-0.5-2.3-1.1-3.5-1.6
			c-3.5-1.3-6.1-4.3-6.9-8c-0.8-3.4-0.5-6.8-0.3-10.2c0.1-1.6,0.3-3.2,0.3-4.8c0-0.4-0.5-0.7-1-1.5c-0.4,1.2-0.6,1.8-0.8,2.5
			c-0.5,1.8-0.9,3.7-1.6,5.5c-1.3,4.2-4.1,7.7-7.8,10C161.7,154.6,159.1,155.4,156.5,155.6L156.5,155.6z M75.7,197.1
			c-0.8-0.1-1.7-0.6-2.4-0.4c-2.3,0.8-4.5,1.7-6.6,2.7c-0.6,0.4-1.1,0.9-1.4,1.6c-0.9,1.6-1,3.5-0.4,5.3c0.7,1.8,1.5,3.5,2.5,5.1
			c5.4,8.4,11.8,16,19,22.9c0.9,1,2.1,1.6,3.4,1.9c1.4-2,0.6-3.7-0.5-5.2c-1.8-2.4-3.7-4.6-5.7-6.8c-3.1-3.4-6.4-6.5-9.3-9.9
			c-1.7-1.9-3.1-4.1-4.1-6.4c-1.6-4.1-0.8-6,2.7-7.4C74.4,200.2,75.6,198.8,75.7,197.1z M210.5,237.3c0.5-2.1-0.4-3.3-1.9-4.2
			c-5-3.2-9.8-6.6-15-9.4c-9.3-4.9-18.8-9.5-28.3-14.1c-0.7-0.4-1.5-0.6-2.2-0.9c-0.7-0.1-1.4-0.1-2.1,0c2.1,1.5,3.6,2.8,5.2,3.8
			c8.7,5.5,17.4,11.1,26.1,16.4c4.3,2.6,8.8,4.9,13.2,7.3C207,237.1,208.5,237.9,210.5,237.3L210.5,237.3z M106.3,289.5
			c0.4,0.5,0.8,1,1.3,1.5c3.1,2.4,4.7,5.7,5.7,9.4c0.4,1.8,0.6,3.6,1,5.4c0.1,0.4,0.6,0.8,0.9,1.2c0.3-0.4,0.8-0.7,0.9-1.2
			c0.2-1.2,0.4-2.5,0.4-3.8c0.2-5,2.3-8.5,7.3-10c1.1-0.3,1.3-1.3,0.5-2.2c-0.3-0.3-0.8-0.6-1.1-0.9c-4.4-3.9-6.5-8.7-5.7-14.6
			c0.1-0.7,0.1-1.5,0-2.2l-0.6-0.3c-0.4,0.4-1.1,0.6-1.3,1c-0.3,0.8-0.4,1.5-0.5,2.3c-1,5.2-2.8,9.8-7.5,12.8
			C107.1,288.5,106.7,289,106.3,289.5z M95.2,240.7c-0.3,1.1,0.1,2.2,1,2.9c2.4,2.7,3.7,6.2,3.7,9.8c0.1,1.2,0.3,2.5,0.6,3.7
			c1.6-0.5,1.7-0.5,1.9-1.4c1.4-4.8,1.2-9.4-1.8-13.7C99.1,239.9,97.8,239.6,95.2,240.7z M138.2,177.6c0-2.4-0.8-2.9-2.9-1.7
			c-0.9,0.4-1.6,1-2.1,1.8c-1,1.7-1.8,3.5-2.5,5.4c-0.2,0.8-0.3,1.6-0.1,2.4c0.3,1.8,1.8,2.3,3.1,1.1c0.9-0.8,1.6-1.7,2.3-2.8
			C137.2,182,138,179.8,138.2,177.6L138.2,177.6z"/>
		<path class="st21" d="M243.7,212.1c-3.9-0.8-7.7-1.8-11.6-2.5c-4.6-0.9-9.2-1.6-13.8-2.3c-3-0.5-6.1-1-9.2-1.4
			c-3-0.4-4.9-2.5-6.6-4.8c-0.4-0.7-0.5-1.5-0.5-2.3c0.1-1.7,0.4-3.3,0.4-5c0.1-3.8,0.1-7.7,0-11.5c-0.1-4.8-0.2-9.6-0.5-14.3
			c-0.2-4.2-0.6-8.4-1-12.6c-1.2-12.3-4-24.3-8.3-35.9c-0.5-1.4-0.8-2.9-1.2-4.3c0.3,0.3,0.7,0.6,0.9,1c4.3,8.1,8.3,16.4,10.6,25.3
			c1.9,7.4,3.8,14.8,5.4,22.3c0.8,3.8,1.1,7.7,1.7,11.5c0.6,4.6,1,9.2,1,13.8c0.1,2.9,0.6,5.8,1,9h3.5c2.3,0,4.6-0.1,6.9,0
			c4.1,0.2,8.3,0.5,12.4,0.9c4,0.3,7.9,0.6,11.9,1.1c3.4,0.4,6.8,0.8,10.2,1.3c3.6,0.5,7.3,1,10.8,1.6c6.4,1.1,12.5,3.4,18,6.8
			c2.3,1.5,4.5,3.4,6.3,5.5c2.4,2.7,3.4,6.4,2.6,10c-1,5.5-3.5,10.2-6.3,14.9c-4.5,7.5-9.8,14.6-15.6,21.1
			c-4.5,5.2-9.7,9.7-15.6,13.3c-1,0.5-1.5,1.4-1.5,2.5c0.1,6.9,0,13.7,0.1,20.6c0,3.5,0.4,7,0.4,10.5c0,5.2-0.2,10.4-0.5,15.5
			s-0.8,10.6-1.4,15.9c-1,7.5-2.5,14.8-6.3,21.4c-1.7,3.2-3.9,6-6.6,8.4c-3.2,2.7-6.8,3-10.6,2.3c-6.6-1.3-12.2-4.7-17.5-8.5
			c-3.1-2.2-6.1-4.7-8.8-7.4c-2.8-2.9-5.2-6.2-7.8-9.3c-5.2-6.4-9.6-13.4-13.2-20.7c-4.9-9.7-10.3-19.3-13.8-29.7
			c-0.5-1.7-0.9-3.4-1.2-5.1c-0.2-1.2-0.8-2.3-1.7-3.1c-0.6,0.5-1.1,1-1.6,1.6c-4.4,6.1-8.6,12.3-13.1,18.3
			c-2.5,3.3-5.1,6.5-7.9,9.6c-3.6,4-7.3,7.9-11.1,11.5c-4.7,4.4-9.8,8.4-15.3,11.8c-3.3,2.3-7.4,2.9-11.2,1.6
			c-1.6-0.4-2.9-1.4-3.7-2.8c4.6,1,8.3-0.9,12-3.2c2.8-1.7,5.3-3.9,7.2-6.6c0.8-1,1.7-1.9,2.7-2.7c4-4,7.6-8.3,10.9-13
			c3.5-4.9,6.8-10,10-15.1c5.9-9.2,11.2-18.7,15.9-28.5c0.2,0,0.5,0.1,0.7,0.3c3.8,3,7.7,6,11.5,9c0.9,0.7,1.8,1.6,2.6,2.4
			c0.3,1.3,0.7,2.6,1.2,3.8c4.1,8.8,8,17.6,12.4,26.2c3.4,6.6,7.2,12.9,11.4,19c2.3,3.2,4.9,6.3,7.6,9.1c3.5,3.6,7.5,6.7,11.8,9.2
			c4.1,2.3,7,1.4,10.6-2.8c3.9-4.6,5.4-10.2,6.4-16c0.9-5.4,1.2-10.9,0.9-16.4c-0.2-4-0.9-8-1.3-12.1c-0.9-6.8-2.2-13.5-4-20.1
			c-0.6-2.1-1-4.3-0.9-6.6c0-1.9,1-3.8,2.7-4.8c2.2-1.5,4.3-3,6.5-4.5l9.6-6.7l1-1c0.4-0.1,0.7-0.2,1.1-0.4c3.2-2.8,6.4-5.5,9.4-8.4
			c3.3-3.1,6.4-6.4,9.3-9.9c2.3-2.5,3.8-5.5,4.5-8.8c0.5-2.7-0.1-5.3-2.1-6.4c-3.2-1.8-6.4-3.5-9.8-4.9c-4.4-1.8-8.9-3.4-13.4-5
			c-1.9-0.5-3.8-0.9-5.7-1.2C245.1,212.1,244.4,212,243.7,212.1z"/>
		<path class="st22" d="M102.6,212.9c1.4-1.2,2.4-0.3,3.3,0.2c3.1,1.8,6.2,3.7,9.3,5.5c10.2,5.9,20.5,11.8,30.7,17.8
			c10.4,6.2,20.9,12.3,31.2,18.8c10.7,6.8,21.2,14,31.8,21c4.7,3.1,9.6,6.1,14.3,9.3c1.7,1.2,3.2,2.6,4.7,4.1c0.6,0.7,1,1.5,1.2,2.3
			c0.6,1.5-0.1,3.3-1.6,3.9c-0.7,0.3-1.4,0.3-2.1,0.1c-1.8-0.5-3.4-1.3-4.9-2.4c-3.9-2.6-7.7-5.4-11.6-8.1
			c-14.2-9.9-28.3-20-42.7-29.7c-14.6-9.9-29.6-19.2-44.4-28.9c-5.9-3.9-11.6-8-17.3-12C103.7,214.2,103.1,213.6,102.6,212.9z
			 M149.2,242.2L149.2,242.2l0.5,0.4c0.1,0.1,0.3,0.2,0.4,0.2l0.6,0.4l0.9,0.6l0.5,0.4c0.1,0.1,0.2,0.1,0.3,0.1l1.5,1l0,0l1.4,0.9
			l0,0l1.4,0.9l0,0l0.5,0.4c0.1,0.1,0.2,0.1,0.3,0.1l1.5,1l0,0l1.4,1l0,0l1.4,0.9l0,0l1.4,0.9l0,0l2.3,1.5l0,0l1.4,1l0,0l1.4,1l0,0
			l1.4,1l0,0c0.3,0.3,0.6,0.6,1,0.9c6.9,4.7,13.8,9.4,20.7,14.2c9.1,6.4,18.2,12.9,27.4,19.2c1.7,1.1,3.5,2,5.3,2.7
			c0.4,0.2,1-0.1,1.6-0.1c-0.4-1.4-1.2-2.6-2.4-3.4L223,289l0,0l-0.5-0.5l0,0L222,288l0,0l-1.9-1.5l0,0c-0.8-1.2-2-2-3.4-2.4l0,0
			l-1.4-1l0,0l-1.4-1l0,0l-1.5-1l0,0l-1.5-1l0,0l-1.5-1l0,0l-1.4-1l0,0l-1.4-1l0,0l-1.4-1l0,0l-1.4-1l0,0l-1.4-1l0,0
			c-0.3-0.3-0.6-0.5-0.9-0.8c-13.8-9.3-28.1-18.7-42.8-27.3c-8.2-4.8-16.4-9.6-24.6-14.3c-2-1.5-4.2-2.7-6.5-3.8l-0.2,0.4l6.2,3.8
			l13.8,8.7l0.6,0.4l0,0l0.9,0.5l0,0L149.2,242.2z"/>
		<path class="st23" d="M176.1,281.6c-0.9-0.8-1.7-1.6-2.6-2.4c-3.8-3-7.6-6-11.5-9c-0.2-0.1-0.4-0.2-0.7-0.3c-2.5-2-4.9-4-7.4-6
			c-6.4-4.9-12.8-9.8-19.1-14.7c-0.7-0.6-1.3-1.3-1.8-2.1c0.6-0.9,1.3-0.8,1.8-0.4c7.3,5.9,15.8,10.2,23.5,15.6
			c1.4,1,2.9,1.9,4.4,2.9l8.2,5.6c4.3,3.1,8.5,6.2,12.7,9.3c8.3,6,16.7,12.1,25,18.1c3.9,2.8,7.9,5.4,11.8,8.2
			c2.3,1.7,4.4,3.8,4.8,6.9c0.1,0.9,0.1,1.9-0.1,2.8c-0.1,1-1,1.7-2,1.6c-0.3,0-0.5-0.1-0.8-0.2c-2-0.9-4-2-5.8-3.3
			c-6.8-5.5-13.5-11.2-20.2-16.8c-6-5-12.1-9.9-18.2-14.8C177.4,282.4,176.7,282,176.1,281.6z M212.6,304.6l-0.5-0.5l0,0
			c-1.2-1-2.4-2.1-3.6-3.1c-5.9-4.3-11.8-8.7-17.8-13c-5.5-4-11-8-16.5-11.9c-2.9-2.1-5.7-4.2-8.6-6.3c-0.9-0.7-2-1.2-3-1.8
			l-1.5-1.4l-0.3,0.5l1.8,1l11,8.7c3.8,3,7.6,6,11.4,9.1c3.5,2.8,7,5.5,10.5,8.2l0.6,0.5l0,0c0.2,0.3,0.5,0.6,0.8,0.9
			c7.7,6.2,15.4,12.3,23.1,18.4c0.7,0.5,1.5,0.9,2.3,1.3c0.2-1.4-0.3-2.8-1.3-3.8c-2-1.9-4.2-3.6-6.4-5.3l-0.7-0.5l0,0L212.6,304.6
			L212.6,304.6z"/>
		<path class="st23" d="M110.7,207.7c0.6,0.2,1.3,0.4,1.8,0.7c17.8,10,35.7,19.9,53.4,30.1c7.6,4.4,14.9,9.3,22.4,13.9
			c2.3,1.4,4.7,2.8,6.9,4.4c1.2,0.9,2.2,2,3,3.3c1.1,1.8,0.4,3.2-1.7,3.7c-1.9,0.4-3.4-0.4-4.9-1.4c-8-5.2-15.9-10.4-23.9-15.6
			c-16.1-10.6-32.3-21.1-48.4-31.7c-2.3-1.5-4.5-3-6.7-4.6c-0.8-0.6-1.5-1.3-2.2-2L110.7,207.7z M185.2,253.3L185.2,253.3l-1-0.5
			l0,0l-0.5-0.4l-0.9-0.5l0,0l-1.4-1l0,0c-3-2-5.9-4.1-9-5.9c-8-4.8-16.1-9.5-24.1-14.3c-2.8-1.9-5.8-3.6-8.8-5.2l-0.2,0.4l8.5,5.3
			l12.8,8.2l1.2,0.8l0.9,0.6l0.5,0.4c0.1,0.1,0.2,0.2,0.3,0.2l1.5,1l0,0c0.9,0.7,1.7,1.4,2.6,2c8.3,5.4,16.6,10.9,24.8,16.3
			c1,0.9,2.4,1.1,3.6,0.5c-0.7-0.8-1.5-1.6-2.3-2.3c-2.1-1.4-4.3-2.7-6.5-4.1l-1.7-1l0,0L185.2,253.3z"/>
		<path class="st24" d="M140,169c-1.8-1.1-2.4-3.4-1.6-5.3c1.5-4.4,3-8.8,4.8-13c2.8-6.6,5.8-13.1,8.9-19.6c2.1-4.2,4.5-8.3,7-12.2
			c2.9-4.7,6.8-8.6,11.5-11.5c1.9-1.3,4.1-2.2,6.3-2.6c0.2,0,0.5-0.2,0.7-0.1c0.9,0.3,2.2,0.2,2.6,1.4s-0.7,1.8-1.7,2.3
			c-2.2,1-4.3,2-6.4,3.2c-4,2.7-7.2,6.4-9.3,10.7c-3.2,6.2-6.3,12.6-9.5,18.8c-3.6,7.2-6.8,14.6-9.6,22.2c-0.6,1.4-1.3,2.8-2.1,4
			C141.2,167.9,140.6,168.5,140,169z"/>
		<path class="st15" d="M150.3,169.3c-0.3,2-0.7,4-0.9,5.9c-0.5,4.4-0.2,8.8,1.9,12.8c1.1,2.4,3.1,4.3,5.6,5.3
			c0.5,0.2,1,0.4,1.6,0.6c0.8,0.3,1.1,1.2,0.8,2c0,0,0,0,0,0c-0.3,0.5-0.7,0.9-1.3,1c-3.8-0.3-5.9,2.3-8.1,4.8
			c-2.8,3.3-4.5,7.4-4.9,11.7c-0.2,1.2-0.5,2.3-0.9,3.5c-1.4-0.7-1.5-1.7-1.6-2.7c-0.3-2.6-0.5-5.2-0.9-7.8
			c-0.6-3.5-2.2-6.7-4.6-9.3c-1.1-1.3-2.5-2.3-4.1-2.8c-0.6-0.2-1-0.6-1.3-1.1c-0.2-0.9,0.7-1.1,1.4-1.3c0.2-0.1,0.4-0.2,0.7-0.2
			c4.6-0.5,7.3-3.6,9.4-7.4c1.9-3.8,3.4-7.8,4.3-11.9c0.2-0.9,0.5-1.7,0.8-2.5C148.4,169,149,168.6,150.3,169.3z M147.5,184.5
			c-0.1-1.1-0.2-2.3-0.3-3.4c-2.4,5.2-4.7,10.4-10.5,12.9c3.8,3.2,6.4,7.6,7.4,12.5l0.6-1.6c2.4-3.7,5.1-7.3,9.5-9.4
			C150.7,192.7,148.3,188.8,147.5,184.5z"/>
		<path class="st23" d="M243.7,212.1c0.7,0,1.4,0.1,1.5,1c0,0.6,0,1.1,0.1,1.7c1.1,3.7,2.7,7.3,4.7,10.7c2.3,3.8,5.4,6.5,9.9,7.3
			c0.1,0,0.4,0,0.5,0.1c0.5,0.4,0.8,0.8,1.1,1.3c0.1,0.2-0.6,0.9-1,1c-1.8,0.4-3.4,1.5-4.6,2.9c-2.5,2.9-3.9,6.7-3.9,10.6
			c-0.1,3.2,0,6.4,0,9.5l-1,1c-0.7-1.2-1.3-2.5-1.8-3.9c-2.2-7.7-6.9-13.4-14.3-16.5c-0.7-0.4-1.4-0.9-2.1-1.5
			c1.7-1.3,3.2-2.2,4.5-3.4c3.9-3.3,6.6-7.3,6.6-12.7C243.8,218.1,243.7,215.1,243.7,212.1z M247,245.2l2.3,3.5
			c0.7-5.8,2.4-10.6,6.5-13.9c-1.9-1.7-3.8-3.1-5.4-4.9c-1.2-1.5-2.3-3.1-3.2-4.7c-0.3-0.7-0.6-1.4-0.9-2.1c-1.1,2.7-2,5.3-3.1,7.8
			c-1.4,2.6-3.4,4.9-5.9,6.5C241.1,239.3,244.4,241.9,247,245.2z"/>
		<path class="st15" d="M156.5,155.6c2.6-0.2,5.2-1,7.4-2.4c3.7-2.3,6.5-5.8,7.8-10c0.6-1.8,1-3.7,1.6-5.5c0.2-0.7,0.4-1.3,0.8-2.5
			c0.5,0.7,1,1.1,1,1.5c0,1.6-0.1,3.2-0.3,4.8c-0.3,3.4-0.6,6.9,0.3,10.2c0.8,3.7,3.4,6.7,6.9,8c1.3,0.5,2.4,1.1,3.5,1.6
			c0.3,1-0.2,1.5-0.9,1.6c-0.5,0.1-1.1,0.1-1.6-0.1c-3.5-1.1-6.1,0.5-8.3,2.9c-3.5,3.7-5.8,8.5-6.4,13.6c-0.1,2-0.8,3.9-1.9,5.5
			c-0.2-0.6-0.4-1.1-0.5-1.7c0-3,0.1-5.9-0.1-8.9c-0.3-5.1-1.4-10-4.8-14c-1-1.1-2.2-2-3.5-2.8C156.8,156.9,156.8,157,156.5,155.6z
			 M172.5,150.2l-0.3-2.4c-3.8,5.4-3.6,5.6-10.5,9.8c3.7,3.5,5.4,8,6.6,13.2l0.7-1.3c2.4-3.4,4.9-6.7,9.1-8.6
			C174.8,158.2,172.8,154.3,172.5,150.2L172.5,150.2z"/>
		<path class="st24" d="M75.7,197.1c-0.2,1.7-1.3,3.1-2.9,3.6c-3.4,1.3-4.3,3.2-2.7,7.4c1,2.3,2.4,4.5,4.1,6.4
			c3,3.4,6.3,6.6,9.3,9.9c2,2.2,3.9,4.4,5.7,6.8c1.1,1.5,1.9,3.2,0.5,5.2c-1.3-0.3-2.5-1-3.4-1.9c-7.2-6.9-13.6-14.6-19-22.9
			c-1-1.6-1.8-3.4-2.5-5.1c-0.6-1.8-0.4-3.7,0.4-5.3c0.3-0.7,0.7-1.2,1.4-1.6c2.2-1,4.4-1.9,6.6-2.7C74,196.6,74.9,197,75.7,197.1z"
			/>
		<path class="st22" d="M210.5,237.3c-1.9,0.6-3.4-0.2-4.9-1c-4.4-2.4-8.9-4.7-13.2-7.3c-8.8-5.4-17.4-10.9-26.1-16.4
			c-1.6-1.1-3.2-2.3-5.2-3.8c0.7-0.1,1.4-0.1,2.1,0c0.8,0.2,1.5,0.5,2.2,0.9c9.4,4.7,19,9.2,28.3,14.1c5.2,2.8,10,6.2,15,9.4
			C210,234.1,211,235.3,210.5,237.3z M206.2,233.8c-8.5-6-17.7-11.2-27.2-15.5l-3-1.6l-0.2,0.4l2.7,1.6c3.6,2.1,7.1,4.4,10.7,6.4
			c5.5,3.1,11,6.1,16.6,9.1l2.2,1.2l0.2-0.4L206.2,233.8z"/>
		<path class="st15" d="M106.3,289.5c0.4-0.5,0.9-1,1.4-1.4c4.7-3,6.5-7.6,7.5-12.8c0.1-0.8,0.3-1.6,0.5-2.3c0.2-0.4,0.8-0.7,1.3-1
			l0.6,0.3c0.1,0.7,0.1,1.5,0,2.2c-0.8,5.9,1.3,10.7,5.7,14.6c0.3,0.3,0.8,0.5,1.1,0.9c0.8,0.9,0.7,1.9-0.5,2.2c-5,1.4-7.1,5-7.3,10
			c-0.1,1.3-0.2,2.5-0.4,3.8c-0.1,0.4-0.6,0.8-0.9,1.2c-0.3-0.4-0.8-0.7-0.9-1.2c-0.4-1.8-0.6-3.6-1-5.4c-0.9-3.7-2.5-7-5.7-9.4
			C107.1,290.6,106.7,290.1,106.3,289.5z M115.7,295.6l5.2-5.2c-0.8-0.8-1.5-1.7-2.1-2.6c-1-1.5-1.8-3.2-2.6-4.8l-0.3-1.6
			c-1.5,3.4-3.4,6.4-6.2,8.2l5.3,7.9L115.7,295.6z"/>
		<path class="st24" d="M95.2,240.7c2.6-1.1,3.9-0.8,5.4,1.3c3,4.2,3.2,8.9,1.8,13.7c-0.2,0.9-0.4,0.9-1.9,1.4
			c-0.3-1.2-0.5-2.4-0.6-3.7c0-3.6-1.3-7.1-3.7-9.8C95.3,242.9,94.9,241.8,95.2,240.7z"/>
		<path class="st24" d="M138.2,177.6c-0.2,2.2-1,4.3-2.3,6.1c-0.6,1-1.4,1.9-2.3,2.8c-1.3,1.2-2.9,0.7-3.1-1.1
			c-0.1-0.8-0.1-1.6,0.1-2.4c0.7-1.9,1.5-3.7,2.5-5.4c0.5-0.8,1.3-1.4,2.1-1.8C137.4,174.7,138.2,175.2,138.2,177.6z"/>
		<path class="st21" d="M170.8,271.1l-8.2-5.6c0.5-0.8,1.1-1.5,1.5-2.3s1-1.7,1.6-2.8c0.7,0.6,1.3,0.8,1.5,1.2
			C168.4,264.7,169.6,267.9,170.8,271.1z"/>
		<path class="st20" d="M251.9,258.1c0-3.2-0.1-6.4,0-9.5c0-3.9,1.4-7.6,3.9-10.6c1.2-1.4,2.8-2.5,4.6-2.9c0.4-0.1,1.1-0.8,1-1
			c-0.3-0.5-0.6-1-1.1-1.3c-0.1-0.1-0.3-0.1-0.5-0.1c-4.5-0.8-7.6-3.5-9.9-7.3c-2-3.4-3.6-7-4.7-10.7c-0.1-0.6-0.1-1.1-0.1-1.7
			c1.9,0.3,3.9,0.7,5.7,1.3c4.5,1.5,9,3.1,13.4,5c3.3,1.5,6.6,3.1,9.8,4.9c1.9,1.1,2.6,3.6,2.1,6.4c-0.7,3.3-2.2,6.3-4.5,8.8
			c-2.9,3.4-6.1,6.7-9.3,9.9c-3,2.9-6.2,5.6-9.4,8.4C252.6,257.9,252.3,258,251.9,258.1z"/>
		<path class="st25" d="M223.8,289.3c1.2,0.8,2.1,2,2.4,3.4c-0.6,0.1-1.2,0.3-1.6,0.1c-1.8-0.7-3.6-1.6-5.3-2.7
			c-9.2-6.4-18.2-12.8-27.4-19.2c-6.9-4.8-13.8-9.5-20.7-14.2c-0.4-0.3-0.7-0.6-1-0.9c0.7,0.1,1.4,0.3,2,0.5
			c3.7,2.1,7.5,4.3,11.1,6.6c5.4,3.4,10.8,7,16.3,10.4c0.9,0.5,1.8,0.8,2.8,1.1l0,0c0,1.1,0.7,1,1.4,1l0,0c0,1.1,0.7,1,1.4,1l0,0
			c0,1.1,0.7,1,1.4,1l0,0c0,1.1,0.7,1,1.4,1l0,0c0,1.1,0.7,1,1.4,1l0,0c0,1.1,0.7,1,1.5,1l0,0c0,1,0.7,1,1.5,1l0,0c0,1,0.7,1,1.5,1
			l0,0c0,1.1,0.7,1,1.4,1l0,0c0,1.1,0.7,1,1.4,1l0,0c0.5,1.7,1.8,2.3,3.4,2.4l0,0c0,1.3,0.9,1.5,1.9,1.5l0,0l0.5,0.5l0,0l0.5,0.5
			l0,0H223.8z"/>
		<path class="st26" d="M202.5,274.4c-1-0.3-1.9-0.6-2.8-1.1c-5.4-3.5-10.8-7-16.3-10.4c-3.6-2.3-7.4-4.4-11.1-6.6
			c-0.6-0.3-1.3-0.5-2-0.5l0,0c0-1-0.7-1-1.4-1l0,0c0-1-0.7-1-1.4-1l0,0c0-1-0.7-1-1.4-1l0,0c-0.2-1.4-1.3-1.4-2.3-1.5l0,0
			c-0.1-1-0.7-1-1.4-0.9l0,0c0-1-0.7-1-1.4-0.9l0,0c-0.1-1-0.7-1-1.4-1l0,0c0-1-0.8-1-1.5-1c-0.1,0-0.2,0-0.3-0.1l-0.5-0.4l0,0
			c-0.1-1-0.7-1-1.4-0.9l0,0c-0.1-0.9-0.7-1-1.4-0.9l0,0c-0.1-1-0.8-1-1.5-1c-0.1,0-0.2-0.1-0.3-0.1l-0.5-0.4l-0.9-0.6l-0.6-0.4
			c-0.2,0-0.3-0.1-0.4-0.2l-0.4-0.3l-0.1-0.1l-0.5-0.4l0,0l-0.9-0.5l0,0l-0.6-0.4l-13.8-8.7l0.5-0.5c8.2,4.8,16.4,9.5,24.6,14.3
			c14.7,8.7,29,18,43.1,27.6C202,273.7,202.3,274.1,202.5,274.4z"/>
		<path class="st12" d="M133.9,231.7l-0.5,0.5l-6.2-3.8l0.2-0.4C129.7,228.9,131.9,230.2,133.9,231.7z"/>
		<path class="st26" d="M220.3,286.4c-1.6-0.1-2.9-0.7-3.4-2.4C218.3,284.4,219.4,285.2,220.3,286.4z"/>
		<path class="st25" d="M163.6,251.4c1.1,0,2.1,0.1,2.3,1.5L163.6,251.4z"/>
		<path class="st26" d="M222.1,287.9c-1,0-1.9-0.2-1.9-1.5L222.1,287.9z"/>
		<path class="st25" d="M155.5,246.1c0.7,0,1.4,0,1.4,0.9L155.5,246.1z"/>
		<path class="st25" d="M157.7,247.6c0.7,0,1.5-0.1,1.5,1L157.7,247.6z"/>
		<path class="st25" d="M159.3,248.5c0.7-0.1,1.4,0,1.4,1L159.3,248.5z"/>
		<path class="st25" d="M160.7,249.5c0.7-0.1,1.4,0,1.4,0.9L160.7,249.5z"/>
		<path class="st25" d="M162.2,250.4c0.7,0,1.4,0,1.4,0.9L162.2,250.4z"/>
		<path class="st26" d="M214,282.1c-0.7,0.1-1.5,0.1-1.5-1L214,282.1z"/>
		<path class="st25" d="M166,252.9c0.8-0.1,1.4-0.1,1.4,1L166,252.9z"/>
		<path class="st25" d="M167.4,253.8c0.7-0.1,1.4-0.1,1.4,1L167.4,253.8z"/>
		<path class="st25" d="M168.9,254.8c0.7-0.1,1.4-0.1,1.4,1L168.9,254.8z"/>
		<path class="st26" d="M203.9,275.4c-0.8,0.1-1.5,0.1-1.4-1L203.9,275.4z"/>
		<path class="st26" d="M205.4,276.3c-0.8,0.1-1.5,0.1-1.4-1L205.4,276.3z"/>
		<path class="st26" d="M206.8,277.3c-0.8,0.1-1.5,0.1-1.4-1L206.8,277.3z"/>
		<path class="st26" d="M208.3,278.2c-0.8,0.1-1.5,0.1-1.4-1L208.3,278.2z"/>
		<path class="st26" d="M209.7,279.2c-0.8,0.1-1.5,0.1-1.4-1L209.7,279.2z"/>
		<path class="st26" d="M211.1,280.2c-0.7,0.1-1.5,0.1-1.5-1L211.1,280.2z"/>
		<path class="st26" d="M212.6,281.1c-0.7,0.1-1.5,0.1-1.5-1L212.6,281.1z"/>
		<path class="st26" d="M215.4,283c-0.8,0.1-1.5,0.1-1.4-1L215.4,283z"/>
		<path class="st26" d="M216.9,284c-0.8,0.1-1.5,0.1-1.4-1L216.9,284z"/>
		<path class="st25" d="M152.5,244.2c0.7,0,1.5-0.1,1.5,1L152.5,244.2z"/>
		<path class="st25" d="M154,245.2c0.7,0,1.4,0,1.4,0.9L154,245.2z"/>
		<path class="st25" d="M147.8,241.3l0.9,0.5L147.8,241.3z"/>
		<path class="st25" d="M147.2,240.9l0.6,0.4L147.2,240.9z"/>
		<path class="st25" d="M156.9,247.1l0.5,0.4L156.9,247.1z"/>
		<path class="st25" d="M151.6,243.7l0.5,0.4L151.6,243.7z"/>
		<path class="st25" d="M150.1,242.7l0.6,0.4L150.1,242.7z"/>
		<path class="st26" d="M222.6,288.3l-0.5-0.5L222.6,288.3z"/>
		<path class="st26" d="M223.1,288.8l-0.5-0.5L223.1,288.8z"/>
		<path class="st26" d="M223.8,289.3l-0.8-0.5L223.8,289.3z"/>
		<path class="st25" d="M149.3,242.2l0.4,0.3L149.3,242.2z"/>
		<path class="st25" d="M148.7,241.8l0.5,0.4L148.7,241.8z"/>
		<path class="st25" d="M214.7,306.1c2.1,1.8,4.3,3.5,6.4,5.3c1.1,0.9,1.6,2.4,1.3,3.8c-0.8-0.4-1.6-0.8-2.3-1.3
			c-7.7-6.1-15.4-12.3-23.1-18.4c-0.3-0.3-0.5-0.6-0.8-0.9c0.5,0.1,1.1,0.2,1.6,0.4c2.6,1.7,5.1,3.5,7.7,5.2c2.2,1.4,4.1,3.3,6.6,4
			l0,0l0.5,0.5l0,0l1.5,1l0,0L214.7,306.1z"/>
		<path class="st26" d="M212.1,304.2c-2.6-0.7-4.5-2.6-6.6-4c-2.6-1.7-5.1-3.5-7.7-5.2c-0.5-0.2-1-0.4-1.6-0.4l0,0l-0.6-0.5
			c-3.5-2.7-7-5.5-10.5-8.2c-3.8-3-7.6-6-11.4-9.1l0.6-0.6c5.5,4,11,7.9,16.5,11.9c5.9,4.3,11.8,8.6,17.8,13
			C209.7,302,210.9,303.1,212.1,304.2z"/>
		<path class="st12" d="M174.2,276.3l-0.6,0.6l-11-8.7l0,0c1,0.6,2.1,1.1,3,1.8C168.5,272,171.4,274.2,174.2,276.3z"/>
		<path class="st10" d="M162.6,268.2l-1.8-1l0.3-0.5L162.6,268.2L162.6,268.2z"/>
		<path class="st26" d="M214,305.6l-1.5-1L214,305.6z"/>
		<path class="st25" d="M195.6,294.1l0.6,0.5L195.6,294.1z"/>
		<path class="st26" d="M212.6,304.6l-0.5-0.5L212.6,304.6z"/>
		<path class="st26" d="M214.7,306.1l-0.7-0.5L214.7,306.1z"/>
		<path class="st25" d="M187.3,254.7c2.2,1.3,4.4,2.6,6.5,4.1c0.8,0.7,1.6,1.5,2.3,2.3c-1.2,0.6-2.6,0.4-3.6-0.5
			c-8.3-5.4-16.6-10.9-24.8-16.3c-0.9-0.6-1.8-1.3-2.6-2c0.8,0.2,1.6,0.4,2.4,0.8c3.1,1.9,6.1,3.9,9.3,5.7c1.5,0.8,2.7,2.3,4.6,2.1
			l0,0c0,1.1,0.7,1,1.4,1l0,0l0.9,1h0.5l0,0l1,0.5l0,0l0.5,0.5l0,0C186,254.5,186.7,254.8,187.3,254.7z"/>
		<path class="st26" d="M181.4,250.9c-1.9,0.2-3.2-1.3-4.6-2.1c-3.2-1.8-6.2-3.8-9.3-5.7c-0.8-0.4-1.6-0.6-2.4-0.8l0,0
			c0-1-0.8-1-1.5-1c-0.1,0-0.2-0.1-0.3-0.2l-0.5-0.4l-0.9-0.6l-1.2-0.8l-12.8-8.2l0.5-0.5c8,4.8,16.1,9.5,24.1,14.3
			C175.5,246.8,178.4,248.9,181.4,250.9z"/>
		<path class="st12" d="M148.3,230.7l-0.5,0.5l-8.5-5.3l0.2-0.4C142.5,227.1,145.5,228.8,148.3,230.7z"/>
		<path class="st26" d="M182.8,251.9c-0.7,0-1.5,0.1-1.4-1L182.8,251.9z"/>
		<path class="st25" d="M163.5,241.3c0.7,0,1.5-0.1,1.5,1L163.5,241.3z"/>
		<path class="st18" d="M187.3,254.7c-0.7,0.2-1.5-0.3-1.7-1C186.2,254.1,186.8,254.4,187.3,254.7z"/>
		<path class="st26" d="M183.8,252.9l-0.9-1l0.9,0.5C183.8,252.5,183.8,252.7,183.8,252.9z"/>
		<path class="st25" d="M160.6,239.4l1.2,0.8L160.6,239.4z"/>
		<path class="st18" d="M185.2,253.3l-1-0.5L185.2,253.3z"/>
		<path class="st18" d="M183.8,252.9c0-0.2,0-0.3,0-0.5l0.5,0.4L183.8,252.9z"/>
		<path class="st18" d="M185.7,253.8l-0.5-0.5L185.7,253.8z"/>
		<path class="st25" d="M162.7,240.8l0.5,0.4L162.7,240.8z"/>
		<path class="st27" d="M147.5,184.5c0.8,4.3,3.2,8.2,6.7,10.9c-4.4,2.1-7,5.7-9.5,9.4c-1.2-3-2.5-6-3.7-9c-0.2-0.5-0.4-1-0.7-1.5
			c2.1-1.3,3.7-3.1,4.9-5.3C145.9,187.6,146.7,186.1,147.5,184.5z"/>
		<path class="st28" d="M147.5,184.5c-0.8,1.5-1.5,3.1-2.4,4.6c-1.1,2.1-2.8,4-4.9,5.3c0.2,0.6,0.4,1,0.7,1.5c1.3,3,2.5,6,3.7,9
			c-0.1,0.4-0.3,0.7-0.6,1.6c-1-4.9-3.6-9.3-7.4-12.5c5.8-2.5,8.1-7.6,10.5-12.9C147.3,182.2,147.4,183.4,147.5,184.5z"/>
		<path class="st27" d="M247.2,225.3c1,1.6,2,3.2,3.2,4.7c1.6,1.7,3.5,3.2,5.4,4.9c-4.1,3.3-5.8,8.1-6.5,13.9l-2.3-3.5
			c0-0.5-0.1-0.9-0.2-1.4c-1.1-2-2.6-3.8-4.4-5.3c-0.4-0.3-0.8-0.7-1.2-1.1c0.9-1.1,1.7-1.9,2.4-2.9
			C245.8,231.8,246.5,228.6,247.2,225.3z"/>
		<path class="st28" d="M247.2,225.3c-0.8,3.3-1.4,6.6-3.5,9.3c-0.7,0.9-1.5,1.8-2.4,2.9c0.4,0.4,0.8,0.7,1.2,1.1
			c1.8,1.5,3.3,3.3,4.4,5.3c0.2,0.4,0.2,0.9,0.2,1.4c-2.6-3.3-5.9-6-9.7-7.8c2.5-1.6,4.5-3.9,5.9-6.5c1.2-2.5,2.1-5.1,3.1-7.8
			C246.7,223.9,246.9,224.6,247.2,225.3z"/>
		<path class="st27" d="M172.5,150.2c0.3,4.1,2.3,8,5.5,10.7c-4.1,1.9-6.7,5.1-9.1,8.6c-0.3-4.2-2.1-7.9-4.3-11.5
			C167.9,156,170.5,153.3,172.5,150.2z"/>
		<path class="st28" d="M172.5,150.2c-2,3.2-4.7,5.8-7.9,7.7c2.2,3.6,4,7.3,4.3,11.5c-0.2,0.3-0.3,0.7-0.7,1.3
			c-1.2-5.2-2.9-9.7-6.6-13.2c6.9-4.3,6.7-4.4,10.5-9.8L172.5,150.2z"/>
		<path class="st19" d="M205.7,234.2c-5.5-3-11.1-6-16.6-9.1c-3.6-2-7.1-4.2-10.7-6.4l0.5-0.4c9.6,4.3,18.7,9.4,27.3,15.5
			L205.7,234.2z"/>
		<path class="st12" d="M179,218.3l-0.5,0.4l-2.7-1.6l0.2-0.4L179,218.3z"/>
		<path class="st10" d="M205.7,234.2l0.5-0.4l1.9,1.2l-0.2,0.4L205.7,234.2z"/>
		<path class="st27" d="M116.2,283c0.9,1.6,1.7,3.3,2.6,4.8c0.6,0.9,1.3,1.8,2.1,2.6l-5.2,5.2c-1.1-2-2.3-4-3.4-5.9L116.2,283z"/>
		<path class="st26" d="M116.2,283l-3.9,6.7c1.1,2,2.3,3.9,3.4,5.9c-0.2,0.7-0.4,1.3-0.6,1.9l-5.3-7.9c2.8-1.9,4.7-4.8,6.2-8.2
			L116.2,283z"/>
	</g>
</g>
</svg>
