<?xml version="1.0" encoding="utf-8"?>
<!-- Generator: Adobe Illustrator 24.1.2, SVG Export Plug-In . SVG Version: 6.00 Build 0)  -->
<svg version="1.1" id="Layer_1" xmlns="http://www.w3.org/2000/svg" xmlns:xlink="http://www.w3.org/1999/xlink" x="0px" y="0px"
	 viewBox="0 0 491.8 491.8" style="enable-background:new 0 0 491.8 491.8;" xml:space="preserve">
<style type="text/css">
	.st0{fill:#9E606E;}
	.st1{fill:#150B2C;}
	.st2{fill:#190F30;}
	.st3{fill:#834564;}
	.st4{fill:#9D606E;}
	.st5{fill:#824564;}
	.st6{fill:#282579;}
	.st7{fill:#7C77D1;}
	.st8{fill:#9C5F6D;}
	.st9{fill:#A187CB;}
	.st10{fill:#A683AC;}
	.st11{fill:#7E4362;}
	.st12{fill:#7975CE;}
	.st13{fill:#A17F94;}
	.st14{fill:#9793DB;}
	.st15{fill:#56529E;}
	.st16{fill:#A59ADA;}
	.st17{fill:#A68599;}
	.st18{fill:#A99FE1;}
	.st19{fill:#A68499;}
	.st20{fill:#1A0D2D;}
	.st21{fill:#190C2C;}
	.st22{fill:#1C0E2E;}
</style>
<g>
	<path class="st0" d="M389.9,334.9c-3.7,0.3-7.4,1.4-10.8,3c-2.3,1.1-4.6,2.2-6.9,3.3c-3.4,1.6-7,3.2-10.4,4.8
		c-1.1,0.6-2.5,0.5-3.5-0.3c-3.4-2-7.2-3.2-11.1-3.4c-6-0.5-11.7,0.7-17.4,2.6c-6.3,2.1-12.6,4.4-19.4,4.9c-2,0.1-4,0.3-6,0.5
		c-3,0.3-5.9,0.8-8.8,1.1c-1.1-2-2-4.1-3.3-6c-3.8-5.5-9-9.2-14.8-12.3c-3-1.6-6-3.3-8.8-4.8c-0.6-2.9-1.1-5.7-1.6-8.5
		c1-0.8,2-1.6,3-2.4c1.5-1,1.9-2.9,1.1-4.5c-1.6-3.9-3.1-7.9-4.7-11.8c-0.1-0.5-0.3-1-0.3-1.4l0.3-0.6c1.1,2,2.4,0.8,3.5,0.6
		c1.7-0.2,1.7-1.9,2-3.2l0.3-1.3c0.8,1.7,0.6,3.4,2.4,3.8c1.5-1,1.5-2.6,1.7-4c0.2-3,0.8-6.2,0.2-9c-0.7-3.4-2.5-6.5-3.9-9.7
		c-0.6-1.7-1.4-3.4-2.5-4.8c-2.4-2.8-4.9-5.5-7.5-8c-0.9-0.9-1.8-2.4-3.6-1.8c-0.2,0.1-0.7-0.3-1-0.5c-5.9-3.7-12.3-6.4-18.5-9.4
		c-2.2-1-4.4-2.2-6.5-3.6c-5.8-3.9-11.4-7.9-17.1-11.9c-0.5-0.3-1-0.7-1.4-1c0.4-1.1,0.6-2.2,0.6-3.4c-0.3-1.2-0.7-2.3-1.3-3.3
		c1-0.9,2.3-1.9,3.3-3c1.1-1.2,2.6-1.7,4.2-1.6c3.2,0.2,6.4-0.2,9.5-1.2c1-0.2,1.7-1,1.8-1.9c0.5-3.2,1.1-6.4,0.6-9.7
		c-0.4-1.2,0-2.6,1-3.4c0.7-0.7,1.3-1.4,1.9-2.1c1.4-1.8,1.4-2.2-0.5-3.6c-1.3-1-2.5-1.9-3.9-3c3.3-2,3.5-5.1,3.2-7.9
		c0.9-0.8,1.7-1.7,2.3-2.7c1.9-4.1,1.3-7.8-1.7-11.3c-0.8-1.1-2.4-1.4-3.5-0.6c0.1,0.4,0.2,0.9,0.3,1.3c0.1,1.1,0.2,2.2,0.1,3.3
		c-0.1,1-0.9,1.2-1.7,0.5c-0.2-0.2-0.4-0.5-0.6-0.7c-1.9-1.8-3.8-3.6-5.8-5.3c-0.9-0.5-1.8-0.9-2.8-1.1c-0.9-0.3-1.8-0.5-2.7-0.9
		c-1.7-0.9-3.7-1.2-5.6-0.8c-0.4,0.1-0.8,0.1-1.2,0.1c-3.2-0.9-6.6,0-8.9,2.3c-0.8-1.2-0.6-2.9,0.5-3.9c0.3-0.3,0.2-1,0.3-1.5
		c-0.5-0.1-1.2-0.4-1.5-0.2c-0.9,0.4-1.8,1-2.5,1.7c-1.7,1.7-2.9,3.6-2.4,6.1c-8.3,0.4-9.9,2.5-9.7,9.4c-0.8,0.5-1.6,0.9-2.4,1.5
		c-1.5,1-2.5,2.3-2,4c0.6,2.2,1,4.5,1,6.9c0,1.6,1,3.2,1.5,4.9l-2.6-0.3l3,5.6c-1.4,0.1-2.2-1.7-3.6-0.7c-0.4,5.9,3.4,10.2,10.2,12
		c-2.1,0.3-4.2,0.7-6.3,1.4c-2.2,1-4.2,2.1-6.2,3.4l-3-1.7c0.2-0.4,0.4-0.6,0.5-1c2.1-4.2,3.8-8.7,3.6-13.5c-0.1-2.7-0.7-5.3-1-8
		c-0.2-0.7-0.2-1.4-0.2-2.1c0.6-2.8,0.9-5.7,1-8.5c0.2-1.6-0.2-3.3-1.2-4.6c-1.7-2.2-3.6-4.2-5.6-6.4c3.6-2.7,6-6.5,8.1-10.5
		c3-5.9,5.9-11.8,7.4-18.3c0.9-4.3,2.1-8.6,3.5-12.9c1.3-3.9,3.3-7.6,5-11.4c1.1-2,1.6-4.4,1.3-6.7c-0.3-2-1-4-1.6-6
		c1.5-0.6,3.3-1.2,5.1-2c8.5-3.8,15-9.6,17.5-19c0.2-0.6,0.5-1.1,0.9-1.6c2.8-2.8,5.6-5.7,8.6-8.3c7.8-6.7,15.8-13.1,23.7-19.7
		c1-0.7,2-1.6,2.8-2.6c1.3-1.8,2.5-3.7,3.4-5.7c0.9-2.3,0.6-4.8-0.8-6.8c-2.1-3.5-5-5.5-9.2-5.2c-0.5,0-1,0-1.4-0.1
		c-4.8-1.3-9.7-2.6-14.5-3.9c-1.7-0.6-3.5-1-5.3-1.2c-5.6-0.3-11.2-0.5-16.8-0.5c-3.2,0.1-6.4,0.3-9.5,0.8c-4,0.7-7.8,2.2-11.2,4.5
		c-3.8-1.8-7.9-2.6-12.1-2.5c-4.5,0-8.8,1.2-13.1,2.5c-8.4,2.4-16.1,6.4-23.7,10.7c-3.9,2.2-7.8,4.3-11.8,6.4
		c-3.5,1.7-6.6,3.9-9.3,6.7c-2.2,2.3-4.2,4.8-6.3,7.2c-5.4,6.2-9.6,13.4-12.5,21.1c-0.3,1-1,1.8-1.9,2.3c-5.6,3-10.5,7.3-14.1,12.5
		c-2.4,3.4-4.4,6.8-5,11c-0.5,3-1.1,6-1.8,8.9c-1.3,4.8-3.4,9.5-6,13.8c-4.8,8-5.8,16.8-4.8,25.9c0.2,1.9,0.6,3.9,1,5.9
		c-1.3,0.8-2.6,1.8-4,2.5c-6,3.3-7.9,8.9-8.4,15.2c-0.5,6,1.2,11.7,2.4,17.5c0.7,3.3,0.9,6.7,0.6,10c-0.3,3.2-0.9,6.3-1.6,9.4
		c-1,4.8-2.2,9.6-3.4,14.4c-0.6,2.7-0.5,5.6,0.4,8.2c0.4,1.2,0.3,2.5-0.5,3.6c-1.6,2.5-2.2,5.5-1.8,8.4c0.2,1.4,0.5,2.8,0.8,4.2
		c1.4,7.3,4.8,13.8,8.2,20.3c3.6,7.1,7.3,14.2,9.8,21.8c1.4,4.6,2.8,9.1,4.4,13.6c2.6,7.1,5.7,13.9,9.3,20.4
		c5.1,9.4,11.2,18.1,19.3,25.1c3.9,3.3,8.4,5.6,13.7,5.3c2.1-0.2,4.2-0.5,6.3-0.9c0.2,0.3,0.3,0.5,0.4,0.8c1.1,3.8,2,7.6,3.1,11.3
		c1.2,4.4,3,8.6,5.4,12.5c1.5,2.4,3.3,4.6,6.3,5.1c1.2,0.2,2.3,0.5,3.5,0.7c9.4,1.2,18.9,1.5,28.4,0.8c3-0.3,6-0.7,8.8-1
		c1,2.2,2.1,4.4,3.4,6.5c2.6,3.9,5.4,7.8,8.4,11.4c3.9,4.6,8.4,8.6,14.7,9.7c1.9,0.4,3.9,0.6,5.9,0.7c5.1-0.2,10.2-0.3,15.3-0.9
		c5.5-0.5,11-0.4,16.4,0.4c5.7,0.7,11.3,0.4,16.5-2.2l2.5-1.3c2.7,0.9,5.1,1.9,7.7,2.5c4.2,1,8.4,1.7,12.7,2.4
		c4.8,0.8,9.5,1.1,14.1-0.9c1.7-0.7,3.4-1.5,5-2.3c3.9-2.1,8-3.6,12.2-4.7c5-1.2,10-2.5,15-4c6.6-1.7,13-4.4,18.9-7.9
		c2.3-1.2,4.4-3,6-5.1c0.5-0.6,1.2-1,1.9-1.3c2.1-0.8,4.1-1.7,6-2.8c2.4-1.6,4.6-3.4,6.8-5.3c7.4-6.1,13.8-13.4,19-21.4
		c3-4.9,5.7-10,7.9-15.3c2.8-6.3,4-12.6,2.5-19.5C399.5,337.5,395.6,334.3,389.9,334.9z"/>
	<path class="st0" d="M313.7,272.9c1.4,0.9,3,1.5,4.3,2.6c8.2,6.9,14.8,15.6,19.2,25.4c3.9,8.6,6.6,17.8,8.1,27.1
		c0,1.3,0.8,2.5,1.9,3.1c0.7-1,1.1-2.2,1.1-3.4c0.3-5.5,1.6-10.9,3.7-16c3.2-7.8,7.4-15,13.8-20.7c4-3.5,8.2-6.8,12.4-10.1
		c1.9-1.5,3.8-3.2,6.7-2.4c0.1,0,0.1,0,0.2,0c0.8,0,1.5-0.6,1.5-1.4c0-0.5-0.5-1-0.8-1.5c-0.2-0.2-0.5-0.3-0.8-0.5
		c-5.2-2.8-9.8-6.4-13.7-10.8c-11.8-13.2-18.6-28.8-22.1-46c-0.6-3.1-0.9-6.3-1.3-9.4c-0.1-1-0.3-1.5-1.5-1.1
		c-0.2,2.2-0.3,4.5-0.5,6.6c-0.6,6.2-1.2,12.5-2,18.7c-0.7,5.1-2.5,10.1-5.1,14.5c-3.4,5.8-7.9,10.9-13.3,15
		c-3.9,3-8.1,5.7-13.2,6.3c-0.7,0.2-1.4,0.4-2,0.7C310.9,271.7,312.6,272.1,313.7,272.9z"/>
	<path class="st0" d="M258.4,85.5c-1.5-0.3-1.6,0.6-1.6,1.4c0,5.4-1.3,10.6-2.5,15.8c-2.3,9.9-5.7,19.3-12.7,26.9
		c-3.5,3.8-7.3,6.9-12.6,7.6c-0.7,0.1-1.6,0.2-1.5,1.1c0.2,0.7,0.6,1.2,1.2,1.6c0.6,0.2,1.2,0.3,1.9,0.2c0.7,0,1.4,0,2.1,0.2
		c6.7,2.4,12.6,6.8,16.8,12.6c2.4,3.6,4.2,7.5,5.4,11.7c1.7,6.1,2.8,12.4,3.3,18.8c0.1,1.3,0.3,2.5,1.6,3.1c1.1-0.8,1.2-1.9,1.3-3
		c0.5-4.7,0.8-9.4,1.7-14c1.5-7.6,5-14.8,10.1-20.6c4.6-5.2,10.2-8.9,17.5-9.2c1.2-0.1,1.8-0.5,1.9-2c-0.8-0.5-1.7-1-2.6-1.4
		c-3.3-1-6.4-2.6-9.2-4.5c-5.1-3.4-9.7-7.3-12.6-12.8c-0.9-1.8-1.8-3.7-2.5-5.7c-2.5-6.5-4.8-13.1-5.8-20.1
		C258.9,90.7,258.7,88.2,258.4,85.5z"/>
	<path class="st0" d="M76.5,53.4c0.7,0.1,1.4,0.4,2,0.7c5.1,2.5,9.3,6.6,12,11.7c2.1,3.9,2.7,8.1,2.9,12.5c0.1,1.3,0.2,2.5,1.8,3
		c0.9-1.1,1.2-2.5,0.9-3.8c-0.2-2.5,0.1-5.1,0.8-7.5c1.4-5.8,4.5-10.5,9.9-13.5c2.6-1.4,5.2-2.7,8.1-3c0.3-2.3,0.1-2.8-1.4-3
		c-4.3-0.6-7.6-3-10.3-6c-5.8-6.5-8.4-14.3-9.1-22.9c-0.1-1-0.1-2.4-1.3-2.4c-1.2,0-1,1.3-1.1,2.2c-0.4,3.2-0.7,6.5-1.1,9.7
		c-0.7,5.3-3,10.4-6.6,14.4c-1.7,2-3.8,3.4-6.3,4.2c-1.1,0.3-2.2,0.8-3.3,1.3C74.6,52.3,75.1,53.2,76.5,53.4z"/>
	<path class="st0" d="M430.6,304.8c-0.6-0.4-1.2-0.8-1.9-1c-2.3-0.7-4.5-1.7-6.4-3.2c-2.3-1.3-4.2-3.2-5.5-5.5
		c-2.3-4.5-4-9.2-3.9-14.4c0.1-0.5,0-1-0.1-1.4c-0.2-0.4-0.6-0.6-0.9-0.9c-0.3,0.3-0.6,0.6-0.8,1c-0.1,0.3,0,0.6,0,1
		c-0.1,3.9-0.9,7.8-2.3,11.4c-2.6,6.2-5.8,12-13.5,13.1c-0.2,0-0.4,0.2-0.6,0.3c-0.5,0.5-0.5,1.2,0,1.7c0.3,0.4,0.7,0.6,1.2,0.7
		c1.7,0.4,3.3,1.3,4.5,2.7c3.7,3.6,6.6,7.9,8.5,12.6c1.3,3.4,2.2,7,2.8,10.6c0.1,1.4,0.8,2.6,1.9,3.4c1.2-1.9,1.4-2.2,0.9-4
		c-0.6-2.7-0.5-5.4,0.5-8c0.8-2.4,1.6-4.8,2.7-7.1c2.4-5.1,6.1-8.9,11.5-10.7C430,306.5,430.9,306.1,430.6,304.8z"/>
</g>
<g id="Frame2">
	<path class="st1" d="M177.6,223.9l3,1.7c2-1.3,4.1-2.4,6.2-3.4c2.1-0.6,4.2-1.1,6.3-1.4c-6.7-1.8-10.5-6.1-10.2-12
		c1.4-1,2.2,0.8,3.6,0.7l-3-5.6l2.6,0.3c-0.6-1.7-1.5-3.3-1.6-4.9c0-2.3-0.4-4.6-1-6.9c-0.4-1.8,0.6-3.1,2-4c0.8-0.5,1.6-1,2.4-1.5
		c-0.2-6.9,1.5-9,9.7-9.4c-0.5-2.5,0.7-4.4,2.4-6.1c0.7-0.7,1.6-1.3,2.5-1.7c0.4-0.2,1,0.1,1.6,0.2c-0.1,0.5,0,1.2-0.3,1.5
		c-1.1,1-1.3,2.6-0.5,3.9c2.3-2.3,5.7-3.2,8.9-2.3c0.4,0,0.8,0,1.2-0.1c1.9-0.4,3.9-0.1,5.6,0.8c0.9,0.4,1.8,0.6,2.7,0.9
		c1,0.2,2,0.6,2.9,1.1c2,1.6,3.9,3.5,5.8,5.3c0.2,0.2,0.4,0.5,0.6,0.7c0.8,0.7,1.6,0.6,1.7-0.5c0.1-1.1,0-2.2-0.1-3.3
		c-0.1-0.5-0.1-0.9-0.3-1.3c1.1-0.8,2.7-0.5,3.5,0.6c3,3.5,3.6,7.2,1.7,11.3c-0.7,1-1.5,1.9-2.3,2.7c0.2,2.8,0.1,5.9-3.2,7.9
		c1.4,1.1,2.7,2,3.9,3c1.8,1.4,1.9,1.8,0.5,3.6c-0.6,0.8-1.2,1.5-1.9,2.1c-1,0.8-1.4,2.2-1,3.4c0.5,3.3-0.1,6.5-0.6,9.7
		c-0.1,1-0.9,1.7-1.8,1.9c-3.1,0.9-6.3,1.3-9.5,1.2c-1.6-0.1-3.1,0.4-4.2,1.6c-1,1.1-2.2,2.1-3.3,3c0.6,1.1,1,2.2,1.3,3.3
		c-0.1,1.1-0.3,2.3-0.6,3.4c0.4,0.3,0.9,0.7,1.4,1c5.7,4,11.3,8,17.1,11.9c2.1,1.4,4.2,2.5,6.5,3.6c6.3,3,12.6,5.7,18.5,9.4
		c0.3,0.2,0.8,0.6,1,0.5c1.8-0.6,2.6,0.9,3.6,1.8c2.6,2.5,5.2,5.2,7.5,8c1,1.5,1.9,3.1,2.5,4.9c1.4,3.2,3.2,6.4,3.9,9.7
		c0.6,2.9,0,6-0.2,9c-0.1,1.4-0.2,3-1.7,4c-1.8-0.4-1.7-2.1-2.4-3.8l-0.3,1.3c-0.3,1.3-0.3,3-2,3.2c-1.1,0.1-2.4,1.4-3.5-0.6
		l-0.3,0.6c0.1,0.5,0.2,1,0.3,1.4c1.5,3.9,3.1,7.9,4.7,11.8c0.8,1.5,0.4,3.5-1.1,4.5c-1,0.8-2,1.6-3,2.4c0.5,2.8,1.1,5.6,1.6,8.5
		c2.8,1.5,5.8,3.2,8.8,4.8c5.8,3.1,11,6.8,14.8,12.3c1.3,1.9,2.2,4,3.3,6c2.8-0.4,5.8-0.8,8.8-1.1c2-0.2,4-0.4,6-0.5
		c6.8-0.5,13.1-2.8,19.4-4.9c5.7-1.9,11.4-3.1,17.4-2.6c3.9,0.2,7.7,1.4,11.1,3.4c1,0.8,2.4,0.9,3.5,0.3c3.5-1.6,7-3.2,10.4-4.8
		c2.3-1.1,4.6-2.2,6.9-3.3c3.4-1.6,7-2.7,10.8-3c5.7-0.6,9.6,2.6,10.8,8.1c1.5,6.9,0.3,13.2-2.5,19.5c-2.2,5.3-4.9,10.4-7.9,15.3
		c-5.2,8.1-11.6,15.3-19,21.4c-2.2,1.9-4.4,3.6-6.8,5.3c-1.9,1.1-3.9,2-6,2.8c-0.7,0.3-1.4,0.7-1.9,1.3c-1.6,2.1-3.6,3.8-6,5.1
		c-5.9,3.5-12.3,6.2-18.9,7.9c-5,1.4-10,2.8-15,4c-4.3,1.1-8.4,2.6-12.2,4.7c-1.6,0.8-3.3,1.6-5,2.3c-4.6,2-9.4,1.6-14.1,0.9
		c-4.2-0.7-8.5-1.4-12.7-2.4c-2.5-0.6-5-1.6-7.7-2.5l-2.5,1.3c-5.3,2.6-10.8,2.9-16.5,2.2c-5.4-0.8-11-0.9-16.4-0.4
		c-5.1,0.6-10.2,0.7-15.3,0.9c-2,0-4-0.2-5.9-0.7c-6.3-1.1-10.8-5-14.7-9.7c-3-3.6-5.7-7.5-8.4-11.4c-1.3-2.1-2.4-4.3-3.4-6.5
		c-2.8,0.3-5.8,0.7-8.8,1c-9.5,0.7-19,0.4-28.4-0.8c-1.2-0.1-2.4-0.5-3.5-0.7c-3-0.6-4.8-2.8-6.3-5.1c-2.3-3.9-4.1-8.1-5.4-12.5
		c-1.1-3.7-2-7.5-3.1-11.3c-0.1-0.3-0.2-0.5-0.4-0.8c-2.1,0.4-4.2,0.7-6.3,0.9c-5.3,0.3-9.9-2-13.7-5.3c-8.1-7-14.2-15.7-19.3-25.1
		c-3.7-6.5-6.8-13.4-9.3-20.4c-1.6-4.5-3-9.1-4.4-13.6c-2.4-7.6-6.1-14.7-9.8-21.8c-3.3-6.5-6.8-13-8.2-20.3
		c-0.3-1.4-0.6-2.8-0.8-4.2c-0.5-2.9,0.2-5.9,1.8-8.4c0.7-1,0.9-2.4,0.5-3.6c-0.9-2.7-1.1-5.5-0.4-8.2c1.2-4.8,2.3-9.6,3.4-14.4
		c0.7-3.1,1.2-6.2,1.6-9.4c0.3-3.3,0.1-6.7-0.6-10c-1.2-5.8-2.9-11.5-2.4-17.4c0.6-6.3,2.4-11.9,8.4-15.2c1.4-0.8,2.7-1.7,4-2.5
		c-0.4-2.1-0.8-4-1-5.9c-1.1-9.1,0-17.9,4.8-25.9c2.6-4.3,4.7-8.9,6-13.8c0.8-2.9,1.4-5.9,1.8-8.9c0.6-4.2,2.6-7.7,5-11
		c3.6-5.2,8.5-9.5,14.1-12.6c0.9-0.5,1.6-1.3,1.9-2.3c2.8-7.7,7.1-14.9,12.5-21.1c2.1-2.4,4.1-4.9,6.3-7.2c2.7-2.7,5.8-5,9.3-6.7
		c4-2.1,7.9-4.2,11.8-6.4c7.6-4.3,15.3-8.3,23.7-10.7c4.3-1.2,8.6-2.5,13.1-2.5c4.2-0.1,8.3,0.8,12.1,2.5c3.4-2.3,7.2-3.8,11.2-4.5
		c3.2-0.5,6.3-0.7,9.5-0.8c5.6,0,11.2,0.2,16.8,0.5c1.8,0.2,3.6,0.6,5.3,1.2c4.9,1.3,9.7,2.6,14.5,3.9c0.5,0.1,0.9,0.2,1.4,0.1
		c4.2-0.3,7.1,1.7,9.2,5.2c1.4,2,1.7,4.6,0.8,6.8c-0.9,2-2.1,3.9-3.4,5.7c-0.8,1-1.7,1.9-2.8,2.6c-7.9,6.6-15.9,13.1-23.7,19.7
		c-3,2.6-5.8,5.5-8.6,8.3c-0.4,0.4-0.8,1-0.9,1.6c-2.5,9.4-9,15.2-17.5,19c-1.7,0.8-3.5,1.4-5.1,2c0.6,2,1.3,4,1.6,6
		c0.2,2.3-0.2,4.7-1.3,6.7c-1.7,3.8-3.6,7.5-5,11.4c-1.4,4.2-2.6,8.5-3.5,12.9c-1.5,6.5-4.4,12.4-7.4,18.3
		c-2.1,4.1-4.5,7.9-8.1,10.5c2,2.3,3.9,4.3,5.6,6.4c1,1.3,1.5,3,1.2,4.6c-0.1,2.9-0.4,5.7-1,8.5c-0.1,0.7,0,1.4,0.2,2.1
		c0.3,2.7,0.9,5.4,1,8c0.2,4.8-1.4,9.2-3.6,13.5C178,223.3,177.8,223.5,177.6,223.9z M218.3,367.5l-0.5,0.5l0,0l-0.7,1
		c-0.1,0.1-0.3,0.2-0.4,0.3c-4.8,5.9-9.7,11.8-14.5,17.6c-0.9,1.2-1.8,2.4-2.7,3.6c-0.8,0.7-1.6,1.5-2.3,2.4
		c-3,3.9-6.6,7.2-10.8,9.7c-0.4,0.3-0.8,0.6-1.2,0.9c0.2,0.4,0.3,0.8,0.5,1.1c1,2.7,3.1,4.6,4.9,6.7c3.3,3.8,6.4,7.7,9.9,11.4
		c3.2,3.5,7.7,5.4,12.4,5.3c4.7,0.1,9.4-0.1,14.1-0.6c7.3-0.9,14.5,0,21.7,0.3c2.5,0.2,5.1,0.3,7.6,0.3c1.7-0.1,3.3-0.7,4.6-1.7
		c2.1-1.8,4.1-3.8,5.9-5.9l1-0.9c0.4-0.4,0.8-0.7,1.2-1.1c4.3-5.2,8.2-10.8,11.5-16.7c4.9-8.9,8.5-18.6,10.6-28.6
		c0.4-1.6,0.6-3.3,0.6-5c0-4.3-0.3-8.6-0.5-12.9c-0.2-3.4-1.7-6.6-4.2-8.8c-0.4-0.6-0.8-1.2-1.3-1.7c-2.9-2.7-5.9-5.3-9.7-6.8
		l-1.1-0.5l0,0c-1.3-0.8-2.6-1.5-4-2.1c-5.9-2.6-12.2-4.2-18.7-4.9c-4.7-0.4-9.4-0.6-13.7,0.4c-1.3,4-2.3,7.9-3.9,11.5
		c-3.2,6.8-7.2,13.2-11.9,19.1c-1.4,1.9-2.8,3.8-4.1,5.8l0,0L218.3,367.5L218.3,367.5z M178,330.1l-0.6,0.5c-2.2,2.5-4.4,5-6.6,7.5
		c-4.9,5.7-10.3,10.9-16.1,15.7c-3.7,3.1-7.2,6.3-10.8,9.4c-4.7,3.3-8.8,7.5-14.5,9.5c0.3,1.1,0.5,2.1,0.9,3.1
		c1.2,3.2,2.4,6.4,3.7,9.6c1.5,3.9,2.8,7.8,5.1,11.3c1.5,2.3,3.2,3.9,6.1,3.9c5,0.1,10,0.4,15.1,0.5c3.7,0,7.3-0.1,11-0.4
		c3.9-0.3,7.8-0.9,11.6-1.5c2.1-0.4,4-1.4,5.4-3c2.8-3,5.5-6,8.2-9.1c4-4.7,7.9-9.5,11.7-14.2c7-8.7,14.1-17.4,19.8-27
		c4.4-7.3,6.8-15.6,6.9-24.1c0.1-1.1-0.2-2.2-0.9-3.1c-0.5-1.6-1-3.2-1.5-4.8l-0.6-1l0,0c-0.1-0.4-0.2-0.8-0.4-1.1
		c-2.1-4.6-5.5-8.5-9.9-11.1c-5.5-3.6-11.5-6.4-16.3-11.1c-0.2,0.1-0.3,0.1-0.3,0.2c-0.1,0.3-0.2,0.6-0.3,0.9
		c-0.9,5.5-3.5,10.2-6.6,14.7c-4.7,6.9-9.5,13.6-15.4,19.5c-1.3,1.4-2.5,2.9-3.7,4.3l0,0L178,330.1L178,330.1z M209.1,176.5
		c0-0.3-0.1-0.9-0.1-0.9c-1.3-0.1-2.5,0.6-3,1.9c0.1,1.4,1.3,1.2,2.2,1.7C208.5,178.2,208.8,177.4,209.1,176.5z M210.9,178l-0.8,1.8
		l2.6,0.9l1.8-4.1l1.4-0.7l-0.5-0.5C213.5,175.2,211.7,176.3,210.9,178L210.9,178z M209.7,186.6l-1,0.5c-0.4,0.3-0.7,0.6-1.1,0.9
		c-1.8,1.9-1.8,3.1-0.1,5.2c0.5,0.6,1.1,1.2,1.6,1.8c1.4,1.5,1.3,3.7-0.2,5.1c-0.1,0.1-0.1,0.1-0.2,0.2c-0.2,0.2-0.5,0.4-0.9,0.7
		c1.6,0.7,3.5,0.2,4.5-1.3c1.1-1.4,1.8-2.9,0.9-4.6c-0.5-0.9-1.1-1.7-1.7-2.6c-1.4-2.3-1-3.7,1.7-4.5c1.2-0.3,2.5-0.4,3.8-0.4
		c0.7,0.2,1.4,0.7,2.2,0c-0.4-1-1.3-1.6-2.4-1.8C214.4,185.1,211.8,185.4,209.7,186.6L209.7,186.6z M215.4,178.9l-0.3,0.5
		c-0.1,2.8,0.3,3.7,2.1,4.3l5.1-3.6l1.3-0.5c-0.7-1.2-1.9-2.1-3.3-2.5C218.1,176.4,216.7,176.9,215.4,178.9L215.4,178.9z
		 M262.9,322.9l-5.8,3l0.1,0.3l6.2,0.6l1.9,0.6c-0.4-2-0.8-3.5-1.1-5.4L262.9,322.9z M202.4,184.7c-1.6,1.6-1.8,2.2-1.5,3.9
		c0.3,1,0.7,1.9,1.1,2.8c1,2,0.6,4.1-1.4,5.2c-0.9,0.5-1.9,0.8-2.9,1c-0.9,0.2-1.8,0.1-2.6,0.2c-1.7,0.3-2.1,1.1-1.4,2.8
		c0.5,1.1,1.2,2,1.8,3.1c1.2,1.6,0.9,3.9-0.6,5.2c-0.3,0.3-0.6,0.6-1,0.9c2.5,1.6,2.7,1.6,4.5,0.2c-3.5-5.8-2.5-9.8,4.6-11.2
		l-0.2-2.4c0.5,0.3,1,0.6,1.5,0.9c0.4,0.4,0.7,0.8,1.1,1.2c0.7,0.5,1.6,1,2.3,0c0.6-0.7,0.6-1.7-0.1-2.4c-0.6-0.7-1.3-1.4-1.9-2.1
		c-1.8-2.1-2.2-4,0.1-6.9c1-1.4,2.5-2.3,4.1-2.7c0.7-0.2,1.4-0.4,2-0.6l1.5-0.1c-2.8-2.9-7.3-3-10.2-0.2
		C203,183.9,202.7,184.3,202.4,184.7L202.4,184.7z M193.8,194.3l-3.4,0.9c-1.3,0.4-2.5,0.9-2.9,2.4c-0.8,1.9,0.1,3.3,1.7,4.1
		c1.2,0.6,1.6,2.1,1,3.3c-0.1,0.2-0.3,0.5-0.5,0.7c-0.6,0.7-1.4,1.2-2.3,2.1l3.2,1.4c0.1-1.4,0.2-2.4,0.4-4l2.3,1.9
		c1-1.1,1-1.1,0.4-2.2c-0.9-1.4-1.7-2.9-2.3-4.4c-0.9-3,0.4-4.9,3.5-5.4c1.2-0.2,2.4-0.2,3.6-0.4c1.9-0.4,2.5-1.4,1.5-3.1
		c-1-1.8-1.3-4-0.9-6l1.4-2c-3.6,0.6-4.9,1.9-4.8,5.3C195.9,190.9,195.2,192.9,193.8,194.3L193.8,194.3z M198.1,181.9l2-0.4
		c0.1,0,0.1-0.1,0.2-0.1c0-0.1,0-0.1,0-0.2c-0.6-0.2-1.2-0.7-1.7-0.6c-1.9,0.3-3.8,0.8-5.7,1.3c-1.2,0.3-1.9,1.6-1.6,2.8
		c0,0,0,0,0,0.1c0.6,2.6-0.7,5.2-3.1,6.3c-0.1-0.1-0.2,0-0.2,0.1l-0.6,0.4c-1.6,0.8-0.5,1.6-0.1,2.4c1.6-0.4,3-0.6,4.3-1
		c1.6-0.5,2.1-1.3,2.1-3c0-1.1,0.1-2.2,0.3-3.3C194.4,184.2,196.5,183.2,198.1,181.9L198.1,181.9z M199.1,222.2l-0.6-1.9
		c-1.3,1.2-2.9,2-2,4c1.5,3.3,3.3,6.2,7.4,6.5l2.6,1l2.4,0.9l0.2-0.4C204.8,230,201.3,226.5,199.1,222.2L199.1,222.2z M273.5,289.3
		c0.1,0.4,0.3,0.7,0.4,1.1c0.2,1.1-0.1,2.3,0.9,3.2c0.2-0.9,0.4-1.8,0.5-2.6c0.1-1.1,0-2.2-0.2-3.3c-0.5-1.7-1.1-3.3-1.8-4.9
		c-0.9-2.3-1.8-4.5-2.8-7.1l-0.9,1.5l-6.5,6.2c0.8,4.1,1.5,8.4,2.3,12.8c1.4-2.5-0.7-5.3,0.5-8.2c1.4,1.6,1,3.3,1.5,4.8l0.6,3.8h0.2
		v-3.8v-1.4l-0.3-0.6c0.3-1.1-0.6-2.5,1-3.6c0.6,3.4,0.9,6.8,0.9,10.2c1.8-3.8,0.6-7.6,1.1-11.2c1.8-0.4,1.4,1.4,2.1,1.9
		C273.2,288.3,273.4,288.8,273.5,289.3L273.5,289.3z M222.7,182c-1.5,0.4-2.8,1.6-3.3,3.1c3.2-1.1,4-1.3,5.9-0.5
		c1.2,0.5,2.3,1.1,3.3,1.8c0.8,0.4,1.4,1.1,2.2,1.4c2.8,1.4,4.6,0.5,5.2-2.7c0.5-1.3,0.3-2.7-0.4-3.9c-1.2,3.3-3,4.1-5.7,2.9
		c-0.4-0.2-0.8-0.4-1.2-0.8C227,181.9,224.8,181.4,222.7,182z M209.7,72l-0.5-1.2c-2.6-3.8-5.1-7.7-7.7-11.5c-1-1.4-2.1-2.8-3.2-4.1
		c-1-1.5-2-2.9-3.2-4.1c-3.4-3.2-7.6-5.4-12.2-6.2c-2.4-0.4-4.9-1.2-7.3-0.4c-7.9,2.4-15.7,4.8-23,8.8c-6.9,3.8-13.8,7.4-20.7,11.2
		c-2.8,1.5-5.4,3.5-7.5,5.9c-1.8,2.1-3.6,4.3-5.5,6.3c-4.2,4.6-7.2,10-9.9,15.5c-0.3,0.7-0.5,1.3-0.6,2l2.1-0.3
		c4.4-0.7,8.8-1.5,13.2-2.2c2.4-0.3,5-0.1,7.4-0.6c3.7-0.7,7.3,0.1,11,0.2c1.8,0.1,3.6,0.3,5.4,0.7c5.3,1.2,10.6,2.3,15.8,3.6
		c5.8,1.4,11.5,3.5,16.8,6.2c4.1,2.3,8,4.9,12.1,7.3c0.6,0.4,1.3,0.7,2,0.6c2-0.3,4.1-0.2,6-1.4l7.2-3.8c2.4-1.9,4.7-4,6.9-6.2
		c1.8-2.1,2.7-4.7,2.5-7.4c-0.3-6.9-2.8-13-6.5-18.7C210.2,72.1,209.9,72.1,209.7,72L209.7,72z M150.2,176.6l-2-0.5
		c-1.8-0.4-3.5-0.8-5.3-1.1c-5.5-1.1-11.2-1.7-16.8-1.7c-3.7,0.1-7.3,0.3-11,0.3c-3,0.1-6.1,0-9.1,0c-4.6-0.1-9.2,0.3-13.8,1.1
		l-1.4,0.4l0,0c-1.5,0.1-3,0.2-4.5,0.5c-5.9,0.8-11.7,2.6-17.1,5.3c-2.8,1.4-4.9,3.2-5.4,6.5c-0.2,0.6-0.4,1.2-0.6,1.8
		c-0.8,2.5-1,5.2-0.5,7.8c0.6,4.2,1.5,8.3,2.3,12.4c0.4,1.4,0.6,2.8,0.8,4.2c0.3,5.5-0.3,11-1.7,16.3c-1.4,5.2-2.5,10.5-3.7,15.8
		c-0.4,1.4-0.2,2.8,0.6,4c4.6-4.3,9.8-7.8,15.5-10.4c1.5-0.7,3-1.4,4.6-2.1c9.7-4.8,20-8.5,30.6-10.9c4.9-1.1,9.8-1.9,14.8-2.7
		c3.1-0.5,6.4-0.5,9.5-1.1c6.9-1,13.9-1.6,20.9-1.6c5.4-0.2,10.9,0.5,16.8,0.9l1.8-2.9c1.4-2.4,1.8-5.1,2.2-7.8
		c-0.3-2.6-0.4-5.2-0.9-7.8c-0.4-2.4-0.3-4.9,0.1-7.3c1.1-6.7-0.8-10.1-6-13.1c-0.2-0.1-0.4-0.2-0.6-0.3c-4.4-2.6-9.3-3.6-14.2-4.9
		C154,177.1,152.1,176.9,150.2,176.6L150.2,176.6z M265.3,317.6L265.3,317.6l3-2.8c-1.3-3.7-2.4-7.2-3.7-10.6
		c-3.3-8.8-7.3-17.4-11.9-25.6c-2.3-4-6.1-7-10.5-8.3c-1.9-0.6-3.7-1.3-5.6-1.9c-0.6-0.2-1.2-0.3-1.9-0.2c-2,0.4-4,0.9-5.9,1.7
		c-3.4,1.5-6.7,3.1-9.9,4.9c-4.7,2.6-8.6,6.4-11.6,10.9c0.2,0.3,0.4,0.5,0.7,0.7c4.2,2.7,8.4,5.5,12.7,8.1c3.8,2.3,7.7,4.7,10.5,8.1
		c4.3,5,6.8,11.3,7.2,17.9c0.1,2.1,0.4,4.2,0.6,6.3c0.5-0.3,1.1-0.5,1.7-0.6c2.9-0.5,5.8-0.9,8.7-1.5c5.4-0.9,10.4-3,14.9-6.2
		L265.3,317.6z M258.6,265.3c-3,3.2-4.1,7.2-4.3,11.4l7.8,3.9c3.1-1.6,4.3-2.8,6-6.1c0.7-0.9,0.1-1.5-0.4-2.1
		c-1.2-1.6-2.4-3.2-3.7-4.7s-2.5-2.6-3.9-4L258.6,265.3z M197.7,268.6L197.7,268.6c-0.7-2.1-1.4-4.2-2.2-6.3
		c-2.7-6.4-5.6-12.7-8.3-19.1c-1.8-4.4-4.1-8.7-6.8-12.6c-0.7-0.9-1.6-1.7-2.7-2.3c-5.9-3.1-12.4-3.3-18.9-3.3
		c-5.9,0-11.8,0.7-17.6,1.2c-5.1,0.5-10.3,1-15.4,1.7c-2.2,0.3-4.3,0.9-6.5,1.3c-0.4,0-0.8,0-1.2,0c-7.2,1.4-14.2,3.4-21.1,5.9
		c-3.6,1.4-7.2,3-10.8,4.5c-3.3,1.5-6.5,3-9.8,4.5c-5.6,2.5-10.6,6.3-14.5,11.1c-2.8,3.5-4.1,7.4-2.5,11.8
		c2.4,6.7,4.5,13.5,7.9,19.8c2.1,3.9,4.3,7.9,6,12c2.7,6.2,4.9,12.5,6.8,18.9c2.5,8,5.7,15.8,9.8,23.1c3.8,7.2,8.5,13.9,14.1,19.8
		c3.2,3.3,7.1,5.9,11.4,7.6c0.8,0.3,1.7,0.5,2.6,0.6c4.2,0.4,8.3-0.4,12-2.4c2-1,3.9-2.2,5.7-3.5c4.2-3.1,8.3-6.4,12.5-9.7
		c5.3-4,10.3-8.5,14.8-13.3c3.7-4,7.1-8.2,10.8-12.2c5.5-5.9,11-11.8,15.8-18.3c3-4.1,6.1-8.2,8.2-12.9c1.9-4.3,3.2-8.9,2.5-13.7
		c0.5-4.6-0.6-9-2.2-13.3L197.7,268.6z M223.6,83.5c1.6-1.5,3.2-3.1,4.9-4.6c7.8-6.5,15.7-13,23.5-19.4c1.5-1.2,2.7-2.8,3.5-4.5
		c0.9-1.6,0.7-3.5-0.6-4.8c-0.5-0.5-1-1.4-1.6-1.5c-4.1-1-8.2-1.8-12.3-2.7c-3.4-1.1-6.8-2.4-10.2-3.2c-3-0.6-6.1-0.9-9.2-1
		c-3.4-0.2-6.7-0.2-10.1,0c-3.1,0.1-6.2,0.5-9.2,1c-2.2,0.4-4.3,1.3-6.2,2.6c2,2,3.8,4,5.6,6.2c4.8,6.7,9.4,13.5,13.9,20.3
		c1.1,1.8,2,3.6,2.8,5.6c1.1,2.7,1.9,5.5,2.8,8.1L223.6,83.5z M226.3,194.7l-1.3,0.1l-0.9,0.3l-7.5,4.4c-0.4-1.1,0-2.4,0.9-3.1
		c2.6-2.8,5.5-4.7,9.8-3.9c-1.4-2.2-3.2-4.2-5.3-5.8c-1.1,3.3-1.5,3.6-4.8,3.7c-1.3-0.1-2.6,0.2-3.6,0.9c0.5,0.7,1,1.5,1.5,2.3
		c1.8,3.9,1.1,6.3-2.1,8.4c-2.1,1.6-4.9,1.7-7.1,0.2c-0.5-0.3-0.9-0.7-1.4-0.9c-1.3-0.7-3-0.4-3.9,0.8h0.1c-2,1-2.5,2.3-1.8,4.4
		c1.2,3.3,3.6,4.7,7.5,4.3c3.3,3,6.4,6,9.7,8.8c0.8,0.8,1.9,1.4,3,1.7c2.6,0.4,5.2,0.5,7.9,0.5c1.2,0,2.3-0.5,3.1-1.4
		c1.2-1.6,1.5-3.7,0.9-5.6c-6.3,0.2-6.6,0.2-8.3-1.6h8.7c-0.1-1.3-0.2-2.3-0.3-3.3s-0.5-1.9,0.4-2.7l3.1-3c-1-0.9-1.8-1.6-2.5-2.2
		s-1.6-1.5-2.4-2.2c-0.9-0.7-1.4-1.7-1.4-2.9c0-1.1-0.2-2.2-0.4-3.3l-0.5-0.1L226.3,194.7z M363.5,352.7c0.6,2.7,1.3,5.4,2,8.1
		c1.2,5.8,1.9,11.7,2,17.7c0.1,3.9-0.2,7.8-0.9,11.6c-0.3,0.5-0.5,0.9-0.7,1.5c-0.9,4-2.6,7.7-5,11c-0.1,0.2-0.2,0.5-0.2,0.7
		c2.2-1.4,4.3-3,6.3-4.9c7.4-6.8,13.9-14.5,19.3-23c3.6-5.8,6.5-11.9,8.7-18.3c1.6-4.4,1.7-9.1,0.3-13.6l-1.1-2.4
		c-1.6-1.7-3.7-1.8-5.7-1.3c-2.3,0.5-4.6,1.2-6.8,2.1c-5.7,2.3-11.4,4.8-17.1,7.2l-2.2,0.9C362.8,350.9,363.2,351.8,363.5,352.7
		L363.5,352.7z M199.1,232.6c-3.5-1.1-7.3-0.1-9.8,2.5c1.8,6.1,4.1,12,7,17.6c2.1-1.2,4.2-2,6.4-1.3c3.4,1.1,6.9,2.1,10.2,3.4
		c3.1,1.3,5.9,3.2,8.9,4.5c5.1,2.1,10.1,4.6,15.5,6.2c5.4,1.5,10.3,4.3,14.3,8.2c1.3-2.8,2.5-5.5,3.7-8.3l1.6-1.9
		c-0.4-0.3-0.7-0.5-1.1-0.8l-13.9-6.9c-3.4-1.7-7-3-10.2-5.3c-6.1-4.4-12.4-8.8-18.8-12.8C208.6,235.3,204,233.5,199.1,232.6z
		 M348.6,347.3c-1.1-0.3-2.1-0.5-3.2-0.6c-5-0.2-9.6,1.1-14.3,2.7c-9.6,3.3-19.4,5.9-29.7,5.4c-1.5,0-3.1,0.1-4.6,0.2
		c-0.1,0.2-0.1,0.3-0.1,0.5c0,0.3,0.1,0.6,0.1,0.9c1.1,4.8,0.9,9.9-0.4,14.7c-2.3,8.3-4.4,16.7-7.8,24.6c-2.4,4.4-4.9,8.8-7.3,13.2
		c-0.1,0.2-0.2,0.4-0.2,0.7c-0.3,0.2-0.5,0.4-0.7,0.6c-3.4,5.3-7.3,10.3-11.6,14.9c-0.2,0.4-0.4,0.8-0.6,1.2l4.5,0.6
		c2.1,0.3,4.3,0.5,6.4,0.8c2.8,0.4,5.6,1.2,8.5,1.4c2.4,0.2,4.9,0.9,7.3,0.1c2.3-0.8,4.5-1.7,6.7-2.6c3.5-1.5,6.9-3.3,10.6-4.4
		c5.5-1.7,11.3-2.9,16.9-4.5c6.6-1.8,13-4,18.8-7.6c1.8-1,3.4-2.4,4.6-4.1c1.4-2.2,3-4.3,4.5-6.5c3.2-4.8,5-10.4,5.3-16.2
		c0.3-4.5-0.1-9.1-0.3-13.6c-0.2-5.5-2.1-10.6-3.2-15.9c-0.4-2.2-1.9-3.9-4-4.8C352.9,347.7,350.7,347.4,348.6,347.3L348.6,347.3z
		 M183.3,157.6c0.4-0.7,0.7-1.4,1-2.2c1.1-4,2.2-8,3.2-12c1-4.7,2.6-9.2,4.8-13.4c1.6-2.9,2.5-6,2.8-9.3c0.3-2.1-0.5-4.1-2.2-5.4
		c-5.6-4.4-11.7-8.1-18.1-11.1c-5.2-2.4-10.7-4.2-16.4-5.1c-6.1-1.9-12.3-3.1-18.7-3.5c-5.5-0.2-11,0.2-16.5,0.5
		c-1.6,0.2-3.1,0.5-4.7,0.9c-4.3,0.9-8.6,1.7-12.8,2.8c-4.9,1.2-9.1,4.1-11.9,8.3c-1,1.5-2.2,2.9-3.3,4.4c-2.2,2.8-3.6,6.1-4.2,9.5
		c-0.2,1.7-0.5,3.3-0.9,4.9c-1.3,6-2.9,11.9-6.5,17.1c-2.3,3.5-3.9,7.5-4.7,11.7c-1.2,5.8-1,11.8,0.5,17.5c0.3,0.1,0.5,0.1,0.8,0.1
		c4.2-0.8,8.4-1.7,12.6-2.6c5.6-1,11.2-1.6,16.9-1.7c8.1-0.2,16.3-0.2,24.5-0.1c2.8,0,5.6,0.2,8.3,0.7c5,0.8,10,1.7,15,2.8
		c5.6,1.2,11.2,2.4,16.5,4.9c0.8,0.5,1.8,0.3,2.4-0.4c1.4-1.3,2.7-2.7,4-4.1C178.7,168,181.3,162.9,183.3,157.6z M205.7,283.5
		c0.9-1.3,1.8-2.5,2.8-3.7c0.7-0.8,1.1-1.7,1.2-2.8c0.3-5.9,0.6-11.8,0.8-17.6c0.1-2.8-0.2-3-2.9-3.9c-0.8-0.3-1.5-0.5-2.5-0.8
		l-3,3.9c-1.6-1.9,0.6-3.1,0.9-4.6c-2.1-0.4-4-0.8-6,0.7C201.5,263.8,205,273.1,205.7,283.5z M201.2,221.2c1.4,3.1,4.1,5.6,8.3,7.7
		l6.3-5.5l-9.8-9.8L201.2,221.2z M216.9,271.5l12.2-5.7l-12.2-5.4V271.5z M183.5,227.5l4.7,5.5c2.1-3.1,5.4-3.2,8.6-4.1l-3.2-5.4
		C190,223.8,186.8,225.4,183.5,227.5L183.5,227.5z M211.8,257.3V276c2.1-5.5,2.9-11.4,2.5-17.2L211.8,257.3z M186,213.8
		c3.2,2.9,5.6,3.7,8.1,3.1c-2.2-1.9-2.2-1.9-1.7-3.3c1.2,0.3,2.5,0.8,3.6-0.4l-4.4-2.6C190.1,211.9,189.3,214.4,186,213.8z
		 M196.3,215.6c2.2,1.3,4.1,0.3,5.9-0.3c0.7-0.2,1.1-1.3,1.8-2.1l-3.9-1.7c-0.5,0.8-1,1.5-1.6,2.2C197.7,214.4,197,215,196.3,215.6
		L196.3,215.6z M261.9,290.3c0-0.7,0-0.9,0-1.2c0-0.3,0-0.6-0.1-1c-0.8-3.1-0.9-6.8-5-7.8c-0.1,0-0.1,0-0.3,0.1L261.9,290.3z
		 M230.9,196.7c1.3-1.6,2.1-2.9,1.5-4.8s-2.2-1.3-3.4-1.7C230.8,191.9,230.3,194.3,230.9,196.7L230.9,196.7z M200.6,174.5
		c-0.8,1.2-0.8,2.9,0,4.1c0.8,1.4,2.1,1.8,3.8,1.5L200.6,174.5z M212.2,230.9h-0.5v2.1c0.3-0.4,0.5-0.9,0.7-1.3
		C212.3,231.4,212.3,231.1,212.2,230.9z"/>
	<path class="st2" d="M310.4,269.8c0.6-0.3,1.3-0.5,2-0.7c5.1-0.6,9.3-3.3,13.2-6.3c5.4-4.1,9.9-9.2,13.3-15
		c2.7-4.5,4.4-9.4,5.1-14.5c0.9-6.2,1.4-12.5,2-18.7c0.2-2.2,0.3-4.4,0.5-6.6c1.1-0.4,1.4,0.1,1.5,1.1c0.4,3.1,0.7,6.3,1.3,9.4
		c3.5,17.2,10.3,32.8,22.1,46c3.9,4.4,8.5,8,13.7,10.8c0.3,0.1,0.6,0.2,0.8,0.5c0.4,0.5,0.9,1,0.9,1.5c0,0.8-0.7,1.4-1.5,1.4
		c-0.1,0-0.1,0-0.2,0c-2.8-0.8-4.7,0.9-6.6,2.4c-4.2,3.3-8.4,6.6-12.4,10.1c-6.4,5.6-10.6,12.8-13.8,20.7c-2.1,5.1-3.4,10.5-3.7,16
		c0,1.2-0.4,2.4-1.1,3.4c-1.2-0.6-1.9-1.8-1.9-3.1c-1.5-9.4-4.2-18.5-8.1-27.1c-4.4-9.8-11-18.5-19.2-25.4c-1.2-1.1-2.9-1.6-4.3-2.6
		C312.6,272.1,310.9,271.7,310.4,269.8z M347.4,224.1c-0.1,2.5-0.3,4.9-0.4,7.4c-0.4,6.2-2.3,12.3-5.4,17.7
		c-2.7,4.8-6.1,9.2-10.2,12.9c-3.4,3.2-7.3,6-11.5,8.1l-3.3,1.5c9.8,6.4,16.8,15,22,25.3c3,6.2,5.4,12.6,7.3,19.2
		c0.2,0.6,0.4,1.3,0.8,2.3c0.2-0.7,0.2-1,0.3-1.2c0.6-1.8,1.3-3.6,1.9-5.4c1.9-5.4,4.4-10.4,7.7-15.1c3.4-4.9,7.5-9.1,12.3-12.6
		c3.6-2.7,7.3-5.3,11-8c-0.9-0.7-1.8-1.5-2.8-2.3c-2.5-2.1-5.2-4-7.4-6.4c-7.3-8.2-13.1-17.6-17.1-27.8c-1.9-4.5-2.9-9.3-4.1-14
		l-0.3-1.7c-0.2-0.8-0.3-1.6-0.5-2.5l-0.4,0.1L347.4,224.1z"/>
	<path class="st2" d="M258.4,85.5c0.3,2.6,0.5,5.2,0.9,7.7c1,7,3.3,13.6,5.9,20.1c0.7,1.9,1.6,3.8,2.5,5.7
		c2.9,5.5,7.5,9.5,12.6,12.8c2.8,1.9,5.9,3.4,9.2,4.5c0.9,0.4,1.8,0.8,2.6,1.4c-0.1,1.4-0.7,1.9-1.9,2c-7.3,0.3-12.9,3.9-17.5,9.2
		c-5.1,5.8-8.6,13-10.1,20.6c-0.9,4.6-1.2,9.3-1.7,14c-0.1,1.1-0.2,2.2-1.3,3c-1.4-0.6-1.5-1.8-1.6-3.1c-0.4-6.4-1.5-12.6-3.3-18.8
		c-1.2-4.2-3-8.1-5.4-11.7c-4.2-5.8-10.1-10.2-16.8-12.6c-0.7-0.2-1.4-0.2-2.1-0.2c-0.6,0.1-1.3,0-1.9-0.2c-0.6-0.3-1-0.9-1.2-1.6
		c-0.1-0.9,0.8-1,1.5-1.1c5.3-0.7,9.2-3.8,12.6-7.6c7-7.7,10.4-17.1,12.7-26.9c1.2-5.2,2.5-10.4,2.5-15.8
		C256.8,86.2,256.9,85.3,258.4,85.5z M259.6,169c0.2-0.9,0.5-1.8,0.7-2.7c1.8-6.9,5.1-13.3,9.5-18.9c3.1-4.1,7.3-7.2,12.1-9
		c0.5-0.2,1-0.4,1.8-0.7c-1.4-0.8-2.4-1.4-3.5-2.1c-8-4.8-14.3-11.2-17.6-20.1c-1.8-4.9-3.3-9.8-5-14.7c0-0.1-0.1-0.1-0.1-0.2
		c-0.1,0-0.1,0-0.2,0c-0.2,0.8-0.5,1.6-0.7,2.4c-1.1,5.5-2.3,10.9-4.6,16c-2.9,6.2-6.4,11.8-11.5,16.3c-1.4,1.2-3,2.2-4.9,3.5
		c6.6,2.9,12.2,6.6,16.1,12.4c3.8,5.7,5.9,12,7.5,19.1C259.5,169.4,259.6,169.2,259.6,169z"/>
	<path class="st2" d="M74.4,50.8c1.2-0.4,2.2-0.9,3.3-1.3c2.4-0.8,4.6-2.3,6.3-4.2c3.6-4,5.9-9,6.6-14.4c0.5-3.2,0.8-6.5,1.1-9.7
		c0.1-0.9-0.1-2.2,1.1-2.2s1.2,1.4,1.3,2.4c0.7,8.5,3.3,16.4,9.1,22.9c2.7,3,6,5.4,10.3,6c1.6,0.2,1.7,0.7,1.4,3
		c-2.9,0.3-5.5,1.6-8.1,3c-5.4,3-8.4,7.7-9.9,13.5c-0.8,2.4-1,5-0.8,7.5c0.3,1.4,0,2.8-0.9,3.8c-1.6-0.5-1.7-1.7-1.8-3
		c-0.2-4.3-0.8-8.6-2.9-12.4c-2.7-5.1-6.9-9.2-12-11.7c-0.6-0.4-1.3-0.6-2-0.7C75.1,53.2,74.6,52.3,74.4,50.8z M93,33
		c-0.2,1.1-0.3,2.2-0.7,3.2c-2,6.6-5.2,12.3-11.6,15.8c0.5,0.3,0.9,0.6,1.4,0.9c4.6,2.5,8.3,6.3,10.7,10.9c0.2,0.3,0.4,0.7,0.7,1
		l1.1,2.5c1.4-3.8,2.8-6.9,5.1-9.5s5.4-4,8.5-5.5c-0.2-0.2-0.3-0.4-0.5-0.6c-7-4-11.3-10.1-13.4-17.9c-0.3-1-0.6-1.9-0.8-2.9
		l-0.4,0.1L93,33z"/>
	<path class="st2" d="M413.5,336.7c-1.1-0.8-1.8-2-1.9-3.4c-0.6-3.6-1.5-7.2-2.8-10.6c-2-4.7-4.9-9-8.5-12.6
		c-1.2-1.3-2.7-2.3-4.5-2.7c-0.5-0.1-0.9-0.4-1.2-0.7c-0.5-0.5-0.4-1.2,0-1.7c0.2-0.2,0.4-0.3,0.6-0.3c7.7-1.1,10.9-6.9,13.5-13.1
		c1.4-3.7,2.2-7.5,2.3-11.4c0-0.3-0.1-0.7,0-1c0.2-0.4,0.5-0.7,0.8-1c0.3,0.3,0.8,0.5,0.9,0.9c0.1,0.5,0.2,0.9,0.1,1.4
		c-0.1,5.2,1.6,9.9,3.9,14.4c1.3,2.3,3.2,4.2,5.5,5.5c1.9,1.5,4.1,2.6,6.4,3.2c0.7,0.2,1.3,0.6,1.9,1c0.3,1.3-0.7,1.8-1.6,2.1
		c-5.5,1.8-9.2,5.6-11.5,10.7c-1,2.3-1.9,4.7-2.7,7.1c-0.9,2.6-1.1,5.3-0.5,8C414.9,334.6,414.7,334.9,413.5,336.7z M414.1,296.5
		L414.1,296.5l-0.5-1.2c-0.2-1.5-0.7-2.9-1.5-4.2c-2.2,6.7-5.2,12.4-11.6,15.8c1.2,1.1,2.3,2.1,3.4,3.2c3.5,3.6,6.3,7.9,8.2,12.5
		c0.1,0,0.2,0,0.4,0c0,0,0.1-0.1,0.1-0.2c2.1-6.8,5-12.9,11.6-16.6c-0.1-0.2-0.3-0.4-0.4-0.5c-3.6-2-6.7-4.6-9.1-7.8l0,0
		L414.1,296.5z"/>
	<path class="st0" d="M198.2,269.7c1.6,4.3,2.7,8.7,2.2,13.3c-1.4,1.2-1.4,3.1-2.1,4.6c-0.3,1.1-1,1.9-2,2.5
		c-0.6,0.4-1.1,0.8-1.6,1.3c-1.6,2-3,4.1-4.6,6.1c-5,6.3-9.8,12.8-15,18.9c-5.2,6-10.7,11.8-16.5,17.3c-3,2.8-6.1,5.6-9.2,8.3
		c-0.6,0.1-1.2,0.3-1.8,0.6c-2.1,1.4-4.5,2.3-7,2.6c-0.6,0-1.2-0.1-1.8-0.3c0.4-1,0.7-1.8,0.9-2.5c2.6-1.7,5.2-3.4,7.7-5.3
		c3.3-2.5,6.4-5.2,9.6-7.9c0.7-0.7,1.4-1.6,2-2.4c-2-0.3-2-0.3-3.2,0.9c-4.1,4-8.7,7.5-13.6,10.4c-1.2,0.4-2.4,0.8-3.5,1.3
		c-1.8,0.7-3.4,2-5.4,1.3s-4-1.4-5.3-3.1c-1.9-2.5-3.9-5-5.7-7.7c-2.9-4.6-5.4-9.6-7.2-14.8c-1-2.8-1.3-5.5,0.2-8.3
		c0.9-0.4,1.9-0.8,2.8-1.3c1.1-0.3,2-1.2,2.3-2.4l-6.5,2.2l-1.1-0.5c1.2-1.7,2.8-3.1,4.6-4c0.8-0.3,1.7-0.6,1.7-1.7l1.4-0.6l0.5-0.3
		l0.5-0.1l0.5-0.3c8.4-3.5,16.4-7.8,24.1-12.6c8.5-5.3,16.8-11.1,25.1-16.7c0.6-0.4,1.2-0.8,1.7-1.3c0.3-0.3,0.3-0.9,0.4-1.3
		l-0.4-0.3c-0.8,0.4-1.7,0.8-2.4,1.3c-7.9,5.2-15.6,10.5-23.6,15.6c-4.6,3-9.5,5.5-14.3,8.2c-0.4-0.8-1-0.3-1.4-0.1
		c-6.3,2.7-12.6,5.3-19.5,5.6c-0.7,0-1.1-0.1-1.1-0.8c1.1-0.4,2.2-0.9,3.2-1.5c0.4-0.3,1.1-1,1-1.3c-0.2-0.8-1-0.6-1.6-0.3l-3.1,1.2
		l-0.5,0.3l-0.9,0.3c-0.4-0.7-0.8-1.4-1.2-2c-0.8-1-1.8-2-2.7-3c-3.9-4.8-6.1-10.5-8.3-16.1c-1.7-4.4-3.2-8.8-5-13.2
		c-0.9-2.3-2.2-4.4-3.3-6.6c-1.6-3.5-3.1-7-2.2-11c0.2-0.8,0.3-1.7,0.4-2.6c3.6-1.5,7.1-3.1,10.8-4.5c6.9-2.6,13.9-4.5,21.1-5.9
		c0.4,0,0.8,0,1.2,0c1.2,0,2.4,0.1,3.6,0c4.7-0.4,9.5-1.3,14.2-1.3c5,0,10-0.6,15-0.2c4.2,0.3,8.4,0.4,12.6,1
		c4.7,0.6,9.2,2.1,13.3,4.4c1.8,1,3.2,2.7,3.9,4.7c0.7,1.9,1.2,3.8,2,5.6c1.4,3.2,2.8,6.4,4.5,9.5c2.6,4.8,5.3,9.4,8,14.1
		c0.4,0.6,0.8,1.1,1.3,1.6l0,0L198.2,269.7z M145.8,278.8l-0.5-0.6c-3,1.4-5.4,3.8-8.2,5.4s-5.7,3.4-8.5,5c0.5,1.5,1.3,0.9,1.9,0.5
		c4.5-2.7,8.9-5.5,13.4-8.3C144.6,280.2,145.2,279.5,145.8,278.8L145.8,278.8z"/>
	<path class="st0" d="M118.5,97c1.5-0.4,3.1-0.7,4.7-0.9c5.5-0.3,11-0.7,16.5-0.5c6.4,0.4,12.6,1.6,18.7,3.5c1.1,0.7,2.2,1.4,3.4,2
		c2.6,1.2,5.3,2.2,7.8,3.5c2.9,1.5,5.6,3.4,8.6,4.8c4.4,2.2,7.8,5.5,11,9.1c2.4,2.7,2.9,5.8,1,9c-0.9,1.5-1.6,3.1-2.6,4.6
		c-1.8,2.6-2.8,5.6-2.9,8.7c-0.1,2.4-0.4,4.8-0.6,7.1c-0.3,3.2-0.6,6.5-0.8,9.7c-2,5.3-4.6,10.4-7.7,15.1l-1.1,0.1
		c-0.5-0.4-1-0.8-1.5-1.1c-2.8-1.2-5.6-2.4-8.4-3.4c-7.2-2.3-14.5-4.1-22-5.4c-4.1-0.6-8.3-1.3-12.4-1.8s-8.3-0.5-12.3-1
		c-3.1-0.4-6.4-0.7-8.7-3.3c-0.9-1-1.8-2.2-2.6-3.3c-1.9-2.6-3.4-5.4-4.3-8.5c-0.8-2.4-0.9-5-0.1-7.5c0.4-1.7,1.6-3.1,3.1-3.9
		c0,0,0-0.1,0.1-0.2c3.4-0.5,6.7-1,10.1-1.6c0.7-0.2,1.4-0.4,2.1-0.6c-1.7-1.2-1.7-1.2-2.9-1L109,131c-3-0.7-4.4-3-3.8-6.3
		c0.2-1.2,0.2-2.3,0.4-3.5c0.1-1.3,0.3-2.5,0.8-3.7C110,110.4,112.8,102.8,118.5,97z M127.1,132.6c0.3,0.1,0.7,0.3,1.1,0.3
		c5.7,0,11.4,0.5,17.1,1.5c0.6,0.1,1.4,0.4,2-0.8c-0.8-0.4-1.5-0.7-2.4-0.8c-5.2-0.6-10.4-1-15.6-1.5c-0.5-0.1-1,0-1.4,0.2
		C127.6,131.5,127.4,132,127.1,132.6L127.1,132.6z"/>
	<path class="st3" d="M115.2,307.1c-1.4,2.7-1.2,5.5-0.2,8.3c1.9,5.2,4.3,10.1,7.3,14.8c1.7,2.7,3.7,5.1,5.7,7.7
		c1.3,1.7,3.4,2.5,5.3,3.1s3.6-0.6,5.4-1.3c1.1-0.5,2.3-0.9,3.5-1.3c-0.2,0.3-0.4,0.5-0.7,0.7c-3.4,2-6.8,4.2-10.4,5.9
		c-3.2,1.6-6.6,2.7-9.9,4.1c-0.6,0.3-1.7,0.1-1.6,1.6c0.7,0,1.3,0,2-0.1c4.4-1.4,8.8-2.8,12.8-5.2c1.7-1,3.5-1.9,5.3-2.8
		c-0.3,0.7-0.5,1.4-0.9,2.5c0.6,0.1,1.2,0.2,1.8,0.3c2.5-0.3,4.9-1.2,7-2.6c0.6-0.3,1.1-0.4,1.8-0.6c-0.8,0.8-1.5,1.6-2.3,2.4
		c-1.9,1.6-3.8,3.2-5.7,4.8c-0.8,0.7-0.8,1.2,0.1,1.8c0.6-0.3,1.1-0.7,1.6-1.1c5.4-4.7,10.9-9.3,16.1-14.2
		c4.5-4.2,8.6-8.8,12.9-13.1c6.4-6.6,12.3-13.6,17.6-21.1c2.1-2.9,4.3-5.8,6.4-8.6c0.6-0.8,1.3-1.7,0.2-2.7c1-0.5,1.7-1.4,2-2.5
		c0.7-1.5,0.8-3.4,2.1-4.6c0.7,4.8-0.6,9.4-2.5,13.7c-2.1,4.7-5.2,8.8-8.2,12.9c-4.8,6.5-10.3,12.3-15.8,18.3
		c-3.7,4-7.1,8.2-10.8,12.2c-4.6,4.8-9.5,9.2-14.8,13.3c-4.1,3.3-8.3,6.5-12.5,9.7c-1.8,1.3-3.7,2.5-5.7,3.5c-3.7,2-7.8,2.9-12,2.4
		c-0.9-0.1-1.7-0.3-2.6-0.6c-4.3-1.7-8.2-4.3-11.5-7.6c-5.5-6-10.2-12.7-14-19.9c-4.1-7.3-7.3-15.1-9.8-23.1
		c-1.9-6.4-4.1-12.8-6.8-18.9c-1.8-4.1-3.9-8-6-12c-3.4-6.3-5.5-13.1-7.9-19.8c-1.5-4.4-0.3-8.3,2.5-11.8c3.9-4.8,8.9-8.5,14.5-11.1
		c3.3-1.5,6.5-3,9.8-4.5c-0.1,0.9-0.2,1.7-0.4,2.6c-1,4,0.6,7.5,2.2,11c1,2.2,2.4,4.4,3.3,6.6c1.8,4.4,3.2,8.8,5,13.2
		c2.2,5.6,4.3,11.3,8.3,16.1c0.9,1,1.8,2,2.7,3c0.4,0.6,0.8,1.3,1.2,2c-4.1,2.2-8.4,3.9-12.8,5.1c-5.1,1.5-10.3,2.6-15.5,3.9
		c-0.6,0.2-1.4,0.2-1.2,1.1c0.1,0.2,0.9,0.4,1.3,0.4c2.2-0.4,4.4-0.8,6.6-1.3c8.1-1.8,16-4.5,23.5-7.9c0.1,0.7,0.4,0.9,1.1,0.8
		c7-0.3,13.3-2.9,19.5-5.6c0.5-0.2,1-0.7,1.4,0.1c-0.6,0.5-1.3,0.9-2,1.2c-8.1,3.6-16.2,7.2-24.3,10.7c-4.9,2.1-10.1,3.5-15.4,4.4
		c-0.4,0.1-0.7,0.5-1.1,0.8l0.2,0.5c0.8,0.1,1.7,0.1,2.5,0c5.5-1,10.8-2.6,16-4.7c3.5-1.5,7.1-2.9,10.6-4.3c0,1.1-0.9,1.4-1.7,1.7
		c-1.8,0.9-3.4,2.3-4.6,4l1.1,0.5l-12.1,4.3c-0.7,0.3-1.6,0.2-1.9,1.4c0.4,0.1,0.8,0.4,1.2,0.4c1.1-0.2,2.2-0.5,3.2-0.9
		C107.8,309.6,111.5,308.3,115.2,307.1z M109.2,357.1l-0.2,0.6c0.5,0.3,1,0.5,1.5,0.6c5,0.8,10.2,0.7,15.2-0.3
		c1.2-0.2,2.3-0.4,3.5-0.8c0.7-0.2,1.2-0.8,0.6-1.5c-3.5,0.4-6.8,0.9-10.2,1.1S112.7,357,109.2,357.1L109.2,357.1z M99.6,348.9
		c1,1.7,3.7,3.3,6.5,3.7c1.2,0.2,2.6,1,3.6-0.5c-3.1-1.1-6-2.2-9-3.3C100.5,348.7,100.2,348.9,99.6,348.9L99.6,348.9z"/>
	<path class="st0" d="M276,337.8c3.7,1.5,6.7,4.2,9.7,6.8c0.5,0.5,0.9,1.1,1.3,1.7l0.5,4c-0.2,0.8-0.4,1.7-0.5,2.5
		c-0.1,2.4,0,4.8,0,7.2c0,4.5-0.1,9.1-1.1,13.5c-1,4.2-2.2,8.3-3.3,12.5c-0.6,2.3-1.2,4.6-1.8,6.9c-0.1,0.6-0.3,1.2-0.5,1.8
		c-1.4,3-2.9,5.9-4.4,8.9c-1.2-0.1-1.6,0.9-2.1,1.7c-1.4,2.3-2.8,4.6-4.2,6.9c-1.7-0.4-3.4-0.6-5-1.1c-2.8-0.9-5.5-2-8.3-2.9
		c-1.6-0.4-3-1.4-4-2.7c0.6-1.6,1.1-3.1,1.7-4.7c0.8-2.2,1.5-4.4,2.3-6.5c0.4-0.9,0.1-2-0.9-2.5c-0.1,0-0.1-0.1-0.2-0.1
		c2-5.9,1.7-5,1.1-6.8c-0.5,0.5-0.9,1.1-1.3,1.7c-0.9,2.3-1.8,4.6-2.6,6.9c-0.6,0.4-1.1,0.9-1.5,1.4c-1.9,3.3-4.5,6.2-7.6,8.5
		c-3.6,2.8-7.5,4.7-12.3,4.5c-0.9,0-1.8,0-2.6,0c-3,0.1-5.9-0.5-8.6-1.8c-4.4-1.8-8.7-3.9-13-6c-4-1.7-6.7-5.4-7.2-9.7
		c0.9-1.2,1.8-2.4,2.7-3.6c4.8-5.9,9.6-11.8,14.5-17.6c0.1-0.1,0.2-0.2,0.4-0.3l0.7-1l0,0l0.5-0.5l0,0l0.5-0.5l0,0
		c1.2-0.6,2.4-1.4,3.4-2.4c2.2-2.5,4.1-5.3,6.2-7.8c4.5-5.5,7.8-11.8,12.4-17.2c2.8-3.3,5.8-5.6,10.3-5.2c2.4,0.2,4.9,0.5,7.4,0.5
		c3.4,0.1,6.8,0.6,10.1,1.4c2.1,0.4,4.2,0.7,6.3,1.1l0,0L276,337.8z"/>
	<path class="st0" d="M143.9,363.1c3.6-3.1,7.2-6.3,10.8-9.4c5.8-4.8,11.2-10,16.1-15.7c2.2-2.5,4.4-5,6.6-7.5
		c0.2-0.2,0.4-0.3,0.6-0.5l0,0c0.5,0.1,0.9-0.2,1-0.6c0-0.1,0-0.2,0-0.4l0,0c0.5-0.1,1.2-0.1,1.6-0.4c2.3-1.9,4.4-3.9,6.5-6
		c3.7-4.1,7.4-8.4,10.8-12.7c2.7-3.4,5.6-6.8,7.3-10.9c0.2-0.5,0.5-1,0.8-1.5c0.7-1.2,1.6-1.4,2.7-0.5c0.7,0.6,1.4,1.3,2.2,1.9
		c3.3,2.5,6.9,4.6,10.7,6.3c1.4,0.7,2.8,1.5,4.1,2.5c2.2,1.6,4.2,3.4,6.3,5.1l0,0l0.6,1c0.5,1.6,1,3.2,1.5,4.8
		c-0.5,0.7-1,1.4-1.4,2.2c-2.6,5.6-5.7,10.9-9.3,15.9c-2.4,3.4-4.9,6.7-7.1,10.2c-4.4,7.4-9,14.7-14.5,21.3
		c-0.7,0.3-1.3,0.7-1.9,1.2c-2.2,2.5-4.2,5.2-6.4,7.8s-4.6,5.2-7,7.9c-0.7,0.1-1.3,0.3-1.9,0.6c-1.1,0.7-2.2,1.6-3.4,2.3
		c-0.7,0.4-1.4,0.7-2.2,0.8c-6,0.4-12-0.1-17.8-1.5c-2.1-0.5-4.1-1.3-5.9-2.5c-3-2.3-5.3-5.4-6.6-9
		C146.8,371.5,145.4,367.3,143.9,363.1z"/>
	<path class="st4" d="M177.3,211c-0.5,2.7-0.8,5.4-2.2,7.8c-0.5,0-0.9-0.1-1.4-0.2c-4.6-1.2-9.3-2-14.1-2.2c0.1-1.6-1.3-1.7-2.3-1.8
		c-3.4-0.2-6.8-0.3-10.2-0.4c-0.7-0.1-1.3,0.4-1.4,1c0,0.1,0,0.1,0,0.2c-2.1,0.1-4.2,0-6.4,0.2s-4.3,0.5-6.5,0.8
		c-4.5,0.3-9.1,0.5-13.6,0.9c-7.1,0.6-14,2.4-20.5,5.1c-4,1.7-7.9,3.3-11.9,5c-0.9-1.1-1.3-2.6-0.9-4c0.4-2.2,1-4.3,1.6-6.4
		c0.3-1.2,0.8-2.4,1.2-3.6c5-1.1,10.1-2.2,15.1-3.2c1-0.2,2.1-0.1,2.7-1.6c-0.8-0.1-1.6-0.2-2.4-0.2c-1.1,0-2.2,0.2-3.3,0.4l-2,0.4
		l-1,0.1l-0.5,0.2l-1.9,0.3c-0.9-0.2-1.8-0.4-2.7-0.5c-1.4,0.1-2.7-0.6-3.5-1.7c-1.1-2-2.5-4.1-2.8-6.3c-0.5-4.4-1.5-8.7-0.6-13.2
		c0.5-2.9,0.7-5.8,2.3-8.4c0.9-1.5,1.7-3,2.5-4.5l0,0l1.4-0.4c4.6-0.8,9.2-1.2,13.8-1.1c3,0,6.1,0,9.1,0c3.7-0.1,7.3-0.2,11-0.3
		c5.7,0,11.3,0.5,16.8,1.7c1.8,0.3,3.6,0.7,5.3,1.1l2,0.5l0,0c0.5,0.4,1,0.7,1.6,1c4.4,1.6,8.8,3.2,13.2,4.7
		c3.2,1.1,6.1,2.5,8.2,5.4c1.2,1.5,1.7,3.4,1.4,5.3c-0.1,0.8-0.5,1.5-0.6,2.3c-0.3,1.6-0.9,3.4-0.5,4.9c0.9,3.5,2.2,6.9,3.4,10.4
		C176.9,210.7,177.2,210.9,177.3,211z M135.6,199.9v-0.7c-0.9-0.2-1.8-0.2-2.7-0.3c-1.9,0.1-3.8,0.4-5.7,0.6c-7,1-14.1,1.9-21.1,3
		c-2.5,0.4-5,1.2-7.4,1.8c-0.8,0.2-1.5,0.6-1,1.8c1.8-0.4,3.6-0.9,5.4-1.3c9.4-2.1,19-3,28.6-4C133,200.8,134.5,201,135.6,199.9
		L135.6,199.9z M155.5,201v0.8c3.8,0.7,7.5,1.4,11.3,2.1c0.3,0.1,0.7-0.2,1.4-0.4c-2.1-2-4.4-2-6.6-2.3
		C159.6,201,157.5,200.2,155.5,201z"/>
	<path class="st0" d="M281.1,409.7c0-0.2,0.1-0.5,0.2-0.7c2.4-4.4,4.9-8.8,7.3-13.2c0.3-0.3,0.8-0.6,1-1c1.7-3.8,3.6-7.6,5.1-11.6
		c2.5-6.8,4.1-13.9,4.7-21.1c0.2-1.6,0.8-2.6,2.3-2.9c2.1-0.4,4.2-0.7,6.3-0.9c1.5-0.2,3-0.3,4.5-0.4c7.4-1,14.5-3.3,20.9-7
		c1.1-0.7,2.2-1.2,3.4-1.6c3.8-1.3,7.7-2,11.7-2c2.2,0.1,4.3,0.4,6,1.9c0.1,0.8,0.2,1.7,0.4,2.5c0.2,1,0.4,2,0.6,2.9
		c0,0.6,0,1.3,0.1,1.9c0.6,5.4,1.3,10.9,1.7,16.3c0.2,2.7,0.1,5.4,0.1,8.1c0,1.4-0.1,2.8-0.4,4.2c-0.9,2.9-2,5.8-3,8.7
		c-0.5,0.4-1,0.9-1.5,1.4c-1.4,2.3-2.6,4.8-4.1,7c-1.1,1.5-2.2,2.9-3.5,4.2l-2.8,0.3c3.2-2.8,5.2-6,4.8-8c-0.3,0.1-0.7,0.1-0.9,0.3
		c-1.5,2-3,4.1-4.4,6.2c-0.2,0.3,0.3,0.9,0.4,1.4c-0.6,0.4-1.1,1-1.7,1.1c-4.5,1-9.1,1.5-13.7,1.5c-6,0-12-0.1-18,0
		c-2.3,0.1-4.6,0.3-6.8,0.8c-3.4,0.6-6.6,1.6-10,2.3c-2.4,0.6-4.9,0.5-7.3-0.3C283.5,411.3,282.2,410.6,281.1,409.7z"/>
	<path class="st0" d="M207.3,104.7l-7.2,3.8l-3-2c-0.1-0.5-0.1-1.1-0.4-1.5c-0.7-0.8-1.5-1.4-2.4-2c-5.5-3.4-11.1-6.6-17.2-8.7
		c-1.9-0.5-3.7-1.1-5.6-1.6c-0.9-0.3-1.8-0.4-2.7-0.6c-0.3-1.1-1.3-1.4-2.2-1.6c-2.5-0.6-5.1-1.3-7.6-1.8c-8.4-1.7-17-1.9-25.6-1.8
		c0.6-1.5,0.9-3.3,1.9-4.5c3-3.5,6.2-6.8,9.5-10.1c1.7-1.7,3.6-3.3,5.7-4.7c3.1-2.1,6.2-4,9.5-5.8c3.2-1.7,6.6-3.2,10-4.5
		c4-1.5,8.2-2.5,12.3-3.7c4.9-1.3,9.7-1.5,14.3,1c0.5,0.2,1,0.4,1.6,0.5c1.1,1.4,2.2,2.7,3.2,4.1c2.6,3.8,5.1,7.7,7.7,11.5
		c0.2,0.4,0.3,0.8,0.5,1.2l0,0c0,0.4,0,0.8,0.1,1.2c1.9,4.2,2.9,8.7,3.9,13.2c0.1,0.6,0.2,1.2,0.3,1.9c0.3,4.6-1.3,9.2-4.2,12.8
		C208.8,102.1,208.1,103.4,207.3,104.7z"/>
	<path class="st5" d="M105.1,133.5c0,0.1,0,0.2-0.1,0.2c-1.5,0.8-2.7,2.2-3.1,3.9c-0.7,2.4-0.7,5.1,0.1,7.5c1,3,2.5,5.9,4.3,8.5
		c0.8,1.2,1.7,2.3,2.6,3.3c2.3,2.6,5.6,2.9,8.7,3.3c4.1,0.5,8.2,0.6,12.3,1c4.1,0.4,8.3,1.2,12.4,1.8c-0.7,0.6-0.8,1.3,0.2,1.6
		c1.4,0.4,2.9,0.6,4.4,1c6.4,1.4,12.9,2.8,19.1,5.3c1.9,0.8,3.8,1.6,5.7,2.4c0.9,0.4,1.8,0.7,2.5-0.4l1.1-0.1
		c-1.3,1.4-2.6,2.8-4,4.1c-0.6,0.7-1.6,0.8-2.4,0.4c-5.2-2.5-10.9-3.7-16.5-4.9c-5-1.1-10-2-15-2.8c-2.8-0.4-5.5-0.7-8.3-0.7
		c-8.2-0.1-16.3-0.1-24.4,0.1c-5.7,0.1-11.3,0.6-16.9,1.7c-4.2,0.8-8.4,1.7-12.6,2.6c-0.3,0-0.5,0-0.8-0.1
		c-1.5-5.7-1.7-11.7-0.5-17.5c0.8-4.1,2.4-8.1,4.7-11.6c3.5-5.2,5.2-11.1,6.5-17.1c0.4-1.6,0.7-3.3,0.9-4.9c0.5-3.5,2-6.8,4.2-9.5
		c1.1-1.5,2.3-2.9,3.3-4.4c2.8-4.2,7.1-7.1,11.9-8.3c4.2-1.1,8.5-1.8,12.8-2.8c-5.7,5.9-8.5,13.5-12.2,20.6
		c-0.4,1.2-0.7,2.4-0.8,3.7c-0.2,1.2-0.2,2.4-0.4,3.5c-0.6,3.2,0.9,5.6,3.8,6.3c-0.2,0.1-0.4,0.2-0.6,0.3c-5,1-10,1.9-14.9,3
		c-2.3,0.5-4.6,1.3-6.9,1.9c-0.9,0.2-1.4,0.6-0.9,1.8c1.3-0.3,2.5-0.6,3.7-0.9C94.6,135.7,99.7,134.1,105.1,133.5z M76,171
		c0.4,0,0.9-0.1,1.3-0.2c1.9-0.5,3.8-1.1,5.8-1.5c5.5-1.1,11.1-2.1,16.7-3c6.2-1.1,12.4-1.7,18.7-1.8c0.6,0,1.1,0,1.7-0.1
		c0.5-0.3,1-0.6,1.4-1c-0.4-0.2-0.8-0.3-1.2-0.4c-3.3-0.1-6.7-0.1-10,0.1c-6.5,0.7-12.9,1.7-19.3,2.8c-4.4,0.8-8.8,2-13.2,3.1
		C77,169.4,75.9,169.4,76,171z M103.1,126.6l-0.1-0.8c-1.1-0.1-2.1-0.1-3.2,0c-2.4,0.4-4.8,1-7.2,1.5c-0.6,0.1-1.2,0.4-1.8,0.7
		c-0.3,0.2-0.4,0.8-0.7,1.5L103.1,126.6z M126.1,164.1c2.4,0.8,3.9,0.7,5.1-0.3C129.4,162.8,127.5,162.8,126.1,164.1L126.1,164.1z"
		/>
	<path class="st5" d="M159.6,216.3c4.8,0.2,9.5,1,14.1,2.2c0.5,0.1,0.9,0.2,1.4,0.2l-1.8,2.9c-5.8-0.3-11.3-1-16.8-0.9
		c-7,0.1-14,0.6-20.9,1.6c-3.1,0.5-6.3,0.6-9.5,1.1c-4.9,0.8-9.9,1.6-14.8,2.7c-10.6,2.5-20.8,6.1-30.6,10.9c-1.5,0.7-3,1.4-4.6,2.1
		c-5.7,2.6-11,6.1-15.5,10.4c-0.8-1.2-1-2.6-0.6-4c1.2-5.3,2.3-10.6,3.7-15.8c1.4-5.3,2-10.8,1.7-16.3c-0.2-1.4-0.5-2.8-0.8-4.2
		c-0.8-4.1-1.6-8.3-2.3-12.4c-0.4-2.6-0.3-5.3,0.5-7.8c0.3-0.6,0.5-1.2,0.6-1.8c0.5-3.3,2.6-5,5.4-6.5c5.4-2.6,11.1-4.4,17-5.3
		c1.5-0.3,3-0.3,4.5-0.5c-0.8,1.5-1.6,3.1-2.5,4.5c-1.6,2.6-1.8,5.6-2.3,8.4c-0.8,4.4,0.2,8.8,0.6,13.2c0.2,2.2,1.7,4.3,2.8,6.3
		c0.7,1.2,2.1,1.8,3.5,1.7c0.9,0.1,1.8,0.2,2.7,0.5c-0.3,0.2-0.7,0.3-1.1,0.5c-8.2,1.7-16.1,4.5-23.5,8.5c-0.7,0.4-1.8,0.4-1.8,1.6
		c0.8,0.8,1.4,0.3,2,0c2.1-0.9,4.1-2.1,6.3-2.9c3.7-1.4,7.5-2.6,11.3-3.9c-0.4,1.2-0.8,2.4-1.2,3.6c-0.6,2.1-1.2,4.3-1.6,6.4
		c-0.4,1.4,0,2.9,0.9,4c-1.3,0.7-2.7,1.4-3.9,2.2c-5.4,3.3-10.8,6.6-16.1,9.9c-1.6,1-3.1,2.2-4.6,3.4c-0.8,0.6-1.1,1.3-0.2,2
		c2.2-1.5,4.3-3,6.4-4.4c3.4-2.1,6.8-4.1,10.2-6.2c7.9-4.9,16.5-8.4,25.1-11.6c8.3-3.1,17-4,25.8-4.4c1.4,0,2.7-0.3,3.9-0.9
		l-0.5-0.9c2.2-0.3,4.3-0.6,6.5-0.8s4.2-0.1,6.4-0.2c1.1,0.1,2.1,0.3,3.2,0.3c1.3,0,2.5-0.2,3.8-0.1
		C155,215.7,157.3,216.1,159.6,216.3z"/>
	<path class="st6" d="M264.4,318.6c-4.5,3.1-9.5,5.2-14.9,6.2c-2.9,0.6-5.8,1-8.7,1.5c-0.6,0.1-1.1,0.3-1.7,0.6
		c-0.2-2.1-0.5-4.2-0.6-6.3c-0.4-6.6-2.9-12.9-7.2-17.9c-2.8-3.5-6.7-5.8-10.5-8.1c-4.3-2.6-8.5-5.4-12.7-8.1
		c-0.2-0.2-0.5-0.5-0.7-0.7c2.9-4.5,6.9-8.2,11.6-10.9c3.2-1.8,6.5-3.4,9.9-4.9c1.9-0.7,3.9-1.3,5.9-1.7c0.6-0.1,1.3,0,1.9,0.2
		c1.9,0.6,3.8,1.3,5.6,1.9c0.3,0.5,0.6,0.9,1,1.3c6,4.5,10.1,10.5,13,17.1c3.3,7.1,6.1,14.4,8.4,21.8c0.7,2.3,1.5,4.5,0.6,7l0,0
		C264.8,317.7,263.9,317.5,264.4,318.6z"/>
	<path class="st3" d="M199.5,390.4c0.5,4.3,3.2,8,7.2,9.7c4.3,2,8.6,4.1,13,6c2.7,1.2,5.6,1.8,8.6,1.8c0.9,0,1.8,0,2.6,0
		c4.7,0.2,8.6-1.7,12.3-4.5c3.1-2.3,5.6-5.2,7.6-8.5c0.4-0.5,0.9-1,1.5-1.4c-2.3,5.3-4.4,10.7-7.1,15.9c-2.1,4-4.8,7.7-7.2,11.5
		c-0.3,0.5-0.9,1.1,0.4,1.7c3.8-3.7,6.1-8.6,8.7-13.1s4.6-9.6,6.8-14.4l0.4,0.1c-0.3,0.9-0.5,1.7-0.8,2.5c-1.4,3.4-2.8,6.8-4.3,10.1
		c-0.3,0.8-0.4,1.3,0.6,1.7l2.4-4.1c1,1.3,2.4,2.3,4,2.7c2.8,0.9,5.5,2,8.3,2.9c1.6,0.5,3.4,0.8,5,1.1l-4.8,8l1.9,0.1l0.1,0.1
		c-1.8,2.1-3.8,4.1-5.9,5.9c-1.3,1-3,1.6-4.6,1.7c-2.5,0-5.1-0.1-7.6-0.3c-7.2-0.3-14.4-1.2-21.7-0.3c-4.7,0.5-9.4,0.7-14.1,0.6
		c-4.7,0.1-9.2-1.8-12.4-5.3c-3.4-3.6-6.6-7.5-9.9-11.4c-1.8-2.1-3.9-4-4.9-6.7c-0.1-0.4-0.3-0.7-0.5-1.1c0.4-0.3,0.8-0.6,1.2-0.9
		c4.2-2.5,7.8-5.8,10.8-9.7C197.8,392,198.6,391.2,199.5,390.4z"/>
	<path class="st5" d="M201.5,368c5.6-6.6,10.1-13.9,14.5-21.3c2.1-3.5,4.7-6.8,7.1-10.2c3.6-5,6.7-10.3,9.3-15.9
		c0.4-0.8,0.9-1.5,1.4-2.2c0.7,0.9,1.1,2,0.9,3.1c-0.2,8.5-2.6,16.8-6.9,24.1c-5.7,9.7-12.7,18.4-19.8,27
		c-3.9,4.8-7.7,9.5-11.7,14.2c-2.6,3.1-5.4,6.1-8.2,9.1c-1.4,1.6-3.3,2.6-5.4,3c-3.8,0.6-7.7,1.2-11.6,1.5c-3.6,0.3-7.3,0.4-11,0.4
		c-5,0-10-0.3-15.1-0.5c-2.9-0.1-4.6-1.7-6.1-3.9c-2.3-3.5-3.6-7.5-5.1-11.3c-1.3-3.2-2.5-6.4-3.7-9.6c-0.4-1-0.6-1.9-0.9-3.1
		c5.7-2,9.8-6.2,14.5-9.5c1.5,4.2,2.9,8.4,4.7,12.5c1.3,3.5,3.6,6.6,6.6,9c1.8,1.2,3.8,2.1,5.9,2.5c5.8,1.3,11.8,1.8,17.8,1.5
		c0.8-0.1,1.5-0.4,2.2-0.8c1.2-0.7,2.2-1.6,3.4-2.3c0.6-0.3,1.3-0.5,1.9-0.6l-6.7,7c0.9,0,1.4,0.1,1.7-0.1c0.8-0.5,1.6-1.1,2.3-1.8
		c2.7-2.7,5.4-5.4,7.9-8.3c3.1-3.6,6.1-7.4,9.2-11C201.3,369.9,201.6,369,201.5,368z M231,331c-0.4,0.1-0.9,0.1-1.1,0.3
		c-0.7,0.8-1.3,1.6-1.8,2.5c-1.3,2.2-2.4,4.5-3.7,6.7c-4.9,7.6-9.8,15.1-14.8,22.6c-2.6,3.9-5.4,7.7-8.1,11.5
		c-1,1.4-2.3,2.7-3.3,4.1c-0.3,0.6-0.4,1.2-0.5,1.8c0.7-0.3,1-0.3,1.2-0.5c9.9-11.3,18-24,26-36.6c2.3-3.7,4.3-7.7,6.3-11.5
		C231.3,331.7,231.1,331.4,231,331L231,331z M190.6,387.5c-2.3,0.4-3.4,2-4.9,2.9s-3,1.9-4.8,3c0.8,0.4,1.3,0.7,1.4,0.6
		c2.5-1.6,5.1-3.2,7.5-4.9C190.2,389,190.3,388.4,190.6,387.5L190.6,387.5z"/>
	<path class="st5" d="M168.7,92.1c0.9,0.2,1.8,0.4,2.7,0.6c1.9,0.5,3.7,1.1,5.6,1.6l-1.2,0.8c0.6,0.4,1.3,0.8,2,1.2
		c6.2,2.4,11.9,5.6,17.1,9.6c0.6,0.3,1.3,0.5,2,0.5l3,2c-1.8,1.2-4,1.1-6,1.4c-0.7,0-1.4-0.2-2-0.6c-4-2.4-8-5-12.1-7.3
		c-5.3-2.8-11-4.9-16.8-6.2c-5.2-1.4-10.6-2.5-15.8-3.6c-1.8-0.4-3.6-0.7-5.4-0.7c-3.6-0.1-7.3-0.9-11-0.2c-2.4,0.4-4.9,0.2-7.4,0.6
		c-4.4,0.6-8.8,1.4-13.2,2.2l-2.1,0.3c0.2-0.7,0.4-1.3,0.6-2c2.7-5.5,5.7-10.9,9.9-15.5c1.9-2.1,3.7-4.2,5.5-6.3
		c2.1-2.4,4.7-4.4,7.5-5.9c6.9-3.7,13.8-7.4,20.7-11.2c7.3-4,15.1-6.4,23-8.8c2.5-0.8,4.9,0,7.3,0.4c4.6,0.7,8.9,2.9,12.3,6.1
		c1.2,1.3,2.3,2.6,3.3,4.1c-0.5-0.1-1.1-0.2-1.6-0.5c-4.6-2.5-9.5-2.3-14.3-1c-4.1,1.1-8.3,2.2-12.3,3.7c-3.4,1.3-6.8,2.8-10,4.5
		c-3.3,1.8-6.5,3.7-9.5,5.8c-2,1.4-3.9,3-5.7,4.7c-3.3,3.3-6.5,6.6-9.5,10.1c-1,1.2-1.3,3-1.9,4.5c-0.3,0.1-0.6,0.2-0.9,0.3
		c-5.2,0.2-10.3,0.9-15.4,2c-1.3,0.3-2.6,0.6-3.9,1c-0.8,0.2-1.2,0.8-0.6,1.7c0.7-0.1,1.3-0.2,1.9-0.4c8.2-2.1,16.6-3.1,25.1-2.8
		c4.4,0,8.8,0.2,13.1,0.7c4.7,0.6,9.4,1.9,14,2.8C167.4,92.2,168.1,92.2,168.7,92.1z"/>
	<path class="st3" d="M281.1,409.7c1.2,0.9,2.4,1.7,3.8,2.4c2.4,0.8,4.9,0.9,7.3,0.3c3.4-0.7,6.6-1.6,10-2.3
		c2.2-0.5,4.5-0.7,6.8-0.8c6-0.1,12-0.1,18,0c4.6,0,9.2-0.5,13.7-1.5c0.6-0.1,1.1-0.7,1.7-1.1l0,0l2.8-0.3c0,0.9,0.4,1.5,1.3,0.9
		c0.7-0.4,1.3-0.9,1.7-1.6c2.1-3.2,4.1-6.4,6-9.6c0.4-0.7,0.9-1.6-0.1-2.3c1-2.9,2.1-5.7,3-8.7c0.3-1.4,0.4-2.8,0.4-4.2
		c1.5,0.2,1.4-0.9,1.4-1.8c0.3-7.2-0.1-14.4-1.3-21.5c-0.1-0.9-0.3-1.9-0.5-2.8c-0.3-1-0.9-0.5-1.5-0.2c-0.2-1-0.4-2-0.6-2.9
		c-0.1-0.8-0.3-1.6-0.4-2.5c2.1,0.8,3.6,2.6,4,4.8c1.1,5.3,3,10.4,3.2,15.9c0.2,4.5,0.6,9.1,0.3,13.6c-0.3,5.8-2.2,11.4-5.3,16.2
		c-1.4,2.2-3,4.3-4.5,6.5c-1.2,1.7-2.8,3.1-4.6,4.1c-5.8,3.6-12.3,5.8-18.8,7.6c-5.6,1.5-11.3,2.7-16.9,4.5c-3.6,1.1-7,2.9-10.6,4.4
		c-2.2,0.9-4.4,1.9-6.7,2.6c-2.4,0.8-4.9,0.1-7.3-0.1c-2.9-0.3-5.6-1-8.5-1.4c-2.1-0.3-4.3-0.5-6.4-0.8l-4.5-0.6
		c0.1-0.4,0.3-0.8,0.6-1.2c4.3-4.6,8.2-9.6,11.6-14.9C280.6,410.1,280.8,409.9,281.1,409.7z"/>
	<path class="st0" d="M241,46c4.1,0.9,8.2,1.7,12.3,2.7c0.6,0.2,1.1,1,1.6,1.5c-0.3,0.4-0.5,0.8-0.8,1.2c-2.1,2.6-3.9,5.5-6.4,7.7
		c-4.2,3.7-8.8,7.1-13.3,10.4c-4,2.9-7.4,6.6-9.9,10.9c-0.4,0.5-0.8,1-1.2,1.4l-0.3-2.1c-0.1-2.5-0.5-4.8-2.3-6.7l-1.6-4.4
		c-0.1-0.9-0.4-1.8-0.7-2.7c-3.4-5.9-7.5-11.4-12.1-16.3c0.2-1.2,1.1-2.2,2.4-2.4c4.2-1.2,8.5-1.9,12.9-2c4.8,0,9.5,0.3,14.3,0.5
		C237.5,45.7,239.2,45.8,241,46z"/>
	<path class="st7" d="M255.3,265.5c-1.2,2.7-2.5,5.5-3.7,8.3c-4-3.9-8.9-6.7-14.3-8.2c-5.4-1.5-10.4-4-15.5-6.2
		c-3.1-1.3-5.9-3.2-8.9-4.5c-3.3-1.4-6.8-2.4-10.2-3.4c-2.2-0.7-4.2,0.1-6.4,1.3c-2.9-5.6-5.2-11.5-7-17.6c2.5-2.6,6.3-3.6,9.8-2.5
		c0.4,0.4,0.9,0.7,1.4,0.9c7.8,2.9,14.7,7.2,21.4,12c2.9,2.1,5.5,4.6,8.6,6.4c3.7,2.3,7.7,4.1,11.7,6.1s7.9,3.8,11.9,5.6
		C254.7,263.9,255.3,264.7,255.3,265.5z"/>
	<path class="st8" d="M366.5,390c0.7-3.8,1-7.7,0.9-11.6c-0.1-5.9-0.8-11.9-2-17.7c-0.6-2.7-1.3-5.4-2-8.1c0.9-0.1,1.9-0.3,2.7-0.7
		c4.4-2.3,8.7-4.6,13-7.1c4.6-2.7,9.5-4.4,15-3.8l1.1,2.4l-3.3,1.5c-0.3,0.3-0.9,0.5-0.9,0.9c-0.2,1-0.4,2-0.4,3
		c0,5.9-1,11.8-3,17.5c-0.5,1.5-1.1,3-1.6,4.5c-1.8-0.2-1.8-0.2-1.5-1.7c0-0.6,0-1.1-0.1-1.6c0.7-3.1,1.5-6.2,2.1-9.3
		c0.4-1.7,0.7-3.4-0.1-5.1c-1.4,0-1.4,0.8-1.5,1.8c-0.2,2.1-0.5,4.1-0.9,6.1c-1.6,6.7-3.9,13.2-6.9,19.3c-1.4,3.3-3.2,6.4-5.4,9.3
		l-0.4,0.4l-0.6,0.6C369.3,390.5,367.8,391.4,366.5,390z M381.2,363.3c-1.8,0.5-1.5,2.3-2.2,3.4c-0.7,1.3-1.3,2.7-1.7,4.2
		c-0.3,1.2-1.8,2.2-1,3.8C378.4,373.1,381.4,365.9,381.2,363.3L381.2,363.3z"/>
	<path class="st9" d="M225,194.8l1.3-0.1c0.8,0.3,1.1,1.2,0.9,2c-0.6,2.1,0.3,3.4,2,4.6c1.2,0.9,2.4,1.9,3.6,2.9l-1.4,2.8
		c-0.9,0.8-0.5,1.8-0.4,2.7s0.2,2,0.3,3.3h-8.7c1.7,1.8,2,1.8,8.3,1.6c0.6,1.9,0.3,4-0.9,5.6c-0.8,0.9-1.9,1.4-3.1,1.4
		c-2.6,0.1-5.3-0.1-7.9-0.5c-1.2-0.3-2.2-0.9-3.1-1.7c-3.2-2.8-6.4-5.8-9.7-8.8c-3.9,0.4-6.3-0.9-7.5-4.3c-0.8-2.1-0.2-3.4,1.8-4.4
		c-0.7,1.6-0.7,1.6,2,2.3v2.4l1.8-0.8l1.4,1.2c0.6-1.8-0.3-3.8-2.1-4.5c-0.1,0-0.1,0-0.2-0.1c-1-0.3-2-0.5-3-0.6
		c1-1.2,2.6-1.5,3.9-0.8c0.5,0.3,0.9,0.6,1.4,0.9c2.2,1.6,5.1,1.5,7.2-0.2c3.2-2.1,3.9-4.6,2.1-8.4c-0.4-0.8-0.9-1.6-1.5-2.3
		c1.1-0.7,2.3-1.1,3.6-0.9c3.3-0.1,3.7-0.4,4.8-3.7c2.1,1.6,3.9,3.5,5.3,5.8c-4.3-0.8-7.3,1.1-9.8,3.9c-0.9,0.7-1.3,2-0.9,3.1
		l7.5-4.4L225,194.8z M219.7,202.9c1.5,1.2,3,0.2,4.5,0c1.5-0.7,1.8-1.1,1.4-2.7c-0.2-1.2-0.6-2.3,0.6-3.2c0.1-0.1-0.2-0.8-0.3-1.2
		c-3,0.9-4.5,2.1-5.8,4.4C219.6,201.1,219.1,201.9,219.7,202.9L219.7,202.9z"/>
	<path class="st5" d="M219.1,68.4l1.6,4.4c-0.2,0.4-0.6,0.9-0.5,1.2c0.4,1.5,0.9,3,1.4,4.5c0.2,0.6,0.6,1.1,1.4,1
		c0.1,0.7,0.1,1.4,0.2,2.1s0.2,1.2,0.4,1.8l-2.6,2.1c-0.9-2.6-1.7-5.4-2.8-8.1c-0.7-1.9-1.6-3.8-2.8-5.6
		c-4.6-6.8-9.1-13.6-13.9-20.3c-1.7-2.2-3.6-4.3-5.6-6.2c1.9-1.2,4-2.1,6.2-2.5c3.1-0.5,6.1-0.9,9.2-1c3.4-0.2,6.7-0.2,10.1,0
		c3.1,0.1,6.2,0.4,9.2,1c3.5,0.8,6.8,2.1,10.2,3.2c-1.7-0.1-3.5-0.3-5.2-0.4c-4.8-0.2-9.5-0.5-14.3-0.5c-4.4,0.1-8.7,0.8-12.9,2
		c-1.2,0.2-2.2,1.2-2.4,2.4c-1.1-0.9-2.2-1.8-3.3-2.7c-0.6-0.5-1.3-1.3-2.5-0.3c0.9,0.9,1.8,1.7,2.6,2.5c2.2,2,4.3,4.2,6.3,6.5
		c2.8,3.6,5.2,7.4,7.8,11.2C217.6,67.5,217.9,68.5,219.1,68.4z"/>
	<path class="st10" d="M183.3,157.6c0.3-3.2,0.6-6.5,0.8-9.7c0.2-2.4,0.4-4.7,0.6-7.1c0.1-3.1,1.1-6.2,2.9-8.7
		c1-1.4,1.7-3.1,2.6-4.6c1.9-3.3,1.4-6.3-1-9c-3.2-3.6-6.6-6.9-11-9.1c-2.9-1.4-5.6-3.3-8.6-4.8c-2.5-1.3-5.2-2.3-7.8-3.5
		c-1.2-0.6-2.3-1.3-3.4-2c5.7,1,11.2,2.7,16.4,5.1c6.4,3,12.5,6.7,18.1,11.1c1.7,1.2,2.5,3.3,2.2,5.4c-0.3,3.3-1.2,6.4-2.8,9.3
		c-2.2,4.3-3.8,8.8-4.8,13.5c-0.9,4-2.1,8-3.2,12C184,156.2,183.7,156.9,183.3,157.6z"/>
	<path class="st10" d="M197.7,268.7c-0.5-0.5-0.9-1-1.3-1.6c-2.7-4.7-5.4-9.3-8-14.1c-1.6-3.1-3.1-6.3-4.5-9.5
		c-0.8-1.8-1.3-3.7-2-5.6c-0.7-2-2.1-3.6-3.9-4.7c-4.1-2.3-8.6-3.8-13.3-4.4c-4.2-0.6-8.4-0.6-12.6-1c-5-0.4-10,0.2-15,0.2
		c-4.7,0-9.5,0.9-14.2,1.3c-1.2,0.1-2.4,0-3.6,0c2.2-0.4,4.3-1,6.5-1.3c5.1-0.7,10.3-1.2,15.4-1.7c5.9-0.5,11.7-1.2,17.6-1.2
		c6.4,0,12.9,0.2,18.9,3.3c1,0.6,2,1.3,2.7,2.3c2.7,3.9,5,8.2,6.8,12.6c2.7,6.4,5.6,12.7,8.3,19.1
		C196.4,264.4,197,266.6,197.7,268.7z"/>
	<path class="st10" d="M274.9,337.3c-2.1-0.4-4.2-0.6-6.3-1.1c-3.3-0.8-6.7-1.3-10.1-1.4c-2.5,0-4.9-0.2-7.4-0.5
		c-4.6-0.4-7.5,1.9-10.3,5.2c-4.6,5.4-7.9,11.8-12.4,17.2c-2.1,2.6-4,5.3-6.2,7.8c-1,0.9-2.2,1.7-3.4,2.4c1.4-1.9,2.7-3.9,4.1-5.8
		c4.7-5.9,8.7-12.3,11.9-19.1c1.6-3.6,2.6-7.5,3.9-11.5c4.4-1,9-0.7,13.7-0.4c6.5,0.6,12.8,2.3,18.7,4.9
		C272.3,335.8,273.7,336.5,274.9,337.3z"/>
	<path class="st10" d="M231.8,312.8c-2.1-1.7-4.1-3.5-6.3-5.1c-1.3-0.9-2.7-1.8-4.1-2.5c-3.8-1.7-7.3-3.9-10.7-6.3
		c-0.8-0.6-1.4-1.3-2.2-1.9c-1.1-0.9-2-0.8-2.7,0.5c-0.3,0.5-0.5,1-0.8,1.5c-1.7,4.1-4.6,7.5-7.3,10.9c-3.4,4.4-7.1,8.6-10.8,12.7
		c-2,2.1-4.2,4.1-6.5,6c-0.4,0.3-1,0.3-1.6,0.4c1.2-1.5,2.4-3,3.7-4.3c5.9-5.9,10.8-12.6,15.4-19.5c3.1-4.5,5.7-9.3,6.6-14.7
		c0.1-0.3,0.2-0.6,0.3-0.9c0,0,0.1-0.1,0.3-0.2c4.8,4.6,10.8,7.5,16.3,11.1c4.3,2.6,7.8,6.5,9.9,11.1
		C231.6,312,231.7,312.4,231.8,312.8z"/>
	<path class="st11" d="M391.9,345l3.4-1.5c1.4,4.4,1.2,9.2-0.3,13.6c-2.2,6.4-5.2,12.5-8.8,18.3c-5.4,8.5-11.9,16.2-19.3,23
		c-1.9,1.8-4.1,3.5-6.3,4.9c0-0.2,0.1-0.5,0.2-0.7c2.4-3.3,4.1-7,5-11c0.2-0.5,0.4-1,0.7-1.5c1.3,1.3,2.8,0.5,4.2,0.4l-1.1,1.9
		l0.3,0.4c0.4-0.1,1-0.1,1.3-0.5c1.5-1.6,2.9-3.3,4.2-5.2c3.3-5.5,6-11.4,8-17.5c0.3-0.7,0.6-1.4,0.9-2.1c0.1,0.5,0.1,1.1,0.1,1.6
		c-0.2,1.5-0.2,1.5,1.5,1.7l1.2,0.9c0.9-2.3,1.7-4.3,2.5-6.4c0.6-1.5,1-3,1.3-4.6c0.6-3.7,1.1-7.4,1.5-11
		C392.5,348.1,392.9,346.5,391.9,345z"/>
	<path class="st12" d="M205.7,283.5c-0.7-10.4-4.2-19.7-8.7-28.7c2-1.5,3.9-1.1,6-0.7c-0.3,1.6-2.5,2.7-0.9,4.6l3-3.9
		c1,0.3,1.8,0.5,2.5,0.8c2.7,0.9,3,1.1,2.9,3.9c-0.2,5.9-0.5,11.8-0.8,17.6c-0.1,1-0.5,2-1.2,2.8
		C207.5,280.9,206.6,282.2,205.7,283.5z"/>
	<path class="st10" d="M348.6,347.3c-4,0-7.9,0.7-11.7,2c-1.2,0.4-2.3,1-3.4,1.6c-6.5,3.7-13.6,6-20.9,7c-1.5,0.2-3,0.2-4.5,0.4
		c-2.1,0.3-4.2,0.6-6.3,0.9c-1.6,0.3-2.2,1.3-2.3,2.9c-0.7,7.2-2.2,14.3-4.7,21.1c-1.5,3.9-3.4,7.7-5.1,11.6c-0.2,0.4-0.6,0.6-1,1
		c3.4-7.9,5.6-16.3,7.8-24.6c1.3-4.8,1.4-9.8,0.4-14.7c-0.1-0.3-0.1-0.6-0.1-0.9c0-0.2,0.1-0.3,0.1-0.5c1.5-0.2,3.1-0.2,4.6-0.2
		c10.3,0.5,20.1-2.1,29.7-5.4c4.6-1.6,9.3-2.9,14.3-2.7C346.4,346.9,347.5,347.1,348.6,347.3z"/>
	<path class="st3" d="M275.8,403.6c1.5-3,3-5.9,4.4-8.9c0.2-0.6,0.4-1.2,0.5-1.8c0.7,0.1,1.2,0,1.5-0.8c0.5-1.7,1.2-3.3,1.6-5
		c1.5-5.4,3-10.7,4.2-16.1c0.4-2.1,0.5-4.3,0.5-6.4c0.1-4.4,0.2-8.8,0.3-13.1c0-1-0.5-1.3-1.4-1.1l-0.5-4c2.6,2.2,4.1,5.4,4.3,8.8
		c0.2,4.3,0.4,8.6,0.5,12.9c0,1.7-0.2,3.4-0.6,5c-2.1,10-5.7,19.6-10.6,28.6c-3.3,5.9-7.2,11.5-11.5,16.7c-0.4,0.4-0.8,0.8-1.2,1.1
		l-0.1-0.1c0.1-0.5,0.3-1,0.6-1.5c2.3-3.8,4.6-7.6,6.9-11.4C275.5,405.4,275.7,404.5,275.8,403.6z"/>
	<path class="st10" d="M223.6,83.5c-0.1-0.6-0.3-1.2-0.4-1.8c0.5-0.4,0.9-0.9,1.2-1.4c2.5-4.3,5.8-8,9.9-10.9
		c4.5-3.4,9.1-6.7,13.3-10.4c2.5-2.2,4.3-5.1,6.4-7.7c0.3-0.4,0.6-0.8,0.8-1.2c1.3,1.3,1.5,3.3,0.6,4.8c-0.8,1.7-2,3.3-3.5,4.5
		c-7.9,6.4-15.7,12.9-23.5,19.4C226.8,80.3,225.2,82,223.6,83.5z"/>
	<path class="st9" d="M201.2,221.2l4.8-7.6l9.8,9.8l-6.3,5.5C205.3,226.9,202.6,224.3,201.2,221.2z"/>
	<path class="st13" d="M212.1,183.8c-0.7,0.2-1.3,0.4-2,0.6c-1.7,0.4-3.1,1.3-4.1,2.7c-2.2,2.9-1.8,4.7-0.1,6.9
		c0.6,0.7,1.3,1.4,1.9,2.1c0.7,0.6,0.7,1.7,0.1,2.4c-0.7,0.9-1.6,0.5-2.3,0c-0.4-0.4-0.8-0.8-1.1-1.2c-0.5-0.4-1-0.7-1.5-0.9
		l0.2,2.4c-7.1,1.4-8.1,5.4-4.6,11.2c-1.8,1.4-2.1,1.3-4.5-0.2c0.4-0.3,0.7-0.6,1-0.9c1.6-1.3,1.9-3.6,0.6-5.2c-0.6-1-1.3-2-1.8-3.1
		c-0.8-1.6-0.3-2.4,1.4-2.8c0.9-0.2,1.8-0.1,2.6-0.2c1-0.2,2-0.5,2.9-1c2-1.1,2.4-3.1,1.4-5.2c-0.4-0.9-0.8-1.8-1.1-2.8l1.5-3.9l0,0
		c0.5-0.1,1.2-0.1,1.5-0.4c1.3-0.9,2.9-1.3,4.5-1C209.7,183.4,210.9,183.6,212.1,183.8z"/>
	<path class="st12" d="M268,274.4c-1.8,3.2-3,4.5-6,6.1l-7.8-3.9c0.3-4.2,1.3-8.1,4.3-11.4c0.1,0.2,0.2,0.5,0.4,0.6
		c3.2,2,6,4.7,8,7.9C267.1,274,267.7,274.2,268,274.4z M258.7,277.8c0.9,0.2,1.9-0.3,2.1-1.2c0-0.1,0.1-0.3,0.1-0.4
		c0.1-1.5-1.1-2.8-2.6-2.9c-0.9-0.2-1.9,0.3-2.1,1.2c0,0.1-0.1,0.3-0.1,0.4C256.1,276.4,257.3,277.7,258.7,277.8L258.7,277.8z"/>
	<path class="st14" d="M255.3,265.5c0-0.8-0.5-1.5-1.3-1.8c-4-1.9-8-3.7-11.9-5.6s-7.9-3.8-11.7-6.1c-3-1.9-5.7-4.4-8.6-6.4
		c-6.6-4.9-13.6-9.2-21.4-12c-0.5-0.3-0.9-0.6-1.4-0.9c4.9,0.9,9.5,2.7,13.8,5.2c6.4,4.1,12.6,8.4,18.8,12.8
		c3.2,2.3,6.8,3.6,10.2,5.3l13.9,6.9c0.4,0.2,0.8,0.5,1.1,0.8L255.3,265.5z"/>
	<path class="st15" d="M265.3,317.6c0.9-2.4,0.1-4.6-0.6-7c-2.3-7.4-5.1-14.7-8.4-21.8c-3-6.6-7.1-12.6-13-17.1
		c-0.4-0.4-0.7-0.8-1-1.3c4.4,1.3,8.2,4.3,10.5,8.3c4.6,8.2,8.5,16.8,11.9,25.6c1.3,3.4,2.4,6.9,3.7,10.6L265.3,317.6z"/>
	<path class="st10" d="M177.3,211c-0.2-0.2-0.4-0.3-0.5-0.5c-1.2-3.4-2.6-6.9-3.4-10.4c-0.4-1.5,0.3-3.3,0.5-4.9
		c0.1-0.8,0.5-1.5,0.6-2.3c0.3-1.9-0.2-3.8-1.4-5.3c-2.1-2.9-5-4.3-8.2-5.4c-4.4-1.5-8.8-3.1-13.2-4.7c-0.6-0.3-1.1-0.6-1.6-1
		c1.9,0.3,3.8,0.6,5.6,1c4.9,1.2,9.8,2.3,14.2,4.9c0.2,0.1,0.4,0.2,0.6,0.3c5.2,3,7.2,6.4,6,13.1c-0.5,2.4-0.5,4.9-0.1,7.3
		C176.9,205.8,177.1,208.4,177.3,211z"/>
	<path class="st9" d="M273,287.9c-0.8-0.5-0.3-2.3-2.1-1.9c-0.5,3.6,0.6,7.4-1.1,11.2c0-3.4-0.3-6.8-0.9-10.2
		c-1.6,1.1-0.7,2.5-1,3.6l0.3,0.6c0,0.5,0,1,0,1.4h-0.8c-0.5-1.4-0.1-3.1-1.5-4.8c-1.2,2.9,1,5.6-0.5,8.2c-0.8-4.3-1.6-8.7-2.3-12.8
		l6.5-6.2c0.2,0.5,0.4,1,0.6,1.6c0.9,2.3,2,4.5,2.8,6.8C273.1,286.2,274,287,273,287.9z"/>
	<path class="st10" d="M394.3,341.1c-5.5-0.6-10.3,1.2-15,3.8c-4.3,2.5-8.6,4.8-13,7.1c-0.9,0.3-1.8,0.6-2.7,0.7
		c-0.4-0.9-0.7-1.8-1.1-2.8l2.2-0.9c5.7-2.4,11.4-4.9,17.1-7.2c2.2-0.9,4.5-1.6,6.8-2.1C390.5,339.3,392.6,339.4,394.3,341.1z"/>
	<path class="st10" d="M207.3,104.7c0.8-1.2,1.6-2.5,2.4-3.7c3-3.6,4.5-8.1,4.3-12.8c0-0.6-0.1-1.3-0.3-1.9c-1-4.5-2-9-3.9-13.2
		c-0.1-0.4-0.1-0.8-0.1-1.2c0.2,0.1,0.5,0.2,0.6,0.3c3.7,5.8,6.2,11.8,6.5,18.8c0.2,2.7-0.8,5.4-2.6,7.5
		C212,100.7,209.7,102.8,207.3,104.7z"/>
	<path class="st13" d="M199.1,185.7c-0.4,2,0,4.2,0.9,6c1,1.7,0.4,2.7-1.5,3.1c-1.2,0.2-2.4,0.3-3.6,0.4c-3.1,0.5-4.5,2.4-3.5,5.4
		c0.6,1.5,1.4,3,2.3,4.4c0.6,1,0.6,1-0.4,2.2l-2.3-1.9c-0.1,1.6-0.3,2.6-0.4,4l-3.2-1.4c0.9-0.8,1.7-1.4,2.3-2.1
		c1-0.9,1.1-2.5,0.2-3.5c-0.2-0.2-0.4-0.4-0.7-0.5c-1.6-0.9-2.5-2.2-1.7-4.1c1.8-0.8,3.6-1.7,5.4-2.5c0.3-0.2,0.5-0.6,0.8-0.9l0,0
		c2.3-0.5,3.2-1.7,3.4-4.1C197.3,188.4,197.3,186.7,199.1,185.7z"/>
	<path class="st12" d="M183.6,227.6c3.2-2.1,6.4-3.8,10.1-4l3.2,5.4c-3.2,0.9-6.5,1-8.6,4.1L183.6,227.6z"/>
	<path class="st13" d="M216.9,187.5c-1.3,0-2.5,0.2-3.8,0.4c-2.6,0.8-3.1,2.2-1.7,4.5c0.5,0.9,1.2,1.7,1.7,2.6
		c0.9,1.7,0.3,3.2-0.9,4.6c-1,1.5-2.9,2-4.5,1.3c0.4-0.3,0.6-0.5,0.9-0.7c1.6-1.2,1.8-3.5,0.6-5.1c-0.1-0.1-0.1-0.2-0.2-0.2
		c-0.5-0.6-1.1-1.2-1.6-1.8c-1.7-2-1.7-3.3,0.1-5.2c0.3-0.3,0.7-0.6,1.1-0.9l1-0.5l0,0h2.8C214,186.4,215.6,186.7,216.9,187.5z"/>
	<path class="st12" d="M211.8,257.3l2.5,1.4c0.5,5.9-0.4,11.7-2.5,17.2V257.3z"/>
	<path class="st13" d="M188.1,191c0-0.1,0.1-0.1,0.2-0.1c2.6-0.1,4-1.3,4.1-3.6c0.2-3.6,1.9-5.3,5.8-5.5c-1.7,1.3-3.7,2.3-4.1,4.7
		c-0.2,1.1-0.3,2.2-0.3,3.3c0,1.7-0.5,2.5-2.1,3c-1.4,0.4-2.8,0.6-4.3,1c-0.4-0.8-1.4-1.6,0.1-2.4L188.1,191z"/>
	<path class="st13" d="M235.9,185.1c-0.6,3.2-2.4,4.2-5.2,2.7c-0.8-0.4-1.4-1-2.2-1.4c-1.1-0.7-2.2-1.3-3.3-1.8
		c-1.9-0.8-2.7-0.7-5.9,0.5c0.6-1.5,1.8-2.6,3.3-3.1c1.6,0.3,3.1,1,4.5,1.9c0.7,0.4,1.4,0.9,2,1.3c1.4,1,3.2,1.2,4.7,0.6
		L235.9,185.1z"/>
	<path class="st13" d="M186,213.8c3.3,0.6,4.1-1.8,5.6-3.2l4.4,2.6c-1,1.2-2.3,0.8-3.6,0.4c-0.6,1.3-0.6,1.3,1.7,3.3
		C191.7,217.5,189.2,216.7,186,213.8z"/>
	<path class="st16" d="M273,287.9c1-0.8,0.2-1.7-0.1-2.4c-0.9-2.3-1.9-4.5-2.8-6.8c-0.2-0.5-0.4-1-0.6-1.6l0.9-1.5
		c1,2.6,2,4.9,2.8,7.1c0.7,1.6,1.3,3.2,1.8,4.9c0.2,1.1,0.3,2.2,0.2,3.3c-0.1,0.9-0.3,1.8-0.5,2.6c-1-0.9-0.7-2.1-0.9-3.2
		c-0.1-0.4-0.2-0.7-0.4-1.1S273.2,288.3,273,287.9z"/>
	<path class="st12" d="M203.9,230.8c-4.1-0.3-5.9-3.2-7.4-6.5c-0.9-2,0.8-2.8,2-4l0.6,1.9c-0.9,0.8-0.3,1.6,0,2.4
		C200.1,227.1,202.3,228.7,203.9,230.8z"/>
	<path class="st13" d="M222.3,180l-5.1,3.6c-1.7-0.6-2.2-1.5-2.1-4.3l0.3-0.5l0,0C217.8,178.2,220.2,178.1,222.3,180z"/>
	<path class="st16" d="M198.2,181.8c-3.9,0.2-5.6,1.9-5.8,5.5c-0.1,2.3-1.4,3.5-4.1,3.6c2.4-1.1,3.7-3.8,3.1-6.3
		c-0.4-1.2,0.3-2.5,1.5-2.8c0,0,0,0,0.1,0c1.9-0.6,3.8-1,5.7-1.3c0.5-0.1,1.1,0.4,1.7,0.6c0,0.1,0,0.1,0,0.2
		c-0.1,0.1-0.1,0.1-0.2,0.1L198.2,181.8L198.2,181.8z"/>
	<path class="st14" d="M268,274.4c-0.4-0.2-0.9-0.4-1.1-0.7c-2-3.2-4.8-5.9-8-7.9c-0.2-0.1-0.3-0.4-0.4-0.6l1.5-1.6
		c1.4,1.4,2.7,2.6,3.9,4s2.5,3.1,3.7,4.7C268.1,272.9,268.7,273.6,268,274.4z"/>
	<path class="st16" d="M231.3,207l1.4-2.8c-1.1-1-2.3-2-3.6-2.9c-1.7-1.1-2.7-2.4-2-4.6c0.3-0.8-0.1-1.7-0.9-2l1-1.5l0.5,0.1
		c0.2,1.1,0.4,2.2,0.4,3.3c0,1.1,0.5,2.2,1.4,2.9c0.8,0.7,1.6,1.5,2.4,2.2s1.5,1.4,2.5,2.2L231.3,207z"/>
	<path class="st16" d="M235.9,185.1l-2,0.7c-1.6,0.6-3.4,0.4-4.7-0.6c-0.6-0.5-1.3-0.9-2-1.3c-1.4-0.9-2.9-1.6-4.5-1.9
		c2.1-0.6,4.4-0.1,6,1.4c0.4,0.3,0.8,0.6,1.2,0.8c2.7,1.2,4.4,0.3,5.7-2.9C236.2,182.4,236.3,183.9,235.9,185.1z"/>
	<path class="st13" d="M196.3,215.6c0.7-0.6,1.5-1.2,2.1-1.9c0.6-0.7,1.1-1.4,1.6-2.2l3.9,1.7c-0.6,0.8-1.1,1.9-1.8,2.1
		C200.4,215.9,198.5,216.9,196.3,215.6z"/>
	<path class="st16" d="M199.1,185.7c-1.8,1-1.9,2.8-2,4.5c-0.1,2.5-1.1,3.6-3.4,4.1c1.4-1.4,2-3.4,1.9-5.4c-0.1-3.4,1.2-4.8,4.8-5.3
		L199.1,185.7z"/>
	<path class="st14" d="M203.9,230.8c-1.6-2.1-3.8-3.7-4.8-6.2c-0.3-0.8-0.9-1.6,0-2.4c2.2,4.3,5.7,7.9,10.1,10.1l-0.2,0.4l-2.4-0.9
		L203.9,230.8z"/>
	<path class="st16" d="M212.1,183.8c-1.2-0.2-2.5-0.4-3.7-0.5c-1.6-0.3-3.2,0.1-4.5,1c-0.4,0.3-1,0.3-1.5,0.4c2.2-3.3,6.7-4.2,10-2
		c0.4,0.3,0.8,0.6,1.2,1L212.1,183.8z"/>
	<path class="st6" d="M263.4,326.7l-6.2-0.6l-0.1-0.3l5.8-3L263.4,326.7z"/>
	<path class="st16" d="M222.3,180c-2.1-1.9-4.4-1.8-6.9-1.1c1.3-2,2.7-2.6,5-1.9c1.4,0.4,2.5,1.2,3.3,2.5L222.3,180z"/>
	<path class="st10" d="M230.9,196.7c-0.7-2.4-0.1-4.8-2-6.5c1.3,0.4,2.9,0,3.4,1.7S232.3,195.1,230.9,196.7z"/>
	<path class="st10" d="M200.6,174.5l3.9,5.6c-1.8,0.3-3-0.1-3.8-1.5C199.7,177.4,199.7,175.7,200.6,174.5z"/>
	<path class="st14" d="M216.9,187.5c-1.3-0.8-2.9-1.1-4.5-0.9h-2.8c2.2-1.2,4.8-1.5,7.2-0.9c1,0.1,1.9,0.8,2.4,1.8
		C218.4,188.2,217.6,187.8,216.9,187.5z"/>
	<path class="st13" d="M214.5,176.5l-1.8,4.1l-2.6-0.9c0.3-0.7,0.6-1.2,0.8-1.8L214.5,176.5z"/>
	<path class="st15" d="M263.4,326.7l-0.5-3.9l1.2-1c0.4,1.8,0.7,3.4,1.1,5.4L263.4,326.7z"/>
	<path class="st7" d="M193.8,194.3c-0.3,0.3-0.4,0.7-0.8,0.9c-1.8,0.9-3.6,1.7-5.4,2.5c0.4-1.5,1.5-2.1,2.9-2.4L193.8,194.3z"/>
	<path class="st13" d="M209.1,176.5c-0.3,0.9-0.6,1.7-0.9,2.7c-0.9-0.5-2.1-0.3-2.2-1.7L209.1,176.5z"/>
	<path class="st12" d="M214.5,176.5l-3.6,1.5c0.8-1.7,2.6-2.8,4.4-2.7l0.5,0.5L214.5,176.5z"/>
	<path class="st16" d="M202.4,184.7l-1.4,3.9C200.6,186.8,200.8,186.2,202.4,184.7z"/>
	<path class="st14" d="M209.1,176.5l-3.1,1c0.5-1.2,1.7-2,3-1.9C209,175.7,209,176.2,209.1,176.5z"/>
	<path class="st12" d="M267.3,292.7h0.8v3.8h-0.2L267.3,292.7z"/>
	<path class="st12" d="M212.2,230.9c0.1,0.2,0.2,0.5,0.2,0.8c-0.2,0.5-0.4,0.9-0.7,1.3v-2.1L212.2,230.9z"/>
	<path class="st15" d="M264.4,318.6c-0.5-1.1,0.4-0.9,1-1L264.4,318.6z"/>
	<path class="st10" d="M150.2,176.5l-2-0.5L150.2,176.5z"/>
	<path class="st13" d="M198.1,181.9l2-0.4L198.1,181.9z"/>
	<path class="st10" d="M179,329.1c0.1,0.5-0.2,0.9-0.6,1c-0.1,0-0.2,0-0.4,0L179,329.1z"/>
	<path class="st5" d="M92.1,174.7l-1.4,0.4L92.1,174.7z"/>
	<path class="st3" d="M267.7,419.4l-1,0.9l-0.1-0.1c0.3-0.3,0.6-0.7,0.9-1L267.7,419.4z"/>
	<path class="st10" d="M198.2,269.7l-0.5-1L198.2,269.7z"/>
	<path class="st14" d="M209.7,186.6l-1,0.5L209.7,186.6z"/>
	<path class="st10" d="M209.7,72c-0.2-0.4-0.3-0.8-0.5-1.2C209.4,71.2,209.5,71.6,209.7,72z"/>
	<path class="st10" d="M217.8,368l-0.7,1L217.8,368z"/>
	<path class="st2" d="M225,194.8l-0.9,0.3L225,194.8z"/>
	<path class="st10" d="M232.3,313.8l-0.6-1L232.3,313.8z"/>
	<path class="st10" d="M276,337.8l-1.1-0.5L276,337.8z"/>
	<path class="st9" d="M273.5,289.3c0.1,0.4,0.3,0.7,0.4,1.1C273.8,290,273.7,289.7,273.5,289.3z"/>
	<path class="st12" d="M268,291.2l-0.3-0.6L268,291.2z"/>
	<path class="st10" d="M178,330.1c-0.2,0.2-0.4,0.3-0.6,0.5C177.6,330.4,177.8,330.2,178,330.1z"/>
	<path class="st10" d="M218.8,367l-0.5,0.5L218.8,367z"/>
	<path class="st10" d="M218.3,367.5l-0.5,0.5L218.3,367.5z"/>
	<path class="st16" d="M215.4,178.9l-0.3,0.5L215.4,178.9z"/>
	<path class="st16" d="M188.1,191l-0.6,0.4L188.1,191z"/>
	<path class="st17" d="M348.5,225.8c1.2,4.7,2.2,9.5,4.1,14c4,10.2,9.8,19.6,17.1,27.8c2.2,2.4,4.9,4.3,7.4,6.4
		c1,0.8,1.9,1.6,2.8,2.3c-3.8,2.7-7.5,5.3-11,8c-4.8,3.5-9,7.7-12.3,12.6c-3.2,4.7-5.8,9.8-7.7,15.1c-0.6,1.8-1.3,3.6-1.9,5.4
		c-0.1-5.7,0-11.5-1-17.1c-0.8-4.7-2.5-9.3-4.8-13.4c-2.4-4.1-5.3-7.8-8.6-11.1c-0.5-0.5-0.9-1-1.5-1.7l1.7-1.8
		c1.5-1.4,3-2.9,4.3-4.5c4.2-5.6,7.2-11.9,9-18.6c1.8-6.5,2.1-13.2,2.4-19.9C348.4,228,348.4,226.9,348.5,225.8z"/>
	<path class="st18" d="M348.5,225.8c-0.1,1.1-0.1,2.2-0.2,3.3c-0.3,6.7-0.6,13.4-2.4,19.9c-1.7,6.7-4.8,13.1-8.9,18.6
		c-1.4,1.6-2.8,3.1-4.3,4.5l-1.7,1.8c0.6,0.7,1,1.2,1.5,1.7c3.4,3.3,6.3,7,8.6,11.1c2.4,4.2,4,8.7,4.8,13.4c1,5.7,0.9,11.4,1,17.1
		c-0.1,0.2-0.1,0.4-0.3,1.2c-0.4-1.1-0.6-1.7-0.8-2.3c-1.9-6.6-4.3-13-7.3-19.2c-5.2-10.2-12.2-18.9-22-25.3l3.3-1.5
		c4.2-2.1,8-4.8,11.4-8.1c4.1-3.7,7.5-8,10.2-12.9c3.1-5.4,5-11.4,5.4-17.7c0.2-2.5,0.3-4.9,0.4-7.4h0.8
		C348.3,224.7,348.4,225.2,348.5,225.8z"/>
	<path class="st15" d="M348.2,224.1h-0.8v-2.4l0.4-0.1C347.9,222.4,348,223.3,348.2,224.1z"/>
	<path class="st19" d="M257.7,100.7c1.6,4.9,3.2,9.8,5,14.7c3.3,9,9.5,15.3,17.6,20.1c1.1,0.6,2.2,1.3,3.5,2.1
		c-0.8,0.3-1.3,0.6-1.8,0.7c-4.8,1.8-9,4.9-12.1,9c-4.4,5.6-7.6,12-9.5,18.9c-0.3,0.9-0.5,1.8-0.7,2.7c-0.9-11.5-4.6-21.9-12.1-30.8
		c0.9-1.2,1.6-2.3,2.4-3.4c3.6-4.7,5.1-10.2,6.7-15.8c0.8-2.7,1.1-5.5,1-8.3C257.6,107.4,257.7,104,257.7,100.7z"/>
	<path class="st18" d="M257.7,100.7c0,3.3-0.1,6.7,0,10.1c0.1,2.8-0.2,5.6-1,8.3c-1.6,5.5-3.1,11.1-6.7,15.8
		c-0.8,1.1-1.6,2.2-2.4,3.4c7.4,8.9,11.2,19.3,12.1,30.8c-0.1,0.2-0.1,0.4-0.3,1.2c-1.7-7.1-3.7-13.4-7.5-19.1
		c-3.9-5.8-9.6-9.4-16.1-12.4c1.8-1.3,3.4-2.2,4.9-3.5c5.2-4.5,8.7-10.1,11.5-16.3c2.4-5.1,3.5-10.6,4.6-16c0.2-0.8,0.4-1.6,0.7-2.4
		c0.1,0,0.1,0,0.2,0C257.6,100.5,257.7,100.6,257.7,100.7z"/>
	<path class="st19" d="M93.5,64.8c-0.2-0.3-0.5-0.7-0.7-1c-2.4-4.6-6.2-8.4-10.8-10.8c-0.5-0.3-0.9-0.6-1.4-0.9
		c6.4-3.5,9.6-9.2,11.6-15.8c0.3-1,0.4-2.1,0.7-3.2c0.4,7,3.4,13.7,8.3,18.8c-0.4,0.5-0.7,0.9-1.2,1.3c-2,1.9-3.6,4.3-4.5,6.9
		C95,61.7,94.2,63.2,93.5,64.8z"/>
	<path class="st16" d="M93.5,64.8c0.7-1.6,1.5-3.1,2.1-4.8c0.9-2.6,2.4-5,4.5-6.9c0.4-0.4,0.8-0.9,1.2-1.3C96.4,46.7,93.4,40,93,33
		c0-0.6,0.1-1.3,0.1-1.9l0.4-0.1c0.3,1,0.6,1.9,0.8,2.9c2.1,7.8,6.3,13.8,13.4,17.9c0.2,0.2,0.4,0.4,0.5,0.6
		c-3.1,1.5-6.2,2.9-8.5,5.5s-3.8,5.7-5.2,9.5L93.5,64.8z"/>
	<path class="st19" d="M412.1,322.6c-1.9-4.7-4.7-8.9-8.2-12.5c-1.1-1-2.2-2.1-3.4-3.2c6.4-3.4,9.4-9.1,11.6-15.8
		c0.8,1.3,1.3,2.7,1.5,4.2l0.5,1.2l0,0l0.5,1l0,0c0.1,0.8,0.3,1.5,0.6,2.3c1,2,2,4,3.1,6.1C415.1,310.9,411.8,316.1,412.1,322.6z"/>
	<path class="st16" d="M412.1,322.6c-0.3-6.5,3.1-11.7,6.2-16.8c-1.1-2.2-2.2-4.1-3.1-6.1c-0.3-0.7-0.5-1.5-0.6-2.3
		c2.5,3.2,5.6,5.9,9.1,7.8c0.2,0.1,0.3,0.4,0.4,0.5c-6.6,3.6-9.5,9.8-11.6,16.6c0,0.1,0,0.2-0.1,0.2
		C412.3,322.6,412.2,322.6,412.1,322.6z"/>
	<path class="st16" d="M414.1,296.5l-0.5-1.2L414.1,296.5z"/>
	<path class="st16" d="M414.6,297.5l-0.5-1L414.6,297.5z"/>
	<path class="st20" d="M119,299.4c-3.5,1.4-7.1,2.8-10.6,4.3c-5.2,2.1-10.5,3.7-16,4.7c-0.8,0.1-1.7,0.1-2.5,0l-0.2-0.5
		c0.4-0.3,0.7-0.7,1.1-0.8c5.3-0.8,10.4-2.3,15.4-4.4c8.1-3.5,16.2-7.1,24.3-10.7c0.7-0.4,1.4-0.8,2-1.2c4.8-2.7,9.7-5.3,14.3-8.2
		c7.9-5,15.7-10.4,23.6-15.6c0.8-0.5,1.6-0.9,2.4-1.3l0.4,0.3c-0.1,0.4-0.1,1-0.4,1.3c-0.5,0.5-1.1,1-1.7,1.3
		c-8.4,5.6-16.6,11.4-25.1,16.7c-7.7,4.9-15.7,9.1-24.1,12.7l-0.5,0.3l-0.5,0.1l-0.5,0.3L119,299.4z"/>
	<path class="st21" d="M196.2,290.1c1.1,1,0.4,1.9-0.2,2.7c-2.1,2.9-4.3,5.7-6.4,8.6c-5.3,7.5-11.2,14.5-17.5,21.1
		c-4.3,4.4-8.4,9-12.9,13.1c-5.2,4.9-10.7,9.5-16.1,14.2c-0.5,0.4-1.1,0.8-1.6,1.1c-0.9-0.6-0.9-1.1-0.1-1.8
		c1.9-1.5,3.8-3.1,5.7-4.8c0.8-0.7,1.6-1.6,2.3-2.4c3.1-2.8,6.2-5.5,9.2-8.3c5.8-5.5,11.3-11.2,16.5-17.3c5.3-6.1,10.1-12.6,15-18.9
		c1.6-2,3-4.1,4.6-6.1C195.1,290.9,195.6,290.5,196.2,290.1z"/>
	<path class="st21" d="M139.6,342.5c-1.8,0.9-3.6,1.7-5.3,2.8c-4,2.5-8.4,3.9-12.8,5.2c-0.7,0.1-1.3,0.2-2,0.1
		c-0.2-1.6,1-1.4,1.6-1.6c3.3-1.4,6.7-2.5,9.9-4.1c3.6-1.8,6.9-3.9,10.4-5.9c0.2-0.2,0.5-0.4,0.7-0.7c4.9-2.9,9.5-6.4,13.6-10.4
		c1.2-1.2,1.2-1.2,3.2-0.9c-0.6,0.9-1.3,1.7-2,2.4c-3.2,2.7-6.3,5.4-9.6,7.9C144.8,339.1,142.2,340.8,139.6,342.5z"/>
	<path class="st20" d="M110.3,295.5c-7.5,3.4-15.4,6-23.5,7.9c-2.2,0.5-4.4,0.9-6.6,1.3c-0.4,0.1-1.3-0.1-1.3-0.4
		c-0.2-0.9,0.6-0.9,1.2-1.1c5.2-1.3,10.4-2.5,15.5-3.9c4.5-1.2,8.8-2.9,12.8-5.1l0.9-0.3l0.5-0.3l3.1-1.2c0.6-0.2,1.4-0.5,1.6,0.3
		c0.1,0.4-0.5,1-1,1.3C112.5,294.6,111.4,295.1,110.3,295.5z"/>
	<path class="st22" d="M115.2,307.1c-3.7,1.3-7.3,2.5-11,3.7c-1.1,0.4-2.1,0.6-3.2,0.9c-0.3,0.1-0.8-0.2-1.2-0.4
		c0.3-1.2,1.2-1.1,1.9-1.4l12.1-4.3l6.5-2.2c-0.3,1.1-1.2,2-2.3,2.4C117,306.3,116.1,306.7,115.2,307.1z"/>
	<path class="st22" d="M145.8,278.8c-0.6,0.7-1.2,1.4-1.9,2c-4.4,2.8-8.9,5.5-13.4,8.3c-0.6,0.4-1.4,1-1.9-0.5
		c2.8-1.7,5.6-3.4,8.5-5s5.2-4,8.2-5.4L145.8,278.8z"/>
	<path class="st3" d="M121.4,298.4l0.5-0.3L121.4,298.4z"/>
	<path class="st3" d="M120.4,298.9l0.5-0.3L120.4,298.9z"/>
	<path class="st3" d="M109.9,293.6l-0.5,0.3L109.9,293.6z"/>
	<path class="st22" d="M174.5,172.8c-0.7,1.1-1.6,0.8-2.5,0.4c-1.9-0.8-3.8-1.6-5.7-2.4c-6.1-2.5-12.6-3.9-19.1-5.3
		c-1.5-0.3-3-0.6-4.4-1c-1-0.3-1-0.9-0.2-1.6c7.5,1.2,14.8,3,22,5.4c2.9,1,5.6,2.2,8.4,3.4C173.5,172,174,172.4,174.5,172.8z"/>
	<path class="st20" d="M105.1,133.5c-5.4,0.6-10.5,2.2-15.7,3.6c-1.2,0.3-2.4,0.6-3.7,0.9c-0.4-1.1,0-1.6,0.9-1.8
		c2.3-0.6,4.6-1.4,6.9-1.9c5-1.1,9.9-2,14.9-3c0.2-0.1,0.4-0.2,0.6-0.4l5.4-0.7c1.2-0.2,1.2-0.1,2.9,1c-0.7,0.2-1.4,0.4-2.1,0.6
		C111.8,132.5,108.5,133,105.1,133.5z"/>
	<path class="st22" d="M127.1,132.5c0.3-0.5,0.4-1,0.8-1.2c0.4-0.2,0.9-0.2,1.4-0.2c5.2,0.5,10.4,1,15.6,1.5
		c0.8,0.2,1.6,0.5,2.4,0.8c-0.6,1.2-1.4,0.9-2,0.8c-5.6-1-11.3-1.5-17.1-1.5C127.8,132.8,127.5,132.7,127.1,132.5z"/>
	<path class="st22" d="M109.2,357.1c3.4,0,6.9,0.1,10.3-0.1s6.7-0.7,10.2-1.1c0.6,0.7,0.1,1.3-0.6,1.5c-1.1,0.3-2.3,0.6-3.5,0.8
		c-5,1-10.1,1.1-15.2,0.3c-0.5-0.2-1-0.4-1.5-0.6L109.2,357.1z"/>
	<path class="st22" d="M99.7,348.9c0.5-0.1,0.9-0.2,1.1-0.1c3,1.1,6,2.2,9,3.3c-1,1.6-2.4,0.7-3.6,0.5
		C103.4,352.2,100.6,350.6,99.7,348.9z"/>
	<path class="st20" d="M252.3,405.4l-2.4,4.1c-1-0.4-1-1-0.6-1.7c1.5-3.3,2.9-6.7,4.3-10.1c0.3-0.8,0.6-1.7,0.8-2.5l-0.4-0.1
		c-2.3,4.8-4.2,9.8-6.8,14.4s-4.9,9.4-8.7,13.1c-1.2-0.6-0.7-1.2-0.4-1.7c2.4-3.8,5.1-7.5,7.2-11.5c2.6-5.2,4.8-10.6,7.1-15.9
		c0.9-2.3,1.7-4.6,2.6-6.9c0.4-0.6,0.8-1.2,1.3-1.7c0.6,1.9,0.9,1-1.1,6.8c1,0.3,1.5,1.4,1.2,2.4c0,0.1-0.1,0.1-0.1,0.2
		c-0.8,2.2-1.5,4.4-2.3,6.5C253.4,402.3,252.9,403.8,252.3,405.4z M254.3,394l0.3,0.1v-0.8h-0.2L254.3,394z"/>
	<path class="st22" d="M287.4,350.3c0.9-0.2,1.4,0.2,1.4,1.1c-0.1,4.4-0.2,8.8-0.3,13.1c0.1,2.1-0.1,4.3-0.5,6.4
		c-1.3,5.4-2.7,10.8-4.2,16.1c-0.5,1.7-1.1,3.3-1.6,5c-0.2,0.8-0.8,0.9-1.5,0.8c0.6-2.3,1.2-4.6,1.8-6.9c1.1-4.1,2.3-8.3,3.3-12.5
		c1.1-4.4,1.1-9,1.1-13.5c0-2.4,0-4.8,0-7.2C287,352,287.2,351.1,287.4,350.3z"/>
	<path class="st22" d="M267.6,419.2c-0.3,0.3-0.6,0.7-0.9,1l-1.9-0.1l4.8-8c1.4-2.3,2.8-4.6,4.2-6.9c0.5-0.8,0.9-1.7,2.1-1.7
		c-0.2,0.9-0.4,1.8-0.8,2.7c-2.3,3.8-4.6,7.6-6.9,11.4C267.9,418.2,267.7,418.7,267.6,419.2z"/>
	<path class="st20" d="M201.5,368c0.1,1-0.2,1.9-0.9,2.6c-3.1,3.7-6,7.4-9.2,11c-2.5,2.9-5.3,5.6-7.9,8.3c-0.7,0.7-1.4,1.3-2.3,1.8
		c-0.3,0.2-0.8,0.1-1.7,0.1l6.7-7c2.3-2.6,4.7-5.2,7-7.9s4.2-5.2,6.4-7.8C200.2,368.7,200.8,368.3,201.5,368z"/>
	<path class="st21" d="M132.9,216.4l0.5,0.9c-1.2,0.7-2.5,1-3.9,0.9c-8.8,0.4-17.5,1.3-25.8,4.4c-8.7,3.2-17.2,6.7-25.1,11.6
		c-3.4,2.1-6.8,4.1-10.2,6.2c-2.1,1.4-4.2,2.9-6.4,4.4c-0.9-0.7-0.6-1.4,0.2-2c1.5-1.2,3-2.4,4.6-3.4c5.3-3.4,10.7-6.6,16.1-9.9
		c1.3-0.8,2.6-1.4,3.9-2.2c4-1.7,7.9-3.3,11.9-5c6.5-2.8,13.5-4.5,20.6-5.1C123.8,216.9,128.3,216.7,132.9,216.4z"/>
	<path class="st22" d="M135.6,199.9c-1.1,1.1-2.6,0.9-3.9,1c-9.6,1-19.2,1.9-28.6,4c-1.8,0.4-3.5,0.8-5.4,1.3
		c-0.5-1.2,0.2-1.6,1-1.8c2.5-0.6,4.9-1.4,7.4-1.8c7-1.1,14-2,21.1-3c1.9-0.3,3.8-0.5,5.7-0.6c0.9,0,1.8,0.1,2.7,0.3L135.6,199.9z"
		/>
	<path class="st22" d="M88.7,213.4c-3.8,1.3-7.5,2.5-11.3,3.9c-2.2,0.8-4.2,1.9-6.3,2.9c-0.6,0.3-1.3,0.8-2,0c0-1.1,1.1-1.2,1.8-1.6
		c7.4-4,15.3-6.8,23.5-8.5c0.4-0.1,0.7-0.3,1.1-0.5l1.9-0.3l0.5-0.2l1-0.1l2-0.4c1.1-0.1,2.2-0.3,3.3-0.4c0.8,0,1.6,0.1,2.4,0.2
		c-0.6,1.5-1.7,1.4-2.7,1.6C98.7,211.2,93.7,212.3,88.7,213.4z"/>
	<path class="st22" d="M159.6,216.3c-2.3-0.3-4.7-0.6-7-0.8c-1.2-0.1-2.5,0.2-3.8,0.1c-1.1,0-2.1-0.2-3.2-0.3c0-0.7,0.6-1.2,1.3-1.2
		c0.1,0,0.1,0,0.2,0c3.4,0.1,6.8,0.1,10.2,0.4C158.3,214.6,159.7,214.7,159.6,216.3z"/>
	<path class="st22" d="M155.5,201c2-0.8,4.1,0,6.1,0.3c2.2,0.3,4.5,0.3,6.6,2.3c-0.8,0.2-1.1,0.4-1.4,0.4c-3.8-0.7-7.5-1.4-11.3-2.1
		L155.5,201z"/>
	<path class="st5" d="M100.8,208.7l-2,0.4L100.8,208.7z"/>
	<path class="st5" d="M97.9,209.2l-0.5,0.2L97.9,209.2z"/>
	<path class="st21" d="M355.5,354.6c0.5-0.4,1.2-0.8,1.5,0.2c0.2,0.9,0.4,1.8,0.5,2.8c1.2,7.1,1.6,14.3,1.3,21.5c0,1,0.1,2-1.4,1.8
		c0-2.7,0.1-5.4-0.1-8.1c-0.5-5.5-1.1-10.9-1.7-16.3C355.5,355.9,355.6,355.2,355.5,354.6z"/>
	<path class="st22" d="M354,393.8c1,0.8,0.5,1.6,0.1,2.3c-2,3.2-4,6.5-6,9.6c-0.5,0.6-1,1.2-1.7,1.6c-0.9,0.6-1.3,0-1.3-0.9
		c1.2-1.3,2.4-2.7,3.5-4.2c1.5-2.3,2.7-4.7,4.1-7C353,394.7,353.5,394.2,354,393.8z"/>
	<path class="st22" d="M342.2,406.7L342.2,406.7c-0.1-0.5-0.6-1.1-0.4-1.4c1.4-2.1,2.9-4.2,4.4-6.2c0.1-0.2,0.5-0.2,0.9-0.3
		C347.4,400.7,345.5,403.9,342.2,406.7z"/>
	<path class="st21" d="M168.7,92.1c-0.7,0.1-1.3,0.2-2,0.1c-4.7-0.9-9.3-2.2-14-2.8c-4.4-0.5-8.7-0.7-13.1-0.7
		c-8.5-0.2-16.9,0.7-25.1,2.8c-0.6,0.2-1.2,0.2-1.9,0.4c-0.5-0.9-0.2-1.4,0.6-1.7c1.3-0.4,2.6-0.7,3.9-1c5.1-1.1,10.2-1.8,15.4-2
		c0.3-0.1,0.6-0.2,0.9-0.3c8.6-0.1,17.1,0.1,25.6,1.8c2.6,0.5,5.1,1.2,7.6,1.8C167.5,90.7,168.5,91,168.7,92.1z"/>
	<path class="st22" d="M197.1,106.5c-0.7,0-1.4-0.2-2-0.5c-5.2-4-11-7.3-17.1-9.6c-0.7-0.3-1.4-0.7-2-1.2l1.2-0.8
		c6.1,2.1,11.7,5.3,17.2,8.7c0.9,0.6,1.7,1.2,2.4,2C196.9,105.3,196.9,106,197.1,106.5z"/>
	<path class="st21" d="M76,171c-0.1-1.7,1-1.6,1.7-1.8c4.4-1.1,8.8-2.3,13.2-3.1c6.4-1.1,12.9-2.1,19.3-2.8c3.3-0.2,6.7-0.3,10-0.1
		c0.4,0.1,0.8,0.2,1.2,0.4c-0.4,0.4-0.9,0.7-1.4,1c-0.5,0.1-1.1,0.1-1.7,0.1c-6.3,0-12.5,0.6-18.7,1.8c-5.6,0.9-11.1,1.9-16.7,3
		c-2,0.4-3.8,1-5.8,1.5C76.8,170.9,76.4,171,76,171z"/>
	<path class="st22" d="M103.1,126.6l-12.9,2.9c0.3-0.7,0.3-1.3,0.7-1.5c0.5-0.3,1.1-0.6,1.8-0.7c2.4-0.5,4.8-1.1,7.2-1.5
		c1.1-0.1,2.1-0.1,3.2,0L103.1,126.6z"/>
	<path class="st22" d="M126.2,164.1c1.3-1.3,3.3-1.3,5.1-0.3C130.1,164.8,128.6,164.9,126.2,164.1z"/>
	<path class="st21" d="M231,331.1c0.1,0.4,0.2,0.7,0.1,0.8c-2.1,3.9-4,7.8-6.3,11.5c-8,12.7-16.1,25.3-26,36.6
		c-0.2,0.2-0.5,0.2-1.2,0.5c0.1-0.6,0.2-1.2,0.5-1.8c1.1-1.4,2.3-2.6,3.3-4.1c2.8-3.8,5.5-7.6,8.1-11.5c5-7.5,9.9-15,14.8-22.6
		c1.4-2.1,2.4-4.5,3.7-6.7c0.5-0.9,1.1-1.7,1.8-2.5C230.1,331.2,230.6,331.2,231,331.1z"/>
	<path class="st22" d="M190.6,387.6c-0.3,0.8-0.4,1.4-0.7,1.6c-2.5,1.7-5,3.3-7.5,4.9c-0.2,0.1-0.6-0.3-1.4-0.6
		c1.8-1.1,3.3-2.1,4.8-3S188.3,388,190.6,387.6z"/>
	<path class="st22" d="M219.1,68.4c-1.2,0.1-1.5-0.9-2.1-1.7c-2.6-3.7-5-7.6-7.8-11.2c-2-2.3-4.1-4.4-6.3-6.5
		c-0.8-0.8-1.7-1.6-2.6-2.5c1.2-1,1.9-0.2,2.5,0.3c1.1,0.8,2.2,1.8,3.3,2.7c4.7,4.9,8.8,10.4,12.1,16.3
		C218.8,66.6,219,67.5,219.1,68.4z"/>
	<path class="st22" d="M223,79.6c-0.8,0.2-1.2-0.3-1.4-1c-0.5-1.5-1-3-1.4-4.5c-0.1-0.3,0.3-0.8,0.5-1.2
		C222.6,74.7,222.9,77.1,223,79.6z"/>
	<path class="st20" d="M384.3,367.5c-0.3,0.7-0.7,1.4-0.9,2.1c-2,6.1-4.7,12-8,17.5c-1.3,1.8-2.6,3.6-4.2,5.2
		c-0.3,0.3-0.9,0.3-1.3,0.5l-0.3-0.4l1.1-1.9l0.6-0.6c0.1-0.1,0.2-0.3,0.4-0.4c2.2-2.8,4-5.9,5.4-9.3c3-6.2,5.3-12.6,6.9-19.3
		c0.4-2,0.7-4.1,0.9-6.1c0.1-0.9,0.2-1.7,1.5-1.8c0.8,1.7,0.4,3.4,0.1,5.1C385.8,361.3,385,364.4,384.3,367.5z"/>
	<path class="st22" d="M391.9,345c1,1.5,0.6,3.1,0.5,4.6c-0.3,3.7-0.9,7.4-1.5,11c-0.3,1.6-0.7,3.1-1.3,4.6
		c-0.7,2.1-1.6,4.1-2.5,6.4l-1.2-0.9c0.5-1.5,1.1-3,1.6-4.5c2-5.6,3-11.5,3-17.5c0-1,0.1-2,0.4-3C391.1,345.5,391.6,345.3,391.9,345
		z"/>
	<path class="st22" d="M381.2,363.3c0.3,2.6-2.7,9.8-4.8,11.4c-0.9-1.6,0.6-2.6,1-3.8c0.4-1.4,1-2.8,1.7-4.2
		C379.6,365.5,379.4,363.8,381.2,363.3z"/>
	<path class="st11" d="M371.7,389.5c-0.1,0.1-0.2,0.3-0.4,0.4C371.4,389.8,371.5,389.7,371.7,389.5z"/>
	<path class="st2" d="M219.7,202.9c-0.6-1-0.1-1.8,0.4-2.6c1.3-2.3,2.9-3.5,5.8-4.4c0.1,0.4,0.4,1.1,0.3,1.2
		c-1.2,0.9-0.8,2.1-0.6,3.2c0.3,1.5,0.1,2-1.4,2.7l-2-2.5L219.7,202.9z M224.8,201.9c0.5-1.1,0.1-2.4-0.8-3.1
		C222.9,200.3,223,200.6,224.8,201.9L224.8,201.9z"/>
	<path class="st2" d="M200.6,202c1,0.1,2,0.3,3,0.6c1.9,0.5,2.9,2.5,2.4,4.3c0,0.1,0,0.1-0.1,0.2l-1.4-1.2l-1.8,0.8v-2.4
		C199.9,203.5,199.9,203.5,200.6,202L200.6,202z"/>
	<path class="st14" d="M219.7,202.9l2.5-2.5l2,2.5C222.7,203.1,221.2,204.1,219.7,202.9z"/>
	<path class="st2" d="M258.8,277.8c-1.5-0.2-2.6-1.4-2.6-2.9c0-0.9,0.8-1.7,1.8-1.7c0.1,0,0.3,0,0.4,0.1c1.5,0.1,2.7,1.4,2.6,2.9
		c0,0.9-0.8,1.7-1.7,1.7C259,277.9,258.9,277.9,258.8,277.8z M259.5,276.6c-0.4-1.5-0.8-1.8-2.2-1.2L259.5,276.6z"/>
	<path class="st3" d="M254.3,394l0.1-0.8h0.2v0.8L254.3,394z"/>
	<path class="st15" d="M224.8,201.9c-1.8-1.2-1.9-1.6-0.8-3.1C224.9,199.5,225.3,200.8,224.8,201.9z"/>
	<path class="st6" d="M259.5,276.6l-2.2-1.2C258.7,274.8,259.2,275.1,259.5,276.6z"/>
</g>
</svg>
